<svg xmlns="http://www.w3.org/2000/svg" xmlns:xlink="http://www.w3.org/1999/xlink" width="400" height="411.465" viewBox="0 0 400 411.465">
  <defs>
    <clipPath id="clip-path">
      <rect id="Rectángulo_403133" data-name="Rectángulo 403133" width="400" height="411.465" fill="#fff" stroke="#707070" stroke-width="1"/>
    </clipPath>
    <clipPath id="clip-path-2">
      <rect id="Rectángulo_403132" data-name="Rectángulo 403132" width="400" height="411.622" transform="translate(65.697)" fill="#ffeed2"/>
    </clipPath>
    <clipPath id="clip-path-3">
      <rect id="Rectángulo_403131" data-name="Rectángulo 403131" width="378.949" height="798.469" fill="none"/>
    </clipPath>
  </defs>
  <g id="Enmascarar_grupo_1098823" data-name="Enmascarar grupo 1098823" clip-path="url(#clip-path)">
    <g id="Enmascarar_grupo_1098822" data-name="Enmascarar grupo 1098822" transform="translate(-65.697 -0.157)" clip-path="url(#clip-path-2)">
      <g id="Grupo_1106489" data-name="Grupo 1106489" transform="translate(0 0)">
        <rect id="Rectángulo_403129" data-name="Rectángulo 403129" width="550.56" height="459.111" fill="#ffeed2"/>
        <g id="Grupo_1106488" data-name="Grupo 1106488" transform="translate(73.925 30.666)">
          <g id="Grupo_1106487" data-name="Grupo 1106487" transform="translate(0 0)">
            <path id="Trazado_898740" data-name="Trazado 898740" d="M97.036,306.011s22.587-44.867,82.267-36.277,53.111,47.73,94.43,45.821,86.3-29.593,123,24.776c42.575,63.076-30.178,116.721-1.283,155.266,51.771,69.06,0,150.461-115.62,135.008-95.887-12.811-96.746-30.79-152.4-9.015S21.157,562.955,41.377,500s71.608-38.949,47.53-90.359S97.036,306.011,97.036,306.011Z" transform="translate(-36.834 -268.641)" fill="#fcd189"/>
            <g id="Grupo_1106486" data-name="Grupo 1106486" transform="translate(41.482 6.11)">
              <g id="Grupo_1106485" data-name="Grupo 1106485" clip-path="url(#clip-path-3)">
                <path id="Trazado_898741" data-name="Trazado 898741" d="M119.9,75.882l.313,1.035.359,1.146.747,2.334c.508,1.564,1.033,3.135,1.568,4.705q1.6,4.709,3.331,9.383c2.3,6.218,4.747,12.357,7.362,18.292a185.963,185.963,0,0,0,8.382,16.894c1.486,2.594,3.018,5.064,4.544,7.217a39.9,39.9,0,0,0,4.214,5.165l.2.191c.055.055.155.151.172.174a3.945,3.945,0,0,0-.422-.254,1.434,1.434,0,0,0-.222-.1c-.071-.032-.132-.069-.206-.094a3.675,3.675,0,0,0-.392-.128c-.483-.128-.663-.065-.489.021a3.886,3.886,0,0,0,1.44.134,17.562,17.562,0,0,0,2.732-.325,43.632,43.632,0,0,0,7.194-2.145c2.594-1,5.289-2.214,8-3.58a155.206,155.206,0,0,0,16.258-9.625c2.672-1.792,5.312-3.662,7.878-5.578,1.28-.959,2.546-1.929,3.765-2.9s2.409-1.948,3.427-2.829l.252-.218A16.114,16.114,0,0,1,222.3,138.319c-1.517,1.53-2.938,2.875-4.372,4.2s-2.854,2.586-4.292,3.832c-2.871,2.491-5.782,4.886-8.764,7.219a189.45,189.45,0,0,1-18.98,13.167c-3.4,2.04-6.957,3.992-10.775,5.8a80.919,80.919,0,0,1-12.6,4.789,56.182,56.182,0,0,1-7.583,1.591,42.945,42.945,0,0,1-9.035.315,35.827,35.827,0,0,1-10.661-2.411c-.93-.386-1.847-.77-2.762-1.253-.455-.237-.909-.47-1.358-.724s-.89-.531-1.331-.806c-.886-.537-1.717-1.169-2.552-1.784l-.837-.665-.806-.653a74.3,74.3,0,0,1-9.943-10.292c-2.749-3.391-5.119-6.743-7.333-10.088a224.571,224.571,0,0,1-11.6-20.019c-3.459-6.678-6.623-13.371-9.61-20.112q-2.238-5.059-4.344-10.162-1.055-2.556-2.08-5.14l-1.02-2.609-.51-1.331-.541-1.448A21.786,21.786,0,0,1,119.435,74.5q.236.63.428,1.263Z" transform="translate(84.854 66.28)" fill="#a66464"/>
                <path id="Trazado_898742" data-name="Trazado 898742" d="M144.2,85.791,127.977,96.7l9.971,38.8,20.81-17.31Z" transform="translate(140.605 94.256)" fill="#e7a743"/>
                <path id="Trazado_898743" data-name="Trazado 898743" d="M133.747,89.124,144.458,132.5l-7.3,4.9L126.227,93.04Z" transform="translate(138.682 97.918)" fill="#cc861e"/>
                <path id="Trazado_898744" data-name="Trazado 898744" d="M108.464,116.231a1.034,1.034,0,0,1-.262-.034,1.048,1.048,0,0,1-.753-1.278c2-7.748,8.338-15.35,8.607-15.671a1.049,1.049,0,0,1,1.608,1.349c-.063.076-6.3,7.564-8.183,14.846a1.048,1.048,0,0,1-1.016.787" transform="translate(118.014 108.631)" fill="#8a4747"/>
                <path id="Trazado_898745" data-name="Trazado 898745" d="M108.151,106.552a1.05,1.05,0,0,1-.718-1.815,35.6,35.6,0,0,1,8.172-5.064,1.049,1.049,0,0,1,.917,1.887,34.05,34.05,0,0,0-7.654,4.709,1.05,1.05,0,0,1-.718.283" transform="translate(117.67 109.391)" fill="#8a4747"/>
                <path id="Trazado_898746" data-name="Trazado 898746" d="M105.849,61.407s15.215,38.242,20.307,47.577L99.289,159.459s-12.33-29.02-11.543-59.81,18.1-38.242,18.1-38.242" transform="translate(96.364 67.466)" fill="#6b8429"/>
                <path id="Trazado_898747" data-name="Trazado 898747" d="M119.484,80.874l-27.392,48.5,3.7,7.637,27.365-50.194Z" transform="translate(101.179 88.854)" fill="#3f4f0c"/>
                <path id="Trazado_898748" data-name="Trazado 898748" d="M39.463,99.692c13.83-34.341,47.6-49.3,47.6-49.3-1.328-7.037-2.413-9.282-8.577-10.464l-.05-.036a30.172,30.172,0,0,0-5.981-2.842c-7.06-2.523-19.453-4.46-32.5,5.184-18,13.3-16.575,30.013-13.7,39.558a37.479,37.479,0,0,0,3.171,7.629c.015.052.025.1.04.155,2.571,10.248,10,10.12,10,10.12" transform="translate(26.945 38.444)" fill="#cc861e"/>
                <path id="Trazado_898749" data-name="Trazado 898749" d="M28.559,88.5c13.085-19.176,38.75-43.111,48.97-49.682A30.141,30.141,0,0,0,71.55,35.97C55.456,45.611,33.99,69.7,25.348,80.712a37.344,37.344,0,0,0,3.171,7.629c.015.057.025.1.04.157" transform="translate(27.849 39.519)" fill="#6b8429"/>
                <path id="Trazado_898750" data-name="Trazado 898750" d="M139.946,28.816c11.348,11.144-6.441,47.657-39.73,81.554s-69.477,52.345-80.822,41.2,6.441-47.657,39.73-81.554,69.472-52.345,80.822-41.2" transform="translate(17.547 28.09)" fill="#e7a743"/>
                <path id="Trazado_898751" data-name="Trazado 898751" d="M92.526,44.958c6.949,6.825-.6,25.778-16.857,42.332S40.6,111.736,33.648,104.911s.6-25.776,16.857-42.332,35.073-24.445,42.022-17.62" transform="translate(34.129 46.697)" fill="#cc861e"/>
                <path id="Trazado_898752" data-name="Trazado 898752" d="M39.5,220.449c.258,1.037.537,2.055.844,3.045.008.036.019.078.031.115q.623,2.015,1.375,3.868c4.462,10.926,38.956,12.527,72.91,8.728,26.336-2.944,52.353-9.146,63.774-16.775,10.726-7.159-12.118-73.231-12.118-73.231L37.494,173.237s-2.9,27.476,2.008,47.212" transform="translate(40.26 160.626)" fill="#23221e"/>
                <path id="Trazado_898753" data-name="Trazado 898753" d="M147.716,483.32c-22.221,6.348-28.674,5.882-45.877-2.136C95.006,432.364,92.315,374.43,93.086,340.3L74.8,201.584l64.352-27.325c9.568,46.565,15.593,124.059,18.044,164.626.071,1.137.141,2.25.2,3.331.309,5.263.552,9.794.724,13.427,1.165,24.191-5.9,76.753-10.409,127.677" transform="translate(82.183 191.453)" fill="#23221e"/>
                <path id="Trazado_898754" data-name="Trazado 898754" d="M128.109,257.291c-.464.088-.919.174-1.377.241-12.344,1.9-23.642-2.56-24.24-2.8a1.647,1.647,0,0,1,1.234-3.054c.193.084,12.067,4.733,24.175,2.283.076,1.137.143,2.25.208,3.331" transform="translate(111.476 276.379)" fill="#42413c"/>
                <path id="Trazado_898755" data-name="Trazado 898755" d="M102.156,458.105a1.049,1.049,0,0,1-1.037-.9c-.029-.2-2.831-20.395-5.024-56.4-2.147-35.235-.667-77.112-.586-79.307L79.081,192.057a1.049,1.049,0,1,1,2.082-.264L97.6,321.32a.939.939,0,0,1,.008.172c-.017.428-1.608,43.279.579,79.185s4.98,56.035,5.007,56.232a1.049,1.049,0,0,1-.894,1.186.859.859,0,0,1-.147.011" transform="translate(86.875 209.707)" fill="#42413c"/>
                <path id="Trazado_898756" data-name="Trazado 898756" d="M110.991,466.44s-12.067,10.93-48.469,3.236c-5.436-32.754-12.682-69.433-18.1-123.517q-.183-1.706-.346-3.446c-4.25-43.531-7.3-98.218-7.341-170.811l77.846,32.273-.325,131.1c2.5,27.723,6.961,77.084-3.263,131.167" transform="translate(40.359 188.864)" fill="#23221e"/>
                <path id="Trazado_898757" data-name="Trazado 898757" d="M65.93,255.382c-.6.241-11.906,4.67-24.24,2.749-.367-.057-.741-.126-1.112-.2q-.183-1.706-.346-3.448c12.2,2.619,24.275-2.076,24.471-2.162a1.648,1.648,0,0,1,1.228,3.06" transform="translate(44.202 277.091)" fill="#42413c"/>
                <path id="Trazado_898758" data-name="Trazado 898758" d="M68.372,445.3a1.031,1.031,0,0,1-.384-.073,1.048,1.048,0,0,1-.592-1.36c9.031-22.991,5.864-68.981,3.769-99.414-.946-13.765-1.7-24.638-1.215-30.3,4.086-48.263.216-119.347.176-120.061a1.05,1.05,0,0,1,2.1-.115c.04.714,3.916,71.943-.183,120.353-.466,5.507.277,16.309,1.219,29.984,2.233,32.452,5.293,76.9-3.912,100.327a1.046,1.046,0,0,1-.976.665" transform="translate(73.966 212.02)" fill="#42413c"/>
                <path id="Trazado_898759" data-name="Trazado 898759" d="M183.882,279.026a74.707,74.707,0,0,1-8.29,6.39c-.1.073-.214.143-.319.21-2.378,1.58-4.917,3.085-7.576,4.512-.955.5-1.927,1-2.9,1.49a130.264,130.264,0,0,1-26,9.44c-.854.225-1.721.434-2.6.623q-3.771.891-7.65,1.574c-.867.168-1.738.309-2.609.451a154.2,154.2,0,0,1-31.065,1.83c-1.249-.05-2.493-.113-3.736-.2q-4.983-.331-9.96-1.022c-.078-.011-.155-.027-.235-.031-1-.143-2-.29-3-.458a132.79,132.79,0,0,1-15.965-3.6A118.284,118.284,0,0,1,48.449,295.4c-.749-.317-1.5-.651-2.243-.978-.93-.424-.017.023-.93-.424-.084-.036,2.1,1,0,0-2.879-7.866-3.354-24.964-5.813-43.048l-.027-6.441c-2.2-16.2-4.672-28.259-5.427-35.772-.332-3.169-1.272-7.115-1.486-10.284-.472-7.171-1.838-10.118-3.236-19.912a29.861,29.861,0,0,1-.241-3.652c0-.529-.01-3.394,0-3.935.063-6.768-.1-11.268.218-18.261.036-.877.084-1.748.122-2.628q.321-6.359.714-12.888c.56-9.228,1.211-18.735,1.83-28.641,1-15.933,4.39-28.485,10.042-36.979a32.682,32.682,0,0,1,4.7-5.639A24.92,24.92,0,0,1,60.1,59.263a71.761,71.761,0,0,0,8.689-1.914c.493-.136.959-.279,1.431-.426,1.486-.458,2.882-.949,4.183-1.448,1.5-.583,2.9-1.186,4.153-1.78.2-.092.405-.189.6-.277.336-.174.665-.329.991-.5a52.114,52.114,0,0,0,8.447-5.23H125.9c.288.424.588.839.886,1.232.027.034.042.059.067.086a27.946,27.946,0,0,0,8.8,7.433c.609.34,1.238.655,1.857.955.479.235.965.451,1.459.667.51.218,1.024.424,1.538.627,1.221.479,2.455.9,3.694,1.307l.042,0c9.039,2.886,18.227,4.124,23.264,10.8a16.632,16.632,0,0,1,2,3.452,21.3,21.3,0,0,1,1.328,4.353,17.452,17.452,0,0,1,.319,2.976c.378,10.938-5.918,31.449-5.188,69.493q.069,3.554.225,7.3c.031.747.059,1.5.094,2.252q.1,2.314.258,4.705v.006c.1,1.6.2,3.221.336,4.869q.331,4.612.823,9.5.419,4.278.972,8.793c.371,3.068.781,6.223,1.249,9.459,1.354,9.469,3.945,25.809,6.951,42.33,0,0,.011.057.031.162.94,5.165,1.92,10.342,2.917,15.327l.006.038c1.312,7.077,2.833,15.572,4.055,23.205" transform="translate(31.905 52.395)" fill="#6b8429"/>
                <path id="Trazado_898760" data-name="Trazado 898760" d="M54.156,80.935s-1.163,36.271,31.008,36.3S111.4,80.992,111.4,80.992Z" transform="translate(59.494 88.921)" fill="#3f4f0c"/>
                <path id="Trazado_898761" data-name="Trazado 898761" d="M48.914,261.54a.777.777,0,0,1-.751-.575C23.354,170.386,38.63,76.7,38.788,75.768a.763.763,0,0,1,.9-.64.779.779,0,0,1,.64.9c-.157.932-15.373,94.289,9.337,184.528a.777.777,0,0,1-.546.957.7.7,0,0,1-.206.029" transform="translate(37.346 82.525)" fill="#3f4f0c"/>
                <path id="Trazado_898762" data-name="Trazado 898762" d="M180.387,191.952s-47.738,25.7-140.789,11a387.384,387.384,0,0,1-5.606-53.793V143.68s76.73,28.149,137.438-4.216c0,0,.013.057.031.162.212,1.077,1.429,7.289,2.917,15.327l.006.036c1.312,7.079,2.833,15.572,4.055,23.207.842,5.226,1.543,10.057,1.948,13.757" transform="translate(37.346 153.225)" fill="#23221e"/>
                <path id="Trazado_898763" data-name="Trazado 898763" d="M44.553,55.707S37.476,180.45,55.54,251.35c0,0,6.453-.388,14.441,0,0,0-17.778-118.751-11.125-199.43,0,0-9.549-3.912-14.3,3.788" transform="translate(47.449 55.95)" fill="#23221e"/>
                <path id="Trazado_898764" data-name="Trazado 898764" d="M95.557,58.24s9.988,100.331,7.7,187.655a121.294,121.294,0,0,1-13.843,2.372s3.159-116.774-8.775-196.843c0,0,9.666-.556,14.915,6.816" transform="translate(88.599 56.488)" fill="#23221e"/>
                <path id="Trazado_898765" data-name="Trazado 898765" d="M84.718,221.917a1.3,1.3,0,0,1-1.245,1.333h-.011a1.292,1.292,0,0,1-1.377-1.2c-.231-4.764-.512-9.641-.818-14.514-.055-.856-.107-1.715-.166-2.573-1.037-15.921-2.353-31.554-3.345-42.588-.08-.892-.157-1.759-.235-2.59-.22-2.422-.422-4.569-.592-6.388.873-.136,1.746-.277,2.609-.422.17,1.818.374,3.985.6,6.435.078.829.153,1.7.235,2.588.982,10.94,2.29,26.435,3.324,42.261.061.873.115,1.75.176,2.623.315,5.049.607,10.109.848,15.041" transform="translate(84.521 168.063)" fill="#42413c"/>
                <path id="Trazado_898766" data-name="Trazado 898766" d="M94.078,204.291a34.867,34.867,0,0,1-4.6,1.763,26.609,26.609,0,0,1-2.6.655,18.983,18.983,0,0,1-2.493.325,9.084,9.084,0,0,1-4.418-.693,5.386,5.386,0,0,1-3-4.023c-.959-4.911-2.97-25.195-4.323-39.541-.086-.879-.166-1.742-.246-2.577-.214-2.3-.405-4.382-.569-6.155.871-.1,1.746-.21,2.619-.327.166,1.784.359,3.9.579,6.223.078.831.16,1.691.239,2.577,1.358,14.311,3.362,34.565,4.29,39.325a2.833,2.833,0,0,0,1.587,2.223c1.394.663,3.486.527,5.566.071.888-.191,1.769-.441,2.594-.705a31.53,31.53,0,0,0,3.614-1.417,1.334,1.334,0,0,1,1.763.573,1.255,1.255,0,0,1-.6,1.7" transform="translate(78.915 168.885)" fill="#42413c"/>
                <path id="Trazado_898767" data-name="Trazado 898767" d="M38.006,204.5c.258,1.037.537,2.055.844,3.045a1.108,1.108,0,0,0,.008.115c.01.006.017.006.023,0a25.783,25.783,0,0,0,15.241-5.079c6.924-5.121,11.123-13.276,13.662-20.911a81.36,81.36,0,0,0,3.8-19.287,1.584,1.584,0,0,0-3.163-.168,79.677,79.677,0,0,1-3.729,18.575c-2.376,7.129-6.227,14.657-12.456,19.257A22.854,22.854,0,0,1,38.564,204.5c-.185,0-.369,0-.558,0" transform="translate(41.756 176.575)" fill="#42413c"/>
                <path id="Trazado_898768" data-name="Trazado 898768" d="M91.446,163.667c.153.816,3.268,16.964,13.69,28.4a36.652,36.652,0,0,0,7.251,6.191,30.544,30.544,0,0,0,6.724,3.261,27.067,27.067,0,0,0,3.3.932c-.117-1.11-.229-2.223-.35-3.339-.529-.139-1.056-.29-1.578-.464a27.737,27.737,0,0,1-6.39-3.045,32.484,32.484,0,0,1-5.916-4.936c-10.405-10.875-13.589-27.386-13.627-27.581a1.58,1.58,0,1,0-3.106.579" transform="translate(100.44 177.761)" fill="#42413c"/>
                <path id="Trazado_898769" data-name="Trazado 898769" d="M96.375,72.522c-.057.537-.489,4.844-.988,10.94-.071.894-.143,1.826-.22,2.793-.737,9.69-1.5,22.624-1.268,32.469a.912.912,0,0,0,1.675.478l.015-.021c-.269-9.828.523-23.113,1.27-32.964a.593.593,0,0,0,.008-.172c.594-7.652,1.146-13.2,1.165-13.352a.832.832,0,0,0-1.656-.172" transform="translate(103.116 78.859)" fill="#3f4f0c"/>
                <path id="Trazado_898770" data-name="Trazado 898770" d="M91.453,86.621c-6.315,0-13.087-1.713-20.133-5.1a85.669,85.669,0,0,1-21.1-14.8.931.931,0,0,1-.042-1.24.761.761,0,0,1,1.142-.046A84.075,84.075,0,0,0,72.011,79.937c15.788,7.564,29.373,6.491,40.378-3.19a.765.765,0,0,1,1.137.13.932.932,0,0,1-.12,1.234,32.48,32.48,0,0,1-21.673,8.51h-.281" transform="translate(54.896 71.642)" fill="#3f4f0c"/>
                <path id="Trazado_898771" data-name="Trazado 898771" d="M90.6,137.406c-6.193-1.232-12.5-4.235-18.752-8.926a85.7,85.7,0,0,1-17.8-18.628.93.93,0,0,1,.2-1.226.764.764,0,0,1,1.129.176,84.012,84.012,0,0,0,17.459,18.252c14.009,10.5,27.543,12.1,40.225,4.751a.763.763,0,0,1,1.089.35.93.93,0,0,1-.357,1.188,32.487,32.487,0,0,1-22.918,4.115l-.275-.055" transform="translate(59.223 119.154)" fill="#3f4f0c"/>
                <path id="Trazado_898772" data-name="Trazado 898772" d="M79.952,73.038c-8.789,0-19.014-7.559-19.576-7.981a.925.925,0,0,1-.208-1.221.769.769,0,0,1,1.125-.227c.172.13,17.257,12.76,25.211,5.318a.762.762,0,0,1,1.14.092.931.931,0,0,1-.084,1.238,10.743,10.743,0,0,1-7.608,2.781" transform="translate(65.948 69.715)" fill="#3f4f0c"/>
                <path id="Trazado_898773" data-name="Trazado 898773" d="M84.732,74.05h-.05c-18.047-.023-32.523-21.6-33.13-22.517a1.049,1.049,0,0,1,1.75-1.156c.143.214,14.466,21.553,31.381,21.574h.048c7.068,0,12.6-1.958,16.445-5.822,5.757-5.784,5.773-13.994,5.771-14.076a1.049,1.049,0,0,1,2.1-.017c0,.369.006,9.136-6.365,15.555-4.254,4.285-10.292,6.458-17.95,6.458" transform="translate(56.448 54.831)" fill="#e7a743"/>
                <path id="Trazado_898774" data-name="Trazado 898774" d="M62.379,72.667a7.854,7.854,0,0,1-2.118-.262c-2.571-.726-3.721-2.835-3.158-5.786,1.278-6.7,19.415-6.265,21.48-6.191a1.052,1.052,0,0,1,.944,1.423c-2.243,5.918-11.312,10.817-17.148,10.817M76.4,62.489c-7.066,0-16.592,1.14-17.238,4.525-.47,2.466.726,3.106,1.668,3.373,4.155,1.171,12.966-2.907,16.042-7.893-.157,0-.313,0-.472,0" transform="translate(62.584 66.355)" fill="#e7a743"/>
                <path id="Trazado_898775" data-name="Trazado 898775" d="M84.186,72.428c-5.843,0-14.8-4.634-17.146-10.416a1.05,1.05,0,0,1,.911-1.444c2.061-.12,20.185-.988,21.621,5.683.632,2.938-.47,5.073-3.022,5.86a8.11,8.11,0,0,1-2.363.317M69.707,62.592C72.9,67.5,81.8,71.379,85.93,70.105c.936-.288,2.118-.955,1.589-3.41-.741-3.446-10.71-4.325-17.811-4.1" transform="translate(73.569 66.434)" fill="#e7a743"/>
                <path id="Trazado_898776" data-name="Trazado 898776" d="M69.487,68.08a1.043,1.043,0,0,1-.8-.369c-.917-1.079-5.448-6.63-4.481-10.032A3.165,3.165,0,0,1,66.437,55.5a3.1,3.1,0,0,1,3.077.481c1.135.936,1.658,2.758,1.87,4.644A9.043,9.043,0,0,1,75,56.564a3.785,3.785,0,0,1,3.31.006,2.72,2.72,0,0,1,1.731,2.246c.325,3.251-5.606,7.794-6.8,8.672A1.049,1.049,0,0,1,71.995,65.8c2.972-2.189,6.092-5.4,5.956-6.775-.008-.094-.031-.317-.529-.55a1.681,1.681,0,0,0-1.53-.011c-2.3,1.087-4.153,6.468-4.619,8.267a1.05,1.05,0,0,1-.85.774,1.047,1.047,0,0,1-.936.575M67.619,57.4a1.777,1.777,0,0,0-.539.1c-.623.2-.785.508-.854.753-.411,1.448,1.352,4.56,3.1,6.9.208-2.9,0-6.6-1.15-7.549a.813.813,0,0,0-.558-.2" transform="translate(70.394 60.76)" fill="#e7a743"/>
                <path id="Trazado_898777" data-name="Trazado 898777" d="M58.72,31.084s-.745,12.128-5.068,16.181c0,0,7.419,8.3,14.838,6.015,0,0-4.055-19.131-9.769-22.2" transform="translate(58.946 34.151)" fill="#5c1d1d"/>
                <path id="Trazado_898778" data-name="Trazado 898778" d="M129.207,34.128a29.644,29.644,0,0,1-.68,3.425v0a38.145,38.145,0,0,1-4.768,10.665l-.974-.046-.967-.046-3.368-.16s-9.574-28.962-24.156-27.022S72.742,53.858,72.742,53.858L55.111,51.067s-8.663-21.43,1.1-36.958C64.347,1.177,79.229,5.072,79.229,5.072s15.226-9.562,30.191-2.428c9.683,4.611,21.912,15.765,19.786,31.484" transform="translate(56.656 0)" fill="#5c1d1d"/>
                <path id="Trazado_898779" data-name="Trazado 898779" d="M95.41,56.73v9.52a29.32,29.32,0,0,1-3.368,2.367C75.5,78.55,57.657,66.25,57.657,66.25V33.225l33.253,20.7Z" transform="translate(63.346 36.503)" fill="#a66464"/>
                <path id="Trazado_898780" data-name="Trazado 898780" d="M90.148,48.856v8.092c-20.368-3.612-27.7-16.556-27.7-16.556l23.2,5.66Z" transform="translate(68.608 44.378)" fill="#211c19"/>
                <path id="Trazado_898781" data-name="Trazado 898781" d="M81.318,26.02s5.41-6.39,8.468,0,.705,19.329-7.528,17.211Z" transform="translate(89.342 25.467)" fill="#8a4747"/>
                <path id="Trazado_898782" data-name="Trazado 898782" d="M114.19,66.512s.029,19.694-20.456,19.65C73.377,86.124,59.5,70.139,58.785,69.4l-.023-.019-.222-4.141-1.156-21.48-.619-11.484S54.161,11.6,73.811,7.831c14.355-2.756,27.816-.371,34.609,7.119.218.239.432.489.632.743a17.647,17.647,0,0,1,3.866,9.629l.636,20.622L113.709,51Z" transform="translate(62.239 7.386)" fill="#a66464"/>
                <path id="Trazado_898783" data-name="Trazado 898783" d="M117.531,43.154l-6.311-.615s1.341-15.207-6.965-22.987c-5.337-5-16.529-3.574-23.849-1.918-.4.094-.789.183-1.171.275-1.843.447-3.364.884-4.384,1.2-.432.134-.772.241-1.009.317s-.382.13-.382.13,3.95,8.256-2.271,14.466c-5.272,5.27,1.624,18.265,1.624,18.265H63.47c-4.7-2.374-6.441-12.233-6.441-12.233s-4.85-13.364,1.219-24.17c3.3-5.872,13.61-9.7,24.431-10.934.636-.071,1.274-.136,1.916-.191,8.464-.718,17.008.168,22.536,2.917,4.388,2.183,7,6.919,8.535,12.239a44.457,44.457,0,0,1,1.033,4.443,79.677,79.677,0,0,1,.833,18.8" transform="translate(60.64 4.962)" fill="#5c1d1d"/>
                <path id="Trazado_898784" data-name="Trazado 898784" d="M65.785,20.384h0a4.632,4.632,0,0,0,6.05,2.353,25.8,25.8,0,0,1,4.638-1.524,4.255,4.255,0,0,0,3.219-5.278s-9.536-.875-13.908,4.449" transform="translate(72.276 17.449)" fill="#5c1d1d"/>
                <path id="Trazado_898785" data-name="Trazado 898785" d="M90.8,20.384h0a4.632,4.632,0,0,1-6.05,2.353,25.8,25.8,0,0,0-4.638-1.524,4.255,4.255,0,0,1-3.219-5.278s9.536-.875,13.908,4.449" transform="translate(84.307 17.449)" fill="#5c1d1d"/>
                <path id="Trazado_898786" data-name="Trazado 898786" d="M77.941,27.978c0,1.433-2.953,2.6-6.6,2.6s-6.6-1.163-6.6-2.6,2.953-2.6,6.6-2.6,6.6,1.163,6.6,2.6" transform="translate(71.138 27.886)" fill="#8a4747"/>
                <path id="Trazado_898787" data-name="Trazado 898787" d="M88.123,30.5c-.508.05-1.043.076-1.589.076-3.641,0-6.594-1.163-6.594-2.6s2.953-2.6,6.594-2.6q.74,0,1.433.063Z" transform="translate(87.828 27.885)" fill="#8a4747"/>
                <path id="Trazado_898788" data-name="Trazado 898788" d="M73.125,25.047c0,1.969-.894,3.566-2,3.566s-1.994-1.6-1.994-3.566.892-3.566,1.994-3.566,2,1.6,2,3.566" transform="translate(75.957 23.601)" fill="#211c19"/>
                <path id="Trazado_898789" data-name="Trazado 898789" d="M82.554,25.047c0,1.969-.894,3.566-2,3.566s-1.994-1.6-1.994-3.566.892-3.566,1.994-3.566,2,1.6,2,3.566" transform="translate(86.316 23.601)" fill="#211c19"/>
                <path id="Trazado_898790" data-name="Trazado 898790" d="M84.006,36.123c-7.2,0-13.089-6.172-13.169-6.256a.811.811,0,0,1,1.184-1.108c.384.409,9.522,9.946,18.42,3.6a.81.81,0,0,1,.942,1.318,12.461,12.461,0,0,1-7.377,2.449" transform="translate(77.587 31.316)" fill="#211c19"/>
                <path id="Trazado_898791" data-name="Trazado 898791" d="M64.206,32.779c-.092.218-2.686,6.231-6.411,7.992l-.021-.021-.222-4.139a14.134,14.134,0,0,0,6.655-3.832" transform="translate(63.23 36.013)" fill="#211c19"/>
                <path id="Trazado_898792" data-name="Trazado 898792" d="M66.833,29.115S58.958,18.54,53.191,26.851c-4.753,6.848,4.233,24.7,13.641,18.582Z" transform="translate(56.997 26)" fill="#a66464"/>
                <path id="Trazado_898793" data-name="Trazado 898793" d="M63.3,39.426a.807.807,0,0,1-.8-.722A13.526,13.526,0,0,0,54.626,27.8a.81.81,0,0,1,.6-1.5A15.158,15.158,0,0,1,64.1,38.528a.808.808,0,0,1-.716.894c-.031,0-.061,0-.09,0" transform="translate(59.458 28.821)" fill="#211c19"/>
                <path id="Trazado_898794" data-name="Trazado 898794" d="M55.314,32a.81.81,0,0,1-.514-1.438c.325-.264,3.23-2.552,5.662-1.931a.81.81,0,0,1-.4,1.57c-1.4-.357-3.532,1.047-4.237,1.618a.8.8,0,0,1-.508.18" transform="translate(59.88 31.338)" fill="#211c19"/>
                <path id="Trazado_898795" data-name="Trazado 898795" d="M76.342,37.256a.81.81,0,1,1,0-1.62,5.572,5.572,0,0,0,4.835-2.254c-3.23-6.663-6.441-13.375-6.474-13.444a.81.81,0,1,1,1.461-.7c.034.069,3.368,7.041,6.661,13.824a.81.81,0,0,1,.006.7c-.067.143-1.687,3.5-6.489,3.5" transform="translate(81.986 20.63)" fill="#211c19"/>
                <path id="Trazado_898796" data-name="Trazado 898796" d="M83.518,450.378l106.294,0a12.238,12.238,0,0,0,.046-5.624c-.921-4.586-4.445-11.2-15.975-16.829-.67-.325-1.364-.648-2.09-.967q-1.974-.872-4.239-1.7c-26.275-9.6-37.585-19.541-37.585-19.541l13.1-81.556a569.839,569.839,0,0,0-57.487-7.685V414.7s-1.622,17.18-1.992,30.053c-.057,2.006-.082,3.91-.067,5.629" transform="translate(91.755 347.692)" fill="#e7a743"/>
                <path id="Trazado_898797" data-name="Trazado 898797" d="M87.5,409.674h-.019a1.05,1.05,0,0,1-1.03-1.068l1.54-87.569a1.05,1.05,0,1,1,2.1.038l-1.54,87.569a1.05,1.05,0,0,1-1.049,1.03" transform="translate(94.98 351.582)" fill="#cc861e"/>
                <path id="Trazado_898798" data-name="Trazado 898798" d="M84.5,361.456v2.063a15.736,15.736,0,0,1,11.253,5.625c8.025,9.719,5.031,28.611,5,28.8a1.031,1.031,0,0,0,.848,1.184c.057,0,.113.01.166.01a1.032,1.032,0,0,0,1.018-.86c.128-.812,3.169-20.013-5.448-30.448A17.737,17.737,0,0,0,84.5,361.456" transform="translate(92.833 397.122)" fill="#cc861e"/>
                <path id="Trazado_898799" data-name="Trazado 898799" d="M122.048,389.662a1.022,1.022,0,0,0,1.024,1.029h0a1.032,1.032,0,0,0,1.03-1.022c.025-11.11,4.095-16.8,7.44-19.589-.669-.323-1.364-.648-2.09-.967-3.545,3.268-7.387,9.385-7.408,20.55" transform="translate(134.091 405.533)" fill="#cc861e"/>
                <path id="Trazado_898800" data-name="Trazado 898800" d="M83.518,383.781l106.294,0a12.238,12.238,0,0,0,.046-5.624L83.6,377.082c-.057,2.008-.094,4.98-.08,6.7" transform="translate(91.755 414.289)" fill="#cc861e"/>
                <path id="Trazado_898801" data-name="Trazado 898801" d="M147.059,319l-3.119,16.443-60.425-6.667V311.283Z" transform="translate(91.756 341.997)" fill="#cc861e"/>
                <path id="Trazado_898802" data-name="Trazado 898802" d="M106.335,335.613a2,2,0,0,1,.921-3.872l7.784.871a2.005,2.005,0,0,1-.447,3.985l-7.784-.873a1.863,1.863,0,0,1-.474-.111" transform="translate(115.39 364.46)" fill="#cc861e"/>
                <path id="Trazado_898803" data-name="Trazado 898803" d="M105.727,339.465a2,2,0,0,1,.921-3.872l7.784.871a2.005,2.005,0,0,1-.447,3.985l-7.784-.871a1.952,1.952,0,0,1-.474-.113" transform="translate(114.722 368.692)" fill="#cc861e"/>
                <path id="Trazado_898804" data-name="Trazado 898804" d="M105.234,343.438a2,2,0,0,1,.921-3.872l7.782.871a2.005,2.005,0,1,1-.445,3.985l-7.784-.873a1.859,1.859,0,0,1-.474-.111" transform="translate(114.181 373.057)" fill="#cc861e"/>
                <path id="Trazado_898805" data-name="Trazado 898805" d="M104.613,347.24a2,2,0,0,1,.921-3.872l7.784.871a2.005,2.005,0,1,1-.447,3.985l-7.784-.873a1.863,1.863,0,0,1-.474-.111" transform="translate(113.498 377.234)" fill="#cc861e"/>
                <path id="Trazado_898806" data-name="Trazado 898806" d="M103.835,351.406a2,2,0,0,1,.921-3.872l7.784.871a2.005,2.005,0,0,1-.447,3.985l-7.784-.873a1.865,1.865,0,0,1-.474-.111" transform="translate(112.643 381.811)" fill="#cc861e"/>
                <path id="Trazado_898807" data-name="Trazado 898807" d="M103.215,355.208a2,2,0,0,1,.921-3.872l7.782.871a2.005,2.005,0,1,1-.445,3.985l-7.784-.873a1.864,1.864,0,0,1-.474-.111" transform="translate(111.962 385.989)" fill="#cc861e"/>
                <path id="Trazado_898808" data-name="Trazado 898808" d="M102.662,359.919a2,2,0,0,1,.921-3.872l7.784.871a2.005,2.005,0,0,1-.447,3.985l-7.784-.873a1.869,1.869,0,0,1-.474-.111" transform="translate(111.355 391.165)" fill="#cc861e"/>
                <path id="Trazado_898809" data-name="Trazado 898809" d="M106.655,401.679c0,.241-.006.474-.013.7-.021,1.07-.067,2.032-.113,2.856-.109,1.815-.241,2.93-.241,2.93H46.074a33.106,33.106,0,0,1-.069-5.786c.395-6.151,2.439-15.87,10.754-22.292,11.383-8.8,6.989-6.964,9.322-10.976.264-.447,2.313-7.264,2.531-7.734,1.958-4.166,3.761-6.134,14.548-6.134,14.309,0,15.568,6.942,17.1,10.6a68.259,68.259,0,0,1,2.382,8.5c.359,1.524.72,3.148,1.075,4.8.881,4.151,1.706,8.483,2.267,11.939a62.459,62.459,0,0,1,.676,10.594" transform="translate(50.45 390.299)" fill="#e7a743"/>
                <path id="Trazado_898810" data-name="Trazado 898810" d="M94.435,390.808a1.049,1.049,0,0,1-1-.722C93.375,389.893,86.97,371,69.474,371h-.057c-17.341.04-21.148,17.866-21.186,18.046a1.049,1.049,0,0,1-2.057-.416c.04-.2,4.2-19.686,23.236-19.73h.063c19.035,0,25.891,20.33,25.958,20.535a1.049,1.049,0,0,1-1,1.375" transform="translate(50.707 405.298)" fill="#cc861e"/>
                <path id="Trazado_898811" data-name="Trazado 898811" d="M98.757,416.106l3.2-102.772-54.037-1.967L62.953,420Z" transform="translate(52.654 342.091)" fill="#e7a743"/>
                <path id="Trazado_898812" data-name="Trazado 898812" d="M56.581,328.8a1.469,1.469,0,0,1-.434-2.873c.367-.113,9.06-2.741,17.11-.43a1.469,1.469,0,0,1-.81,2.825c-7.194-2.067-15.352.388-15.434.414a1.482,1.482,0,0,1-.432.065" transform="translate(60.55 356.568)" fill="#cc861e"/>
                <path id="Trazado_898813" data-name="Trazado 898813" d="M56.853,332.739a1.469,1.469,0,0,1-.437-2.871c.361-.113,8.957-2.741,16.924-.426a1.469,1.469,0,0,1-.821,2.821c-7.125-2.071-15.148.384-15.228.409a1.455,1.455,0,0,1-.439.067" transform="translate(60.849 360.904)" fill="#cc861e"/>
                <path id="Trazado_898814" data-name="Trazado 898814" d="M57.125,336.682a1.469,1.469,0,0,1-.443-2.869c.359-.113,8.861-2.743,16.739-.422a1.469,1.469,0,0,1-.831,2.818c-7-2.063-14.945.38-15.024.405a1.463,1.463,0,0,1-.441.067" transform="translate(61.148 365.24)" fill="#cc861e"/>
                <path id="Trazado_898815" data-name="Trazado 898815" d="M57.4,340.626a1.47,1.47,0,0,1-.447-2.869c.355-.113,8.76-2.743,16.554-.415a1.469,1.469,0,1,1-.842,2.814c-6.932-2.069-14.739.376-14.819.4a1.5,1.5,0,0,1-.447.069" transform="translate(61.446 369.575)" fill="#cc861e"/>
                <path id="Trazado_898816" data-name="Trazado 898816" d="M57.669,344.569a1.469,1.469,0,0,1-.453-2.867c.35-.113,8.661-2.743,16.368-.409a1.469,1.469,0,0,1-.85,2.812c-6.812-2.063-14.537.369-14.615.392a1.457,1.457,0,0,1-.449.071" transform="translate(61.745 373.911)" fill="#cc861e"/>
                <path id="Trazado_898817" data-name="Trazado 898817" d="M57.94,348.513a1.47,1.47,0,0,1-.455-2.867c.346-.111,8.561-2.743,16.183-.4a1.469,1.469,0,1,1-.863,2.808c-6.741-2.069-14.332.363-14.407.388a1.446,1.446,0,0,1-.458.074" transform="translate(62.043 378.247)" fill="#cc861e"/>
                <path id="Trazado_898818" data-name="Trazado 898818" d="M58.212,352.456a1.47,1.47,0,0,1-.462-2.865c.342-.113,8.462-2.743,16-.4A1.469,1.469,0,1,1,72.875,352c-6.644-2.069-14.126.357-14.2.382a1.48,1.48,0,0,1-.462.075" transform="translate(62.342 382.583)" fill="#cc861e"/>
                <path id="Trazado_898819" data-name="Trazado 898819" d="M58.484,356.4a1.47,1.47,0,0,1-.468-2.863c.338-.111,8.363-2.743,15.813-.395a1.47,1.47,0,0,1-.884,2.8c-6.523-2.059-13.925.353-14,.378a1.491,1.491,0,0,1-.464.076" transform="translate(62.641 386.918)" fill="#cc861e"/>
                <path id="Trazado_898820" data-name="Trazado 898820" d="M71.036,410.682h-.019a1.048,1.048,0,0,1-1.03-1.066l1.538-92.048a1.05,1.05,0,0,1,1.049-1.03h.017a1.047,1.047,0,0,1,1.033,1.066L72.086,409.65a1.05,1.05,0,0,1-1.049,1.033" transform="translate(76.893 347.771)" fill="#cc861e"/>
                <path id="Trazado_898821" data-name="Trazado 898821" d="M103.744,310.891l-.218,15.092-54.435.938-1.7-15.029Z" transform="translate(52.061 341.567)" fill="#cc861e"/>
                <path id="Trazado_898822" data-name="Trazado 898822" d="M78.857,391.711c0,.241-.006.474-.013.7-.021,1.07-.067,2.032-.113,2.856a16.817,16.817,0,0,1-6.256-8.109c-3.725-10.147,2-22.326,2.243-22.842l.122.057c.359,1.524.72,3.148,1.075,4.8-1.356,4.145-2.919,11.11-.749,17.006a13.982,13.982,0,0,0,3.692,5.528" transform="translate(78.247 400.267)" fill="#cc861e"/>
                <path id="Trazado_898823" data-name="Trazado 898823" d="M106.644,377.707c-.08,3.427-.355,5.786-.355,5.786H46.074a33.119,33.119,0,0,1-.069-5.786Z" transform="translate(50.45 414.976)" fill="#cc861e"/>
                <rect id="Rectángulo_403130" data-name="Rectángulo 403130" width="7.34" height="462.517" transform="translate(288.715 187.647) rotate(-1.622)" fill="#23221e"/>
                <path id="Trazado_898824" data-name="Trazado 898824" d="M157.437,502.1l-2.3.065a9.19,9.19,0,0,1-9.448-8.928L133.143,50.319a9.193,9.193,0,0,1,8.928-9.448l2.3-.065a9.19,9.19,0,0,1,9.448,8.928l12.548,442.923a9.193,9.193,0,0,1-8.928,9.448" transform="translate(146.276 44.828)" fill="#7a8bff"/>
                <path id="Trazado_898825" data-name="Trazado 898825" d="M169.073,83.443s-1.948-14.208-14.995-7.1S136.44,90.417,136.153,96.138s11.131-2.3,11.131-2.3,12.124-6.6,14.464-.678c0,0,7.74,3.217,7.324-9.713" transform="translate(149.581 81.689)" fill="#e7a743"/>
                <path id="Trazado_898826" data-name="Trazado 898826" d="M168.633,88.719s-1.948-14.208-14.995-7.1S136,95.693,135.713,101.414s11.131-2.3,11.131-2.3,12.124-6.6,14.464-.678c0,0,7.74,3.217,7.324-9.713" transform="translate(149.098 87.485)" fill="#e7a743"/>
                <path id="Trazado_898827" data-name="Trazado 898827" d="M164.561,93.521s-1.656-12.082-12.752-6.036-15,11.965-15.241,16.829,9.465-1.958,9.465-1.958,10.309-5.612,12.3-.577c0,0,6.579,2.737,6.227-8.258" transform="translate(150.04 94.256)" fill="#e7a743"/>
                <path id="Trazado_898828" data-name="Trazado 898828" d="M161.348,98.28s-1.593-11.629-12.273-5.809-13.839,10.953-10.5,14.244c1.838,1.811,4.888-1.295,4.888-1.295s7.167-3.077,9.081,1.769c0,0,9.144,1.673,8.8-8.909" transform="translate(150.854 99.803)" fill="#e7a743"/>
                <path id="Trazado_898829" data-name="Trazado 898829" d="M254.1,374.983l.888,76.641a3.231,3.231,0,0,1-6.462.073l-.888-76.639a61.309,61.309,0,0,0-40.223-56.794,59.981,59.981,0,0,0-6.485-1.975,61.07,61.07,0,0,0-15.211-1.733l-5.92.069a61.028,61.028,0,0,0-16.773,2.537,59.126,59.126,0,0,0-6.434,2.325,61.311,61.311,0,0,0-37.3,57.057l.89,76.641a3.231,3.231,0,0,1-6.462.076l-.888-76.641a67.8,67.8,0,0,1,43.673-64.068q3.151-1.193,6.439-2.084a67.68,67.68,0,0,1,16.775-2.3l5.92-.067a67.357,67.357,0,0,1,15.209,1.545q3.305.718,6.483,1.75A67.8,67.8,0,0,1,254.1,374.983" transform="translate(123.963 338.492)" fill="#23221e"/>
                <path id="Trazado_898830" data-name="Trazado 898830" d="M161.254,310.581l1.666,143.7a3.231,3.231,0,0,1-6.462.074l-1.687-145.528q3.305.721,6.483,1.752" transform="translate(170.043 339.302)" fill="#23221e"/>
                <path id="Trazado_898831" data-name="Trazado 898831" d="M140.081,309.223l1.681,145.142a3.23,3.23,0,1,1-6.46.074l-1.66-143.132c2.1-.793,4.248-1.494,6.439-2.084" transform="translate(146.829 339.735)" fill="#23221e"/>
                <path id="Trazado_898832" data-name="Trazado 898832" d="M81.533,94.528l-5.358,10.54-5.343,10.678C67.283,122.871,63.77,130,60.358,137.14s-6.743,14.273-9.891,21.369c-1.574,3.549-3.079,7.1-4.518,10.6-.735,1.759-1.4,3.488-2.088,5.226-.642,1.712-1.3,3.438-1.876,5.1l-.441,1.255-.4,1.219-.4,1.221-.353,1.163-.355,1.156c-.124.395-.193.718-.3,1.079l-.288,1.056-.036.132c.084-.411.162-.917.206-1.32.036-.287.061-.577.078-.869.013-.2.019-.376.023-.565v-.4l-.008-.292-.023-.338c-.034-.292-.042-.17-.027.008s.048.481.092.8c.088.646.225,1.446.376,2.269.308,1.664.693,3.478,1.1,5.314.831,3.681,1.736,7.5,2.688,11.324s1.948,7.685,2.963,11.547c4.1,15.438,8.414,31.052,12.718,46.509l.008.031a17.276,17.276,0,0,1-32.855,10.6c-2.848-7.736-5.536-15.408-8.235-23.146s-5.282-15.5-7.845-23.337C9.4,221.939,8.143,218,6.907,214.021s-2.46-8-3.6-12.185c-.577-2.1-1.142-4.231-1.687-6.533-.275-1.158-.544-2.346-.806-3.7-.132-.676-.262-1.387-.388-2.2s-.252-1.713-.348-3.016l-.034-.5-.025-.6-.008-.3,0-.367,0-.367.006-.411c.008-.317.021-.619.04-.944q.041-.626.111-1.249c.063-.527.162-1.158.264-1.7l.046-.239L.839,177.8c.126-.627.246-1.3.384-1.887l.413-1.788c.141-.592.277-1.2.424-1.778l.451-1.7.453-1.7L3.44,167.3c.625-2.212,1.295-4.319,1.962-6.445.686-2.078,1.366-4.176,2.082-6.206,1.406-4.1,2.909-8.084,4.43-12.036S15,134.764,16.6,130.89s3.242-7.7,4.9-11.513q5-11.427,10.321-22.613c1.761-3.74,3.591-7.444,5.419-11.152l2.768-5.557c.46-.928.942-1.849,1.417-2.777l1.467-2.831A21.773,21.773,0,0,1,81.638,94.321Z" transform="translate(0 68.872)" fill="#a66464"/>
                <path id="Trazado_898833" data-name="Trazado 898833" d="M76.206,53.648s-25.453-.917-42.259,24.265-23.09,44.595-23.09,44.595L53.5,142.924C63.667,122.189,77.38,98.056,78.706,85.781Z" transform="translate(11.929 58.937)" fill="#6b8429"/>
                <path id="Trazado_898834" data-name="Trazado 898834" d="M32.06,119.729a1.028,1.028,0,0,1-.5-.126,1.049,1.049,0,0,1-.428-1.421L54.411,74.967a1.05,1.05,0,0,1,1.849.995L32.985,119.177a1.051,1.051,0,0,1-.926.552" transform="translate(34.072 81.758)" fill="#3f4f0c"/>
                <path id="Trazado_898835" data-name="Trazado 898835" d="M39.056,85.17a1.05,1.05,0,0,1-.348-2.04l5.742-2.006a1.049,1.049,0,0,1,.69,1.981L39.4,85.111a1.05,1.05,0,0,1-.344.059" transform="translate(41.755 89.064)" fill="#3f4f0c"/>
                <path id="Trazado_898836" data-name="Trazado 898836" d="M27.06,124.432a1.029,1.029,0,0,1-.413-.086c-3.312-1.419-15.274-3.23-15.4-3.249a1.05,1.05,0,0,1,.313-2.076c.5.076,12.353,1.872,15.91,3.4a1.05,1.05,0,0,1-.413,2.015" transform="translate(11.381 130.752)" fill="#8a4747"/>
                <path id="Trazado_898837" data-name="Trazado 898837" d="M21.375,125.9a1.034,1.034,0,0,1-.808-.38c-1.713-2.057-6.13-6.51-6.174-6.552a1.049,1.049,0,0,1,1.488-1.48c.185.183,4.529,4.56,6.3,6.693a1.05,1.05,0,0,1-.806,1.719" transform="translate(15.477 128.738)" fill="#8a4747"/>
                <path id="Trazado_898838" data-name="Trazado 898838" d="M83.072,185.261c-.1,1.742-2.89,1.563-6.116,1.043-1.3-.206-2.678-.47-3.973-.68-.552-.09-1.085-.174-1.595-.237-4.7-.6-6.8-1.551-10.731-1.188,0,0,4.6,1.165,6.917,2.85.39.285.848.6,1.339.944.884.619,1.883,1.307,2.85,2.013a19.448,19.448,0,0,1,3.925,3.412c1.282,1.811-3.759,3.284-8.3,1.465a27.794,27.794,0,0,1-4.145-2.153,16.184,16.184,0,0,0-3.341-1.721c-.13-.036-.256-.071-.382-.1a4.033,4.033,0,0,0-1.891.021s1.116.8,2.424,1.843l.019.013c.071.059.147.117.218.174.825.659,1.7,1.394,2.416,2.076a14.3,14.3,0,0,1,3.257,6.262c.269,1.295.151,2.374-.642,2.779-.863.443-2.468-.365-4.34-1.519-2.783-1.717-6.147-4.208-8.533-4.533a195.738,195.738,0,0,1-21.083-4.342c-8-2.048-13.82-10.346-15.087-14.042a19.637,19.637,0,0,0-.787-1.87l21.327-18.233s2.006-.735,4.581-1.461a32.652,32.652,0,0,1,7.746-1.4,8.781,8.781,0,0,1,2.55.367c1.047.3,1.811,1.108,2.67,1.249,2.623.43,1.956.745,1.956.745.267,2.825.743,4.464.833,6.957l.052,1.112a2.076,2.076,0,0,0,.01.231c.067-.019-.164.023.508-.094a31.57,31.57,0,0,1,8.789-.258c5.515.632,10.036,4.273,12.72,5.549s-1.026,4.521-5.645,3.675a35.552,35.552,0,0,0-10.21-.516s5.662.634,9.081,2.357c1.442.726,3.58,1.635,5.559,2.644a26.363,26.363,0,0,1,2.678,1.54c1.444.972,2.434,2,2.376,3.028" transform="translate(17.02 172.134)" fill="#e7a743"/>
                <path id="Trazado_898839" data-name="Trazado 898839" d="M9.1,168.473s10.821,25.967,19.641,33.155l23.469-30.571s-4.942-8.279-8.877-27.037c0,0-28.462,11.786-34.234,24.454" transform="translate(10 158.23)" fill="#e7a743"/>
                <path id="Trazado_898840" data-name="Trazado 898840" d="M12.1,177.222s13.106-17.963,35.151-26.3l-2.361-8.592s-25.707,8-36.725,26.888Z" transform="translate(8.971 156.376)" fill="#cc861e"/>
              </g>
            </g>
          </g>
          <path id="Trazado_898841" data-name="Trazado 898841" d="M5.247.157A4.338,4.338,0,0,0,2.735.215,3.693,3.693,0,0,0,1.061,1.994C-1.21,6.338.484,11.74,3.139,15.86s6.245,7.675,8.209,12.165c1.657,3.794,2.059,8.06,3.867,11.783s5.87,6.968,9.829,5.757c8.881-2.714,6.1-21.19,3.57-27.625C25.053,8.882,14.5,1.914,5.247.157Z" transform="translate(378.022 228.608) rotate(-155)" fill="#fcd189"/>
          <path id="Trazado_898842" data-name="Trazado 898842" d="M5.247.157A4.338,4.338,0,0,0,2.735.215,3.693,3.693,0,0,0,1.061,1.994C-1.21,6.338.484,11.74,3.139,15.86s6.245,7.675,8.209,12.165c1.657,3.794,2.059,8.06,3.867,11.783s5.87,6.968,9.829,5.757c8.881-2.714,6.1-21.19,3.57-27.625C25.053,8.882,14.5,1.914,5.247.157Z" transform="matrix(0.951, 0.309, -0.309, 0.951, 16.176, 119.99)" fill="#fcd189"/>
        </g>
      </g>
    </g>
  </g>
</svg>
