<svg xmlns="http://www.w3.org/2000/svg" width="66.178" height="66.178" viewBox="0 0 66.178 66.178">
  <g id="Grupo_1105991" data-name="Grupo 1105991" transform="translate(7169.638 12625.25)">
    <g id="Grupo_1103758" data-name="Grupo 1103758" transform="translate(-7169.638 -12625.25)">
      <g id="Trazado_874102" data-name="Trazado 874102" transform="translate(0 0)" fill="#a8d549">
        <path d="M 33.0888671875 63.677734375 C 28.95829010009766 63.677734375 24.95260047912598 62.86931228637695 21.18306732177734 61.27493286132812 C 17.54086685180664 59.73441314697266 14.26931190490723 57.52849960327148 11.45926761627197 54.71846771240234 C 8.649233818054199 51.90842437744141 6.443322658538818 48.63686752319336 4.902800559997559 44.99466705322266 C 3.308422803878784 41.22513198852539 2.500000476837158 37.21944427490234 2.500000476837158 33.0888671875 C 2.500000476837158 28.95829010009766 3.308422803878784 24.95260047912598 4.902800559997559 21.18306732177734 C 6.443322658538818 17.54086685180664 8.649233818054199 14.26931190490723 11.45926761627197 11.45926761627197 C 14.26931190490723 8.649233818054199 17.54086685180664 6.443322658538818 21.18306732177734 4.902800559997559 C 24.95260047912598 3.308422803878784 28.95829010009766 2.500000476837158 33.0888671875 2.500000476837158 C 37.21944427490234 2.500000476837158 41.22513198852539 3.308422803878784 44.99466705322266 4.902800559997559 C 48.63686752319336 6.443322658538818 51.90842437744141 8.649233818054199 54.71846771240234 11.45926761627197 C 57.52849960327148 14.26931190490723 59.73441314697266 17.54086685180664 61.27493286132812 21.18306732177734 C 62.86931228637695 24.95260047912598 63.677734375 28.95829010009766 63.677734375 33.0888671875 C 63.677734375 37.21944427490234 62.86931228637695 41.22513198852539 61.27493286132812 44.99466705322266 C 59.73441314697266 48.63686752319336 57.52849960327148 51.90842437744141 54.71846771240234 54.71846771240234 C 51.90842437744141 57.52849960327148 48.63686752319336 59.73441314697266 44.99466705322266 61.27493286132812 C 41.22513198852539 62.86931228637695 37.21944427490234 63.677734375 33.0888671875 63.677734375 Z" stroke="none"/>
        <path d="M 33.0888671875 5 C 29.29469299316406 5 25.61666870117188 5.741973876953125 22.15694808959961 7.205307006835938 C 18.8127326965332 8.619785308837891 15.80828094482422 10.64578628540039 13.2270393371582 13.2270393371582 C 10.64578628540039 15.80828094482422 8.619785308837891 18.8127326965332 7.205307006835938 22.15694808959961 C 5.741973876953125 25.61666870117188 5 29.29469299316406 5 33.0888671875 C 5 36.88304138183594 5.741973876953125 40.56106567382812 7.205307006835938 44.02078628540039 C 8.619785308837891 47.36499786376953 10.64578628540039 50.36945343017578 13.2270393371582 52.9506950378418 C 15.80828094482422 55.53194808959961 18.8127326965332 57.55794525146484 22.15694808959961 58.97242736816406 C 25.61666870117188 60.43576049804688 29.29469299316406 61.177734375 33.0888671875 61.177734375 C 36.88304138183594 61.177734375 40.56106567382812 60.43576049804688 44.02078628540039 58.97242736816406 C 47.36499786376953 57.55794525146484 50.36945343017578 55.53194808959961 52.9506950378418 52.9506950378418 C 55.53194808959961 50.36945343017578 57.55794525146484 47.36499786376953 58.97242736816406 44.02078628540039 C 60.43576049804688 40.56106567382812 61.177734375 36.88304138183594 61.177734375 33.0888671875 C 61.177734375 29.29469299316406 60.43576049804688 25.61666870117188 58.97242736816406 22.15694808959961 C 57.55794525146484 18.8127326965332 55.53194808959961 15.80828094482422 52.9506950378418 13.2270393371582 C 50.36945343017578 10.64578628540039 47.36499786376953 8.619785308837891 44.02078628540039 7.205307006835938 C 40.56106567382812 5.741973876953125 36.88304138183594 5 33.0888671875 5 M 33.0888671875 0 C 51.36334609985352 0 66.177734375 14.81438827514648 66.177734375 33.0888671875 C 66.177734375 51.36334609985352 51.36334609985352 66.177734375 33.0888671875 66.177734375 C 14.81438827514648 66.177734375 0 51.36334609985352 0 33.0888671875 C 0 14.81438827514648 14.81438827514648 0 33.0888671875 0 Z" stroke="none" fill="#fff"/>
      </g>
      <g id="granjero_2_" data-name="granjero (2)" transform="translate(13.355 11.24)">
        <path id="Trazado_896732" data-name="Trazado 896732" d="M10.352,22.836C8.528,22.836,5,22.126,5,20.3A3.3,3.3,0,0,1,8.3,17l5.956,1.4a23.021,23.021,0,0,0,10.544,0L30.758,17a3.3,3.3,0,0,1,3.3,3.3c0,1.824-4.194,2.534-6.018,2.534" transform="translate(-1.019 -5.093)" fill="#5e4b24"/>
        <path id="Trazado_896733" data-name="Trazado 896733" d="M33.642,40.321,31,45.6v8.586h9.907L39.586,42.3l-3.3-1.321L33.642,39Z" transform="translate(-9.846 -12.563)" fill="#1a326e"/>
        <path id="Trazado_896734" data-name="Trazado 896734" d="M35.127,49.044a29.992,29.992,0,0,0,2.539-7.51l-1.382-.553L33.642,39v1.321L31,45.6v1.321l3.154,2.329a.663.663,0,0,0,.974-.211Z" transform="translate(-9.846 -12.562)" fill="#162a5c"/>
        <path id="Trazado_896735" data-name="Trazado 896735" d="M15.265,40.321,17.907,45.6v8.586H8L9.321,42.3l3.3-1.321L15.265,39Z" transform="translate(-2.037 -12.563)" fill="#1a326e"/>
        <path id="Trazado_896736" data-name="Trazado 896736" d="M17.642,40.321,20.284,45.6l-3.3,1.439c-1.321-1.981-1.981-6-1.981-6L17.642,39Z" transform="translate(-4.414 -12.563)" fill="#1a326e"/>
        <path id="Trazado_896737" data-name="Trazado 896737" d="M39.979,17.615l-2.236.526v4.351a7.22,7.22,0,0,1-.5,2.642h0a8.043,8.043,0,0,0,2.792-6.878Z" transform="translate(-11.966 -5.302)" fill="#2b2210"/>
        <path id="Trazado_896738" data-name="Trazado 896738" d="M33.642,40.321,31,45.6l3.3,1.439c1.321-1.981,1.981-6,1.981-6L33.642,39Z" transform="translate(-9.846 -12.563)" fill="#1a326e"/>
        <path id="Trazado_896739" data-name="Trazado 896739" d="M57.74,21.308a2.659,2.659,0,0,0-3,1.1L53,25.027s5.527-1.763,5.284-3.3C58.254,21.538,58.037,21.4,57.74,21.308Z" transform="translate(-17.316 -6.515)" fill="#7fb556"/>
        <path id="Trazado_896740" data-name="Trazado 896740" d="M28.537,18.881a23.021,23.021,0,0,1-10.544,0L16,18.412v4.351a7.265,7.265,0,0,0,14.53,0V18.412Z" transform="translate(-4.753 -5.572)" fill="#fce0b9"/>
        <path id="Trazado_896741" data-name="Trazado 896741" d="M29.814,10.139l-.921-2.217L27.5,4.573A1.981,1.981,0,0,0,25.565,3H16.893a1.981,1.981,0,0,0-1.939,1.575l-2.312,5.538L10,12.247l1.077.254,2.886.679,1.993.469a23.021,23.021,0,0,0,10.544,0l1.993-.469,2.236-.526,1.727-.407Z" transform="translate(-2.716 -0.34)" fill="#806631"/>
        <path id="Trazado_896742" data-name="Trazado 896742" d="M47.59,33H45.544a2.641,2.641,0,0,0-2.627,2.923l.388,3.623L44.4,49.723a1.981,1.981,0,0,0,1.97,1.77h.4a1.981,1.981,0,0,0,1.97-1.77l1.479-13.8A2.643,2.643,0,0,0,47.59,33Z" transform="translate(-13.887 -10.525)" fill="#fca947"/>
        <path id="Trazado_896743" data-name="Trazado 896743" d="M54.841,7.783C54.58,7,53.52,7.123,52.2,9.765a31.008,31.008,0,0,0-1.558,6.6l.237-.66S55.542,9.885,54.841,7.783Z" transform="translate(-16.515 -1.82)" fill="#7fb556"/>
        <path id="Trazado_896744" data-name="Trazado 896744" d="M45.287,41.527,44.9,37.9a2.642,2.642,0,0,1,2.627-2.923h2.046a2.646,2.646,0,0,1,.579.064A2.633,2.633,0,0,0,47.59,33H45.544a2.641,2.641,0,0,0-2.627,2.923l.388,3.623L44.4,49.723a1.981,1.981,0,0,0,1.959,1.769Z" transform="translate(-13.887 -10.525)" fill="#f98600"/>
        <path id="Trazado_896745" data-name="Trazado 896745" d="M23,50h5.284v7.926H23Z" transform="translate(-7.13 -16.297)" fill="#d0382a"/>
        <path id="Trazado_896746" data-name="Trazado 896746" d="M26.926,35.239a7.195,7.195,0,0,1-5.284,0v2.484H19v1.321l2.642,5.284v.66h5.284v-.66l2.642-5.284V37.723H26.926Z" transform="translate(-5.772 -11.286)" fill="#fce0b9"/>
        <path id="Trazado_896747" data-name="Trazado 896747" d="M17.993,18.881,16,18.412V21.89a28.887,28.887,0,0,0,7.265.873,28.887,28.887,0,0,0,7.265-.873V18.412l-1.993.469a23.021,23.021,0,0,1-10.544,0Z" transform="translate(-4.753 -5.572)" fill="#f5cba1"/>
        <path id="Trazado_896748" data-name="Trazado 896748" d="M23,50h1.321v7.926H23Z" transform="translate(-7.13 -16.297)" fill="#a62d21"/>
        <path id="Trazado_896749" data-name="Trazado 896749" d="M29,50h1.321v7.926H29Z" transform="translate(-9.167 -16.297)" fill="#a62d21"/>
        <path id="Trazado_896750" data-name="Trazado 896750" d="M13.568,31.661h2.642V29.177a7.261,7.261,0,0,1-4.623-6.763V18.063L8.7,17.384a10.626,10.626,0,0,0,.444,3.864L10.9,26.962H7.623a1.981,1.981,0,0,0-1.981,1.981c0,.013,0,.025,0,.038s0,.024,0,.038a1.977,1.977,0,0,0,1.466,1.905H6.963a3.961,3.961,0,0,0-.318,7.91s.979,4.055,3.621,4.055h1.321c2.642.076,4.623-1.321,4.623-4.039,0-2.189-2.435-3.963-4.623-3.963l-.66.076V33.642Z" transform="translate(-0.34 -5.223)" fill="#2b2210"/>
        <path id="Trazado_896751" data-name="Trazado 896751" d="M7.965,43.757a3.961,3.961,0,0,1,.318-7.909h.145a1.977,1.977,0,0,1-1.466-1.905c0-.013,0-.025,0-.038s0-.025,0-.038a1.981,1.981,0,0,1,1.981-1.981H7.623a1.981,1.981,0,0,0-1.981,1.981c0,.013,0,.025,0,.038s0,.025,0,.038a1.977,1.977,0,0,0,1.466,1.905H6.963a3.961,3.961,0,0,0-.318,7.91s.979,4.055,3.621,4.055h1.321C8.944,47.812,7.965,43.757,7.965,43.757Z" transform="translate(-0.34 -10.146)" fill="#3d3017"/>
        <path id="Trazado_896752" data-name="Trazado 896752" d="M18.15,4.289h8.671a1.982,1.982,0,0,1,1.939,1.573l1.39,3.349.92,2.217,1.695,1.352.541-.127,1.727-.406-2.642-2.108-.921-2.217-1.39-3.349A1.981,1.981,0,0,0,28.142,3H19.471a1.976,1.976,0,0,0-1.879,1.376,1.983,1.983,0,0,1,.558-.087Z" transform="translate(-5.294 -0.34)" fill="#5e4b24"/>
        <path id="Trazado_896753" data-name="Trazado 896753" d="M21.406,24.562a1.156,1.156,0,1,1,1.156-1.156A1.157,1.157,0,0,1,21.406,24.562Z" transform="translate(-6.196 -6.875)"/>
        <path id="Trazado_896754" data-name="Trazado 896754" d="M31.406,24.562a1.156,1.156,0,1,1,1.156-1.156A1.157,1.157,0,0,1,31.406,24.562Z" transform="translate(-9.592 -6.875)"/>
        <path id="Trazado_896755" data-name="Trazado 896755" d="M25.727,31.477A2.48,2.48,0,0,1,23.25,29h.991a1.486,1.486,0,1,0,2.972,0H28.2A2.48,2.48,0,0,1,25.727,31.477Z" transform="translate(-7.215 -9.167)"/>
        <path id="Trazado_896756" data-name="Trazado 896756" d="M6.008,34.318c.011.077.021.155.036.231L5.306,41.56l1.313.138.518-4.926a4.617,4.617,0,0,0,2.788,1.5v3.355h1.321v-3.3h.66a4.606,4.606,0,0,0,3.3-1.394v4.7H16.53V34.363h3.963v7.265h1.321V34.05l2.378,1.036a.662.662,0,0,0,.813-.239,17.936,17.936,0,0,0,1.96-5.6l1.848.337,1.038,9.686a2.637,2.637,0,0,0,2.626,2.361h.4a2.637,2.637,0,0,0,2.627-2.361l1.478-13.8a3.275,3.275,0,0,0-2.748-3.6l1.868-2.8c1.921-.631,5.8-2.143,5.514-3.963-.069-.435-.4-.752-.993-.942a3.322,3.322,0,0,0-3.75,1.366L34.033,19.8c.217-1.668.5-3.654.811-5.525l.035.028c.816-1.02,4.849-6.223,4.074-8.547a1.194,1.194,0,0,0-1.049-.87c-.912-.055-1.86.867-2.81,2.765a29.834,29.834,0,0,0-1.558,6.428,3.967,3.967,0,0,0-3.548-2.817l-2.344-1.87L25.42,4.034A2.656,2.656,0,0,0,22.848,2h-8.67a2.655,2.655,0,0,0-2.572,2.036L9.381,9.364,7.035,11.259a3.964,3.964,0,0,0-3.714,3.95c0,2.372,3.68,3.07,5.52,3.177l.852,2.767H7.284A2.645,2.645,0,0,0,4.642,23.8a2.618,2.618,0,0,0,.522,1.561,4.618,4.618,0,0,0,.845,8.961ZM37.977,16.264a2.05,2.05,0,0,1,1.686-.929,1.805,1.805,0,0,1,.559.088l.05.017a7.76,7.76,0,0,1-2.913,1.753Zm-1.7-8.024a4.7,4.7,0,0,1,1.446-1.991c.207.939-.985,3.148-2.345,5.15a15.411,15.411,0,0,1,.9-3.159ZM20.563,32.747a.66.66,0,0,0-.069.3H16.478a4.611,4.611,0,0,0-1.407-2.7l.037-.017-1.219-2.707V27.1H15.87a.66.66,0,0,0,.66-.66V24.856a7.655,7.655,0,0,0,3.963,0v1.582a.66.66,0,0,0,.66.66h1.981v.5Zm-9.19-3.668c-.024-.12-.047-.232-.065-.324l1.26-.974a.653.653,0,0,0,.057.248l.555,1.232a4.607,4.607,0,0,0-1.273-.182Zm.534-15.406,1.181.278a23.8,23.8,0,0,0,10.848,0l1.181-.278v3.517a6.6,6.6,0,1,1-13.209,0Zm15.513-.542a7.371,7.371,0,0,1-1,4.31c0-.084.013-.166.013-.251V13.363ZM24.187,33.643l-2.131-.929,2.33-4.661a.65.65,0,0,0,.069-.272l1.26.974a19.8,19.8,0,0,1-1.528,4.888Zm11.486-8.316-1.478,13.8a1.319,1.319,0,0,1-1.314,1.18h-.4a1.319,1.319,0,0,1-1.313-1.18l-.653-6.085h2.529V31.721H30.4v.268l-.714-6.662a1.982,1.982,0,0,1,1.97-2.192H33.7a1.981,1.981,0,0,1,1.97,2.192Zm-2.524-8.781c-.333,2.261-.581,4.3-.695,5.268h-.8a3.3,3.3,0,0,0-3.284,3.654l.294,2.745-1.953-.356L24.2,25.915a.651.651,0,0,0-.4-.132v-.006H21.815v-1.39a7.966,7.966,0,0,0,4.02-4.171,8.645,8.645,0,0,0,1.548-1.822C28.78,18.332,31.884,17.919,33.149,16.546Zm-.767-1.337c0,.868-2.284,1.6-4.269,1.809a8.7,8.7,0,0,0,.618-4.125l-.007-.069,1.088-.256A2.645,2.645,0,0,1,32.382,15.209Zm-6.1-5.664-4.81.641a22.378,22.378,0,0,1-5.909,0l-4.819-.643.518-1.24,4.127.55a23.729,23.729,0,0,0,3.129.207,23.729,23.729,0,0,0,3.129-.207l4.121-.55ZM12.848,4.491a.7.7,0,0,0,.037-.12,1.327,1.327,0,0,1,1.293-1.05h8.671A1.327,1.327,0,0,1,24.141,4.37a.672.672,0,0,0,.036.118l1.061,2.555-3.771.5a22.406,22.406,0,0,1-5.909,0l-3.775-.5ZM9.771,10.747l5.612.748a23.729,23.729,0,0,0,3.129.207A23.729,23.729,0,0,0,21.64,11.5l5.589-.745,1.034.825-4.632,1.09a22.481,22.481,0,0,1-10.241,0L8.748,11.573ZM4.642,15.209a2.645,2.645,0,0,1,2.57-2.641l.477.112a11.225,11.225,0,0,0,.485,3.537l.25.811C6.668,16.843,4.642,16.164,4.642,15.209ZM6.623,26.437h3.963V25.117h-3.3a1.321,1.321,0,1,1,0-2.642h3.3a.66.66,0,0,0,.631-.855L9.436,15.83A9.9,9.9,0,0,1,9,12.99l1.585.373v3.828a7.931,7.931,0,0,0,4.623,7.2v1.39H13.229v.006a.65.65,0,0,0-.4.132l-2.642,2.04a.659.659,0,0,0-.248.629s.031.187.091.495h-.1V30.4h1.981a3.3,3.3,0,0,1,0,6.6H10.586a3.3,3.3,0,0,1-3.205-2.542l.011-.1h3.195V33.042H6.623a3.3,3.3,0,0,1,0-6.6Z"/>
        <path id="Trazado_896757" data-name="Trazado 896757" d="M38,56h1.321v3.963H38Z" transform="translate(-12.223 -18.334)"/>
        <path id="Trazado_896758" data-name="Trazado 896758" d="M45,37h1.981v1.321H45Z" transform="translate(-14.6 -11.883)"/>
        <path id="Trazado_896759" data-name="Trazado 896759" d="M48,41h2.642v1.321H48Z" transform="translate(-15.618 -13.242)"/>
        <path id="Trazado_896760" data-name="Trazado 896760" d="M48,51h1.321v1.321H48Z" transform="translate(-15.618 -16.637)"/>
      </g>
    </g>
  </g>
</svg>
