<svg xmlns="http://www.w3.org/2000/svg" width="62.779" height="50.091" viewBox="0 0 62.779 50.091">
  <g id="bbq-grill_1759650" transform="translate(-0.001 0.001)">
    <path id="Trazado_896951" data-name="Trazado 896951" d="M61.377,36.358l-7.39-6.3,4.522-1.2a2.575,2.575,0,0,0,1.912-2.486V9.022a2.576,2.576,0,0,0-1.085-2.1l-9.1-6.45A2.557,2.557,0,0,0,48.746,0H36.571a2.582,2.582,0,0,0-2.222,1.276L28.508,11.286a4.236,4.236,0,0,0-2.452-.245l-4.635.933a1.765,1.765,0,0,1-1.282-.23L14,7.942a4.238,4.238,0,0,0-5.086.486L1.365,15.382a4.2,4.2,0,0,0-1.2,4.278L3.537,31.328a4.244,4.244,0,0,0,.881,1.61l-3.776,4.9a2.816,2.816,0,0,0,.085,3.527L7.31,49.1a2.8,2.8,0,0,0,2.134.987h4.168a1.226,1.226,0,1,0,0-2.452H9.445a.35.35,0,0,1-.267-.124l-6.583-7.74a.352.352,0,0,1-.011-.441L9.363,30.54a.35.35,0,0,1,.186-.124l17.668-4.764a.348.348,0,0,1,.312.067l2.571,2.1-1.779,2.345a3.968,3.968,0,0,0-.227,4.492l4.044,6.622-3.48,6.187a.351.351,0,0,1-.306.179H23.422a1.226,1.226,0,0,0,0,2.452h4.931A2.807,2.807,0,0,0,30.8,48.662L33.6,43.67l2.754,4.509h0a4.016,4.016,0,0,0,3.406,1.911H57.187a3.979,3.979,0,0,0,3.882-3.064l1.6-6.705a3.974,3.974,0,0,0-1.292-3.963ZM36.467,2.511a.121.121,0,0,1,.1-.059H48.746a.12.12,0,0,1,.069.022l9.1,6.45a.121.121,0,0,1,.051.1V26.367a.12.12,0,0,1-.089.116l-5.119,1.36a1.2,1.2,0,0,0-.292.121L48.056,20.74A3.99,3.99,0,0,0,45.3,18.882l-5.113-.842a3.98,3.98,0,0,0-3.72,1.392l-6.014-6.61ZM29.078,23.817a2.811,2.811,0,0,0-2.5-.534L8.911,28.048a2.817,2.817,0,0,0-1.49.995L5.989,30.9a1.736,1.736,0,0,1-.1-.251L2.525,18.98a1.763,1.763,0,0,1,.5-1.795l7.546-6.954a1.778,1.778,0,0,1,2.133-.2l6.143,3.8a4.21,4.21,0,0,0,3.055.549l4.635-.932a1.779,1.779,0,0,1,1.66.545l6.755,7.424-3.371,4.443ZM60.284,39.752l-1.6,6.7a1.534,1.534,0,0,1-1.5,1.182H39.764A1.549,1.549,0,0,1,38.45,46.9L34.6,40.6l0-.006-4.409-7.219a1.53,1.53,0,0,1,.087-1.732l7.263-9.573v0l.772-1.017a1.534,1.534,0,0,1,1.476-.588L44.9,21.3a1.537,1.537,0,0,1,1.064.717l5.3,8.673a3.98,3.98,0,0,0,.816.956l7.709,6.576a1.533,1.533,0,0,1,.5,1.528Zm0,0" transform="translate(0)" fill="#65802c"/>
    <path id="Trazado_896952" data-name="Trazado 896952" d="M310.609,237.766h-4.922a1.226,1.226,0,0,0-1.034.568l-2.4,3.778a1.225,1.225,0,0,0-.092,1.141l1.03,2.4a1.226,1.226,0,1,0,2.254-.966l-.775-1.809,1.695-2.664h4.249a1.226,1.226,0,0,0,0-2.452Zm0,0" transform="translate(-265.02 -208.613)" fill="#65802c"/>
    <path id="Trazado_896953" data-name="Trazado 896953" d="M90.516,263.839a1.226,1.226,0,0,0,.086-1.732l-3.351-3.7a1.228,1.228,0,0,0-1.23-.36l-7.443,2.02a1.225,1.225,0,0,0-.746.579L74.854,265.9a1.226,1.226,0,1,0,2.133,1.208l2.725-4.811,6.224-1.689,2.847,3.142A1.226,1.226,0,0,0,90.516,263.839Zm0,0" transform="translate(-65.535 -226.37)" fill="#65802c"/>
    <path id="Trazado_896954" data-name="Trazado 896954" d="M60.242,115.082a1.226,1.226,0,0,0-1.734,0l-3.687,3.687a1.226,1.226,0,0,0,1.734,1.734l2.82-2.82,1.566,1.566a1.226,1.226,0,1,0,1.734-1.734Zm0,0" transform="translate(-47.783 -100.656)" fill="#65802c"/>
    <path id="Trazado_896955" data-name="Trazado 896955" d="M142.238,388.52a1.226,1.226,0,1,0,.867.359A1.236,1.236,0,0,0,142.238,388.52Zm0,0" transform="translate(-123.721 -340.882)" fill="#65802c"/>
  </g>
</svg>
