<svg xmlns="http://www.w3.org/2000/svg" width="46.162" height="62.074" viewBox="0 0 46.162 62.074">
  <g id="desperdicio" transform="translate(-56.119 2.809)">
    <path id="Trazado_896956" data-name="Trazado 896956" d="M81.273,252.7c-1.518-5.324-10.2-7.644-15.179-2.092a9.493,9.493,0,0,0-7.716,12.684,6,6,0,0,0,.721,7.64,32.648,32.648,0,0,0-1.205,4.772,1.014,1.014,0,1,0,2,.347,30.44,30.44,0,0,1,5.344-12.664,6.983,6.983,0,0,1,6.021-1.726,1.014,1.014,0,1,0,.372-1.993,9.1,9.1,0,0,0-3.213-.017,32.28,32.28,0,0,1,4.275-3.6,1.014,1.014,0,1,0-1.168-1.658q-.616.434-1.208.892a6.213,6.213,0,0,0-.3-1.512,1.014,1.014,0,0,0-1.926.636,4.191,4.191,0,0,1-.059,2.8,33.6,33.6,0,0,0-2.658,2.737A7.241,7.241,0,0,0,64.9,258.2a1.014,1.014,0,1,0-1.877.768,5.354,5.354,0,0,1,0,4.025,32.475,32.475,0,0,0-3.105,5.732,3.992,3.992,0,0,1,.4-4.691,1.014,1.014,0,0,0,.116-1.008,7.489,7.489,0,0,1,6.248-10.452,1.014,1.014,0,0,0,.7-.364c3.881-4.687,10.841-2.793,11.935,1.044.525,1.843-.322,3.892-2.452,5.926a1.014,1.014,0,0,0-.3.915,5.893,5.893,0,0,1-7.294,6.775,1.014,1.014,0,0,0-1.156.515,7.82,7.82,0,0,1-1.567,2.139,1.014,1.014,0,0,0,1.383,1.483,9.344,9.344,0,0,0,1.616-2.028,7.878,7.878,0,0,0,9.079-8.691C81.861,257,81.683,254.139,81.273,252.7Z" transform="translate(-1.211 -217.626)" fill="#65802c"/>
    <path id="Trazado_896957" data-name="Trazado 896957" d="M297.5,283.326c-2.968-2.017-4.578-5.52-2.294-8.362a1.07,1.07,0,0,0,.043-1.284c-1.141-1.63-.079-3.436,1.809-3.721a1.07,1.07,0,0,0,.9-1.2,6.2,6.2,0,0,0-9.438-4.543,4.083,4.083,0,0,1,1.244-2.735,1.07,1.07,0,1,0-1.5-1.53,6.225,6.225,0,0,0-1.893,4.575,6.172,6.172,0,0,0-7.641,4.737,1.07,1.07,0,0,0,.8,1.28c2.911.694,4.372,3.6,2.373,5.96a1.07,1.07,0,0,0,.186,1.557,4.184,4.184,0,0,1,1.547,2.1,1.07,1.07,0,0,0,2.037-.655,6.22,6.22,0,0,0-1.518-2.486c1.856-3.1.377-6.794-3.019-8.2a4.1,4.1,0,0,1,2.616-2.245,4.308,4.308,0,0,1,3.381.608,1.071,1.071,0,0,0,1.426-.206,4.078,4.078,0,0,1,7.055,1.159,4.4,4.4,0,0,0-2.52,6.093c-2.332,3.562-.781,7.793,2.577,10.411-.873,2.418-3.537,2.932-5.667,1.7a1.07,1.07,0,0,0-1.039-.019,5.009,5.009,0,0,1-6.14-.988,1.07,1.07,0,1,0-1.572,1.452,7.113,7.113,0,0,0,8.192,1.677c3.6,1.715,7.714.019,8.5-4.047a1.069,1.069,0,0,0-.449-1.089Z" transform="translate(-195.688 -229.861)" fill="#65802c"/>
    <path id="Trazado_896958" data-name="Trazado 896958" d="M99.251,28.907c2.926,1.45,7.908.793,11.342-1.5a1.059,1.059,0,1,0-1.176-1.763c-3.153,2.1-7.244,2.344-9.225,1.362a1.743,1.743,0,0,1,.338-3.233c7.17-1.947,8.473-10.5,8.7-14.093.189-2.99,2.52-5.816,5.508-5.157a4.266,4.266,0,0,1,3.436,4.825c-.668,6.739,1.248,11.5,5.694,14.151a11.148,11.148,0,0,0,4.949,1.513,1.324,1.324,0,0,1,1.226,1.408l-.008.115a1.342,1.342,0,0,1-.753,1.1A10.719,10.719,0,0,1,114.73,13.485a1.059,1.059,0,0,0-1.928-.879,12.971,12.971,0,0,0,2.776,14.807,13.012,13.012,0,0,0,14.637,2.13,3.531,3.531,0,0,0,.068-6.276,11.143,11.143,0,0,0,1.189-1.683,3.012,3.012,0,0,0-3.348-4.412,8.34,8.34,0,0,1-1.618.232,1.059,1.059,0,1,0,.1,2.117,10.462,10.462,0,0,0,2.03-.293.893.893,0,0,1,1,1.3,9.06,9.06,0,0,1-1.808,2.226,8.714,8.714,0,0,1-2.874-1.071c-3.731-2.225-5.259-6.19-4.67-12.122a6.334,6.334,0,0,0-4.694-7,2.951,2.951,0,0,1,.413-.9A1.059,1.059,0,1,0,114.251.463a5.044,5.044,0,0,0-.782,1.863c-3.57.241-6.124,3.61-6.353,7.223-.2,3.134-1.292,10.593-7.141,12.182a3.864,3.864,0,0,0-.724,7.176Z" transform="translate(-35.006 -2.809)" fill="#65802c"/>
  </g>
</svg>
