<svg xmlns="http://www.w3.org/2000/svg" width="64.4" height="60" viewBox="0 0 64.4 60">
  <g id="nube_2_" data-name="nube (2)" transform="translate(0.2 -2)">
    <path id="Trazado_896969" data-name="Trazado 896969" d="M47.6,41.6a8.09,8.09,0,0,0,2.5-2.7,8.719,8.719,0,0,0,4,.9,8.983,8.983,0,0,0,1.1-17.9,22.753,22.753,0,0,0,.2-2.6A16.368,16.368,0,0,0,39,3.1a16.126,16.126,0,0,0-14.4,8.7,9.056,9.056,0,0,0-4.9-1.4,8.92,8.92,0,0,0-8.9,8.9,8.676,8.676,0,0,0,.5,2.8,7.612,7.612,0,0,0-2.1-.3A8.28,8.28,0,0,0,.9,30.1a8.4,8.4,0,0,0,7.9,8.3" fill="none" stroke="#65802c" stroke-linecap="round" stroke-linejoin="round" stroke-miterlimit="10" stroke-width="2.2"/>
    <path id="Trazado_896970" data-name="Trazado 896970" d="M30.8,35.4a5.3,5.3,0,1,1,5.3,5.3H11.3" fill="none" stroke="#65802c" stroke-linecap="round" stroke-linejoin="round" stroke-miterlimit="10" stroke-width="2.2"/>
    <path id="Trazado_896971" data-name="Trazado 896971" d="M43.3,50.9a5.3,5.3,0,1,0,5.3-5.3H22.1" fill="none" stroke="#65802c" stroke-linecap="round" stroke-linejoin="round" stroke-miterlimit="10" stroke-width="2.2"/>
    <path id="Trazado_896972" data-name="Trazado 896972" d="M28.7,55.9a5,5,0,1,0,5-5H10" fill="none" stroke="#65802c" stroke-linecap="round" stroke-linejoin="round" stroke-miterlimit="10" stroke-width="2.2"/>
  </g>
</svg>
