<svg xmlns="http://www.w3.org/2000/svg" width="38.21" height="38.43" viewBox="0 0 38.21 38.43">
  <g id="landslide_1684438" transform="translate(-0.5 0)">
    <path id="Trazado_897069" data-name="Trazado 897069" d="M201.316,84.446l1.17,2.176a1.32,1.32,0,0,0,1.513.648l2.29-.629a1.321,1.321,0,0,0,.968-1.2l.112-2.067a1.32,1.32,0,0,0-.877-1.316l-2.636-.934a1.32,1.32,0,0,0-1.551.53l-.936,1.455a1.32,1.32,0,0,0-.053,1.339Zm0,0" transform="translate(-185.598 -74.963)" fill="#d8d8d8"/>
    <path id="Trazado_897070" data-name="Trazado 897070" d="M72.307,15.969l-.463.569a2.572,2.572,0,0,0-.033,3.207l.292.374a2.573,2.573,0,0,0,2.886.842l.218-.077a2.572,2.572,0,0,0,1.71-2.564l-.047-.866a2.573,2.573,0,0,0-4.564-1.485Zm0,0" transform="translate(-65.455 -13.892)" fill="#949493"/>
    <path id="Trazado_897071" data-name="Trazado 897071" d="M346.461,187.55l-.236.269a1.255,1.255,0,0,0-.073,1.562l.136.188a1.254,1.254,0,0,0,1.391.461l.107-.034a1.254,1.254,0,0,0,.879-1.219l-.007-.423a1.254,1.254,0,0,0-2.2-.8Zm0,0" transform="translate(-319.488 -173.077)" fill="#949493"/>
    <path id="Trazado_897072" data-name="Trazado 897072" d="M297.888,263.834l.166.678a1.268,1.268,0,0,0,1.355.96l.1-.009a1.268,1.268,0,0,0,1.116-.995l.121-.56a1.268,1.268,0,0,0-.891-1.486l-.382-.109a1.268,1.268,0,0,0-1.58,1.521Zm0,0" transform="translate(-275.033 -242.58)" fill="#d8d8d8"/>
    <path id="Trazado_897073" data-name="Trazado 897073" d="M418.863,390.458l-.346.52a1.133,1.133,0,0,0,.187,1.472l.064.057a1.133,1.133,0,0,0,1.33.133l.442-.259a1.133,1.133,0,0,0,.439-1.485l-.159-.318a1.133,1.133,0,0,0-1.956-.12Zm0,0" transform="translate(-386.465 -360.684)" fill="#949493"/>
    <path id="Trazado_897074" data-name="Trazado 897074" d="M34.281,37.813c-1.468-4.907-8.992-3.563-8.992-9.627,0-6.97-8.062-7.444-8.062-13.852,0-3.72-5.967-5.949-8.29-6.794a.679.679,0,0,0-.911.639L8,40.731a1.173,1.173,0,0,0,1.265,1.054l25.194-.013.026-2.438a5.115,5.115,0,0,0-.2-1.522Zm0,0" transform="translate(-6.937 -6.935)" fill="#a05e44"/>
    <path id="Trazado_897075" data-name="Trazado 897075" d="M34.765,37.813c-1.468-4.907-8.992-3.563-8.992-9.627,0-6.97-8.062-7.444-8.062-13.852,0-3.72-5.967-5.949-8.29-6.794a.679.679,0,0,0-.9.512c2.356,1.654,4.9,4.413,4.506,7.576-.8,6.358,8.062,6.882,8.062,13.852,0,6.064,7.524,4.72,8.992,9.627a5.113,5.113,0,0,1,.2,1.522l-.012,1.147,4.669,0,.026-2.438a5.115,5.115,0,0,0-.2-1.522Zm0,0" transform="translate(-7.421 -6.936)" fill="#8c4d34"/>
    <path id="Trazado_897076" data-name="Trazado 897076" d="M43.763,454.333H9.322A1.322,1.322,0,0,1,8,453.011v-2.749H42.336a2.749,2.749,0,0,1,2.749,2.749,1.322,1.322,0,0,1-1.322,1.322Zm0,0" transform="translate(-6.938 -416.466)" fill="#7bb72e"/>
    <path id="Trazado_897077" data-name="Trazado 897077" d="M50.847,127.719a.563.563,0,0,0,.561-.521,8.016,8.016,0,0,0-2.843-7.329c-1.57-1.579-3.193-3.211-3.193-7.826a.563.563,0,0,0-1.126,0c0,5.079,1.87,6.96,3.52,8.619,1.5,1.506,2.791,2.806,2.519,6.452a.563.563,0,0,0,.562.6Zm0,0" transform="translate(-40.462 -103.113)"/>
    <path id="Trazado_897078" data-name="Trazado 897078" d="M59.812,345.79a.563.563,0,1,0-.751.839c1,.9,2.044,1.829,2.284,5.147a.563.563,0,0,0,1.123-.082,9.627,9.627,0,0,0-.98-3.916,7.079,7.079,0,0,0-1.676-1.988Zm0,0" transform="translate(-53.992 -319.702)"/>
    <path id="Trazado_897079" data-name="Trazado 897079" d="M35.4,33.233H28.1a7.953,7.953,0,0,0-.219-2.517c-.737-2.463-2.783-3.467-4.762-4.439-2.257-1.108-4.206-2.065-4.206-5.027,0-3.463-1.866-5.437-3.777-7.162a.563.563,0,0,0-.754.836c1.795,1.62,3.406,3.322,3.406,6.326,0,3.663,2.569,4.924,4.836,6.037,1.843.905,3.584,1.76,4.18,3.751a7.135,7.135,0,0,1,.172,2.194H5.795a.563.563,0,1,0,0,1.126H35.4a2.189,2.189,0,0,1,2.186,2.186.76.76,0,0,1-.758.759H2.385a.76.76,0,0,1-.759-.759V34.359h1.93a.563.563,0,0,0,0-1.126H1.627L1.652,1.244a.114.114,0,0,1,.05-.1.112.112,0,0,1,.106-.014C4.746,2.2,9.728,4.27,9.728,7.4a7.91,7.91,0,0,0,2.967,6,.563.563,0,1,0,.775-.817C11.9,11.094,10.854,9.642,10.854,7.4c0-.125-.006-.248-.018-.371A3.129,3.129,0,0,0,12.025,4.4l-.047-.866A3.124,3.124,0,0,0,9.4.614a3.205,3.205,0,0,0-3.1,1.242A30.5,30.5,0,0,0,2.193.076,1.243,1.243,0,0,0,.526,1.243C.526,1.252.5,36.534.5,36.545A1.887,1.887,0,0,0,2.385,38.43H36.826a1.887,1.887,0,0,0,1.884-1.885A3.316,3.316,0,0,0,35.4,33.233ZM10.854,3.592a3.051,3.051,0,0,1-.344,2.169A8.039,8.039,0,0,0,7.29,2.43a2.011,2.011,0,0,1,3.564,1.162Zm0,0" transform="translate(0 0)"/>
    <path id="Trazado_897080" data-name="Trazado 897080" d="M195.056,79.938a1.873,1.873,0,0,0,1.653.993,14.762,14.762,0,0,0,2.8-.7,1.881,1.881,0,0,0,1.381-1.713L201,76.453a1.894,1.894,0,0,0-1.251-1.877l-2.636-.934a1.876,1.876,0,0,0-2.212.756l-.936,1.455a1.884,1.884,0,0,0-.075,1.911Zm-.147-3.477.936-1.455a.754.754,0,0,1,.89-.3l2.636.934a.762.762,0,0,1,.5.755l-.113,2.067a.756.756,0,0,1-.555.689l-2.29.629a.754.754,0,0,1-.868-.371l-1.17-2.176a.757.757,0,0,1,.03-.768Zm0,0" transform="translate(-178.664 -68.013)"/>
    <path id="Trazado_897081" data-name="Trazado 897081" d="M338.864,182.95a1.892,1.892,0,0,0,3.4-1.13l-.007-.423a1.818,1.818,0,0,0-3.183-1.166l-.236.269a1.808,1.808,0,0,0-.106,2.263Zm.817-1.708.236-.269a.691.691,0,0,1,1.211.443c-.026.138.176.89-.477,1.094l-.108.033c-.577.181-.86-.406-.9-.442A.687.687,0,0,1,339.681,181.242Zm0,0" transform="translate(-312.52 -166.129)"/>
    <path id="Trazado_897082" data-name="Trazado 897082" d="M290.388,257.006c.045.184.173.705.166.678a1.892,1.892,0,0,0,3.663-.059l.121-.559a1.835,1.835,0,0,0-1.287-2.146l-.382-.109A1.833,1.833,0,0,0,290.388,257.006Zm1.332-.981c.394-.322.82-.052,1.022-.023a.707.707,0,0,1,.5.827l-.121.56a.766.766,0,0,1-1.47.028C291.607,257.059,291.221,256.433,291.72,256.025Zm0,0" transform="translate(-268.079 -235.618)"/>
    <path id="Trazado_897083" data-name="Trazado 897083" d="M413.377,386.16l.441-.259a1.7,1.7,0,0,0,.658-2.223,1.892,1.892,0,0,0-1.436-1.236c-1.347-.193-1.848,1.109-2,1.258A1.751,1.751,0,0,0,413.377,386.16Zm-1.4-1.836.346-.52a.571.571,0,0,1,.984.06l.159.318a.572.572,0,0,1-.221.748l-.441.259A.625.625,0,0,1,411.98,384.324Zm0,0" transform="translate(-379.46 -353.718)"/>
  </g>
</svg>
