<svg xmlns="http://www.w3.org/2000/svg" width="40.43" height="33.577" viewBox="0 0 40.43 33.577">
  <g id="drought_4849560" transform="translate(0 -43.3)">
    <g id="Grupo_1106095" data-name="Grupo 1106095" transform="translate(0 57.527)">
      <g id="Grupo_1106094" data-name="Grupo 1106094">
        <path id="Trazado_897084" data-name="Trazado 897084" d="M33.629,229l-1.224,1.784.821,2.313-3.442,1.563,1.208-2.25-1.153-1.918L30.921,229H16.2l-1.926,2.668,1.468,1.168-3.758,3.055.876-2.992-1.816-1.982L12.392,229H5.5v9.19H45.053V229Z" transform="translate(-5.066 -228.566)" fill="#935434"/>
        <path id="Trazado_897085" data-name="Trazado 897085" d="M39.988,233.55H.434A.433.433,0,0,1,0,233.116v-9.182a.433.433,0,0,1,.434-.434h6.9a.424.424,0,0,1,.379.229.44.44,0,0,1-.032.45l-1.153,1.634,1.587,1.721a.415.415,0,0,1,.095.411l-.489,1.674,2.266-1.847-1.05-.837a.432.432,0,0,1-.079-.592l1.926-2.661a.438.438,0,0,1,.347-.182H25.856a.428.428,0,0,1,.387.237.44.44,0,0,1-.032.45l-.908,1.255,1.011,1.674a.432.432,0,0,1,.008.426l-.608,1.129,1.918-.876-.687-1.934a.446.446,0,0,1,.047-.387l1.224-1.784a.428.428,0,0,1,.355-.189H40a.433.433,0,0,1,.434.434v9.182A.44.44,0,0,1,39.988,233.55ZM.861,232.69h38.7v-8.321H28.793l-.971,1.413.75,2.1a.427.427,0,0,1-.229.537l-3.45,1.563a.423.423,0,0,1-.489-.095.431.431,0,0,1-.063-.5l1.1-2.037-1.026-1.705a.431.431,0,0,1,.024-.474l.584-.805H11.361l-1.555,2.155,1.145.916a.419.419,0,0,1,.158.332.435.435,0,0,1-.158.34l-3.766,3.055a.439.439,0,0,1-.513.024.427.427,0,0,1-.174-.482l.813-2.763-1.658-1.8a.428.428,0,0,1-.032-.537l.876-1.24H.861Z" transform="translate(0 -223.5)" fill="#262626"/>
      </g>
    </g>
    <g id="Grupo_1106096" data-name="Grupo 1106096" transform="translate(14.414 57.7)">
      <path id="Trazado_897086" data-name="Trazado 897086" d="M183.006,231.385a.433.433,0,0,1-.15-.837l3.726-1.382-2.211-2.763a.433.433,0,0,1,.679-.537l2.582,3.229a.435.435,0,0,1-.189.679l-4.287,1.587A.46.46,0,0,1,183.006,231.385Z" transform="translate(-182.578 -225.701)" fill="#262626"/>
    </g>
    <g id="Grupo_1106097" data-name="Grupo 1106097" transform="translate(16.297 61.832)">
      <path id="Trazado_897087" data-name="Trazado 897087" d="M208.441,281.131a.441.441,0,0,1-.355-.182l-1.579-2.242a.43.43,0,1,1,.7-.5l1.579,2.242a.436.436,0,0,1-.1.6A.394.394,0,0,1,208.441,281.131Z" transform="translate(-206.431 -278.031)" fill="#262626"/>
    </g>
    <g id="Grupo_1106098" data-name="Grupo 1106098" transform="translate(1.648 57.525)">
      <path id="Trazado_897088" data-name="Trazado 897088" d="M22.26,228.634a.4.4,0,0,1-.221-.063.427.427,0,0,1-.15-.592l.687-1.168-1.634-2.676a.431.431,0,0,1,.734-.45l1.768,2.9a.408.408,0,0,1,0,.442l-.821,1.389A.4.4,0,0,1,22.26,228.634Z" transform="translate(-20.876 -223.476)" fill="#262626"/>
    </g>
    <g id="Grupo_1106099" data-name="Grupo 1106099" transform="translate(15.536 62.949)">
      <path id="Trazado_897089" data-name="Trazado 897089" d="M203.755,297.6l-1.555,2.029" transform="translate(-201.772 -297.172)" fill="#935434"/>
      <path id="Trazado_897090" data-name="Trazado 897090" d="M197.209,295.064a.449.449,0,0,1-.261-.087.437.437,0,0,1-.079-.608l1.563-2.021a.433.433,0,1,1,.687.529l-1.563,2.021A.456.456,0,0,1,197.209,295.064Z" transform="translate(-196.781 -292.181)" fill="#262626"/>
    </g>
    <g id="Grupo_1106100" data-name="Grupo 1106100" transform="translate(29.794 57.7)">
      <path id="Trazado_897091" data-name="Trazado 897091" d="M377.806,231.385a.433.433,0,0,1-.15-.837l3.726-1.382-2.211-2.763a.433.433,0,0,1,.679-.537l2.582,3.229a.435.435,0,0,1-.189.679l-4.287,1.587A.536.536,0,0,1,377.806,231.385Z" transform="translate(-377.378 -225.701)" fill="#262626"/>
    </g>
    <g id="Grupo_1106101" data-name="Grupo 1106101" transform="translate(31.677 61.832)">
      <path id="Trazado_897092" data-name="Trazado 897092" d="M403.241,281.131a.441.441,0,0,1-.355-.182l-1.579-2.242a.43.43,0,1,1,.7-.5l1.579,2.242a.436.436,0,0,1-.1.6A.394.394,0,0,1,403.241,281.131Z" transform="translate(-401.231 -278.031)" fill="#262626"/>
    </g>
    <g id="Grupo_1106102" data-name="Grupo 1106102" transform="translate(30.907 62.949)">
      <path id="Trazado_897093" data-name="Trazado 897093" d="M398.463,297.6l-1.563,2.029" transform="translate(-396.472 -297.172)" fill="#935434"/>
      <path id="Trazado_897094" data-name="Trazado 897094" d="M391.909,295.064a.449.449,0,0,1-.261-.087.437.437,0,0,1-.079-.608l1.563-2.021a.433.433,0,0,1,.687.529l-1.563,2.021A.456.456,0,0,1,391.909,295.064Z" transform="translate(-391.481 -292.181)" fill="#262626"/>
    </g>
    <g id="Grupo_1106103" data-name="Grupo 1106103" transform="translate(3.121 60.932)">
      <path id="Trazado_897095" data-name="Trazado 897095" d="M46.158,273.655,45.1,272.1" transform="translate(-44.661 -271.669)" fill="#935434"/>
      <path id="Trazado_897096" data-name="Trazado 897096" d="M41.034,269.049a.429.429,0,0,1-.355-.19l-1.066-1.547a.431.431,0,1,1,.711-.489l1.066,1.555a.431.431,0,0,1-.111.6A.443.443,0,0,1,41.034,269.049Z" transform="translate(-39.536 -266.636)" fill="#262626"/>
    </g>
    <g id="Grupo_1106109" data-name="Grupo 1106109" transform="translate(0 66.693)">
      <g id="Grupo_1106105" data-name="Grupo 1106105" transform="translate(0 0)">
        <g id="Grupo_1106104" data-name="Grupo 1106104">
          <path id="Trazado_897097" data-name="Trazado 897097" d="M5.5,345.1H45.061v9.324H5.5Z" transform="translate(-5.066 -344.666)" fill="#f7931e"/>
          <path id="Trazado_897098" data-name="Trazado 897098" d="M39.988,349.784H.434A.433.433,0,0,1,0,349.35v-9.316a.433.433,0,0,1,.434-.434H40a.433.433,0,0,1,.434.434v9.324A.438.438,0,0,1,39.988,349.784ZM.861,348.924h38.7v-8.455H.861Z" transform="translate(0 -339.6)" fill="#262626"/>
        </g>
      </g>
      <g id="Grupo_1106106" data-name="Grupo 1106106" transform="translate(3.292 2.574)">
        <path id="Trazado_897099" data-name="Trazado 897099" d="M74.8,373.068h-.237a.433.433,0,0,1-.434-.434.428.428,0,0,1,.434-.434H74.8a.434.434,0,1,1,0,.868Zm-1.8,0h-.237a.433.433,0,0,1-.434-.434.428.428,0,0,1,.434-.434H73a.434.434,0,1,1,0,.868Zm-1.8,0h-.237a.433.433,0,0,1-.434-.434.428.428,0,0,1,.434-.434H71.2a.434.434,0,1,1,0,.868Zm-1.8,0h-.237a.433.433,0,0,1-.434-.434.428.428,0,0,1,.434-.434H69.4a.434.434,0,1,1,0,.868Zm-1.808,0h-.237a.433.433,0,0,1-.434-.434.428.428,0,0,1,.434-.434H67.6a.434.434,0,1,1,0,.868Zm-1.8,0h-.237a.433.433,0,0,1-.434-.434.428.428,0,0,1,.434-.434H65.8a.434.434,0,1,1,0,.868Zm-1.8,0h-.237a.433.433,0,0,1-.434-.434.428.428,0,0,1,.434-.434H64a.434.434,0,1,1,0,.868Zm-1.8,0h-.237a.433.433,0,0,1-.434-.434.428.428,0,0,1,.434-.434H62.2a.434.434,0,0,1,0,.868Zm-1.808,0H60.15a.433.433,0,0,1-.434-.434.428.428,0,0,1,.434-.434h.237a.433.433,0,0,1,.434.434A.428.428,0,0,1,60.387,373.068Zm-1.8,0H58.35a.433.433,0,0,1-.434-.434.428.428,0,0,1,.434-.434h.237a.434.434,0,1,1,0,.868Zm-1.8,0H56.55a.433.433,0,0,1-.434-.434.428.428,0,0,1,.434-.434h.237a.434.434,0,1,1,0,.868Zm-1.8,0H54.75a.433.433,0,0,1-.434-.434.428.428,0,0,1,.434-.434h.237a.434.434,0,1,1,0,.868Zm-1.8,0H52.95a.433.433,0,0,1-.434-.434.428.428,0,0,1,.434-.434h.237a.434.434,0,1,1,0,.868Zm-1.808,0h-.237a.433.433,0,0,1-.434-.434.428.428,0,0,1,.434-.434h.237a.433.433,0,0,1,.434.434A.428.428,0,0,1,51.379,373.068Zm-1.8,0h-.237a.433.433,0,0,1-.434-.434.428.428,0,0,1,.434-.434h.237a.434.434,0,0,1,0,.868Zm-1.8,0h-.237a.433.433,0,0,1-.434-.434.428.428,0,0,1,.434-.434h.237a.434.434,0,0,1,0,.868Zm-1.8,0h-.237a.433.433,0,0,1-.434-.434.428.428,0,0,1,.434-.434h.237a.434.434,0,1,1,0,.868Zm-1.8,0h-.237a.433.433,0,0,1-.434-.434.428.428,0,0,1,.434-.434h.237a.434.434,0,1,1,0,.868Zm-1.808,0h-.237a.433.433,0,0,1-.434-.434.428.428,0,0,1,.434-.434h.237a.434.434,0,0,1,0,.868Z" transform="translate(-41.7 -372.2)" fill="#262626"/>
      </g>
      <g id="Grupo_1106107" data-name="Grupo 1106107" transform="translate(3.292 4.745)">
        <path id="Trazado_897100" data-name="Trazado 897100" d="M74.8,400.568h-.237a.433.433,0,0,1-.434-.434.428.428,0,0,1,.434-.434H74.8a.434.434,0,1,1,0,.868Zm-1.8,0h-.237a.433.433,0,0,1-.434-.434.428.428,0,0,1,.434-.434H73a.434.434,0,1,1,0,.868Zm-1.8,0h-.237a.433.433,0,0,1-.434-.434.428.428,0,0,1,.434-.434H71.2a.434.434,0,1,1,0,.868Zm-1.8,0h-.237a.433.433,0,0,1-.434-.434.428.428,0,0,1,.434-.434H69.4a.434.434,0,1,1,0,.868Zm-1.808,0h-.237a.433.433,0,0,1-.434-.434.428.428,0,0,1,.434-.434H67.6a.434.434,0,1,1,0,.868Zm-1.8,0h-.237a.433.433,0,0,1-.434-.434.428.428,0,0,1,.434-.434H65.8a.434.434,0,1,1,0,.868Zm-1.8,0h-.237a.433.433,0,0,1-.434-.434.428.428,0,0,1,.434-.434H64a.434.434,0,1,1,0,.868Zm-1.8,0h-.237a.433.433,0,0,1-.434-.434.428.428,0,0,1,.434-.434H62.2a.434.434,0,0,1,0,.868Zm-1.808,0H60.15a.433.433,0,0,1-.434-.434.428.428,0,0,1,.434-.434h.237a.433.433,0,0,1,.434.434A.428.428,0,0,1,60.387,400.568Zm-1.8,0H58.35a.433.433,0,0,1-.434-.434.428.428,0,0,1,.434-.434h.237a.434.434,0,1,1,0,.868Zm-1.8,0H56.55a.433.433,0,0,1-.434-.434.428.428,0,0,1,.434-.434h.237a.434.434,0,1,1,0,.868Zm-1.8,0H54.75a.433.433,0,0,1-.434-.434.428.428,0,0,1,.434-.434h.237a.434.434,0,1,1,0,.868Zm-1.8,0H52.95a.433.433,0,0,1-.434-.434.428.428,0,0,1,.434-.434h.237a.434.434,0,1,1,0,.868Zm-1.808,0h-.237a.433.433,0,0,1-.434-.434.428.428,0,0,1,.434-.434h.237a.433.433,0,0,1,.434.434A.428.428,0,0,1,51.379,400.568Zm-1.8,0h-.237a.433.433,0,0,1-.434-.434.428.428,0,0,1,.434-.434h.237a.434.434,0,0,1,0,.868Zm-1.8,0h-.237a.433.433,0,0,1-.434-.434.428.428,0,0,1,.434-.434h.237a.434.434,0,0,1,0,.868Zm-1.8,0h-.237a.433.433,0,0,1-.434-.434.428.428,0,0,1,.434-.434h.237a.434.434,0,1,1,0,.868Zm-1.8,0h-.237a.433.433,0,0,1-.434-.434.428.428,0,0,1,.434-.434h.237a.434.434,0,1,1,0,.868Zm-1.808,0h-.237a.433.433,0,0,1-.434-.434.428.428,0,0,1,.434-.434h.237a.434.434,0,0,1,0,.868Z" transform="translate(-41.7 -399.7)" fill="#262626"/>
      </g>
      <g id="Grupo_1106108" data-name="Grupo 1106108" transform="translate(3.292 6.924)">
        <path id="Trazado_897101" data-name="Trazado 897101" d="M74.8,428.168h-.237a.434.434,0,0,1,0-.868H74.8a.433.433,0,0,1,.434.434A.438.438,0,0,1,74.8,428.168Zm-1.8,0h-.237a.434.434,0,1,1,0-.868H73a.433.433,0,0,1,.434.434A.438.438,0,0,1,73,428.168Zm-1.8,0h-.237a.434.434,0,1,1,0-.868H71.2a.433.433,0,0,1,.434.434A.443.443,0,0,1,71.2,428.168Zm-1.8,0h-.237a.434.434,0,1,1,0-.868H69.4a.433.433,0,0,1,.434.434A.443.443,0,0,1,69.4,428.168Zm-1.808,0h-.237a.434.434,0,1,1,0-.868H67.6a.433.433,0,0,1,.434.434A.438.438,0,0,1,67.6,428.168Zm-1.8,0h-.237a.434.434,0,1,1,0-.868H65.8a.433.433,0,0,1,.434.434A.438.438,0,0,1,65.8,428.168Zm-1.8,0h-.237a.434.434,0,1,1,0-.868H64a.433.433,0,0,1,.434.434A.443.443,0,0,1,64,428.168Zm-1.8,0h-.237a.434.434,0,0,1,0-.868H62.2a.433.433,0,0,1,.434.434A.443.443,0,0,1,62.2,428.168Zm-1.808,0H60.15a.434.434,0,1,1,0-.868h.237a.434.434,0,1,1,0,.868Zm-1.8,0H58.35a.434.434,0,1,1,0-.868h.237a.433.433,0,0,1,.434.434A.438.438,0,0,1,58.587,428.168Zm-1.8,0H56.55a.434.434,0,1,1,0-.868h.237a.433.433,0,0,1,.434.434A.438.438,0,0,1,56.787,428.168Zm-1.8,0H54.75a.434.434,0,1,1,0-.868h.237a.433.433,0,0,1,.434.434A.443.443,0,0,1,54.987,428.168Zm-1.8,0H52.95a.434.434,0,1,1,0-.868h.237a.433.433,0,0,1,.434.434A.443.443,0,0,1,53.187,428.168Zm-1.808,0h-.237a.434.434,0,0,1,0-.868h.237a.434.434,0,1,1,0,.868Zm-1.8,0h-.237a.434.434,0,1,1,0-.868h.237a.433.433,0,0,1,.434.434A.438.438,0,0,1,49.579,428.168Zm-1.8,0h-.237a.434.434,0,0,1,0-.868h.237a.433.433,0,0,1,.434.434A.438.438,0,0,1,47.779,428.168Zm-1.8,0h-.237a.434.434,0,1,1,0-.868h.237a.433.433,0,0,1,.434.434A.443.443,0,0,1,45.979,428.168Zm-1.8,0h-.237a.434.434,0,1,1,0-.868h.237a.433.433,0,0,1,.434.434A.443.443,0,0,1,44.179,428.168Zm-1.808,0h-.237a.434.434,0,1,1,0-.868h.237a.433.433,0,0,1,.434.434A.438.438,0,0,1,42.371,428.168Z" transform="translate(-41.7 -427.3)" fill="#262626"/>
      </g>
    </g>
    <g id="Grupo_1106110" data-name="Grupo 1106110" transform="translate(10.833 47.364)">
      <path id="Trazado_897102" data-name="Trazado 897102" d="M147.242,100.24c-3.063-.355-4.642,3.647-4.642,3.647s1.271-1.042,3.49.521c1.682,1.184,4.366-.576,4.366-.576S149.761,100.532,147.242,100.24Z" transform="translate(-142.175 -99.788)" fill="#22b573"/>
      <path id="Trazado_897103" data-name="Trazado 897103" d="M142.526,100.233a2.82,2.82,0,0,1-1.65-.489c-1.887-1.334-2.929-.568-2.968-.537a.427.427,0,0,1-.521.016.431.431,0,0,1-.142-.505c.071-.174,1.745-4.3,5.092-3.916,2.795.324,3.545,3.79,3.576,3.932a.431.431,0,0,1-.189.45A6.772,6.772,0,0,1,142.526,100.233Zm-3.7-2.132a4.455,4.455,0,0,1,2.55.939c1.145.805,2.945-.055,3.616-.426-.229-.758-.987-2.755-2.755-2.961-1.832-.213-3.095,1.39-3.726,2.463a1.963,1.963,0,0,1,.316-.016Z" transform="translate(-137.213 -94.776)" fill="#262626"/>
    </g>
    <g id="Grupo_1106111" data-name="Grupo 1106111" transform="translate(20.157 43.3)">
      <path id="Trazado_897104" data-name="Trazado 897104" d="M264.42,48.8c3.079.032,4.153,4.192,4.153,4.192s-1.137-1.192-3.521.087c-1.413.75-3.205-.339-3.932-.861a.516.516,0,0,1-.166-.632C261.325,50.741,262.431,48.783,264.42,48.8Z" transform="translate(-260.466 -48.365)" fill="#22b573"/>
      <path id="Trazado_897105" data-name="Trazado 897105" d="M258.826,48.7a5.865,5.865,0,0,1-3.118-1.2.947.947,0,0,1-.308-1.161c.418-.916,1.618-3.04,3.837-3.04h.032c3.371.032,4.516,4.334,4.563,4.516a.435.435,0,0,1-.205.482.431.431,0,0,1-.521-.079c-.032-.032-.971-.924-3.008.166A2.571,2.571,0,0,1,258.826,48.7Zm.411-4.532c-1.721,0-2.708,1.768-3.055,2.534a.078.078,0,0,0,.032.1c.647.466,2.274,1.476,3.474.837a4.189,4.189,0,0,1,2.961-.561c-.5-1.145-1.555-2.89-3.387-2.905A.029.029,0,0,0,259.237,44.168Z" transform="translate(-255.314 -43.3)" fill="#262626"/>
    </g>
    <g id="Grupo_1106112" data-name="Grupo 1106112" transform="translate(20.116 45.491)">
      <path id="Trazado_897106" data-name="Trazado 897106" d="M255.234,84.026a.433.433,0,0,1-.434-.434v-10.7a1.465,1.465,0,0,1,1.271-1.453l2.834-.387a.43.43,0,0,1,.111.853l-2.834.387a.611.611,0,0,0-.529.6v10.7A.411.411,0,0,1,255.234,84.026Z" transform="translate(-254.8 -71.051)" fill="#262626"/>
    </g>
    <g id="Grupo_1106113" data-name="Grupo 1106113" transform="translate(15.456 49.512)">
      <path id="Trazado_897107" data-name="Trazado 897107" d="M200.84,128.635a.442.442,0,0,1-.411-.292l-1.311-3.947a1.092,1.092,0,0,0-.553-.632l-2.511-.955a.43.43,0,1,1,.3-.805l2.526.963a.06.06,0,0,1,.032.016,1.922,1.922,0,0,1,1.018,1.145l1.311,3.947a.434.434,0,0,1-.276.545.69.69,0,0,1-.126.016Z" transform="translate(-195.778 -121.978)" fill="#262626"/>
    </g>
  </g>
</svg>
