<svg xmlns="http://www.w3.org/2000/svg" width="42.558" height="42.558" viewBox="0 0 42.558 42.558">
  <g id="hurricane_10936588_1_" data-name="hurricane_10936588 (1)" transform="translate(0 0)">
    <g id="Grupo_1106712" data-name="Grupo 1106712" transform="translate(0 0.659)">
      <g id="Grupo_1106711" data-name="Grupo 1106711" transform="translate(0)">
        <g id="Grupo_1106695" data-name="Grupo 1106695" transform="translate(0)">
          <path id="Trazado_898929" data-name="Trazado 898929" d="M26.2,12.936a5.007,5.007,0,0,1-5.007,5.007H0V14.176H16.184v-1.24a5.007,5.007,0,0,1,10.013,0Z" transform="translate(0 -7.929)" fill="#e3edf6"/>
        </g>
        <g id="Grupo_1106697" data-name="Grupo 1106697" transform="translate(0 6.247)">
          <g id="Grupo_1106696" data-name="Grupo 1106696">
            <path id="Trazado_898930" data-name="Trazado 898930" d="M22.35,84.891H1.159V83.082H0v3.766H21.191a5.009,5.009,0,0,0,4.778-3.506A4.991,4.991,0,0,1,22.35,84.891Z" transform="translate(0 -83.082)" fill="#c5d9ec"/>
          </g>
        </g>
        <g id="Grupo_1106698" data-name="Grupo 1106698" transform="translate(0 12.476)">
          <path id="Trazado_898931" data-name="Trazado 898931" d="M16.52,158.022H0V160.5H12.79v1.248a3.73,3.73,0,1,0,3.73-3.73Z" transform="translate(0 -158.022)" fill="#e3edf6"/>
        </g>
        <g id="Grupo_1106699" data-name="Grupo 1106699" transform="translate(0 12.476)">
          <path id="Trazado_898932" data-name="Trazado 898932" d="M18.429,163.658H16.751a2.052,2.052,0,0,1-2.052-2.052V158.68H1.524v-.657H0v2.483H12.79v1.248a3.731,3.731,0,0,0,7.1,1.609,3.719,3.719,0,0,1-1.458.3Z" transform="translate(0 -158.023)" fill="#c5d9ec"/>
        </g>
        <g id="Grupo_1106700" data-name="Grupo 1106700" transform="translate(17.777 10.994)">
          <path id="Trazado_898933" data-name="Trazado 898933" d="M222.4,140.193a25.582,25.582,0,0,0-6.278,4.67,3.451,3.451,0,0,1-2.152,3.713,6.915,6.915,0,0,0,1.081,5.066,6.768,6.768,0,0,0,12.232-2.61C228.109,146.537,222.4,140.193,222.4,140.193Z" transform="translate(-213.863 -140.193)" fill="#c3f839"/>
        </g>
        <g id="Grupo_1106702" data-name="Grupo 1106702" transform="translate(17.777 18.373)">
          <g id="Grupo_1106701" data-name="Grupo 1106701">
            <path id="Trazado_898934" data-name="Trazado 898934" d="M224.025,236.228a6.773,6.773,0,0,1-7.525-2.645,6.892,6.892,0,0,1-1.146-4.618,3.521,3.521,0,0,1-1.389,1,6.915,6.915,0,0,0,1.081,5.066,6.768,6.768,0,0,0,11.036.163A6.791,6.791,0,0,1,224.025,236.228Z" transform="translate(-213.863 -228.965)" fill="#abe700"/>
          </g>
        </g>
        <g id="Grupo_1106703" data-name="Grupo 1106703" transform="translate(31.913 0.01)">
          <path id="Trazado_898935" data-name="Trazado 898935" d="M393.119,8.053c-1.975.046-7.006.947-8.261,2.993a5,5,0,1,0,8.157,5.794c1.957-2.755.1-8.786.1-8.786Z" transform="translate(-383.933 -8.053)" fill="#c3f839"/>
        </g>
        <g id="Grupo_1106704" data-name="Grupo 1106704" transform="translate(31.913 1.905)">
          <path id="Trazado_898936" data-name="Trazado 898936" d="M389.514,38.5a5,5,0,0,1-3.495-7.657,3.617,3.617,0,0,0-1.161,1.1,5,5,0,1,0,8.157,5.794c.014-.019.027-.04.04-.059A5.021,5.021,0,0,1,389.514,38.5Z" transform="translate(-383.933 -30.842)" fill="#abe700"/>
        </g>
        <g id="Grupo_1106705" data-name="Grupo 1106705" transform="translate(32.915 20.583)">
          <path id="Trazado_898937" data-name="Trazado 898937" d="M401.467,255.558c-1.047.344-4.823,2.2-5.3,4.115a3.82,3.82,0,1,0,7.287,2.293C404.23,259.5,401.467,255.558,401.467,255.558Z" transform="translate(-395.991 -255.558)" fill="#c3f839"/>
        </g>
        <g id="Grupo_1106706" data-name="Grupo 1106706" transform="translate(32.915 22.583)">
          <path id="Trazado_898938" data-name="Trazado 898938" d="M401.757,285.349a3.821,3.821,0,0,1-4.289-4.912,2.51,2.51,0,0,1,.391-.816,4.407,4.407,0,0,0-1.69,2.115,3.819,3.819,0,0,0,6.915,3.116A3.834,3.834,0,0,1,401.757,285.349Z" transform="translate(-395.992 -279.621)" fill="#abe700"/>
        </g>
        <g id="Grupo_1106707" data-name="Grupo 1106707" transform="translate(0.623 32.451)">
          <path id="Trazado_898939" data-name="Trazado 898939" d="M44.909,398.34H11.4a3.9,3.9,0,0,0-3.9,3.9v4.924H48.811v-4.924A3.9,3.9,0,0,0,44.909,398.34Z" transform="translate(-7.5 -398.34)" fill="#eb975d"/>
        </g>
        <g id="Grupo_1106708" data-name="Grupo 1106708" transform="translate(0.623 32.861)">
          <path id="Trazado_898940" data-name="Trazado 898940" d="M9.326,409.777v-4.924a3.886,3.886,0,0,1,.336-1.583A3.9,3.9,0,0,0,7.5,406.761v4.924H48.811v-1.909Z" transform="translate(-7.5 -403.269)" fill="#b25e1e"/>
        </g>
        <g id="Grupo_1106709" data-name="Grupo 1106709" transform="translate(4.447 34.335)">
          <path id="Trazado_898941" data-name="Trazado 898941" d="M53.5,421h1.247v1.247H53.5Z" transform="translate(-53.5 -421.002)" fill="#fff"/>
        </g>
        <g id="Grupo_1106710" data-name="Grupo 1106710" transform="translate(6.906 34.335)">
          <path id="Trazado_898942" data-name="Trazado 898942" d="M83.089,421h1.247v1.247H83.089Z" transform="translate(-83.089 -421.002)" fill="#fff"/>
        </g>
      </g>
    </g>
    <g id="Grupo_1106713" data-name="Grupo 1106713" transform="translate(0 0)">
      <path id="Trazado_898943" data-name="Trazado 898943" d="M38.033,152.63H35.509l.5-1.6a4.452,4.452,0,0,0,4.962-3.049c.817-3.083-2.024-6.824-2.338-7.332-1.134.369-5.31,2.054-6.145,4.682a4.449,4.449,0,0,0,2.331,5.326L34.2,152.63H23.1l.714-3.866a7.412,7.412,0,0,0,7.989-6.014c.781-5.123-4.847-11.106-5.342-11.715A24.791,24.791,0,0,0,20.32,135.3a4.251,4.251,0,0,0-3.909-2.59H0v1.247H16.411a3.014,3.014,0,1,1-3,3.03v-1.225H12.167v1.225a4.24,4.24,0,0,0,4.98,4.179,7.392,7.392,0,0,0,5.443,7.373l-.755,4.092H4.525A4.531,4.531,0,0,0,0,157.156V162.7H34.994v-1.245H1.247v-4.3a3.282,3.282,0,0,1,3.278-3.278H38.033a3.282,3.282,0,0,1,3.278,3.278v4.3h-5.07V162.7h6.317v-5.546a4.53,4.53,0,0,0-4.525-4.525ZM33.7,145.651c.327-1.314,3-2.9,4.449-3.507.8,1.275,2.137,3.88,1.639,5.462a3.2,3.2,0,0,1-3.393,2.219l.965-3.066-1.189-.374-.965,3.066A2.973,2.973,0,0,1,33.7,145.651Zm-14.223-.758a6.1,6.1,0,0,1-1.043-4.175,4.262,4.262,0,0,0,2.218-3.994,25.957,25.957,0,0,1,5.508-4.15c1.151,1.375,5.081,6.385,4.423,9.949a6.163,6.163,0,0,1-6.536,5.01l.516-2.795,4.047-2.786-.707-1.027-3.02,2.079.82-4.441-1.226-.226-.818,4.432-2.038-2.96-1.027.707,2.745,3.987-.518,2.805a6.1,6.1,0,0,1-3.343-2.416Z" transform="translate(0 -120.143)"/>
      <path id="Trazado_898944" data-name="Trazado 898944" d="M377.181,14.163l1.936-2.726a5.62,5.62,0,0,0,7.313-1.662c2.184-3.355.222-9.1.056-9.773a17.031,17.031,0,0,0-4.233.557l.3,1.211a19.621,19.621,0,0,1,3.008-.5c.369,1.417,1.317,5.722-.145,7.78a4.365,4.365,0,0,1-4.195,1.8,4.311,4.311,0,0,1-1.374-.44l1.07-1.507,3.513-.6L384.22,7.08l-2.284.387,1.706-2.4-1.017-.722-1.7,2.4-.378-2.231-1.229.208.586,3.461-1.075,1.514a4.38,4.38,0,0,1-.554-5.711,5.588,5.588,0,0,1,3.088-1.875L380.977.919a6.714,6.714,0,0,0-3.73,2.354,5.625,5.625,0,0,0,.854,7.441l-1.936,2.726Z" transform="translate(-344.897 0)"/>
      <path id="Trazado_898945" data-name="Trazado 898945" d="M86.491,10.03a4.247,4.247,0,1,1,4.263,4.231H76v1.247H90.754a5.478,5.478,0,1,0-5.51-5.478v1.71h1.247Z" transform="translate(-69.683 -4.173)"/>
      <path id="Trazado_898946" data-name="Trazado 898946" d="M0,121.355H5.07V122.6H0Z" transform="translate(0 -111.268)"/>
      <path id="Trazado_898947" data-name="Trazado 898947" d="M0,76.026H14.338v1.247H0Z" transform="translate(0 -69.707)"/>
      <path id="Trazado_898948" data-name="Trazado 898948" d="M9.535,183.513a1.213,1.213,0,1,1-2.425.021H5.863a2.46,2.46,0,1,0,2.459-2.481H0V182.3H8.322a1.214,1.214,0,0,1,1.213,1.212Z" transform="translate(0 -166.005)"/>
      <path id="Trazado_898949" data-name="Trazado 898949" d="M14.436,273.754a1.213,1.213,0,1,1-2.425.021H10.764a2.46,2.46,0,1,0,2.459-2.481H0v1.247H13.224A1.214,1.214,0,0,1,14.436,273.754Z" transform="translate(0 -248.745)"/>
      <path id="Trazado_898950" data-name="Trazado 898950" d="M0,301.034H9.393v1.247H0Z" transform="translate(0 -276.012)"/>
    </g>
  </g>
</svg>
