<svg xmlns="http://www.w3.org/2000/svg" xmlns:xlink="http://www.w3.org/1999/xlink" width="117.828" height="117.827" viewBox="0 0 117.828 117.827">
  <defs>
    <filter id="Trazado_895688" x="0" y="0" width="117.828" height="117.827" filterUnits="userSpaceOnUse">
      <feOffset dy="3" input="SourceAlpha"/>
      <feGaussianBlur stdDeviation="3" result="blur"/>
      <feFlood flood-opacity="0.161"/>
      <feComposite operator="in" in2="blur"/>
      <feComposite in="SourceGraphic"/>
    </filter>
  </defs>
  <g id="Grupo_1105901" data-name="Grupo 1105901" transform="translate(9 6)">
    <g id="Grupo_1105899" data-name="Grupo 1105899" transform="translate(0 0)">
      <g id="Grupo_1105886" data-name="Grupo 1105886" transform="translate(0 0)">
        <g id="Grupo_1105885" data-name="Grupo 1105885" transform="translate(0 0)">
          <g transform="matrix(1, 0, 0, 1, -9, -6)" filter="url(#Trazado_895688)">
            <g id="Trazado_895688-2" data-name="Trazado 895688" transform="translate(9 6)" fill="#ecdb9f">
              <path d="M 49.91389846801758 97.32713317871094 L 49.91366958618164 97.32713317871094 C 43.51176071166992 97.32713317871094 37.30268478393555 96.07386779785156 31.45889854431152 93.60216522216797 C 25.81320762634277 91.21424102783203 20.74234580993652 87.79521179199219 16.38714599609375 83.44001007080078 C 12.03194522857666 79.08482360839844 8.612899780273438 74.01396179199219 6.224976539611816 68.3682861328125 C 3.753268718719482 62.52451705932617 2.500007152557373 56.31545639038086 2.500007152557373 49.9135627746582 C 2.500007152557373 43.51166915893555 3.753268718719482 37.30259323120117 6.224976539611816 31.45882415771484 C 8.612899780273438 25.81316184997559 12.03194522857666 20.74230194091797 16.38714599609375 16.38711738586426 C 20.74234580993652 12.03193187713623 25.81320762634277 8.612885475158691 31.45889854431152 6.224977970123291 C 37.30268478393555 3.753270387649536 43.51176071166992 2.500008821487427 49.91366958618164 2.500008821487427 C 56.3158073425293 2.500008821487427 62.52488327026367 3.753270387649536 68.36866760253906 6.224977970123291 C 74.01435852050781 8.612885475158691 79.08522033691406 12.03193187713623 83.44042205810547 16.38711738586426 C 87.79562377929688 20.74230194091797 91.21466827392578 25.81316184997559 93.60259246826172 31.45882415771484 C 96.07430267333984 37.30259323120117 97.32756042480469 43.51166915893555 97.32756042480469 49.9135627746582 C 97.32756042480469 56.31545639038086 96.07430267333984 62.52451705932617 93.60259246826172 68.3682861328125 C 91.21466827392578 74.01396179199219 87.79562377929688 79.08482360839844 83.44042205810547 83.44001007080078 C 79.08522033691406 87.79521179199219 74.01435852050781 91.21424102783203 68.36866760253906 93.60216522216797 C 62.52488327026367 96.07386779785156 56.3158073425293 97.32713317871094 49.91389846801758 97.32713317871094 Z" stroke="none"/>
              <path d="M 49.91366577148438 5 C 43.84815979003906 5 37.96672058105469 6.186820983886719 32.43277740478516 8.527473449707031 C 27.08506774902344 10.78936004638672 22.28130340576172 14.02847290039062 18.1549072265625 18.15486907958984 C 14.02848815917969 22.28127288818359 10.78936004638672 27.08503723144531 8.527488708496094 32.43270874023438 C 6.186813354492188 37.96665191650391 4.999992370605469 43.84807205200195 4.999992370605469 49.9135627746582 C 4.999992370605469 55.97905349731445 6.186813354492188 61.86045455932617 8.527488708496094 67.39439392089844 C 10.78936004638672 72.74208831787109 14.02848815917969 77.54583740234375 18.1549072265625 81.67223358154297 C 22.28130340576172 85.79863739013672 27.0850830078125 89.03776550292969 32.43277740478516 91.29965209960938 C 37.96673965454102 93.64030456542969 43.84815979003906 94.82712554931641 49.91390228271484 94.82712554931641 C 55.97941207885742 94.82712554931641 61.86083221435547 93.64030456542969 67.39479064941406 91.29965209960938 C 72.74248504638672 89.03776550292969 77.54624938964844 85.79863739013672 81.67265319824219 81.67223358154297 C 85.79906463623047 77.54583740234375 89.03819274902344 72.74208831787109 91.30006408691406 67.39439392089844 C 93.64073944091797 61.86045455932617 94.82756042480469 55.97905349731445 94.82756042480469 49.9135627746582 C 94.82756042480469 43.84807205200195 93.64073944091797 37.96665191650391 91.30006408691406 32.43270874023438 C 89.03819274902344 27.08503723144531 85.79906463623047 22.28127288818359 81.67265319824219 18.15486907958984 C 77.54624938964844 14.02847290039062 72.74248504638672 10.78936004638672 67.39479064941406 8.527473449707031 C 61.86083221435547 6.186820983886719 55.97941207885742 5 49.91390228271484 5 L 49.91366577148438 5 M 49.91366577148438 0 L 49.91390228271484 0 C 77.48045349121094 0 99.82756042480469 22.34705352783203 99.82756042480469 49.9135627746582 C 99.82756042480469 77.48005676269531 77.48045349121094 99.82712554931641 49.91390228271484 99.82712554931641 L 49.91366577148438 99.82712554931641 C 22.34710693359375 99.82712554931641 -7.62939453125e-06 77.48005676269531 -7.62939453125e-06 49.9135627746582 C -7.62939453125e-06 22.34705352783203 22.34710693359375 0 49.91366577148438 0 Z" stroke="none" fill="#f3d02c"/>
            </g>
          </g>
        </g>
      </g>
    </g>
    <g id="_17-seed" data-name="17-seed" transform="translate(22.077 22.077)">
      <path id="Trazado_896488" data-name="Trazado 896488" d="M1,37H54.935V59.618H1Z" transform="translate(-0.13 -4.813)" fill="#94572e"/>
      <path id="Trazado_896489" data-name="Trazado 896489" d="M1,37H54.935v8.7H1Z" transform="translate(-0.13 -4.813)" fill="#b56d3c"/>
      <path id="Trazado_896490" data-name="Trazado 896490" d="M35.666,55.536a5.171,5.171,0,0,1-3.227,1.122S22,56.658,22,46.219A5.219,5.219,0,0,1,27.219,41a5.167,5.167,0,0,1,1.731.3h.009v6.664a1.74,1.74,0,1,0,3.48,0v-1.74a5.219,5.219,0,0,1,3.227,9.317Z" transform="translate(-2.862 -5.334)" fill="#fad17f"/>
      <path id="Trazado_896491" data-name="Trazado 896491" d="M34.87,47.574a1.706,1.706,0,0,0,.9-.261A5.2,5.2,0,0,0,34,47v.331A1.709,1.709,0,0,0,34.87,47.574Z" transform="translate(-4.423 -6.114)" fill="#cc9f56"/>
      <path id="Trazado_896492" data-name="Trazado 896492" d="M35.049,53.833s-10.439,0-10.439-10.439a5.193,5.193,0,0,1,.318-1.777A5.219,5.219,0,0,0,22,46.3c0,10.439,10.439,10.439,10.439,10.439a5.235,5.235,0,0,0,4.912-3.457,5.165,5.165,0,0,1-2.3.552Z" transform="translate(-2.862 -5.414)" fill="#cc9f56"/>
      <path id="Trazado_896493" data-name="Trazado 896493" d="M16.959,19v1.74a3.48,3.48,0,0,1-3.48,3.48H10V22.48A3.48,3.48,0,0,1,13.48,19Z" transform="translate(-1.301 -2.472)" fill="#a7e340"/>
      <path id="Trazado_896494" data-name="Trazado 896494" d="M8.959,22.48v1.74H5.48A3.48,3.48,0,0,1,2,20.74V19H5.48A3.48,3.48,0,0,1,8.959,22.48Z" transform="translate(-0.26 -2.472)" fill="#a7e340"/>
      <path id="Trazado_896495" data-name="Trazado 896495" d="M13.48,19A3.48,3.48,0,0,0,10,22.48v1.74a3.48,3.48,0,0,1,3.48-3.48h3.48V19Z" transform="translate(-1.301 -2.472)" fill="#cdf55f"/>
      <path id="Trazado_896496" data-name="Trazado 896496" d="M5.48,19H2v1.74H5.48a3.48,3.48,0,0,1,3.48,3.48V22.48A3.48,3.48,0,0,0,5.48,19Z" transform="translate(-0.26 -2.472)" fill="#cdf55f"/>
      <path id="Trazado_896497" data-name="Trazado 896497" d="M60.959,19v1.74a3.48,3.48,0,0,1-3.48,3.48H54V22.48A3.48,3.48,0,0,1,57.48,19Z" transform="translate(-7.025 -2.472)" fill="#a7e340"/>
      <path id="Trazado_896498" data-name="Trazado 896498" d="M52.959,22.48v1.74H49.48A3.48,3.48,0,0,1,46,20.74V19h3.48A3.48,3.48,0,0,1,52.959,22.48Z" transform="translate(-5.984 -2.472)" fill="#a7e340"/>
      <path id="Trazado_896499" data-name="Trazado 896499" d="M57.48,19A3.48,3.48,0,0,0,54,22.48v1.74a3.48,3.48,0,0,1,3.48-3.48h3.48V19Z" transform="translate(-7.025 -2.472)" fill="#cdf55f"/>
      <path id="Trazado_896500" data-name="Trazado 896500" d="M49.48,19H46v1.74h3.48a3.48,3.48,0,0,1,3.48,3.48V22.48A3.48,3.48,0,0,0,49.48,19Z" transform="translate(-5.984 -2.472)" fill="#cdf55f"/>
      <ellipse id="Elipse_11678" data-name="Elipse 11678" cx="3.563" cy="3.563" rx="3.563" ry="3.563" transform="translate(24.229 7.839)" fill="#ffda45"/>
      <path id="Trazado_896501" data-name="Trazado 896501" d="M31.48,10.733a3.47,3.47,0,0,1,3.357,2.61,3.48,3.48,0,1,0-6.714,0A3.47,3.47,0,0,1,31.48,10.733Z" transform="translate(-3.642 -1.164)" fill="#fff04a"/>
      <path id="Trazado_896502" data-name="Trazado 896502" d="M32.179,21.173a2.5,2.5,0,0,1-3.48,0,4.9,4.9,0,0,1-1.383-2.218c-1.618.818-3.288.835-4.263-.13s-.948-2.645-.13-4.263C21.192,14,20,12.813,20,11.439s1.192-2.558,2.923-3.123c-.818-1.618-.835-3.288.13-4.263s2.645-.948,4.263-.13C27.881,2.192,29.064,1,30.439,1S33,2.192,33.562,3.923c1.618-.818,3.288-.835,4.263.13s.948,2.645.13,4.263c1.731.565,2.923,1.749,2.923,3.123S39.686,14,37.955,14.562c.818,1.618.835,3.288-.13,4.263s-2.645.948-4.263.13a4.9,4.9,0,0,1-1.383,2.218Zm1.74-9.734a3.48,3.48,0,1,0-3.48,3.48A3.48,3.48,0,0,0,33.919,11.439Z" transform="translate(-2.602 -0.13)" fill="#ffa1c8"/>
      <path id="Trazado_896503" data-name="Trazado 896503" d="M40.959,27v1.74a3.48,3.48,0,0,1-3.48,3.48H34V30.48A3.48,3.48,0,0,1,37.48,27Z" transform="translate(-4.423 -3.512)" fill="#a7e340"/>
      <path id="Trazado_896504" data-name="Trazado 896504" d="M33.48,31.854V45.772a1.74,1.74,0,0,1-3.48,0V24.19a2.5,2.5,0,0,0,3.48,0Z" transform="translate(-3.903 -3.147)" fill="#738c28"/>
      <path id="Trazado_896505" data-name="Trazado 896505" d="M28.959,30.48v1.74H25.48A3.48,3.48,0,0,1,22,28.74V27h3.48A3.48,3.48,0,0,1,28.959,30.48Z" transform="translate(-2.862 -3.512)" fill="#a7e340"/>
      <path id="Trazado_896506" data-name="Trazado 896506" d="M37.48,27A3.48,3.48,0,0,0,34,30.48v1.74h.123a3.47,3.47,0,0,1,3.357-2.61h3.357a3.46,3.46,0,0,0,.123-.87V27Z" transform="translate(-4.423 -3.512)" fill="#cdf55f"/>
      <path id="Trazado_896507" data-name="Trazado 896507" d="M25.48,27H22v1.74a3.459,3.459,0,0,0,.123.87H25.48a3.47,3.47,0,0,1,3.357,2.61h.123V30.48A3.48,3.48,0,0,0,25.48,27Z" transform="translate(-2.862 -3.512)" fill="#cdf55f"/>
      <path id="Trazado_896508" data-name="Trazado 896508" d="M54.8,31.317H47.845v-8.7h2.61a4.355,4.355,0,0,0,4.35-4.35v-1.74a.87.87,0,0,0-.87-.87h-3.48a4.334,4.334,0,0,0-3.48,1.767,4.334,4.334,0,0,0-3.48-1.767h-3.48a.87.87,0,0,0-.87.87v1.74a4.355,4.355,0,0,0,4.35,4.35h2.61v8.7H30.447v-1.74h2.61a4.355,4.355,0,0,0,4.35-4.35v-1.74a.87.87,0,0,0-.87-.87h-3.48a4.3,4.3,0,0,0-2.61.893v-2.1a5.5,5.5,0,0,0,.989-1.44,4.142,4.142,0,0,0,4.405-.665,4.145,4.145,0,0,0,.659-4.4,4.135,4.135,0,0,0,2.645-3.6A4.135,4.135,0,0,0,36.5,7.71a4.148,4.148,0,0,0-.665-4.4,4.141,4.141,0,0,0-4.4-.659A4.136,4.136,0,0,0,27.837,0a4.136,4.136,0,0,0-3.6,2.645,4.147,4.147,0,0,0-4.4.665,4.145,4.145,0,0,0-.659,4.4,4.135,4.135,0,0,0-2.645,3.6,4.135,4.135,0,0,0,2.645,3.6,4.148,4.148,0,0,0,.665,4.405,4.145,4.145,0,0,0,4.4.659,5.5,5.5,0,0,0,.989,1.44v2.1a4.3,4.3,0,0,0-2.61-.893h-3.48a.87.87,0,0,0-.87.87v1.74a4.355,4.355,0,0,0,4.35,4.35h2.61v1.74H9.569v-8.7h2.61a4.355,4.355,0,0,0,4.35-4.35v-1.74a.87.87,0,0,0-.87-.87h-3.48A4.334,4.334,0,0,0,8.7,17.425a4.334,4.334,0,0,0-3.48-1.767H1.74a.87.87,0,0,0-.87.87v1.74a4.355,4.355,0,0,0,4.35,4.35h2.61v8.7H.87a.87.87,0,0,0-.87.87V54.8a.87.87,0,0,0,.87.87H54.8a.87.87,0,0,0,.87-.87V32.187A.87.87,0,0,0,54.8,31.317ZM50.455,17.4h2.61v.87a2.61,2.61,0,0,1-2.61,2.61h-2.61v-.87A2.61,2.61,0,0,1,50.455,17.4Zm-9.569.87V17.4H43.5a2.61,2.61,0,0,1,2.61,2.61v.87H43.5a2.61,2.61,0,0,1-2.61-2.61ZM12.179,17.4h2.61v.87a2.61,2.61,0,0,1-2.61,2.61H9.569v-.87a2.61,2.61,0,0,1,2.61-2.61Zm-9.569.87V17.4h2.61a2.61,2.61,0,0,1,2.61,2.61v.87H5.219A2.61,2.61,0,0,1,2.61,18.268ZM32.822,48.99l-1.5-1.5v-2.25h-1.74v1.74h-1.74v1.74h2.25L31.4,50.036a4.282,4.282,0,0,1-1.827.418c-.391,0-9.569-.109-9.569-9.569a4.308,4.308,0,0,1,5.219-4.252v5.992a2.61,2.61,0,1,0,5.219,0v-.783a4.357,4.357,0,0,1,3.48,4.263A4.3,4.3,0,0,1,32.822,48.99ZM26.967,26.967V22.484a2.892,2.892,0,0,0,1.74,0V42.626a.85.85,0,0,1-.267.62.834.834,0,0,1-.6.25.87.87,0,0,1-.87-.87Zm6.089-2.61h2.61v.87a2.61,2.61,0,0,1-2.61,2.61h-2.61v-.87A2.61,2.61,0,0,1,33.057,24.357Zm-8.008-6.336a.87.87,0,0,0-.726.027c-1.323.668-2.6.678-3.252.034s-.641-1.936.028-3.259a.87.87,0,0,0-.506-1.218c-1.411-.463-2.324-1.364-2.324-2.3s.913-1.835,2.324-2.3A.87.87,0,0,0,21.1,7.8c-.669-1.322-.679-2.6-.034-3.253S23,3.9,24.322,4.571a.87.87,0,0,0,1.218-.506C26,2.651,26.9,1.74,27.837,1.74s1.835.912,2.3,2.323a.87.87,0,0,0,1.218.506c1.322-.669,2.6-.678,3.252-.034s.641,1.936-.028,3.259a.87.87,0,0,0,.506,1.218c1.412.463,2.324,1.364,2.324,2.3s-.913,1.835-2.324,2.3a.87.87,0,0,0-.506,1.218c.669,1.322.679,2.6.034,3.253s-1.935.64-3.258-.028a.87.87,0,0,0-1.218.506,4.04,4.04,0,0,1-1.121,1.827l-.01.009a1.639,1.639,0,0,1-2.34-.009,4.04,4.04,0,0,1-1.121-1.827A.865.865,0,0,0,25.048,18.022Zm-5.04,7.205v-.87h2.61a2.61,2.61,0,0,1,2.61,2.61v.87h-2.61A2.61,2.61,0,0,1,20.008,25.227ZM53.935,53.934H1.74V33.057H25.227v1.813a6.166,6.166,0,0,0-.87-.073,6.1,6.1,0,0,0-6.089,6.089,12.864,12.864,0,0,0,.7,4.35H17.758l-2.1-2.1v-2.25h-1.74v2.25L11.564,45.49l1.23,1.23,1.995-1.995,1.38,1.38-2.61,2.61h-1.02L11.054,47.23l-1.23,1.23,1.125,1.125L9.824,50.71l1.23,1.23,1.485-1.485h1.38a.87.87,0,0,0,.615-.255l3.225-3.225h2.021c3.059,5.137,9.711,5.219,9.8,5.219A6.089,6.089,0,0,0,35.6,46.975h2.318L41.141,50.2a.87.87,0,0,0,.615.255h1.38L44.62,51.94l1.23-1.23-1.125-1.125L45.85,48.46l-1.23-1.23-1.485,1.485h-1.02l-2.61-2.61,1.38-1.38,1.995,1.995,1.23-1.23-2.355-2.355v-2.25h-1.74v2.25l-2.1,2.1H35.6a6.089,6.089,0,0,0-5.15-5.15V33.057H53.935Z" transform="translate(0 0)"/>
      <path id="Trazado_896509" data-name="Trazado 896509" d="M35.7,12.35a4.35,4.35,0,1,0-4.35,4.35A4.35,4.35,0,0,0,35.7,12.35Zm-6.959,0a2.61,2.61,0,1,1,2.61,2.61A2.61,2.61,0,0,1,28.74,12.35Z" transform="translate(-3.512 -1.041)"/>
      <path id="Trazado_896510" data-name="Trazado 896510" d="M41,40h1.74v1.74H41Z" transform="translate(-5.334 -5.204)"/>
      <path id="Trazado_896511" data-name="Trazado 896511" d="M50,40h1.74v1.74H50Z" transform="translate(-6.504 -5.204)"/>
      <path id="Trazado_896512" data-name="Trazado 896512" d="M57,46h1.74v1.74H57Z" transform="translate(-7.415 -5.984)"/>
      <path id="Trazado_896513" data-name="Trazado 896513" d="M57,54h1.74v1.74H57Z" transform="translate(-7.415 -7.025)"/>
      <path id="Trazado_896514" data-name="Trazado 896514" d="M12,40h1.74v1.74H12Z" transform="translate(-1.561 -5.204)"/>
      <path id="Trazado_896515" data-name="Trazado 896515" d="M5,46H6.74v1.74H5Z" transform="translate(-0.65 -5.984)"/>
      <path id="Trazado_896516" data-name="Trazado 896516" d="M5,54H6.74v1.74H5Z" transform="translate(-0.65 -7.025)"/>
    </g>
  </g>
</svg>
