<svg xmlns="http://www.w3.org/2000/svg" xmlns:xlink="http://www.w3.org/1999/xlink" width="117.831" height="117.828" viewBox="0 0 117.831 117.828">
  <defs>
    <filter id="Trazado_895308" x="0" y="0" width="117.831" height="117.828" filterUnits="userSpaceOnUse">
      <feOffset dy="3" input="SourceAlpha"/>
      <feGaussianBlur stdDeviation="3" result="blur"/>
      <feFlood flood-opacity="0.161"/>
      <feComposite operator="in" in2="blur"/>
      <feComposite in="SourceGraphic"/>
    </filter>
  </defs>
  <g id="Grupo_1105905" data-name="Grupo 1105905" transform="translate(9 6)">
    <g id="Grupo_1105900" data-name="Grupo 1105900" transform="translate(0 0)">
      <g transform="matrix(1, 0, 0, 1, -9, -6)" filter="url(#Trazado_895308)">
        <g id="Trazado_895308-2" data-name="Trazado 895308" transform="translate(9 6)" fill="#ecdb9f">
          <path d="M 49.91568374633789 97.32769012451172 L 49.91543960571289 97.32769012451172 C 43.51328659057617 97.32769012451172 37.30396270751953 96.07441711425781 31.45994567871094 93.60269165039062 C 25.81405448913574 91.21475219726562 20.74299240112305 87.79569244384766 16.38763809204102 83.44046020507812 C 12.0322847366333 79.08524322509766 8.613115310668945 74.01436614990234 6.225115299224854 68.36865997314453 C 3.753315448760986 62.52486038208008 2.50000786781311 56.31576919555664 2.50000786781311 49.91384506225586 C 2.50000786781311 43.51192092895508 3.753315448760986 37.30282974243164 6.225115299224854 31.45903015136719 C 8.613115310668945 25.81332206726074 12.0322847366333 20.74242973327637 16.38763809204102 16.38721466064453 C 20.74299240112305 12.03199863433838 25.81405448913574 8.612936973571777 31.45994567871094 6.224998950958252 C 37.30396270751953 3.753275871276855 43.51328659057617 2.499998807907104 49.91543960571289 2.499998807907104 C 56.31783676147461 2.499998807907104 62.52716064453125 3.753275871276855 68.37117767333984 6.224998950958252 C 74.01706695556641 8.612936973571777 79.08812713623047 12.03199863433838 83.44349670410156 16.38721466064453 C 87.79885101318359 20.74242973327637 91.21802520751953 25.81332206726074 93.60602569580078 31.45903015136719 C 96.07781982421875 37.30282974243164 97.33113098144531 43.51192092895508 97.33113098144531 49.91384506225586 C 97.33113098144531 56.31576919555664 96.07781982421875 62.52486038208008 93.60602569580078 68.36865997314453 C 91.21802520751953 74.01436614990234 87.79885101318359 79.08524322509766 83.44349670410156 83.44046020507812 C 79.08812713623047 87.79569244384766 74.01706695556641 91.21475219726562 68.37117767333984 93.60269165039062 C 62.52716064453125 96.07441711425781 56.31783676147461 97.32769012451172 49.91568374633789 97.32769012451172 Z" stroke="none"/>
          <path d="M 49.91543579101562 4.999992370605469 C 43.84967041015625 4.999992370605469 37.96799850463867 6.18682861328125 32.43379974365234 8.527519226074219 C 27.08590698242188 10.78940582275391 22.28194427490234 14.02857208251953 18.15538024902344 18.15500640869141 C 14.02881622314453 22.28144836425781 10.78955841064453 27.08522796630859 8.527595520019531 32.43293762207031 C 6.186851501464844 37.96689987182617 5 43.84833526611328 5 49.91384506225586 C 5 55.97935485839844 6.186851501464844 61.86077117919922 8.527595520019531 67.39473724365234 C 10.78955841064453 72.74244689941406 14.02881622314453 77.54622650146484 18.15538024902344 81.67266082763672 C 22.28194427490234 85.79910278320312 27.08590698242188 89.03826141357422 32.43379974365234 91.30015563964844 C 37.96799850463867 93.64084625244141 43.84967041015625 94.82768249511719 49.91568756103516 94.82768249511719 C 55.98145294189453 94.82768249511719 61.86312484741211 93.64084625244141 67.39732360839844 91.30015563964844 C 72.74521636962891 89.03826141357422 77.54917907714844 85.79910278320312 81.67574310302734 81.67266082763672 C 85.80230712890625 77.54622650146484 89.04156494140625 72.74244689941406 91.30352783203125 67.39473724365234 C 93.64427185058594 61.86077117919922 94.83112335205078 55.97935485839844 94.83112335205078 49.91384506225586 C 94.83112335205078 43.84833526611328 93.64427185058594 37.96689987182617 91.30352783203125 32.43293762207031 C 89.04156494140625 27.08522796630859 85.80230712890625 22.28144836425781 81.67574310302734 18.15500640869141 C 77.54917907714844 14.02857208251953 72.74521636962891 10.78940582275391 67.39732360839844 8.527519226074219 C 61.86312484741211 6.18682861328125 55.98145294189453 4.999992370605469 49.91568756103516 4.999992370605469 L 49.91543579101562 4.999992370605469 M 49.91543579101562 -7.62939453125e-06 L 49.91568756103516 -7.62939453125e-06 C 77.48321533203125 -7.62939453125e-06 99.83112335205078 22.34719085693359 99.83112335205078 49.91384506225586 C 99.83112335205078 77.48048400878906 77.48321533203125 99.82768249511719 49.91568756103516 99.82768249511719 L 49.91543579101562 99.82768249511719 C 22.34790802001953 99.82768249511719 0 77.48048400878906 0 49.91384506225586 C 0 22.34719085693359 22.34790802001953 -7.62939453125e-06 49.91543579101562 -7.62939453125e-06 Z" stroke="none" fill="#f3d02c"/>
        </g>
      </g>
    </g>
    <g id="growth_525894" transform="translate(22.17 19.861)">
      <g id="Grupo_1105902" data-name="Grupo 1105902" transform="translate(12.422 31.485)">
        <path id="Trazado_896517" data-name="Trazado 896517" d="M221.668,289.166a7.532,7.532,0,0,0-3.645,7.056,7.354,7.354,0,0,0,11.578-6.685A7.533,7.533,0,0,0,221.668,289.166Z" transform="translate(-206.38 -288.18)" fill="#a3ed5c"/>
        <path id="Trazado_896518" data-name="Trazado 896518" d="M115.306,296.566a7.532,7.532,0,0,0,7.933-.371,7.354,7.354,0,0,0-11.578-6.685A7.533,7.533,0,0,0,115.306,296.566Z" transform="translate(-111.639 -288.152)" fill="#a3ed5c"/>
      </g>
      <g id="Grupo_1105903" data-name="Grupo 1105903" transform="translate(0 41.188)">
        <ellipse id="Elipse_11679" data-name="Elipse 11679" cx="3.682" cy="2.816" rx="3.682" ry="2.816" transform="translate(6.553 5.207) rotate(-45)" fill="#fbf6a2"/>
        <ellipse id="Elipse_11680" data-name="Elipse 11680" cx="3.682" cy="2.816" rx="3.682" ry="2.816" transform="translate(3.982 0.003) rotate(45)" fill="#fbf6a2"/>
      </g>
      <g id="Grupo_1105904" data-name="Grupo 1105904" transform="translate(25.282 13.073)">
        <path id="Trazado_896519" data-name="Trazado 896519" d="M232.609,131.273a11.031,11.031,0,0,0,11.124,2.78,11.141,11.141,0,0,0-13.9-13.9A11.032,11.032,0,0,0,232.609,131.273Z" transform="translate(-229.333 -119.65)" fill="#59aa33"/>
        <path id="Trazado_896520" data-name="Trazado 896520" d="M380.067,120.148a11.141,11.141,0,0,0-13.9,13.9,11.141,11.141,0,0,0,13.9-13.9Z" transform="translate(-350.771 -119.649)" fill="#59aa33"/>
      </g>
      <path id="Trazado_896521" data-name="Trazado 896521" d="M288.108,492H288.1a1.093,1.093,0,1,0,0,2.185h.013a1.093,1.093,0,1,0,0-2.185Z" transform="translate(-255.42 -438.242)"/>
      <path id="Trazado_896522" data-name="Trazado 896522" d="M250.217,151.466h-13.8V147.2l2.1-2.1a1.093,1.093,0,1,0-1.545-1.545l-.553.553V132.943l2.1-2.1a1.093,1.093,0,1,0-1.545-1.545l-.553.553v-3.374a12.7,12.7,0,0,0,2.723.294q.195,0,.4-.006a12.2,12.2,0,0,0,11.214-15.862,1.093,1.093,0,0,0-.723-.674l-.005,0a12.1,12.1,0,0,0-12.195,3.059,12.32,12.32,0,0,0-2.5,3.552,12.319,12.319,0,0,0-2.5-3.552,12.1,12.1,0,0,0-12.194-3.059l-.005,0a1.093,1.093,0,0,0-.723.674,12.118,12.118,0,0,0,3.033,12.272h0a11.925,11.925,0,0,0,8.181,3.59q.2.006.4.006a12.7,12.7,0,0,0,2.723-.294v9.192l-.165-.165a1.093,1.093,0,1,0-1.545,1.545l1.71,1.71v12.7h-2.255a1.093,1.093,0,0,0,0,2.185h18.244a1.093,1.093,0,0,0,0-2.185Zm-12.2-26.938,1.792-1.792a1.087,1.087,0,0,0,.375.067h4.6a9.514,9.514,0,0,1-5.239,1.777A10.59,10.59,0,0,1,238.019,124.528Zm9.046-3.91h-5.136l7.137-7.137A9.811,9.811,0,0,1,247.065,120.618Zm.454-8.681-3.106,3.106v-2.971A10.22,10.22,0,0,1,247.519,111.937Zm-8.15,2.9a10.2,10.2,0,0,1,2.859-2.038v4.087a1.1,1.1,0,0,0,.043.3l-5.8,5.8A9.82,9.82,0,0,1,239.369,114.833Zm-5.149,6.62a10.545,10.545,0,0,1-.052,1.53l-5.8-5.8a1.093,1.093,0,0,0,.043-.3V112.8a10.2,10.2,0,0,1,2.859,2.038A9.662,9.662,0,0,1,234.22,121.453Zm-7.992-9.382v2.971l-3.106-3.106A10.216,10.216,0,0,1,226.228,112.071Zm-4.651,1.411,7.136,7.136h-5.137a9.53,9.53,0,0,1-2.051-5.607A10.562,10.562,0,0,1,221.577,113.482Zm9.517,11.1a9.514,9.514,0,0,1-5.239-1.777h4.6a1.089,1.089,0,0,0,.375-.067l1.792,1.792A10.53,10.53,0,0,1,231.093,124.58Z" transform="translate(-195.143 -97.708)"/>
      <path id="Trazado_896523" data-name="Trazado 896523" d="M36.513,280.507h0a1.093,1.093,0,0,0-.441-.823,8.579,8.579,0,0,0-9.13-.439,8.136,8.136,0,0,0-3.12,3.133,8.137,8.137,0,0,0-3.12-3.133,8.586,8.586,0,0,0-9.073.4h0a1.093,1.093,0,0,0-.492.793,8.579,8.579,0,0,0,4.184,8.126,8.151,8.151,0,0,0,4.128,1.138,8.811,8.811,0,0,0,3.281-.657v8.591a1.092,1.092,0,0,0-1.21,1.773l1.21,1.21v.858H8.745v-3.84a3.814,3.814,0,0,0,1.319.228,5.231,5.231,0,0,0,3.629-1.6,5.39,5.39,0,0,0,1.569-3.053,3.629,3.629,0,0,0-.956-3.088c-1.524-1.523-4.278-1.249-6.14.613a5.912,5.912,0,0,0-.514.588,5.912,5.912,0,0,0-.514-.588c-1.862-1.862-4.616-2.136-6.14-.613a3.629,3.629,0,0,0-.956,3.088,5.391,5.391,0,0,0,1.569,3.053,5.231,5.231,0,0,0,3.63,1.6,3.814,3.814,0,0,0,1.32-.228v3.84H1.1a1.093,1.093,0,0,0,0,2.185H28.138a1.093,1.093,0,0,0,0-2.185H24.915v-1.311h0v-4.445l1.15-1.15a1.092,1.092,0,0,0-1.15-1.8v-3.729a8.813,8.813,0,0,0,3.28.657,8.153,8.153,0,0,0,4.128-1.138A8.586,8.586,0,0,0,36.513,280.507ZM8.763,294.082a3.244,3.244,0,0,1,.948-1.8,3.1,3.1,0,0,1,2.081-.971,1.337,1.337,0,0,1,.969.358,1.5,1.5,0,0,1,.335,1.253,3.244,3.244,0,0,1-.948,1.8h0c-.993.993-2.389,1.273-3.05.613A1.5,1.5,0,0,1,8.763,294.082Zm-2.557,1.253c-.661.661-2.057.38-3.05-.613a3.244,3.244,0,0,1-.948-1.8,1.5,1.5,0,0,1,.335-1.253,1.337,1.337,0,0,1,.97-.358,3.1,3.1,0,0,1,2.081.971,3.244,3.244,0,0,1,.948,1.8A1.5,1.5,0,0,1,6.205,295.336Zm10.209-8.663a6.3,6.3,0,0,1-3.123-5.487,6.293,6.293,0,0,1,6.319-.048,6.081,6.081,0,0,1,2.975,4.145l-4.026-2.326a1.093,1.093,0,1,0-1.093,1.892l4.021,2.323A6.093,6.093,0,0,1,16.414,286.672Zm14.817,0a6.08,6.08,0,0,1-5.078.5l4.026-2.325a1.093,1.093,0,0,0-1.093-1.893l-4.025,2.324a6.08,6.08,0,0,1,2.975-4.145,6.3,6.3,0,0,1,6.313.039A6.293,6.293,0,0,1,31.231,286.672Z" transform="translate(0.221 -247.72)"/>
      <path id="Trazado_896524" data-name="Trazado 896524" d="M1.095,23.7a1.088,1.088,0,0,0,.513-.128L38.186,4.089l-.379,1.665a1.093,1.093,0,1,0,2.131.485l.909-4A1.093,1.093,0,0,0,40.023.936l-4-.909a1.093,1.093,0,0,0-.485,2.131l1.135.258L.58,21.647A1.093,1.093,0,0,0,1.095,23.7Z" transform="translate(0.223 0.001)"/>
    </g>
  </g>
</svg>
