<svg xmlns="http://www.w3.org/2000/svg" width="757.813" height="680.316" viewBox="0 0 757.813 680.316">
  <g id="Grupo_1106722" data-name="Grupo 1106722" transform="translate(-421.094 -1310.986)">
    <g id="Grupo_1105988" data-name="Grupo 1105988" transform="translate(1844.61 1021.46)">
      <g id="Grupo_1105989" data-name="Grupo 1105989" transform="translate(-1423.517 289.526)">
        <path id="Trazado_896711" data-name="Trazado 896711" d="M757.813,2000h0Z" transform="translate(0 -1319.683)" fill="#fff"/>
        <g id="Grupo_1105921" data-name="Grupo 1105921" transform="translate(0 77.972)">
          <g id="Grupo_1105909" data-name="Grupo 1105909" transform="translate(0 367.604)">
            <path id="Trazado_896525" data-name="Trazado 896525" d="M743.55,1385.32c10.053,8,9.717,18.07-3.482,20.417s-6.25-19.833-15.609-18.944c5.039,11.6-4.07,26.19-10.015,25.389-9.158-1.235-7.656-16.471-1.656-22.184-8.857,3.2-13.872,10.793-15.808,17.71-3.332-3.3-6.872-.952-11.8.41a.977.977,0,0,0-1.194.3c-11.733-2.638-27.682-15.224-36.539-18.42,6,5.713,7.5,20.949-1.656,22.184-5.945.8-15.055-13.788-10.015-25.389-9.359-.889-2.41,21.291-15.609,18.944s-13.535-12.421-3.482-20.417c-10.632.92-15.744,12.158-16.287,20.214-4.381-20.784-16.367-16.232-16.367-16.232s9.6,10,5.759,15.71a23.393,23.393,0,0,0-14.067-14.758c2.88,5,9.566,13.476,2.847,19.427s-28.136-3.717-27.416-11.1c-6.719,1.428-4.559,7.617-4.559,7.617s-3.781-5.951-.331-11.663c-5.429.238-11.362,13.091-8.722,18.8-6-6.189.349-32.864.349-32.864s-10.255,15.489-9.295,26.2c-8.4-10.235-15.839-10.254-15.839-10.254s14.847,15.759,4.019,18.749c-10.079,2.856-11.816-20.81-9.416-30.093-4.08,1.666-13.566,13.6-13.326,20.977-16.767-17.188-40.451,13.63-38.506-23.115-5.623,3.489-14.5,17.547-8.96,23.26-17.979-17.138-29.258-13.567-29.258-13.567s19.439,6.395,13.439,15.337c-13.439-14.146-26.293-16.287-31.813-15.811,8.879,4.284,12.289,11.692,12.908,20.023-12.1-3.095-25.064-3.808-34.663,0s-18.1-16.225-6.5-22.6c-9.927.139-16.269,7.34-13.869,15.909-10.32-12.615-6.72-22.374-6.72-22.374s-9.6,9.759-4.32,21.184c-12.479-17.138-19.678-16.9-19.678-16.9s13.488,21.834,6.529,27.07-28.355-7.694-19.966-24.751c-8.249,3.19-11.371,27.708-11.371,27.708s-13.1-24.029-28.757-19.316c9.359,2.142,15.256,14.949,11.665,18.187-13.158,11.868-26.189-12.72-15.175-26.995-8.109,2.774-12.329,10.236-8.969,15-12.479-3.808-11.759-13.329-9.119-18.09-7.68,4.522-7.007,12.853-1.584,19.518-14.5-8.807-10.656-19.994-10.656-19.994s-8.879,10.711-2.4,19.518c-12.154-15.116-21.119-12.14-24.239-10.949,8.45,2.767,12.959,6.665,7.439,11.425s-14.875-.714-20.875-7.14-20.295-14.01-20.946-4.708c4.426-3.339,12.547-.053,9.427,7.326s-22.078,7.617-19.679-7.141c-9.6-1.428-7.439,4.523-6.48,10.711-14.4-17.614-28.078-12.854-28.078-12.854s18.719,5.237,13.439,14.044-38.877,1.293-35.037-10.422c-12.239,4.233-7.92,13.278-7.92,13.278s-11.039-14.282-17.519-18.328c2.628,5.834,4.665,10.262,5.132,13.465-16.474,12.095-23.688-2.633-30.126,3.752-1.936-6.917-6.951-14.515-15.808-17.71,6,5.713,7.5,20.949-1.657,22.184-5.945.8-15.054-13.788-10.015-25.389-9.359-.889-2.41,21.291-15.609,18.944s-13.536-12.421-3.482-20.417C7.1,1385.94,2.442,1391.249,0,1397.11v78.05H757.813v-78.05C755.371,1391.249,750.716,1385.94,743.55,1385.32Z" transform="translate(0 -1380.477)" fill="#a0a025"/>
            <g id="Grupo_1105907" data-name="Grupo 1105907" transform="translate(0 40.304)">
              <path id="Trazado_896526" data-name="Trazado 896526" d="M0,1490.3c7.3-4.076,14.7-4.013,20.4,0s10.822-1.287,14.809-1.517,17.657-4.033,26.2.749,55.249,1.427,62.654-.067,33.606-2.156,42.149,2.542,39.3,1.491,47.845-2.437,28.823,4.744,35.2,4.744,14.183-1.7,17.77-3.575c15.975-8.373,37.935,8.171,47.618,3.575s23.13-12.155,40.195-3.513c8.7,4.406,12.524,13.771,28.054,13.41,1.831-.042,2.143,0,9.642,0,12.981,0,21.693-8.3,26.209-10.324,9.9-4.432,11.394.145,35.939,2.32,6.867.609,33.227,1.492,38.69-2.768,11.412-8.9,13.448-1.752,22.561-1.281s8.544,3.605,17.088,0,13.67-1.4,15.948,2.155,24.492,4.943,39.3-2.155,30.757,5,46.136,2.155,15.948-7.232,26.2-2.129,21.075,6.725,32.466,2.129,16.518-6.649,26.2-2.129,38.535,2.129,38.535,2.129v26.849H0Z" transform="translate(0 -1486.846)" fill="#a67245"/>
              <path id="Trazado_896527" data-name="Trazado 896527" d="M757.813,1549.753c-7.3-3.19-14.7-3.141-20.4,0s-10.822-1.007-14.809-1.187-17.657-3.156-26.2.586-55.25,1.117-62.654-.052-33.606-1.687-42.149,1.99-39.3,1.166-47.845-1.908-28.823,3.713-35.2,3.713-14.183-1.327-17.77-2.8c-15.975-6.553-37.935,6.395-47.618,2.8s-21.62-9.108-38.686-2.345c-8.7,3.449-4.559,6.59-20.089,6.307-1.83-.033-2.143,0-9.642,0-4.119,0-6.092-2.889-19.98-7.278-10.058-3.178-17.623,3.1-42.168,4.8-6.867.476-42.7,1.167-48.164-2.167-11.412-6.964-13.448-1.37-22.561-1s-8.544,2.821-17.088,0-13.67-1.1-15.948,1.687-24.492,3.869-39.3-1.687-30.757,3.916-46.136,1.687-15.948-5.66-26.2-1.666-21.075,5.263-32.466,1.666-16.518-5.2-26.2-1.666S0,1552.894,0,1552.894v58.457H757.813Z" transform="translate(0 -1524.378)" fill="#8e5f36"/>
              <path id="Trazado_896528" data-name="Trazado 896528" d="M0,1626.817c7.3-3.19,14.7-3.141,20.4,0s10.822-1.007,14.809-1.187,17.657-3.156,26.2.586,55.249,1.117,62.654-.052,33.606-1.687,42.149,1.99,39.3,1.167,47.845-1.907,28.823,3.713,35.2,3.713,14.183-1.327,17.77-2.8c15.975-6.552,37.935,6.4,47.618,2.8s21.62-9.108,38.686-2.345c8.7,3.449,4.559,6.59,20.089,6.307,1.831-.033,2.143,0,9.642,0,4.119,0,6.091-2.889,19.98-7.278,10.058-3.179,17.623,3.095,42.168,4.8,6.867.476,42.7,1.168,48.164-2.167,11.412-6.964,13.448-1.371,22.561-1s8.544,2.821,17.088,0,13.67-1.1,15.948,1.687,24.492,3.869,39.3-1.687,30.757,3.916,46.136,1.687,15.948-5.66,26.2-1.666,21.075,5.263,32.466,1.666,16.518-5.2,26.2-1.666,38.535,1.666,38.535,1.666v105.149H0Z" transform="translate(0 -1572.242)" fill="#804d2a"/>
              <path id="Trazado_896529" data-name="Trazado 896529" d="M757.813,1746.193c-7.3-3.19-14.7-3.141-20.4,0s-10.822-1.007-14.809-1.187-17.657-3.156-26.2.586-55.25,1.117-62.654-.052-33.606-1.687-42.149,1.99-39.3,1.167-47.845-1.907-28.823,3.712-35.2,3.712-14.183-1.327-17.77-2.8c-15.975-6.553-37.935,6.4-47.618,2.8s-21.62-9.107-38.686-2.344c-8.7,3.448-4.559,6.59-20.089,6.307-1.83-.033-2.143,0-9.642,0-4.119,0-6.092-2.889-19.98-7.278-10.058-3.178-17.623,3.1-42.168,4.8-6.867.476-42.7,1.168-48.164-2.167-11.412-6.964-13.448-1.371-22.561-1s-8.544,2.821-17.088,0-13.67-1.1-15.948,1.687-24.492,3.869-39.3-1.687-30.757,3.916-46.136,1.687-15.948-5.66-26.2-1.667-21.075,5.263-32.466,1.666-16.518-5.2-26.2-1.666S0,1749.335,0,1749.335v91.488H757.813Z" transform="translate(0 -1646.385)" fill="#683c21"/>
            </g>
            <g id="Grupo_1105908" data-name="Grupo 1105908" transform="translate(17.093 52.214)">
              <path id="Trazado_896530" data-name="Trazado 896530" d="M277.358,1706.713c-2.463,1.505-4.295,3.325-1.753,4.89s8.064-.979,7.538-2.446S280.243,1704.949,277.358,1706.713Z" transform="translate(-187.51 -1634.959)" fill="#40220f"/>
              <path id="Trazado_896531" data-name="Trazado 896531" d="M292.091,1944.137c-6.075.145-9.109,2.887-3.9,5.571S297.574,1944.007,292.091,1944.137Z" transform="translate(-194.432 -1782.776)" fill="#40220f"/>
              <path id="Trazado_896532" data-name="Trazado 896532" d="M650.136,1952.53c-4.076-1.565-9.753,2.684-5.726,3.836S655.572,1954.618,650.136,1952.53Z" transform="translate(-416.476 -1787.777)" fill="#40220f"/>
              <path id="Trazado_896533" data-name="Trazado 896533" d="M657.558,1593.085c-6.951-2.669-16.632,4.577-9.764,6.542S666.827,1596.644,657.558,1593.085Z" transform="translate(-417.973 -1564.378)" fill="#40220f"/>
              <path id="Trazado_896534" data-name="Trazado 896534" d="M1477.913,1911.119c-7.395-3.672-18.217-.023-9.976,2.834S1481.359,1912.829,1477.913,1911.119Z" transform="translate(-926.982 -1761.309)" fill="#40220f"/>
              <path id="Trazado_896535" data-name="Trazado 896535" d="M1253.493,1765.839c3.7,4.5,7.842,1.894,7.184-.639S1251.4,1763.292,1253.493,1765.839Z" transform="translate(-795.427 -1670.638)" fill="#40220f"/>
              <path id="Trazado_896536" data-name="Trazado 896536" d="M1673.3,1534.141c3.7,4.5,7.842,1.894,7.184-.639S1671.209,1531.594,1673.3,1534.141Z" transform="translate(-1056.167 -1526.731)" fill="#40220f"/>
              <path id="Trazado_896537" data-name="Trazado 896537" d="M1143,1526.085c3.7,4.5,9.754,1.8,9.1-.737S1140.905,1523.537,1143,1526.085Z" transform="translate(-726.831 -1521.691)" fill="#40220f"/>
              <path id="Trazado_896538" data-name="Trazado 896538" d="M897.955,1526.581c3.7,4.5,7.842,1.894,7.184-.639S895.863,1524.034,897.955,1526.581Z" transform="translate(-574.604 -1522.036)" fill="#40220f"/>
              <path id="Trazado_896539" data-name="Trazado 896539" d="M652.649,1874.729c-2.2.9-8.292,3.6,0,5.162S658.619,1872.28,652.649,1874.729Z" transform="translate(-419.826 -1739.408)" fill="#40220f"/>
              <path id="Trazado_896540" data-name="Trazado 896540" d="M155.454,1595.309c-2.2.9-8.292,3.6,0,5.162S161.424,1592.86,155.454,1595.309Z" transform="translate(-111.021 -1565.862)" fill="#40220f"/>
              <path id="Trazado_896541" data-name="Trazado 896541" d="M59.191,1688.559c-3.9-1.16-13.414,6.327-8.209,8.293s20.893,2.533,19.592-.663S59.191,1688.559,59.191,1688.559Z" transform="translate(-47.813 -1623.964)" fill="#40220f"/>
              <path id="Trazado_896542" data-name="Trazado 896542" d="M1814.3,1691.385c-2.91-.865-7.182,5.958-3.3,7.424s15.643.311,14.673-2.073S1814.3,1691.385,1814.3,1691.385Z" transform="translate(-1140.929 -1625.747)" fill="#40220f"/>
              <path id="Trazado_896543" data-name="Trazado 896543" d="M1065.64,1874.535c-2.14-3.217-11.432,3.775-7.008,5.114S1067.357,1877.116,1065.64,1874.535Z" transform="translate(-673.87 -1739.027)" fill="#40220f"/>
              <path id="Trazado_896544" data-name="Trazado 896544" d="M391.4,1540.2c-1.2-1.8-6.4,2.113-3.923,2.863S392.366,1541.646,391.4,1540.2Z" transform="translate(-257.346 -1531.603)" fill="#40220f"/>
              <path id="Trazado_896545" data-name="Trazado 896545" d="M73.389,1530.376c-1.2-1.8-6.4,2.114-3.923,2.863S74.351,1531.822,73.389,1530.376Z" transform="translate(-59.828 -1525.501)" fill="#40220f"/>
              <path id="Trazado_896546" data-name="Trazado 896546" d="M1384.239,1850.241s-1.185,7.751,4.74,7.079,3.258-7.021,1.185-7.079S1386.609,1847.947,1384.239,1850.241Z" transform="translate(-876.775 -1723.818)" fill="#40220f"/>
              <path id="Trazado_896547" data-name="Trazado 896547" d="M929.87,1873.077c-8.627,1.663-14.526,8.535-4.259,12.356S938.5,1871.415,929.87,1873.077Z" transform="translate(-588.606 -1738.574)" fill="#40220f"/>
              <path id="Trazado_896548" data-name="Trazado 896548" d="M1765.542,1590.519c-3,.577-5.047,2.965-1.48,4.293S1768.539,1589.941,1765.542,1590.519Z" transform="translate(-1111.567 -1563.123)" fill="#40220f"/>
              <path id="Trazado_896549" data-name="Trazado 896549" d="M1331.964,1538.131c-2.832.546-4.768,2.8-1.4,4.056S1334.8,1537.585,1331.964,1538.131Z" transform="translate(-842.391 -1530.587)" fill="#40220f"/>
              <path id="Trazado_896550" data-name="Trazado 896550" d="M1405.06,1710.892c-2.9-1.241-6.372,2.5-1.9,3.829S1407.958,1712.133,1405.06,1710.892Z" transform="translate(-887.256 -1637.756)" fill="#40220f"/>
              <path id="Trazado_896551" data-name="Trazado 896551" d="M1944.675,1716.363c-2.9-1.24-6.372,2.5-1.9,3.829S1947.573,1717.6,1944.675,1716.363Z" transform="translate(-1222.408 -1641.153)" fill="#40220f"/>
              <path id="Trazado_896552" data-name="Trazado 896552" d="M1626.66,1929.629c-2.9-1.241-6.372,2.5-1.9,3.829S1629.557,1930.87,1626.66,1929.629Z" transform="translate(-1024.89 -1773.612)" fill="#40220f"/>
              <path id="Trazado_896553" data-name="Trazado 896553" d="M571.1,1570.847c-3.46-1.482-7.609,2.983-2.274,4.572S574.564,1572.329,571.1,1570.847Z" transform="translate(-368.805 -1550.745)" fill="#40220f"/>
              <path id="Trazado_896554" data-name="Trazado 896554" d="M1915.212,1593.448c-3.459-1.482-7.609,2.983-2.274,4.572S1918.671,1594.93,1915.212,1593.448Z" transform="translate(-1203.621 -1564.782)" fill="#40220f"/>
              <path id="Trazado_896555" data-name="Trazado 896555" d="M1355.741,1657.056c-3.855,1.195-6.022,5.972,0,6.675S1361.408,1655.3,1355.741,1657.056Z" transform="translate(-856.808 -1604.333)" fill="#40220f"/>
              <path id="Trazado_896556" data-name="Trazado 896556" d="M428.146,1590.618c-2.36.731-3.687,3.657,0,4.087S431.616,1589.543,428.146,1590.618Z" transform="translate(-281.587 -1563.123)" fill="#40220f"/>
              <path id="Trazado_896557" data-name="Trazado 896557" d="M1554.219,1518.938c-2.36.732-3.687,3.657,0,4.087S1557.689,1517.863,1554.219,1518.938Z" transform="translate(-980.984 -1518.603)" fill="#40220f"/>
              <path id="Trazado_896558" data-name="Trazado 896558" d="M1120.876,1705.811c-7.593-.59-10.351,2-4.707,3.162S1126.1,1706.217,1120.876,1705.811Z" transform="translate(-708.478 -1634.7)" fill="#40220f"/>
              <path id="Trazado_896559" data-name="Trazado 896559" d="M1856.5,1519.844c-7.592-.59-10.35,2-4.707,3.162S1861.728,1520.25,1856.5,1519.844Z" transform="translate(-1165.371 -1519.197)" fill="#40220f"/>
              <path id="Trazado_896560" data-name="Trazado 896560" d="M1582.056,1797.642c-9.921-.771-13.524,2.613-6.15,4.132S1588.884,1798.173,1582.056,1797.642Z" transform="translate(-993.447 -1691.72)" fill="#40220f"/>
              <path id="Trazado_896561" data-name="Trazado 896561" d="M466.118,1700.712c-3.057.99-7.4,6.807-2.114,5.265S471.139,1699.086,466.118,1700.712Z" transform="translate(-303.743 -1631.398)" fill="#40220f"/>
              <path id="Trazado_896562" data-name="Trazado 896562" d="M1755.634,1814.177c-5.017,1.625-12.145,11.173-3.47,8.642S1763.875,1811.508,1755.634,1814.177Z" transform="translate(-1102.822 -1701.749)" fill="#40220f"/>
              <path id="Trazado_896563" data-name="Trazado 896563" d="M1256.7,1854.089c-7.71-3.955-19.952,4.04-11.711,4.237S1261.467,1856.536,1256.7,1854.089Z" transform="translate(-788.642 -1726.167)" fill="#40220f"/>
              <path id="Trazado_896564" data-name="Trazado 896564" d="M1934.159,1813c-7.709-3.955-19.952,4.04-11.711,4.238S1938.93,1815.452,1934.159,1813Z" transform="translate(-1209.411 -1700.65)" fill="#40220f"/>
              <path id="Trazado_896565" data-name="Trazado 896565" d="M1364.648,1707.429c-3.912-3.735-7.39,4.332,0,5.242S1367.668,1710.311,1364.648,1707.429Z" transform="translate(-861.975 -1635.149)" fill="#40220f"/>
              <path id="Trazado_896566" data-name="Trazado 896566" d="M1933.885,1954.149c-3.912-3.735-7.391,4.332,0,5.242S1936.905,1957.031,1933.885,1954.149Z" transform="translate(-1215.525 -1788.386)" fill="#40220f"/>
              <path id="Trazado_896567" data-name="Trazado 896567" d="M1397.535,1582.044c-2.02-1.928-3.815,2.236,0,2.706S1399.093,1583.531,1397.535,1582.044Z" transform="translate(-883.703 -1557.568)" fill="#40220f"/>
              <path id="Trazado_896568" data-name="Trazado 896568" d="M1210.4,1587.007c-3.108,1.042.953,7.187,8.6,4.9,4.31-1.291,4.944-2.257,4.411-3.926C1222.884,1586.331,1212.258,1586.384,1210.4,1587.007Z" transform="translate(-768.213 -1560.716)" fill="#40220f"/>
              <path id="Trazado_896569" data-name="Trazado 896569" d="M792.258,1936.7c-3.913-3.735-7.391,4.332,0,5.242S795.277,1939.582,792.258,1936.7Z" transform="translate(-506.467 -1777.548)" fill="#40220f"/>
              <path id="Trazado_896570" data-name="Trazado 896570" d="M750.173,1711.33c-1.313.185-3.56,7.328,0,8.234S753.987,1710.794,750.173,1711.33Z" transform="translate(-481.831 -1638.168)" fill="#40220f"/>
              <path id="Trazado_896571" data-name="Trazado 896571" d="M418.8,1680.655c.089-1.313-6.493-4.969-8.123-1.7S418.537,1684.468,418.8,1680.655Z" transform="translate(-272.043 -1617.252)" fill="#40220f"/>
              <path id="Trazado_896572" data-name="Trazado 896572" d="M1542.571,1679.251c.172-2.525-12.489-9.557-15.623-3.273S1542.072,1686.583,1542.571,1679.251Z" transform="translate(-965.247 -1614.646)" fill="#40220f"/>
              <path id="Trazado_896573" data-name="Trazado 896573" d="M1168.026,1939.711c.172-2.525-12.489-9.557-15.623-3.273S1167.526,1947.043,1168.026,1939.711Z" transform="translate(-732.619 -1776.416)" fill="#40220f"/>
              <path id="Trazado_896574" data-name="Trazado 896574" d="M1784.251,1870.724c-2.511,0-6.8,14.137,0,15.587C1809.185,1891.629,1807.135,1870.683,1784.251,1870.724Z" transform="translate(-1123.006 -1737.18)" fill="#40220f"/>
              <path id="Trazado_896575" data-name="Trazado 896575" d="M690.619,1520.18c-.186-1.3-7.389-3.531-8.3,0S691.159,1523.963,690.619,1520.18Z" transform="translate(-440.838 -1518.279)" fill="#40220f"/>
              <path id="Trazado_896576" data-name="Trazado 896576" d="M135.662,1904.348c-.482-3.376-19.144-9.148-21.511,0S137.062,1914.15,135.662,1904.348Z" transform="translate(-87.895 -1755.006)" fill="#40220f"/>
              <path id="Trazado_896577" data-name="Trazado 896577" d="M994.24,1793.33c.438-1.242-4.931-6.5-7.376-3.778S992.969,1796.938,994.24,1793.33Z" transform="translate(-629.756 -1686.286)" fill="#40220f"/>
              <path id="Trazado_896578" data-name="Trazado 896578" d="M280.057,1577.043c-1.159.16-3.142,6.365,0,7.152S283.423,1576.578,280.057,1577.043Z" transform="translate(-189.984 -1554.766)" fill="#40220f"/>
              <path id="Trazado_896579" data-name="Trazado 896579" d="M396.455,1799.386c-3.714,1.223-3.47,5.9,0,8.036S402.527,1797.388,396.455,1799.386Z" transform="translate(-261.655 -1692.734)" fill="#40220f"/>
              <path id="Trazado_896580" data-name="Trazado 896580" d="M47.807,1789c-3.714,1.223-3.47,5.9,0,8.036S53.879,1787,47.807,1789Z" transform="translate(-45.112 -1686.286)" fill="#40220f"/>
              <path id="Trazado_896581" data-name="Trazado 896581" d="M1579.1,1590.569c-4.076-1.565-9.754,2.684-5.726,3.836S1584.533,1592.656,1579.1,1590.569Z" transform="translate(-993.447 -1562.965)" fill="#40220f"/>
              <path id="Trazado_896582" data-name="Trazado 896582" d="M1437,1571.08c-1.857.611-1.735,2.95,0,4.018S1440.04,1570.08,1437,1571.08Z" transform="translate(-908.77 -1551.004)" fill="#40220f"/>
              <path id="Trazado_896583" data-name="Trazado 896583" d="M1661.77,1690.829c-3.715,1.223-3.47,5.9,0,8.036S1667.843,1688.83,1661.77,1690.829Z" transform="translate(-1047.534 -1625.31)" fill="#40220f"/>
              <path id="Trazado_896584" data-name="Trazado 896584" d="M265.647,1827.355c-7.369,6.022,3.9,3.881,7.807,3.384S271.286,1822.747,265.647,1827.355Z" transform="translate(-180.567 -1709.318)" fill="#40220f"/>
              <path id="Trazado_896585" data-name="Trazado 896585" d="M1675.281,1852.662c-4.365-3.231-16.049,2.934-5.639,4.758S1680.92,1856.836,1675.281,1852.662Z" transform="translate(-1051.489 -1725.391)" fill="#40220f"/>
            </g>
          </g>
          <g id="Grupo_1105920" data-name="Grupo 1105920" transform="translate(219.468)">
            <g id="Grupo_1105917" data-name="Grupo 1105917">
              <path id="Trazado_896586" data-name="Trazado 896586" d="M1009.737,1090.139h8.9c-.229-7.114-.972-127.436-.972-127.436q.167-9.53.352-19.062c.757-39.8,1.54-80.954-.263-121.41-.026-.646-.055-1.287-.084-1.931l-.007-.167-2.69.086h-.127V879.1c-.458,21.413-1.313,43.186-2.14,64.243C1011.409,976.241,1009.737,1080.744,1009.737,1090.139Z" transform="translate(-846.61 -664.847)" fill="#595b21"/>
              <path id="Trazado_896587" data-name="Trazado 896587" d="M926.474,1057.807a1.029,1.029,0,0,1-1.316-.465c-17.174-32.552-37.421-51.533-50.819-64.094-2.7-2.534-5.038-4.723-7.094-6.776a1.029,1.029,0,0,1,1.453-1.456c2.033,2.03,4.357,4.209,7.048,6.732,13.5,12.654,33.9,31.777,51.232,64.635a1.029,1.029,0,0,1-.43,1.39C926.524,1057.784,926.5,1057.8,926.474,1057.807Z" transform="translate(-757.921 -767.068)" fill="#595b21"/>
              <path id="Trazado_896588" data-name="Trazado 896588" d="M922.377,913.365l-.026.011a1.029,1.029,0,0,1-1.337-.574c-17.487-43.8-40.719-70.715-56.093-88.525-3.1-3.589-5.774-6.69-8.111-9.577a1.029,1.029,0,1,1,1.6-1.294c2.317,2.862,4.983,5.951,8.07,9.527,15.463,17.915,38.831,44.988,56.446,89.107A1.029,1.029,0,0,1,922.377,913.365Z" transform="translate(-751.486 -660.432)" fill="#595b21"/>
              <path id="Trazado_896589" data-name="Trazado 896589" d="M1019.665,1070.8a1.029,1.029,0,0,1-1.4-1.223c13.308-47.427,34.423-77.913,48.4-98.087,2.79-4.029,5.2-7.508,7.274-10.715a1.029,1.029,0,0,1,1.728,1.118c-2.092,3.234-4.511,6.726-7.311,10.769-13.894,20.061-34.891,50.376-48.106,97.472A1.027,1.027,0,0,1,1019.665,1070.8Z" transform="translate(-851.884 -751.908)" fill="#595b21"/>
              <path id="Trazado_896590" data-name="Trazado 896590" d="M1029.606,855.3a1.029,1.029,0,0,1-1.41-1.167c10.626-48.1,30-79.724,42.816-100.65,2.56-4.178,4.77-7.787,6.661-11.1a1.028,1.028,0,1,1,1.787,1.018c-1.907,3.346-4.125,6.968-6.694,11.161-12.747,20.809-32.01,52.255-42.562,100.019A1.026,1.026,0,0,1,1029.606,855.3Z" transform="translate(-858.059 -616.231)" fill="#595b21"/>
              <g id="Grupo_1105910" data-name="Grupo 1105910" transform="translate(176.161 122.48)">
                <path id="Trazado_896591" data-name="Trazado 896591" d="M1071.441,810.169c36.685-2.351,52.529-9.825,63.08-25.47,10.445-15.487,15.822-27.1,20.855-31.406,5.494-4.7,15.291-5,15.407-16.722-4.167,8.034-19.736,4.644-43.5.116-19.714-3.756-46.383-8.9-57.3,16.524-11.945,27.828-21.139,28.25-24.43,39.562-4.1,14.1,1.92,20.74,2.216,25.369C1047.776,818.142,1053.091,811.344,1071.441,810.169Z" transform="translate(-1044.134 -733.554)" fill="#a0a025"/>
                <path id="Trazado_896592" data-name="Trazado 896592" d="M1064.531,780.164c.386-.929,1.808-.281,1.423.648a48.12,48.12,0,0,0-3.666,17.105c-.02.742-.019,1.484,0,2.226.484-.861.971-1.719,1.47-2.57,3.7-6.324,7.866-12.676,13.057-17.946-1.981-7.474-.681-15.353,2.339-22.377a49.976,49.976,0,0,1,3.051-5.934.805.805,0,0,1,1.035-.387.787.787,0,0,1,.387,1.035c-3.837,6.407-6.521,13.842-6.2,21.4a27.164,27.164,0,0,0,.678,5c.764-.725,1.548-1.428,2.356-2.1a77.109,77.109,0,0,1,15.392-9.825,42.364,42.364,0,0,1,10.217-21.584,30.857,30.857,0,0,1,4.668-4.188.782.782,0,0,1,.9,1.277c-6.079,4.391-10.263,11.193-12.63,18.217a40.949,40.949,0,0,0-1.414,5.443,110.506,110.506,0,0,1,10.937-4.379c4.3-1.471,8.664-2.745,13.062-3.889l.034-.018a1,1,0,0,1,.09-.163,30.661,30.661,0,0,1,6.03-6.629,24.233,24.233,0,0,1,7.31-3.957,33.388,33.388,0,0,1,5.021-1.248c.993-.173,1.145,1.384.158,1.555a27.729,27.729,0,0,0-7.972,2.567,22.957,22.957,0,0,0-6.235,4.8,31.87,31.87,0,0,0-2.079,2.494c6.077-1.514,12.214-2.8,18.35-4.027,6.526-1.3,13.109-2.31,19.658-3.485.5-.089.993-.179,1.488-.273.99-.189,1.14,1.368.159,1.555-6.293,1.2-12.63,2.165-18.93,3.328-6.934,1.28-13.869,2.734-20.72,4.482a35.28,35.28,0,0,0,24.262,3.6.787.787,0,0,1,.857.7.8.8,0,0,1-.7.857,37.025,37.025,0,0,1-21.382-1.975,35.452,35.452,0,0,1-5.185-2.625c-2.866.76-5.718,1.569-8.544,2.449a118.486,118.486,0,0,0-15.141,5.793,67.07,67.07,0,0,0,13.8,8.835,45.825,45.825,0,0,0,15.748,4.29,36.593,36.593,0,0,0,9.044-.4c.994-.17,1.145,1.386.159,1.555a40.252,40.252,0,0,1-16.386-.741,54.893,54.893,0,0,1-16.145-7.106,77.04,77.04,0,0,1-7.776-5.682,80.571,80.571,0,0,0-12.164,7.313,53.183,53.183,0,0,0-5.556,4.7,45.384,45.384,0,0,0,12.6,8.676,48.667,48.667,0,0,0,15.567,4.086c3.1.319,6.226.443,9.344.543a.786.786,0,0,1,.649.9.8.8,0,0,1-.9.649,82.236,82.236,0,0,1-16.679-1.753,47.016,47.016,0,0,1-14.892-6.5,45.839,45.839,0,0,1-6.8-5.5q-1.512,1.552-2.918,3.23a97.217,97.217,0,0,0-7.98,11.24q-2.1,3.4-4.019,6.919c7.726,1.844,15.909,3.478,23.742,1.36a23.2,23.2,0,0,0,5.831-2.423.8.8,0,0,1,1.089.188.789.789,0,0,1-.188,1.089c-7.258,4.323-16.014,4.228-24.077,2.763-2.406-.437-4.789-.987-7.166-1.559-2.844,5.315-5.409,10.784-7.757,16.328q-.565,1.334-1.112,2.676c-.38.932-1.8.283-1.423-.648a199.78,199.78,0,0,1,9.078-19.374,49.663,49.663,0,0,1,1.946-17.7A50.555,50.555,0,0,1,1064.531,780.164Z" transform="translate(-1048.834 -737.878)" fill="#595b21"/>
              </g>
              <g id="Grupo_1105911" data-name="Grupo 1105911" transform="translate(184.723 183.298)">
                <path id="Trazado_896593" data-name="Trazado 896593" d="M1093.761,969.205c37.212.429,53.777-5.9,65.624-20.892,11.726-14.835,18.041-26.145,23.452-30.11,5.905-4.329,15.818-3.884,16.83-15.7-4.819,7.792-20.278,3.18-43.917-3.206-19.614-5.3-46.142-12.531-59.1,12.3-14.185,27.179-23.5,26.9-27.685,38.071-5.219,13.919.354,21.083.3,25.779C1069.262,975.446,1075.147,968.99,1093.761,969.205Z" transform="translate(-1066.73 -894.063)" fill="#787d26"/>
                <path id="Trazado_896594" data-name="Trazado 896594" d="M1087.53,938.808c.461-.909,1.847-.145,1.386.763a48.72,48.72,0,0,0-5.008,16.988c-.077.747-.133,1.5-.174,2.247.554-.832,1.111-1.661,1.68-2.483,4.223-6.1,8.91-12.2,14.553-17.118-1.429-7.7.486-15.551,4.071-22.41a50.613,50.613,0,0,1,3.534-5.757.815.815,0,0,1,1.075-.312.8.8,0,0,1,.312,1.075c-4.364,6.175-7.641,13.475-7.9,21.128a27.457,27.457,0,0,0,.3,5.1c.826-.673,1.671-1.323,2.539-1.941a78.053,78.053,0,0,1,16.288-8.742,42.888,42.888,0,0,1,11.962-21.008,31.258,31.258,0,0,1,5.032-3.871.792.792,0,0,1,.813,1.358c-6.472,3.968-11.215,10.515-14.142,17.425a41.486,41.486,0,0,0-1.843,5.387,111.879,111.879,0,0,1,11.374-3.585c4.456-1.156,8.956-2.109,13.483-2.927l.036-.016a1.05,1.05,0,0,1,.1-.158,31.041,31.041,0,0,1,6.593-6.231,24.517,24.517,0,0,1,7.682-3.436,33.78,33.78,0,0,1,5.164-.876c1.016-.1,1.05,1.484.041,1.582a28.08,28.08,0,0,0-8.245,1.982,23.24,23.24,0,0,0-6.661,4.369,32.191,32.191,0,0,0-2.289,2.359c6.25-1.064,12.543-1.9,18.832-2.663,6.686-.816,13.409-1.331,20.11-2.016.508-.052,1.016-.1,1.523-.162,1.014-.115,1.046,1.468.041,1.582-6.444.729-12.915,1.22-19.363,1.913-7.1.762-14.21,1.7-21.259,2.941a35.711,35.711,0,0,0,24.217,5.491.8.8,0,0,1,.812.77.809.809,0,0,1-.77.812A37.482,37.482,0,0,1,1152,924.74a35.88,35.88,0,0,1-5.033-3.046c-2.952.548-5.892,1.148-8.812,1.82a119.961,119.961,0,0,0-15.727,4.69,67.907,67.907,0,0,0,13.257,9.973,46.388,46.388,0,0,0,15.57,5.534,37.056,37.056,0,0,0,9.161.283c1.016-.1,1.05,1.487.041,1.582a40.743,40.743,0,0,1-16.484-2,55.58,55.58,0,0,1-15.755-8.407,78.041,78.041,0,0,1-7.416-6.33,81.552,81.552,0,0,0-12.839,6.453,53.94,53.94,0,0,0-5.968,4.322,45.95,45.95,0,0,0,12.057,9.721,49.272,49.272,0,0,0,15.4,5.314c3.11.559,6.251.923,9.392,1.262a.8.8,0,0,1,.586.953.812.812,0,0,1-.953.587,83.239,83.239,0,0,1-16.7-3.043,47.591,47.591,0,0,1-14.536-7.7,46.358,46.358,0,0,1-6.443-6.07c-1.1.967-2.161,1.976-3.192,3.038a98.4,98.4,0,0,0-8.915,10.736q-2.38,3.276-4.585,6.678c7.659,2.452,15.794,4.726,23.863,3.187a23.5,23.5,0,0,0,6.072-2,.812.812,0,0,1,1.085.273.8.8,0,0,1-.273,1.085c-7.656,3.81-16.489,3.045-24.516.95-2.4-.625-4.759-1.363-7.115-2.121-3.277,5.148-6.284,10.473-9.078,15.89q-.672,1.3-1.327,2.617c-.455.912-1.84.148-1.386-.763a202.294,202.294,0,0,1,10.643-18.864,50.284,50.284,0,0,1,3.317-17.721A51.327,51.327,0,0,1,1087.53,938.808Z" transform="translate(-1069.597 -899.207)" fill="#4f511e"/>
              </g>
              <path id="Trazado_896595" data-name="Trazado 896595" d="M1023.276,1234.036a.69.69,0,0,1-.988-.758c6.841-32.319,19.644-53.641,28.116-67.75,1.692-2.818,3.153-5.251,4.4-7.488a.69.69,0,1,1,1.2.673c-1.259,2.256-2.726,4.7-4.424,7.525-8.425,14.03-21.156,35.233-27.949,67.326A.69.69,0,0,1,1023.276,1234.036Z" transform="translate(-854.396 -874.5)" fill="#595b21"/>
              <g id="Grupo_1105912" data-name="Grupo 1105912" transform="translate(177.194 265.371)">
                <path id="Trazado_896596" data-name="Trazado 896596" d="M1065.343,1162.46c24.922-1.333,35.732-6.293,43.007-16.839,7.2-10.439,10.935-18.283,14.383-21.172,3.764-3.154,10.417-3.288,10.579-11.242-2.886,5.425-13.432,3.011-29.529-.233-13.357-2.692-31.425-6.377-39.017,10.807-8.309,18.807-14.553,19.027-16.869,26.683-2.886,9.542,1.155,14.094,1.322,17.239C1049.219,1167.7,1052.876,1163.127,1065.343,1162.46Z" transform="translate(-1046.86 -1110.667)" fill="#ccc014"/>
                <path id="Trazado_896597" data-name="Trazado 896597" d="M1060.711,1142.057c.269-.628,1.229-.177.961.45a32.675,32.675,0,0,0-2.611,11.587c-.019.5-.024,1.008-.019,1.511q.5-.871,1.016-1.735a61.355,61.355,0,0,1,8.993-12.09,23.457,23.457,0,0,1,1.748-15.175,33.959,33.959,0,0,1,2.114-4.007.547.547,0,0,1,.706-.256.534.534,0,0,1,.255.706c-2.651,4.323-4.526,9.351-4.365,14.483a18.445,18.445,0,0,0,.424,3.4c.524-.487,1.061-.958,1.615-1.41a52.364,52.364,0,0,1,10.52-6.56,28.764,28.764,0,0,1,7.091-14.58,20.928,20.928,0,0,1,3.2-2.81.531.531,0,0,1,.6.873,25.022,25.022,0,0,0-8.705,12.277,27.846,27.846,0,0,0-1,3.686,74.978,74.978,0,0,1,7.456-2.895c2.932-.968,5.9-1.8,8.9-2.546l.024-.012a.674.674,0,0,1,.062-.11,20.811,20.811,0,0,1,4.141-4.457,16.444,16.444,0,0,1,4.991-2.634,22.656,22.656,0,0,1,3.418-.811c.676-.11.767.948.1,1.057a18.823,18.823,0,0,0-5.431,1.685,15.6,15.6,0,0,0-4.268,3.213,21.612,21.612,0,0,0-1.429,1.679c4.136-.985,8.312-1.815,12.487-2.6,4.44-.837,8.916-1.474,13.371-2.225.338-.057.675-.114,1.013-.175.673-.121.764.937.1,1.057-4.281.768-8.59,1.379-12.875,2.124-4.717.819-9.435,1.757-14.1,2.894a23.952,23.952,0,0,0,16.446,2.62.534.534,0,0,1,.577.48.543.543,0,0,1-.48.577,25.135,25.135,0,0,1-14.5-1.494,24.1,24.1,0,0,1-3.5-1.819c-1.952.5-3.893,1.024-5.818,1.6a80.4,80.4,0,0,0-10.321,3.824,45.559,45.559,0,0,0,9.306,6.1,31.114,31.114,0,0,0,10.661,3.025,24.854,24.854,0,0,0,6.143-.21c.677-.108.768.949.1,1.057a27.331,27.331,0,0,1-11.119-.621,37.275,37.275,0,0,1-10.91-4.94,52.249,52.249,0,0,1-5.238-3.913,54.68,54.68,0,0,0-8.311,4.877,36.228,36.228,0,0,0-3.806,3.153,30.815,30.815,0,0,0,8.493,5.98,33.042,33.042,0,0,0,10.539,2.886c2.106.238,4.223.345,6.34.435a.533.533,0,0,1,.434.612.544.544,0,0,1-.612.434,55.839,55.839,0,0,1-11.311-1.309,31.913,31.913,0,0,1-10.063-4.518,31.092,31.092,0,0,1-4.576-3.782q-1.038,1.043-2,2.173a65.868,65.868,0,0,0-5.5,7.573q-1.451,2.3-2.778,4.669c5.232,1.307,10.775,2.475,16.108,1.094a15.767,15.767,0,0,0,3.976-1.6.545.545,0,0,1,.739.135.535.535,0,0,1-.136.738c-4.958,2.883-10.9,2.756-16.365,1.7-1.63-.314-3.244-.7-4.854-1.109-1.969,3.588-3.749,7.282-5.383,11.029q-.393.9-.774,1.809c-.264.63-1.225.179-.961-.45a135.831,135.831,0,0,1,6.3-13.088,33.727,33.727,0,0,1,1.448-12A34.42,34.42,0,0,1,1060.711,1142.057Z" transform="translate(-1049.864 -1113.653)" fill="#7a762c"/>
              </g>
              <g id="Grupo_1105913" data-name="Grupo 1105913" transform="translate(11.352 189.98)">
                <path id="Trazado_896598" data-name="Trazado 896598" d="M723.791,981.665c-36.738,5.936-54.058,2.125-67.994-10.944-13.794-12.935-21.714-23.185-27.652-26.306-6.482-3.406-16.219-1.5-18.97-13.037,5.92,6.992,20.525.142,42.958-9.673,18.613-8.145,43.778-19.226,60.273,3.414,18.053,24.779,27.222,23.126,33.017,33.551,7.223,12.993,2.772,20.9,3.522,25.539C748.944,984.209,742.168,978.7,723.791,981.665Z" transform="translate(-609.175 -911.696)" fill="#ccc014"/>
                <path id="Trazado_896599" data-name="Trazado 896599" d="M748.882,953.064c-.59-.831-1.848.13-1.258.959a48.725,48.725,0,0,1,7.468,16.059c.187.727.353,1.461.5,2.2q-1.006-1.111-2.029-2.206c-5.08-5.409-10.617-10.742-16.927-14.775.273-7.823-2.783-15.307-7.345-21.56a50.623,50.623,0,0,0-4.348-5.171.815.815,0,0,0-1.109-.149.8.8,0,0,0-.149,1.109c5.23,5.46,9.551,12.2,10.939,19.725a27.422,27.422,0,0,1,.457,5.091c-.917-.543-1.848-1.061-2.8-1.544a78.047,78.047,0,0,0-17.4-6.234,42.889,42.889,0,0,0-14.942-19,31.251,31.251,0,0,0-5.549-3.083.792.792,0,0,0-.6,1.463c6.988,2.966,12.649,8.738,16.566,15.138a41.48,41.48,0,0,1,2.62,5.055,111.838,111.838,0,0,0-11.78-1.861c-4.578-.484-9.17-.759-13.768-.9l-.038-.01a1.018,1.018,0,0,0-.126-.141,31.029,31.029,0,0,0-7.443-5.186,24.525,24.525,0,0,0-8.106-2.26,33.829,33.829,0,0,0-5.236-.1c-1.019.053-.818,1.623.194,1.57a28.084,28.084,0,0,1,8.447.739,23.242,23.242,0,0,1,7.234,3.334,32.2,32.2,0,0,1,2.613,1.994c-6.339-.127-12.686-.017-19.018.155-6.734.183-13.459.67-20.187.984-.51.024-1.02.047-1.531.065-1.02.037-.817,1.607.194,1.57,6.481-.233,12.953-.705,19.433-.975,7.132-.3,14.3-.422,21.46-.24a35.713,35.713,0,0,1-23.136,9.016.8.8,0,0,0-.689.882.81.81,0,0,0,.882.689,37.485,37.485,0,0,0,20.66-6.762,35.879,35.879,0,0,0,4.526-3.758c3,.1,6,.263,8.985.495a119.978,119.978,0,0,1,16.248,2.31,67.894,67.894,0,0,1-11.634,11.826,46.4,46.4,0,0,1-14.578,7.779,37.053,37.053,0,0,1-9.018,1.636c-1.019.056-.818,1.626.194,1.571a40.75,40.75,0,0,0,16.006-4.419A55.582,55.582,0,0,0,708.1,955.491a78.048,78.048,0,0,0,6.4-7.358,81.549,81.549,0,0,1,13.653,4.481,53.931,53.931,0,0,1,6.542,3.39,45.943,45.943,0,0,1-10.484,11.4,49.266,49.266,0,0,1-14.446,7.537c-2.993,1.013-6.045,1.838-9.1,2.638a.8.8,0,0,0-.439,1.029.811.811,0,0,0,1.03.439,83.226,83.226,0,0,0,16.068-5.483,47.6,47.6,0,0,0,13.236-9.765,46.377,46.377,0,0,0,5.473-6.958c1.228.795,2.43,1.635,3.606,2.532a98.358,98.358,0,0,1,10.406,9.3q2.84,2.887,5.524,5.925c-7.211,3.559-14.92,7.013-23.128,6.685a23.485,23.485,0,0,1-6.3-1.08.812.812,0,0,0-1.033.431.8.8,0,0,0,.431,1.033c8.136,2.634,16.758.569,24.386-2.691,2.276-.973,4.5-2.052,6.722-3.151,4,4.606,7.766,9.427,11.331,14.37q.858,1.19,1.7,2.392c.585.835,1.842-.127,1.258-.959a202.173,202.173,0,0,0-13.32-17.079,50.271,50.271,0,0,0-5.9-17.035A51.327,51.327,0,0,0,748.882,953.064Z" transform="translate(-630.532 -919.593)" fill="#7a762c"/>
              </g>
              <path id="Trazado_896600" data-name="Trazado 896600" d="M954,1253.716a1.029,1.029,0,0,1-1.155-.784c-8.358-35.843-23.13-59.338-32.9-74.886-1.973-3.137-3.676-5.847-5.144-8.354a1.029,1.029,0,0,1,1.775-1.04c1.452,2.479,3.147,5.176,5.11,8.3,9.849,15.664,24.731,39.334,33.167,75.513a1.028,1.028,0,0,1-.768,1.235C954.049,1253.707,954.022,1253.712,954,1253.716Z" transform="translate(-787.552 -880.995)" fill="#595b21"/>
              <g id="Grupo_1105914" data-name="Grupo 1105914" transform="translate(72.556 280.744)">
                <path id="Trazado_896601" data-name="Trazado 896601" d="M838.657,1205.649c-25.654-2.475-36.587-8.07-43.628-19.272-6.969-11.088-10.475-19.345-13.9-22.479-3.744-3.42-10.6-3.852-10.418-12.065,2.738,5.724,13.725,3.7,30.477,1.063,13.9-2.187,32.7-5.191,39.777,12.872,7.742,19.77,14.175,20.273,16.226,28.274,2.557,9.973-1.813,14.49-2.125,17.727C855.061,1211.771,851.489,1206.888,838.657,1205.649Z" transform="translate(-770.702 -1151.238)" fill="#a0a025"/>
                <path id="Trazado_896602" data-name="Trazado 896602" d="M860.136,1184.776c-.25-.66-1.261-.238-1.011.422a33.745,33.745,0,0,1,2.183,12.069c0,.521-.02,1.041-.048,1.56-.319-.614-.641-1.226-.972-1.835a63.4,63.4,0,0,0-8.745-12.87c1.557-5.193.823-10.743-1.134-15.733a35.02,35.02,0,0,0-2-4.227.564.564,0,0,0-.716-.295.551.551,0,0,0-.295.717c2.544,4.576,4.257,9.847,3.864,15.135a19.034,19.034,0,0,1-.588,3.491c-.519-.525-1.052-1.036-1.6-1.526a54.061,54.061,0,0,0-10.564-7.232,29.7,29.7,0,0,0-6.672-15.355,21.645,21.645,0,0,0-3.176-3.041.548.548,0,0,0-.66.875,25.838,25.838,0,0,1,8.439,13.051,28.722,28.722,0,0,1,.868,3.846,77.342,77.342,0,0,0-7.564-3.315c-2.982-1.129-6.01-2.119-9.065-3.02l-.024-.013a.692.692,0,0,0-.06-.117,21.474,21.474,0,0,0-4.076-4.781,16.985,16.985,0,0,0-5.033-2.938,23.422,23.422,0,0,0-3.49-.988c-.692-.144-.833.943-.146,1.086a19.447,19.447,0,0,1,5.529,1.979,16.091,16.091,0,0,1,4.261,3.5,22.257,22.257,0,0,1,1.4,1.8c-4.224-1.2-8.5-2.24-12.768-3.236-4.543-1.06-9.134-1.915-13.7-2.886-.346-.073-.691-.148-1.037-.225-.69-.155-.83.933-.146,1.086,4.383.982,8.8,1.8,13.189,2.76,4.83,1.053,9.658,2.229,14.418,3.608a24.737,24.737,0,0,1-17.083,1.977.552.552,0,0,0-.616.47.56.56,0,0,0,.47.616,25.959,25.959,0,0,0,15.028-.9,24.859,24.859,0,0,0,3.693-1.723c1.992.6,3.971,1.229,5.932,1.909a83.022,83.022,0,0,1,10.479,4.4,47.018,47.018,0,0,1-9.871,5.879,32.13,32.13,0,0,1-11.132,2.65,25.641,25.641,0,0,1-6.328-.488c-.693-.142-.834.946-.146,1.086a28.218,28.218,0,0,0,11.5-.15,38.5,38.5,0,0,0,11.474-4.615,54.044,54.044,0,0,0,5.577-3.806,56.482,56.482,0,0,1,8.359,5.4,37.4,37.4,0,0,1,3.787,3.42,31.81,31.81,0,0,1-9.026,5.8,34.11,34.11,0,0,1-11,2.512c-2.183.153-4.373.17-6.56.169a.551.551,0,0,0-.475.613.562.562,0,0,0,.613.475,57.653,57.653,0,0,0,11.727-.852,32.956,32.956,0,0,0,10.582-4.216,32.118,32.118,0,0,0,4.888-3.7q1.025,1.122,1.971,2.33a68.114,68.114,0,0,1,5.338,8.056q1.4,2.433,2.66,4.939c-5.456,1.118-11.227,2.078-16.668.417a16.271,16.271,0,0,1-4.032-1.83.562.562,0,0,0-.768.107.553.553,0,0,0,.107.767c4.988,3.193,11.126,3.324,16.809,2.48,1.7-.252,3.378-.584,5.057-.93,1.873,3.788,3.547,7.679,5.067,11.616q.365.947.718,1.9c.245.662,1.256.239,1.011-.422a139.986,139.986,0,0,0-5.924-13.781,34.821,34.821,0,0,0-.964-12.449A35.6,35.6,0,0,0,860.136,1184.776Z" transform="translate(-783.271 -1154.158)" fill="#595b21"/>
              </g>
              <g id="Grupo_1105915" data-name="Grupo 1105915" transform="translate(0 115.052)">
                <path id="Trazado_896603" data-name="Trazado 896603" d="M696.252,794.236c-40.3,1.757-58.459-4.529-71.812-20.354-13.217-15.663-20.451-27.7-26.449-31.8-6.547-4.484-17.27-3.658-18.776-16.426,5.491,8.273,22.076,2.741,47.462-5,21.063-6.42,49.549-15.176,64.45,11.276,16.309,28.95,26.387,28.326,31.311,40.279,6.136,14.9.349,22.851.571,27.936C723.008,800.147,716.408,793.357,696.252,794.236Z" transform="translate(-579.215 -713.949)" fill="#a0a025"/>
                <path id="Trazado_896604" data-name="Trazado 896604" d="M726.624,761.5c-.531-.969-2.006-.093-1.475.874a52.8,52.8,0,0,1,6.014,18.228c.109.807.2,1.617.266,2.428-.629-.882-1.261-1.761-1.906-2.631-4.786-6.463-10.074-12.9-16.358-18.038,1.281-8.387-1.066-16.829-5.188-24.135a54.816,54.816,0,0,0-4.028-6.114.884.884,0,0,0-1.175-.3.863.863,0,0,0-.3,1.175c4.941,6.537,8.744,14.332,9.289,22.613a29.814,29.814,0,0,1-.15,5.538c-.919-.7-1.856-1.375-2.818-2.015a84.587,84.587,0,0,0-17.948-8.9,46.481,46.481,0,0,0-13.688-22.342,33.879,33.879,0,0,0-5.585-4.019.858.858,0,0,0-.833,1.5c7.148,4.074,12.514,11,15.924,18.384a45.062,45.062,0,0,1,2.184,5.772,121.106,121.106,0,0,0-12.446-3.488c-4.867-1.1-9.775-1.974-14.707-2.7-.013-.005-.026-.011-.04-.016a1.135,1.135,0,0,0-.117-.168,33.638,33.638,0,0,0-7.358-6.521,26.583,26.583,0,0,0-8.441-3.455,36.659,36.659,0,0,0-5.624-.77c-1.1-.071-1.086,1.644.01,1.715a30.424,30.424,0,0,1,9,1.861,25.184,25.184,0,0,1,7.367,4.5,34.959,34.959,0,0,1,2.562,2.476c-6.807-.936-13.654-1.618-20.492-2.231-7.272-.652-14.572-.976-21.855-1.486-.552-.039-1.1-.078-1.656-.123-1.1-.089-1.082,1.627.01,1.715,7.006.566,14.032.874,21.041,1.4,7.715.58,15.452,1.349,23.131,2.448a38.706,38.706,0,0,1-26.042,6.788.863.863,0,0,0-.852.863.877.877,0,0,0,.862.853A40.624,40.624,0,0,0,656.3,748.5a38.886,38.886,0,0,0,5.347-3.475c3.217.492,6.422,1.039,9.609,1.666a130.038,130.038,0,0,1,17.2,4.535,73.585,73.585,0,0,1-14.015,11.264,50.278,50.278,0,0,1-16.674,6.535,40.166,40.166,0,0,1-9.913.624c-1.1-.069-1.086,1.647.01,1.715a44.159,44.159,0,0,0,17.787-2.739,60.238,60.238,0,0,0,16.775-9.653,84.516,84.516,0,0,0,7.813-7.114,88.4,88.4,0,0,1,14.132,6.545,58.4,58.4,0,0,1,6.615,4.475,49.8,49.8,0,0,1-12.723,10.949,53.41,53.41,0,0,1-16.5,6.292c-3.35.714-6.739,1.217-10.13,1.693a.863.863,0,0,0-.6,1.053.88.88,0,0,0,1.053.6c6.075-.853,12.19-1.8,17.988-3.877a51.576,51.576,0,0,0,15.479-8.842,50.251,50.251,0,0,0,6.769-6.8c1.221,1.01,2.41,2.066,3.563,3.18a106.613,106.613,0,0,1,10.029,11.32q2.692,3.466,5.2,7.075c-8.211,2.922-16.945,5.668-25.739,4.28a25.468,25.468,0,0,1-6.647-1.957.88.88,0,0,0-1.166.333.865.865,0,0,0,.333,1.166c8.426,3.861,17.967,2.726,26.59.178,2.573-.76,5.108-1.641,7.633-2.544,3.729,5.463,7.171,11.127,10.385,16.9q.774,1.388,1.528,2.788c.524.972,2,.1,1.475-.874a219.247,219.247,0,0,0-12.185-20.065,54.487,54.487,0,0,0-4.208-19.081A55.534,55.534,0,0,0,726.624,761.5Z" transform="translate(-600.965 -720.031)" fill="#595b21"/>
              </g>
              <g id="Grupo_1105916" data-name="Grupo 1105916" transform="translate(63.233)">
                <path id="Trazado_896605" data-name="Trazado 896605" d="M827.846,566.058c-44.988-26.068-60.352-45.507-63.869-71.966-3.482-26.19-2.985-44.281-6.648-52.907-4-9.416-16.218-15.963-8.99-30.878.221,12.8,22.076,18.3,55.021,27.525,27.335,7.65,64.355,17.918,62.175,56.994-2.386,42.767,8.995,49.088,6.044,65.489-3.678,20.442-15.486,25.062-18.775,30.74C852.8,591.055,850.349,579.1,827.846,566.058Z" transform="translate(-746.098 -410.307)" fill="#ccc014"/>
                <path id="Trazado_896606" data-name="Trazado 896606" d="M881.843,558.678c.1-1.421-2.114-1.494-2.209-.075a68.082,68.082,0,0,1-6.123,23.974c-.441.953-.91,1.892-1.4,2.823-.07-1.394-.148-2.788-.243-4.181-.711-10.343-1.985-21.008-5.244-30.95,7.214-8.221,10.526-19.019,11.122-29.817a70.745,70.745,0,0,0-.13-9.437,1.139,1.139,0,0,0-1.067-1.142,1.112,1.112,0,0,0-1.142,1.067c.828,10.531-.453,21.637-5.61,31.01a38.383,38.383,0,0,1-4.008,5.911c-.511-1.4-1.061-2.782-1.662-4.145a109.056,109.056,0,0,0-13.312-22.133,59.922,59.922,0,0,0,.645-33.77,43.637,43.637,0,0,0-3.276-8.243,1.106,1.106,0,0,0-1.946,1.051c4.936,9.388,5.955,20.638,4.532,31.025a57.965,57.965,0,0,1-1.635,7.785,156.246,156.246,0,0,0-11.1-12.43c-4.524-4.572-9.247-8.931-14.1-13.148-.011-.015-.021-.03-.032-.045a1.469,1.469,0,0,0-.011-.263,43.362,43.362,0,0,0-3.465-12.192,34.255,34.255,0,0,0-6.769-9.613A47.235,47.235,0,0,0,808.09,467c-1.15-.844-2.321,1.032-1.18,1.87a39.224,39.224,0,0,1,8.483,8.27,32.468,32.468,0,0,1,4.877,10,45.074,45.074,0,0,1,1.063,4.468c-6.744-5.743-13.707-11.237-20.709-16.651-7.446-5.757-15.15-11.177-22.706-16.787-.573-.425-1.145-.851-1.713-1.283-1.135-.862-2.305,1.016-1.18,1.87,7.217,5.479,14.635,10.692,21.883,16.13,7.977,5.986,15.847,12.194,23.425,18.719a49.9,49.9,0,0,1-33-10.708,1.113,1.113,0,0,0-1.525.345,1.131,1.131,0,0,0,.345,1.525,52.369,52.369,0,0,0,28.327,10.956,50.075,50.075,0,0,0,8.22-.062q4.729,4.151,9.281,8.481a167.628,167.628,0,0,1,15.532,16.867,94.868,94.868,0,0,1-23.043,2.5,64.812,64.812,0,0,1-22.648-4.478,51.776,51.776,0,0,1-11.2-6.205c-1.152-.841-2.323,1.035-1.18,1.87a56.933,56.933,0,0,0,21.221,9.375,77.647,77.647,0,0,0,24.923,1.161,109.042,109.042,0,0,0,13.425-2.3,113.9,113.9,0,0,1,10.805,16.92,75.232,75.232,0,0,1,4.078,9.453,64.189,64.189,0,0,1-21.421,3.059,68.848,68.848,0,0,1-22.29-4.622c-4.134-1.551-8.165-3.357-12.178-5.194a1.112,1.112,0,0,0-1.385.726,1.134,1.134,0,0,0,.726,1.385c7.191,3.292,14.491,6.508,22.229,8.278a66.5,66.5,0,0,0,22.952,1.143A64.752,64.752,0,0,0,864.6,551.4q.938,2.917,1.662,5.928a137.486,137.486,0,0,1,3.034,19.259q.518,5.634.735,11.294c-10.947-2.527-22.34-5.609-30.929-13.222a32.818,32.818,0,0,1-5.861-6.74,1.134,1.134,0,0,0-1.5-.448,1.115,1.115,0,0,0-.448,1.5c6.471,10.044,17.623,15.435,28.758,18.655,3.322.961,6.687,1.763,10.057,2.536.258,8.522.064,17.064-.452,25.564q-.124,2.045-.277,4.089c-.106,1.42,2.1,1.492,2.21.075a282.691,282.691,0,0,0,.7-30.254,70.238,70.238,0,0,0,8.677-23.647A71.557,71.557,0,0,0,881.843,558.678Z" transform="translate(-763.781 -439.102)" fill="#7a762c"/>
              </g>
            </g>
            <g id="Grupo_1105919" data-name="Grupo 1105919" transform="translate(60.606 425.292)">
              <g id="Grupo_1105918" data-name="Grupo 1105918">
                <path id="Trazado_896607" data-name="Trazado 896607" d="M841.686,1532.727c0,13.695-2.6,20.943-7.058,24.25-8.868,6.585-18.08,12.613-36.1,9.974s-44.47.484-57.64,14.528c-2.032,2.264-2.847,4.67.859.948,6.722-6.755,28.019-14.872,56.254-11.871s41.257-12.879,41.257-12.879-5.221,31.748-30.881,40.417-50.147,19.244-48.236,42.215c.552,3.727,2.062,5.258,1.962-.1s2.809-21.608,23.644-30.2,54.273-13.635,58.771-50.889c1.662,31.926,1.863,44.155,10.447,54.439s34.4,11.443,37.442,21.836c1.564,6,3.639,4.639,2.31-.3s-8.313-9.188-22.258-15.295c-19.133-8.378-21.937-20.956-22.5-62.6,6.895,8.762,17.681,13.871,43.949,14.341,27.03.484,41.212,13.445,46.388,23.548,3.488,4.926,3.438,2.576,1.994-1.105s-13.215-20.236-33.31-24.913-42.762,1.135-54.588-15.5c-4.105-5.774-3.812-20.844-3.812-20.844Z" transform="translate(-739.165 -1532.727)" fill="#e1a56d"/>
                <path id="Trazado_896608" data-name="Trazado 896608" d="M804.137,1625.552c-5.119,5.128-25.951,16.328-31.123,17.911s-5.029,2.367,1.089,1.261,25.361-9.792,33.027-18.993C805.963,1625.6,804.137,1625.552,804.137,1625.552Z" transform="translate(-757.889 -1590.38)" fill="#e1a56d"/>
                <path id="Trazado_896609" data-name="Trazado 896609" d="M850.4,1709.895c-7.2-.771-30.447,3.61-35.465,5.63s-5.4,1.319.055-1.665,25.88-8.323,37.626-5.985C851.786,1708.706,850.4,1709.895,850.4,1709.895Z" transform="translate(-783.801 -1641.153)" fill="#e1a56d"/>
                <path id="Trazado_896610" data-name="Trazado 896610" d="M940.928,1642.687c-7.091,1.491-27.846,12.832-32,16.3s-4.728,2.921-.462-1.6,22.047-15.9,33.942-17.306C941.88,1641.127,940.928,1642.687,940.928,1642.687Z" transform="translate(-842.495 -1599.405)" fill="#e1a56d"/>
                <path id="Trazado_896611" data-name="Trazado 896611" d="M891.64,1626.136c-6.092,1.281-23.923,11.024-27.488,14.005s-4.062,2.51-.4-1.375S882.7,1625.1,892.915,1623.9C892.459,1624.8,891.64,1626.136,891.64,1626.136Z" transform="translate(-814.98 -1589.353)" fill="#e1a56d"/>
                <path id="Trazado_896612" data-name="Trazado 896612" d="M846.074,1724.273c-4.95,4.175-16.487,21.888-18.284,26.376s-2.485,4.3-1.041-1.064,10.622-21.853,19.391-27.991C846.164,1722.642,846.074,1724.273,846.074,1724.273Z" transform="translate(-793.079 -1650.031)" fill="#e1a56d"/>
                <path id="Trazado_896613" data-name="Trazado 896613" d="M911.537,1689.283c-3.65,6.259-20.956,22.38-25.558,25.224s-4.263,3.566,1.373.943,22.045-15.909,27.124-26.754C913.317,1688.87,911.537,1689.283,911.537,1689.283Z" transform="translate(-828.376 -1629.598)" fill="#e1a56d"/>
                <path id="Trazado_896614" data-name="Trazado 896614" d="M1040.28,1721.117c5.179,3.519,24.683,9.637,29.331,10.14s4.653,1.191-.719,1.247-23.119-4.186-31.123-10.749C1038.738,1721.459,1040.28,1721.117,1040.28,1721.117Z" transform="translate(-924.626 -1649.735)" fill="#e1a56d"/>
                <path id="Trazado_896615" data-name="Trazado 896615" d="M1038.348,1732.387c3.138,5.419,7.841,25.311,8.008,29.983s.854,4.727,1.3-.627-2.516-23.36-8.487-31.815C1038.8,1730.873,1038.348,1732.387,1038.348,1732.387Z" transform="translate(-924.986 -1655.207)" fill="#e1a56d"/>
                <path id="Trazado_896616" data-name="Trazado 896616" d="M1217.954,1646.745c4.53,4.323,14.614,22.1,16.083,26.542s2.144,4.3,1.068-.966-8.956-21.721-17.056-28.165C1217.964,1645.166,1217.954,1646.745,1217.954,1646.745Z" transform="translate(-1036.538 -1601.935)" fill="#e1a56d"/>
                <path id="Trazado_896617" data-name="Trazado 896617" d="M1016.946,1660.759c-2.278,6.878-2.916,30.521-2,35.853s.147,5.556-1.615-.406-2.657-27.056,2.115-38.04C1016.078,1659.151,1016.946,1660.759,1016.946,1660.759Z" transform="translate(-908.566 -1610.636)" fill="#e1a56d"/>
                <path id="Trazado_896618" data-name="Trazado 896618" d="M1142.2,1623.905c3.1,6.55,18.95,24.1,23.29,27.332s3.94,3.92-1.449.821-20.593-17.749-24.719-28.991C1140.467,1623.341,1142.2,1623.905,1142.2,1623.905Z" transform="translate(-987.702 -1588.837)" fill="#e1a56d"/>
                <path id="Trazado_896619" data-name="Trazado 896619" d="M1024.9,1610.086c2.085,6.625,14.847,25.364,18.545,29s3.229,4.237-1.483.59-17.236-19.545-19.686-30.76C1023.324,1609.323,1024.9,1610.086,1024.9,1610.086Z" transform="translate(-915.004 -1580.046)" fill="#e1a56d"/>
                <path id="Trazado_896620" data-name="Trazado 896620" d="M1062.4,1616.037c6.658,2.859,24.771,18.067,28.156,22.286s4.06,3.8.768-1.478-18.481-19.938-29.866-23.655C1061.777,1614.32,1062.4,1616.037,1062.4,1616.037Z" transform="translate(-939.341 -1582.703)" fill="#e1a56d"/>
              </g>
            </g>
          </g>
        </g>
        <g id="Grupo_1105945" data-name="Grupo 1105945" transform="translate(31.69 0)">
          <g id="Grupo_1105939" data-name="Grupo 1105939">
            <g id="Grupo_1105938" data-name="Grupo 1105938">
              <g id="Grupo_1105937" data-name="Grupo 1105937">
                <g id="Grupo_1105925" data-name="Grupo 1105925" transform="translate(51.175)">
                  <g id="Grupo_1105924" data-name="Grupo 1105924" transform="translate(0)">
                    <g id="Grupo_1105922" data-name="Grupo 1105922">
                      <path id="Trazado_896621" data-name="Trazado 896621" d="M231.066,249.468a33.007,33.007,0,0,0,11.466-23.051c.751-10.754-8.893-20.185-17.517-21.891,1.621,3.322,1.735,7.384-1.24,11.657C217.775,224.8,213.931,241.942,231.066,249.468Z" transform="translate(-218.696 -204.526)" fill="#ffd35b"/>
                    </g>
                    <g id="Grupo_1105923" data-name="Grupo 1105923" transform="translate(0.473 81.76)">
                      <path id="Trazado_896622" data-name="Trazado 896622" d="M231.453,420.3a33.009,33.009,0,0,0-11.466,23.05c-.751,10.755,8.893,20.185,17.517,21.891-1.621-3.322-1.735-7.384,1.24-11.657C244.744,444.971,248.589,427.831,231.453,420.3Z" transform="translate(-219.945 -420.305)" fill="#ffd35b"/>
                    </g>
                  </g>
                </g>
                <g id="Grupo_1105926" data-name="Grupo 1105926" transform="translate(0 51.175)">
                  <path id="Trazado_896623" data-name="Trazado 896623" d="M128.578,352.343a33.01,33.01,0,0,0-23.051-11.466c-10.755-.751-20.185,8.893-21.891,17.517,3.322-1.621,7.384-1.735,11.657,1.24C103.912,365.634,121.052,369.479,128.578,352.343Z" transform="translate(-83.636 -340.362)" fill="#ffd35b"/>
                  <path id="Trazado_896624" data-name="Trazado 896624" d="M299.414,351.956a33.008,33.008,0,0,0,23.051,11.466c10.755.751,20.186-8.893,21.891-17.517-3.322,1.621-7.384,1.735-11.657-1.24C324.08,338.665,306.94,334.821,299.414,351.956Z" transform="translate(-217.654 -339.586)" fill="#ffd35b"/>
                </g>
                <g id="Grupo_1105927" data-name="Grupo 1105927" transform="translate(29.458 5.56)">
                  <path id="Trazado_896625" data-name="Trazado 896625" d="M268.257,261.145a33.007,33.007,0,0,0,21.456-14.229c6.028-8.938,2.391-21.927-4.224-27.717-.258,3.688-2.19,7.262-6.9,9.475C269.079,233.138,257.18,246.059,268.257,261.145Z" transform="translate(-224.991 -219.199)" fill="#ffd35b"/>
                  <path id="Trazado_896626" data-name="Trazado 896626" d="M185.9,413.539a33.008,33.008,0,0,0-21.456,14.229c-6.027,8.938-2.391,21.928,4.225,27.717.258-3.687,2.189-7.262,6.9-9.475C185.078,441.546,196.977,428.624,185.9,413.539Z" transform="translate(-161.38 -339.902)" fill="#ffd35b"/>
                </g>
                <g id="Grupo_1105931" data-name="Grupo 1105931" transform="translate(5.56 29.458)">
                  <g id="Grupo_1105930" data-name="Grupo 1105930">
                    <g id="Grupo_1105928" data-name="Grupo 1105928">
                      <path id="Trazado_896627" data-name="Trazado 896627" d="M140.255,306.79a33.008,33.008,0,0,0-14.229-21.456c-8.938-6.027-21.927-2.391-27.717,4.225,3.687.258,7.262,2.189,9.475,6.9C112.248,305.968,125.169,317.867,140.255,306.79Z" transform="translate(-98.309 -282.27)" fill="#ffd35b"/>
                    </g>
                    <g id="Grupo_1105929" data-name="Grupo 1105929" transform="translate(73.637 38.807)">
                      <path id="Trazado_896628" data-name="Trazado 896628" d="M292.649,389.147A33.008,33.008,0,0,0,306.878,410.6c8.938,6.028,21.927,2.391,27.717-4.224-3.688-.258-7.262-2.19-9.475-6.9C320.656,389.97,307.734,378.07,292.649,389.147Z" transform="translate(-292.649 -384.688)" fill="#ffd35b"/>
                    </g>
                  </g>
                </g>
                <g id="Grupo_1105935" data-name="Grupo 1105935" transform="translate(10.442 26.604)">
                  <g id="Grupo_1105934" data-name="Grupo 1105934">
                    <g id="Grupo_1105932" data-name="Grupo 1105932" transform="translate(68.777)">
                      <path id="Trazado_896629" data-name="Trazado 896629" d="M292.88,302.45a33.009,33.009,0,0,0,25.7-1.6c9.689-4.727,13.034-17.794,10.2-26.116-2.067,3.065-5.527,5.194-10.715,4.754C307.6,278.607,290.83,283.847,292.88,302.45Z" transform="translate(-292.708 -274.739)" fill="#ffd35b"/>
                    </g>
                    <g id="Grupo_1105933" data-name="Grupo 1105933" transform="translate(0 43.924)">
                      <path id="Trazado_896630" data-name="Trazado 896630" d="M148.064,392.521a33.008,33.008,0,0,0-25.7,1.595c-9.689,4.727-13.034,17.794-10.2,26.116,2.067-3.065,5.527-5.194,10.715-4.755C133.348,416.364,150.114,411.124,148.064,392.521Z" transform="translate(-111.195 -390.663)" fill="#ffd35b"/>
                    </g>
                  </g>
                </g>
                <g id="Grupo_1105936" data-name="Grupo 1105936" transform="translate(26.604 10.442)">
                  <path id="Trazado_896631" data-name="Trazado 896631" d="M181.56,268.954a33.008,33.008,0,0,0-1.6-25.7c-4.727-9.689-17.794-13.035-26.116-10.2,3.065,2.067,5.194,5.527,4.755,10.715C157.717,254.238,162.957,271,181.56,268.954Z" transform="translate(-153.849 -232.085)" fill="#ffd35b"/>
                  <path id="Trazado_896632" data-name="Trazado 896632" d="M271.631,413.77a33.009,33.009,0,0,0,1.6,25.7c4.727,9.689,17.794,13.035,26.116,10.2-3.065-2.067-5.194-5.527-4.755-10.715C295.474,428.486,290.234,411.72,271.631,413.77Z" transform="translate(-225.848 -344.822)" fill="#ffd35b"/>
                </g>
              </g>
              <circle id="Elipse_11681" data-name="Elipse 11681" cx="39.305" cy="39.305" r="39.305" transform="translate(8.401 63.801) rotate(-45)" fill="#fe9800"/>
            </g>
          </g>
          <g id="Grupo_1105944" data-name="Grupo 1105944" transform="translate(422.875 12.807)">
            <path id="Trazado_896633" data-name="Trazado 896633" d="M1432.693,270.863c1.325-3.178-5.867-11.563-17.033-4.515,11.817-26.264-34.952-41.214-43.9-12.186-3.432-8.156-7.234-1.59-7.443,2.342-6.369-8.139-23.861-12.717-28.75,3.142-4.278-10.166-18.92-1.356-12.476,11.753-3.49-5.68-35.06.186-36.881,2.387-5.316,6.428,72.163,3.727,93.6,3.908,29.368.247,79.367-1.074,86.132-1.459C1476.954,275.607,1455.783,269.191,1432.693,270.863Z" transform="translate(-1253.26 -238.326)" fill="#9fd9e2"/>
            <g id="Grupo_1105941" data-name="Grupo 1105941" transform="translate(146.751 46.171)">
              <g id="Grupo_1105940" data-name="Grupo 1105940">
                <path id="Trazado_896634" data-name="Trazado 896634" d="M1716.048,389.192c3.007-1.141-14.993-3.74-26.154-3.74,2.631-5.872-9.036-7.927-12.968-1.53,7.258-14.764-11.646-22.1-16.464-10.654-7.854-25.48-38.376-8.807-31.731,8.22-9.8-6.186-16.115,1.174-14.952,3.963-20.268-1.468-33.2,4.462-23.534,5.011,5.938.338,32.264,2,58.042,1.786C1672.339,392.047,1707.431,392.46,1716.048,389.192Z" transform="translate(-1586.977 -360.18)" fill="#9fd9e2"/>
              </g>
            </g>
            <g id="Grupo_1105943" data-name="Grupo 1105943" transform="translate(0 51.913)">
              <g id="Grupo_1105942" data-name="Grupo 1105942">
                <path id="Trazado_896635" data-name="Trazado 896635" d="M1199.932,397.613c-2.309-.876,11.514-2.872,20.085-2.872-2.021-4.509,6.939-6.087,9.958-1.175-5.573-11.338,8.944-16.974,12.644-8.181,6.032-19.567,29.471-6.763,24.367,6.313,7.527-4.751,12.375.9,11.482,3.044,15.565-1.127,25.5,3.426,18.073,3.849-4.56.26-24.777,1.538-44.573,1.372C1233.5,399.805,1206.549,400.122,1199.932,397.613Z" transform="translate(-1199.675 -375.333)" fill="#9fd9e2"/>
              </g>
            </g>
          </g>
        </g>
        <g id="Grupo_1105986" data-name="Grupo 1105986" transform="translate(117.638 104.553)">
          <g id="Grupo_1105956" data-name="Grupo 1105956" transform="translate(45.443)">
            <path id="Trazado_896650" data-name="Trazado 896650" d="M587.1,634.977s-21.235,3.614-31.627,9.488c1.355-4.217,5.958-10.241,5.958-10.241s-35.576-11.427-38.753-42.049c7.286,17.147,25.794,28.589,41.379,33.766-.762-2.89.23-12.114.23-12.114S574.449,629.4,587.1,634.977Z" transform="translate(-487.713 -549.845)" fill="#fe9800"/>
          </g>
          <g id="Grupo_1105962" data-name="Grupo 1105962" transform="translate(383.566)">
            <path id="Trazado_896662" data-name="Trazado 896662" d="M1387.838,603.47s-5.22,20.9-4.015,32.774c-3.317-2.935-6.985-9.57-6.985-9.57s-24.755,27.991-54.074,18.6c18.63.215,36.542-12.138,47.543-24.331-2.953-.463-11-5.077-11-5.077S1377.653,612.817,1387.838,603.47Z" transform="translate(-1322.764 -556.86)" fill="#00b1c4"/>
          </g>
          <g id="Grupo_1105970" data-name="Grupo 1105970" transform="translate(0 217.291)">
            <path id="Trazado_896671" data-name="Trazado 896671" d="M594.629,1063.415s-21.235-3.615-31.627-9.488c1.356,4.217,5.958,10.241,5.958,10.241s-35.577,11.427-38.753,42.049c7.286-17.147,25.794-28.589,41.379-33.765-.762,2.89.23,12.114.23,12.114S581.979,1068.988,594.629,1063.415Z" transform="translate(-446.946 -1053.927)" fill="#0a0a0b"/>
            <path id="Trazado_900580" data-name="Trazado 900580" d="M7.859-4.93h-4.5v3.047H8.641V0H1.016V-11.375H8.625v1.9H3.359v2.711h4.5Zm4.086-3.523.07.977a2.951,2.951,0,0,1,2.43-1.133,2.453,2.453,0,0,1,2,.789,3.682,3.682,0,0,1,.672,2.359V0H14.859V-5.406a1.465,1.465,0,0,0-.312-1.043,1.4,1.4,0,0,0-1.039-.324,1.553,1.553,0,0,0-1.43.813V0H9.82V-8.453ZM22.719.156A4.15,4.15,0,0,1,19.691-.984a4.054,4.054,0,0,1-1.168-3.039v-.219a5.106,5.106,0,0,1,.492-2.277A3.612,3.612,0,0,1,20.41-8.066a3.914,3.914,0,0,1,2.059-.543A3.508,3.508,0,0,1,25.2-7.516a4.444,4.444,0,0,1,1,3.1v.922H20.813a2.1,2.1,0,0,0,.66,1.328,2,2,0,0,0,1.395.5,2.437,2.437,0,0,0,2.039-.945l1.109,1.242A3.389,3.389,0,0,1,24.641-.246,4.511,4.511,0,0,1,22.719.156Zm-.258-6.945a1.411,1.411,0,0,0-1.09.455,2.357,2.357,0,0,0-.535,1.3h3.141v-.181a1.681,1.681,0,0,0-.406-1.165A1.456,1.456,0,0,0,22.461-6.789Zm9.766.453a6.134,6.134,0,0,0-.812-.062,1.654,1.654,0,0,0-1.68.867V0H27.477V-8.453h2.133l.063,1.008a2.092,2.092,0,0,1,1.883-1.164,2.366,2.366,0,0,1,.7.1Zm.758,2.047a4.954,4.954,0,0,1,.926-3.133,3,3,0,0,1,2.5-1.187,2.631,2.631,0,0,1,2.164.953l.094-.8h2.047V-.281a3.613,3.613,0,0,1-.5,1.93A3.236,3.236,0,0,1,38.789,2.9a4.985,4.985,0,0,1-2.141.43,4.635,4.635,0,0,1-1.812-.371A3.217,3.217,0,0,1,33.5,2l1-1.375a2.645,2.645,0,0,0,2.047.945,1.936,1.936,0,0,0,1.4-.48,1.8,1.8,0,0,0,.5-1.363V-.727a2.612,2.612,0,0,1-2.055.883,2.992,2.992,0,0,1-2.465-1.191,4.953,4.953,0,0,1-.941-3.16Zm2.258.168a3.085,3.085,0,0,0,.461,1.8,1.466,1.466,0,0,0,1.266.653,1.568,1.568,0,0,0,1.477-.775V-6a1.564,1.564,0,0,0-1.461-.775,1.476,1.476,0,0,0-1.277.665A3.477,3.477,0,0,0,35.242-4.121ZM44.883,0H42.625V-8.453h2.258Zm-.664-11.883H46.68L44.516-9.461H42.68ZM51.727,0A2.507,2.507,0,0,1,51.5-.758a2.732,2.732,0,0,1-2.133.914,3,3,0,0,1-2.059-.719,2.312,2.312,0,0,1-.816-1.812,2.389,2.389,0,0,1,1-2.062,4.915,4.915,0,0,1,2.879-.727h1.039v-.484a1.393,1.393,0,0,0-.3-.937,1.183,1.183,0,0,0-.949-.352,1.345,1.345,0,0,0-.895.273.929.929,0,0,0-.324.75H46.68a2.268,2.268,0,0,1,.453-1.359,3,3,0,0,1,1.281-.98,4.669,4.669,0,0,1,1.859-.355,3.689,3.689,0,0,1,2.48.785,2.747,2.747,0,0,1,.918,2.207v3.664a4.041,4.041,0,0,0,.336,1.82V0ZM49.859-1.57a1.945,1.945,0,0,0,.922-.223,1.462,1.462,0,0,0,.625-.6V-3.844h-.844q-1.7,0-1.8,1.172l-.008.133a.9.9,0,0,0,.3.7A1.153,1.153,0,0,0,49.859-1.57Zm12.023-.312h4.977V0h-7.32V-11.375h2.344ZM73.008-.859A2.831,2.831,0,0,1,70.7.156a2.67,2.67,0,0,1-2.074-.781,3.335,3.335,0,0,1-.73-2.289V-8.453h2.258v5.467q0,1.322,1.2,1.322a1.63,1.63,0,0,0,1.578-.8V-8.453H75.2V0H73.07Zm6.008-7.594.07.945a2.971,2.971,0,0,1,2.43-1.1A2.255,2.255,0,0,1,83.758-7.32,2.9,2.9,0,0,1,86.3-8.609a2.521,2.521,0,0,1,2.047.8,3.681,3.681,0,0,1,.672,2.41V0H86.75V-5.391a1.61,1.61,0,0,0-.281-1.051,1.246,1.246,0,0,0-.992-.332A1.409,1.409,0,0,0,84.07-5.8L84.078,0H81.82V-5.383a1.59,1.59,0,0,0-.289-1.062,1.259,1.259,0,0,0-.984-.328,1.463,1.463,0,0,0-1.391.8V0H76.9V-8.453ZM93.188,0H90.93V-8.453h2.258Zm-.664-11.883h2.461L92.82-9.461H90.984Zm4.688,3.43.07.977a2.951,2.951,0,0,1,2.43-1.133,2.453,2.453,0,0,1,2,.789,3.682,3.682,0,0,1,.672,2.359V0h-2.258V-5.406a1.465,1.465,0,0,0-.312-1.043,1.4,1.4,0,0,0-1.039-.324,1.553,1.553,0,0,0-1.43.813V0H95.086V-8.453ZM106.477,0h-2.266V-8.453h2.266Zm-2.4-10.641a1.112,1.112,0,0,1,.34-.836,1.277,1.277,0,0,1,.926-.328,1.28,1.28,0,0,1,.922.328,1.105,1.105,0,0,1,.344.836,1.108,1.108,0,0,1-.348.844,1.283,1.283,0,0,1-.918.328,1.283,1.283,0,0,1-.918-.328A1.108,1.108,0,0,1,104.078-10.641Zm7.773,8.977a1.481,1.481,0,0,0,1.016-.344,1.2,1.2,0,0,0,.406-.914h2.117a2.9,2.9,0,0,1-.469,1.574A3.093,3.093,0,0,1,113.66-.238a3.949,3.949,0,0,1-1.77.395A3.67,3.67,0,0,1,109.031-1a4.56,4.56,0,0,1-1.047-3.184v-.148a4.508,4.508,0,0,1,1.039-3.117,3.627,3.627,0,0,1,2.852-1.164,3.555,3.555,0,0,1,2.543.9,3.2,3.2,0,0,1,.973,2.4h-2.117a1.551,1.551,0,0,0-.406-1.072,1.354,1.354,0,0,0-1.031-.412,1.36,1.36,0,0,0-1.191.575,3.333,3.333,0,0,0-.4,1.866v.235a3.375,3.375,0,0,0,.4,1.878A1.377,1.377,0,0,0,111.852-1.664ZM121.578,0a2.507,2.507,0,0,1-.227-.758,2.732,2.732,0,0,1-2.133.914,3,3,0,0,1-2.059-.719,2.312,2.312,0,0,1-.816-1.812,2.389,2.389,0,0,1,1-2.062,4.915,4.915,0,0,1,2.879-.727h1.039v-.484a1.393,1.393,0,0,0-.3-.937,1.183,1.183,0,0,0-.949-.352,1.345,1.345,0,0,0-.895.273.929.929,0,0,0-.324.75h-2.258a2.268,2.268,0,0,1,.453-1.359,3,3,0,0,1,1.281-.98,4.669,4.669,0,0,1,1.859-.355,3.689,3.689,0,0,1,2.48.785,2.747,2.747,0,0,1,.918,2.207v3.664a4.041,4.041,0,0,0,.336,1.82V0Zm-1.867-1.57a1.945,1.945,0,0,0,.922-.223,1.462,1.462,0,0,0,.625-.6V-3.844h-.844q-1.7,0-1.8,1.172l-.008.133a.9.9,0,0,0,.3.7A1.153,1.153,0,0,0,119.711-1.57Z" transform="translate(28.32 -188.526)" fill="#12263f"/>
            <path id="Trazado_900583" data-name="Trazado 900583" d="M1.016,0V-11.375h3.5A5.315,5.315,0,0,1,7.2-10.7,4.712,4.712,0,0,1,9.047-8.777a5.928,5.928,0,0,1,.664,2.832v.523A5.945,5.945,0,0,1,9.059-2.6,4.672,4.672,0,0,1,7.219-.687,5.355,5.355,0,0,1,4.539,0ZM3.359-9.477v7.594H4.492a2.545,2.545,0,0,0,2.1-.9,4.06,4.06,0,0,0,.742-2.57v-.6a4.124,4.124,0,0,0-.719-2.629,2.537,2.537,0,0,0-2.1-.895ZM13.648,0H11.383V-8.453h2.266Zm-2.4-10.641a1.112,1.112,0,0,1,.34-.836,1.277,1.277,0,0,1,.926-.328,1.28,1.28,0,0,1,.922.328,1.105,1.105,0,0,1,.344.836,1.108,1.108,0,0,1-.348.844,1.283,1.283,0,0,1-.918.328A1.283,1.283,0,0,1,11.6-9.8,1.108,1.108,0,0,1,11.25-10.641ZM15.156-4.3a5.013,5.013,0,0,1,.484-2.242A3.546,3.546,0,0,1,17.035-8.07a4.069,4.069,0,0,1,2.113-.539,3.849,3.849,0,0,1,2.793,1.047,4.2,4.2,0,0,1,1.207,2.844l.016.578A4.418,4.418,0,0,1,22.078-1.02,3.775,3.775,0,0,1,19.164.156a3.793,3.793,0,0,1-2.918-1.172A4.5,4.5,0,0,1,15.156-4.2Zm2.258.16A3.16,3.16,0,0,0,17.867-2.3a1.5,1.5,0,0,0,1.3.638,1.5,1.5,0,0,0,1.281-.63,3.457,3.457,0,0,0,.461-2.015,3.128,3.128,0,0,0-.461-1.831,1.5,1.5,0,0,0-1.3-.649,1.474,1.474,0,0,0-1.281.646A3.516,3.516,0,0,0,17.414-4.144ZM19.594-12h2.461L19.891-9.578H18.055Zm8.18,6.07L29.2-8.453h2.414L29.2-4.312,31.711,0H29.289L27.781-2.656,26.281,0h-2.43l2.508-4.312-2.4-4.141h2.422ZM35.078,0H32.813V-8.453h2.266Zm-2.4-10.641a1.112,1.112,0,0,1,.34-.836,1.277,1.277,0,0,1,.926-.328,1.28,1.28,0,0,1,.922.328,1.105,1.105,0,0,1,.344.836,1.108,1.108,0,0,1-.348.844,1.283,1.283,0,0,1-.918.328,1.283,1.283,0,0,1-.918-.328A1.108,1.108,0,0,1,32.68-10.641Zm3.906,6.352a5.094,5.094,0,0,1,.887-3.148A2.877,2.877,0,0,1,39.9-8.609a2.589,2.589,0,0,1,2.039.922V-12H44.2V0H42.164l-.109-.9A2.657,2.657,0,0,1,39.883.156,2.869,2.869,0,0,1,37.488-1.02,5.258,5.258,0,0,1,36.586-4.289Zm2.258.168A3.337,3.337,0,0,0,39.258-2.3a1.349,1.349,0,0,0,1.2.634,1.511,1.511,0,0,0,1.477-.884V-5.889a1.489,1.489,0,0,0-1.461-.884Q38.844-6.773,38.844-4.121ZM45.6-4.3a5.013,5.013,0,0,1,.484-2.242A3.546,3.546,0,0,1,47.48-8.07a4.069,4.069,0,0,1,2.113-.539,3.849,3.849,0,0,1,2.793,1.047,4.2,4.2,0,0,1,1.207,2.844l.016.578A4.418,4.418,0,0,1,52.523-1.02,3.775,3.775,0,0,1,49.609.156a3.793,3.793,0,0,1-2.918-1.172A4.5,4.5,0,0,1,45.6-4.2Zm2.258.16A3.16,3.16,0,0,0,48.313-2.3a1.5,1.5,0,0,0,1.3.638,1.5,1.5,0,0,0,1.281-.63,3.457,3.457,0,0,0,.461-2.015,3.128,3.128,0,0,0-.461-1.831,1.5,1.5,0,0,0-1.3-.649,1.474,1.474,0,0,0-1.281.646A3.516,3.516,0,0,0,47.859-4.144Zm10.773-.145a5.094,5.094,0,0,1,.887-3.148,2.877,2.877,0,0,1,2.426-1.172,2.589,2.589,0,0,1,2.039.922V-12H66.25V0H64.211L64.1-.9A2.657,2.657,0,0,1,61.93.156,2.869,2.869,0,0,1,59.535-1.02,5.258,5.258,0,0,1,58.633-4.289Zm2.258.168A3.337,3.337,0,0,0,61.3-2.3a1.349,1.349,0,0,0,1.2.634,1.511,1.511,0,0,0,1.477-.884V-5.889a1.489,1.489,0,0,0-1.461-.884Q60.891-6.773,60.891-4.121Zm11,4.277A4.15,4.15,0,0,1,68.863-.984,4.054,4.054,0,0,1,67.7-4.023v-.219a5.106,5.106,0,0,1,.492-2.277,3.612,3.612,0,0,1,1.395-1.547,3.914,3.914,0,0,1,2.059-.543,3.508,3.508,0,0,1,2.73,1.094,4.444,4.444,0,0,1,1,3.1v.922H69.984a2.1,2.1,0,0,0,.66,1.328,2,2,0,0,0,1.395.5,2.437,2.437,0,0,0,2.039-.945l1.109,1.242A3.389,3.389,0,0,1,73.813-.246,4.511,4.511,0,0,1,71.891.156Zm-.258-6.945a1.411,1.411,0,0,0-1.09.455,2.357,2.357,0,0,0-.535,1.3h3.141v-.181a1.681,1.681,0,0,0-.406-1.165A1.456,1.456,0,0,0,71.633-6.789Zm18.078,3A4.025,4.025,0,0,1,88.355-.9,4.76,4.76,0,0,1,85.133.156a4.28,4.28,0,0,1-3.441-1.473,6.038,6.038,0,0,1-1.254-4.043v-.7a6.819,6.819,0,0,1,.578-2.891,4.332,4.332,0,0,1,1.652-1.918,4.629,4.629,0,0,1,2.5-.668,4.637,4.637,0,0,1,3.172,1.055,4.326,4.326,0,0,1,1.391,2.961H87.383a2.376,2.376,0,0,0-.613-1.6,2.271,2.271,0,0,0-1.605-.5,1.991,1.991,0,0,0-1.754.84,4.707,4.707,0,0,0-.6,2.605V-5.3a5.038,5.038,0,0,0,.559,2.7,1.954,1.954,0,0,0,1.762.852,2.314,2.314,0,0,0,1.621-.5,2.241,2.241,0,0,0,.613-1.535ZM96,0a2.507,2.507,0,0,1-.227-.758,2.732,2.732,0,0,1-2.133.914,3,3,0,0,1-2.059-.719,2.312,2.312,0,0,1-.816-1.812,2.389,2.389,0,0,1,1-2.062,4.915,4.915,0,0,1,2.879-.727H95.68v-.484a1.393,1.393,0,0,0-.3-.937,1.183,1.183,0,0,0-.949-.352,1.345,1.345,0,0,0-.895.273.929.929,0,0,0-.324.75H90.953a2.268,2.268,0,0,1,.453-1.359,3,3,0,0,1,1.281-.98,4.669,4.669,0,0,1,1.859-.355,3.689,3.689,0,0,1,2.48.785,2.747,2.747,0,0,1,.918,2.207v3.664a4.041,4.041,0,0,0,.336,1.82V0ZM94.133-1.57a1.945,1.945,0,0,0,.922-.223,1.462,1.462,0,0,0,.625-.6V-3.844h-.844q-1.7,0-1.8,1.172l-.008.133a.9.9,0,0,0,.3.7A1.153,1.153,0,0,0,94.133-1.57Zm10.3-4.766a6.134,6.134,0,0,0-.812-.062,1.654,1.654,0,0,0-1.68.867V0H99.68V-8.453h2.133l.063,1.008a2.092,2.092,0,0,1,1.883-1.164,2.366,2.366,0,0,1,.7.1Zm8.7,2.188a5.119,5.119,0,0,1-.867,3.168A2.872,2.872,0,0,1,109.844.156a2.639,2.639,0,0,1-2.2-1.055l-.1.9h-2.031V-12h2.258v4.3a2.571,2.571,0,0,1,2.055-.914,2.9,2.9,0,0,1,2.426,1.137,5.126,5.126,0,0,1,.879,3.2Zm-2.258-.164a3.363,3.363,0,0,0-.406-1.871,1.374,1.374,0,0,0-1.211-.59,1.489,1.489,0,0,0-1.484.883v3.336a1.509,1.509,0,0,0,1.5.891,1.394,1.394,0,0,0,1.438-1.078A5.562,5.562,0,0,0,110.875-4.312Zm3.3.008a5.013,5.013,0,0,1,.484-2.242,3.546,3.546,0,0,1,1.395-1.523,4.069,4.069,0,0,1,2.113-.539,3.849,3.849,0,0,1,2.793,1.047,4.2,4.2,0,0,1,1.207,2.844l.016.578a4.418,4.418,0,0,1-1.086,3.121A3.775,3.775,0,0,1,118.18.156a3.793,3.793,0,0,1-2.918-1.172,4.5,4.5,0,0,1-1.09-3.187Zm2.258.16a3.16,3.16,0,0,0,.453,1.843,1.5,1.5,0,0,0,1.3.638,1.5,1.5,0,0,0,1.281-.63,3.457,3.457,0,0,0,.461-2.015,3.128,3.128,0,0,0-.461-1.831,1.5,1.5,0,0,0-1.3-.649,1.474,1.474,0,0,0-1.281.646A3.516,3.516,0,0,0,116.43-4.144Zm9.219-4.309.07.977a2.951,2.951,0,0,1,2.43-1.133,2.453,2.453,0,0,1,2,.789,3.682,3.682,0,0,1,.672,2.359V0h-2.258V-5.406a1.465,1.465,0,0,0-.312-1.043,1.4,1.4,0,0,0-1.039-.324,1.553,1.553,0,0,0-1.43.813V0h-2.258V-8.453ZM132.18-4.3a5.013,5.013,0,0,1,.484-2.242,3.546,3.546,0,0,1,1.395-1.523,4.069,4.069,0,0,1,2.113-.539,3.849,3.849,0,0,1,2.793,1.047,4.2,4.2,0,0,1,1.207,2.844l.016.578A4.418,4.418,0,0,1,139.1-1.02,3.775,3.775,0,0,1,136.188.156a3.793,3.793,0,0,1-2.918-1.172A4.5,4.5,0,0,1,132.18-4.2Zm2.258.16a3.16,3.16,0,0,0,.453,1.843,1.5,1.5,0,0,0,1.3.638,1.5,1.5,0,0,0,1.281-.63,3.457,3.457,0,0,0,.461-2.015,3.128,3.128,0,0,0-.461-1.831,1.5,1.5,0,0,0-1.3-.649,1.474,1.474,0,0,0-1.281.646A3.516,3.516,0,0,0,134.438-4.144Zm11.227-.481a11.99,11.99,0,0,1,.477-3.406,8.989,8.989,0,0,1,1.406-2.863,5.251,5.251,0,0,1,2.016-1.73L150-11.406A5.438,5.438,0,0,0,148.219-8.8a12.082,12.082,0,0,0-.641,4.125v.242a12.313,12.313,0,0,0,.633,4.141A5.544,5.544,0,0,0,150,2.359l-.437,1.2a5.253,5.253,0,0,1-1.98-1.684,8.838,8.838,0,0,1-1.4-2.785,11.918,11.918,0,0,1-.516-3.3Zm14.594.836A4.025,4.025,0,0,1,158.9-.9,4.76,4.76,0,0,1,155.68.156a4.281,4.281,0,0,1-3.441-1.473,6.038,6.038,0,0,1-1.254-4.043v-.7a6.819,6.819,0,0,1,.578-2.891,4.332,4.332,0,0,1,1.652-1.918,4.629,4.629,0,0,1,2.5-.668,4.637,4.637,0,0,1,3.172,1.055,4.326,4.326,0,0,1,1.391,2.961H157.93a2.376,2.376,0,0,0-.613-1.6,2.271,2.271,0,0,0-1.605-.5,1.991,1.991,0,0,0-1.754.84,4.707,4.707,0,0,0-.6,2.605V-5.3a5.038,5.038,0,0,0,.559,2.7,1.954,1.954,0,0,0,1.762.852,2.314,2.314,0,0,0,1.621-.5,2.241,2.241,0,0,0,.613-1.535ZM171.141-5.43a6.867,6.867,0,0,1-.594,2.945,4.471,4.471,0,0,1-1.7,1.953,4.7,4.7,0,0,1-2.535.688,4.732,4.732,0,0,1-2.523-.68,4.515,4.515,0,0,1-1.719-1.941,6.67,6.67,0,0,1-.617-2.9V-5.93a6.831,6.831,0,0,1,.605-2.957,4.508,4.508,0,0,1,1.711-1.961,4.706,4.706,0,0,1,2.527-.684,4.706,4.706,0,0,1,2.527.684,4.508,4.508,0,0,1,1.711,1.961,6.811,6.811,0,0,1,.605,2.949Zm-2.375-.516a4.787,4.787,0,0,0-.641-2.719,2.088,2.088,0,0,0-1.828-.93,2.088,2.088,0,0,0-1.82.918,4.732,4.732,0,0,0-.648,2.691v.555a4.847,4.847,0,0,0,.641,2.7,2.082,2.082,0,0,0,1.844.961,2.064,2.064,0,0,0,1.813-.926,4.819,4.819,0,0,0,.641-2.7Zm8.477,8.766H172.4V1.742l2.242-2.008a3.035,3.035,0,0,0,.629-.714,1.144,1.144,0,0,0,.191-.51q0-.659-.742-.659a.813.813,0,0,0-.621.244.861.861,0,0,0-.23.615h-1.609a1.992,1.992,0,0,1,.668-1.523,2.438,2.438,0,0,1,1.723-.617,2.791,2.791,0,0,1,1.785.5,1.731,1.731,0,0,1,.629,1.434,1.859,1.859,0,0,1-.281,1A5.192,5.192,0,0,1,175.656.641l-1.156.9h2.742Zm5.3-7.266a11.377,11.377,0,0,1-.508,3.4,9.225,9.225,0,0,1-1.461,2.883,5.264,5.264,0,0,1-2.039,1.719l-.437-1.2a5.494,5.494,0,0,0,1.75-2.578,11.939,11.939,0,0,0,.664-4.008v-.414a12.208,12.208,0,0,0-.637-4.117A5.727,5.727,0,0,0,178.1-11.43l.438-1.2a5.265,5.265,0,0,1,2,1.672A9.106,9.106,0,0,1,182-8.133a11.3,11.3,0,0,1,.543,3.336Z" transform="translate(-36.68 81.474)" fill="#12263f"/>
            <path id="Trazado_900582" data-name="Trazado 900582" d="M7.438-2.344H3.328L2.547,0H.055L4.289-11.375H6.461L10.719,0H8.227Zm-3.477-1.9H6.8L5.375-8.5ZM14.32-1.82h4.133V0H11.438V-1.375l3.977-5.258H11.555v-1.82h6.773v1.33ZM24.93-.859A2.831,2.831,0,0,1,22.617.156a2.67,2.67,0,0,1-2.074-.781,3.335,3.335,0,0,1-.73-2.289V-8.453H22.07v5.467q0,1.322,1.2,1.322a1.63,1.63,0,0,0,1.578-.8V-8.453h2.266V0H24.992ZM23.922-12h2.461L24.219-9.578H22.383ZM32.336-1.664a1.481,1.481,0,0,0,1.016-.344,1.2,1.2,0,0,0,.406-.914h2.117a2.9,2.9,0,0,1-.469,1.574A3.093,3.093,0,0,1,34.145-.238a3.949,3.949,0,0,1-1.77.395A3.67,3.67,0,0,1,29.516-1,4.56,4.56,0,0,1,28.469-4.18v-.148a4.508,4.508,0,0,1,1.039-3.117,3.627,3.627,0,0,1,2.852-1.164,3.555,3.555,0,0,1,2.543.9,3.2,3.2,0,0,1,.973,2.4H33.758a1.551,1.551,0,0,0-.406-1.072,1.354,1.354,0,0,0-1.031-.412,1.36,1.36,0,0,0-1.191.575,3.333,3.333,0,0,0-.4,1.866v.235a3.375,3.375,0,0,0,.4,1.878A1.377,1.377,0,0,0,32.336-1.664ZM42.063,0a2.507,2.507,0,0,1-.227-.758A2.732,2.732,0,0,1,39.7.156a3,3,0,0,1-2.059-.719,2.312,2.312,0,0,1-.816-1.812,2.389,2.389,0,0,1,1-2.062A4.915,4.915,0,0,1,40.7-5.164h1.039v-.484a1.393,1.393,0,0,0-.3-.937,1.183,1.183,0,0,0-.949-.352,1.345,1.345,0,0,0-.895.273.929.929,0,0,0-.324.75H37.016a2.268,2.268,0,0,1,.453-1.359,3,3,0,0,1,1.281-.98,4.669,4.669,0,0,1,1.859-.355,3.689,3.689,0,0,1,2.48.785,2.747,2.747,0,0,1,.918,2.207v3.664a4.041,4.041,0,0,0,.336,1.82V0ZM40.2-1.57a1.945,1.945,0,0,0,.922-.223,1.462,1.462,0,0,0,.625-.6V-3.844H40.9q-1.7,0-1.8,1.172l-.008.133a.9.9,0,0,0,.3.7A1.153,1.153,0,0,0,40.2-1.57Zm10.3-4.766A6.134,6.134,0,0,0,49.68-6.4,1.654,1.654,0,0,0,48-5.531V0H45.742V-8.453h2.133l.063,1.008A2.092,2.092,0,0,1,49.82-8.609a2.366,2.366,0,0,1,.7.1Z" transform="translate(430.32 75.474)" fill="#12263f"/>
            <path id="Trazado_900581" data-name="Trazado 900581" d="M10.359-5.43a6.867,6.867,0,0,1-.594,2.945,4.472,4.472,0,0,1-1.7,1.953A4.7,4.7,0,0,1,5.531.156a4.732,4.732,0,0,1-2.523-.68A4.515,4.515,0,0,1,1.289-2.465a6.67,6.67,0,0,1-.617-2.9V-5.93a6.831,6.831,0,0,1,.605-2.957,4.508,4.508,0,0,1,1.711-1.961,4.706,4.706,0,0,1,2.527-.684,4.706,4.706,0,0,1,2.527.684A4.508,4.508,0,0,1,9.754-8.887a6.811,6.811,0,0,1,.605,2.949ZM7.984-5.945a4.787,4.787,0,0,0-.641-2.719,2.088,2.088,0,0,0-1.828-.93,2.088,2.088,0,0,0-1.82.918,4.732,4.732,0,0,0-.648,2.691v.555a4.847,4.847,0,0,0,.641,2.7,2.082,2.082,0,0,0,1.844.961,2.064,2.064,0,0,0,1.813-.926,4.819,4.819,0,0,0,.641-2.7Zm7.148.016,1.422-2.523h2.414L16.563-4.312,19.07,0H16.648L15.141-2.656,13.641,0h-2.43l2.508-4.312-2.4-4.141h2.422ZM22.492,0H20.234V-8.453h2.258Zm-.664-11.883h2.461L22.125-9.461H20.289Zm2.281,7.594a4.954,4.954,0,0,1,.926-3.133,3,3,0,0,1,2.5-1.187,2.631,2.631,0,0,1,2.164.953l.094-.8h2.047V-.281a3.613,3.613,0,0,1-.5,1.93A3.236,3.236,0,0,1,29.914,2.9a4.985,4.985,0,0,1-2.141.43,4.635,4.635,0,0,1-1.812-.371A3.217,3.217,0,0,1,24.625,2l1-1.375a2.645,2.645,0,0,0,2.047.945,1.936,1.936,0,0,0,1.4-.48,1.8,1.8,0,0,0,.5-1.363V-.727a2.612,2.612,0,0,1-2.055.883,2.992,2.992,0,0,1-2.465-1.191,4.953,4.953,0,0,1-.941-3.16Zm2.258.168a3.085,3.085,0,0,0,.461,1.8,1.466,1.466,0,0,0,1.266.653,1.568,1.568,0,0,0,1.477-.775V-6a1.564,1.564,0,0,0-1.461-.775,1.476,1.476,0,0,0-1.277.665A3.477,3.477,0,0,0,26.367-4.121ZM37.461.156A4.15,4.15,0,0,1,34.434-.984a4.054,4.054,0,0,1-1.168-3.039v-.219a5.106,5.106,0,0,1,.492-2.277,3.612,3.612,0,0,1,1.395-1.547,3.914,3.914,0,0,1,2.059-.543,3.508,3.508,0,0,1,2.73,1.094,4.444,4.444,0,0,1,1,3.1v.922H35.555a2.1,2.1,0,0,0,.66,1.328,2,2,0,0,0,1.395.5,2.437,2.437,0,0,0,2.039-.945l1.109,1.242A3.389,3.389,0,0,1,39.383-.246,4.511,4.511,0,0,1,37.461.156ZM37.2-6.789a1.411,1.411,0,0,0-1.09.455,2.357,2.357,0,0,0-.535,1.3h3.141v-.181a1.681,1.681,0,0,0-.406-1.165A1.456,1.456,0,0,0,37.2-6.789ZM44.3-8.453l.07.977A2.951,2.951,0,0,1,46.8-8.609a2.453,2.453,0,0,1,2,.789,3.682,3.682,0,0,1,.672,2.359V0H47.211V-5.406A1.465,1.465,0,0,0,46.9-6.449a1.4,1.4,0,0,0-1.039-.324,1.553,1.553,0,0,0-1.43.813V0H42.172V-8.453ZM50.828-4.3a5.013,5.013,0,0,1,.484-2.242A3.546,3.546,0,0,1,52.707-8.07a4.069,4.069,0,0,1,2.113-.539,3.849,3.849,0,0,1,2.793,1.047A4.2,4.2,0,0,1,58.82-4.719l.016.578A4.418,4.418,0,0,1,57.75-1.02,3.775,3.775,0,0,1,54.836.156a3.793,3.793,0,0,1-2.918-1.172A4.5,4.5,0,0,1,50.828-4.2Zm2.258.16A3.16,3.16,0,0,0,53.539-2.3a1.5,1.5,0,0,0,1.3.638,1.5,1.5,0,0,0,1.281-.63,3.457,3.457,0,0,0,.461-2.015,3.128,3.128,0,0,0-.461-1.831,1.5,1.5,0,0,0-1.3-.649,1.474,1.474,0,0,0-1.281.646A3.516,3.516,0,0,0,53.086-4.144Zm11.227-.481a11.99,11.99,0,0,1,.477-3.406A8.989,8.989,0,0,1,66.2-10.895a5.251,5.251,0,0,1,2.016-1.73l.438,1.219A5.438,5.438,0,0,0,66.867-8.8a12.082,12.082,0,0,0-.641,4.125v.242a12.313,12.313,0,0,0,.633,4.141,5.544,5.544,0,0,0,1.789,2.648l-.437,1.2a5.253,5.253,0,0,1-1.98-1.684,8.838,8.838,0,0,1-1.4-2.785,11.918,11.918,0,0,1-.516-3.3Zm15.008-.8a6.867,6.867,0,0,1-.594,2.945,4.472,4.472,0,0,1-1.7,1.953,4.7,4.7,0,0,1-2.535.688,4.732,4.732,0,0,1-2.523-.68A4.515,4.515,0,0,1,70.25-2.465a6.67,6.67,0,0,1-.617-2.9V-5.93a6.831,6.831,0,0,1,.605-2.957,4.508,4.508,0,0,1,1.711-1.961,4.706,4.706,0,0,1,2.527-.684A4.706,4.706,0,0,1,77-10.848a4.508,4.508,0,0,1,1.711,1.961,6.811,6.811,0,0,1,.605,2.949Zm-2.375-.516A4.787,4.787,0,0,0,76.3-8.664a2.088,2.088,0,0,0-1.828-.93,2.088,2.088,0,0,0-1.82.918,4.732,4.732,0,0,0-.648,2.691v.555a4.847,4.847,0,0,0,.641,2.7,2.082,2.082,0,0,0,1.844.961A2.064,2.064,0,0,0,76.3-2.691a4.819,4.819,0,0,0,.641-2.7ZM85.422,2.82H80.578V1.742L82.82-.266a3.035,3.035,0,0,0,.629-.714,1.144,1.144,0,0,0,.191-.51q0-.659-.742-.659a.813.813,0,0,0-.621.244.861.861,0,0,0-.23.615H80.438a1.992,1.992,0,0,1,.668-1.523,2.438,2.438,0,0,1,1.723-.617,2.791,2.791,0,0,1,1.785.5,1.731,1.731,0,0,1,.629,1.434,1.859,1.859,0,0,1-.281,1A5.192,5.192,0,0,1,83.836.641l-1.156.9h2.742Zm5.3-7.266a11.377,11.377,0,0,1-.508,3.4,9.225,9.225,0,0,1-1.461,2.883,5.263,5.263,0,0,1-2.039,1.719l-.437-1.2a5.494,5.494,0,0,0,1.75-2.578A11.939,11.939,0,0,0,88.7-4.227v-.414a12.209,12.209,0,0,0-.637-4.117,5.727,5.727,0,0,0-1.777-2.672l.438-1.2a5.265,5.265,0,0,1,2,1.672,9.106,9.106,0,0,1,1.461,2.82A11.3,11.3,0,0,1,90.727-4.8Z" transform="translate(461.32 -139.526)" fill="#12263f"/>
            <path id="Trazado_900584" data-name="Trazado 900584" d="M7.438-2.344H3.328L2.547,0H.055L4.289-11.375H6.461L10.719,0H8.227Zm-3.477-1.9H6.8L5.375-8.5ZM11.3-4.289a4.954,4.954,0,0,1,.926-3.133,3,3,0,0,1,2.5-1.187,2.631,2.631,0,0,1,2.164.953l.094-.8h2.047V-.281a3.613,3.613,0,0,1-.5,1.93A3.236,3.236,0,0,1,17.109,2.9a4.985,4.985,0,0,1-2.141.43,4.635,4.635,0,0,1-1.812-.371A3.217,3.217,0,0,1,11.82,2l1-1.375a2.645,2.645,0,0,0,2.047.945,1.936,1.936,0,0,0,1.4-.48,1.8,1.8,0,0,0,.5-1.363V-.727a2.612,2.612,0,0,1-2.055.883,2.992,2.992,0,0,1-2.465-1.191A4.953,4.953,0,0,1,11.3-4.2Zm2.258.168a3.085,3.085,0,0,0,.461,1.8,1.466,1.466,0,0,0,1.266.653,1.568,1.568,0,0,0,1.477-.775V-6A1.564,1.564,0,0,0,15.3-6.773a1.476,1.476,0,0,0-1.277.665A3.477,3.477,0,0,0,13.563-4.121ZM25.828-.859A2.831,2.831,0,0,1,23.516.156a2.67,2.67,0,0,1-2.074-.781,3.335,3.335,0,0,1-.73-2.289V-8.453h2.258v5.467q0,1.322,1.2,1.322a1.63,1.63,0,0,0,1.578-.8V-8.453h2.266V0H25.891ZM34.617,0a2.507,2.507,0,0,1-.227-.758,2.732,2.732,0,0,1-2.133.914A3,3,0,0,1,30.2-.562a2.312,2.312,0,0,1-.816-1.812,2.389,2.389,0,0,1,1-2.062,4.915,4.915,0,0,1,2.879-.727H34.3v-.484a1.393,1.393,0,0,0-.3-.937,1.183,1.183,0,0,0-.949-.352,1.345,1.345,0,0,0-.895.273.929.929,0,0,0-.324.75H29.57a2.268,2.268,0,0,1,.453-1.359,3,3,0,0,1,1.281-.98,4.669,4.669,0,0,1,1.859-.355,3.689,3.689,0,0,1,2.48.785,2.747,2.747,0,0,1,.918,2.207v3.664A4.041,4.041,0,0,0,36.9-.133V0ZM32.75-1.57a1.945,1.945,0,0,0,.922-.223,1.462,1.462,0,0,0,.625-.6V-3.844h-.844q-1.7,0-1.8,1.172l-.008.133a.9.9,0,0,0,.3.7A1.153,1.153,0,0,0,32.75-1.57Zm9.633-3.055a11.99,11.99,0,0,1,.477-3.406,8.989,8.989,0,0,1,1.406-2.863,5.251,5.251,0,0,1,2.016-1.73l.438,1.219A5.438,5.438,0,0,0,44.938-8.8,12.082,12.082,0,0,0,44.3-4.672v.242A12.313,12.313,0,0,0,44.93-.289a5.544,5.544,0,0,0,1.789,2.648l-.437,1.2A5.253,5.253,0,0,1,44.3,1.871,8.838,8.838,0,0,1,42.9-.914a11.918,11.918,0,0,1-.516-3.3ZM57.3,0H54.961V-4.875h-4.57V0H48.047V-11.375h2.344v4.609h4.57v-4.609H57.3ZM63.75,2.82H58.906V1.742L61.148-.266a3.035,3.035,0,0,0,.629-.714,1.144,1.144,0,0,0,.191-.51q0-.659-.742-.659a.813.813,0,0,0-.621.244.861.861,0,0,0-.23.615H58.766a1.992,1.992,0,0,1,.668-1.523,2.438,2.438,0,0,1,1.723-.617,2.791,2.791,0,0,1,1.785.5,1.731,1.731,0,0,1,.629,1.434,1.859,1.859,0,0,1-.281,1A5.192,5.192,0,0,1,62.164.641l-1.156.9H63.75ZM74.656-5.43a6.867,6.867,0,0,1-.594,2.945,4.472,4.472,0,0,1-1.7,1.953,4.7,4.7,0,0,1-2.535.688A4.732,4.732,0,0,1,67.3-.523a4.515,4.515,0,0,1-1.719-1.941,6.67,6.67,0,0,1-.617-2.9V-5.93a6.831,6.831,0,0,1,.605-2.957,4.508,4.508,0,0,1,1.711-1.961,4.706,4.706,0,0,1,2.527-.684,4.706,4.706,0,0,1,2.527.684,4.508,4.508,0,0,1,1.711,1.961,6.811,6.811,0,0,1,.605,2.949Zm-2.375-.516a4.787,4.787,0,0,0-.641-2.719,2.088,2.088,0,0,0-1.828-.93,2.088,2.088,0,0,0-1.82.918,4.732,4.732,0,0,0-.648,2.691v.555a4.847,4.847,0,0,0,.641,2.7,2.082,2.082,0,0,0,1.844.961,2.064,2.064,0,0,0,1.813-.926,4.819,4.819,0,0,0,.641-2.7Zm7.82,1.5a11.377,11.377,0,0,1-.508,3.4,9.225,9.225,0,0,1-1.461,2.883,5.263,5.263,0,0,1-2.039,1.719l-.437-1.2a5.494,5.494,0,0,0,1.75-2.578,11.939,11.939,0,0,0,.664-4.008v-.414a12.209,12.209,0,0,0-.637-4.117,5.727,5.727,0,0,0-1.777-2.672l.438-1.2a5.265,5.265,0,0,1,2,1.672,9.106,9.106,0,0,1,1.461,2.82A11.3,11.3,0,0,1,80.1-4.8Z" transform="translate(41.32 311.474)" fill="#fff"/>
            <path id="Trazado_900585" data-name="Trazado 900585" d="M4.078-11.375,7-3.125l2.906-8.25h3.078V0H10.633V-3.109l.234-5.367L7.8,0H6.188L3.125-8.469l.234,5.359V0H1.016V-11.375ZM17.266,0H15V-8.453h2.266Zm-2.4-10.641a1.112,1.112,0,0,1,.34-.836,1.277,1.277,0,0,1,.926-.328,1.28,1.28,0,0,1,.922.328,1.105,1.105,0,0,1,.344.836,1.108,1.108,0,0,1-.348.844,1.283,1.283,0,0,1-.918.328,1.283,1.283,0,0,1-.918-.328A1.108,1.108,0,0,1,14.867-10.641ZM21.2-8.453l.07.977A2.951,2.951,0,0,1,23.7-8.609a2.453,2.453,0,0,1,2,.789,3.682,3.682,0,0,1,.672,2.359V0H24.117V-5.406A1.465,1.465,0,0,0,23.8-6.449a1.4,1.4,0,0,0-1.039-.324,1.553,1.553,0,0,0-1.43.813V0H19.078V-8.453ZM31.977.156A4.15,4.15,0,0,1,28.949-.984a4.054,4.054,0,0,1-1.168-3.039v-.219a5.106,5.106,0,0,1,.492-2.277,3.612,3.612,0,0,1,1.395-1.547,3.914,3.914,0,0,1,2.059-.543,3.508,3.508,0,0,1,2.73,1.094,4.444,4.444,0,0,1,1,3.1v.922H30.07a2.1,2.1,0,0,0,.66,1.328,2,2,0,0,0,1.395.5,2.437,2.437,0,0,0,2.039-.945l1.109,1.242A3.389,3.389,0,0,1,33.9-.246,4.511,4.511,0,0,1,31.977.156Zm-.258-6.945a1.411,1.411,0,0,0-1.09.455,2.357,2.357,0,0,0-.535,1.3h3.141v-.181a1.681,1.681,0,0,0-.406-1.165A1.456,1.456,0,0,0,31.719-6.789Zm9.766.453a6.134,6.134,0,0,0-.812-.062,1.654,1.654,0,0,0-1.68.867V0H36.734V-8.453h2.133l.063,1.008a2.092,2.092,0,0,1,1.883-1.164,2.366,2.366,0,0,1,.7.1ZM47.234,0a2.507,2.507,0,0,1-.227-.758,2.732,2.732,0,0,1-2.133.914,3,3,0,0,1-2.059-.719A2.312,2.312,0,0,1,42-2.375a2.389,2.389,0,0,1,1-2.062,4.915,4.915,0,0,1,2.879-.727h1.039v-.484a1.393,1.393,0,0,0-.3-.937,1.183,1.183,0,0,0-.949-.352,1.345,1.345,0,0,0-.895.273.929.929,0,0,0-.324.75H42.188a2.268,2.268,0,0,1,.453-1.359,3,3,0,0,1,1.281-.98,4.669,4.669,0,0,1,1.859-.355,3.689,3.689,0,0,1,2.48.785,2.747,2.747,0,0,1,.918,2.207v3.664a4.041,4.041,0,0,0,.336,1.82V0ZM45.367-1.57a1.945,1.945,0,0,0,.922-.223,1.462,1.462,0,0,0,.625-.6V-3.844H46.07q-1.7,0-1.8,1.172l-.008.133a.9.9,0,0,0,.3.7A1.153,1.153,0,0,0,45.367-1.57ZM53.3,0H51.031V-12H53.3Zm5.75.156A4.15,4.15,0,0,1,56.02-.984a4.054,4.054,0,0,1-1.168-3.039v-.219a5.106,5.106,0,0,1,.492-2.277,3.612,3.612,0,0,1,1.395-1.547A3.914,3.914,0,0,1,58.8-8.609a3.508,3.508,0,0,1,2.73,1.094,4.444,4.444,0,0,1,1,3.1v.922H57.141a2.1,2.1,0,0,0,.66,1.328,2,2,0,0,0,1.395.5,2.437,2.437,0,0,0,2.039-.945l1.109,1.242A3.389,3.389,0,0,1,60.969-.246,4.511,4.511,0,0,1,59.047.156Zm-.258-6.945a1.411,1.411,0,0,0-1.09.455,2.357,2.357,0,0,0-.535,1.3H60.3v-.181A1.681,1.681,0,0,0,59.9-6.377,1.456,1.456,0,0,0,58.789-6.789Zm9.594,4.453a.727.727,0,0,0-.41-.652,4.659,4.659,0,0,0-1.316-.426q-3.016-.633-3.016-2.562a2.323,2.323,0,0,1,.934-1.879,3.766,3.766,0,0,1,2.441-.754,4.053,4.053,0,0,1,2.574.758,2.388,2.388,0,0,1,.965,1.969H68.3a1.092,1.092,0,0,0-.312-.8A1.322,1.322,0,0,0,67.008-7a1.351,1.351,0,0,0-.883.258.814.814,0,0,0-.312.656.7.7,0,0,0,.355.605,3.657,3.657,0,0,0,1.2.4,9.8,9.8,0,0,1,1.422.379A2.336,2.336,0,0,1,70.578-2.43a2.2,2.2,0,0,1-.992,1.871,4.28,4.28,0,0,1-2.562.715,4.47,4.47,0,0,1-1.887-.379,3.166,3.166,0,0,1-1.293-1.039,2.414,2.414,0,0,1-.469-1.426h2.141a1.179,1.179,0,0,0,.445.922,1.766,1.766,0,0,0,1.109.32,1.635,1.635,0,0,0,.98-.246A.766.766,0,0,0,68.383-2.336Z" transform="translate(380.32 285.474)" fill="#fff"/>
          </g>
          <g id="Grupo_1105974" data-name="Grupo 1105974" transform="translate(383.53 217.291)">
            <path id="Trazado_896688" data-name="Trazado 896688" d="M1387.09,1096.729s-21.235,3.615-31.627,9.488c1.355-4.217,5.958-10.241,5.958-10.241s-35.576-11.427-38.753-42.049c7.286,17.147,25.794,28.589,41.379,33.766-.762-2.89.23-12.114.23-12.114S1374.439,1091.157,1387.09,1096.729Z" transform="translate(-1322.668 -1053.927)" fill="#ef5214"/>
          </g>
          <g id="Grupo_1105985" data-name="Grupo 1105985" transform="translate(48.644 455.182)">
            <path id="Trazado_896710" data-name="Trazado 896710" d="M586.891,1681.764s-5.219,20.9-4.015,32.774c-3.317-2.935-6.985-9.57-6.985-9.57s-24.755,27.99-54.074,18.6c18.63.215,36.542-12.138,47.543-24.332-2.953-.464-11-5.077-11-5.077S576.707,1691.111,586.891,1681.764Z" transform="translate(-490.378 -1681.764)" fill="#00b1c4"/>
          </g>
        </g>
      </g>
    </g>
    <path id="Trazado_900579" data-name="Trazado 900579" d="M10.807-6.392H4.619V0H1.4V-15.641H11.58v2.61H4.619v4.039h6.188Zm1.729.473A6.893,6.893,0,0,1,13.2-9,4.876,4.876,0,0,1,15.12-11.1a5.594,5.594,0,0,1,2.906-.741,5.293,5.293,0,0,1,3.84,1.439,5.777,5.777,0,0,1,1.66,3.91l.021.795A6.075,6.075,0,0,1,22.054-1.4,5.19,5.19,0,0,1,18.047.215,5.216,5.216,0,0,1,14.035-1.4a6.182,6.182,0,0,1-1.5-4.383Zm3.1.22a4.345,4.345,0,0,0,.623,2.534,2.055,2.055,0,0,0,1.783.877,2.06,2.06,0,0,0,1.762-.866,4.754,4.754,0,0,0,.634-2.77,4.3,4.3,0,0,0-.634-2.518,2.06,2.06,0,0,0-1.783-.893,2.027,2.027,0,0,0-1.762.888A4.834,4.834,0,0,0,15.641-5.7ZM29.176-14.48v2.857h1.987v2.277H29.176v5.8a1.385,1.385,0,0,0,.247.924,1.241,1.241,0,0,0,.945.279,4.951,4.951,0,0,0,.913-.075V-.064A6.391,6.391,0,0,1,29.4.215q-3.266,0-3.33-3.3V-9.346h-1.7v-2.277h1.7V-14.48Zm2.911,8.562A6.893,6.893,0,0,1,32.753-9,4.876,4.876,0,0,1,34.67-11.1a5.594,5.594,0,0,1,2.906-.741,5.293,5.293,0,0,1,3.84,1.439,5.777,5.777,0,0,1,1.66,3.91l.021.795A6.075,6.075,0,0,1,41.6-1.4,5.19,5.19,0,0,1,37.6.215,5.216,5.216,0,0,1,33.585-1.4a6.182,6.182,0,0,1-1.5-4.383Zm3.1.22a4.345,4.345,0,0,0,.623,2.534,2.055,2.055,0,0,0,1.783.877,2.06,2.06,0,0,0,1.762-.866,4.754,4.754,0,0,0,.634-2.77,4.3,4.3,0,0,0-.634-2.518,2.06,2.06,0,0,0-1.783-.893,2.027,2.027,0,0,0-1.762.888A4.834,4.834,0,0,0,35.191-5.7ZM51.3-3.212a1,1,0,0,0-.564-.9,6.406,6.406,0,0,0-1.81-.585q-4.146-.87-4.146-3.523A3.194,3.194,0,0,1,46.068-10.8a5.178,5.178,0,0,1,3.357-1.037,5.573,5.573,0,0,1,3.54,1.042,3.284,3.284,0,0,1,1.327,2.707h-3.1a1.5,1.5,0,0,0-.43-1.1,1.818,1.818,0,0,0-1.343-.435,1.858,1.858,0,0,0-1.214.354,1.119,1.119,0,0,0-.43.9.957.957,0,0,0,.489.833,5.028,5.028,0,0,0,1.649.548,13.468,13.468,0,0,1,1.955.521,3.212,3.212,0,0,1,2.46,3.126A3.032,3.032,0,0,1,52.959-.768a5.885,5.885,0,0,1-3.523.983,6.147,6.147,0,0,1-2.594-.521,4.353,4.353,0,0,1-1.778-1.429,3.32,3.32,0,0,1-.645-1.96h2.943a1.621,1.621,0,0,0,.612,1.268,2.429,2.429,0,0,0,1.525.44,2.248,2.248,0,0,0,1.348-.338A1.053,1.053,0,0,0,51.3-3.212ZM59.673,0h-3.1V-11.623h3.1ZM58.76-16.339h3.384l-2.976,3.33H56.644Zm6.445,4.716.1,1.343a4.058,4.058,0,0,1,3.341-1.558,3.372,3.372,0,0,1,2.75,1.085,5.062,5.062,0,0,1,.924,3.244V0h-3.1V-7.434a2.014,2.014,0,0,0-.43-1.434,1.924,1.924,0,0,0-1.429-.446A2.136,2.136,0,0,0,65.388-8.2V0h-3.1V-11.623ZM78.386-14.48v2.857h1.987v2.277H78.386v5.8a1.385,1.385,0,0,0,.247.924,1.241,1.241,0,0,0,.945.279,4.951,4.951,0,0,0,.913-.075V-.064a6.391,6.391,0,0,1-1.88.279q-3.266,0-3.33-3.3V-9.346h-1.7v-2.277h1.7V-14.48ZM87.452.215A5.706,5.706,0,0,1,83.29-1.354a5.575,5.575,0,0,1-1.606-4.179v-.3a7.021,7.021,0,0,1,.677-3.131,4.967,4.967,0,0,1,1.917-2.127,5.382,5.382,0,0,1,2.831-.747,4.824,4.824,0,0,1,3.754,1.5,6.111,6.111,0,0,1,1.37,4.265V-4.8h-7.4a2.884,2.884,0,0,0,.908,1.826,2.744,2.744,0,0,0,1.917.688,3.351,3.351,0,0,0,2.8-1.3L91.985-1.88A4.66,4.66,0,0,1,90.095-.338,6.2,6.2,0,0,1,87.452.215ZM87.1-9.335a1.94,1.94,0,0,0-1.5.626,3.241,3.241,0,0,0-.736,1.791h4.318v-.248a2.311,2.311,0,0,0-.559-1.6A2,2,0,0,0,87.1-9.335Zm13.191,6.123a1,1,0,0,0-.564-.9,6.406,6.406,0,0,0-1.81-.585q-4.146-.87-4.146-3.523A3.194,3.194,0,0,1,95.052-10.8a5.178,5.178,0,0,1,3.357-1.037,5.573,5.573,0,0,1,3.54,1.042,3.284,3.284,0,0,1,1.327,2.707h-3.1a1.5,1.5,0,0,0-.43-1.1A1.818,1.818,0,0,0,98.4-9.625a1.858,1.858,0,0,0-1.214.354,1.119,1.119,0,0,0-.43.9.957.957,0,0,0,.489.833,5.028,5.028,0,0,0,1.649.548,13.468,13.468,0,0,1,1.955.521,3.212,3.212,0,0,1,2.46,3.126,3.032,3.032,0,0,1-1.364,2.573A5.885,5.885,0,0,1,98.42.215a6.147,6.147,0,0,1-2.594-.521,4.353,4.353,0,0,1-1.778-1.429A3.32,3.32,0,0,1,93.4-3.7h2.943a1.621,1.621,0,0,0,.612,1.268,2.429,2.429,0,0,0,1.525.44,2.248,2.248,0,0,0,1.348-.338A1.053,1.053,0,0,0,100.289-3.212ZM108.582,0h-3.115V-11.623h3.115Zm-3.3-14.631a1.529,1.529,0,0,1,.467-1.149,1.755,1.755,0,0,1,1.273-.451,1.759,1.759,0,0,1,1.268.451,1.52,1.52,0,0,1,.473,1.149,1.524,1.524,0,0,1-.478,1.16,1.764,1.764,0,0,1-1.262.451,1.764,1.764,0,0,1-1.262-.451A1.524,1.524,0,0,1,105.284-14.631ZM117.434-3.212a1,1,0,0,0-.564-.9,6.406,6.406,0,0,0-1.81-.585q-4.146-.87-4.146-3.523A3.194,3.194,0,0,1,112.2-10.8a5.178,5.178,0,0,1,3.357-1.037,5.573,5.573,0,0,1,3.54,1.042,3.284,3.284,0,0,1,1.327,2.707h-3.1a1.5,1.5,0,0,0-.43-1.1,1.818,1.818,0,0,0-1.343-.435,1.858,1.858,0,0,0-1.214.354,1.119,1.119,0,0,0-.43.9.957.957,0,0,0,.489.833,5.028,5.028,0,0,0,1.649.548,13.468,13.468,0,0,1,1.955.521,3.212,3.212,0,0,1,2.46,3.126,3.032,3.032,0,0,1-1.364,2.573,5.885,5.885,0,0,1-3.523.983,6.147,6.147,0,0,1-2.594-.521,4.353,4.353,0,0,1-1.778-1.429,3.32,3.32,0,0,1-.645-1.96h2.943a1.621,1.621,0,0,0,.612,1.268,2.429,2.429,0,0,0,1.525.44,2.248,2.248,0,0,0,1.348-.338A1.053,1.053,0,0,0,117.434-3.212Z" transform="translate(739.051 1339.303)" fill="#12263f"/>
  </g>
</svg>
