<svg xmlns="http://www.w3.org/2000/svg" xmlns:xlink="http://www.w3.org/1999/xlink" width="98" height="98" viewBox="0 0 98 98">
  <defs>
    <filter id="plant-growing-soil-with-sun-shining-it" x="0" y="0" width="98" height="98" filterUnits="userSpaceOnUse">
      <feOffset dy="3" input="SourceAlpha"/>
      <feGaussianBlur stdDeviation="3" result="blur"/>
      <feFlood flood-opacity="0.161"/>
      <feComposite operator="in" in2="blur"/>
      <feComposite in="SourceGraphic"/>
    </filter>
  </defs>
  <g id="Grupo_1106058" data-name="Grupo 1106058" transform="translate(-720.693 -2515.5)">
    <g transform="matrix(1, 0, 0, 1, 720.69, 2515.5)" filter="url(#plant-growing-soil-with-sun-shining-it)">
      <g id="plant-growing-soil-with-sun-shining-it-2" data-name="plant-growing-soil-with-sun-shining-it" transform="translate(9 6)" fill="#a8d549">
        <path d="M 40 77.5 C 34.93642425537109 77.5 30.02565002441406 76.50885009765625 25.40407562255859 74.55408477783203 C 20.93889999389648 72.66548919677734 16.92823791503906 69.96125030517578 13.48349952697754 66.51651000976562 C 10.03874969482422 63.07176208496094 7.334525108337402 59.06110000610352 5.44591236114502 54.59592437744141 C 3.49114990234375 49.97434997558594 2.5 45.06357574462891 2.5 40 C 2.5 34.93643569946289 3.49114990234375 30.02565002441406 5.44591236114502 25.40407562255859 C 7.334525108337402 20.93889999389648 10.03874969482422 16.92823791503906 13.48349952697754 13.48349952697754 C 16.92823791503906 10.03874969482422 20.93889999389648 7.334525108337402 25.40407562255859 5.44591236114502 C 30.02565002441406 3.49114990234375 34.93643569946289 2.5 40 2.5 C 45.06356430053711 2.5 49.97434997558594 3.49114990234375 54.59592437744141 5.44591236114502 C 59.06110000610352 7.334525108337402 63.07176208496094 10.03874969482422 66.51650238037109 13.48349952697754 C 69.96125030517578 16.92823791503906 72.66547393798828 20.93889999389648 74.55408477783203 25.40407562255859 C 76.50885009765625 30.02565002441406 77.5 34.93643569946289 77.5 40 C 77.5 45.06357574462891 76.50885009765625 49.97434997558594 74.55408477783203 54.59592437744141 C 72.66547393798828 59.06110000610352 69.96125030517578 63.07176208496094 66.51650238037109 66.51651000976562 C 63.07176208496094 69.96125030517578 59.06110000610352 72.66548919677734 54.59592437744141 74.55408477783203 C 49.97434997558594 76.50885009765625 45.06357574462891 77.5 40 77.5 Z" stroke="none"/>
        <path d="M 40 5 C 35.27283096313477 5 30.6897087097168 5.924705505371094 26.37795257568359 7.7484130859375 C 22.21078491210938 9.510986328125 18.46721649169922 12.03530883789062 15.25125885009766 15.25125885009766 C 12.03530883789062 18.46721649169922 9.510986328125 22.21078491210938 7.7484130859375 26.37795257568359 C 5.924705505371094 30.6897087097168 5 35.27283096313477 5 40 C 5 44.72716903686523 5.924705505371094 49.31029510498047 7.7484130859375 53.62204742431641 C 9.510986328125 57.78923034667969 12.03530883789062 61.53278350830078 15.25125885009766 64.74874114990234 C 18.46721649169922 67.96469116210938 22.21078491210938 70.489013671875 26.37795257568359 72.2515869140625 C 30.6897087097168 74.07529449462891 35.27283096313477 75 40 75 C 44.72716903686523 75 49.31029510498047 74.07529449462891 53.62204742431641 72.2515869140625 C 57.78921508789062 70.489013671875 61.53278350830078 67.96469116210938 64.74874114990234 64.74874114990234 C 67.96469116210938 61.53278350830078 70.489013671875 57.78923034667969 72.2515869140625 53.62204742431641 C 74.07529449462891 49.31029510498047 75 44.72716903686523 75 40 C 75 35.27283096313477 74.07529449462891 30.6897087097168 72.2515869140625 26.37795257568359 C 70.489013671875 22.21078491210938 67.96469116210938 18.46721649169922 64.74874114990234 15.25125885009766 C 61.53278350830078 12.03530883789062 57.78921508789062 9.510986328125 53.62204742431641 7.7484130859375 C 49.31029510498047 5.924705505371094 44.72716903686523 5 40 5 M 40 0 C 62.09138488769531 0 80 17.90861511230469 80 40 C 80 62.09140014648438 62.09138488769531 80 40 80 C 17.90861511230469 80 0 62.09140014648438 0 40 C 0 17.90861511230469 17.90861511230469 0 40 0 Z" stroke="none" fill="#65802c"/>
      </g>
    </g>
    <g id="farmer_12058319" transform="translate(745.979 2536.005)">
      <g id="Grupo_1106039" data-name="Grupo 1106039" transform="translate(1.634 1.228)">
        <path id="Trazado_896806" data-name="Trazado 896806" d="M4.851,35.862a1.445,1.445,0,0,0,.262-1.276,4.219,4.219,0,0,1-.1-.891,2.917,2.917,0,0,1,2.712-3.083,2.917,2.917,0,0,1,2.712,3.083,3.388,3.388,0,0,1-.379,1.571A4.493,4.493,0,0,1,11.474,38.6a4.74,4.74,0,0,1-.329,1.747,6.4,6.4,0,0,1,1.906,4.641c0,3.342-2.388,6.056-5.328,6.056S2.4,48.332,2.4,44.99a6.515,6.515,0,0,1,1.378-4.063,1.457,1.457,0,0,0,.306-1.268A5.5,5.5,0,0,1,3.973,38.6,4.607,4.607,0,0,1,4.851,35.862Z" transform="translate(-2.396 -16.536)" fill="#5b874e" fill-rule="evenodd"/>
        <path id="Trazado_896807" data-name="Trazado 896807" d="M13.911,31.9a1.469,1.469,0,0,0,.277-1.353,3.228,3.228,0,0,1-.157-1.022,3.416,3.416,0,0,1,3.31-3.51,3.416,3.416,0,0,1,3.31,3.51,3.7,3.7,0,0,1-.144,1.026,1.455,1.455,0,0,0,.276,1.34,5.146,5.146,0,0,1,.984,4.462,1.464,1.464,0,0,0,.34,1.354,7.06,7.06,0,0,1,1.736,4.678,6.71,6.71,0,0,1-6.5,6.895,6.71,6.71,0,0,1-6.5-6.895A7.1,7.1,0,0,1,12.57,37.7a1.457,1.457,0,0,0,.338-1.348,5.531,5.531,0,0,1-.144-1.242A5.005,5.005,0,0,1,13.911,31.9Z" transform="translate(-6.685 -14.201)" fill="#72a962" fill-rule="evenodd"/>
        <g id="Grupo_1106038" data-name="Grupo 1106038" transform="translate(7.97 17.879)">
          <path id="Trazado_896808" data-name="Trazado 896808" d="M22.556,39.08V50.1a.738.738,0,0,0,1.476,0V39.08a.738.738,0,0,0-1.476,0Z" transform="translate(-20.608 -38.342)" fill="#5b874e" fill-rule="evenodd"/>
          <path id="Trazado_896809" data-name="Trazado 896809" d="M23.655,44.026,25.6,42.932a.738.738,0,0,0-.723-1.287l-1.948,1.094a.738.738,0,0,0,.723,1.287Z" transform="translate(-20.607 -39.972)" fill="#5b874e" fill-rule="evenodd"/>
          <path id="Trazado_896810" data-name="Trazado 896810" d="M21.643,46.56,19.7,45.465a.738.738,0,1,0-.723,1.287l1.948,1.094a.738.738,0,0,0,.723-1.287Z" transform="translate(-18.596 -41.913)" fill="#5b874e" fill-rule="evenodd"/>
        </g>
        <path id="Trazado_896811" data-name="Trazado 896811" d="M48.034,62.3c0-6.279-5.09-9.779-11.369-9.779-2.368,0-4.925-1.59-7.482-1.59s-5.114,1.59-7.482,1.59c-6.279,0-11.369,3.5-11.369,9.779v8.345a1.476,1.476,0,0,0,1.476,1.476H46.559a1.476,1.476,0,0,0,1.476-1.476Z" transform="translate(-6.428 -26.857)" fill="#4f4f4f" fill-rule="evenodd"/>
        <path id="Trazado_896812" data-name="Trazado 896812" d="M41.812,41.87a43.782,43.782,0,0,0,0-10.059H48.54a43.754,43.754,0,0,0,0,10.059A5.183,5.183,0,0,1,41.812,41.87Z" transform="translate(-22.42 -17.145)" fill="#f9ab8e" fill-rule="evenodd"/>
        <path id="Trazado_896813" data-name="Trazado 896813" d="M48.43,14.8H34.943v7.49a6.744,6.744,0,0,0,1.975,4.768,16.069,16.069,0,0,0,2.992,2.039,3.367,3.367,0,0,0,3.535,0,16.044,16.044,0,0,0,3.01-2.043,6.742,6.742,0,0,0,1.975-4.768Z" transform="translate(-18.931 -8.501)" fill="#fac7a5" fill-rule="evenodd"/>
        <path id="Trazado_896814" data-name="Trazado 896814" d="M30.041,7.694s0-.133.012-.347A5.073,5.073,0,0,1,33.28,2.8a7.918,7.918,0,0,1,7,.037A5.057,5.057,0,0,1,43.5,7.372c.025.243.03.4.03.4l4.651,2.281a.246.246,0,0,1-.137.465,130.817,130.817,0,0,0-22.467-.038.246.246,0,0,1-.146-.463l4.612-2.322Z" transform="translate(-14.029 -2)" fill="#f3ae24" fill-rule="evenodd"/>
        <path id="Trazado_896815" data-name="Trazado 896815" d="M34.07,11.232a26.827,26.827,0,0,1,13.389,0c.015.133.025.267.03.4.025.243.03.4.03.4l.855.419a.738.738,0,0,1-.823.33,25.433,25.433,0,0,0-13.548,0,.739.739,0,0,1-.854-.38l.883-.444s0-.133.012-.347q.007-.188.027-.373Z" transform="translate(-18.019 -6.258)" fill="#c28b1d" fill-rule="evenodd"/>
        <path id="Trazado_896816" data-name="Trazado 896816" d="M44.017,36.266a4.33,4.33,0,0,0,4.144,0,.738.738,0,0,0-.66-1.32,2.931,2.931,0,0,1-2.8,0,.738.738,0,0,0-.68,1.31Z" transform="translate(-23.338 -18.7)" fill="#f8937b" fill-rule="evenodd"/>
        <path id="Trazado_896817" data-name="Trazado 896817" d="M30.466,59.352a4.187,4.187,0,0,0,4.187,4.187h2.833a4.188,4.188,0,0,0,4.187-4.187V53.619a7.8,7.8,0,0,0,1.879.266q.747,0,1.47.066V64.94a4.065,4.065,0,0,0,2.306,2.36,1.466,1.466,0,0,1,.916,1.359c.009,1.72.009,4.825.009,4.825H23.886V68.66a1.475,1.475,0,0,1,.922-1.368,4.022,4.022,0,0,0,2.309-2.352V53.951q.722-.066,1.47-.066a7.808,7.808,0,0,0,1.879-.266Z" transform="translate(-13.313 -28.224)" fill="#fc685b" fill-rule="evenodd"/>
        <path id="Trazado_896818" data-name="Trazado 896818" d="M30.865,85.606v.941a.738.738,0,1,0,1.476,0v-.941a.738.738,0,1,0-1.476,0Z" transform="translate(-16.859 -44.099)" fill="#cde187" fill-rule="evenodd"/>
        <path id="Trazado_896819" data-name="Trazado 896819" d="M63.435,85.606v.941a.738.738,0,0,0,1.476,0v-.941a.738.738,0,0,0-1.476,0Z" transform="translate(-33.405 -44.099)" fill="#cde187" fill-rule="evenodd"/>
        <path id="Trazado_896820" data-name="Trazado 896820" d="M48.5,80.146a.984.984,0,0,0-.984-.984H40.49a.984.984,0,0,0-.984.984v2.008a1.652,1.652,0,0,0,1.652,1.652h5.693A1.652,1.652,0,0,0,48.5,82.154Z" transform="translate(-21.249 -41.2)" fill="#cde187" fill-rule="evenodd"/>
        <path id="Trazado_896821" data-name="Trazado 896821" d="M63.1,41.687s2.5-1.878,4.241-2.059a2.127,2.127,0,0,1,1.7.353A8.978,8.978,0,0,0,72.6,41.343a.738.738,0,0,0,.295-1.446,8.223,8.223,0,0,1-3.42-1.382,3.375,3.375,0,0,0-2.285-.355c-2.021.211-4.963,2.339-4.963,2.339a.738.738,0,0,0,.875,1.189Z" transform="translate(-32.638 -20.349)" fill="#d0d5fd" fill-rule="evenodd"/>
        <path id="Trazado_896822" data-name="Trazado 896822" d="M78.483,35.933a5.269,5.269,0,0,1,1.508-.461,2.126,2.126,0,0,1,1.7.353,8.974,8.974,0,0,0,3.555,1.362.738.738,0,1,0,.3-1.446,8.232,8.232,0,0,1-3.42-1.382A3.373,3.373,0,0,0,79.838,34a6.8,6.8,0,0,0-1.953.58.738.738,0,1,0,.6,1.349Z" transform="translate(-40.524 -18.238)" fill="#d0d5fd" fill-rule="evenodd"/>
      </g>
      <path id="Trazado_896823" data-name="Trazado 896823" d="M5.808,49.419a5.241,5.241,0,0,1-3.436-5.148,5.777,5.777,0,0,1,1.206-3.589,2.2,2.2,0,0,0,.46-1.9,4.724,4.724,0,0,1-.09-.9,3.87,3.87,0,0,1,.72-2.282,2.192,2.192,0,0,0,.4-1.907,3.476,3.476,0,0,1-.081-.718,2.258,2.258,0,0,1,1.665-2.316.738.738,0,1,0-.273-1.45,3.737,3.737,0,0,0-2.868,3.767,4.978,4.978,0,0,0,.118,1.047c0,.013.006.026.009.038a.706.706,0,0,1-.128.624L3.5,34.7a5.345,5.345,0,0,0-1.023,3.179,6.247,6.247,0,0,0,.121,1.2c0,.008,0,.016.005.024a.719.719,0,0,1-.151.625l-.013.016A7.253,7.253,0,0,0,.9,44.271a6.722,6.722,0,0,0,4.487,6.561.738.738,0,1,0,.426-1.413Z" transform="translate(0 -14.588)" fill-rule="evenodd"/>
      <path id="Trazado_896824" data-name="Trazado 896824" d="M10.815,41.624a6.364,6.364,0,0,1,1.541-4.188,2.2,2.2,0,0,0,.507-2.016,4.8,4.8,0,0,1-.123-1.068,4.268,4.268,0,0,1,.976-2.74v0a2.208,2.208,0,0,0,.417-2.033c0-.008,0-.016-.008-.024a2.5,2.5,0,0,1-.119-.789,2.678,2.678,0,0,1,2.572-2.772,2.678,2.678,0,0,1,2.572,2.772,2.968,2.968,0,0,1-.115.822,2.19,2.19,0,0,0,.412,2.01,4.411,4.411,0,0,1,.841,3.818,2.2,2.2,0,0,0,.509,2.027,6.161,6.161,0,0,1,1.088,1.78.738.738,0,0,0,1.371-.547A7.635,7.635,0,0,0,21.9,36.459l-.011-.012a.726.726,0,0,1-.169-.672v0a5.886,5.886,0,0,0-1.128-5.105l0-.006A.718.718,0,0,1,20.453,30a.012.012,0,0,0,0,0,4.439,4.439,0,0,0,.173-1.23,4.154,4.154,0,0,0-4.047-4.248,4.154,4.154,0,0,0-4.048,4.248,3.97,3.97,0,0,0,.19,1.24.733.733,0,0,1-.141.665,5.741,5.741,0,0,0-1.317,3.683,6.293,6.293,0,0,0,.162,1.407l0,.019a.718.718,0,0,1-.167.665l-.012.014a7.84,7.84,0,0,0-1.913,5.168.738.738,0,1,0,1.476,0Z" transform="translate(-4.289 -12.211)" fill-rule="evenodd"/>
      <path id="Trazado_896825" data-name="Trazado 896825" d="M22.556,39.08v7.348a.738.738,0,0,0,1.476,0V39.08a.738.738,0,0,0-1.476,0Z" transform="translate(-11.004 -19.235)" fill-rule="evenodd"/>
      <path id="Trazado_896826" data-name="Trazado 896826" d="M23.655,44.026,25.6,42.932a.738.738,0,0,0-.723-1.287l-1.948,1.094a.738.738,0,0,0,.723,1.287Z" transform="translate(-11.004 -20.865)" fill-rule="evenodd"/>
      <path id="Trazado_896827" data-name="Trazado 896827" d="M21.643,46.56,19.7,45.465a.738.738,0,1,0-.723,1.287l1.948,1.094a.738.738,0,0,0,.723-1.287Z" transform="translate(-8.992 -22.806)" fill-rule="evenodd"/>
      <path id="Trazado_896828" data-name="Trazado 896828" d="M25.5,50.9a.738.738,0,0,0-.657-.111,13.873,13.873,0,0,1-3.9.9c-6.714,0-12.107,3.8-12.107,10.517v8.345a2.214,2.214,0,0,0,2.214,2.214H45.8a2.214,2.214,0,0,0,2.214-2.214V62.21c0-6.715-5.392-10.517-12.107-10.517a13.876,13.876,0,0,1-3.9-.9.737.737,0,0,0-.657.111,4.509,4.509,0,0,1-5.853,0Zm-.566,1.408a5.749,5.749,0,0,0,6.984,0,13.85,13.85,0,0,0,3.99.86c5.843,0,10.631,3.2,10.631,9.042v8.345a.738.738,0,0,1-.738.738H11.046a.738.738,0,0,1-.738-.738V62.21c0-5.843,4.788-9.042,10.631-9.042a13.865,13.865,0,0,0,3.99-.86Z" transform="translate(-4.032 -25.542)" fill-rule="evenodd"/>
      <path id="Trazado_896829" data-name="Trazado 896829" d="M41.783,46.509c.075-.652.136-1.325.183-2.01a.738.738,0,1,0-1.472-.1c-.045.662-.1,1.313-.177,1.943a.738.738,0,0,0,1.467.168Zm4.968-4.989a46.827,46.827,0,0,0,.294,4.989.738.738,0,1,0,1.466-.168,45.457,45.457,0,0,1-.284-4.83.738.738,0,1,0-1.476.009Z" transform="translate(-20.024 -20.472)" fill-rule="evenodd"/>
      <path id="Trazado_896830" data-name="Trazado 896830" d="M10.072,86.64h6.106a.738.738,0,0,0,0-1.476H10.072a.738.738,0,0,0,0,1.476Z" transform="translate(-4.287 -43.021)" fill-rule="evenodd"/>
      <path id="Trazado_896831" data-name="Trazado 896831" d="M73.292,86.64H79.4a.738.738,0,0,0,0-1.476H73.292a.738.738,0,1,0,0,1.476Z" transform="translate(-36.404 -43.021)" fill-rule="evenodd"/>
      <path id="Trazado_896832" data-name="Trazado 896832" d="M43.054,30.746a16.836,16.836,0,0,0,3.16-2.159,7.481,7.481,0,0,0,2.191-5.29V17.706a.738.738,0,0,0-.7-.737c-4.261-.213-9.3-.252-13.558-.054a.738.738,0,0,0-.7.737V23.3a7.481,7.481,0,0,0,2.191,5.29,16.832,16.832,0,0,0,3.14,2.153,4.1,4.1,0,0,0,4.28.005ZM34.919,18.359c3.823-.152,8.188-.12,12.011.051V23.3a6,6,0,0,1-1.759,4.246,15.209,15.209,0,0,1-2.851,1.922l-.024.014a2.629,2.629,0,0,1-2.76,0l-.025-.015a15.187,15.187,0,0,1-2.833-1.918A6,6,0,0,1,34.919,23.3Z" transform="translate(-16.535 -8.284)" fill-rule="evenodd"/>
      <path id="Trazado_896833" data-name="Trazado 896833" d="M28.558,6.459,24.335,8.584a.984.984,0,0,0,.567,1.855,129.933,129.933,0,0,1,22.3.039.984.984,0,0,0,.547-1.86l-4.273-2.1A5.8,5.8,0,0,0,39.8,1.377a8.551,8.551,0,0,0-7.552-.036,5.812,5.812,0,0,0-3.685,5.118ZM44.762,8.8A143.274,143.274,0,0,0,27.3,8.743L29.61,7.581l-.053.012a.685.685,0,0,0,.459-.65l.012-.342a4.336,4.336,0,0,1,2.758-3.888l.013-.005a7.279,7.279,0,0,1,6.438.035l.017.007A4.319,4.319,0,0,1,42,6.625c0,.016,0,.032,0,.049.015.152.022.266.025.321a.865.865,0,0,0,.527.721Z" transform="translate(-11.633 0)" fill-rule="evenodd"/>
      <path id="Trazado_896834" data-name="Trazado 896834" d="M51.145,11.352A26.993,26.993,0,0,0,40.1,10.665a.738.738,0,0,0,.215,1.46,25.535,25.535,0,0,1,10.447.652.738.738,0,0,0,.384-1.425Z" transform="translate(-19.596 -5.03)" fill-rule="evenodd"/>
      <path id="Trazado_896835" data-name="Trazado 896835" d="M44.017,36.266a4.33,4.33,0,0,0,4.144,0,.738.738,0,0,0-.66-1.32,2.931,2.931,0,0,1-2.8,0,.738.738,0,0,0-.68,1.31Z" transform="translate(-21.704 -17.472)" fill-rule="evenodd"/>
      <path id="Trazado_896836" data-name="Trazado 896836" d="M23.862,72.723V67.9a.738.738,0,0,1,.454-.681,4.765,4.765,0,0,0,2.731-2.783.735.735,0,0,0,.046-.256V53.189a.738.738,0,0,0-1.476,0V64.04a3.28,3.28,0,0,1-1.838,1.8l-.01,0A2.213,2.213,0,0,0,22.386,67.9v4.826a.738.738,0,0,0,1.476,0ZM43.521,53.189v10.99a.747.747,0,0,0,.046.256,4.8,4.8,0,0,0,2.721,2.788.729.729,0,0,1,.455.675v0c.009,1.719.009,4.821.009,4.821a.738.738,0,0,0,1.476,0s0-3.108-.009-4.829a2.2,2.2,0,0,0-1.377-2.04l0,0A3.322,3.322,0,0,1,45,64.04s0-10.851,0-10.851a.738.738,0,0,0-1.476,0Zm-14.555-.332V58.59a4.925,4.925,0,0,0,4.925,4.925h2.833a4.925,4.925,0,0,0,4.925-4.925V52.857a.738.738,0,1,0-1.476,0V58.59a3.448,3.448,0,0,1-3.449,3.449H33.891a3.448,3.448,0,0,1-3.449-3.449V52.857a.738.738,0,1,0-1.476,0Z" transform="translate(-10.917 -26.234)" fill-rule="evenodd"/>
      <path id="Trazado_896837" data-name="Trazado 896837" d="M30.865,85.606v.941a.738.738,0,1,0,1.476,0v-.941a.738.738,0,1,0-1.476,0Z" transform="translate(-15.225 -42.871)" fill-rule="evenodd"/>
      <path id="Trazado_896838" data-name="Trazado 896838" d="M63.435,85.606v.941a.738.738,0,0,0,1.476,0v-.941a.738.738,0,0,0-1.476,0Z" transform="translate(-31.771 -42.871)" fill-rule="evenodd"/>
      <path id="Trazado_896839" data-name="Trazado 896839" d="M48.479,79.384a1.722,1.722,0,0,0-1.722-1.722H39.728a1.722,1.722,0,0,0-1.722,1.722v2.008a2.39,2.39,0,0,0,2.39,2.39h5.693a2.39,2.39,0,0,0,2.39-2.39Zm-1.476,0v2.008a.913.913,0,0,1-.914.914H40.4a.914.914,0,0,1-.914-.914V79.384a.246.246,0,0,1,.246-.246h7.029A.246.246,0,0,1,47,79.384Z" transform="translate(-18.853 -39.21)" fill-rule="evenodd"/>
      <path id="Trazado_896840" data-name="Trazado 896840" d="M63.1,41.687s2.5-1.878,4.241-2.059a2.127,2.127,0,0,1,1.7.353A8.978,8.978,0,0,0,72.6,41.343a.738.738,0,0,0,.295-1.446,8.223,8.223,0,0,1-3.42-1.382,3.375,3.375,0,0,0-2.285-.355c-2.021.211-4.963,2.339-4.963,2.339a.738.738,0,0,0,.875,1.189Z" transform="translate(-31.004 -19.121)" fill-rule="evenodd"/>
      <path id="Trazado_896841" data-name="Trazado 896841" d="M78.483,35.933a5.269,5.269,0,0,1,1.508-.461,2.126,2.126,0,0,1,1.7.353,8.974,8.974,0,0,0,3.555,1.362.738.738,0,1,0,.3-1.446,8.232,8.232,0,0,1-3.42-1.382A3.373,3.373,0,0,0,79.838,34a6.8,6.8,0,0,0-1.953.58.738.738,0,1,0,.6,1.349Z" transform="translate(-38.89 -17.01)" fill-rule="evenodd"/>
    </g>
  </g>
</svg>
