<svg xmlns="http://www.w3.org/2000/svg" width="40.102" height="40.102" viewBox="0 0 40.102 40.102">
  <g id="swamp_9393118" transform="translate(0)">
    <g id="Grupo_1106733" data-name="Grupo 1106733" transform="translate(0.587 0.587)">
      <g id="Grupo_1106732" data-name="Grupo 1106732">
        <g id="Grupo_1106731" data-name="Grupo 1106731">
          <g id="Grupo_1106730" data-name="Grupo 1106730">
            <path id="Trazado_898952" data-name="Trazado 898952" d="M386.67,31.824a1.252,1.252,0,0,1,1.86,1.537,25.647,25.647,0,0,0-1.952,6.06c-.488,5.08-7.057,1.817-4.715-2.568A16.436,16.436,0,0,1,386.67,31.824Z" transform="translate(-352.078 -29.704)" fill="#80d261"/>
            <path id="Trazado_898953" data-name="Trazado 898953" d="M331.153,69c1.122,4.646-5.307,3.093-6.381-2.4a31.175,31.175,0,0,0-1.215-3.12,1.252,1.252,0,0,1,1.86-1.537A14.826,14.826,0,0,1,331.153,69Z" transform="translate(-298.696 -57.467)" fill="#68c441"/>
            <path id="Trazado_898954" data-name="Trazado 898954" d="M322.926,126.748c2.824,3.433-3.247,7.614-4.368,3.412a24.947,24.947,0,0,0-2.009-6.43,1.252,1.252,0,0,1,1.86-1.537A16.854,16.854,0,0,1,322.926,126.748Z" transform="translate(-292.236 -112.995)" fill="#80d261"/>
            <path id="Trazado_898955" data-name="Trazado 898955" d="M187.675,191.743c-2.919-.716-5.377-1.971-8.2-2.939-4.349-.785-6.806,8.022-2.564,7.822l.114-.021C184.032,195.27,190.229,192.511,187.675,191.743Z" transform="translate(-161.614 -174.558)" fill="#ab695d"/>
            <path id="Trazado_898956" data-name="Trazado 898956" d="M19.021,173.185a36.8,36.8,0,0,0-3.863.109,32.462,32.462,0,0,0-4.931.856A3.6,3.6,0,0,0,7.5,177.639v1.423c1.145,4.4,8.574,4.457,15.3,3.194a36.569,36.569,0,0,1,2.564-7.822A21.54,21.54,0,0,0,19.021,173.185Z" transform="translate(-7.5 -160.189)" fill="#935b50"/>
            <path id="Trazado_898957" data-name="Trazado 898957" d="M386.155,122.188a1.252,1.252,0,0,1,1.86,1.537,23.734,23.734,0,0,0-2.084,7.051c-.264,2.359-6.317,2.49-5.762-.694A14.3,14.3,0,0,1,386.155,122.188Z" transform="translate(-350.947 -112.99)" fill="#45af19"/>
            <path id="Trazado_898958" data-name="Trazado 898958" d="M105.273,126.479h2.359v8.285h-2.359Z" transform="translate(-97.615 -117.16)" fill="#f38241"/>
            <path id="Trazado_898959" data-name="Trazado 898959" d="M91.756,32.745v3.539a2.654,2.654,0,1,1-5.308,0V32.745a2.654,2.654,0,1,1,5.308,0Z" transform="translate(-80.265 -28.321)" fill="#68c441"/>
            <path id="Trazado_898960" data-name="Trazado 898960" d="M107.752,9.858a1.18,1.18,0,1,1-2.359,0V8.679a1.18,1.18,0,1,1,2.359,0Z" transform="translate(-97.726 -7.499)" fill="#ffda45"/>
            <path id="Trazado_898961" data-name="Trazado 898961" d="M62.782,204.723c.672.506.644,1.747.03,3.094-2.177,2.744-7.485,3.085-9.659.008-.617-1.349-.646-2.594.027-3.1.59-.445,1.576-.214,2.57.5a.354.354,0,0,0,.54-.173c.641-1.834,1.928-2.343,2.871-1.02a4.072,4.072,0,0,1,.512,1.023.353.353,0,0,0,.539.17C61.206,204.508,62.192,204.278,62.782,204.723Z" transform="translate(-49.144 -187.951)" fill="#ffda45"/>
            <path id="Trazado_898962" data-name="Trazado 898962" d="M181.544,234.12v-4.136a3.6,3.6,0,0,0-2.726-3.489c-9.053-2.285-14.737-.106-20.228,1.282-5.6,2.183-5.788,8.507-1.519,9.286C167.573,237.579,180.166,236.416,181.544,234.12Z" transform="translate(-142.617 -208.425)" fill="#f38241"/>
            <path id="Trazado_898963" data-name="Trazado 898963" d="M23.472,248.947c-.775.2-1.54.374-2.3.514A27.8,27.8,0,0,1,7.5,248.47v6.821c.533,2.244,6.792,2.54,14.148,2.927l.3.015a40.823,40.823,0,0,1,1.519-9.286Z" transform="translate(-7.5 -229.596)" fill="#ea6c2d"/>
            <path id="Trazado_898964" data-name="Trazado 898964" d="M176.528,375.687V374.41c-.456-1.908-13.576-4.064-24.464-4.038-4.961.8-4.446,9.679,1.162,10.505h18.111A5.19,5.19,0,0,0,176.528,375.687Z" transform="translate(-137.601 -341.951)" fill="#935b50"/>
            <path id="Trazado_898965" data-name="Trazado 898965" d="M21.963,370.376h-.291c-7.444.045-13.774,1.128-14.172,4.037v1.277a5.19,5.19,0,0,0,5.19,5.19H23.125A30.076,30.076,0,0,1,21.963,370.376Z" transform="translate(-7.5 -341.954)" fill="#7e4c42"/>
            <path id="Trazado_898966" data-name="Trazado 898966" d="M165.4,319.487c-3.451-.658-6.4-1.823-10.158-2.4-4.88.306-4.582,5.832-.477,6.7q.8.109,1.6.26C165.677,325.488,168.272,320.56,165.4,319.487Z" transform="translate(-140.342 -292.839)" fill="#ff9a69"/>
            <path id="Trazado_898967" data-name="Trazado 898967" d="M22.4,313.062a31.166,31.166,0,0,0-14.9,1.447v6.765a31.146,31.146,0,0,1,14.42-1.514A39.136,39.136,0,0,1,22.4,313.062Z" transform="translate(-7.5 -288.814)" fill="#f38241"/>
            <path id="Trazado_898968" data-name="Trazado 898968" d="M217.863,324.748a34.094,34.094,0,0,1-5.8,2.9c5.326,1.012,9.187,3.066,15.788,2.63a29.331,29.331,0,0,0,7.117-1.376v-7.688a27.252,27.252,0,0,0-13.872,1.876A24.2,24.2,0,0,0,217.863,324.748Z" transform="translate(-196.041 -296.438)" fill="#ab695d"/>
          </g>
        </g>
      </g>
    </g>
    <g id="Grupo_1106734" data-name="Grupo 1106734" transform="translate(0 0)">
      <path id="Trazado_898969" data-name="Trazado 898969" d="M40.1,22.146a4.186,4.186,0,0,0-3.17-4.059q-.36-.091-.713-.172a23.99,23.99,0,0,1,1.973-6.351,1.841,1.841,0,0,0-2.243-2.5,27.256,27.256,0,0,1,1.628-4.574,1.84,1.84,0,0,0-2.733-2.259,17.329,17.329,0,0,0-4.569,4.557,19.576,19.576,0,0,0-2.626-2.2,1.84,1.84,0,0,0-2.733,2.259c.328.73.62,1.447.874,2.142a1.841,1.841,0,0,0-1.423,2.577,25.447,25.447,0,0,1,1.829,5.483c-4.9-1.35-8.379-4.029-15-4.07V11.266A3.219,3.219,0,0,0,12.666,8.55V5.011A3.222,3.222,0,0,0,11.2,2.3V1.767a1.767,1.767,0,0,0-3.534,0v.521A3.218,3.218,0,0,0,6.183,5.011V8.55a3.219,3.219,0,0,0,1.475,2.716v1.9a33.467,33.467,0,0,0-4.488.816A4.186,4.186,0,0,0,0,18.038V34.324A5.784,5.784,0,0,0,5.778,40.1H27.812a.587.587,0,0,0,0-1.175H5.778a4.608,4.608,0,0,1-4.6-4.6v-.852A30.2,30.2,0,0,1,16.5,32.37c1.618.307,3.125.72,4.582,1.118a34.033,34.033,0,0,0,9.547,1.581,29.491,29.491,0,0,0,8.3-1.226v.481a4.608,4.608,0,0,1-4.6,4.6H30.565a.587.587,0,0,0,0,1.175h3.759A5.784,5.784,0,0,0,40.1,34.324c0,.1,0-11.919,0-12.178ZM37.119,11.081a24.94,24.94,0,0,0-2.054,6.586,31.254,31.254,0,0,0-4.477-.558,14.386,14.386,0,0,1,5.544-6.844A.664.664,0,0,1,37.119,11.081Zm-1.6-7.893A.665.665,0,0,1,36.5,4a26.18,26.18,0,0,0-1.955,5.975q-.679.533-1.281,1.1a13.527,13.527,0,0,0-2.171-3.4,15.941,15.941,0,0,1,4.421-4.486ZM26.971,5.547a14.7,14.7,0,0,1,5.4,6.436,15.385,15.385,0,0,0-1.09,1.323,17.818,17.818,0,0,0-4.122-3.959,32.06,32.06,0,0,0-1.173-2.984A.664.664,0,0,1,26.971,5.547Zm-.549,4.718a16.352,16.352,0,0,1,4.161,4.088,11.946,11.946,0,0,0-1.214,2.72c-.675-.005-1.33.013-1.966.052a26.038,26.038,0,0,0-1.967-6.044.664.664,0,0,1,.986-.816Zm-2.53,7.279c-3.257.571-6.046,1.53-8.731,2.124.7-2.675-1.18-4.023-3.6-2.457a4.906,4.906,0,0,0-.368-.725V14.151c5.428.036,8.452,1.88,12.7,3.393Zm-18.878,2.4c-.43-1.082-.357-1.873-.038-2.114.343-.258,1.219-.071,2.231.787a.588.588,0,0,0,.948-.3A4.28,4.28,0,0,1,8.7,17.032a.584.584,0,0,0,.041-.059c.444-.612.911-.625,1.365.006q.015.024.033.046a4.27,4.27,0,0,1,.551,1.287.588.588,0,0,0,.948.3c1.013-.858,1.889-1.045,2.232-.787.319.24.392,1.025-.033,2.1a26.388,26.388,0,0,1-8.825.013Zm5-8.206v3.7a1.747,1.747,0,0,0-1.184,0v-3.7A3.215,3.215,0,0,0,10.017,11.736ZM8.842,1.767a.592.592,0,0,1,1.184,0v1.18a.592.592,0,0,1-1.184,0ZM7.358,5.011a2.057,2.057,0,0,1,.474-1.32,1.766,1.766,0,0,0,3.2.015,2.059,2.059,0,0,1,.462,1.3V8.55a2.067,2.067,0,1,1-4.133,0Zm-3.9,10.107a32.347,32.347,0,0,1,4.2-.773v2.141a4.9,4.9,0,0,0-.369.726c-2.454-1.587-4.3-.177-3.595,2.479q-1.259-.271-2.519-.66v-.993a3.012,3.012,0,0,1,2.283-2.92ZM1.175,32.238V26.707a34.541,34.541,0,0,1,4.081-1.061.587.587,0,1,0-.224-1.153,35.559,35.559,0,0,0-3.857.982V20.258a28.072,28.072,0,0,0,13.177.774c1.26-.21,3.44-.806,4.366-1.057,5.092-1.379,10.291-2.676,17.927-.75a3.013,3.013,0,0,1,2.283,2.92v2.541a28.039,28.039,0,0,0-13.345,1.937c-5.2-1.022-9.939-3.382-17.779-2.548a.587.587,0,0,0,.124,1.168c6.851-.728,11.318,1.1,15.887,2.195-.586.3-1.158.618-1.711.958a33.926,33.926,0,0,1-5.55,2.789A31.265,31.265,0,0,0,1.175,32.238Zm31.184,1.6a30.381,30.381,0,0,1-10.966-1.481c-.915-.25-1.85-.506-2.824-.739A37.484,37.484,0,0,0,22.717,29.4a23.7,23.7,0,0,1,3.154-1.622,27.2,27.2,0,0,1,13.056-1.9v6.743A28.693,28.693,0,0,1,32.358,33.837Z" transform="translate(0 0)"/>
    </g>
  </g>
</svg>
