<svg xmlns="http://www.w3.org/2000/svg" width="37.207" height="38.131" viewBox="0 0 37.207 38.131">
  <g id="smart-farm_1143928" transform="translate(-0.001 0)">
    <path id="Trazado_898993" data-name="Trazado 898993" d="M60.844,253.46h3.13v-2.81a2.85,2.85,0,0,0-2.85-2.85.28.28,0,0,0-.28.28Zm0,0" transform="translate(-56.312 -229.346)" fill="#5be167"/>
    <path id="Trazado_898994" data-name="Trazado 898994" d="M173.446,271.581v-4.118a.28.28,0,0,0-.28-.28,2.85,2.85,0,0,0-2.85,2.85v1.548Zm0,0" transform="translate(-157.632 -247.285)" fill="#5be167"/>
    <path id="Trazado_898995" data-name="Trazado 898995" d="M43.59,319.345v11.181a.745.745,0,0,1-.745.745H8.245a.745.745,0,0,1-.745-.745V319.345a2.013,2.013,0,0,1,2.013-2.013H41.576a2.013,2.013,0,0,1,2.013,2.013Zm0,0" transform="translate(-6.941 -293.698)" fill="#e29c6d"/>
    <path id="Trazado_898996" data-name="Trazado 898996" d="M42.845,386.058H8.245a.745.745,0,0,1-.745-.745v-8.786H43.59v8.786A.745.745,0,0,1,42.845,386.058Zm0,0" transform="translate(-6.941 -348.485)" fill="#fedfc5"/>
    <path id="Trazado_898997" data-name="Trazado 898997" d="M42.845,457.9H8.245a.745.745,0,0,1-.745-.745v-3H43.59v3A.745.745,0,0,1,42.845,457.9Zm0,0" transform="translate(-6.941 -420.329)" fill="#618baa"/>
    <path id="Trazado_898998" data-name="Trazado 898998" d="M62.808,98.614V96.171A3.167,3.167,0,0,0,59.641,93H57.2a.6.6,0,0,0-.6.6v2.443a3.167,3.167,0,0,0,3.167,3.167h2.443A.6.6,0,0,0,62.808,98.614Zm0,0" transform="translate(-52.382 -86.077)" fill="#5be167"/>
    <path id="Trazado_898999" data-name="Trazado 898999" d="M110.388,344.336a2.59,2.59,0,1,1-2.59-2.59A2.59,2.59,0,0,1,110.388,344.336Zm0,0" transform="translate(-97.371 -316.294)" fill="#19aa60"/>
    <path id="Trazado_899000" data-name="Trazado 899000" d="M127.4,362.839a1.1,1.1,0,1,1-1.1-1.1A1.1,1.1,0,0,1,127.4,362.839Zm0,0" transform="translate(-115.874 -334.797)" fill="#fdb659"/>
    <path id="Trazado_899001" data-name="Trazado 899001" d="M139.988,135.52v-2.443a3.167,3.167,0,0,1,3.167-3.167H145.6a.6.6,0,0,1,.6.6v2.443a3.167,3.167,0,0,1-3.167,3.167h-2.443A.6.6,0,0,1,139.988,135.52Zm0,0" transform="translate(-129.562 -120.235)" fill="#1fc974"/>
    <path id="Trazado_899002" data-name="Trazado 899002" d="M119.965,12.112a1.752,1.752,0,1,1-3.5,0c0-.968.785-3.381,1.752-3.381S119.965,11.144,119.965,12.112Zm0,0" transform="translate(-107.787 -8.08)" fill="#19aa60"/>
    <path id="Trazado_899003" data-name="Trazado 899003" d="M365.285,28.645h-7.6a.753.753,0,0,1-.753-.753v-13.9a.753.753,0,0,1,.753-.753h7.6a.753.753,0,0,1,.753.753v13.9A.753.753,0,0,1,365.285,28.645Zm0,0" transform="translate(-330.347 -12.253)" fill="#fdb659"/>
    <path id="Trazado_899004" data-name="Trazado 899004" d="M34.636,24.214H24.792a.559.559,0,1,0,0,1.117h9.844a1.456,1.456,0,0,1,1.455,1.455v1.837H13.525a3.156,3.156,0,0,0-2.54-2.54v-.752H22.247a.559.559,0,1,0,0-1.117H16.373v-2.9a.839.839,0,0,0-.838-.839,3.412,3.412,0,0,0-3.409,3.409v.326H10.985V17.581l.042,0H13.47A3.73,3.73,0,0,0,17.2,13.857V11.414a1.16,1.16,0,0,0-1.158-1.158H13.593a3.712,3.712,0,0,0-2.609,1.069V7.413A2.315,2.315,0,0,0,12.737,5.17c0-1.012-.794-3.94-2.31-3.94S8.116,4.158,8.116,5.17A2.315,2.315,0,0,0,9.868,7.413V8.576A3.711,3.711,0,0,0,7.259,7.507H4.816A1.16,1.16,0,0,0,3.657,8.666v2.443a3.73,3.73,0,0,0,3.726,3.726H9.826l.042,0v9.381H8.22v-1.77a3.412,3.412,0,0,0-3.408-3.408.839.839,0,0,0-.838.838v4.34h-1.4A2.574,2.574,0,0,0,0,26.785V37.967a1.3,1.3,0,0,0,1.3,1.3H26.268a.559.559,0,1,0,0-1.117H1.3a.186.186,0,0,1-.186-.186V35.52H36.09v2.446a.186.186,0,0,1-.186.186h-7.09a.559.559,0,1,0,0,1.117H35.9a1.3,1.3,0,0,0,1.3-1.3V26.785a2.574,2.574,0,0,0-2.572-2.572Zm-21.392-.326a2.3,2.3,0,0,1,2.013-2.275v2.6H13.244Zm.35-12.515h2.443a.041.041,0,0,1,.041.041v2.443a2.611,2.611,0,0,1-2.608,2.608H11.743L13.91,14.3a.559.559,0,0,0-.79-.79l-2.136,2.136V13.981a2.611,2.611,0,0,1,2.608-2.608ZM9.233,5.17A5.462,5.462,0,0,1,9.7,3.341c.358-.816.669-.993.727-.993s.37.177.727.993a5.462,5.462,0,0,1,.466,1.83,1.194,1.194,0,0,1-2.387,0ZM4.774,11.109V8.666a.042.042,0,0,1,.042-.042H7.259a2.612,2.612,0,0,1,2.609,2.609v1.662L7.732,10.76a.559.559,0,0,0-.79.79L9.11,13.717H7.383A2.612,2.612,0,0,1,4.774,11.109Zm7.684,18.072a2.032,2.032,0,1,1-2.59-1.953v.39a1.66,1.66,0,1,0,1.117,0v-.39A2.035,2.035,0,0,1,12.458,29.181Zm-2.032-.543a.543.543,0,1,1-.543.543A.543.543,0,0,1,10.426,28.638ZM5.091,20.169A2.294,2.294,0,0,1,7.1,22.444v1.77H5.091ZM2.572,25.331h7.3v.752a3.156,3.156,0,0,0-2.54,2.54H1.118V26.785a1.456,1.456,0,0,1,1.455-1.455ZM1.118,34.4V29.739h6.21a3.148,3.148,0,0,0,6.2,0H36.09V34.4Zm0,0" transform="translate(0 -1.139)"/>
    <path id="Trazado_899005" data-name="Trazado 899005" d="M443.707,468.289a.559.559,0,0,0-.559-.559h-.007a.555.555,0,0,0-.555.559.56.56,0,0,0,1.121,0Zm0,0" transform="translate(-409.624 -432.896)"/>
    <path id="Trazado_899006" data-name="Trazado 899006" d="M418.366,472.945a.559.559,0,0,0,0-1.117h-.01a.555.555,0,0,0-.552.561.561.561,0,0,0,.562.556Zm0,0" transform="translate(-386.685 -436.688)"/>
    <path id="Trazado_899007" data-name="Trazado 899007" d="M275.18,338.934a.556.556,0,0,0-.555.559.56.56,0,1,0,.562-.559Zm0,0" transform="translate(-254.172 -313.692)"/>
    <path id="Trazado_899008" data-name="Trazado 899008" d="M250.395,338.934a.555.555,0,0,0-.555.559.56.56,0,1,0,.562-.559Zm0,0" transform="translate(-231.232 -313.692)"/>
    <path id="Trazado_899009" data-name="Trazado 899009" d="M193.379,476.84a.555.555,0,0,0-.555.559.56.56,0,1,0,.562-.559Zm0,0" transform="translate(-178.463 -441.327)"/>
    <path id="Trazado_899010" data-name="Trazado 899010" d="M123.348,467.73a.556.556,0,0,0-.555.559.56.56,0,1,0,.562-.559Zm0,0" transform="translate(-113.647 -432.896)"/>
    <path id="Trazado_899011" data-name="Trazado 899011" d="M261.551,17.378h2.823a.559.559,0,0,0,.559-.559V9.248h2.646v6.392a1.313,1.313,0,0,0,1.311,1.311h2.359a.559.559,0,1,0,0-1.117H268.89a.194.194,0,0,1-.194-.194V1.739a.194.194,0,0,1,.194-.194h7.6a.194.194,0,0,1,.194.194v13.9a.194.194,0,0,1-.194.194h-2.7a.559.559,0,1,0,0,1.117h2.7a1.313,1.313,0,0,0,1.311-1.311V1.739A1.313,1.313,0,0,0,276.492.428h-7.6a1.313,1.313,0,0,0-1.311,1.311V8.131h-2.646V.559A.559.559,0,0,0,264.373,0h-2.823a.559.559,0,1,0,0,1.117h2.264V16.261h-2.264a.559.559,0,1,0,0,1.117Zm0,0" transform="translate(-241.554 0)"/>
    <path id="Trazado_899012" data-name="Trazado 899012" d="M261.551,43.762h1.012a.559.559,0,1,0,0-1.117h-1.012a.559.559,0,1,0,0,1.117Zm0,0" transform="translate(-241.554 -39.468)"/>
    <path id="Trazado_899013" data-name="Trazado 899013" d="M261.551,88.109h1.012a.559.559,0,1,0,0-1.117h-1.012a.559.559,0,1,0,0,1.117Zm0,0" transform="translate(-241.554 -80.513)"/>
    <path id="Trazado_899014" data-name="Trazado 899014" d="M261.551,132.461h1.012a.559.559,0,1,0,0-1.117h-1.012a.559.559,0,1,0,0,1.117Zm0,0" transform="translate(-241.554 -121.562)"/>
    <path id="Trazado_899015" data-name="Trazado 899015" d="M261.551,176.808h1.012a.559.559,0,1,0,0-1.117h-1.012a.559.559,0,1,0,0,1.117Zm0,0" transform="translate(-241.554 -162.606)"/>
    <path id="Trazado_899016" data-name="Trazado 899016" d="M382.332,51.078h1.3a.559.559,0,1,0,0-1.117h-1.3a.559.559,0,0,0,0,1.117Zm0,0" transform="translate(-353.34 -46.24)"/>
    <path id="Trazado_899017" data-name="Trazado 899017" d="M382.332,91.656h4.526a.559.559,0,1,0,0-1.117h-4.526a.559.559,0,0,0,0,1.117Zm0,0" transform="translate(-353.34 -83.796)"/>
    <path id="Trazado_899018" data-name="Trazado 899018" d="M382.332,117.6h4.526a.559.559,0,1,0,0-1.117h-4.526a.559.559,0,0,0,0,1.117Zm0,0" transform="translate(-353.34 -107.809)"/>
    <path id="Trazado_899019" data-name="Trazado 899019" d="M382.332,143.547h4.526a.559.559,0,0,0,0-1.117h-4.526a.559.559,0,0,0,0,1.117Zm0,0" transform="translate(-353.34 -131.822)"/>
    <path id="Trazado_899020" data-name="Trazado 899020" d="M382.332,169.492h4.526a.559.559,0,1,0,0-1.117h-4.526a.559.559,0,0,0,0,1.117Zm0,0" transform="translate(-353.34 -155.835)"/>
  </g>
</svg>
