<svg xmlns="http://www.w3.org/2000/svg" xmlns:xlink="http://www.w3.org/1999/xlink" width="94.049" height="94.049" viewBox="0 0 94.049 94.049">
  <defs>
    <filter id="plant-growing-soil-with-sun-shining-it" x="0" y="0" width="94.049" height="94.049" filterUnits="userSpaceOnUse">
      <feOffset dy="3" input="SourceAlpha"/>
      <feGaussianBlur stdDeviation="3" result="blur"/>
      <feFlood flood-opacity="0.161"/>
      <feComposite operator="in" in2="blur"/>
      <feComposite in="SourceGraphic"/>
    </filter>
  </defs>
  <g id="Grupo_1106766" data-name="Grupo 1106766" transform="translate(9 6)">
    <g transform="matrix(1, 0, 0, 1, -9, -6)" filter="url(#plant-growing-soil-with-sun-shining-it)">
      <g id="plant-growing-soil-with-sun-shining-it-2" data-name="plant-growing-soil-with-sun-shining-it" transform="translate(9 6)" fill="#a8d549">
        <path d="M 38.024658203125 73.54931640625 C 33.22776412963867 73.54931640625 28.57567024230957 72.61039733886719 24.19762229919434 70.75864410400391 C 19.96767044067383 68.96952056884766 16.16825866699219 66.40771484375 12.90492916107178 63.14438629150391 C 9.641599655151367 59.88105773925781 7.079799175262451 56.08164596557617 5.290681838989258 51.85169219970703 C 3.438916921615601 47.47364807128906 2.499999284744263 42.82156372070312 2.499999284744263 38.024658203125 C 2.499999284744263 33.22776412963867 3.438916921615601 28.57567024230957 5.290681838989258 24.19762229919434 C 7.079799175262451 19.96767044067383 9.641599655151367 16.16825866699219 12.90492916107178 12.90492916107178 C 16.16825866699219 9.641599655151367 19.96767044067383 7.079799175262451 24.19762229919434 5.290681838989258 C 28.57567024230957 3.438916921615601 33.22776412963867 2.499999284744263 38.024658203125 2.499999284744263 C 42.82155227661133 2.499999284744263 47.4736328125 3.438916921615601 51.85168075561523 5.290681838989258 C 56.08163452148438 7.079799175262451 59.88104629516602 9.641599655151367 63.14437484741211 12.90492916107178 C 66.40770721435547 16.16825866699219 68.96952056884766 19.96767044067383 70.75863647460938 24.19762229919434 C 72.61039733886719 28.57567024230957 73.54931640625 33.22776412963867 73.54931640625 38.024658203125 C 73.54931640625 42.82156372070312 72.61039733886719 47.47364807128906 70.75863647460938 51.85169219970703 C 68.96952056884766 56.08164596557617 66.40770721435547 59.88105773925781 63.14437484741211 63.14438629150391 C 59.88104629516602 66.40771484375 56.08163452148438 68.96952056884766 51.85168075561523 70.75864410400391 C 47.4736328125 72.61039733886719 42.82155227661133 73.54931640625 38.024658203125 73.54931640625 Z" stroke="none"/>
        <path d="M 38.024658203125 5 C 33.56415939331055 5 29.23973083496094 5.872474670410156 25.17150115966797 7.593185424804688 C 21.23954391479492 9.256271362304688 17.70724487304688 11.63816070556641 14.67270278930664 14.67270278930664 C 11.63816070556641 17.70724487304688 9.256271362304688 21.23954391479492 7.593185424804688 25.17150115966797 C 5.872474670410156 29.23973083496094 5 33.56415939331055 5 38.024658203125 C 5 42.48515701293945 5.872474670410156 46.80958557128906 7.593185424804688 50.87781524658203 C 9.256271362304688 54.80977249145508 11.63816070556641 58.34207153320312 14.67270278930664 61.37661743164062 C 17.70724487304688 64.41115570068359 21.23954391479492 66.79304504394531 25.17150115966797 68.45613098144531 C 29.23973083496094 70.17684173583984 33.56415939331055 71.04931640625 38.024658203125 71.04931640625 C 42.48515701293945 71.04931640625 46.80958557128906 70.17684173583984 50.87779998779297 68.45613098144531 C 54.80976104736328 66.79304504394531 58.34207153320312 64.41115570068359 61.37661743164062 61.37661743164062 C 64.41115570068359 58.34207153320312 66.79304504394531 54.80977249145508 68.45613098144531 50.87781524658203 C 70.17684173583984 46.80958557128906 71.04931640625 42.48515701293945 71.04931640625 38.024658203125 C 71.04931640625 33.56415939331055 70.17684173583984 29.23973083496094 68.45613098144531 25.17150115966797 C 66.79304504394531 21.23954391479492 64.41115570068359 17.70724487304688 61.37661743164062 14.67270278930664 C 58.34207153320312 11.63816070556641 54.80976104736328 9.256271362304688 50.87779998779297 7.593185424804688 C 46.80958557128906 5.872474670410156 42.48515701293945 5 38.024658203125 5 M 38.024658203125 0 C 59.02508544921875 0 76.04931640625 17.02421569824219 76.04931640625 38.024658203125 C 76.04931640625 59.02510070800781 59.02508544921875 76.04931640625 38.024658203125 76.04931640625 C 17.02421569824219 76.04931640625 0 59.02510070800781 0 38.024658203125 C 0 17.02421569824219 17.02421569824219 0 38.024658203125 0 Z" stroke="none" fill="#65802c"/>
      </g>
    </g>
    <g id="Grupo_1106772" data-name="Grupo 1106772">
      <rect id="Rectángulo_403224" data-name="Rectángulo 403224" width="39" height="17" transform="translate(17.233 38.28)" fill="#736d6d"/>
      <g id="sembrar" transform="translate(17.435 14.713)">
        <g id="Grupo_1106769" data-name="Grupo 1106769" transform="translate(0 1.67)">
          <path id="Trazado_899057" data-name="Trazado 899057" d="M0,18.854H8.936l3.289-3.431,8.15-4.362a3.69,3.69,0,0,1-.938,4.535L17.3,17.353q0,.071,0,.142H27.7a1.609,1.609,0,0,1,0,3.217h2.324a1.609,1.609,0,1,1,0,3.217H28.49a1.609,1.609,0,0,1,0,3.217H26.274a1.609,1.609,0,0,1,0,3.217H15.158a10.529,10.529,0,0,1-5.888-1.8l-.405-.273H0Z" transform="translate(0 -11.061)" fill="#ffceb7"/>
          <path id="Trazado_899058" data-name="Trazado 899058" d="M41.18,311.276h-2.7l-3.943,2.464s-.37,3.758-3.2,3.758c-.905,0-1.479.678-1.693,3.2-.192,2.257-.593,3.835-6.284,3.835-5.459,0-6.364-2.043-6.364-4.423a3.572,3.572,0,0,0-2.915-3.474c-3.145,0-4.312-4.744-4.312-4.744l-6.079-3.025H0v16.252H41.18Z" transform="translate(0 -284.915)" fill="#e6cc9f"/>
          <path id="Trazado_899059" data-name="Trazado 899059" d="M380.834,242.569a9.177,9.177,0,0,1,.078,6.006,7.754,7.754,0,0,1-4.423-10.154A9.177,9.177,0,0,1,380.834,242.569Z" transform="translate(-345.762 -220.135)" fill="#8ae897"/>
          <g id="Grupo_1106768" data-name="Grupo 1106768" transform="translate(15.36 10.733)">
            <g id="Grupo_1106767" data-name="Grupo 1106767" transform="translate(0 0)">
              <ellipse id="Elipse_11687" data-name="Elipse 11687" cx="2.011" cy="3.257" rx="2.011" ry="3.257" transform="translate(0.458 12.987)" fill="#e6cc9f"/>
              <ellipse id="Elipse_11688" data-name="Elipse 11688" cx="3.257" cy="2.011" rx="3.257" ry="2.011" transform="translate(0 4.606) rotate(-45)" fill="#e6cc9f"/>
              <ellipse id="Elipse_11689" data-name="Elipse 11689" cx="1.489" cy="2.413" rx="1.489" ry="2.413" transform="translate(8.557 19.438)" fill="#e6cc9f"/>
              <ellipse id="Elipse_11690" data-name="Elipse 11690" cx="1.489" cy="2.413" rx="1.489" ry="2.413" transform="translate(5.861 7.437)" fill="#e6cc9f"/>
            </g>
            <path id="Trazado_899060" data-name="Trazado 899060" d="M206.639,162.719c-.677-.677-.391-2.453.882-3.725a4.442,4.442,0,0,1,1.55-1.013c-.768-.5-2.381-.167-3.561,1.013-1.272,1.272-1.558,3.048-.882,3.725a2.115,2.115,0,0,0,2.175.131A1.011,1.011,0,0,1,206.639,162.719Z" transform="translate(-203.203 -156.691)" fill="#dfba7f"/>
            <path id="Trazado_899061" data-name="Trazado 899061" d="M198.678,309.241a4.018,4.018,0,0,1,1.005-2.754,1.467,1.467,0,0,0-1.005-.5c-.957,0-2.011,1.458-2.011,3.257s1.054,3.257,2.011,3.257a1.467,1.467,0,0,0,1.005-.5A4.018,4.018,0,0,1,198.678,309.241Z" transform="translate(-196.209 -292.997)" fill="#dfba7f"/>
          </g>
          <path id="Trazado_899062" data-name="Trazado 899062" d="M0,308.867H2.011v16.252H0Z" transform="translate(0 -284.915)" fill="#dfba7f"/>
          <path id="Trazado_899063" data-name="Trazado 899063" d="M378.577,244.426a8.511,8.511,0,0,1-.352-4.967,9.744,9.744,0,0,0-1.738-1.04,7.754,7.754,0,0,0,4.423,10.154,8.426,8.426,0,0,0,.273-1.04A7.945,7.945,0,0,1,378.577,244.426Z" transform="translate(-345.761 -220.134)" fill="#54e072"/>
          <path id="Trazado_899064" data-name="Trazado 899064" d="M429.891,278.293c-1.1,1.973-.009,4.685-.009,4.685s2.883-.488,3.986-2.461.009-4.685.009-4.685S430.994,276.32,429.891,278.293Z" transform="translate(-394.863 -254.537)" fill="#8ae897"/>
          <path id="Trazado_899065" data-name="Trazado 899065" d="M431.9,278.293a4.739,4.739,0,0,1,2.17-1.863c-.1-.37-.195-.6-.195-.6s-2.883.488-3.986,2.461-.009,4.685-.009,4.685a7.835,7.835,0,0,0,1.816-.6A5.651,5.651,0,0,1,431.9,278.293Z" transform="translate(-394.863 -254.537)" fill="#54e072"/>
          <path id="Trazado_899066" data-name="Trazado 899066" d="M0,107.951v9.438H1.995l.016-9.438Z" transform="translate(0 -100.158)" fill="#ffaa81"/>
        </g>
        <g id="Grupo_1106770" data-name="Grupo 1106770" transform="translate(8.928 37.101)">
          <path id="Trazado_899067" data-name="Trazado 899067" d="M111.01,451.581h1.206v1.206H111.01Z" transform="translate(-111.01 -451.581)" fill="#fff"/>
          <path id="Trazado_899068" data-name="Trazado 899068" d="M141.01,451.581h1.206v1.206H141.01Z" transform="translate(-138.597 -451.581)" fill="#fff"/>
        </g>
        <g id="Grupo_1106771" data-name="Grupo 1106771" transform="translate(0 0.849)">
          <path id="Trazado_899069" data-name="Trazado 899069" d="M31.591,11.367a2.194,2.194,0,0,0-1.564-.649h-.354A2.216,2.216,0,0,0,27.7,7.5H18.811l1.01-.831a4.317,4.317,0,0,0,1.091-5.276l-.28-.546-8.775,4.7L8.679,8.86H5.764v1.206h3.43l3.4-3.548,7.469-4a3.108,3.108,0,0,1-1.009,3.218L16.7,7.678a4.427,4.427,0,0,1-4.4,4.686V13.57a5.617,5.617,0,0,0,5.558-4.862H27.7a1.005,1.005,0,0,1,0,2.011H19.088v1.206H30.027a1,1,0,0,1,.711.295,1.008,1.008,0,0,1-.711,1.716H22.178c-.807-1.712-3.309-1.25-4.938.343A4.875,4.875,0,0,0,15.9,16.666c-.613,3.207,2.646,3.315,4.6,1.693h5.768a1.005,1.005,0,0,1,0,2.011H24.318a1.71,1.71,0,0,0-3.215,0H15.158A10.2,10.2,0,0,1,9.049,18.3H0V19.5H8.681a11.166,11.166,0,0,0,6.478,2.073h5.518c-.343,1.629.7,3.725,2.034,3.693,1.338.032,2.377-2.065,2.034-3.693h1.529a2.222,2.222,0,0,0,1.971-3.217,2.23,2.23,0,0,0,2.2-3.256,2.219,2.219,0,0,0,1.15-3.736Zm-8.88,12.7c-.263,0-.886-.7-.886-1.81s.623-1.81.886-1.81.886.7.886,1.81S22.974,24.063,22.711,24.063Zm-2.627-6.941c-1.146,1.146-2.53,1.223-2.872.882a1.251,1.251,0,0,1-.127-1.088,3.71,3.71,0,0,1,1.008-1.785c.807-.832,2.226-1.364,2.872-.882C21.307,14.592,21.23,15.977,20.084,17.123Zm8.406.03H21.606a4.44,4.44,0,0,0,.737-2.011H28.49a1.005,1.005,0,0,1,0,2.011Z" transform="translate(0 -0.849)"/>
          <path id="Trazado_899070" data-name="Trazado 899070" d="M0,100.451H4.557v1.206H0Z" transform="translate(0 -92.44)"/>
          <path id="Trazado_899071" data-name="Trazado 899071" d="M23.364,317.039c-5.315,0-5.76-1.972-5.76-3.819a4.149,4.149,0,0,0-3.518-4.078c-2.753-.033-3.775-4.463-3.794-4.556l-6.456-3.213H0v1.206H3.552L7.207,304.4H1.7V305.6H9.32a9.064,9.064,0,0,0,2.012,3.537H6.878v1.206h7.208a3.006,3.006,0,0,1,2.312,2.871,4.528,4.528,0,0,0,1.337,3.554c1.113.99,2.955,1.471,5.63,1.471,4.291,0,6.169-.856,6.7-3.054l-1.173-.281C28.628,315.987,27.989,317.039,23.364,317.039Z" transform="translate(0 -277.202)"/>
          <path id="Trazado_899072" data-name="Trazado 899072" d="M189.167,302.345c0,2.057,1.221,3.861,2.614,3.861s2.614-1.8,2.614-3.861-1.221-3.861-2.614-3.861S189.167,300.288,189.167,302.345Zm4.021,0c0,1.62-.924,2.654-1.408,2.654s-1.408-1.034-1.408-2.654.924-2.654,1.408-2.654S193.188,300.724,193.188,302.345Z" transform="translate(-173.952 -274.546)"/>
          <path id="Trazado_899073" data-name="Trazado 899073" d="M371.108,237.859h2.135v-1.206h-1.406a7.22,7.22,0,0,0-.381-5.139,7.824,7.824,0,0,0-3.779,1.55,9.669,9.669,0,0,0-5.239-4.691c-1.391,3.582-1.175,8.25,3.591,11.017-.075,1.187-.782,3.55-2.625,3.486h0c-1.756,0-2.145,1.944-2.3,3.8l1.2.083c.2-2.595.817-2.706,1.095-2.676.012,0,8.3,0,8.31,0v-1.206h-5.758a5.8,5.8,0,0,0,1.163-2.551h4.164v-1.206h-1.8A5.642,5.642,0,0,0,371.108,237.859Zm-7.687-2.913a8.133,8.133,0,0,1-.249-4.891,7.866,7.866,0,0,1,3.59,3.987,5.418,5.418,0,0,0-.657,3.958A7.593,7.593,0,0,1,363.422,234.946Zm4.061,3.674c-.86-3,.2-4.88,3.2-5.716C371.538,235.9,370.479,237.784,367.483,238.62Z" transform="translate(-332.063 -210.073)"/>
          <path id="Trazado_899074" data-name="Trazado 899074" d="M289.871,381.7c0,1.607.978,3.016,2.093,3.016s2.093-1.409,2.093-3.016-.978-3.016-2.093-3.016S289.871,380.1,289.871,381.7Zm2.979,0c0,1.107-.623,1.81-.886,1.81s-.886-.7-.886-1.81.623-1.81.886-1.81S292.85,380.595,292.85,381.7Z" transform="translate(-266.557 -348.297)"/>
        </g>
      </g>
    </g>
  </g>
</svg>
