<svg xmlns="http://www.w3.org/2000/svg" xmlns:xlink="http://www.w3.org/1999/xlink" width="94.049" height="94.049" viewBox="0 0 94.049 94.049">
  <defs>
    <filter id="plant-growing-soil-with-sun-shining-it" x="0" y="0" width="94.049" height="94.049" filterUnits="userSpaceOnUse">
      <feOffset dy="3" input="SourceAlpha"/>
      <feGaussianBlur stdDeviation="3" result="blur"/>
      <feFlood flood-opacity="0.161"/>
      <feComposite operator="in" in2="blur"/>
      <feComposite in="SourceGraphic"/>
    </filter>
  </defs>
  <g id="Grupo_1106764" data-name="Grupo 1106764" transform="translate(9 6)">
    <g transform="matrix(1, 0, 0, 1, -9, -6)" filter="url(#plant-growing-soil-with-sun-shining-it)">
      <g id="plant-growing-soil-with-sun-shining-it-2" data-name="plant-growing-soil-with-sun-shining-it" transform="translate(9 6)" fill="#a8d549">
        <path d="M 38.024658203125 73.54931640625 C 33.22776412963867 73.54931640625 28.57567024230957 72.61039733886719 24.19762229919434 70.75864410400391 C 19.96767044067383 68.96952056884766 16.16825866699219 66.40771484375 12.90492916107178 63.14438629150391 C 9.641599655151367 59.88105773925781 7.079799175262451 56.08164596557617 5.290681838989258 51.85169219970703 C 3.438916921615601 47.47364807128906 2.499999284744263 42.82156372070312 2.499999284744263 38.024658203125 C 2.499999284744263 33.22776412963867 3.438916921615601 28.57567024230957 5.290681838989258 24.19762229919434 C 7.079799175262451 19.96767044067383 9.641599655151367 16.16825866699219 12.90492916107178 12.90492916107178 C 16.16825866699219 9.641599655151367 19.96767044067383 7.079799175262451 24.19762229919434 5.290681838989258 C 28.57567024230957 3.438916921615601 33.22776412963867 2.499999284744263 38.024658203125 2.499999284744263 C 42.82155227661133 2.499999284744263 47.4736328125 3.438916921615601 51.85168075561523 5.290681838989258 C 56.08163452148438 7.079799175262451 59.88104629516602 9.641599655151367 63.14437484741211 12.90492916107178 C 66.40770721435547 16.16825866699219 68.96952056884766 19.96767044067383 70.75863647460938 24.19762229919434 C 72.61039733886719 28.57567024230957 73.54931640625 33.22776412963867 73.54931640625 38.024658203125 C 73.54931640625 42.82156372070312 72.61039733886719 47.47364807128906 70.75863647460938 51.85169219970703 C 68.96952056884766 56.08164596557617 66.40770721435547 59.88105773925781 63.14437484741211 63.14438629150391 C 59.88104629516602 66.40771484375 56.08163452148438 68.96952056884766 51.85168075561523 70.75864410400391 C 47.4736328125 72.61039733886719 42.82155227661133 73.54931640625 38.024658203125 73.54931640625 Z" stroke="none"/>
        <path d="M 38.024658203125 5 C 33.56415939331055 5 29.23973083496094 5.872474670410156 25.17150115966797 7.593185424804688 C 21.23954391479492 9.256271362304688 17.70724487304688 11.63816070556641 14.67270278930664 14.67270278930664 C 11.63816070556641 17.70724487304688 9.256271362304688 21.23954391479492 7.593185424804688 25.17150115966797 C 5.872474670410156 29.23973083496094 5 33.56415939331055 5 38.024658203125 C 5 42.48515701293945 5.872474670410156 46.80958557128906 7.593185424804688 50.87781524658203 C 9.256271362304688 54.80977249145508 11.63816070556641 58.34207153320312 14.67270278930664 61.37661743164062 C 17.70724487304688 64.41115570068359 21.23954391479492 66.79304504394531 25.17150115966797 68.45613098144531 C 29.23973083496094 70.17684173583984 33.56415939331055 71.04931640625 38.024658203125 71.04931640625 C 42.48515701293945 71.04931640625 46.80958557128906 70.17684173583984 50.87779998779297 68.45613098144531 C 54.80976104736328 66.79304504394531 58.34207153320312 64.41115570068359 61.37661743164062 61.37661743164062 C 64.41115570068359 58.34207153320312 66.79304504394531 54.80977249145508 68.45613098144531 50.87781524658203 C 70.17684173583984 46.80958557128906 71.04931640625 42.48515701293945 71.04931640625 38.024658203125 C 71.04931640625 33.56415939331055 70.17684173583984 29.23973083496094 68.45613098144531 25.17150115966797 C 66.79304504394531 21.23954391479492 64.41115570068359 17.70724487304688 61.37661743164062 14.67270278930664 C 58.34207153320312 11.63816070556641 54.80976104736328 9.256271362304688 50.87779998779297 7.593185424804688 C 46.80958557128906 5.872474670410156 42.48515701293945 5 38.024658203125 5 M 38.024658203125 0 C 59.02508544921875 0 76.04931640625 17.02421569824219 76.04931640625 38.024658203125 C 76.04931640625 59.02510070800781 59.02508544921875 76.04931640625 38.024658203125 76.04931640625 C 17.02421569824219 76.04931640625 0 59.02510070800781 0 38.024658203125 C 0 17.02421569824219 17.02421569824219 0 38.024658203125 0 Z" stroke="none" fill="#65802c"/>
      </g>
    </g>
    <g id="cultivo" transform="translate(15.166 15.055)">
      <path id="Trazado_899029" data-name="Trazado 899029" d="M30,25.98h2.8v7.7H30Z" transform="translate(-8.425 -7.211)" fill="#8a8a8a"/>
      <path id="Trazado_899030" data-name="Trazado 899030" d="M23.861,44.795l-.7-3.267a8.529,8.529,0,0,1,.308-4.6,2.869,2.869,0,0,1,1.063-1.4A3.071,3.071,0,0,1,26.268,35h6.038a2.946,2.946,0,0,1,2.8,1.931V37a8.655,8.655,0,0,1,.287,4.583l-.7,3.183" transform="translate(-6.317 -9.921)" fill="#dddcdb"/>
      <path id="Trazado_899031" data-name="Trazado 899031" d="M32.279,23.8h-2.8l-1.2-7a2.609,2.609,0,1,1,5.205,0Z" transform="translate(-7.906 -3.613)" fill="#95cbe9"/>
      <g id="Grupo_1106765" data-name="Grupo 1106765" transform="translate(2.684 2.691)">
        <path id="Trazado_899032" data-name="Trazado 899032" d="M50.1,3,48.764,5.232a5.6,5.6,0,0,0,.231,6L50.1,12.8l1.105-1.546a5.6,5.6,0,0,0,.231-6Z" transform="translate(-16.517 -3)" fill="#ebcc90"/>
        <path id="Trazado_899033" data-name="Trazado 899033" d="M58.011,17l-2.547.7a5.6,5.6,0,0,0-4.1,4.408l-.315,1.875,1.882-.315a5.6,5.6,0,0,0,4.429-4.079Z" transform="translate(-17.432 -7.205)" fill="#ebcc90"/>
        <path id="Trazado_899034" data-name="Trazado 899034" d="M41,17l2.547.651a5.6,5.6,0,0,1,4.1,4.408L48,23.947l-1.882-.315a5.6,5.6,0,0,1-4.429-4.079Z" transform="translate(-14.414 -7.205)" fill="#ebcc90"/>
        <path id="Trazado_899035" data-name="Trazado 899035" d="M58.011,29l-2.547.7a5.6,5.6,0,0,0-4.1,4.408l-.315,1.875,1.882-.315a5.6,5.6,0,0,0,4.429-4.079Z" transform="translate(-17.432 -10.809)" fill="#ebcc90"/>
        <path id="Trazado_899036" data-name="Trazado 899036" d="M41,29l2.547.651a5.6,5.6,0,0,1,4.1,4.408l.35,1.9-1.882-.315a5.6,5.6,0,0,1-4.429-4.079Z" transform="translate(-14.414 -10.809)" fill="#ebcc90"/>
        <path id="Trazado_899037" data-name="Trazado 899037" d="M12.1,3,10.764,5.232a5.6,5.6,0,0,0,.231,6L12.1,12.8l1.105-1.546a5.6,5.6,0,0,0,.231-6Z" transform="translate(-5.104 -3)" fill="#ebcc90"/>
        <path id="Trazado_899038" data-name="Trazado 899038" d="M20.011,17l-2.547.7a5.6,5.6,0,0,0-4.1,4.408l-.315,1.875,1.882-.315a5.6,5.6,0,0,0,4.429-4.079Z" transform="translate(-6.019 -7.205)" fill="#ebcc90"/>
        <path id="Trazado_899039" data-name="Trazado 899039" d="M3,17l2.547.7a5.6,5.6,0,0,1,4.1,4.408l.35,1.84-1.882-.315a5.6,5.6,0,0,1-4.429-4.079Z" transform="translate(-3 -7.205)" fill="#ebcc90"/>
        <path id="Trazado_899040" data-name="Trazado 899040" d="M20.011,29l-2.547.7a5.6,5.6,0,0,0-4.1,4.408l-.315,1.875,1.882-.315a5.6,5.6,0,0,0,4.429-4.079Z" transform="translate(-6.019 -10.809)" fill="#ebcc90"/>
        <path id="Trazado_899041" data-name="Trazado 899041" d="M3,29l2.547.7a5.6,5.6,0,0,1,4.1,4.408L10,35.954,8.114,35.64a5.6,5.6,0,0,1-4.429-4.079Z" transform="translate(-3 -10.809)" fill="#ebcc90"/>
      </g>
      <path id="Trazado_899042" data-name="Trazado 899042" d="M43.18,48.793l-4.268-3.9a2.729,2.729,0,0,0-3.771-.1l-2.959,2.491a2.708,2.708,0,0,1-3.631,0L25.381,44.7a2.7,2.7,0,0,0-3.624,0l-3.064,2.575a2.708,2.708,0,0,1-3.631,0l-3.05-2.526a2.722,2.722,0,0,0-3.764.133L4,48.793v7.1H43.18Z" transform="translate(-0.616 -12.624)" fill="#866042"/>
      <path id="Trazado_899043" data-name="Trazado 899043" d="M41.081,48.1v5.527a1.4,1.4,0,0,1-1.4,1.4H4v2.1H43.18v-7.1Z" transform="translate(-0.616 -13.855)" fill="#412f26"/>
      <path id="Trazado_899044" data-name="Trazado 899044" d="M5.406,20.881l-2.547-.651a.714.714,0,0,0-.882.882l.707,2.5a6.3,6.3,0,0,0,4.988,4.59l1.336.224V30.8a3.785,3.785,0,0,0-1.847.952l-4.2,3.9a.7.7,0,0,0-.224.511v7.1a.7.7,0,0,0,.7.7H42.564a.7.7,0,0,0,.7-.7v-7.1a.7.7,0,0,0-.224-.518l-4.268-3.9a3.75,3.75,0,0,0-1.805-.938V28.431l1.336-.224a6.3,6.3,0,0,0,4.96-4.59l.7-2.54a.714.714,0,0,0-.882-.882l-2.54.686a6.3,6.3,0,0,0-3.575,2.47V20.035l1.336-.224a6.3,6.3,0,0,0,4.96-4.6l.7-2.54a.711.711,0,0,0-.882-.854l-2.54.665a6.3,6.3,0,0,0-3.575,2.47V12.689l.973-1.364a6.3,6.3,0,0,0,.266-6.759L36.869,2.313a.7.7,0,0,0-1.2,0L34.329,4.566a6.3,6.3,0,0,0,.266,6.759l.973,1.364v2.267a6.3,6.3,0,0,0-3.575-2.47l-2.547-.651a.711.711,0,0,0-.882.854l.707,2.526a6.3,6.3,0,0,0,4.988,4.6l1.336.224v3.316a6.3,6.3,0,0,0-3.6-2.47l-2.547-.651a.714.714,0,0,0-.882.882l.707,2.5a6.3,6.3,0,0,0,4.988,4.59l1.336.224v2.428a3.715,3.715,0,0,0-1.49.77l-2.959,2.484a2.029,2.029,0,0,1-1.931.455l.581-2.8a9.291,9.291,0,0,0-.3-4.946v-.084a3.624,3.624,0,0,0-3.505-2.358h-.917V20.231l1.2-7a3.3,3.3,0,1,0-6.584.063l1.189,6.933V24.38h-.924a3.82,3.82,0,0,0-2.1.651,3.575,3.575,0,0,0-1.322,1.728,9.214,9.214,0,0,0-.336,4.981l.595,2.841a2,2,0,0,1-1.9-.441l-3.05-2.526a3.736,3.736,0,0,0-1.462-.756V28.431l1.336-.224a6.3,6.3,0,0,0,4.96-4.59l.7-2.54A.714.714,0,0,0,16.5,20.2l-2.54.686a6.3,6.3,0,0,0-3.575,2.47V20.035l1.336-.224a6.3,6.3,0,0,0,4.96-4.6l.7-2.54a.711.711,0,0,0-.882-.854l-2.54.665a6.3,6.3,0,0,0-3.575,2.47V12.689l.973-1.364a6.3,6.3,0,0,0,.266-6.759L10.282,2.313a.7.7,0,0,0-1.2,0L7.743,4.566a6.3,6.3,0,0,0,.266,6.759l.973,1.364v2.267a6.3,6.3,0,0,0-3.575-2.47l-2.547-.651a.711.711,0,0,0-.882.854l.707,2.526a6.3,6.3,0,0,0,4.988,4.6l1.336.224v3.316a6.3,6.3,0,0,0-3.6-2.47Zm2.47,5.954a4.9,4.9,0,0,1-3.862-3.568l-.357-1.4,1.4.357a4.9,4.9,0,0,1,3.575,3.841l.154.91ZM37.31,26.08a4.9,4.9,0,0,1,3.575-3.841l1.4-.357-.357,1.4a4.9,4.9,0,0,1-3.862,3.561L37.149,27Zm0-8.4a4.9,4.9,0,0,1,3.575-3.848l1.4-.357-.357,1.4a4.9,4.9,0,0,1-3.862,3.554l-.917.154Zm-2.848.749A4.9,4.9,0,0,1,30.6,14.879l-.357-1.4,1.4.357a4.9,4.9,0,0,1,3.575,3.848l.154.9Zm0,8.4A4.9,4.9,0,0,1,30.6,23.267l-.357-1.4,1.4.357a4.9,4.9,0,0,1,3.575,3.841l.154.91Zm-23.739-.756A4.9,4.9,0,0,1,14.3,22.232l1.4-.357-.357,1.4a4.9,4.9,0,0,1-3.862,3.561l-.917.154Zm0-8.4A4.9,4.9,0,0,1,14.3,13.829l1.4-.357-.357,1.4a4.9,4.9,0,0,1-3.862,3.554l-.917.154Zm-2.848.749a4.9,4.9,0,0,1-3.862-3.554l-.357-1.4,1.4.357a4.9,4.9,0,0,1,3.575,3.848l.154.9ZM35.567,5.279l.7-1.238.7,1.238a4.9,4.9,0,0,1-.2,5.233l-.5.749-.532-.749A4.9,4.9,0,0,1,35.567,5.279ZM18.076,33.762l-.483-2.323a8.074,8.074,0,0,1-.217-2.162H28.571a7.962,7.962,0,0,1-.14,2.232l-.476,2.253-2.743-2.246a3.414,3.414,0,0,0-4.52,0Zm3.5-22.088a1.945,1.945,0,0,1,2.8,0,1.861,1.861,0,0,1,.518,1.4l-1.105,6.409H22.162l-1.091-6.36A1.882,1.882,0,0,1,21.575,11.674Zm.7,9.207h1.4v3.5h-1.4Zm-3.652,5.31a2.393,2.393,0,0,1,1.329-.406h6.038a2.211,2.211,0,0,1,2.1,1.4v.084c.063.189.1.385.154.581h-10.6c.063-.224.112-.441.189-.658a2.1,2.1,0,0,1,.791-1.014Zm-4.646,9.025a3.414,3.414,0,0,0,4.527,0l3.071-2.61a2.022,2.022,0,0,1,2.736,0l3.162,2.617a3.414,3.414,0,0,0,4.527,0l2.959-2.484a2.029,2.029,0,0,1,2.855.084l4.051,3.652V42.57H4.084V36.477l4-3.7a2.029,2.029,0,0,1,2.841-.1Zm-5-29.938.7-1.238.735,1.238a4.9,4.9,0,0,1-.2,5.233l-.532.749-.532-.749a4.9,4.9,0,0,1-.168-5.233Z"/>
      <path id="Trazado_899045" data-name="Trazado 899045" d="M11,47.99h2.8v1.4H11Z" transform="translate(-2.719 -13.822)"/>
      <path id="Trazado_899046" data-name="Trazado 899046" d="M30,47.99h2.8v1.4H30Z" transform="translate(-8.425 -13.822)"/>
      <path id="Trazado_899047" data-name="Trazado 899047" d="M49,47.99h2.8v1.4H49Z" transform="translate(-14.132 -13.822)"/>
      <path id="Trazado_899048" data-name="Trazado 899048" d="M11,56h2.8v1.4H11Z" transform="translate(-2.719 -16.228)"/>
      <path id="Trazado_899049" data-name="Trazado 899049" d="M30,56h2.8v1.4H30Z" transform="translate(-8.425 -16.228)"/>
      <path id="Trazado_899050" data-name="Trazado 899050" d="M49,56h2.8v1.4H49Z" transform="translate(-14.132 -16.228)"/>
      <path id="Trazado_899051" data-name="Trazado 899051" d="M7,51.99H9.8v1.4H7Z" transform="translate(-1.517 -15.024)"/>
      <path id="Trazado_899052" data-name="Trazado 899052" d="M15,51.99h2.8v1.4H15Z" transform="translate(-3.92 -15.024)"/>
      <path id="Trazado_899053" data-name="Trazado 899053" d="M26,51.99h2.8v1.4H26Z" transform="translate(-7.224 -15.024)"/>
      <path id="Trazado_899054" data-name="Trazado 899054" d="M34,51.99h2.8v1.4H34Z" transform="translate(-9.627 -15.024)"/>
      <path id="Trazado_899055" data-name="Trazado 899055" d="M45,51.99h2.8v1.4H45Z" transform="translate(-12.931 -15.024)"/>
      <path id="Trazado_899056" data-name="Trazado 899056" d="M53,51.99h2.8v1.4H53Z" transform="translate(-15.334 -15.024)"/>
    </g>
  </g>
</svg>
