<svg xmlns="http://www.w3.org/2000/svg" width="85.578" height="83.034" viewBox="0 0 85.578 83.034">
  <g id="vineyard_4252578_1_" data-name="vineyard_4252578 (1)" transform="translate(0 -7.612)">
    <g id="Grupo_1106823" data-name="Grupo 1106823" transform="translate(1.254 8.866)">
      <g id="Grupo_1106819" data-name="Grupo 1106819" transform="translate(9.741 0)">
        <g id="Grupo_1106803" data-name="Grupo 1106803">
          <g id="Grupo_1106789" data-name="Grupo 1106789" transform="translate(0 23.308)">
            <path id="Trazado_899105" data-name="Trazado 899105" d="M72.268,157.117a5.986,5.986,0,0,1,.59,5.818.854.854,0,0,1-.729.511,5.991,5.991,0,0,1-5.878-8.308.926.926,0,0,1,.811-.568A5.984,5.984,0,0,1,72.268,157.117Z" transform="translate(-65.78 -154.564)" fill="#1ca56f"/>
            <path id="Trazado_899106" data-name="Trazado 899106" d="M73.924,163.447a6,6,0,0,1-2.363-.349,5.988,5.988,0,0,0-3.59-7.693c.044-.121.093-.241.145-.36a.8.8,0,0,1,.671-.47,5.991,5.991,0,0,1,5.9,8.359A.872.872,0,0,1,73.924,163.447Z" transform="translate(-67.605 -154.562)" fill="#158f5e"/>
          </g>
          <g id="Grupo_1106790" data-name="Grupo 1106790" transform="translate(19.741 38.228)">
            <path id="Trazado_899107" data-name="Trazado 899107" d="M188.475,250.415a5.986,5.986,0,0,1-4.531-3.7.854.854,0,0,1,.154-.877,5.991,5.991,0,0,1,10.031,1.718.926.926,0,0,1-.172.975A5.984,5.984,0,0,1,188.475,250.415Z" transform="translate(-183.884 -243.825)" fill="#1ca56f"/>
            <path id="Trazado_899108" data-name="Trazado 899108" d="M184.124,248.648a6,6,0,0,1,1.918-1.424,5.989,5.989,0,0,0,7.978,2.9c.054.117.1.236.152.357a.8.8,0,0,1-.142.806,5.991,5.991,0,0,1-10.08-1.741A.873.873,0,0,1,184.124,248.648Z" transform="translate(-183.891 -246.656)" fill="#158f5e"/>
          </g>
          <g id="Grupo_1106791" data-name="Grupo 1106791" transform="translate(15.468 13.844)">
            <path id="Trazado_899109" data-name="Trazado 899109" d="M164.666,104.429a5.986,5.986,0,0,1-5.818.59.854.854,0,0,1-.511-.729,5.991,5.991,0,0,1,8.308-5.878.926.926,0,0,1,.568.811A5.984,5.984,0,0,1,164.666,104.429Z" transform="translate(-158.326 -97.941)" fill="#1ca56f"/>
            <path id="Trazado_899110" data-name="Trazado 899110" d="M158.332,106.085a6,6,0,0,1,.349-2.363,5.988,5.988,0,0,0,7.693-3.59c.121.044.241.093.36.145a.8.8,0,0,1,.47.671,5.991,5.991,0,0,1-8.359,5.9A.873.873,0,0,1,158.332,106.085Z" transform="translate(-158.323 -99.766)" fill="#158f5e"/>
          </g>
          <g id="Grupo_1106802" data-name="Grupo 1106802" transform="translate(1.537)">
            <g id="Grupo_1106792" data-name="Grupo 1106792" transform="translate(0.636 1.768)">
              <path id="Trazado_899111" data-name="Trazado 899111" d="M81.254,32.4a6.2,6.2,0,0,0,6.062.789.8.8,0,0,0,.49-.652A6.206,6.206,0,0,0,79.414,26.1a.964.964,0,0,0-.616.82A6.2,6.2,0,0,0,81.254,32.4Z" transform="translate(-78.777 -25.692)" fill="#a3e440"/>
              <path id="Trazado_899112" data-name="Trazado 899112" d="M85.359,26.937a6.2,6.2,0,0,1,2.447,5.6.8.8,0,0,1-.495.655q-.151.061-.3.113a6.2,6.2,0,0,0-8.035-4.322,6.2,6.2,0,0,1-.174-2.049.97.97,0,0,1,.616-.83A6.2,6.2,0,0,1,85.359,26.937Z" transform="translate(-78.777 -25.693)" fill="#99d53b"/>
            </g>
            <g id="Grupo_1106793" data-name="Grupo 1106793" transform="translate(11.757 8.924)">
              <path id="Trazado_899113" data-name="Trazado 899113" d="M146.557,70.978a6.2,6.2,0,0,0-.789,6.062.8.8,0,0,0,.652.49,6.206,6.206,0,0,0,6.435-8.391.964.964,0,0,0-.82-.616A6.2,6.2,0,0,0,146.557,70.978Z" transform="translate(-145.313 -68.501)" fill="#a3e440"/>
              <path id="Trazado_899114" data-name="Trazado 899114" d="M153.721,75.083a6.2,6.2,0,0,1-5.6,2.448.8.8,0,0,1-.655-.495q-.061-.151-.113-.3a6.2,6.2,0,0,0,4.322-8.035,6.2,6.2,0,0,1,2.049-.174.97.97,0,0,1,.83.616,6.2,6.2,0,0,1-.834,5.944Z" transform="translate(-147.013 -68.501)" fill="#99d53b"/>
            </g>
            <g id="Grupo_1106798" data-name="Grupo 1106798" transform="translate(7.997)">
              <path id="Trazado_899115" data-name="Trazado 899115" d="M129.048,18.229V80.32h-6.231V18.229a3.116,3.116,0,1,1,6.231,0Z" transform="translate(-122.817 -15.113)" fill="#d6a59d"/>
              <g id="Grupo_1106795" data-name="Grupo 1106795" transform="translate(0 46.37)">
                <g id="Grupo_1106794" data-name="Grupo 1106794">
                  <path id="Trazado_899116" data-name="Trazado 899116" d="M129.048,292.54v3.623a17.391,17.391,0,0,0-6.231,4.522v-4.423A19.793,19.793,0,0,1,129.048,292.54Z" transform="translate(-122.817 -292.54)" fill="#ac8380"/>
                </g>
              </g>
              <g id="Grupo_1106797" data-name="Grupo 1106797" transform="translate(0 25.891)">
                <g id="Grupo_1106796" data-name="Grupo 1106796">
                  <path id="Trazado_899117" data-name="Trazado 899117" d="M129.048,170.015v4.13a17.731,17.731,0,0,0-6.231,4.527v-4.935A19.668,19.668,0,0,1,129.048,170.015Z" transform="translate(-122.817 -170.015)" fill="#ac8380"/>
                </g>
              </g>
            </g>
            <g id="Grupo_1106799" data-name="Grupo 1106799" transform="translate(17.552 32.202)">
              <path id="Trazado_899118" data-name="Trazado 899118" d="M181.228,210.25a6.2,6.2,0,0,0-.789,6.061.8.8,0,0,0,.652.49,6.206,6.206,0,0,0,6.435-8.391.964.964,0,0,0-.82-.616,6.2,6.2,0,0,0-5.477,2.456Z" transform="translate(-179.984 -207.773)" fill="#a3e440"/>
              <path id="Trazado_899119" data-name="Trazado 899119" d="M188.392,214.355a6.2,6.2,0,0,1-5.6,2.447.8.8,0,0,1-.655-.495q-.061-.151-.113-.3a6.2,6.2,0,0,0,4.322-8.035,6.2,6.2,0,0,1,2.049-.174.97.97,0,0,1,.83.616A6.2,6.2,0,0,1,188.392,214.355Z" transform="translate(-181.684 -207.773)" fill="#99d53b"/>
            </g>
            <g id="Grupo_1106800" data-name="Grupo 1106800" transform="translate(3.121 22.766)">
              <path id="Trazado_899120" data-name="Trazado 899120" d="M93.9,155.579a6.2,6.2,0,0,0,1.388,5.953.794.794,0,0,0,.782.23,6.206,6.206,0,0,0,3.082-10.115.964.964,0,0,0-.984-.289,6.2,6.2,0,0,0-4.268,4.221Z" transform="translate(-93.647 -151.321)" fill="#a3e440"/>
              <path id="Trazado_899121" data-name="Trazado 899121" d="M107.562,157.511a6.2,6.2,0,0,1-4.385,4.256.8.8,0,0,1-.786-.234q-.11-.12-.213-.245a6.2,6.2,0,0,0,1.229-9.04,6.2,6.2,0,0,1,1.858-.882.969.969,0,0,1,.993.286,6.2,6.2,0,0,1,1.3,5.859Z" transform="translate(-100.752 -151.327)" fill="#99d53b"/>
            </g>
            <g id="Grupo_1106801" data-name="Grupo 1106801" transform="translate(0 42.388)">
              <path id="Trazado_899122" data-name="Trazado 899122" d="M77.45,275.422a6.2,6.2,0,0,0,6.061.789.8.8,0,0,0,.49-.652,6.206,6.206,0,0,0-8.391-6.435.964.964,0,0,0-.616.82A6.2,6.2,0,0,0,77.45,275.422Z" transform="translate(-74.973 -268.713)" fill="#a3e440"/>
              <path id="Trazado_899123" data-name="Trazado 899123" d="M81.555,269.958a6.2,6.2,0,0,1,2.448,5.6.8.8,0,0,1-.495.655q-.151.061-.3.113A6.2,6.2,0,0,0,75.169,272a6.2,6.2,0,0,1-.174-2.049.97.97,0,0,1,.616-.83,6.2,6.2,0,0,1,5.944.834Z" transform="translate(-74.973 -268.714)" fill="#99d53b"/>
            </g>
          </g>
        </g>
        <g id="Grupo_1106818" data-name="Grupo 1106818" transform="translate(35.692)">
          <g id="Grupo_1106804" data-name="Grupo 1106804" transform="translate(0 23.308)">
            <path id="Trazado_899124" data-name="Trazado 899124" d="M285.809,157.117a5.986,5.986,0,0,1,.59,5.818.854.854,0,0,1-.729.511,5.991,5.991,0,0,1-5.878-8.308.926.926,0,0,1,.811-.568A5.983,5.983,0,0,1,285.809,157.117Z" transform="translate(-279.321 -154.564)" fill="#1ca56f"/>
            <path id="Trazado_899125" data-name="Trazado 899125" d="M287.465,163.447a6,6,0,0,1-2.363-.349,5.988,5.988,0,0,0-3.59-7.693c.044-.121.093-.241.145-.36a.8.8,0,0,1,.671-.47,5.991,5.991,0,0,1,5.9,8.359A.872.872,0,0,1,287.465,163.447Z" transform="translate(-281.146 -154.562)" fill="#158f5e"/>
          </g>
          <g id="Grupo_1106805" data-name="Grupo 1106805" transform="translate(19.741 38.228)">
            <path id="Trazado_899126" data-name="Trazado 899126" d="M402.016,250.415a5.986,5.986,0,0,1-4.531-3.7.854.854,0,0,1,.154-.877,5.991,5.991,0,0,1,10.031,1.718.926.926,0,0,1-.172.975A5.984,5.984,0,0,1,402.016,250.415Z" transform="translate(-397.426 -243.825)" fill="#1ca56f"/>
            <path id="Trazado_899127" data-name="Trazado 899127" d="M397.665,248.648a6,6,0,0,1,1.918-1.424,5.989,5.989,0,0,0,7.978,2.9c.054.117.1.236.152.357a.8.8,0,0,1-.142.806,5.991,5.991,0,0,1-10.08-1.741.873.873,0,0,1,.174-.9Z" transform="translate(-397.432 -246.656)" fill="#158f5e"/>
          </g>
          <g id="Grupo_1106806" data-name="Grupo 1106806" transform="translate(15.468 13.844)">
            <path id="Trazado_899128" data-name="Trazado 899128" d="M378.207,104.429a5.986,5.986,0,0,1-5.818.59.854.854,0,0,1-.511-.729,5.991,5.991,0,0,1,8.308-5.878.926.926,0,0,1,.568.811A5.984,5.984,0,0,1,378.207,104.429Z" transform="translate(-371.867 -97.941)" fill="#1ca56f"/>
            <path id="Trazado_899129" data-name="Trazado 899129" d="M371.873,106.085a6,6,0,0,1,.349-2.363,5.989,5.989,0,0,0,7.693-3.59c.121.044.241.093.36.145a.8.8,0,0,1,.47.671,5.991,5.991,0,0,1-8.359,5.9A.873.873,0,0,1,371.873,106.085Z" transform="translate(-371.864 -99.766)" fill="#158f5e"/>
          </g>
          <g id="Grupo_1106817" data-name="Grupo 1106817" transform="translate(1.537)">
            <g id="Grupo_1106807" data-name="Grupo 1106807" transform="translate(0.636 1.768)">
              <path id="Trazado_899130" data-name="Trazado 899130" d="M294.8,32.4a6.2,6.2,0,0,0,6.062.789.8.8,0,0,0,.49-.652,6.206,6.206,0,0,0-8.392-6.435.964.964,0,0,0-.616.82A6.2,6.2,0,0,0,294.8,32.4Z" transform="translate(-292.318 -25.692)" fill="#a3e440"/>
              <path id="Trazado_899131" data-name="Trazado 899131" d="M298.9,26.937a6.2,6.2,0,0,1,2.448,5.6.8.8,0,0,1-.495.655q-.151.061-.3.113a6.2,6.2,0,0,0-8.035-4.322,6.2,6.2,0,0,1-.174-2.049.97.97,0,0,1,.616-.83A6.2,6.2,0,0,1,298.9,26.937Z" transform="translate(-292.318 -25.693)" fill="#99d53b"/>
            </g>
            <g id="Grupo_1106808" data-name="Grupo 1106808" transform="translate(11.757 8.924)">
              <path id="Trazado_899132" data-name="Trazado 899132" d="M360.1,70.978a6.2,6.2,0,0,0-.789,6.062.8.8,0,0,0,.652.49,6.206,6.206,0,0,0,6.435-8.391.964.964,0,0,0-.82-.616A6.2,6.2,0,0,0,360.1,70.978Z" transform="translate(-358.854 -68.501)" fill="#a3e440"/>
              <path id="Trazado_899133" data-name="Trazado 899133" d="M367.262,75.083a6.2,6.2,0,0,1-5.6,2.448.8.8,0,0,1-.655-.495q-.061-.151-.114-.3a6.2,6.2,0,0,0,4.322-8.035,6.2,6.2,0,0,1,2.049-.174.97.97,0,0,1,.83.616,6.2,6.2,0,0,1-.834,5.944Z" transform="translate(-360.554 -68.501)" fill="#99d53b"/>
            </g>
            <g id="Grupo_1106813" data-name="Grupo 1106813" transform="translate(7.997)">
              <path id="Trazado_899134" data-name="Trazado 899134" d="M342.589,18.229V80.32h-6.231V18.229a3.116,3.116,0,1,1,6.231,0Z" transform="translate(-336.358 -15.113)" fill="#d6a59d"/>
              <g id="Grupo_1106810" data-name="Grupo 1106810" transform="translate(0 46.37)">
                <g id="Grupo_1106809" data-name="Grupo 1106809">
                  <path id="Trazado_899135" data-name="Trazado 899135" d="M342.589,292.54v3.623a17.39,17.39,0,0,0-6.231,4.522v-4.423A19.793,19.793,0,0,1,342.589,292.54Z" transform="translate(-336.358 -292.54)" fill="#ac8380"/>
                </g>
              </g>
              <g id="Grupo_1106812" data-name="Grupo 1106812" transform="translate(0 25.891)">
                <g id="Grupo_1106811" data-name="Grupo 1106811">
                  <path id="Trazado_899136" data-name="Trazado 899136" d="M342.589,170.015v4.13a17.731,17.731,0,0,0-6.231,4.527v-4.935A19.668,19.668,0,0,1,342.589,170.015Z" transform="translate(-336.358 -170.015)" fill="#ac8380"/>
                </g>
              </g>
            </g>
            <g id="Grupo_1106814" data-name="Grupo 1106814" transform="translate(17.552 32.202)">
              <path id="Trazado_899137" data-name="Trazado 899137" d="M394.769,210.25a6.2,6.2,0,0,0-.789,6.061.8.8,0,0,0,.652.49,6.206,6.206,0,0,0,6.435-8.391.964.964,0,0,0-.82-.616A6.2,6.2,0,0,0,394.769,210.25Z" transform="translate(-393.525 -207.773)" fill="#a3e440"/>
              <path id="Trazado_899138" data-name="Trazado 899138" d="M401.933,214.355a6.2,6.2,0,0,1-5.6,2.447.8.8,0,0,1-.655-.495q-.061-.151-.113-.3a6.2,6.2,0,0,0,4.322-8.035,6.2,6.2,0,0,1,2.049-.174.97.97,0,0,1,.83.616A6.2,6.2,0,0,1,401.933,214.355Z" transform="translate(-395.225 -207.773)" fill="#99d53b"/>
            </g>
            <g id="Grupo_1106815" data-name="Grupo 1106815" transform="translate(3.121 22.766)">
              <path id="Trazado_899139" data-name="Trazado 899139" d="M307.442,155.579a6.2,6.2,0,0,0,1.388,5.953.794.794,0,0,0,.782.23,6.206,6.206,0,0,0,3.082-10.115.964.964,0,0,0-.984-.289,6.2,6.2,0,0,0-4.268,4.221Z" transform="translate(-307.188 -151.321)" fill="#a3e440"/>
              <path id="Trazado_899140" data-name="Trazado 899140" d="M321.1,157.511a6.2,6.2,0,0,1-4.385,4.256.8.8,0,0,1-.786-.234q-.11-.12-.213-.245a6.2,6.2,0,0,0,1.229-9.04,6.2,6.2,0,0,1,1.858-.882.969.969,0,0,1,.993.286,6.2,6.2,0,0,1,1.3,5.859Z" transform="translate(-314.293 -151.327)" fill="#99d53b"/>
            </g>
            <g id="Grupo_1106816" data-name="Grupo 1106816" transform="translate(0 42.388)">
              <path id="Trazado_899141" data-name="Trazado 899141" d="M290.991,275.422a6.2,6.2,0,0,0,6.062.789.794.794,0,0,0,.49-.652,6.206,6.206,0,0,0-8.391-6.435.964.964,0,0,0-.616.82A6.2,6.2,0,0,0,290.991,275.422Z" transform="translate(-288.514 -268.713)" fill="#a3e440"/>
              <path id="Trazado_899142" data-name="Trazado 899142" d="M295.1,269.958a6.2,6.2,0,0,1,2.448,5.6.8.8,0,0,1-.495.655q-.151.061-.3.113A6.2,6.2,0,0,0,288.71,272a6.2,6.2,0,0,1-.174-2.049.97.97,0,0,1,.616-.83A6.2,6.2,0,0,1,295.1,269.958Z" transform="translate(-288.514 -268.714)" fill="#99d53b"/>
            </g>
          </g>
        </g>
      </g>
      <g id="Grupo_1106822" data-name="Grupo 1106822" transform="translate(0 56.425)">
        <g id="Grupo_1106821" data-name="Grupo 1106821">
          <g id="Grupo_1106820" data-name="Grupo 1106820">
            <path id="Trazado_899143" data-name="Trazado 899143" d="M7.5,378.052H90.572V360.3H81.044c-3.663,0-6.449-2.881-13.928-2.881-6.767,0-8.557-4.723-17.174-4.723-9.53,0-11.085,7.63-20.141,4.069-8.521-3.351-17.916-4.667-22.3,1.024v20.261Z" transform="translate(-7.501 -352.698)" fill="#c86f5c"/>
            <path id="Trazado_899144" data-name="Trazado 899144" d="M472.28,398.2v17.749h5.385V398.2Z" transform="translate(-394.595 -390.592)" fill="#ba5d4f"/>
            <path id="Trazado_899145" data-name="Trazado 899145" d="M7.5,463.456H90.572V470.3H7.5Z" transform="translate(-7.501 -444.943)" fill="#ffd496"/>
            <path id="Trazado_899146" data-name="Trazado 899146" d="M472.28,463.456h5.385V470.3H472.28Z" transform="translate(-394.595 -444.943)" fill="#fcc16d"/>
          </g>
        </g>
      </g>
    </g>
    <g id="Grupo_1106824" data-name="Grupo 1106824" transform="translate(0 7.612)">
      <path id="Trazado_899147" data-name="Trazado 899147" d="M53.542,67.745a34.142,34.142,0,0,1,13.065,2.781c5.624,2.211,8.837.42,11.945-1.313,2.354-1.312,4.788-2.669,8.655-2.669a18.229,18.229,0,0,1,9.146,2.442,16.548,16.548,0,0,0,8.028,2.281,24.019,24.019,0,0,1,9.038,1.744,22.143,22.143,0,0,0,3.12.954,1.254,1.254,0,1,0,.49-2.459,20.013,20.013,0,0,1-2.763-.855,27.831,27.831,0,0,0-7.048-1.75V55.462q.436-.149.883-.275a4.787,4.787,0,0,0,2.681-1.966,7.228,7.228,0,0,0,3.531,1.7,7.325,7.325,0,0,0,1.273.112,7.206,7.206,0,0,0,5.355-2.385,2.167,2.167,0,0,0,.4-2.289,7.193,7.193,0,0,0-3.369-3.7,7.414,7.414,0,0,0,.024-5.4,2.229,2.229,0,0,0-1.888-1.417,7.431,7.431,0,0,0-7.964,6.19,4.765,4.765,0,0,0-.93-.171V34.986c.291-.1.585-.194.883-.278a4.8,4.8,0,0,0,3.409-3.791,7.362,7.362,0,0,0,1.217-.69,7.208,7.208,0,0,0,3.079-6.294,2.167,2.167,0,0,0-1.333-1.9,7.278,7.278,0,0,0-1.825-.5,7.448,7.448,0,0,0-.443-3.551,2.229,2.229,0,0,0-1.888-1.417,7.472,7.472,0,0,0-3.1.4V11.982a4.37,4.37,0,0,0-8.4-1.68,7.409,7.409,0,0,0-6.254-.428,2.228,2.228,0,0,0-1.417,1.888,7.449,7.449,0,0,0,5.363,7.783c-.251.344-.5.694-.731,1.055a4.713,4.713,0,0,0,2.7,7.1v2.945a7.438,7.438,0,0,0-2.548,1.58,7.266,7.266,0,0,0-4.51-1.3,2.167,2.167,0,0,0-1.9,1.333,7.242,7.242,0,0,0,5.689,9.989l.014.018a4.72,4.72,0,0,0,3.26,5.91V51.1a7.408,7.408,0,0,0-6.554-.6,2.229,2.229,0,0,0-1.417,1.888,7.436,7.436,0,0,0,6.12,7.954,24.085,24.085,0,0,0-2.765,4.8,19.335,19.335,0,0,0-6.656-1.1,18.615,18.615,0,0,0-9.876,2.987c-2.023,1.128-3.677,2.049-5.864,2.037v-13.6q.436-.149.883-.275a4.787,4.787,0,0,0,2.681-1.966,7.228,7.228,0,0,0,3.531,1.7,7.324,7.324,0,0,0,1.273.112,7.2,7.2,0,0,0,5.355-2.385,2.168,2.168,0,0,0,.4-2.289,7.194,7.194,0,0,0-3.369-3.7,7.415,7.415,0,0,0,.024-5.4,2.229,2.229,0,0,0-1.888-1.417,7.431,7.431,0,0,0-7.964,6.19,4.766,4.766,0,0,0-.93-.171V34.985c.291-.1.585-.194.883-.278a4.8,4.8,0,0,0,3.409-3.791,7.362,7.362,0,0,0,1.217-.69,7.208,7.208,0,0,0,3.079-6.294,2.167,2.167,0,0,0-1.333-1.9,7.279,7.279,0,0,0-1.825-.5,7.446,7.446,0,0,0-.443-3.551,2.228,2.228,0,0,0-1.888-1.417,7.481,7.481,0,0,0-3.1.4V11.982a4.37,4.37,0,0,0-8.4-1.68,7.408,7.408,0,0,0-6.254-.428,2.229,2.229,0,0,0-1.417,1.888,7.448,7.448,0,0,0,5.363,7.783c-.251.344-.5.694-.731,1.055a4.713,4.713,0,0,0,2.7,7.1v2.945a7.436,7.436,0,0,0-2.548,1.58,7.277,7.277,0,0,0-4.51-1.3,2.167,2.167,0,0,0-1.9,1.333,7.242,7.242,0,0,0,5.689,9.989l.014.018a4.719,4.719,0,0,0,3.26,5.91V51.1a7.408,7.408,0,0,0-6.554-.6,2.23,2.23,0,0,0-1.417,1.888,7.436,7.436,0,0,0,6.12,7.954,24.045,24.045,0,0,0-2.93,5.191,25.166,25.166,0,0,0-4.49-.286,1.254,1.254,0,0,0,.086,2.506Zm51.17,1.018-.331,0a11.36,11.36,0,0,1-3.395-.5V59.8A2.039,2.039,0,0,0,102,58.325a17.226,17.226,0,0,1,2.713-1.781Zm10.037-16.315a4.726,4.726,0,0,1-2.394-1.188,7.513,7.513,0,0,0,4.316-2.455,4.7,4.7,0,0,1,2.27,2.306,4.712,4.712,0,0,1-4.193,1.338ZM111.535,44.3a4.924,4.924,0,0,1,4.187-1.971,4.953,4.953,0,0,1-4.916,6.544A4.914,4.914,0,0,1,111.535,44.3Zm-3.331,4.53a7.363,7.363,0,0,0,.378,1.25,2.044,2.044,0,0,0,.481.709,2.277,2.277,0,0,1-1.646,1.989l-.2.059v-4.45a2.227,2.227,0,0,1,.985.443Zm-3.493,4.93a19.623,19.623,0,0,0-2.957,1.638,7.543,7.543,0,0,0-.768-1.767v-12.3a7.456,7.456,0,0,0,1.885-3.163,7.547,7.547,0,0,0,.238-1.14,17.108,17.108,0,0,1,1.6-.964ZM107.417,32.3c-.067.019-.132.041-.2.061V31.41a7.2,7.2,0,0,0,1.341.132,2.281,2.281,0,0,1-1.143.754Zm-.2-4.39a2.275,2.275,0,0,1,1.564,1.122,4.725,4.725,0,0,1-1.564-.2Zm6.089-3.645a4.711,4.711,0,0,1-2.019,3.911c-.031.022-.064.041-.1.063a4.723,4.723,0,0,0-1.3-1.756,7.523,7.523,0,0,0,2.022-2.505,4.779,4.779,0,0,1,1.392.288Zm-3.381-5.213a4.956,4.956,0,0,1-2.709,6.138V19.71A4.969,4.969,0,0,1,109.927,19.048Zm-7.079-8.929a1.865,1.865,0,0,1,1.863,1.863v21.3a19.648,19.648,0,0,0-1.777.9,7.453,7.453,0,0,0-1.632-3.059,2.18,2.18,0,0,0-.316-.291V11.982A1.864,1.864,0,0,1,102.849,10.119Zm-9.218,2.033a4.921,4.921,0,0,1,4.57.728c.1.072.188.147.278.226v4.227a4.953,4.953,0,0,1-4.848-5.18Zm4.153,12.036a2.167,2.167,0,0,1,.1-2.224c.192-.3.394-.585.6-.869v3.879A2.215,2.215,0,0,1,97.784,24.188Zm1.76,8.74a4.922,4.922,0,0,1,.922,4.535,4.981,4.981,0,0,1-3.23,3.317,4.913,4.913,0,0,1-.922-4.537h0A4.925,4.925,0,0,1,99.544,32.928Zm-7.233,4.864a4.708,4.708,0,0,1-.56-4.365h.027a4.763,4.763,0,0,1,2.649.807,7.542,7.542,0,0,0-.518,1.3,7.453,7.453,0,0,0-.139,3.612A4.738,4.738,0,0,1,92.311,37.793Zm5.536,6.985a2.189,2.189,0,0,1-.293-1.484c.015,0,.03,0,.044-.009a7.337,7.337,0,0,0,.882-.292v2.459A2.212,2.212,0,0,1,97.846,44.778ZM93,52.772a4.953,4.953,0,0,1,6.544,4.916A4.951,4.951,0,0,1,93,52.772Zm5.484,9.276v5.194c-.331-.16-1.857-.924-2.305-1.137a21.5,21.5,0,0,1,2.305-4.057ZM68.96,68.679a14.947,14.947,0,0,1-1.435-.485c-.773-.3-1.536-.582-2.29-.841V59.8a2.038,2.038,0,0,0,1.012-1.471,17.227,17.227,0,0,1,2.713-1.781ZM79,52.449A4.726,4.726,0,0,1,76.6,51.26a7.514,7.514,0,0,0,4.317-2.455,4.7,4.7,0,0,1,2.27,2.305A4.712,4.712,0,0,1,79,52.449ZM75.783,44.3a4.926,4.926,0,0,1,4.187-1.971,4.953,4.953,0,0,1-4.916,6.544A4.914,4.914,0,0,1,75.783,44.3Zm-3.331,4.53a7.363,7.363,0,0,0,.378,1.25,2.044,2.044,0,0,0,.481.709,2.277,2.277,0,0,1-1.646,1.989l-.2.059v-4.45A2.226,2.226,0,0,1,72.452,48.827Zm-3.493,4.93A19.624,19.624,0,0,0,66,55.4a7.544,7.544,0,0,0-.768-1.767v-12.3a7.459,7.459,0,0,0,1.885-3.163,7.548,7.548,0,0,0,.238-1.14,17.074,17.074,0,0,1,1.6-.964ZM71.665,32.3c-.067.019-.132.041-.2.061V31.41a7.2,7.2,0,0,0,1.341.132,2.28,2.28,0,0,1-1.143.754Zm-.2-4.39a2.275,2.275,0,0,1,1.564,1.122,4.721,4.721,0,0,1-1.564-.2Zm6.089-3.645a4.711,4.711,0,0,1-2.019,3.911c-.031.022-.064.041-.1.063a4.723,4.723,0,0,0-1.3-1.756,7.529,7.529,0,0,0,2.022-2.505A4.777,4.777,0,0,1,77.556,24.261Zm-3.381-5.213a4.956,4.956,0,0,1-2.709,6.138V19.71A4.969,4.969,0,0,1,74.175,19.048ZM67.1,10.119a1.865,1.865,0,0,1,1.863,1.863v21.3a19.691,19.691,0,0,0-1.777.9,7.451,7.451,0,0,0-1.632-3.059,2.194,2.194,0,0,0-.316-.292V11.982A1.865,1.865,0,0,1,67.1,10.119Zm-9.218,2.034a4.921,4.921,0,0,1,4.57.727c.1.072.188.147.278.226v4.227a4.953,4.953,0,0,1-4.848-5.18Zm4.153,12.036a2.167,2.167,0,0,1,.1-2.224c.192-.3.394-.585.6-.869v3.879A2.214,2.214,0,0,1,62.032,24.189Zm1.76,8.74a4.953,4.953,0,0,1-2.307,7.853,4.913,4.913,0,0,1-.922-4.538h0a4.926,4.926,0,0,1,3.23-3.315Zm-7.233,4.864A4.708,4.708,0,0,1,56,33.428h.027a4.761,4.761,0,0,1,2.649.807,7.542,7.542,0,0,0-.518,1.3h0a7.453,7.453,0,0,0-.138,3.612A4.737,4.737,0,0,1,56.559,37.793Zm5.536,6.985a2.188,2.188,0,0,1-.293-1.484c.015,0,.03,0,.044-.009a7.364,7.364,0,0,0,.881-.292v2.459A2.216,2.216,0,0,1,62.094,44.778Zm-4.851,7.994a4.921,4.921,0,0,1,4.57.727,4.982,4.982,0,0,1,1.974,4.188,4.951,4.951,0,0,1-6.544-4.916Zm5.484,9.276v4.518c-.767-.217-1.519-.4-2.258-.57A21.476,21.476,0,0,1,62.727,62.048Z" transform="translate(-43.513 -7.612)"/>
      <path id="Trazado_899148" data-name="Trazado 899148" d="M463.531,391.951a1.253,1.253,0,0,0,1.254,1.254h5.594a1.254,1.254,0,0,0,0-2.507h-5.594A1.253,1.253,0,0,0,463.531,391.951Z" transform="translate(-386.054 -326.667)"/>
      <path id="Trazado_899149" data-name="Trazado 899149" d="M.489,364.286a1.254,1.254,0,0,0,1.758-.228,7.966,7.966,0,0,1,2.975-2.364,1.254,1.254,0,0,0-1.062-2.271,10.45,10.45,0,0,0-3.9,3.105,1.254,1.254,0,0,0,.228,1.758Z" transform="translate(0 -300.521)"/>
      <path id="Trazado_899150" data-name="Trazado 899150" d="M84.325,455.956H1.255a1.254,1.254,0,1,0,0,2.507H84.325a1.254,1.254,0,1,0,0-2.507Z" transform="translate(-0.001 -381.018)"/>
      <path id="Trazado_899151" data-name="Trazado 899151" d="M236.106,392.38a1.254,1.254,0,1,0,0,2.507h1.616a1.254,1.254,0,0,0,0-2.507Z" transform="translate(-195.598 -328.068)"/>
      <path id="Trazado_899152" data-name="Trazado 899152" d="M278.781,406.936a1.254,1.254,0,0,0,0,2.507h2.651a1.254,1.254,0,0,0,0-2.507Z" transform="translate(-231.14 -340.191)"/>
      <path id="Trazado_899153" data-name="Trazado 899153" d="M68.112,397.737a1.254,1.254,0,1,0,0,2.507h1.705a1.254,1.254,0,1,0,0-2.507Z" transform="translate(-55.683 -332.53)"/>
      <path id="Trazado_899154" data-name="Trazado 899154" d="M384.886,422.07a1.254,1.254,0,1,0,0,2.507h2.643a1.254,1.254,0,0,0,0-2.507Z" transform="translate(-319.51 -352.796)"/>
      <path id="Trazado_899155" data-name="Trazado 899155" d="M107.915,422.07a1.254,1.254,0,0,0,0,2.507h4.33a1.254,1.254,0,1,0,0-2.507Z" transform="translate(-88.833 -352.796)"/>
    </g>
  </g>
</svg>
