<svg xmlns="http://www.w3.org/2000/svg" width="62.655" height="62.655" viewBox="0 0 62.655 62.655">
  <g id="wildlife_5299804" transform="translate(0 -0.003)">
    <path id="Trazado_897243" data-name="Trazado 897243" d="M67.74,115.451l-3.614,0a3.357,3.357,0,0,0-2.993-4.875H58.61a8.76,8.76,0,0,0,.168-10.064.918.918,0,0,0-1.522,1.027,6.942,6.942,0,0,1-1.336,9.25.922.922,0,0,0,.588,1.622h4.624a1.523,1.523,0,0,1,.15,3.038l-8.773,0c-8.059,0-10.209-6.918-10.209-11.006a10.543,10.543,0,0,1,8.715-10.195.918.918,0,0,0-.336-1.8A12.719,12.719,0,0,0,43.983,96a5.258,5.258,0,1,0-3.289,6.146,11.672,11.672,0,0,0-.23,2.288,14.746,14.746,0,0,0,2.452,8.1,11.11,11.11,0,0,0,9.592,4.737l15.23.008a.918.918,0,0,0,0-1.835ZM35.447,97.216a3.421,3.421,0,1,1,3.421,3.426A3.427,3.427,0,0,1,35.447,97.216Z" transform="translate(-29.499 -80.699)" fill="#65802c"/>
    <path id="Trazado_897244" data-name="Trazado 897244" d="M202.648,13.554a14.527,14.527,0,0,1,9.663,6.764A6.849,6.849,0,0,0,218.99,25.7h1.735a4.383,4.383,0,0,0-.782,2.527,3.471,3.471,0,0,0,3.463,3.452,1.537,1.537,0,0,1,0,3.075l-3.68,0h0a.918.918,0,0,0,0,1.836l3.68,0a3.373,3.373,0,0,0,0-6.746,1.632,1.632,0,0,1-1.627-1.624,2.532,2.532,0,0,1,2.116-2.52h2.067a4.466,4.466,0,0,0,4.338-4.473,10.653,10.653,0,0,0-4.5-7.619c-2.12-1.364-3.814-1.594-6.811-1.594a6.855,6.855,0,0,0-.722.038,11.046,11.046,0,0,0-1.853-6.971c-1.247-2.034-3.56-4.566-5.973-5.012a3.72,3.72,0,0,0-3.02.72l-.031.025a3.488,3.488,0,0,0-1.147,2.542c-.139,2.234,1.085,5.033,3.193,7.3a11.076,11.076,0,0,0,5.038,3.063,6.852,6.852,0,0,0-2.114,3.454,16.736,16.736,0,0,0-9.381-5.43.918.918,0,0,0-.333,1.805Zm8.136-4.141a8.809,8.809,0,0,1-2.706-5.941,1.8,1.8,0,0,1,.482-1.238,1.88,1.88,0,0,1,1.55-.357c1.693.312,3.645,2.379,4.741,4.166a8.865,8.865,0,0,1,1.541,6.226A9.579,9.579,0,0,1,210.783,9.413Zm8.206,4.438c3.013,0,4.209.268,5.817,1.3a8.839,8.839,0,0,1,3.657,6.075,2.607,2.607,0,0,1-2.5,2.637H218.99a5.007,5.007,0,0,1,0-10.015Z" transform="translate(-177.19 0)" fill="#65802c"/>
    <path id="Trazado_897245" data-name="Trazado 897245" d="M352.886,172a4.412,4.412,0,0,0-4.388,4.426v9.064a4.365,4.365,0,0,0-5.068,1.142l-6.4,7.138-.01.011a9.571,9.571,0,0,0-1.552,2.468.918.918,0,0,0,1.684.73,7.737,7.737,0,0,1,1.25-1.99l6.4-7.139.012-.013a2.526,2.526,0,0,1,3.594-.25.26.26,0,0,1,.032.353L341.1,196.22a.918.918,0,0,0,1.374,1.217l7.345-8.291a2.313,2.313,0,0,0,.512-1.322v-11.4a2.574,2.574,0,0,1,2.552-2.59.246.246,0,0,1,.239.252v16.268a3.813,3.813,0,0,1-.791,2.321l-5.159,6.728a4.473,4.473,0,0,0-.917,2.708v4.163H336.51v-5.486a.918.918,0,0,0-1.836,0v5.555a2.143,2.143,0,0,0-1.612,2.073v3.049A2.144,2.144,0,0,0,335.2,213.6h12.474a2.144,2.144,0,0,0,2.142-2.142v-3.049a2.145,2.145,0,0,0-1.728-2.1v-4.2a2.628,2.628,0,0,1,.538-1.591l5.157-6.725a5.655,5.655,0,0,0,1.172-3.44V174.084A2.083,2.083,0,0,0,352.886,172Zm-4.9,39.465a.306.306,0,0,1-.306.306H335.2a.306.306,0,0,1-.306-.306v-3.049a.306.306,0,0,1,.306-.306h12.474a.306.306,0,0,1,.306.306Z" transform="translate(-292.305 -150.947)" fill="#65802c"/>
    <path id="Trazado_897246" data-name="Trazado 897246" d="M20.285,206.339v-6.254a9.623,9.623,0,0,0-2.348-6.306l-6.407-7.15a4.365,4.365,0,0,0-5.068-1.142v-9.064A4.412,4.412,0,0,0,2.075,172,2.083,2.083,0,0,0,0,174.084v7.1a.918.918,0,0,0,1.836,0v-7.1a.246.246,0,0,1,.239-.252,2.575,2.575,0,0,1,2.552,2.59v11.4a2.162,2.162,0,0,0,.52,1.331l7.337,8.281a.918.918,0,0,0,1.374-1.217l-7.329-8.272a.262.262,0,0,1,.023-.362,2.526,2.526,0,0,1,3.594.25l6.409,7.152a7.788,7.788,0,0,1,1.894,5.1v6.187H8.7v-4.164a4.474,4.474,0,0,0-.917-2.708L2.624,192.67a3.811,3.811,0,0,1-.789-2.318v-4.889a.918.918,0,0,0-1.836,0v4.889a5.652,5.652,0,0,0,1.17,3.438l5.159,6.728a2.627,2.627,0,0,1,.538,1.591v4.206a2.145,2.145,0,0,0-1.72,2.1v3.049A2.144,2.144,0,0,0,7.289,213.6H19.763a2.144,2.144,0,0,0,2.142-2.142v-3.049a2.143,2.143,0,0,0-1.619-2.074Zm-.216,5.123a.306.306,0,0,1-.306.306H7.289a.306.306,0,0,1-.306-.306v-3.049a.306.306,0,0,1,.306-.306H19.763a.306.306,0,0,1,.306.306Z" transform="translate(0 -150.947)" fill="#65802c"/>
  </g>
</svg>
