<svg xmlns="http://www.w3.org/2000/svg" xmlns:xlink="http://www.w3.org/1999/xlink" width="400" height="345.079" viewBox="0 0 400 345.079">
  <defs>
    <clipPath id="clip-path">
      <rect id="Rectángulo_403061" data-name="Rectángulo 403061" width="400" height="345.079" transform="translate(181.967 2354.412)" fill="#f6f0ca"/>
    </clipPath>
    <clipPath id="clip-path-2">
      <rect id="Rectángulo_403054" data-name="Rectángulo 403054" width="242.001" height="548.829" fill="none"/>
    </clipPath>
    <clipPath id="clip-path-3">
      <rect id="Rectángulo_403060" data-name="Rectángulo 403060" width="201.616" height="538.487" fill="none"/>
    </clipPath>
    <clipPath id="clip-path-5">
      <rect id="Rectángulo_403055" data-name="Rectángulo 403055" width="4.295" height="3.527" fill="none"/>
    </clipPath>
  </defs>
  <g id="Enmascarar_grupo_1098817" data-name="Enmascarar grupo 1098817" transform="translate(-181.967 -2354.412)" clip-path="url(#clip-path)">
    <g id="Grupo_1106277" data-name="Grupo 1106277" transform="translate(186.73 2370.312)">
      <g id="Grupo_1106269" data-name="Grupo 1106269" transform="translate(0 0)">
        <g id="Grupo_1106266" data-name="Grupo 1106266" transform="translate(0 21.362)">
          <path id="Trazado_897247" data-name="Trazado 897247" d="M94.409,293.483s21.6-29.826,78.677-24.116S223.88,301.1,263.4,299.828s82.535-19.673,117.632,16.47c40.717,41.931-28.861,77.592-1.227,103.216,49.512,45.909,0,100.022-110.574,89.749-91.7-8.517-92.524-20.468-145.754-5.993s-101.63-38.979-82.293-80.83,68.483-25.892,45.456-60.068S94.409,293.483,94.409,293.483Z" transform="translate(-36.834 -268.641)" fill="#fcd189"/>
          <path id="Trazado_897248" data-name="Trazado 897248" d="M27.466,48.492a4.606,4.606,0,0,0,2.667-.062,3.922,3.922,0,0,0,1.777-1.889c2.411-4.613.613-10.349-2.207-14.724s-6.631-8.15-8.716-12.918c-1.759-4.028-2.186-8.559-4.106-12.512S10.649-1.012,6.445.274c-9.43,2.882-6.478,22.5-3.79,29.334C6.435,39.227,17.645,46.627,27.466,48.492Z" transform="translate(364.647 102.806) rotate(39)" fill="#fcd189"/>
          <path id="Trazado_897249" data-name="Trazado 897249" d="M27.466,48.492a4.606,4.606,0,0,0,2.667-.062,3.922,3.922,0,0,0,1.777-1.889c2.411-4.613.613-10.349-2.207-14.724s-6.631-8.15-8.716-12.918c-1.759-4.028-2.186-8.559-4.106-12.512S10.649-1.012,6.445.274c-9.43,2.882-6.478,22.5-3.79,29.334C6.435,39.227,17.645,46.627,27.466,48.492Z" transform="matrix(0.988, -0.156, 0.156, 0.988, 7.353, 66.842)" fill="#fcd189"/>
        </g>
        <g id="Grupo_1106268" data-name="Grupo 1106268" transform="translate(141.753)">
          <g id="Grupo_1106267" data-name="Grupo 1106267" clip-path="url(#clip-path-2)">
            <path id="Trazado_897250" data-name="Trazado 897250" d="M133.773,61.124s11.524-17.509,35.53-6.08c0,0-16.742,24.56-35.53,6.08" transform="translate(59.561 22.784)" fill="#3f4f0c"/>
            <path id="Trazado_897251" data-name="Trazado 897251" d="M163.205,35.3l-36.79,57.774a5.118,5.118,0,0,1-2.562-1.633l36.79-57.772a1.519,1.519,0,1,1,2.562,1.632" transform="translate(55.145 14.679)" fill="#3f4f0c"/>
            <path id="Trazado_897252" data-name="Trazado 897252" d="M149.895,54.08s-20.972,4.063-20.563-29.607c0,0,29.218,11.313,20.563,29.607" transform="translate(57.581 10.896)" fill="#6b8429"/>
            <path id="Trazado_897253" data-name="Trazado 897253" d="M139.607,67.975S118.281,69.219,123.153,35.9c0,0,27.46,15.088,16.454,32.073" transform="translate(54.511 15.985)" fill="#6b8429"/>
            <path id="Trazado_897254" data-name="Trazado 897254" d="M133.719,61.818s11.984-17.684,35.466,6.449c0,0-28.681,12.617-35.466-6.449" transform="translate(59.537 24.742)" fill="#6b8429"/>
            <path id="Trazado_897255" data-name="Trazado 897255" d="M142.8,45.615s11.547-17.972,35.614,5.577c0,0-28.361,13.316-35.614-5.577" transform="translate(63.583 17.389)" fill="#6b8429"/>
            <path id="Trazado_897256" data-name="Trazado 897256" d="M149.745,46.687s-12.621-17.236,18-31.229c0,0,2.233,31.253-18,31.229" transform="translate(65.525 6.883)" fill="#6b8429"/>
            <path id="Trazado_897257" data-name="Trazado 897257" d="M100.464,111.348l-2.142,51.295s.989,1.507,2.4,3.672c14.39,5.615,33.1,10.585,41.231,2.789a17.626,17.626,0,0,0,2.4-2.969c13.172-19.751,24.9-93.347,24.9-93.347l-17.193-8.21-27.6-13.184Z" transform="translate(43.777 22.883)" fill="#e7a743"/>
            <path id="Trazado_897258" data-name="Trazado 897258" d="M100.464,111.348l-2.142,51.295s.989,1.507,2.4,3.672c14.39,5.615,33.1,10.585,41.231,2.789a17.626,17.626,0,0,0,2.4-2.969,20.93,20.93,0,0,1-14.675-13.04C125.329,141.579,139.959,84,139.959,84c6.447-4.7,10.244-13.691,12.111-19.418l-27.6-13.184Z" transform="translate(43.777 22.883)" fill="#cc861e"/>
            <path id="Trazado_897259" data-name="Trazado 897259" d="M103.765,92.636l-1.629,1.752-1.6,1.692-3.2,3.35q-3.208,3.334-6.469,6.618c-4.353,4.381-8.784,8.709-13.383,12.972-2.3,2.132-4.646,4.248-7.07,6.343s-4.924,4.174-7.615,6.233c-1.348,1.03-2.743,2.057-4.252,3.083a55.849,55.849,0,0,1-5.053,3.1,33.589,33.589,0,0,1-3.333,1.575c-.652.263-1.353.523-2.188.775a21.039,21.039,0,0,1-2.928.663,16.965,16.965,0,0,1-4.388.1,15.384,15.384,0,0,1-2.979-.632c-.269-.087-.53-.176-.8-.279s-.556-.224-.828-.347a14.686,14.686,0,0,1-1.632-.866l-.228-.142-.345-.23c-.23-.158-.455-.322-.675-.491l-.325-.259-.246-.21c-.159-.139-.315-.282-.468-.426s-.315-.3-.438-.432l-.328-.356-.318-.364-.153-.184-.117-.149c-.155-.2-.306-.4-.452-.6l-.186-.267-.166-.251c-.238-.361-.389-.623-.554-.912a19.247,19.247,0,0,1-1.189-2.545,31.447,31.447,0,0,1-1.071-3.388c-.259-.987-.458-1.888-.64-2.769-.361-1.753-.639-3.4-.889-5.019-.494-3.234-.87-6.352-1.208-9.455-.669-6.193-1.171-12.289-1.616-18.376S22,79.789,21.666,73.731s-.62-12.088-.863-18.2a9.7,9.7,0,0,1,19.33-1.518l.009.084c.669,5.878,1.4,11.842,2.159,17.75s1.567,11.824,2.431,17.7,1.786,11.714,2.834,17.424c.525,2.849,1.081,5.673,1.7,8.349.308,1.334.632,2.635.968,3.805.168.581.34,1.137.5,1.594a4.384,4.384,0,0,0,.374.882c.012,0,.016-.066-.218-.512-.069-.127-.127-.225-.257-.432l-.088-.134-.106-.152c-.09-.13-.184-.256-.282-.38l-.181-.223-.224-.259-.234-.25c-.091-.094-.221-.228-.335-.337s-.24-.223-.364-.33l-.194-.163-.269-.217q-.273-.215-.559-.409l-.29-.188-.166-.107a10.531,10.531,0,0,0-1.132-.606c-.186-.087-.377-.166-.568-.237s-.353-.134-.532-.191a9.784,9.784,0,0,0-1.876-.409,8.922,8.922,0,0,0-2.142,0c-.421.055-.626.106-.741.126s-.117.013-.078-.019c.085-.064.363-.23.694-.451.673-.444,1.571-1.1,2.49-1.84s1.9-1.57,2.877-2.44c1.964-1.749,3.963-3.669,5.947-5.657s3.966-4.058,5.93-6.164c3.928-4.217,7.8-8.593,11.615-13.039q2.859-3.336,5.673-6.725l2.794-3.391,1.38-1.7L81,73.115l.066-.084a15.007,15.007,0,0,1,23.417,18.774c-.224.277-.48.572-.718.831" transform="translate(9.259 20.233)" fill="#a54b4a"/>
            <path id="Trazado_897260" data-name="Trazado 897260" d="M87.854,58.063s-8.056-2.009-18.135,7.2A279.48,279.48,0,0,0,43.3,93.119l21.176,24.427C76.5,107.314,91.68,95.918,95.858,88.582Z" transform="translate(19.279 25.77)" fill="#bd361c"/>
            <path id="Trazado_897261" data-name="Trazado 897261" d="M39.506,105.194a.734.734,0,0,1-.279-.056.723.723,0,0,1-.387-.947c2.078-4.959.841-13.448.828-13.533a.723.723,0,0,1,1.429-.214c.055.364,1.308,8.979-.925,14.306a.72.72,0,0,1-.666.444" transform="translate(17.268 39.995)" fill="#6b2131"/>
            <path id="Trazado_897262" data-name="Trazado 897262" d="M43.59,98.342a.722.722,0,0,1-.7-.529,27.683,27.683,0,0,0-3.122-6.861.723.723,0,1,1,1.2-.8,28.573,28.573,0,0,1,3.312,7.277.724.724,0,0,1-.5.89.763.763,0,0,1-.2.026" transform="translate(17.655 39.995)" fill="#6b2131"/>
            <path id="Trazado_897263" data-name="Trazado 897263" d="M20.764,37.811a34.62,34.62,0,0,1,10.459,1.132,14.242,14.242,0,0,1-3.418-2.437c-6.613-7.164-13.41-8.851-14.065-7.024s7.024,8.329,7.024,8.329" transform="translate(6.1 12.823)" fill="#ff5f6e"/>
            <path id="Trazado_897264" data-name="Trazado 897264" d="M25.377,24.436s2.4-19.368,8.8-17.4-8.8,17.4-8.8,17.4" transform="translate(11.299 3.07)" fill="#6b8429"/>
            <path id="Trazado_897265" data-name="Trazado 897265" d="M22.735,29.081a.5.5,0,0,1-.114-.61l8.242-15.82a.5.5,0,1,1,.889.462L23.509,28.935a.5.5,0,0,1-.676.212.47.47,0,0,1-.1-.066" transform="translate(10.046 5.513)" fill="#3f4f0c"/>
            <path id="Trazado_897266" data-name="Trazado 897266" d="M25.9,21.388S40.139,8.038,43.8,13.647,25.9,21.388,25.9,21.388" transform="translate(11.534 5.463)" fill="#6b8429"/>
            <path id="Trazado_897267" data-name="Trazado 897267" d="M25.429,20.461a.5.5,0,0,1,.136-.84L35.424,15.5a.5.5,0,1,1,.386.925l-9.858,4.125a.5.5,0,0,1-.523-.085" transform="translate(11.245 6.883)" fill="#3f4f0c"/>
            <path id="Trazado_897268" data-name="Trazado 897268" d="M36.935,40.08h0a14.352,14.352,0,1,1-2.023-17.817A14.267,14.267,0,0,1,36.931,40.08" transform="translate(4.646 8.052)" fill="#ff6f1c"/>
            <path id="Trazado_897269" data-name="Trazado 897269" d="M36.931,40.08a14.352,14.352,0,1,1-9-21.644c-.321.012-8.007,0-9.005,9.015-1.016,9.182,11.448,15.5,18,12.629" transform="translate(4.646 8.053)" fill="#bd361c"/>
            <path id="Trazado_897270" data-name="Trazado 897270" d="M21.124,44.97s-6.16-4.44-8.044-9.339S2.336,23.114,5.4,20.917c2.588-1.851,12.858,14.062,18.064,17.59,5.488,3.72-2.344,6.463-2.344,6.463" transform="translate(2.121 9.247)" fill="#cc861e"/>
            <path id="Trazado_897271" data-name="Trazado 897271" d="M28.9,40.9S17.9,37.583,14.45,33.336,2.008,24.4,2.136,22.386s7.1.7,12.247,5.314S28.9,40.9,28.9,40.9" transform="translate(0.951 9.668)" fill="#e7a743"/>
            <path id="Trazado_897272" data-name="Trazado 897272" d="M38.251,56.9a15.585,15.585,0,0,0,3.7-.383,7.315,7.315,0,0,0,3.19-1.632,7.465,7.465,0,0,0,1.684-8.845l-.013-.027a13.2,13.2,0,0,0-3.224-3.435l-.205-.156q-.41-.3-.814-.578c-5.754-3.859-14.455-4.12-14.455-4.12s-11.308-7.03-16.129-10.1S-.4,21.454.178,24.008,11.786,34.224,16.054,41.17,38.251,56.9,38.251,56.9" transform="translate(0.065 10.269)" fill="#e7a743"/>
            <path id="Trazado_897273" data-name="Trazado 897273" d="M20.905,43.7,20.1,60.266l20.826-.912-2.59-16.232a35.859,35.859,0,0,0-17.431.575" transform="translate(8.949 18.836)" fill="#e7a743"/>
            <path id="Trazado_897274" data-name="Trazado 897274" d="M20.472,52.645l-.844,4.511,22.729-1.263-.911-4.344Z" transform="translate(8.739 22.951)" fill="#cc861e"/>
            <path id="Trazado_897275" data-name="Trazado 897275" d="M83.985,21c25.175-2.655,45.038,12.944,45.038,12.944,3.824-3.058,4.833-4.433,3.571-8.534l0-.042a20.56,20.56,0,0,0-.2-4.524c-.741-5.073-3.544-13.178-13.551-17.969-13.808-6.609-23.442-.39-28.285,4.407a25.549,25.549,0,0,0-3.59,4.362c-.029.025-.055.048-.082.074C81.527,16.554,83.985,21,83.985,21" transform="translate(37.143 0)" fill="#e7a743"/>
            <path id="Trazado_897276" data-name="Trazado 897276" d="M85.823,9.471c15.778,1.757,38.461,9.586,45.709,13.652a20.713,20.713,0,0,0-.2-4.524C120.35,11.968,98.671,5.037,89.5,5.037A25.522,25.522,0,0,0,85.905,9.4l-.082.072" transform="translate(38.212 2.243)" fill="#7a8bff"/>
            <path id="Trazado_897277" data-name="Trazado 897277" d="M171.486,50.383c-3.526,10.287-31.3,10.085-62.03-.451S56.67,22.515,60.2,12.229s31.3-10.086,62.03.451,52.785,27.416,49.258,37.7" transform="translate(26.638 2.067)" fill="#cc861e"/>
            <path id="Trazado_897278" data-name="Trazado 897278" d="M97.49,12.114A24.337,24.337,0,0,0,81.005,31.932c-2.392,15.958,4.065,26.721-5.74,37.245s-15.308,28.7.957,31.81,53.575-2.63,69.838,1.435,13.439-25.3,1.338-36.448-7.877-30.252-14.253-42.958c-3.7-7.378-27.877-13.845-35.656-10.9" transform="translate(29.339 5.07)" fill="#23221e"/>
            <path id="Trazado_897279" data-name="Trazado 897279" d="M54.878,196.975c16,9.213,54.691,13.958,79.929,3.934,9.26-3.677,10.881-5.937,10.18-22.56-.025-.619-.053-1.237-.085-1.851-.068-1.309-.155-2.614-.247-3.909-.046-.626-.1-1.252-.147-1.87-.189-2.321-.415-4.6-.658-6.781-.068-.6-.136-1.2-.2-1.788a101.206,101.206,0,0,0-2.35-12.626c-.153-.611-.308-1.189-.454-1.734-.895-3.318-1.62-5.31-1.62-5.31a105.418,105.418,0,0,1-12.474,1.208c-.6.025-1.191.046-1.788.061-21.827.577-44.036-4.366-54.33-7.041q-.932-.243-1.727-.458c-2.675-.718-4.184-1.188-4.184-1.188s-.944,1.653-2.272,4.378c-.243.5-.5,1.045-.765,1.617a90.569,90.569,0,0,0-6.291,17.831c-.022.082-.039.168-.056.25q-.2.88-.383,1.77c-.025.118-.051.236-.075.358-1.045,4.938-2,10.121-2.643,15.074v0c-.085.637-.16,1.27-.236,1.9-1.263,10.868-1.452,16.243,2.879,18.736" transform="translate(22.802 60.135)" fill="#23221e"/>
            <path id="Trazado_897280" data-name="Trazado 897280" d="M53.749,160.9c.039-.017.078-.039.119-.061a25.2,25.2,0,0,0,8.582-8.011c.334-.483.659-.984.98-1.5h0A55.056,55.056,0,0,0,69.5,136.34c-.621-.16-1.2-.315-1.727-.458a52.69,52.69,0,0,1-5.962,14.653c-.318.519-.655,1.019-.994,1.5a23.857,23.857,0,0,1-6.556,6.483c-.022.082-.039.169-.056.25q-.2.88-.383,1.77c-.025.119-.051.237-.075.358" transform="translate(23.931 60.5)" fill="#42413c"/>
            <path id="Trazado_897281" data-name="Trazado 897281" d="M102.241,141.091a49.908,49.908,0,0,0,4.167,15.893c.272.569.554,1.12.854,1.652a24.065,24.065,0,0,0,6.191,7.453,19.258,19.258,0,0,0,8.484,3.841c-.048-.626-.1-1.252-.147-1.87a17.484,17.484,0,0,1-7.267-3.4,22.058,22.058,0,0,1-5.411-6.374c-.308-.529-.606-1.077-.884-1.642a47.336,47.336,0,0,1-4.2-15.61c-.6.025-1.191.046-1.788.061" transform="translate(45.522 62.792)" fill="#42413c"/>
            <path id="Trazado_897282" data-name="Trazado 897282" d="M58.458,139.706c1.234.543,2.561,1.109,3.977,1.681.546.221,1.108.447,1.684.669a119.634,119.634,0,0,0,30.671,7.721c.447.043.895.09,1.341.13a167.554,167.554,0,0,0,30.177-.308c.633-.062,1.259-.119,1.875-.186,3.742-.383,7.1-.822,9.888-1.237-.153-.611-.308-1.191-.454-1.734-2.864.422-6.316.871-10.164,1.259-.607.056-1.221.117-1.844.175A162.436,162.436,0,0,1,94.972,148a117.911,117.911,0,0,1-29.983-7.518h0c-.572-.223-1.126-.444-1.671-.665-1.458-.587-2.824-1.169-4.091-1.728-.243.5-.5,1.045-.765,1.617" transform="translate(26.028 61.483)" fill="#42413c"/>
            <path id="Trazado_897283" data-name="Trazado 897283" d="M69.941,371.389c-5.006,17.979-10.377,37.425-14.33,51.766h-25.2L44.155,294.4l.23-2.168.525-4.91c1.055-46.292,6.911-89.913,16.588-123.7l42.909,19.982C102.346,234.5,87.62,261.165,76.186,294.92c0,0,7.077,31.253-6.245,76.469" transform="translate(13.541 72.852)" fill="#23221e"/>
            <path id="Trazado_897284" data-name="Trazado 897284" d="M31.742,339.7a.864.864,0,0,1-.012-1.729l24.825-.353h.013a.864.864,0,0,1,.012,1.729l-24.825.353Z" transform="translate(13.748 150.322)" fill="#42413c"/>
            <path id="Trazado_897285" data-name="Trazado 897285" d="M39.922,254.833a32.627,32.627,0,0,0,5.7.522,26.32,26.32,0,0,0,6.374-.754,1.072,1.072,0,1,0-.515-2.081,26.829,26.829,0,0,1-11.328.146Z" transform="translate(17.775 112.418)" fill="#42413c"/>
            <path id="Trazado_897286" data-name="Trazado 897286" d="M59.1,358.722c-3.422,14.029-8.086,32.376-12.027,47.726H45.225c3.964-15.434,8.684-33.992,12.137-48.151,7.1-29.094,4.772-75.569,4.746-76.037a.889.889,0,0,1,.1-.447C86.4,233.889,89.971,186.3,90,185.827a.895.895,0,0,1,1.785.124c-.033.48-3.623,48.284-27.882,96.454.172,3.662,2.088,48.049-4.807,76.316" transform="translate(20.136 82.369)" fill="#42413c"/>
            <path id="Trazado_897287" data-name="Trazado 897287" d="M130.09,293.7q-.117,3.787-.254,7.661l-2.01,121.172h-23.9c-2.8-16.781-6.983-41.814-11.037-66.042-7.2-43.01.491-59.423.491-59.423S83.994,212.343,83.3,190.351l47.4-25.338s11.016,38.016-.543,126.4q-.033,1.142-.068,2.292" transform="translate(37.089 73.471)" fill="#23221e"/>
            <path id="Trazado_897288" data-name="Trazado 897288" d="M95.905,328.8c1.041,6.981,7.054,48.843,11.244,77.966h-1.818c-4.275-29.1-10.4-70.717-11.436-77.667-2.645-17.745,2.788-40.309,3.36-42.61L85.018,185.434a1.016,1.016,0,0,1,2.018-.244L99.3,286.427a1.036,1.036,0,0,1-.025.377c-.062.236-6.082,23.779-3.366,41.991" transform="translate(37.85 82.056)" fill="#42413c"/>
            <path id="Trazado_897289" data-name="Trazado 897289" d="M121.331,338.868H97.445a.864.864,0,1,1,0-1.728h23.886a.864.864,0,0,1,0,1.728" transform="translate(43.002 150.109)" fill="#42413c"/>
            <path id="Trazado_897290" data-name="Trazado 897290" d="M104.884,255.436a26.385,26.385,0,0,0,6.376.759,34.849,34.849,0,0,0,9.582-1.431q.037-1.149.066-2.292c-4.209,1.3-9.891,2.278-15.506.883a1.072,1.072,0,0,0-.519,2.081" transform="translate(46.338 112.411)" fill="#42413c"/>
            <path id="Trazado_897291" data-name="Trazado 897291" d="M81,193.437a.894.894,0,0,1-.987.782H80a.893.893,0,0,1-.78-.994c.4-3.331.779-6.746,1.14-10.16q.1-.9.189-1.8c1.159-11.163,2.1-22.157,2.72-29.925.049-.627.1-1.237.145-1.822.133-1.705.249-3.219.347-4.5.6.006,1.2.009,1.795.007-.1,1.28-.215,2.808-.351,4.531-.045.585-.1,1.2-.143,1.822-.617,7.7-1.546,18.6-2.7,29.694-.062.613-.127,1.227-.189,1.84-.376,3.538-.77,7.082-1.182,10.53" transform="translate(35.27 64.566)" fill="#42413c"/>
            <path id="Trazado_897292" data-name="Trazado 897292" d="M87,182.279a22.72,22.72,0,0,1-3.284.692,17.61,17.61,0,0,1-1.818.156,12.2,12.2,0,0,1-1.705-.062,6.007,6.007,0,0,1-2.876-.989,3.8,3.8,0,0,1-1.538-3.135c-.068-3.516.947-17.816,1.713-27.922.043-.621.091-1.227.134-1.817.124-1.616.24-3.086.337-4.334.594.027,1.192.055,1.791.075-.1,1.256-.214,2.743-.338,4.382-.043.584-.09,1.191-.139,1.815-.759,10.082-1.775,24.36-1.708,27.767a2,2,0,0,0,.8,1.724,6.109,6.109,0,0,0,3.716.691c.614-.032,1.234-.1,1.817-.191a20.773,20.773,0,0,0,2.583-.567A.894.894,0,1,1,87,182.279" transform="translate(33.737 64.502)" fill="#42413c"/>
            <path id="Trazado_897293" data-name="Trazado 897293" d="M74.35,407.472l-74.116,0A8.517,8.517,0,0,1,.2,403.547c.643-3.2,3.1-7.81,11.14-11.735.467-.225.951-.451,1.457-.673.919-.406,1.9-.8,2.956-1.188,18.323-6.691,24.27-14.546,24.27-14.546l6.506-56.486s14.194,0,33.926-1.434l-7.54,65.108s1.13,11.978,1.389,20.954c.039,1.4.058,2.727.046,3.925" transform="translate(0 141.357)" fill="#e7a743"/>
            <path id="Trazado_897294" data-name="Trazado 897294" d="M48.192,381.129a.75.75,0,0,1-.079,0,.724.724,0,0,1-.64-.8l6.585-60.712a.723.723,0,0,1,1.438.156l-6.586,60.712a.721.721,0,0,1-.717.645" transform="translate(21.135 142.02)" fill="#cc861e"/>
            <path id="Trazado_897295" data-name="Trazado 897295" d="M54.514,360.694v1.438a10.968,10.968,0,0,0-7.846,3.922c-5.6,6.777-3.509,19.95-3.487,20.083a.718.718,0,0,1-.591.825c-.04,0-.079.007-.116.007a.718.718,0,0,1-.71-.6c-.09-.566-2.211-13.955,3.8-21.231a12.363,12.363,0,0,1,8.952-4.446" transform="translate(18.401 160.596)" fill="#cc861e"/>
            <path id="Trazado_897296" data-name="Trazado 897296" d="M14.47,382.776a.713.713,0,0,1-.714.717h0a.718.718,0,0,1-.717-.712c-.017-7.746-2.856-11.711-5.188-13.659.467-.226.951-.452,1.457-.675,2.473,2.279,5.152,6.544,5.167,14.33" transform="translate(3.493 164.047)" fill="#cc861e"/>
            <path id="Trazado_897297" data-name="Trazado 897297" d="M74.35,381.188l-74.116,0A8.516,8.516,0,0,1,.2,377.263l74.095-.746c.039,1.4.066,3.473.055,4.671" transform="translate(0 167.641)" fill="#cc861e"/>
            <path id="Trazado_897298" data-name="Trazado 897298" d="M32.013,316.942l-.571,8.644,35.458-.8,1.468-9.036Z" transform="translate(14 140.584)" fill="#cc861e"/>
            <path id="Trazado_897299" data-name="Trazado 897299" d="M36.611,332.634a1.4,1.4,0,0,0-.1-2.773l-5.441-.47a1.4,1.4,0,1,0-.24,2.785l5.441.47a1.4,1.4,0,0,0,.34-.011" transform="translate(13.158 146.656)" fill="#cc861e"/>
            <path id="Trazado_897300" data-name="Trazado 897300" d="M35.952,336.58a1.4,1.4,0,0,0-.1-2.773l-5.441-.47a1.4,1.4,0,1,0-.24,2.785l5.441.47a1.4,1.4,0,0,0,.34-.012" transform="translate(12.864 148.413)" fill="#cc861e"/>
            <path id="Trazado_897301" data-name="Trazado 897301" d="M35.653,340.623a1.4,1.4,0,0,0-.1-2.773l-5.441-.47a1.4,1.4,0,1,0-.24,2.785l5.441.47a1.4,1.4,0,0,0,.34-.012" transform="translate(12.731 150.213)" fill="#cc861e"/>
            <path id="Trazado_897302" data-name="Trazado 897302" d="M35.147,344.52a1.4,1.4,0,0,0-.1-2.773l-5.441-.47a1.4,1.4,0,1,0-.24,2.785l5.441.47a1.4,1.4,0,0,0,.34-.012" transform="translate(12.506 151.948)" fill="#cc861e"/>
            <path id="Trazado_897303" data-name="Trazado 897303" d="M34.894,348.811a1.4,1.4,0,0,0-.1-2.773l-5.441-.47a1.4,1.4,0,1,0-.24,2.785l5.441.47a1.391,1.391,0,0,0,.34-.012" transform="translate(12.393 153.859)" fill="#cc861e"/>
            <path id="Trazado_897304" data-name="Trazado 897304" d="M34.6,352.709a1.4,1.4,0,0,0-.1-2.773l-5.441-.47a1.4,1.4,0,1,0-.24,2.785l5.441.47a1.4,1.4,0,0,0,.34-.012" transform="translate(12.262 155.594)" fill="#cc861e"/>
            <path id="Trazado_897305" data-name="Trazado 897305" d="M34.127,356.876a1.4,1.4,0,0,0-.1-2.773l-5.441-.47a1.4,1.4,0,1,0-.24,2.785l5.441.47a1.4,1.4,0,0,0,.34-.012" transform="translate(12.052 157.45)" fill="#cc861e"/>
            <path id="Trazado_897306" data-name="Trazado 897306" d="M97.616,386.319c0,.165,0,.325.006.481.017.731.048,1.389.081,1.953.072,1.242.162,2,.162,2H139.04a22.842,22.842,0,0,0,.048-3.957c-.272-4.207-1.666-10.852-7.355-15.243-7.783-6.02-4.778-4.763-6.374-7.507-.179-.3-1.583-4.966-1.73-5.287-1.338-2.849-2.573-4.2-9.949-4.2-9.784,0-10.644,4.748-11.691,7.248a47.086,47.086,0,0,0-1.627,5.811c-.247,1.042-.491,2.153-.734,3.284-.6,2.837-1.166,5.8-1.549,8.164a42.385,42.385,0,0,0-.462,7.244" transform="translate(43.46 157.869)" fill="#e7a743"/>
            <path id="Trazado_897307" data-name="Trazado 897307" d="M104.651,383.113a.7.7,0,0,1-.145-.014.721.721,0,0,1-.564-.853c.029-.142,3.029-14.126,16.109-14.126h.042c13.019.03,15.867,13.36,15.895,13.5a.722.722,0,0,1-1.416.286c-.1-.5-2.653-12.309-14.481-12.337h-.039c-11.915,0-14.666,12.84-14.692,12.97a.724.724,0,0,1-.708.578" transform="translate(46.273 163.902)" fill="#cc861e"/>
            <path id="Trazado_897308" data-name="Trazado 897308" d="M91.606,314.589l1.546,8.216,11.029,58.644,24.485,2.658-.642-62.3-.084-8.177Z" transform="translate(40.787 139.641)" fill="#e7a743"/>
            <path id="Trazado_897309" data-name="Trazado 897309" d="M105.9,380.688a.724.724,0,0,1-.71-.587L93.111,316.6a.722.722,0,1,1,1.419-.27l12.079,63.5a.723.723,0,0,1-.575.844.73.73,0,0,1-.136.013" transform="translate(41.451 140.581)" fill="#cc861e"/>
            <path id="Trazado_897310" data-name="Trazado 897310" d="M89.925,314.67l.632,8.248,3.344-.1,34.871-1,1.9-.054v-8.177l-1.984.053-36.335.958Z" transform="translate(40.038 139.625)" fill="#cc861e"/>
            <path id="Trazado_897311" data-name="Trazado 897311" d="M103.485,326.471a1.159,1.159,0,0,0,.3-.029,20.38,20.38,0,0,1,9.547.082,1.174,1.174,0,0,0,.691-2.244,22.551,22.551,0,0,0-10.76-.127,1.174,1.174,0,0,0,.225,2.318" transform="translate(45.568 144.069)" fill="#cc861e"/>
            <path id="Trazado_897312" data-name="Trazado 897312" d="M104.119,330.267a1.161,1.161,0,0,0,.3-.029,20.359,20.359,0,0,1,9.547.082,1.174,1.174,0,0,0,.691-2.245,22.551,22.551,0,0,0-10.76-.127,1.174,1.174,0,0,0,.225,2.318" transform="translate(45.851 145.76)" fill="#cc861e"/>
            <path id="Trazado_897313" data-name="Trazado 897313" d="M104.413,334.39a1.222,1.222,0,0,0,.3-.029,20.382,20.382,0,0,1,9.547.082,1.174,1.174,0,0,0,.691-2.244,22.55,22.55,0,0,0-10.76-.127,1.174,1.174,0,0,0,.225,2.318" transform="translate(45.982 147.595)" fill="#cc861e"/>
            <path id="Trazado_897314" data-name="Trazado 897314" d="M104.953,338.556a1.161,1.161,0,0,0,.3-.029,20.38,20.38,0,0,1,9.547.082,1.174,1.174,0,0,0,.691-2.244,22.55,22.55,0,0,0-10.76-.127,1.174,1.174,0,0,0,.225,2.318" transform="translate(46.222 149.45)" fill="#cc861e"/>
            <path id="Trazado_897315" data-name="Trazado 897315" d="M105.587,342.352a1.23,1.23,0,0,0,.3-.029,20.38,20.38,0,0,1,9.547.082,1.174,1.174,0,0,0,.691-2.245,22.556,22.556,0,0,0-10.76-.127,1.174,1.174,0,0,0,.225,2.318" transform="translate(46.504 151.14)" fill="#cc861e"/>
            <path id="Trazado_897316" data-name="Trazado 897316" d="M105.881,346.476a1.159,1.159,0,0,0,.3-.029,20.358,20.358,0,0,1,9.547.082,1.174,1.174,0,0,0,.691-2.244,22.552,22.552,0,0,0-10.76-.127,1.174,1.174,0,0,0,.225,2.318" transform="translate(46.635 152.976)" fill="#cc861e"/>
            <path id="Trazado_897317" data-name="Trazado 897317" d="M106.085,350.89a1.225,1.225,0,0,0,.3-.029,20.383,20.383,0,0,1,9.547.082,1.174,1.174,0,1,0,.691-2.244,22.554,22.554,0,0,0-10.76-.127,1.174,1.174,0,0,0,.225,2.318" transform="translate(46.726 154.942)" fill="#cc861e"/>
            <path id="Trazado_897318" data-name="Trazado 897318" d="M97.614,382.308c0,.165,0,.325.006.481.017.731.048,1.389.081,1.952a11.486,11.486,0,0,0,4.275-5.545c2.549-6.939-1.367-15.266-1.533-15.619l-.082.039c-.247,1.042-.491,2.153-.734,3.284.925,2.834,1.994,7.6.512,11.627a9.583,9.583,0,0,1-2.523,3.781" transform="translate(43.462 161.88)" fill="#cc861e"/>
            <path id="Trazado_897319" data-name="Trazado 897319" d="M97.619,376.871c.055,2.344.243,3.957.243,3.957h41.173a22.664,22.664,0,0,0,.048-3.957Z" transform="translate(43.464 167.799)" fill="#cc861e"/>
            <path id="Trazado_897320" data-name="Trazado 897320" d="M132.979,135.066l-5.515,23.13c-13.78-1.1-30.084-3.094-42.361-9.442,0,0-16.359,5.5-24.654,2.935l6.073-16.623Z" transform="translate(26.914 60.137)" fill="#fff"/>
            <path id="Trazado_897321" data-name="Trazado 897321" d="M163.989,85.123c-.129.857-.288,1.718-.47,2.587a60.981,60.981,0,0,1-3.671,11.329c-.383.893-.763,1.8-1.137,2.705q-.542,1.314-1.065,2.64c-.736,1.847-1.45,3.717-2.135,5.586-.182.5-.366.994-.545,1.493-.273.767-.545,1.528-.815,2.3-.555,1.6-1.123,3.129-1.7,4.61-.344.89-.688,1.757-1.036,2.616-1.191,2.941-2.408,5.719-3.613,8.478-1.3,2.963-2.587,5.908-3.839,9.015-.869,2.149-1.715,4.373-2.534,6.738a45.349,45.349,0,0,0-1.072,6.031c-.061.509-.114,1.019-.165,1.525-.032.332-.065.666-.1,1-.2,2.168-.366,4.3-.642,6.368,0,0,.09,2.781.412,7.125.058.786.123,1.626.2,2.509.211,2.507.487,5.371.853,8.43.588,4.883,1.4,10.257,2.516,15.441.01.043.017.09.027.133h-.025c-.828.051-1.665.1-2.507.133-4.305.208-8.747.288-13.243.266-.835,0-1.671-.012-2.51-.022-4.409-.053-8.855-.2-13.246-.413q-1.264-.059-2.515-.126c-4.521-.243-8.969-.552-13.253-.9-.847-.068-1.689-.139-2.522-.211-4.683-.4-9.146-.843-13.257-1.288-.857-.094-1.7-.186-2.525-.283-5.148-.578-9.661-1.152-13.272-1.636-.9-.123-1.747-.241-2.532-.348-4.248-.593-6.709-.99-6.709-.99s.739-2.645,1.9-7.154c.194-.76.4-1.575.62-2.44.9-3.548,1.97-7.933,3.11-12.89q.28-1.205.564-2.454.182-.809.366-1.633v-.007c1.174-5.245,2.386-10.993,3.531-16.98.046-.276.09-.549.133-.814.2-1.234.354-2.347.47-3.305.039-.3.071-.6.1-.867.007-.04.012-.075.014-.108L66,139.149c-.118-.118-.3-.3-.53-.552-.384-.413-.987-1.142-1.711-2.1-.6-.793-1.285-1.743-2-2.805-.591-.883-1.2-1.841-1.789-2.846-2-3.386-3.811-7.293-4.158-10.623a16.64,16.64,0,0,1,.007-3.519,19.081,19.081,0,0,1,.441-2.473c.889-3.7,2.788-7.483,4.821-12.545.309-.765.621-1.561.929-2.39.517-1.374,1.038-2.844,1.539-4.422.639-1.981,1.241-4.012,1.783-6.067.2-.757.39-1.522.571-2.285.194-.815.376-1.633.538-2.458.061-.276.114-.552.169-.832.01-.061.025-.126.039-.186.032-.194.068-.387.1-.578.785-4.226,1.244-8.135,1.883-11.465.162-.861.337-1.682.538-2.461,1.03-4.078,2.635-6.96,6.064-7.975a32.335,32.335,0,0,1,5.356-.951c.584-.087,1.205-.191,1.89-.341.295-.065.606-.121.932-.172,3.143-.5,7.624-.435,11.873-.912l2.464-.2.731-.061,2.006-.165,14.422-1.2,2.771-.23,14.367-1.191.13.032.356.082c.434.1,1.15.283,2.1.525,2.716.7,7.323,1.929,12.636,3.587.29.09.585.184.879.276.5.158,1.009.319,1.522.484.627.205,1.263.413,1.9.624a18.122,18.122,0,0,1,9.365,6.58,17.153,17.153,0,0,1,2.256,4.412,28.142,28.142,0,0,1,.789,13.371" transform="translate(24.644 24.555)" fill="#ff6f1c"/>
            <path id="Trazado_897322" data-name="Trazado 897322" d="M163.373,87.7q.275-1.3.471-2.587-3.273.41-6.483.753c1.636-5.582,3.175-10.281,4.466-13.973.409-.051.818-.1,1.227-.152A17.13,17.13,0,0,0,160.8,67.33q-.388,1.038-.818,2.246-7.384.85-14.408,1.363c1.726-5.076,3.135-8.754,3.96-10.813q-.77-.247-1.52-.484c-.295-.093-.588-.186-.879-.276-.9,2.268-2.432,6.271-4.276,11.767q-7.3.49-14.124.675c2.568-7.914,4.713-13.436,5.765-16.029-.951-.241-1.669-.421-2.1-.525-.155-.035-.273-.064-.356-.082-1.158,2.867-3.365,8.611-5.966,16.7-4.843.1-9.485.111-13.895.039,2.07-6.583,3.954-11.86,5.363-15.584l-2.769.23c-1.425,3.817-3.24,8.984-5.21,15.3-4.875-.111-9.449-.319-13.689-.581,1.614-5.245,3.146-9.787,4.477-13.522l-2.006.165-.733.061c-1.305,3.7-2.772,8.1-4.311,13.127-1.343-.092-2.655-.189-3.922-.293q-5.047-.41-9.575-.912c1.205-3.979,2.379-7.595,3.473-10.809-.327.051-.639.107-.932.172-.686.15-1.306.254-1.892.341-1.012,3.021-2.087,6.368-3.185,10.005-2.938-.344-5.687-.71-8.234-1.08-.2.779-.377,1.6-.538,2.461,2.489.363,5.177.721,8.043,1.062-1.181,4-2.379,8.33-3.558,12.948q-3.542-.464-6.681-.948c-.16.825-.344,1.643-.538,2.458q3.1.473,6.6.939c-1,4.018-2,8.359-2.979,12.991-2.694-.38-5.206-.772-7.515-1.156-.309.83-.621,1.626-.929,2.39,2.425.409,5.076.825,7.939,1.23q-1.264,6.211-2.421,13.045c-3.86-.578-7.319-1.169-10.341-1.729a19.016,19.016,0,0,0-.441,2.471c3.032.564,6.508,1.155,10.375,1.736q-1.017,6.33-1.866,13.117c-1.513-.237-2.97-.474-4.359-.711.593,1,1.2,1.963,1.791,2.846l2.27.363c-.093.811-.186,1.624-.276,2.442.724.954,1.328,1.682,1.711,2.1.233.247.413.434.532.552q.247-2.378.516-4.714c4.076.6,8.546,1.191,13.36,1.723-.5,4.3-.939,8.728-1.3,13.27-4.816-.549-9.278-1.159-13.35-1.779q.16-2.046.344-4.061c-.043.266-.085.538-.133.814-1.145,5.988-2.357,11.735-3.529,16.98v.007c-.019.561-.04,1.12-.058,1.684-.1-.019-.208-.033-.309-.051q-.284,1.249-.562,2.454l.8.129c-.107,4.4-.133,8.872-.053,13.407q-1.99-.323-3.857-.646c-.218.864-.426,1.679-.62,2.44q2.179.382,4.535.757.091,3.67.272,7.387c.786.107,1.629.225,2.534.348q-.189-3.692-.283-7.34c4.1.624,8.549,1.234,13.3,1.786q.087,3.573.254,7.19c.825.1,1.669.189,2.526.283q-.173-3.623-.259-7.19c.215.022.428.046.646.068,3.911.423,8.14.811,12.639,1.145q.076,3.605.23,7.265c.832.072,1.676.143,2.522.211q-.16-3.675-.236-7.3c4.214.279,8.653.509,13.288.656q.059,3.74.2,7.544c.837.043,1.672.087,2.515.126q-.15-3.831-.2-7.6c3.071.075,6.213.121,9.435.121q1.912,0,3.857-.022.033,3.917.158,7.911,1.26.015,2.512.022-.13-4.026-.158-7.972c4.33-.075,8.768-.225,13.306-.474q0,4.047.093,8.18c.844-.036,1.679-.082,2.509-.133,0-.043,0-.085,0-.133-1.116-5.184-1.926-10.557-2.515-15.441q-.054,2.487-.075,5.009-6.818.375-13.328.48c-.007-4.581.085-9.076.254-13.478q6-.113,12.295-.441c-.075-.883-.14-1.723-.2-2.509q-6.131.329-11.994.435.312-6.916.869-13.49,5.548-.128,11.354-.438c.033-.334.065-.666.1-1,.051-.506.1-1.016.166-1.525q-5.823.323-11.4.445.631-6.981,1.474-13.509,6.642-.182,13.652-.639c-.043.309-.082.621-.123.934,1.253-3.107,2.541-6.053,3.84-9.015q.676-4.284,1.406-8.291,1.1-.091,2.205-.186c.348-.858.692-1.726,1.038-2.616-.929.082-1.851.165-2.771.241.934-4.951,1.9-9.54,2.867-13.724q2.528-.23,5.094-.5.522-1.329,1.065-2.64-2.8.306-5.557.567c1.194-5.027,2.418-9.65,3.6-13.83q3.347-.351,6.762-.772M77.411,181.2c-4.761-.556-9.212-1.169-13.309-1.8-.087-4.535-.065-9.005.039-13.41,4.086.627,8.55,1.241,13.331,1.794q-.165,6.6-.061,13.418m.137-15.937c-4.794-.559-9.257-1.172-13.34-1.8q.215-6.777.685-13.308c4.076.621,8.543,1.224,13.35,1.773q-.468,6.527-.7,13.338m50.374-90.917q6.8-.178,14.084-.639c-1.283,3.947-2.682,8.538-4.115,13.705-4.8.251-9.446.4-13.919.465,1.348-5,2.687-9.531,3.95-13.532M85.77,118.3c-.319-.029-.634-.062-.951-.091.772-4.616,1.6-9.023,2.454-13.188,4.138.363,8.654.682,13.507.919-.864,4.187-1.707,8.628-2.5,13.3-4.477-.259-8.664-.581-12.514-.939m12.1,3.43q-1.038,6.393-1.912,13.309c-4.047-.262-7.861-.574-11.394-.915l-2.033-.2c.562-4.567,1.2-8.981,1.879-13.228l1.059.1c3.82.356,7.968.678,12.4.937M87.79,102.539c1-4.724,2.031-9.131,3.042-13.163,4.175.324,8.715.593,13.572.782-.166.643-.327,1.295-.491,1.953-.866,3.5-1.744,7.3-2.609,11.341-4.857-.237-9.375-.554-13.514-.912m12.6,19.323c4.281.223,8.809.38,13.555.448-.711,4.281-1.374,8.761-1.97,13.415-4.736-.1-9.245-.288-13.507-.535q.871-6.92,1.922-13.328m.413-2.49c.8-4.685,1.646-9.127,2.515-13.316,4.305.182,8.858.3,13.629.327-.886,4.2-1.757,8.682-2.575,13.425-4.749-.069-9.289-.22-13.568-.435m3.042-15.811c.825-3.834,1.661-7.444,2.49-10.787.211-.854.423-1.694.634-2.529q5.558.178,11.627.186,1.045,0,2.1-.007-.657,2.523-1.306,5.187c-.632,2.6-1.27,5.36-1.9,8.262-4.772-.02-9.332-.133-13.64-.312m17.97-7.293q.737-3.024,1.481-5.869,6.7-.087,13.9-.435-1.164,4.331-2.323,9.148-.516,2.159-1.036,4.467c-4.753.189-9.356.283-13.78.293.588-2.662,1.176-5.2,1.762-7.6M111.4,74.411q3.278.059,6.719.061,3.492,0,7.147-.068c-1.252,4.015-2.58,8.531-3.906,13.5q-7.206.054-13.744-.153c1.273-4.852,2.554-9.315,3.785-13.34m-16.278-.66c4.23.27,8.8.481,13.669.6-1.223,4.034-2.49,8.485-3.752,13.315-4.862-.184-9.4-.449-13.584-.765,1.224-4.732,2.461-9.131,3.667-13.153m-16.054-1.4c3.149.351,6.5.678,10.03.968q1.684.134,3.456.262C91.36,77.6,90.129,81.992,88.92,86.7c-.249-.019-.5-.04-.747-.058-4.534-.387-8.771-.84-12.682-1.319,1.188-4.636,2.4-8.969,3.581-12.977m-4.2,15.431c4.008.5,8.359.961,13.023,1.359.133.012.269.022.4.036-1.009,4.032-2.031,8.427-3.025,13.139-4.818-.452-9.3-.973-13.389-1.522.98-4.646,1.992-8.994,2.989-13.011m-3.5,15.476c4.1.549,8.57,1.074,13.389,1.532-.85,4.165-1.675,8.56-2.447,13.168-4.821-.5-9.291-1.055-13.367-1.636.765-4.557,1.583-8.919,2.425-13.064m-4.7,28.676q.839-6.785,1.866-13.134c4.078.581,8.553,1.145,13.371,1.639q-1.017,6.367-1.873,13.214c-4.826-.528-9.3-1.116-13.364-1.718m26.559,50.776c-4.363-.322-8.471-.7-12.273-1.113-.344-.035-.685-.075-1.03-.11q-.113-6.814.055-13.422c.613.068,1.234.133,1.859.2,3.57.37,7.416.714,11.491,1.012q-.184,6.6-.1,13.432m.176-15.947c-3.983-.29-7.749-.629-11.248-.99-.707-.072-1.409-.152-2.106-.227q.221-6.8.689-13.345c.765.082,1.532.162,2.307.24,3.451.345,7.161.668,11.089.941q-.479,6.543-.731,13.381m.925-15.886c-3.885-.273-7.556-.588-10.966-.929-.822-.082-1.629-.165-2.434-.252q.54-6.818,1.3-13.285l2.031.2c3.534.341,7.348.658,11.394.919q-.763,6.48-1.324,13.343m14.713,32.673c-4.642-.147-9.083-.377-13.3-.663q-.091-6.824.094-13.436c4.229.28,8.7.506,13.367.65q-.21,6.6-.162,13.449m.256-15.961c-4.683-.143-9.153-.37-13.386-.649q.236-6.842.731-13.39c4.24.27,8.729.481,13.432.61-.337,4.366-.6,8.851-.778,13.429M96.835,151.044q.555-6.868,1.331-13.354c4.258.249,8.768.435,13.5.539q-.789,6.5-1.385,13.421c-4.707-.129-9.2-.341-13.442-.606m28.026,32.678q-6.872.072-13.306-.1-.054-6.85.162-13.457,4.368.1,8.95.107c1.464,0,2.95-.01,4.446-.029-.165,4.4-.259,8.9-.251,13.478m.356-15.989c-4.62.056-9.1.022-13.41-.079q.269-6.879.785-13.439,3.768.08,7.7.082c1.9,0,3.831-.022,5.78-.051q-.544,6.56-.857,13.487m1.077-16c-4.658.075-9.163.056-13.5-.029q.587-6.922,1.393-13.429c1.876.029,3.778.043,5.717.043q3.848,0,7.851-.082-.824,6.517-1.46,13.5m1.789-16.019c-4.685.1-9.224.119-13.582.053.607-4.659,1.273-9.148,1.987-13.432.994.012,1.992.014,3,.014q5.177,0,10.651-.155c-.736,4.291-1.428,8.812-2.059,13.519m-11.164-15.886c.825-4.753,1.7-9.245,2.6-13.444,4.417-.006,9.01-.088,13.759-.272-.918,4.2-1.825,8.732-2.687,13.558-4.717.143-9.281.186-13.669.158M144.295,135q-7.011.473-13.669.66c.636-4.722,1.338-9.245,2.081-13.541q6.7-.236,13.769-.753-1.155,6.458-2.181,13.633m2.652-16.187q-7.078.531-13.792.778c.873-4.843,1.791-9.378,2.713-13.579q6.764-.306,13.909-.9c-.954,4.191-1.912,8.773-2.83,13.7m3.425-16.273c-4.764.408-9.417.717-13.934.928.286-1.262.577-2.5.86-3.7q1.26-5.253,2.538-9.942,6.855-.392,14.091-1.084c-1.176,4.194-2.379,8.8-3.555,13.8m-9.833-15.273c1.457-5.216,2.88-9.823,4.17-13.741q6.985-.5,14.35-1.312c-1.295,3.766-2.805,8.449-4.391,13.931q-7.245.722-14.129,1.123" transform="translate(24.79 24.564)" fill="#bd361c"/>
            <path id="Trazado_897323" data-name="Trazado 897323" d="M84.548,33.689s-3.8-4.483-5.938,0-.5,13.556,5.278,12.072Z" transform="translate(34.599 14.113)" fill="#6b2131"/>
            <path id="Trazado_897324" data-name="Trazado 897324" d="M88.941,51.022l-.5,12.208s7.022,10.829,26.477-2.1c-3.685-4.115-3.824-11.942-2.336-16.684a23.982,23.982,0,0,0-3.755,1.889,12.891,12.891,0,0,1-1.549.672c-4.863,2.042-12.178,4.5-18.333,4.019" transform="translate(39.376 19.787)" fill="#a54b4a"/>
            <path id="Trazado_897325" data-name="Trazado 897325" d="M91.515,54.13s-6.561-1.122-9.544,4.7c0,0,9.271,9.411,13.789,13L99.133,63.2s-6.213-2.854-7.618-9.072" transform="translate(36.497 24.062)" fill="#bd361c"/>
            <path id="Trazado_897326" data-name="Trazado 897326" d="M93.846,63.928,96.9,73.155s16.849-2.135,23.372-15.418c0,0-2.609-4.542-10.359-5.326,0,0-3.577,7.791-16.068,11.517" transform="translate(41.784 23.336)" fill="#bd361c"/>
            <path id="Trazado_897327" data-name="Trazado 897327" d="M88.859,50.44l-.238,5.787c5.288-1.176,14.8-4.061,20.121-10.478-.483.215-1,.441-1.549.672-4.863,2.042-12.178,4.5-18.333,4.019" transform="translate(39.458 20.369)" fill="#23221e"/>
            <path id="Trazado_897328" data-name="Trazado 897328" d="M82.339,60.3c10.388,10.745,33.441-2.08,34.183-2.5l.019-.012c.212-.961.4-1.916.577-2.859a75.286,75.286,0,0,0,.747-22.471,17.011,17.011,0,0,0-11.036-16.914c-7.251-2.64-13.751.546-17.659,1.75-5.9,1.818-9.605,9.44-9.64,20.3-.04,13.328.233,20.034,2.81,22.7" transform="translate(35.408 6.468)" fill="#a54b4a"/>
            <path id="Trazado_897329" data-name="Trazado 897329" d="M86.386,23.656s2.155.214,1.4,2.19-5.081-.2-8.177,3.438c0,0-1.315-4.74,6.778-5.628" transform="translate(35.409 10.533)" fill="#23221e"/>
            <path id="Trazado_897330" data-name="Trazado 897330" d="M91.513,23.656s-2.156.214-1.4,2.19,5.081-.2,8.176,3.438c0,0,1.317-4.74-6.777-5.628" transform="translate(40.051 10.533)" fill="#23221e"/>
            <path id="Trazado_897331" data-name="Trazado 897331" d="M91.511,34.88c0,1.006,2.071,1.821,4.626,1.821s4.626-.815,4.626-1.821-2.071-1.821-4.626-1.821-4.626.815-4.626,1.821" transform="translate(40.745 14.719)" fill="#6b2131"/>
            <path id="Trazado_897332" data-name="Trazado 897332" d="M78.469,36.648a11.113,11.113,0,0,0,1.114.053c2.554,0,4.625-.815,4.625-1.821s-2.071-1.822-4.625-1.822c-.345,0-.682.016-1,.045Z" transform="translate(34.938 14.719)" fill="#6b2131"/>
            <path id="Trazado_897333" data-name="Trazado 897333" d="M91.91,31.259c0,1.382.627,2.5,1.4,2.5s1.4-1.12,1.4-2.5-.626-2.5-1.4-2.5-1.4,1.12-1.4,2.5" transform="translate(40.922 12.805)" fill="#23221e"/>
            <path id="Trazado_897334" data-name="Trazado 897334" d="M82.455,31.259c0,1.382.627,2.5,1.4,2.5s1.4-1.12,1.4-2.5-.627-2.5-1.4-2.5-1.4,1.12-1.4,2.5" transform="translate(36.712 12.805)" fill="#23221e"/>
            <path id="Trazado_897335" data-name="Trazado 897335" d="M87.612,40.7a6.669,6.669,0,0,1-4.8-2.006.568.568,0,0,1,.795-.812c4.155,4.061,9.692-.4,9.926-.59a.568.568,0,0,1,.721.877A12.02,12.02,0,0,1,87.612,40.7" transform="translate(36.794 16.545)" fill="#23221e"/>
            <path id="Trazado_897336" data-name="Trazado 897336" d="M86.217,36.371a5.072,5.072,0,0,1-1.148-.12.569.569,0,0,1-.4-.739l2.1-6.024a.569.569,0,0,1,1.074.374l-1.873,5.365a4.487,4.487,0,0,0,2.328-.5.568.568,0,1,1,.538,1,5.531,5.531,0,0,1-2.626.645" transform="translate(37.686 12.96)" fill="#23221e"/>
            <path id="Trazado_897337" data-name="Trazado 897337" d="M102.015,40.593c.066.155,1.882,4.366,4.493,5.6l.006,0,.013-.014c.214-.961.4-1.916.578-2.859a10.577,10.577,0,0,1-5.09-2.733" transform="translate(45.421 18.074)" fill="#23221e"/>
            <path id="Trazado_897338" data-name="Trazado 897338" d="M103.765,35.134s5.522-7.418,9.569-1.588c3.334,4.8-2.97,17.323-9.569,13.033Z" transform="translate(46.201 13.941)" fill="#a54b4a"/>
            <path id="Trazado_897339" data-name="Trazado 897339" d="M108.589,40.566a1.4,1.4,0,1,1-1.4-1.4,1.4,1.4,0,0,1,1.4,1.4" transform="translate(47.101 17.437)" fill="#fff"/>
            <path id="Trazado_897340" data-name="Trazado 897340" d="M104.463,43.18l-.062,0a.568.568,0,0,1-.5-.627,10.631,10.631,0,0,1,6.225-8.583.568.568,0,0,1,.422,1.055,9.494,9.494,0,0,0-5.518,7.653.568.568,0,0,1-.564.506" transform="translate(46.258 15.105)" fill="#23221e"/>
            <path id="Trazado_897341" data-name="Trazado 897341" d="M109.2,38.7a.57.57,0,0,1-.358-.127c-.493-.4-1.992-1.385-2.971-1.133a.568.568,0,1,1-.282-1.1c1.708-.438,3.743,1.168,3.972,1.353a.569.569,0,0,1-.36,1.009" transform="translate(46.822 16.144)" fill="#23221e"/>
            <path id="Trazado_897342" data-name="Trazado 897342" d="M120.036,26.4s-7.56,6.9-10.742,5.19,1.96-7.956,1.96-7.956-11.2,6.069-15.5,4.115,3.414-7.183,3.414-7.183-8.549,7.608-13.418,7.157,0-6.589,0-6.589S81.3,29.739,78.36,29s-.5-11.39,9.237-15.6,34.121-1.794,32.44,12.993" transform="translate(34.369 5.144)" fill="#23221e"/>
            <path id="Trazado_897343" data-name="Trazado 897343" d="M102.5,24.443s-2.487,15.772,1.486,15.843,7.975-6.069,5.118-18.462Z" transform="translate(45.297 9.717)" fill="#23221e"/>
            <path id="Trazado_897344" data-name="Trazado 897344" d="M147.2,77.576l.785,2.031.757,1.992,1.467,3.982c.965,2.655,1.938,5.3,2.849,7.979,1.837,5.342,3.636,10.7,5.34,16.126q1.27,4.067,2.479,8.181c.8,2.75,1.574,5.508,2.314,8.307s1.468,5.61,2.12,8.5c.335,1.431.642,2.9.955,4.363.293,1.491.593,2.97.854,4.514l.2,1.15.182,1.185.179,1.185c.058.4.105.822.156,1.233l.149,1.239c.051.406.081.871.121,1.3l.11,1.319.013.165c.029.363.049.789.052,1.142,0,.279,0,.558-.016.835-.012.217-.026.419-.043.63l-.026.273-.027.246-.029.244-.029.2-.061.4-.058.332c-.16.863-.309,1.448-.454,1.994s-.285,1.006-.423,1.454c-.276.89-.546,1.675-.817,2.44-.541,1.517-1.081,2.922-1.626,4.3-1.085,2.756-2.214,5.389-3.346,8.007s-2.281,5.2-3.435,7.765c-2.318,5.135-4.641,10.231-7.051,15.281s-4.8,10.078-7.3,15.124a11.468,11.468,0,0,1-20.93-9.33l.025-.059c4.09-10.185,8.2-20.475,12.139-30.664q1.472-3.824,2.882-7.631c.935-2.531,1.837-5.06,2.681-7.505.416-1.221.814-2.427,1.15-3.541.166-.552.319-1.088.429-1.529.056-.218.1-.418.127-.554s.03-.217-.01-.038l-.039.215-.026.188-.027.26c-.012.123-.019.238-.026.37-.01.191-.015.383-.012.575,0,.267.014.606.04.882l-.014-.094-.117-.747c-.043-.257-.065-.484-.121-.763l-.155-.818-.153-.825-.182-.863-.181-.864-.207-.89c-.264-1.179-.585-2.4-.895-3.62-.338-1.237-.662-2.466-1.03-3.717-.715-2.49-1.476-5.021-2.279-7.553-1.61-5.066-3.334-10.175-5.129-15.279s-3.615-10.234-5.519-15.335L123.113,95.6l-2.86-7.57L120.2,87.9a14.452,14.452,0,0,1,27-10.32" transform="translate(53.101 30.424)" fill="#a54b4a"/>
            <path id="Trazado_897345" data-name="Trazado 897345" d="M120.436,57.835s17.369,1.27,26.919,19.638S159.732,109.5,159.732,109.5l-30.5,10.7c-5.366-14.85-12.893-32.274-12.88-40.717Z" transform="translate(51.803 25.751)" fill="#bd361c"/>
            <path id="Trazado_897346" data-name="Trazado 897346" d="M126.094,103.372a.724.724,0,0,1-.671-.451l-9.589-23.664a.723.723,0,0,1,1.34-.543l9.589,23.664a.722.722,0,0,1-.4.941.715.715,0,0,1-.27.053" transform="translate(51.551 34.846)" fill="#bd361c"/>
            <path id="Trazado_897347" data-name="Trazado 897347" d="M120.881,88.21a.727.727,0,0,1-.311-.071l-3.752-1.791a.722.722,0,0,1,.621-1.3l3.753,1.791a.723.723,0,0,1-.312,1.374" transform="translate(51.829 37.834)" fill="#bd361c"/>
            <path id="Trazado_897348" data-name="Trazado 897348" d="M135.486,128.248a.723.723,0,0,1-.21-1.415c2.531-.772,10.721-1.11,11.068-1.124a.715.715,0,0,1,.752.692.723.723,0,0,1-.692.752c-.084,0-8.351.345-10.706,1.064a.719.719,0,0,1-.211.032" transform="translate(60.002 55.971)" fill="#6b2131"/>
            <path id="Trazado_897349" data-name="Trazado 897349" d="M136.261,128.981a.723.723,0,0,1-.5-1.243c1.363-1.317,4.642-3.969,4.781-4.081a.722.722,0,1,1,.908,1.124c-.033.027-3.367,2.724-4.685,4a.723.723,0,0,1-.5.2" transform="translate(60.347 54.986)" fill="#6b2131"/>
            <path id="Trazado_897350" data-name="Trazado 897350" d="M134.308,163.533S133,162.884,131.3,162.2a22.319,22.319,0,0,0-5.161-1.526,5.984,5.984,0,0,0-1.76.061c-.669.117-1.32.528-1.859.626.082,1.194.181,2.364.221,3.5.039,1.09.085,2-.812,2.3a5.434,5.434,0,0,1-2.292.092l-.116-.033a21.556,21.556,0,0,0-5.956-.831c-3.8.019-7.14,2.159-9.057,2.827s.361,3.149,3.563,2.916a24.345,24.345,0,0,1,6.979.41,22.619,22.619,0,0,0-6.349.926c-1.033.386-2.554.844-3.974,1.383a18.6,18.6,0,0,0-1.937.847c-1.052.555-1.8,1.178-1.838,1.882-.064,1.192,1.847,1.279,4.078,1.165.9-.043,1.856-.12,2.752-.166.382-.02.75-.039,1.1-.043,3.239-.055,4.739-.548,7.382-.009a17.545,17.545,0,0,0-4.914,1.422c-.286.166-.62.348-.981.543-.646.354-1.376.749-2.085,1.155a13.381,13.381,0,0,0-2.922,2.028c-1.006,1.136,2.311,2.512,5.534,1.614a19.15,19.15,0,0,0,2.977-1.156,11.121,11.121,0,0,1,2.4-.921c.091-.016.179-.03.267-.042a2.74,2.74,0,0,1,1.283.156s-.818.461-1.785,1.071l-.013.007c-.053.035-.11.068-.162.1-.61.386-1.262.821-1.8,1.23a9.784,9.784,0,0,0-2.679,4.015c-.279.86-.28,1.6.228,1.937.555.366,1.705-.064,3.064-.71,2.019-.96,4.492-2.4,6.138-2.447a133.471,133.471,0,0,0,14.655-1.383c5.59-.8,10.163-6,11.3-8.423a13.226,13.226,0,0,1,.675-1.211Z" transform="translate(44.948 71.521)" fill="#e7a743"/>
            <path id="Trazado_897351" data-name="Trazado 897351" d="M149.71,168s-9.287,16.846-15.818,21.076l-13.678-22.527s3.974-5.261,8.044-17.717c0,0,18.472,10.128,21.452,19.168" transform="translate(53.524 66.265)" fill="#e7a743"/>
            <path id="Trazado_897352" data-name="Trazado 897352" d="M146.1,173.292s-7.572-13.183-21.937-20.489l2.243-5.665s16.88,7.352,22.965,21.009Z" transform="translate(55.283 65.512)" fill="#cc861e"/>
            <path id="Trazado_897353" data-name="Trazado 897353" d="M120.795,57.545s-34.1,54.094-2.714,95.744l2.052-10.576s-16.194-33.671,8.952-83.526c0,0-3.237-5.35-8.29-1.642" transform="translate(46.662 25.039)" fill="#e7a743"/>
            <path id="Trazado_897354" data-name="Trazado 897354" d="M81.027,58.343s-33.592,47.7-18.489,94.494l2-14.623s-3.044-31.8,23.839-80.553c0,0-2.984-1.28-7.35.682" transform="translate(26.106 25.49)" fill="#e7a743"/>
          </g>
        </g>
      </g>
      <g id="Grupo_1106276" data-name="Grupo 1106276" transform="translate(15.036)">
        <g id="Grupo_1106275" data-name="Grupo 1106275" clip-path="url(#clip-path-3)">
          <g id="Grupo_1106274" data-name="Grupo 1106274">
            <g id="Grupo_1106273" data-name="Grupo 1106273" clip-path="url(#clip-path-3)">
              <path id="Trazado_897355" data-name="Trazado 897355" d="M93.367,74.323l.867,3.39.9,3.435,1.843,6.874q1.866,6.867,3.842,13.691c1.32,4.543,2.671,9.069,4.079,13.543s2.861,8.916,4.4,13.235q1.147,3.248,2.366,6.358l.612,1.541.623,1.5L114.219,141c1.844,4.219,3.839,8.53,5.857,12.828,4.049,8.6,8.256,17.25,12.48,25.792l.021.046a11.641,11.641,0,0,1-20.548,10.925c-4.826-8.462-9.556-16.88-14.233-25.458-2.335-4.293-4.648-8.6-6.936-13.083L90,150.337c-.285-.582-.574-1.133-.854-1.738l-.842-1.8-.8-1.781q-1.58-3.558-2.995-7.058c-1.9-4.679-3.654-9.323-5.348-13.971s-3.3-9.284-4.882-13.929-3.1-9.292-4.593-13.947l-2.212-7L66.389,85.6,65.3,82.037a14.557,14.557,0,1,1,27.857-8.46c.057.189.111.379.161.569Z" transform="translate(26.036 25.461)" fill="#ff8c64"/>
              <path id="Trazado_897356" data-name="Trazado 897356" d="M67.071,64.741s-6.274,3.24-2.436,18.865,9.8,35.931,9.8,35.931l29.52-10.059L96.093,77.5a22.784,22.784,0,0,0-6.856-11.588c-4.623-4.131-11.97-7.183-22.166-1.171" transform="translate(25.52 24.705)" fill="#7a8bff"/>
              <path id="Trazado_897357" data-name="Trazado 897357" d="M115.118,197.36c-15.505,8.927-53,13.526-77.454,3.812-8.972-3.563-10.545-5.753-9.864-21.861q.036-.9.083-1.8c.066-1.269.149-2.533.238-3.788.046-.606.094-1.213.143-1.812.184-2.25.4-4.453.637-6.571.066-.585.132-1.161.2-1.734a97.73,97.73,0,0,1,2.278-12.233c.149-.592.3-1.153.44-1.68.865-3.216,1.569-5.146,1.569-5.146a101.954,101.954,0,0,0,12.087,1.171c.579.024,1.154.045,1.734.059,21.149.558,42.672-4.232,52.646-6.824.6-.156,1.161-.306,1.673-.445,2.593-.7,4.055-1.15,4.055-1.15s.914,1.6,2.2,4.241c.236.489.485,1.013.742,1.567a87.739,87.739,0,0,1,6.1,17.28c.021.08.038.163.056.243.125.568.25,1.14.37,1.715.024.115.049.229.073.346,1.013,4.787,1.934,9.808,2.561,14.608v0c.083.617.156,1.231.229,1.837,1.223,10.532,1.407,15.741-2.79,18.156" transform="translate(11.135 55.299)" fill="#23221e"/>
              <path id="Trazado_897358" data-name="Trazado 897358" d="M107.456,141.955c-1.2.526-2.481,1.074-3.853,1.628-.532.215-1.076.433-1.633.648a115.865,115.865,0,0,1-29.722,7.483c-.433.042-.865.087-1.3.125a162.273,162.273,0,0,1-29.244-.3c-.613-.059-1.219-.114-1.815-.18-3.626-.37-6.877-.8-9.582-1.2.149-.593.3-1.154.44-1.682,2.776.41,6.119.846,9.849,1.22.589.056,1.185.115,1.788.17a157.387,157.387,0,0,0,29.686.122,114.265,114.265,0,0,0,29.056-7.285h0c.554-.215,1.091-.429,1.619-.645,1.414-.568,2.738-1.132,3.964-1.673.236.488.485,1.013.742,1.567" transform="translate(12.202 56.517)" fill="#42413c"/>
              <path id="Trazado_897359" data-name="Trazado 897359" d="M95.593,367.215c4.85,17.423,11.3,45.291,15.808,62.586l24.183-1.282-15-135.911-.222-2.1-.509-4.758c-1.021-44.859-6.7-87.128-16.074-119.866L62.195,185.247c2,49.319,16.267,75.158,27.347,107.867,0,0-6.859,30.287,6.051,74.1" transform="translate(25.038 66.781)" fill="#23221e"/>
              <path id="Trazado_897360" data-name="Trazado 897360" d="M118.79,347.431a.84.84,0,0,0,.011-1.676l-22.66-.341H96.13a.839.839,0,0,0-.011,1.675l22.66.342Z" transform="translate(38.382 139.056)" fill="#42413c"/>
              <path id="Trazado_897361" data-name="Trazado 897361" d="M107.406,256.887a31.593,31.593,0,0,1-5.521.506,25.542,25.542,0,0,1-6.176-.731,1.04,1.04,0,1,1,.5-2.018,26,26,0,0,0,10.975.143Z" transform="translate(38.213 102.502)" fill="#42413c"/>
              <path id="Trazado_897362" data-name="Trazado 897362" d="M98.032,355.57c3.316,13.6,7.836,31.373,13.294,53.605h1.79c-5.478-22.312-10.052-40.3-13.4-54.017-6.88-28.193-4.623-73.229-4.6-73.682a.848.848,0,0,0-.094-.433C71.58,234.6,68.117,188.49,68.086,188.03a.867.867,0,0,0-1.729.121c.031.464,3.511,46.79,27.018,93.468-.167,3.549-2.024,46.56,4.658,73.952" transform="translate(26.713 75.373)" fill="#42413c"/>
              <path id="Trazado_897363" data-name="Trazado 897363" d="M94.549,408.718l71.14,0a8.194,8.194,0,0,0,.031-3.763c-.617-3.069-2.975-7.5-10.692-11.264-.449-.216-.913-.433-1.4-.646-.882-.39-1.825-.771-2.837-1.14C133.2,385.478,127.5,377.938,127.5,377.938l-6.246-54.215s-13.623,0-32.562-1.377l7.236,62.493s-1.084,11.5-1.332,20.113c-.038,1.342-.055,2.617-.045,3.767" transform="translate(35.705 129.769)" fill="#e7a743"/>
              <path id="Trazado_897364" data-name="Trazado 897364" d="M98.32,383.486a.7.7,0,0,1-.7-.626L91.3,324.588a.7.7,0,1,1,1.394-.151l6.32,58.273a.7.7,0,0,1-.621.773.764.764,0,0,1-.077,0" transform="translate(36.755 130.359)" fill="#cc861e"/>
              <path id="Trazado_897365" data-name="Trazado 897365" d="M93.849,365.081v1.38a10.522,10.522,0,0,1,7.53,3.764c5.372,6.505,3.368,19.149,3.348,19.277a.69.69,0,0,0,.568.792c.038,0,.076.006.111.006a.69.69,0,0,0,.682-.575c.086-.543,2.121-13.395-3.647-20.378a11.866,11.866,0,0,0-8.592-4.267" transform="translate(37.781 146.973)" fill="#cc861e"/>
              <path id="Trazado_897366" data-name="Trazado 897366" d="M131.454,386.5a.687.687,0,0,0,.686.689h0a.689.689,0,0,0,.689-.684c.017-7.435,2.741-11.24,4.979-13.11-.447-.217-.912-.435-1.4-.648-2.372,2.187-4.944,6.281-4.958,13.754" transform="translate(52.92 150.06)" fill="#cc861e"/>
              <path id="Trazado_897367" data-name="Trazado 897367" d="M92.868,385.214l71.14,0a8.194,8.194,0,0,0,.031-3.763l-71.118-.715c-.038,1.342-.063,3.333-.053,4.483" transform="translate(37.385 153.273)" fill="#cc861e"/>
              <path id="Trazado_897368" data-name="Trazado 897368" d="M122.275,321.774l.547,8.3-34.032-.77-1.41-8.674Z" transform="translate(35.177 129.077)" fill="#cc861e"/>
              <path id="Trazado_897369" data-name="Trazado 897369" d="M110.013,337.234a1.342,1.342,0,0,1,.1-2.662l5.223-.452a1.342,1.342,0,0,1,.23,2.675l-5.222.45a1.328,1.328,0,0,1-.327-.011" transform="translate(43.834 134.507)" fill="#cc861e"/>
              <path id="Trazado_897370" data-name="Trazado 897370" d="M110.665,341.137a1.342,1.342,0,0,1,.1-2.662l5.223-.452a1.342,1.342,0,0,1,.23,2.675l-5.222.45a1.339,1.339,0,0,1-.327-.011" transform="translate(44.096 136.078)" fill="#cc861e"/>
              <path id="Trazado_897371" data-name="Trazado 897371" d="M110.962,345.135a1.342,1.342,0,0,1,.1-2.662l5.223-.452a1.342,1.342,0,0,1,.23,2.675l-5.222.45a1.328,1.328,0,0,1-.327-.011" transform="translate(44.215 137.688)" fill="#cc861e"/>
              <path id="Trazado_897372" data-name="Trazado 897372" d="M111.462,348.99a1.342,1.342,0,0,1,.1-2.662l5.223-.452a1.342,1.342,0,0,1,.23,2.675l-5.222.45a1.328,1.328,0,0,1-.327-.011" transform="translate(44.416 139.24)" fill="#cc861e"/>
              <path id="Trazado_897373" data-name="Trazado 897373" d="M111.713,353.234a1.342,1.342,0,0,1,.1-2.662l5.222-.452a1.342,1.342,0,1,1,.231,2.675l-5.222.45a1.331,1.331,0,0,1-.327-.011" transform="translate(44.518 140.948)" fill="#cc861e"/>
              <path id="Trazado_897374" data-name="Trazado 897374" d="M112,357.089a1.342,1.342,0,0,1,.1-2.662l5.223-.452a1.342,1.342,0,0,1,.23,2.675l-5.222.45a1.324,1.324,0,0,1-.327-.011" transform="translate(44.634 142.5)" fill="#cc861e"/>
              <path id="Trazado_897375" data-name="Trazado 897375" d="M112.471,361.21a1.342,1.342,0,0,1,.1-2.662l5.222-.452a1.342,1.342,0,0,1,.231,2.675l-5.222.45a1.33,1.33,0,0,1-.327-.011" transform="translate(44.823 144.159)" fill="#cc861e"/>
              <path id="Trazado_897376" data-name="Trazado 897376" d="M29.669,291.977q.114,3.669.245,7.424l2.306,92.949H59.656c1.769-13.81,3.936-26.784,6.068-39.525,6.974-41.68-.477-57.584-.477-57.584s9.09-82.107,9.762-103.416L29.076,167.271S18.4,204.108,29.6,289.755c.021.738.042,1.48.066,2.222" transform="translate(9.857 67.339)" fill="#23221e"/>
              <path id="Trazado_897377" data-name="Trazado 897377" d="M53.542,326.55c-.762,5.1-4.265,29.457-7.906,58.048h1.832c3.7-28.492,7.265-52.679,8.023-57.758,2.563-17.2-2.7-39.06-3.257-41.292l11.859-97.921a.985.985,0,0,0-1.955-.237l-11.88,98.1a.967.967,0,0,0,.024.365c.059.229,5.892,23.043,3.261,40.692" transform="translate(18.372 75.091)" fill="#42413c"/>
              <path id="Trazado_897378" data-name="Trazado 897378" d="M31.459,349.9H53.294a.839.839,0,0,0,0-1.675H31.459a.839.839,0,0,0,0,1.675" transform="translate(12.347 140.187)" fill="#42413c"/>
              <path id="Trazado_897379" data-name="Trazado 897379" d="M43.663,257.472a25.607,25.607,0,0,1-6.18.735,33.773,33.773,0,0,1-9.284-1.386c-.024-.742-.045-1.484-.066-2.222,4.079,1.258,9.585,2.208,15.027.856a1.039,1.039,0,0,1,.5,2.017" transform="translate(11.326 102.496)" fill="#42413c"/>
              <path id="Trazado_897380" data-name="Trazado 897380" d="M58.647,389.5c0,.158,0,.311-.007.461-.015.7-.046,1.334-.076,1.875-.072,1.191-.158,1.923-.158,1.923H18.887a21.688,21.688,0,0,1-.046-3.8c.259-4.038,1.6-10.416,7.059-14.63,7.472-5.777,4.586-4.571,6.118-7.205.174-.293,1.518-4.766,1.661-5.075,1.285-2.735,2.469-4.027,9.549-4.027,9.39,0,10.218,4.557,11.221,6.957a45.028,45.028,0,0,1,1.562,5.578c.237,1,.473,2.066.705,3.152.579,2.724,1.119,5.567,1.488,7.836a41.2,41.2,0,0,1,.443,6.953" transform="translate(7.562 144.535)" fill="#e7a743"/>
              <path id="Trazado_897381" data-name="Trazado 897381" d="M49.1,386.826a.7.7,0,0,1-.686-.561c-.105-.508-2.692-12.442-14.1-12.442h-.038c-11.347.027-13.793,11.354-13.893,11.835a.7.7,0,0,1-1.375-.278c.027-.131,2.762-12.93,15.264-12.96h.041c12.563,0,15.442,13.43,15.469,13.564a.7.7,0,0,1-.547.828.683.683,0,0,1-.14.014" transform="translate(7.651 149.928)" fill="#cc861e"/>
              <path id="Trazado_897382" data-name="Trazado 897382" d="M63.357,319.454l-1.484,7.885L51.288,383.627l-23.5,2.551.617-59.8.079-7.849Z" transform="translate(11.185 128.234)" fill="#e7a743"/>
              <path id="Trazado_897383" data-name="Trazado 897383" d="M43.113,382.97a.713.713,0,0,1-.132-.013.7.7,0,0,1-.558-.819l11.594-60.95a.7.7,0,1,1,1.377.262L43.8,382.4a.7.7,0,0,1-.689.569" transform="translate(17.073 129.073)" fill="#cc861e"/>
              <path id="Trazado_897384" data-name="Trazado 897384" d="M66.035,319.531l-.606,7.916-3.209-.092L28.748,326.4l-1.825-.05V318.5l1.9.052,34.876.92Z" transform="translate(10.839 128.22)" fill="#cc861e"/>
              <path id="Trazado_897385" data-name="Trazado 897385" d="M44.875,331.149a1.082,1.082,0,0,1-.283-.028,19.53,19.53,0,0,0-9.164.08,1.127,1.127,0,1,1-.665-2.154,21.672,21.672,0,0,1,10.329-.123,1.127,1.127,0,0,1-.216,2.226" transform="translate(13.675 132.194)" fill="#cc861e"/>
              <path id="Trazado_897386" data-name="Trazado 897386" d="M44.248,334.9a1.078,1.078,0,0,1-.283-.028,19.528,19.528,0,0,0-9.164.08,1.127,1.127,0,0,1-.665-2.154,21.673,21.673,0,0,1,10.329-.123,1.127,1.127,0,0,1-.216,2.226" transform="translate(13.422 133.705)" fill="#cc861e"/>
              <path id="Trazado_897387" data-name="Trazado 897387" d="M43.957,338.982a1.086,1.086,0,0,1-.283-.028,19.529,19.529,0,0,0-9.164.08,1.127,1.127,0,0,1-.663-2.154,21.668,21.668,0,0,1,10.329-.123,1.127,1.127,0,0,1-.217,2.226" transform="translate(13.306 135.347)" fill="#cc861e"/>
              <path id="Trazado_897388" data-name="Trazado 897388" d="M43.424,343.1a1.094,1.094,0,0,1-.285-.028,19.525,19.525,0,0,0-9.163.08A1.127,1.127,0,1,1,33.312,341a21.663,21.663,0,0,1,10.327-.123,1.127,1.127,0,0,1-.216,2.226" transform="translate(13.09 137.006)" fill="#cc861e"/>
              <path id="Trazado_897389" data-name="Trazado 897389" d="M42.8,346.856a1.084,1.084,0,0,1-.285-.028,19.523,19.523,0,0,0-9.163.08,1.127,1.127,0,1,1-.665-2.154,21.643,21.643,0,0,1,10.327-.123,1.127,1.127,0,0,1-.215,2.226" transform="translate(12.838 138.517)" fill="#cc861e"/>
              <path id="Trazado_897390" data-name="Trazado 897390" d="M42.506,350.934a1.079,1.079,0,0,1-.283-.028,19.53,19.53,0,0,0-9.164.08,1.127,1.127,0,1,1-.663-2.154,21.664,21.664,0,0,1,10.327-.123,1.127,1.127,0,0,1-.216,2.226" transform="translate(12.721 140.159)" fill="#cc861e"/>
              <path id="Trazado_897391" data-name="Trazado 897391" d="M42.3,355.3a1.081,1.081,0,0,1-.283-.028,19.53,19.53,0,0,0-9.164.08,1.127,1.127,0,1,1-.663-2.154,21.663,21.663,0,0,1,10.327-.123A1.127,1.127,0,0,1,42.3,355.3" transform="translate(12.64 141.917)" fill="#cc861e"/>
              <path id="Trazado_897392" data-name="Trazado 897392" d="M48.644,385.912c0,.159,0,.311-.007.461-.015.7-.046,1.334-.076,1.875a11.027,11.027,0,0,1-4.105-5.323c-2.446-6.661,1.314-14.654,1.473-14.992l.079.038c.237,1,.473,2.066.705,3.152-.889,2.72-1.916,7.291-.491,11.16a9.182,9.182,0,0,0,2.422,3.628" transform="translate(17.565 148.122)" fill="#cc861e"/>
              <path id="Trazado_897393" data-name="Trazado 897393" d="M58.638,381.081c-.053,2.25-.233,3.8-.233,3.8H18.885a21.789,21.789,0,0,1-.045-3.8Z" transform="translate(7.562 153.414)" fill="#cc861e"/>
              <path id="Trazado_897394" data-name="Trazado 897394" d="M35.734,191.4c1.519-16.055,1.519-31.3,1.519-31.3-.62-4.621-.654-9.6-1.916-14.462-3.839-11.086-8.331-19.032-12.326-30.484-.259-.743-.523-1.48-.788-2.223-.173-.484-.351-.964-.529-1.447-1.316-3.582-2.724-7.153-4.2-10.592-6.442-15.01-7.48-31.928,8.013-37.1,1.126-.373,2.236-.734,3.317-1.073,7.327-2.318,13.435-3.84,15.135-4.251.309-.076,9.07-2.887,9.07-2.887l23.925,5.469,3.1.257c4.543.509,9.362.38,12.406,1.048,2.678.592,4.3.447,7.026,1.253,6.411,1.895,6.229,10.515,8.222,21.225.032.185.067.37.1.558.013.059.025.123.038.182.348,1.821.766,3.621,1.237,5.4.526,1.993,1.109,3.959,1.727,5.877,3.752,11.765,8.272,17.165,7.5,24.568-.7,6.706-7.539,15.848-9.357,17.8-.418.449-.665.689-.665.689,0,.032.007.069.013.1q.04.4.1.844c.136,1.129.334,2.473.583,3.992,4.387,22.938,9.78,42.2,9.78,42.2S72.38,193.609,35.734,191.4" transform="translate(5.257 22.38)" fill="#7a8bff"/>
              <path id="Trazado_897395" data-name="Trazado 897395" d="M85.612,94.674a.7.7,0,0,1-.648-.432c-4.658-11.2-6.918-26.53-6.94-26.684a.7.7,0,1,1,1.389-.2c.022.153,2.258,15.312,6.846,26.347a.7.7,0,0,1-.377.916.68.68,0,0,1-.269.055" transform="translate(31.408 26.875)" fill="#5560d8"/>
              <path id="Trazado_897396" data-name="Trazado 897396" d="M60.073,72.933a29.383,29.383,0,0,1-13.25-3.379,40.139,40.139,0,0,1-9.941-7.087.7.7,0,0,1,1.01-.975c.149.154,15.11,15.347,31.5,8.052a.7.7,0,0,1,.569,1.282,24.149,24.149,0,0,1-9.887,2.107" transform="translate(14.769 24.669)" fill="#5560d8"/>
              <path id="Trazado_897397" data-name="Trazado 897397" d="M113.439,185.876c-14.045,3.422-63.509,6.536-83.023,4.342-1.732-24.311.379-33.478-2.2-50.64,0,0,6.808-5.289,9.811-30.5A73.226,73.226,0,0,0,26.266,60.686c1.743-1.015,4.993-2.483,7.222-2.066A68,68,0,0,1,45.133,89.966c12.345-.595,42.551-3.088,42.551-3.088-4.822-20.8-12.926-26.864-12.926-26.864.746-.007,1.55-.039,2.285-.079a15.783,15.783,0,0,1,5.511.672,1.322,1.322,0,0,1,.174.059c4.8,5.052,9.622,19.59,12.361,25.34,2.668,5.613,6.689,8.505,11.7,13.468,3.408,9.229,6.877,14.215,6.194,20.768-.7,6.709-7.54,15.848-9.355,17.8-.419.447-.668.689-.668.689,0,.031.006.065.013.1.029.265.06.548.1.844.133,1.129.334,2.473.579,3.99,4.389,22.938,9.782,42.208,9.782,42.208" transform="translate(10.574 23.57)" fill="#23221e"/>
              <path id="Trazado_897398" data-name="Trazado 897398" d="M94.4,162.426c-.038-.017-.076-.038-.115-.059a24.416,24.416,0,0,1-8.317-7.763q-.482-.7-.95-1.456h0a53.314,53.314,0,0,1-5.881-14.521q.9-.234,1.673-.443a51.077,51.077,0,0,0,5.777,14.2c.309.5.634.989.964,1.456a23.145,23.145,0,0,0,6.352,6.284c.021.079.038.163.056.243.125.568.25,1.14.37,1.715.024.114.049.229.073.346" transform="translate(31.856 55.63)" fill="#42413c"/>
              <path id="Trazado_897399" data-name="Trazado 897399" d="M47.073,143.382a48.36,48.36,0,0,1-4.038,15.4c-.262.551-.536,1.084-.828,1.6a23.333,23.333,0,0,1-6,7.222,18.665,18.665,0,0,1-8.22,3.722c.045-.606.094-1.212.142-1.812a16.936,16.936,0,0,0,7.042-3.3,21.4,21.4,0,0,0,5.243-6.176c.3-.513.586-1.044.857-1.592a45.865,45.865,0,0,0,4.069-15.127c.578.024,1.153.045,1.732.059" transform="translate(11.267 57.698)" fill="#42413c"/>
              <path id="Trazado_897400" data-name="Trazado 897400" d="M64.626,194.226a.867.867,0,0,0,.957.757h.007a.866.866,0,0,0,.757-.964c-.387-3.227-.756-6.537-1.107-9.846q-.093-.873-.182-1.748c-1.125-10.817-2.035-21.469-2.637-29-.048-.609-.1-1.2-.139-1.766-.13-1.652-.243-3.118-.337-4.359q-.873.008-1.739.006c.094,1.243.208,2.722.339,4.391.043.567.093,1.158.139,1.766.6,7.463,1.5,18.023,2.612,28.775.06.593.123,1.189.184,1.781.363,3.429.746,6.864,1.146,10.205" transform="translate(24.238 59.3)" fill="#42413c"/>
              <path id="Trazado_897401" data-name="Trazado 897401" d="M60.447,183.408a22.065,22.065,0,0,0,3.182.67,17.018,17.018,0,0,0,1.76.151,11.8,11.8,0,0,0,1.654-.06,5.8,5.8,0,0,0,2.787-.958,3.679,3.679,0,0,0,1.49-3.038c.067-3.407-.917-17.264-1.658-27.057q-.065-.9-.132-1.76c-.121-1.567-.231-2.99-.325-4.2-.576.027-1.156.053-1.735.073.094,1.217.208,2.659.327,4.246q.063.852.135,1.76c.735,9.769,1.72,23.605,1.655,26.908a1.934,1.934,0,0,1-.778,1.67,5.923,5.923,0,0,1-3.6.669c-.6-.031-1.2-.1-1.76-.185a19.915,19.915,0,0,1-2.5-.55.867.867,0,1,0-.5,1.661" transform="translate(24.086 59.242)" fill="#42413c"/>
              <path id="Trazado_897402" data-name="Trazado 897402" d="M82.73,142.474a67.6,67.6,0,0,1-24.152-4.627,66.253,66.253,0,0,1-15.667-8.4.689.689,0,1,1,.846-1.087,66.234,66.234,0,0,0,15.36,8.218c8.658,3.335,22.151,6.547,37.275,2.91a.689.689,0,0,1,.323,1.339,59.718,59.718,0,0,1-13.984,1.647" transform="translate(17.168 51.616)" fill="#42413c"/>
              <path id="Trazado_897403" data-name="Trazado 897403" d="M54.647,121.753q-2.657,0-5.448-.083a.688.688,0,1,1,.042-1.376c26.168.791,43.912-4.417,44.083-4.47a.689.689,0,0,1,.405,1.317c-.163.049-15.7,4.612-39.083,4.612" transform="translate(19.538 46.616)" fill="#42413c"/>
              <path id="Trazado_897404" data-name="Trazado 897404" d="M32.991,166.984h-.048a.689.689,0,0,1-.64-.734c1.356-19.912-1.867-49.5-1.9-49.8a.689.689,0,1,1,1.369-.15c.032.3,3.269,30.005,1.9,50.04a.689.689,0,0,1-.687.642" transform="translate(12.238 46.573)" fill="#42413c"/>
              <path id="Trazado_897405" data-name="Trazado 897405" d="M67.21,108.029a18.507,18.507,0,0,1-15.793-8.553,29.34,29.34,0,0,1-4.334-10.3.68.68,0,0,1,.126-.532.687.687,0,0,1,.474-.273l35.536-4.032a.689.689,0,0,1,.735.48c.119.381,2.843,9.4-1.452,16.177-2.358,3.72-6.363,6-11.906,6.787a24.288,24.288,0,0,1-3.386.245" transform="translate(18.95 33.951)" fill="#42413c"/>
              <path id="Trazado_897406" data-name="Trazado 897406" d="M24.2,114.768a.691.691,0,0,1-.184-.025.7.7,0,0,1-.494-.86C25.44,106.824,30.294,93.052,35.8,84.04a.7.7,0,0,1,1.2.731c-5.432,8.887-10.228,22.5-12.125,29.479a.7.7,0,0,1-.676.518" transform="translate(9.459 33.698)" fill="#5560d8"/>
              <path id="Trazado_897407" data-name="Trazado 897407" d="M30.328,90.468a.7.7,0,0,1-.258-1.354l4.422-1.745a.7.7,0,1,1,.515,1.3l-4.422,1.745a.718.718,0,0,1-.257.049" transform="translate(11.927 35.153)" fill="#5560d8"/>
              <path id="Trazado_897408" data-name="Trazado 897408" d="M83.427,22.257c-2.147,5.758-6.578,13.871-12.4,21.736-.073.1-.144.192-.216.288-10.74,14.4-26.138,27.858-40.741,24.347-31.816-7.652-20.9-38.334-20.9-38.334s5.65,23.28,21.44,11.552C45.342,30.9,43.235-.466,64.262.006c13.923.313,17.81,9.964,18.849,16.449.028.173.052.341.076.509a25.961,25.961,0,0,1,.24,5.293" transform="translate(2.962 0)" fill="#23221e"/>
              <path id="Trazado_897409" data-name="Trazado 897409" d="M53.737,15.134a.7.7,0,0,1-.377-.111c-.919-.588-8.981-5.867-9.174-10.016A3.082,3.082,0,0,1,45.46,2.364a3.18,3.18,0,0,1,3.255-.655c3.851,1.518,5.535,11.483,5.714,12.615a.7.7,0,0,1-.693.811M47.666,2.911a2.224,2.224,0,0,0-1.342.558,1.672,1.672,0,0,0-.738,1.473c.114,2.436,4.4,6,7.155,7.965-.717-3.435-2.313-9.016-4.54-9.892a1.443,1.443,0,0,0-.534-.1" transform="translate(17.786 0.607)" fill="#e7a743"/>
              <path id="Trazado_897410" data-name="Trazado 897410" d="M51.358,15.651a.7.7,0,0,1-.693-.812c.181-1.13,1.885-11.093,5.739-12.6a3.179,3.179,0,0,1,3.254.661,3.082,3.082,0,0,1,1.269,2.645c-.2,4.149-8.274,9.413-9.194,10a.7.7,0,0,1-.376.109M57.448,3.44a1.432,1.432,0,0,0-.532.1c-2.229.872-3.837,6.45-4.56,9.883,2.756-1.959,7.052-5.514,7.17-7.95A1.668,1.668,0,0,0,58.792,4a2.218,2.218,0,0,0-1.344-.561" transform="translate(20.393 0.821)" fill="#e7a743"/>
              <path id="Trazado_897411" data-name="Trazado 897411" d="M72.314,18.1c-2.147,5.758-6.578,13.871-12.4,21.736-.073.1-.144.192-.216.288-8.566,6.047-21.5,8.272-23.584,2.739-4-10.608,2.9-28.172,13.815-31.335,8.173-2.368,18.81-.788,22.148,1.279a25.961,25.961,0,0,1,.24,5.293" transform="translate(14.075 4.162)" fill="#e7a743"/>
              <path id="Trazado_897412" data-name="Trazado 897412" d="M54.458,64.853S41,62.169,37.348,48.522c-3.478-12.993-.62-19.682,3.22-26.641,2.894-5.239,11.961-12.264,24.542-9.573,12.7,2.718,22.149,9.355,23.443,19.838,2.421,19.618-13.641,43.342-34.1,32.707" transform="translate(14.404 4.716)" fill="#23221e"/>
              <path id="Trazado_897413" data-name="Trazado 897413" d="M68.36,40.3s4.425-3.418,5.529,1.182S71.65,54.2,66.57,51.668Z" transform="translate(26.8 15.731)" fill="#d4602c"/>
              <path id="Trazado_897414" data-name="Trazado 897414" d="M66.105,45.948a6.973,6.973,0,0,0-4.651,5A6.605,6.605,0,1,0,69.3,45.872l-.065-.011a1.081,1.081,0,0,0,.171,1.094,5.529,5.529,0,0,1,1.931.969,5.58,5.58,0,1,1-8.877,3.241,5.415,5.415,0,0,1,4.154-4.2Z" transform="translate(24.681 18.463)" fill="#ffa523"/>
              <path id="Trazado_897415" data-name="Trazado 897415" d="M65.736,56.967,63.773,68.434S55.08,77.117,39.544,61.2c4.251-3.1,5.938-10.355,5.5-15.066A22.867,22.867,0,0,1,48.16,48.64a12.4,12.4,0,0,0,1.31.934c4.119,2.87,10.441,6.612,16.266,7.393" transform="translate(15.919 18.572)" fill="#ff8c64"/>
              <path id="Trazado_897416" data-name="Trazado 897416" d="M63.263,56.248l-.93,5.435c-4.689-2.149-12.97-6.73-16.646-13.762.407.3.843.609,1.31.934,4.119,2.87,10.441,6.612,16.266,7.393" transform="translate(18.393 19.292)" fill="#23221e"/>
              <path id="Trazado_897417" data-name="Trazado 897417" d="M81.2,48.969q-.387,1.786-.752,3.368c-1.829,7.927-3.31,12.17-5.645,13.742C63,74.01,44.085,57.48,43.477,56.947a.035.035,0,0,0-.014-.015c-.008-.938,0-1.865.032-2.777a71.685,71.685,0,0,1,3.779-21.067,16.2,16.2,0,0,1,13.643-13.55c7.278-1.013,12.7,3.248,16.093,5.147,5.126,2.867,7.062,10.7,4.931,20.82-.255,1.212-.5,2.369-.741,3.464" transform="translate(17.496 7.803)" fill="#ff8c64"/>
              <path id="Trazado_897418" data-name="Trazado 897418" d="M63.4,29.116s1.965.628.865,2.316-4.69-1.2-8.3,1.574c0,0-.281-4.675,7.431-3.889" transform="translate(22.53 11.685)" fill="#23221e"/>
              <path id="Trazado_897419" data-name="Trazado 897419" d="M61.092,40.038c-.2.937-2.29,1.282-4.669.774s-4.145-1.68-3.944-2.617,2.29-1.282,4.669-.774,4.145,1.68,3.944,2.617" transform="translate(21.12 14.971)" fill="#d4602c"/>
              <g id="Grupo_1106272" data-name="Grupo 1106272" transform="translate(94.402 56.612)" opacity="0.8">
                <g id="Grupo_1106271" data-name="Grupo 1106271">
                  <g id="Grupo_1106270" data-name="Grupo 1106270" clip-path="url(#clip-path-5)">
                    <path id="Trazado_897420" data-name="Trazado 897420" d="M71.6,40.523q-.387,1.786-.752,3.368c-2.167-.548-3.717-1.638-3.527-2.519s2.066-1.244,4.279-.849" transform="translate(-67.306 -40.363)" fill="#d4602c"/>
                  </g>
                </g>
              </g>
              <path id="Trazado_897421" data-name="Trazado 897421" d="M59.668,35.764c-.275,1.286-1.081,2.2-1.8,2.049s-1.08-1.32-.8-2.606,1.08-2.2,1.8-2.049,1.08,1.32.805,2.606" transform="translate(22.935 13.342)" fill="#23221e"/>
              <path id="Trazado_897422" data-name="Trazado 897422" d="M68.74,37.7c-.276,1.286-1.083,2.2-1.8,2.049s-1.08-1.321-.8-2.606,1.08-2.2,1.8-2.049,1.08,1.32.806,2.606" transform="translate(26.586 14.123)" fill="#23221e"/>
              <path id="Trazado_897423" data-name="Trazado 897423" d="M64.4,46.714a6.347,6.347,0,0,0,4.868-.91.541.541,0,0,0-.578-.914c-4.676,2.952-8.943-2.3-9.121-2.526a.541.541,0,1,0-.847.673A11.447,11.447,0,0,0,64.4,46.714" transform="translate(23.595 16.972)" fill="#23221e"/>
              <path id="Trazado_897424" data-name="Trazado 897424" d="M64.917,42.235a4.754,4.754,0,0,0,1.093.116.542.542,0,0,0,.391-.191.549.549,0,0,0,.123-.418l-.757-6.025a.541.541,0,0,0-1.074.135l.675,5.366a4.277,4.277,0,0,1-2.066-.93.541.541,0,1,0-.7.823,5.272,5.272,0,0,0,2.317,1.123" transform="translate(25.125 14.188)" fill="#23221e"/>
              <path id="Trazado_897425" data-name="Trazado 897425" d="M48.778,43.083c-.093.13-2.621,3.69-5.3,4.321h0l-.01-.015c-.007-.938.006-1.865.032-2.777a10.07,10.07,0,0,0,5.282-1.53" transform="translate(17.497 17.344)" fill="#23221e"/>
              <path id="Trazado_897426" data-name="Trazado 897426" d="M49.9,37.741s-3.664-8.006-8.592-3.384c-4.06,3.808-.684,16.717,6.313,14.038Z" transform="translate(15.926 13.253)" fill="#ff8c64"/>
              <path id="Trazado_897427" data-name="Trazado 897427" d="M41.677,41.206a6.973,6.973,0,0,0-4.651,5,6.605,6.605,0,1,0,7.843-5.079l-.065-.011a1.084,1.084,0,0,0,.171,1.094,5.505,5.505,0,0,1,1.931.969,5.58,5.58,0,1,1-8.877,3.241,5.417,5.417,0,0,1,4.154-4.2Z" transform="translate(14.847 16.554)" fill="#ffa523"/>
              <path id="Trazado_897428" data-name="Trazado 897428" d="M46.352,45.175l.059.01A.542.542,0,0,0,47,44.7a10.12,10.12,0,0,0-4.086-9.23.541.541,0,1,0-.6.9,9.038,9.038,0,0,1,3.612,8.223.542.542,0,0,0,.425.583" transform="translate(16.939 14.243)" fill="#23221e"/>
              <path id="Trazado_897429" data-name="Trazado 897429" d="M42.218,39.823a.541.541,0,0,0,.358-.046c.54-.275,2.132-.893,2.993-.464a.541.541,0,1,0,.482-.969c-1.5-.746-3.718.342-3.966.468a.541.541,0,0,0,.133,1.011" transform="translate(16.824 15.332)" fill="#23221e"/>
              <path id="Trazado_897430" data-name="Trazado 897430" d="M46.477,27.707s5.665,7.925,8.967,6.972-.24-7.8-.24-7.8S64.424,34.76,68.817,33.8s-1.748-7.366-1.748-7.366,6.443,8.784,11.065,9.334,1.311-6.132,1.311-6.132,2.431,8.9,5.312,8.8S86.429,26.038,78.2,20.183,46.756,10.1,46.477,27.707" transform="translate(18.711 6.08)" fill="#23221e"/>
              <path id="Trazado_897431" data-name="Trazado 897431" d="M52.936,27.841S52.111,43.02,48.4,42.294s-6.215-7.237-1.087-18.205Z" transform="translate(17.878 9.698)" fill="#23221e"/>
              <path id="Trazado_897432" data-name="Trazado 897432" d="M68.255,30.479s-2.049-.231-1.738,1.759,4.772.825,6.927,4.83c0,0,2.168-4.152-5.19-6.589" transform="translate(26.765 12.267)" fill="#23221e"/>
              <path id="Trazado_897433" data-name="Trazado 897433" d="M59.074,137.6c.105.346.21.7.31,1.058a267.789,267.789,0,0,1,6.383,29.482s-6.759-7.091-13.5-15.246q-.353-.425-.7-.854C47.2,146.7,42.935,141,40.643,136.585c-.182-.355-.356-.7-.511-1.038-.955-2.037-1.407-3.739-1.142-4.91,1.166-5.138,6.571-8.535,13.128-6.717,2.237.621,4.668,6.04,6.955,13.682" transform="translate(15.667 49.688)" fill="#ff6f1c"/>
              <path id="Trazado_897434" data-name="Trazado 897434" d="M45.2,130.4s-18.368-8.762-15.008-12.813,16.124,9.366,16.124,9.366-4.986-12.46.32-15.642,4.543,17.326,4.543,17.326c-1.8,2.114-3.807,2.614-5.979,1.762" transform="translate(11.988 44.676)" fill="#6b8429"/>
              <path id="Trazado_897435" data-name="Trazado 897435" d="M48.884,129.131a.549.549,0,0,1-.405.658,18.072,18.072,0,0,0-8.185,4.668c-.182-.355-.356-.7-.511-1.038a18.9,18.9,0,0,1,8.444-4.693.548.548,0,0,1,.658.405" transform="translate(16.016 51.816)" fill="#bd361c"/>
              <path id="Trazado_897436" data-name="Trazado 897436" d="M55.8,133.533c.105.346.21.7.31,1.058a19.756,19.756,0,0,0-8.174,3.728.545.545,0,0,1-.7-.835,20.4,20.4,0,0,1,8.567-3.951" transform="translate(18.938 53.757)" fill="#bd361c"/>
              <path id="Trazado_897437" data-name="Trazado 897437" d="M54.8,141.515a.545.545,0,0,1-.338.694,16.879,16.879,0,0,0-5.824,3.553c-.234-.283-.47-.567-.7-.854a17.977,17.977,0,0,1,6.171-3.731.545.545,0,0,1,.694.338" transform="translate(19.298 56.822)" fill="#bd361c"/>
              <path id="Trazado_897438" data-name="Trazado 897438" d="M73.555,137.452c.05.359.1.724.144,1.093a267.783,267.783,0,0,1,1.794,30.11s-5.595-8.041-11-17.131c-.189-.317-.379-.633-.565-.952-3.5-5.951-6.84-12.239-8.429-16.947-.126-.377-.244-.748-.345-1.1-.633-2.159-.818-3.91-.376-5.027,1.937-4.9,7.8-7.428,14-4.627,2.114.957,3.687,6.682,4.777,14.585" transform="translate(21.954 48.994)" fill="#ff6f1c"/>
              <path id="Trazado_897439" data-name="Trazado 897439" d="M60.924,127.812s-16.811-11.47-12.869-14.96,14.5,11.726,14.5,11.726-3.02-13.078,2.711-15.409S67.1,126.987,67.1,126.987c-2.105,1.812-4.161,2-6.178.825" transform="translate(19.105 43.873)" fill="#6b8429"/>
              <path id="Trazado_897440" data-name="Trazado 897440" d="M64.625,127.532a.548.548,0,0,1-.5.588,18.08,18.08,0,0,0-8.8,3.359c-.126-.377-.245-.748-.345-1.1a18.891,18.891,0,0,1,9.062-3.344.547.547,0,0,1,.588.5" transform="translate(22.132 51.139)" fill="#bd361c"/>
              <path id="Trazado_897441" data-name="Trazado 897441" d="M70.773,132.931c.05.359.1.724.144,1.093a19.757,19.757,0,0,0-8.648,2.432.546.546,0,0,1-.567-.933,20.416,20.416,0,0,1,9.07-2.592" transform="translate(24.735 53.515)" fill="#bd361c"/>
              <path id="Trazado_897442" data-name="Trazado 897442" d="M68.534,140.773a.545.545,0,0,1-.44.634,16.883,16.883,0,0,0-6.3,2.62c-.188-.317-.377-.633-.564-.952a17.979,17.979,0,0,1,6.669-2.742.545.545,0,0,1,.634.44" transform="translate(24.65 56.491)" fill="#bd361c"/>
              <path id="Trazado_897443" data-name="Trazado 897443" d="M74.359,140.233q.3.454.614.916a268.184,268.184,0,0,0,18.579,23.762s-1.126-9.731-3.086-20.124c-.067-.363-.136-.725-.208-1.088-1.311-6.779-2.968-13.7-4.892-18.284-.156-.367-.311-.722-.471-1.056-.954-2.038-1.975-3.473-3.044-4.018-4.694-2.391-10.765-.408-13.562,5.8-.952,2.116,1.656,7.451,6.069,14.1" transform="translate(27.413 48.05)" fill="#ff6f1c"/>
              <path id="Trazado_897444" data-name="Trazado 897444" d="M78.712,124.71s5.014-19.724-.25-19.731-3.114,18.386-3.114,18.386S68.959,111.56,63.121,113.6,73.533,128.18,73.533,128.18c2.777-.035,4.443-1.255,5.178-3.47" transform="translate(24.901 42.262)" fill="#6b8429"/>
              <path id="Trazado_897445" data-name="Trazado 897445" d="M73.6,127.177a.548.548,0,0,0,.764.109,18.073,18.073,0,0,1,8.824-3.306c-.154-.367-.31-.722-.471-1.058a18.917,18.917,0,0,0-9.007,3.49.547.547,0,0,0-.109.764" transform="translate(29.588 49.486)" fill="#bd361c"/>
              <path id="Trazado_897446" data-name="Trazado 897446" d="M72.561,135.408q.3.454.614.916a19.721,19.721,0,0,1,8.094-3.9.546.546,0,0,0-.192-1.074,20.4,20.4,0,0,0-8.516,4.058" transform="translate(29.211 52.875)" fill="#bd361c"/>
              <path id="Trazado_897447" data-name="Trazado 897447" d="M78.93,139.819a.543.543,0,0,0,.749.184,16.851,16.851,0,0,1,6.457-2.2c-.069-.363-.136-.725-.208-1.088a17.962,17.962,0,0,0-6.815,2.358.543.543,0,0,0-.184.749" transform="translate(31.743 55.037)" fill="#bd361c"/>
              <path id="Trazado_897448" data-name="Trazado 897448" d="M90.455,139.7c.2.3.411.6.624.909a268.216,268.216,0,0,0,18.842,23.555s-1.234-9.717-3.31-20.089c-.072-.362-.143-.724-.219-1.086-1.387-6.763-3.121-13.668-5.1-18.229-.16-.365-.318-.718-.482-1.051-.978-2.027-2.013-3.45-3.088-3.983-4.721-2.339-10.768-.289-13.5,5.946-.93,2.126,1.739,7.431,6.225,14.029" transform="translate(33.835 47.82)" fill="#ff6f1c"/>
              <path id="Trazado_897449" data-name="Trazado 897449" d="M94.627,124.149s4.8-19.779-.468-19.727-2.909,18.419-2.909,18.419-6.521-11.733-12.337-9.623,10.575,14.459,10.575,14.459c2.776-.066,4.429-1.3,5.139-3.527" transform="translate(31.266 42.038)" fill="#6b8429"/>
              <path id="Trazado_897450" data-name="Trazado 897450" d="M89.566,126.648a.548.548,0,0,0,.766.1,18.064,18.064,0,0,1,8.787-3.4c-.16-.366-.32-.72-.484-1.052a18.9,18.9,0,0,0-8.968,3.589.546.546,0,0,0-.1.764" transform="translate(36.012 49.233)" fill="#bd361c"/>
              <path id="Trazado_897451" data-name="Trazado 897451" d="M88.615,134.89c.2.3.411.6.624.909a19.728,19.728,0,0,1,8.051-3.989.546.546,0,0,0-.2-1.073,20.407,20.407,0,0,0-8.472,4.153" transform="translate(35.674 52.628)" fill="#bd361c"/>
              <path id="Trazado_897452" data-name="Trazado 897452" d="M95.037,139.224a.545.545,0,0,0,.752.175,16.883,16.883,0,0,1,6.431-2.275c-.072-.36-.143-.722-.219-1.084a17.958,17.958,0,0,0-6.788,2.432.545.545,0,0,0-.175.752" transform="translate(38.226 54.767)" fill="#bd361c"/>
              <path id="Trazado_897453" data-name="Trazado 897453" d="M132.319,127.93l4.658,42.111a20.53,20.53,0,0,1-1.393,10.02,21.03,21.03,0,0,1-1.283,2.633,23.111,23.111,0,0,1-17.567,11.272l-49.86,5.515a23.115,23.115,0,0,1-19.607-7.16,21.226,21.226,0,0,1-1.826-2.288,20.535,20.535,0,0,1-3.55-9.474l-4.658-42.111Z" transform="translate(14.989 51.502)" fill="#b4512a"/>
              <rect id="Rectángulo_403056" data-name="Rectángulo 403056" width="95.666" height="2.475" transform="translate(53.242 199.167) rotate(-6.311)" fill="#842a2a"/>
              <rect id="Rectángulo_403057" data-name="Rectángulo 403057" width="95.666" height="2.475" transform="translate(54.814 213.379) rotate(-6.311)" fill="#842a2a"/>
              <rect id="Rectángulo_403058" data-name="Rectángulo 403058" width="95.666" height="2.475" transform="translate(56.386 227.59) rotate(-6.311)" fill="#842a2a"/>
              <path id="Trazado_897454" data-name="Trazado 897454" d="M133.228,165.1a21.117,21.117,0,0,1-1.282,2.633L44.91,177.359a21.239,21.239,0,0,1-1.826-2.289Z" transform="translate(17.345 66.465)" fill="#842a2a"/>
              <path id="Trazado_897455" data-name="Trazado 897455" d="M43.731,88.307,42.456,91.74l-1.272,3.513q-1.264,3.524-2.485,7.068Q36.254,109.4,34.01,116.5c-1.487,4.727-2.9,9.455-4.154,14.137-.631,2.341-1.217,4.668-1.75,6.961s-1,4.553-1.363,6.7c-.184,1.074-.332,2.112-.446,3.08s-.182,1.867-.2,2.556c-.011.189,0,.313-.01.463v.069s0,.018,0-.011l-.006-.112c-.01-.151-.027-.3-.049-.453l-.06-.365q-.025-.137-.059-.273l-.036-.132-.018-.074c-.013-.051-.028-.1-.045-.147-.046-.122-.042-.122-.065-.17a.532.532,0,0,0-.027-.05v0c0,.01-.018-.007,0,.041a10.727,10.727,0,0,0,.842,1.749c.439.783.98,1.655,1.569,2.548s1.23,1.818,1.9,2.746c1.339,1.861,2.784,3.751,4.285,5.638,3,3.777,6.2,7.547,9.473,11.277q2.457,2.8,4.972,5.564L51.274,181l2.5,2.683.157.168a11.637,11.637,0,0,1-16.591,16.311l-2.875-2.774-2.8-2.755q-2.79-2.765-5.54-5.581c-3.669-3.763-7.292-7.6-10.864-11.637-1.788-2.021-3.561-4.1-5.326-6.292-.882-1.1-1.763-2.23-2.644-3.422s-1.763-2.443-2.656-3.839a37.447,37.447,0,0,1-2.745-5.01c-.114-.244-.24-.562-.358-.849l-.175-.442-.181-.5c-.121-.349-.23-.649-.351-1.081l-.17-.609-.081-.306-.083-.368q-.08-.37-.15-.743l-.067-.376-.063-.463q-.059-.463-.1-.927l-.027-.349-.01-.184c-.025-.488-.058-1-.062-1.452-.043-1.865.027-3.513.133-5.094s.262-3.076.443-4.528c.359-2.909.815-5.671,1.314-8.382s1.052-5.361,1.635-7.981c1.166-5.24,2.455-10.365,3.809-15.448s2.787-10.111,4.272-15.117q1.115-3.755,2.272-7.5l1.174-3.745L16.292,78.6A14.557,14.557,0,0,1,44,87.529c-.06.185-.122.369-.189.55Z" transform="translate(0 27.579)" fill="#ff8c64"/>
              <path id="Trazado_897456" data-name="Trazado 897456" d="M26.915,64.558s-7-.907-12.741,14.124S1.777,113.8,1.777,113.8l30,8.53L44.843,88.088s4.111-21.922-17.928-23.53" transform="translate(0.715 25.985)" fill="#7a8bff"/>
              <path id="Trazado_897457" data-name="Trazado 897457" d="M11.31,129.864a.7.7,0,0,1-.335-1.317,20.663,20.663,0,0,1,9.643-2.675c.107,0,.2-.006.268-.01a.7.7,0,0,1,.074,1.4l-.3.011a19.329,19.329,0,0,0-9.019,2.5.688.688,0,0,1-.334.086" transform="translate(4.27 50.669)" fill="#d4602c"/>
              <path id="Trazado_897458" data-name="Trazado 897458" d="M18.874,127.93a.7.7,0,0,1-.52-.231c-1.2-1.328-4.149-1.962-5.184-2.1a.7.7,0,1,1,.178-1.39c.173.021,4.257.564,6.047,2.546a.7.7,0,0,1-.52,1.171" transform="translate(5.055 50.003)" fill="#d4602c"/>
              <path id="Trazado_897459" data-name="Trazado 897459" d="M24.654,165.435c5.142,4.083,10.034,10.1,12.275,12.87C48.846,193.034,58,195.851,61.183,196.688c3.78.993,5.694-2.823,5.694-2.823a4.658,4.658,0,0,0,4.692-3.17c5.745.175,6.044-3.664,6.044-3.664s5.421,2.649,6.749-1-6.791-5.717-10.1-9.047c-.157-.159-.32-.327-.489-.518,3.028.774,6.8,1.264,8.575-.405,3.219-3.034-17.318-9.868-17.318-9.868a32.458,32.458,0,0,0-10-3.878c-2.076-.449-4.258-3.184-5.878-4.171L39.8,148.166Z" transform="translate(9.925 59.648)" fill="#e7a743"/>
              <path id="Trazado_897460" data-name="Trazado 897460" d="M23.006,166.271a8.509,8.509,0,0,0,5.289,4.568c1.933.652,18.529-18.538,18.529-18.538s-1.718-4.331-5.571-5.557c0,0-10.211,10.418-18.248,19.527" transform="translate(9.262 59.076)" fill="#cc861e"/>
              <path id="Trazado_897461" data-name="Trazado 897461" d="M121.428,151.712s-2.133-6.383-4.8-12.43a11.96,11.96,0,0,0-6.948-6.417c.527,5.241.966,7.278,1.4,10.274a13.837,13.837,0,0,1-4.143,2.215c-2.808,1.029-12.475,4.685-12.247,7.011.518,5.32,12.651.889,12.651.889s-13.01,4.584-12.1,8.227c.734,2.95,12.954,1.654,12.954,1.654s-11.676,1.9-9.629,5.885c2.177,4.23,12.591-.245,12.591-.245s-7.237,4.951-6.24,6.408c1.435,2.1,6.163,2.028,13.368-.947,7.376-3.046,3.149-22.525,3.149-22.525" transform="translate(38.118 53.489)" fill="#e7a743"/>
            </g>
          </g>
        </g>
      </g>
    </g>
  </g>
</svg>
