<svg xmlns="http://www.w3.org/2000/svg" xmlns:xlink="http://www.w3.org/1999/xlink" width="117.828" height="117.827" viewBox="0 0 117.828 117.827">
  <defs>
    <filter id="Trazado_895688" x="0" y="0" width="117.828" height="117.827" filterUnits="userSpaceOnUse">
      <feOffset dy="3" input="SourceAlpha"/>
      <feGaussianBlur stdDeviation="3" result="blur"/>
      <feFlood flood-opacity="0.161"/>
      <feComposite operator="in" in2="blur"/>
      <feComposite in="SourceGraphic"/>
    </filter>
  </defs>
  <g id="Grupo_1106834" data-name="Grupo 1106834" transform="translate(9 6)">
    <g id="Grupo_1105899" data-name="Grupo 1105899" transform="translate(0 0)">
      <g id="Grupo_1105886" data-name="Grupo 1105886" transform="translate(0 0)">
        <g id="Grupo_1105885" data-name="Grupo 1105885" transform="translate(0 0)">
          <g transform="matrix(1, 0, 0, 1, -9, -6)" filter="url(#Trazado_895688)">
            <g id="Trazado_895688-2" data-name="Trazado 895688" transform="translate(9 6)" fill="#ecdb9f">
              <path d="M 49.91389846801758 97.32713317871094 L 49.91366958618164 97.32713317871094 C 43.51176071166992 97.32713317871094 37.30268478393555 96.07386779785156 31.45889854431152 93.60216522216797 C 25.81320762634277 91.21424102783203 20.74234580993652 87.79521179199219 16.38714599609375 83.44001007080078 C 12.03194522857666 79.08482360839844 8.612899780273438 74.01396179199219 6.224976539611816 68.3682861328125 C 3.753268718719482 62.52451705932617 2.500007152557373 56.31545639038086 2.500007152557373 49.9135627746582 C 2.500007152557373 43.51166915893555 3.753268718719482 37.30259323120117 6.224976539611816 31.45882415771484 C 8.612899780273438 25.81316184997559 12.03194522857666 20.74230194091797 16.38714599609375 16.38711738586426 C 20.74234580993652 12.03193187713623 25.81320762634277 8.612885475158691 31.45889854431152 6.224977970123291 C 37.30268478393555 3.753270387649536 43.51176071166992 2.500008821487427 49.91366958618164 2.500008821487427 C 56.3158073425293 2.500008821487427 62.52488327026367 3.753270387649536 68.36866760253906 6.224977970123291 C 74.01435852050781 8.612885475158691 79.08522033691406 12.03193187713623 83.44042205810547 16.38711738586426 C 87.79562377929688 20.74230194091797 91.21466827392578 25.81316184997559 93.60259246826172 31.45882415771484 C 96.07430267333984 37.30259323120117 97.32756042480469 43.51166915893555 97.32756042480469 49.9135627746582 C 97.32756042480469 56.31545639038086 96.07430267333984 62.52451705932617 93.60259246826172 68.3682861328125 C 91.21466827392578 74.01396179199219 87.79562377929688 79.08482360839844 83.44042205810547 83.44001007080078 C 79.08522033691406 87.79521179199219 74.01435852050781 91.21424102783203 68.36866760253906 93.60216522216797 C 62.52488327026367 96.07386779785156 56.3158073425293 97.32713317871094 49.91389846801758 97.32713317871094 Z" stroke="none"/>
              <path d="M 49.91366577148438 5 C 43.84815979003906 5 37.96672058105469 6.186820983886719 32.43277740478516 8.527473449707031 C 27.08506774902344 10.78936004638672 22.28130340576172 14.02847290039062 18.1549072265625 18.15486907958984 C 14.02848815917969 22.28127288818359 10.78936004638672 27.08503723144531 8.527488708496094 32.43270874023438 C 6.186813354492188 37.96665191650391 4.999992370605469 43.84807205200195 4.999992370605469 49.9135627746582 C 4.999992370605469 55.97905349731445 6.186813354492188 61.86045455932617 8.527488708496094 67.39439392089844 C 10.78936004638672 72.74208831787109 14.02848815917969 77.54583740234375 18.1549072265625 81.67223358154297 C 22.28130340576172 85.79863739013672 27.0850830078125 89.03776550292969 32.43277740478516 91.29965209960938 C 37.96673965454102 93.64030456542969 43.84815979003906 94.82712554931641 49.91390228271484 94.82712554931641 C 55.97941207885742 94.82712554931641 61.86083221435547 93.64030456542969 67.39479064941406 91.29965209960938 C 72.74248504638672 89.03776550292969 77.54624938964844 85.79863739013672 81.67265319824219 81.67223358154297 C 85.79906463623047 77.54583740234375 89.03819274902344 72.74208831787109 91.30006408691406 67.39439392089844 C 93.64073944091797 61.86045455932617 94.82756042480469 55.97905349731445 94.82756042480469 49.9135627746582 C 94.82756042480469 43.84807205200195 93.64073944091797 37.96665191650391 91.30006408691406 32.43270874023438 C 89.03819274902344 27.08503723144531 85.79906463623047 22.28127288818359 81.67265319824219 18.15486907958984 C 77.54624938964844 14.02847290039062 72.74248504638672 10.78936004638672 67.39479064941406 8.527473449707031 C 61.86083221435547 6.186820983886719 55.97941207885742 5 49.91390228271484 5 L 49.91366577148438 5 M 49.91366577148438 0 L 49.91390228271484 0 C 77.48045349121094 0 99.82756042480469 22.34705352783203 99.82756042480469 49.9135627746582 C 99.82756042480469 77.48005676269531 77.48045349121094 99.82712554931641 49.91390228271484 99.82712554931641 L 49.91366577148438 99.82712554931641 C 22.34710693359375 99.82712554931641 -7.62939453125e-06 77.48005676269531 -7.62939453125e-06 49.9135627746582 C -7.62939453125e-06 22.34705352783203 22.34710693359375 0 49.91366577148438 0 Z" stroke="none" fill="#f3d02c"/>
            </g>
          </g>
        </g>
      </g>
    </g>
    <g id="Grupo_1106835" data-name="Grupo 1106835" transform="translate(26.299 21.484)">
      <g id="rock_6057150" transform="translate(0 14.348)">
        <g id="Grupo_1105891" data-name="Grupo 1105891" transform="translate(0.692 0.692)">
          <path id="Trazado_896437" data-name="Trazado 896437" d="M52.416,56.877,7.5,58.449V70.665l2.475,5.042L7.5,81.035V92.965l44.924.923Z" transform="translate(-7.5 -55.681)" fill="#d6995c"/>
          <path id="Trazado_896438" data-name="Trazado 896438" d="M53.347,84.378V72.163l-1.845-1.4V104.88a.692.692,0,0,1-.692.692H7.5v.461a1.384,1.384,0,0,0,1.384,1.384H51.963a1.384,1.384,0,0,0,1.384-1.384V94.749L52.2,88.759Z" transform="translate(-7.5 -68.288)" fill="#c48958"/>
          <path id="Trazado_896439" data-name="Trazado 896439" d="M51.5,207.376c-2.851-.246-3.455-1.035-7.325-1.035-4.585,0-4.585,1.107-9.17,1.107s-4.585-1.107-9.169-1.107-4.584,1.107-9.169,1.107-4.585-1.107-9.169-1.107V209.8l1.354,1.867L7.5,213.255v3.457c4.585,0,4.585,1.107,9.169,1.107s4.584-1.107,9.169-1.107,4.585,1.107,9.169,1.107,4.585-1.107,9.17-1.107c3.87,0,4.473.789,7.325,1.035l1.193-5.221Z" transform="translate(-7.499 -191.357)" fill="#e3a76f"/>
          <path id="Trazado_896440" data-name="Trazado 896440" d="M486.343,221.084v-3.457c-.715,0-1.318-.027-1.845-.072v10.371c.527.045,1.13.072,1.845.072v-3.457l-.652-1.836Z" transform="translate(-440.496 -201.537)" fill="#d6995c"/>
          <path id="Trazado_896441" data-name="Trazado 896441" d="M35.007,244.922c-4.585,0-4.585-1.107-9.169-1.107s-4.584,1.107-9.169,1.107-4.585-1.107-9.169-1.107v3.457c4.585,0,4.585,1.107,9.169,1.107s4.584-1.107,9.169-1.107,4.585,1.107,9.169,1.107,4.585-1.107,9.17-1.107c3.87,0,4.473.789,7.325,1.035l.845-1.692L51.5,244.85c-2.851-.246-3.455-1.035-7.325-1.035C39.592,243.815,39.592,244.922,35.007,244.922Z" transform="translate(-7.5 -225.375)" fill="#f2bb88"/>
          <path id="Trazado_896442" data-name="Trazado 896442" d="M484.5,258.487c.527.045,1.13.072,1.845.072V255.1c-.715,0-1.318-.027-1.845-.072Z" transform="translate(-440.496 -235.555)" fill="#e3a76f"/>
          <path id="Trazado_896443" data-name="Trazado 896443" d="M7.5,45.295v1.384c4.585,0,4.585,1.107,9.169,1.107s4.584-1.107,9.169-1.107,4.585,1.107,9.169,1.107,4.585-1.107,9.17-1.107c3.87,0,4.473.789,7.325,1.035l.923-1.651L51.5,43.911H8.884A1.384,1.384,0,0,0,7.5,45.295Z" transform="translate(-7.5 -43.911)" fill="#ccf49f"/>
          <path id="Trazado_896444" data-name="Trazado 896444" d="M484.959,43.912H484.5v3.8c.527.045,1.13.072,1.845.072V45.3A1.384,1.384,0,0,0,484.959,43.912Z" transform="translate(-440.496 -43.912)" fill="#b3e59f"/>
          <path id="Trazado_896445" data-name="Trazado 896445" d="M408.75,364.736a3.267,3.267,0,0,0-.879-1.43,3.054,3.054,0,0,0-3.9,3.9,2.316,2.316,0,0,0,1.354.83A3.617,3.617,0,0,0,408.75,364.736Z" transform="translate(-367.233 -333.681)" fill="#f2bb88"/>
          <path id="Trazado_896446" data-name="Trazado 896446" d="M409.628,365.062a3.054,3.054,0,0,1-3.9,3.9,3.053,3.053,0,1,0,3.9-3.9Z" transform="translate(-368.989 -335.437)" fill="#e3a76f"/>
          <path id="Trazado_896447" data-name="Trazado 896447" d="M360.8,321.622c0-.14-.295-.4-.461-.613a1.383,1.383,0,0,0-1.725,1.726,1.476,1.476,0,0,0,.738.5A1.652,1.652,0,0,0,360.8,321.622Z" transform="translate(-326.173 -295.393)" fill="#f2bb88"/>
          <path id="Trazado_896448" data-name="Trazado 896448" d="M360.931,321.6a1.383,1.383,0,0,1-1.725,1.726,1.384,1.384,0,1,0,1.725-1.726Z" transform="translate(-326.761 -295.98)" fill="#e3a76f"/>
          <path id="Trazado_896449" data-name="Trazado 896449" d="M276.442,368.062c0-.571-.828-1.307-1.407-2.062a3.8,3.8,0,0,0-5.04,5.04,5.1,5.1,0,0,0,2.247,1.381A4.677,4.677,0,0,0,276.442,368.062Z" transform="translate(-245.46 -335.968)" fill="#f2bb88"/>
          <path id="Trazado_896450" data-name="Trazado 896450" d="M278.505,369.47a3.8,3.8,0,0,1-5.04,5.04,3.8,3.8,0,1,0,5.04-5.04Z" transform="translate(-248.93 -339.438)" fill="#e3a76f"/>
          <path id="Trazado_896451" data-name="Trazado 896451" d="M184.648,320.446a3.267,3.267,0,0,0-.879-1.43,3.054,3.054,0,0,0-3.9,3.9,2.316,2.316,0,0,0,1.354.83A3.617,3.617,0,0,0,184.648,320.446Z" transform="translate(-163.803 -293.477)" fill="#f2bb88"/>
          <path id="Trazado_896452" data-name="Trazado 896452" d="M185.525,320.772a3.054,3.054,0,0,1-3.9,3.9,3.053,3.053,0,1,0,3.9-3.9Z" transform="translate(-165.559 -295.232)" fill="#e3a76f"/>
          <path id="Trazado_896453" data-name="Trazado 896453" d="M52.585,374.9c0-.748-.825-1.614-1.507-2.295a4.428,4.428,0,0,0-5.984,5.984c.828.847,1.881,1.715,2.629,1.715C50.169,380.3,52.585,377.341,52.585,374.9Z" transform="translate(-41.16 -341.814)" fill="#f2bb88"/>
          <path id="Trazado_896454" data-name="Trazado 896454" d="M56.13,377.653a4.428,4.428,0,0,1-5.984,5.984,4.428,4.428,0,1,0,5.984-5.984Z" transform="translate(-46.212 -346.866)" fill="#e3a76f"/>
          <path id="Trazado_896455" data-name="Trazado 896455" d="M409.133,145.128c0-.14-.295-.4-.461-.613a1.383,1.383,0,0,0-1.725,1.726,1.476,1.476,0,0,0,.738.5A1.653,1.653,0,0,0,409.133,145.128Z" transform="translate(-370.044 -135.18)" fill="#f2bb88"/>
          <path id="Trazado_896456" data-name="Trazado 896456" d="M409.259,145.1a1.383,1.383,0,0,1-1.725,1.726,1.384,1.384,0,1,0,1.725-1.726Z" transform="translate(-370.631 -135.767)" fill="#e3a76f"/>
          <path id="Trazado_896457" data-name="Trazado 896457" d="M301.448,115.555c0-.14-.295-.4-.461-.613a1.383,1.383,0,0,0-1.726,1.726,1.476,1.476,0,0,0,.738.5,1.652,1.652,0,0,0,1.449-1.612Z" transform="translate(-272.292 -108.335)" fill="#f2bb88"/>
          <path id="Trazado_896458" data-name="Trazado 896458" d="M301.574,115.529a1.383,1.383,0,0,1-1.725,1.726,1.384,1.384,0,1,0,1.725-1.726Z" transform="translate(-272.881 -108.922)" fill="#e3a76f"/>
          <path id="Trazado_896459" data-name="Trazado 896459" d="M200.587,115.935c0-.23-.7-.945-.7-.945a2.056,2.056,0,0,0-2.6,2.6s.819.728,1.048.728A2.543,2.543,0,0,0,200.587,115.935Z" transform="translate(-179.677 -108.335)" fill="#f2bb88"/>
          <path id="Trazado_896460" data-name="Trazado 896460" d="M200.948,116.05a2.056,2.056,0,0,1-2.6,2.6,2.056,2.056,0,1,0,2.6-2.6Z" transform="translate(-180.738 -109.395)" fill="#e3a76f"/>
          <path id="Trazado_896461" data-name="Trazado 896461" d="M119.085,160.128c0-.14-.295-.4-.461-.613a1.383,1.383,0,0,0-1.725,1.726,1.476,1.476,0,0,0,.738.5A1.653,1.653,0,0,0,119.085,160.128Z" transform="translate(-106.753 -148.796)" fill="#f2bb88"/>
          <path id="Trazado_896462" data-name="Trazado 896462" d="M119.211,160.1a1.383,1.383,0,0,1-1.725,1.726,1.384,1.384,0,1,0,1.725-1.726Z" transform="translate(-107.34 -149.383)" fill="#e3a76f"/>
          <path id="Trazado_896463" data-name="Trazado 896463" d="M55.834,115.555c0-.14-.295-.4-.461-.613a1.383,1.383,0,0,0-1.725,1.726,1.476,1.476,0,0,0,.738.5,1.652,1.652,0,0,0,1.449-1.612Z" transform="translate(-49.336 -108.335)" fill="#f2bb88"/>
          <path id="Trazado_896464" data-name="Trazado 896464" d="M55.961,115.529a1.383,1.383,0,0,1-1.725,1.726,1.384,1.384,0,1,0,1.725-1.726Z" transform="translate(-49.925 -108.922)" fill="#e3a76f"/>
        </g>
        <g id="Grupo_1105892" data-name="Grupo 1105892" transform="translate(0 0)">
          <path id="Trazado_896465" data-name="Trazado 896465" d="M46.539,44.158a.692.692,0,0,0,.692-.692V38.488a2.078,2.078,0,0,0-2.076-2.076H2.076A2.078,2.078,0,0,0,0,38.488V74.849a2.078,2.078,0,0,0,2.076,2.076h14.2a.692.692,0,1,0,0-1.384H12.035a5.12,5.12,0,1,0-6.99,0H2.076a.693.693,0,0,1-.692-.692V63.159a15.637,15.637,0,0,1,3.73.525,17.441,17.441,0,0,0,4.747.573,17.44,17.44,0,0,0,4.747-.573,17.619,17.619,0,0,1,2.017-.4,3.745,3.745,0,1,0,6.175.244c.221.05.435.1.652.154a17.443,17.443,0,0,0,4.747.573,17.2,17.2,0,0,0,4.2-.443,2.075,2.075,0,1,0,4.137.229,2.063,2.063,0,0,0-.192-.872c.314-.014.654-.021,1.026-.021a16.066,16.066,0,0,1,4.422.534,17.025,17.025,0,0,0,4.055.564v10.6a.693.693,0,0,1-.692.692H19.041a.692.692,0,1,0,0,1.384H45.155a2.078,2.078,0,0,0,2.076-2.076V46.234a.692.692,0,0,0-1.384,0v6.259a15.637,15.637,0,0,1-3.731-.525,17.444,17.444,0,0,0-4.747-.573,17.444,17.444,0,0,0-4.747.573A16.065,16.065,0,0,1,28.2,52.5a16.064,16.064,0,0,1-4.422-.534A17.442,17.442,0,0,0,19.03,51.4a17.441,17.441,0,0,0-4.747.573,16.063,16.063,0,0,1-4.422.534,16.063,16.063,0,0,1-4.422-.534A17.019,17.019,0,0,0,1.384,51.4V40.573a15.635,15.635,0,0,1,3.73.525,17.442,17.442,0,0,0,4.747.573,17.441,17.441,0,0,0,4.747-.573,16.063,16.063,0,0,1,4.422-.534,16.064,16.064,0,0,1,4.422.534,17.442,17.442,0,0,0,4.747.573,17.444,17.444,0,0,0,4.747-.573,16.065,16.065,0,0,1,4.422-.534,16.066,16.066,0,0,1,4.423.534,17.025,17.025,0,0,0,4.055.564v1.805a.692.692,0,0,0,.692.692ZM4.8,71.8A3.736,3.736,0,1,1,8.54,75.541,3.74,3.74,0,0,1,4.8,71.8Zm14.824-3.926a2.361,2.361,0,1,1,2.361-2.361A2.364,2.364,0,0,1,19.629,67.879Zm14.831-3.144a.692.692,0,1,1,.692-.692A.693.693,0,0,1,34.459,64.735ZM5.114,53.313a17.442,17.442,0,0,0,4.747.573,17.441,17.441,0,0,0,4.747-.573,16.063,16.063,0,0,1,4.422-.534,16.063,16.063,0,0,1,4.422.534,17.442,17.442,0,0,0,4.747.573,17.444,17.444,0,0,0,4.747-.573,16.064,16.064,0,0,1,4.422-.534,16.066,16.066,0,0,1,4.423.534,17.025,17.025,0,0,0,4.055.564V55.95a15.631,15.631,0,0,1-3.731-.525,17.44,17.44,0,0,0-4.747-.573,17.445,17.445,0,0,0-4.747.573,16.06,16.06,0,0,1-4.422.534,16.063,16.063,0,0,1-4.422-.534,17.439,17.439,0,0,0-4.747-.573,17.443,17.443,0,0,0-4.747.573,15.915,15.915,0,0,1-2.681.468.692.692,0,1,0,.115,1.379,17.289,17.289,0,0,0,2.89-.5,16.062,16.062,0,0,1,4.422-.534,16.063,16.063,0,0,1,4.422.534,17.439,17.439,0,0,0,4.747.573,17.444,17.444,0,0,0,4.747-.573,16.06,16.06,0,0,1,4.422-.534,16.061,16.061,0,0,1,4.423.534,17.022,17.022,0,0,0,4.055.564v2.073a15.631,15.631,0,0,1-3.731-.525,17.44,17.44,0,0,0-4.747-.573,17.445,17.445,0,0,0-4.747.573c-.547.132-1.065.257-1.706.355a.692.692,0,1,0,.208,1.368c.7-.106,1.271-.244,1.823-.378a16.065,16.065,0,0,1,4.423-.534,16.062,16.062,0,0,1,4.423.534,17.022,17.022,0,0,0,4.055.564v2.073a15.638,15.638,0,0,1-3.731-.525,17.444,17.444,0,0,0-4.747-.573,17.444,17.444,0,0,0-4.747.573,16.065,16.065,0,0,1-4.422.534,16.064,16.064,0,0,1-4.422-.534,17.442,17.442,0,0,0-4.747-.573,17.441,17.441,0,0,0-4.747.573,16.063,16.063,0,0,1-4.422.534,16.063,16.063,0,0,1-4.422-.534,17.019,17.019,0,0,0-4.055-.564V59.7a15.636,15.636,0,0,1,3.73.525,17.438,17.438,0,0,0,4.747.573,17.437,17.437,0,0,0,4.747-.573,16.063,16.063,0,0,1,4.422-.534,16.064,16.064,0,0,1,4.422.534A17.439,17.439,0,0,0,28.2,60.8a.692.692,0,1,0,0-1.384,16.064,16.064,0,0,1-4.422-.534,17.438,17.438,0,0,0-4.747-.573,17.437,17.437,0,0,0-4.747.573,16.063,16.063,0,0,1-4.422.534,16.063,16.063,0,0,1-4.422-.534,17.014,17.014,0,0,0-4.055-.564V56.246a15.636,15.636,0,0,1,3.73.525,16.936,16.936,0,0,0,3.742.554h.028a.692.692,0,0,0,.027-1.383,15.546,15.546,0,0,1-3.472-.516,17.019,17.019,0,0,0-4.055-.564V52.789a15.635,15.635,0,0,1,3.73.525Zm37-13.561a17.444,17.444,0,0,0-4.747-.573,17.444,17.444,0,0,0-4.747.573,16.064,16.064,0,0,1-4.422.534,16.063,16.063,0,0,1-4.422-.534,17.443,17.443,0,0,0-4.747-.573,17.441,17.441,0,0,0-4.747.573,16.062,16.062,0,0,1-4.422.534,16.062,16.062,0,0,1-4.422-.534,17.022,17.022,0,0,0-4.055-.564v-.7a.693.693,0,0,1,.692-.692H45.155a.693.693,0,0,1,.692.692v1.79A15.632,15.632,0,0,1,42.116,39.753Z" transform="translate(0 -36.412)"/>
          <path id="Trazado_896466" data-name="Trazado 896466" d="M46.088,109.459a2.076,2.076,0,1,0,2.076-2.076A2.078,2.078,0,0,0,46.088,109.459Zm2.767,0a.692.692,0,1,1-.692-.692A.693.693,0,0,1,48.855,109.459Z" transform="translate(-41.837 -100.836)"/>
          <path id="Trazado_896467" data-name="Trazado 896467" d="M109.339,154.03a2.076,2.076,0,1,0,2.076-2.076A2.078,2.078,0,0,0,109.339,154.03Zm2.076-.692a.692.692,0,1,1-.692.692A.693.693,0,0,1,111.415,153.338Z" transform="translate(-99.253 -141.296)"/>
          <path id="Trazado_896468" data-name="Trazado 896468" d="M401.462,141.105a2.076,2.076,0,1,0-2.076-2.076A2.078,2.078,0,0,0,401.462,141.105Zm0-2.767a.692.692,0,1,1-.692.692A.693.693,0,0,1,401.462,138.338Z" transform="translate(-362.544 -127.679)"/>
          <path id="Trazado_896469" data-name="Trazado 896469" d="M295.852,109.459a2.076,2.076,0,1,0-2.076,2.076A2.078,2.078,0,0,0,295.852,109.459Zm-2.767,0a.692.692,0,1,1,.692.692A.693.693,0,0,1,293.085,109.459Z" transform="translate(-264.792 -100.836)"/>
          <path id="Trazado_896470" data-name="Trazado 896470" d="M189.674,110.131a2.748,2.748,0,1,0,2.748-2.748A2.751,2.751,0,0,0,189.674,110.131Zm4.112,0a1.364,1.364,0,1,1-1.364-1.364A1.366,1.366,0,0,1,193.786,110.131Z" transform="translate(-172.177 -100.836)"/>
          <path id="Trazado_896471" data-name="Trazado 896471" d="M271.116,362.634a4.487,4.487,0,1,0-4.487,4.487A4.492,4.492,0,0,0,271.116,362.634Zm-7.591,0a3.1,3.1,0,1,1,3.1,3.1A3.107,3.107,0,0,1,263.526,362.634Z" transform="translate(-237.96 -328.468)"/>
          <path id="Trazado_896472" data-name="Trazado 896472" d="M403.78,359.373a3.745,3.745,0,1,0-3.745,3.745A3.749,3.749,0,0,0,403.78,359.373Zm-6.106,0a2.361,2.361,0,1,1,2.361,2.361A2.364,2.364,0,0,1,397.674,359.373Z" transform="translate(-359.733 -326.181)"/>
          <circle id="Elipse_11671" data-name="Elipse 11671" cx="0.692" cy="0.692" r="0.692" transform="translate(12.841 28.703)"/>
          <circle id="Elipse_11672" data-name="Elipse 11672" cx="0.692" cy="0.692" r="0.692" transform="translate(11.47 6.824)"/>
          <circle id="Elipse_11673" data-name="Elipse 11673" cx="0.692" cy="0.692" r="0.692" transform="translate(26.603 12.814)"/>
          <circle id="Elipse_11674" data-name="Elipse 11674" cx="0.692" cy="0.692" r="0.692" transform="translate(36.516 6.547)"/>
          <circle id="Elipse_11675" data-name="Elipse 11675" cx="0.692" cy="0.692" r="0.692" transform="translate(42.572 9.334)"/>
          <circle id="Elipse_11676" data-name="Elipse 11676" cx="0.692" cy="0.692" r="0.692" transform="translate(35.151 36.936)"/>
        </g>
      </g>
      <g id="soil_5016674" transform="translate(13.469 0)">
        <g id="Grupo_1105894" data-name="Grupo 1105894" transform="translate(0)">
          <path id="Trazado_896476" data-name="Trazado 896476" d="M50.372,16.1c-.773-4,2.981-10.7,2.981-10.7-4.616,1.553-6.76,5.522-7.707,8.449C44.6,8.753,47.8,1.75,47.8,1.75c-5.017,2.064-6.805,6.491-7.379,10.195A12.339,12.339,0,0,0,33.061,5.89s3.947,6.684,4.263,10.207Z" transform="translate(-33.061 -1.75)" fill="#00a400"/>
        </g>
      </g>
    </g>
  </g>
</svg>
