<svg xmlns="http://www.w3.org/2000/svg" xmlns:xlink="http://www.w3.org/1999/xlink" width="117.831" height="117.827" viewBox="0 0 117.831 117.827">
  <defs>
    <filter id="Trazado_895308" x="0" y="0" width="117.831" height="117.827" filterUnits="userSpaceOnUse">
      <feOffset dy="3" input="SourceAlpha"/>
      <feGaussianBlur stdDeviation="3" result="blur"/>
      <feFlood flood-opacity="0.161"/>
      <feComposite operator="in" in2="blur"/>
      <feComposite in="SourceGraphic"/>
    </filter>
  </defs>
  <g id="Grupo_1106833" data-name="Grupo 1106833" transform="translate(9 6)">
    <g id="Grupo_1105890" data-name="Grupo 1105890" transform="translate(0 0)">
      <g transform="matrix(1, 0, 0, 1, -9, -6)" filter="url(#Trazado_895308)">
        <g id="Trazado_895308-2" data-name="Trazado 895308" transform="translate(9 6)" fill="#ecdb9f">
          <path d="M 49.91568374633789 97.32713317871094 L 49.91543960571289 97.32713317871094 C 43.51328659057617 97.32713317871094 37.30396270751953 96.07387542724609 31.45994567871094 93.60214996337891 C 25.81405448913574 91.21422576904297 20.74299240112305 87.79518127441406 16.38762283325195 83.43997955322266 C 12.0322847366333 79.08480072021484 8.613115310668945 74.01393890380859 6.225100040435791 68.36825561523438 C 3.753315448760986 62.52450561523438 2.50000786781311 56.31544494628906 2.50000786781311 49.91356658935547 C 2.50000786781311 43.51168823242188 3.753315448760986 37.30262756347656 6.225100040435791 31.45885848999023 C 8.613115310668945 25.81318283081055 12.0322847366333 20.74233627319336 16.38762283325195 16.38713645935059 C 20.74299240112305 12.03195095062256 25.81403923034668 8.612905502319336 31.45994567871094 6.224981784820557 C 37.30396270751953 3.753258943557739 43.51328659057617 2.49999737739563 49.91543960571289 2.49999737739563 C 56.31783676147461 2.49999737739563 62.52716064453125 3.753258943557739 68.37117767333984 6.224981784820557 C 74.01706695556641 8.612905502319336 79.08812713623047 12.03195095062256 83.44349670410156 16.38713645935059 C 87.79885101318359 20.74233627319336 91.21802520751953 25.81318283081055 93.60602569580078 31.45885848999023 C 96.07781982421875 37.30262756347656 97.33113098144531 43.51168823242188 97.33113098144531 49.91356658935547 C 97.33113098144531 56.31544494628906 96.07781982421875 62.52450561523438 93.60602569580078 68.36825561523438 C 91.21802520751953 74.01393890380859 87.79885101318359 79.08480072021484 83.44349670410156 83.43997955322266 C 79.08812713623047 87.79518127441406 74.01706695556641 91.21422576904297 68.37117767333984 93.60214996337891 C 62.52716064453125 96.07387542724609 56.31783676147461 97.32713317871094 49.91568374633789 97.32713317871094 Z" stroke="none"/>
          <path d="M 49.91543579101562 5 C 43.84967041015625 5 37.96799850463867 6.186820983886719 32.43379974365234 8.527511596679688 C 27.08589172363281 10.78940582275391 22.28192901611328 14.02853393554688 18.15536499023438 18.15494537353516 C 14.02880096435547 22.28134918212891 10.78955841064453 27.08509063720703 8.527595520019531 32.43276977539062 C 6.186851501464844 37.96671295166016 5 43.84809494018555 5 49.91356658935547 C 5 55.97903823852539 6.186851501464844 61.86042022705078 8.527595520019531 67.39434814453125 C 10.78955841064453 72.74201965332031 14.02880096435547 77.54578399658203 18.15536499023438 81.67218017578125 C 22.28192901611328 85.79859924316406 27.08589172363281 89.03772735595703 32.43379974365234 91.29962158203125 C 37.96799850463867 93.64031219482422 43.84967041015625 94.82713317871094 49.91568756103516 94.82713317871094 C 55.98145294189453 94.82713317871094 61.86312484741211 93.64031219482422 67.39732360839844 91.29962158203125 C 72.74523162841797 89.03772735595703 77.54917907714844 85.79859924316406 81.67576599121094 81.67218017578125 C 85.80230712890625 77.54578399658203 89.04156494140625 72.74201965332031 91.30352783203125 67.39434814453125 C 93.64427185058594 61.86042022705078 94.83112335205078 55.97903823852539 94.83112335205078 49.91356658935547 C 94.83112335205078 43.84809494018555 93.64427185058594 37.96671295166016 91.30352783203125 32.43276977539062 C 89.04156494140625 27.08509063720703 85.80230712890625 22.28134918212891 81.67576599121094 18.15494537353516 C 77.54917907714844 14.02853393554688 72.74523162841797 10.78940582275391 67.39732360839844 8.527511596679688 C 61.86312484741211 6.186820983886719 55.98145294189453 5 49.91568756103516 5 L 49.91543579101562 5 M 49.91543579101562 0 L 49.91568756103516 0 C 77.48320007324219 0 99.83112335205078 22.34706115722656 99.83112335205078 49.91356658935547 C 99.83112335205078 77.48005676269531 77.48320007324219 99.82713317871094 49.91568756103516 99.82713317871094 L 49.91543579101562 99.82713317871094 C 22.34790802001953 99.82713317871094 0 77.48005676269531 0 49.91356658935547 C 0 22.34706115722656 22.34790802001953 0 49.91543579101562 0 Z" stroke="none" fill="#f3d02c"/>
        </g>
      </g>
    </g>
    <g id="sprout_3256113" transform="translate(28.07 22.27)">
      <g id="Grupo_1105896" data-name="Grupo 1105896" transform="translate(0.81 0.81)">
        <path id="Trazado_896477" data-name="Trazado 896477" d="M96.853,288.108v11.384a11.983,11.983,0,0,1-11.984,11.983H65a11.983,11.983,0,0,1-11.984-11.983V288.108Z" transform="translate(-53.015 -257.807)" fill="#935b44"/>
        <path id="Trazado_896478" data-name="Trazado 896478" d="M336.8,288.11v11.384a11.983,11.983,0,0,1-11.983,11.983H322.01a11.983,11.983,0,0,0,11.983-11.983V288.11Z" transform="translate(-292.963 -257.809)" fill="#87523e"/>
        <path id="Trazado_896479" data-name="Trazado 896479" d="M243.9,103.473a1.465,1.465,0,0,1-1.465-1.465V67.193a1.465,1.465,0,0,1,2.93,0v34.815A1.465,1.465,0,0,1,243.9,103.473Z" transform="translate(-221.977 -59.44)" fill="#02905d"/>
        <path id="Trazado_896480" data-name="Trazado 896480" d="M106.873,23.91H99.987a9.524,9.524,0,0,1-9.524-9.524V7.5h6.886a9.524,9.524,0,0,1,9.524,9.524Z" transform="translate(-86.419 -7.5)" fill="#80d261"/>
        <path id="Trazado_896481" data-name="Trazado 896481" d="M141.971,17.023V23.91h-2.638V17.023A9.524,9.524,0,0,0,129.81,7.5h2.638A9.523,9.523,0,0,1,141.971,17.023Z" transform="translate(-121.517 -7.5)" fill="#68ca44"/>
        <path id="Trazado_896482" data-name="Trazado 896482" d="M269.569,73.224h6.886a9.524,9.524,0,0,0,9.524-9.524V56.814h-6.886a9.524,9.524,0,0,0-9.524,9.524Z" transform="translate(-246.185 -51.489)" fill="#80d261"/>
        <path id="Trazado_896483" data-name="Trazado 896483" d="M320.564,56.81V63.7a9.524,9.524,0,0,1-9.524,9.523h-2.7a9.524,9.524,0,0,0,9.524-9.523V56.81Z" transform="translate(-280.769 -51.485)" fill="#68ca44"/>
      </g>
      <g id="Grupo_1105897" data-name="Grupo 1105897" transform="translate(0 0)">
        <path id="Trazado_896484" data-name="Trazado 896484" d="M238.142,202.091a.81.81,0,1,0-1.62,0v7.756h-8.043a.81.81,0,0,0,0,1.62h8.043v4.944H224.439a.81.81,0,0,0,0,1.62h12.084v4.01a11.186,11.186,0,0,1-11.174,11.173H211.31a.81.81,0,0,0,0,1.62h14.038a12.808,12.808,0,0,0,12.794-12.793v-19.95Z" transform="translate(-192.684 -179.546)"/>
        <path id="Trazado_896485" data-name="Trazado 896485" d="M60.253,53.668H58.309A11.186,11.186,0,0,1,47.135,42.495V31.921H65.969V43.378a2.275,2.275,0,1,0,4.55,0V31.921h6.966a.81.81,0,1,0,0-1.62H70.519V23.355H76.6A10.439,10.439,0,0,0,86.929,13.021V6.135a.82.82,0,0,0-.81-.81H79.233a10.423,10.423,0,0,0-8.714,4.785V8.563a2.292,2.292,0,0,0-3.588-1.855A10.441,10.441,0,0,0,57.255,0H50.369a.82.82,0,0,0-.81.81V7.7a10.288,10.288,0,0,0,6.495,9.6.81.81,0,1,0,.6-1.5A8.727,8.727,0,0,1,53.4,13.517H61.93l2.893,2.893H59.777a.81.81,0,1,0-.02,1.62h6.212V30.3H47.135V22.545a.81.81,0,0,0-1.62,0V42.5A12.808,12.808,0,0,0,58.309,55.288h1.944a.81.81,0,0,0,0-1.62ZM68.9,43.378a.656.656,0,0,1-1.311,0V31.921H68.9Zm7.7-21.643H71.664l2.893-2.893h8.516A8.693,8.693,0,0,1,76.6,21.735Zm8.714-9.75h-3.9l3.9-3.9Zm-1.082,5.237h-8.05l3.617-3.617h5.493A8.65,8.65,0,0,1,84.227,17.222ZM80.268,10.84v-3.9h3.9Zm-1.62,1.62-3.617,3.617V8.027a8.65,8.65,0,0,1,3.617-1.061ZM73.412,9.181V17.7L70.519,20.59V15.658a8.693,8.693,0,0,1,2.893-6.478Zm-7.443,1.153v4.931l-2.893-2.893V3.856A8.693,8.693,0,0,1,65.969,10.333Zm-8.13-3.2V1.641A8.649,8.649,0,0,1,61.456,2.7v8.05Zm-6.661-4.37,3.9,3.9h-3.9ZM52.324,1.62h3.9v3.9ZM52.25,11.9A8.7,8.7,0,0,1,51.2,8.28h5.495L60.311,11.9ZM67.589,8.563a.656.656,0,0,1,1.311,0V30.3H67.589Z" transform="translate(-45.515 0)"/>
        <path id="Trazado_896486" data-name="Trazado 896486" d="M104.855,388.8H96.96a.81.81,0,0,0,0,1.62h7.895a.81.81,0,0,0,0-1.62Z" transform="translate(-90.682 -346.819)"/>
        <path id="Trazado_896487" data-name="Trazado 896487" d="M234.932,445.164a.81.81,0,0,0,.81.81h9.436a.81.81,0,1,0,0-1.62h-9.436A.81.81,0,0,0,234.932,445.164Z" transform="translate(-214.478 -396.371)"/>
        <ellipse id="Elipse_11677" data-name="Elipse 11677" cx="0.879" cy="0.879" rx="0.879" ry="0.879" transform="matrix(0.987, -0.16, 0.16, 0.987, 13.156, 36.948)"/>
      </g>
    </g>
  </g>
</svg>
