<svg xmlns="http://www.w3.org/2000/svg" width="190" height="113.525" viewBox="0 0 190 113.525">
  <g id="Grupo_1106282" data-name="Grupo 1106282" transform="translate(-1230 -2966.482)">
    <rect id="Rectángulo_402920" data-name="Rectángulo 402920" width="190" height="99" rx="15" transform="translate(1230 2980.753)" fill="#f3d02c"/>
    <g id="granja" transform="translate(1263.849 2966.482)">
      <path id="Trazado_894938" data-name="Trazado 894938" d="M64,139.48V82.406l8.153-24.46,36.69-20.383,36.69,20.383,8.153,24.46V139.48Zm0,0" transform="translate(-47.693 -27.992)" fill="#eb4042"/>
      <g id="Grupo_1105103" data-name="Grupo 1105103" transform="translate(16.307 19.762)">
        <path id="Trazado_894939" data-name="Trazado 894939" d="M162.828,145.64H82.64l1.366-4.077h77.457Zm0,0" transform="translate(-77.891 -125.256)" fill="#d53332"/>
        <path id="Trazado_894940" data-name="Trazado 894940" d="M168.086,113.64H93.36l.673-2.038,3.669-2.038h66.043l3.669,2.038Zm0,0" transform="translate(-85.879 -101.41)" fill="#d53332"/>
        <path id="Trazado_894941" data-name="Trazado 894941" d="M190.566,81.639H139.2l7.338-4.077h36.69Zm0,0" transform="translate(-120.039 -77.562)" fill="#d53332"/>
        <path id="Trazado_894942" data-name="Trazado 894942" d="M157.611,177.64H72l1.366-4.077h82.879Zm0,0" transform="translate(-69.962 -149.103)" fill="#d53332"/>
        <path id="Trazado_894943" data-name="Trazado 894943" d="M153.687,207.6v2.038H64V207.6l.673-2.038h88.342Zm0,0" transform="translate(-64 -172.949)" fill="#d53332"/>
        <path id="Trazado_894944" data-name="Trazado 894944" d="M64,237.563h89.687v4.077H64Zm0,0" transform="translate(-64 -196.796)" fill="#d53332"/>
        <path id="Trazado_894945" data-name="Trazado 894945" d="M64,269.563h89.687v4.077H64Zm0,0" transform="translate(-64 -220.643)" fill="#d53332"/>
        <path id="Trazado_894946" data-name="Trazado 894946" d="M64,301.563h89.687v4.077H64Zm0,0" transform="translate(-64 -244.489)" fill="#d53332"/>
        <path id="Trazado_894947" data-name="Trazado 894947" d="M64,333.563h89.687v4.077H64Zm0,0" transform="translate(-64 -268.336)" fill="#d53332"/>
        <path id="Trazado_894948" data-name="Trazado 894948" d="M64,365.563h89.687v4.077H64Zm0,0" transform="translate(-64 -292.182)" fill="#d53332"/>
        <path id="Trazado_894949" data-name="Trazado 894949" d="M64,397.563h89.687v4.077H64Zm0,0" transform="translate(-64 -316.029)" fill="#d53332"/>
        <path id="Trazado_894950" data-name="Trazado 894950" d="M192,277.563h24.46V318.33H192Zm0,0" transform="translate(-159.386 -226.604)" fill="#d53332"/>
      </g>
      <path id="Trazado_894951" data-name="Trazado 894951" d="M24.307,381.716a8.153,8.153,0,1,1-8.153-8.153A8.154,8.154,0,0,1,24.307,381.716Zm0,0" transform="translate(-5.962 -278.382)" fill="#ecaf4a"/>
      <path id="Trazado_894952" data-name="Trazado 894952" d="M350.045,378.038a6.115,6.115,0,1,1,2.275-11.781,6.062,6.062,0,0,1,8.153-4.077,6.1,6.1,0,1,1,11.544,3.873,6.1,6.1,0,0,1-1.589,11.985Zm0,0" transform="translate(-256.282 -266.55)" fill="#88bf40"/>
      <path id="Trazado_894953" data-name="Trazado 894953" d="M220.383,135.755a10.192,10.192,0,1,1-10.192-10.192A10.192,10.192,0,0,1,220.383,135.755Zm0,0" transform="translate(-149.041 -93.57)" fill="#0093b9"/>
      <path id="Trazado_894954" data-name="Trazado 894954" d="M20.266,373.938a8.1,8.1,0,0,1-7.075,12.134,8.183,8.183,0,0,1-.96-.1,8.129,8.129,0,1,0,8.036-12.039Zm0,0" transform="translate(-9.114 -278.661)" fill="#d69f44"/>
      <path id="Trazado_894955" data-name="Trazado 894955" d="M88.307,381.716a8.153,8.153,0,1,1-8.153-8.153A8.154,8.154,0,0,1,88.307,381.716Zm0,0" transform="translate(-53.655 -278.382)" fill="#ecaf4a"/>
      <path id="Trazado_894956" data-name="Trazado 894956" d="M84.267,373.938a8.1,8.1,0,0,1-7.075,12.134,8.183,8.183,0,0,1-.96-.1,8.129,8.129,0,1,0,8.036-12.039Zm0,0" transform="translate(-56.808 -278.661)" fill="#d69f44"/>
      <path id="Trazado_894957" data-name="Trazado 894957" d="M56.307,325.716a8.153,8.153,0,1,1-8.153-8.153A8.154,8.154,0,0,1,56.307,325.716Zm0,0" transform="translate(-29.808 -236.65)" fill="#ecaf4a"/>
      <path id="Trazado_894958" data-name="Trazado 894958" d="M52.266,317.938a8.1,8.1,0,0,1-7.075,12.134,8.209,8.209,0,0,1-.96-.1,8.129,8.129,0,1,0,8.036-12.039Zm0,0" transform="translate(-32.961 -236.93)" fill="#d69f44"/>
      <path id="Trazado_894959" data-name="Trazado 894959" d="M160,261.563h40.767v8.153H160Zm0,0" transform="translate(-119.233 -194.919)" fill="#354f5c"/>
      <path id="Trazado_894960" data-name="Trazado 894960" d="M157.611,64.061l-42.805-26.5L72,64.061V74.253l42.805-26.5,42.805,26.5Zm0,0" transform="translate(-53.655 -27.992)" fill="#d53332"/>
      <path id="Trazado_894961" data-name="Trazado 894961" d="M128.109,73.163l-10.192-2.038-8.153-24.46L73.074,26.281,36.383,46.665,28.23,71.125,18.038,73.163,16,65.01l5.991-.951,7.66-22.981L73.074,16.954,116.5,41.077l7.66,22.981,5.991.951Zm0,0" transform="translate(-11.923 -12.634)" fill="#354f5c"/>
      <path id="Trazado_894962" data-name="Trazado 894962" d="M420.125,79.144l1.978-3.562,3.272,1.816L423.4,80.962Zm0,0" transform="translate(-313.08 -56.324)"/>
      <path id="Trazado_894963" data-name="Trazado 894963" d="M284.117,3.563,286.1,0,316.67,16.994l-1.981,3.563Zm0,0" transform="translate(-211.726)"/>
      <path id="Trazado_894964" data-name="Trazado 894964" d="M118.151,104.967a7.776,7.776,0,0,0,.074-1.076,8.154,8.154,0,0,0-8.153-8.153,8.054,8.054,0,0,0-2.038.269V67.65l7.745,1.549a1.935,1.935,0,0,0,.408.041,2.039,2.039,0,0,0,1.976-1.545l2.038-8.153a2.039,2.039,0,0,0-1.657-2.505l-4.77-.758L106.5,34.467a2.039,2.039,0,0,0-.942-1.136L62.141,9.21a2.038,2.038,0,0,0-1.981,0L16.743,33.333a2.043,2.043,0,0,0-.942,1.136L8.533,56.28l-4.769.758a2.037,2.037,0,0,0-1.657,2.505L4.145,67.7a2.039,2.039,0,0,0,2.379,1.5l7.745-1.549V86.4a10.192,10.192,0,0,0-6.115,9.336,10.067,10.067,0,0,0,.926,4.189,10.094,10.094,0,0,0-6.988,16.194H0V120.2H122.3v-4.077h-1.134a8.041,8.041,0,0,0-3.017-11.154ZM6.594,60.711l3.794-.611A2.041,2.041,0,0,0,12,58.732L19.411,36.5l41.739-23.18,41.739,23.19L110.3,58.742a2.039,2.039,0,0,0,1.614,1.368l3.794.611-1.019,4.11L107.554,63.4,99.776,40.059a2.041,2.041,0,0,0-.945-1.138L62.141,18.538a2.038,2.038,0,0,0-1.981,0L23.47,38.921a2.041,2.041,0,0,0-.945,1.138L14.747,63.395,7.613,64.822Zm11.751,4.784,7.8-23.394,35.006-19.45L96.157,42.1l7.8,23.394V98.554a8.286,8.286,0,0,0-.962,1.334,8.176,8.176,0,0,0-8.153,4.077,7.934,7.934,0,0,0-1.076-.074,8.1,8.1,0,0,0-7.02,12.23H75.419V83.508h6.115a2.038,2.038,0,0,0,2.038-2.038V73.316a2.038,2.038,0,0,0-2.038-2.038H40.767a2.038,2.038,0,0,0-2.038,2.038v8.153a2.038,2.038,0,0,0,2.038,2.038h6.115v32.613H34.6a10.094,10.094,0,0,0-6.988-16.194,10.067,10.067,0,0,0,.926-4.189A10.2,10.2,0,0,0,18.346,85.546Zm53,22.7v23.238L63.6,99.814Zm-10.192,7.95L52.729,83.508H69.573ZM42.806,79.431V75.354H79.5v4.077ZM58.7,99.814l-7.745,11.619V88.2Zm2.446,3.669,8.422,12.638H52.729Zm-40.767,6.523a6.115,6.115,0,1,1,6.115,6.115A6.115,6.115,0,0,1,20.384,110.006ZM18.4,116.121h-.106c.018-.023.037-.041.053-.064C18.361,116.08,18.38,116.1,18.4,116.121Zm-.053-26.5a6.115,6.115,0,1,1-6.115,6.115A6.115,6.115,0,0,1,18.345,89.623ZM4.077,110.006a6.115,6.115,0,1,1,6.115,6.115A6.115,6.115,0,0,1,4.077,110.006Zm89.687,6.115a4.077,4.077,0,1,1,1.517-7.854,2,2,0,0,0,1.667-.068,2.039,2.039,0,0,0,1.058-1.292,4.089,4.089,0,0,1,5.428-2.717,2,2,0,0,0,1.667-.068,2.04,2.04,0,0,0,1.058-1.292,4.062,4.062,0,1,1,7.689,2.573,2.039,2.039,0,0,0,1.358,2.727,4.064,4.064,0,0,1-1.058,7.99Zm0,0" transform="translate(0 -6.672)"/>
      <path id="Trazado_894965" data-name="Trazado 894965" d="M204.23,142.023A12.23,12.23,0,1,0,192,129.793,12.23,12.23,0,0,0,204.23,142.023Zm-7.864-10.192h5.825v5.825A8.151,8.151,0,0,1,196.366,131.831Zm9.9,5.825v-5.825h5.825A8.151,8.151,0,0,1,206.268,137.657Zm5.825-9.9h-5.825v-5.825A8.151,8.151,0,0,1,212.094,127.755Zm-9.9-5.825v5.825h-5.825A8.151,8.151,0,0,1,202.192,121.929Zm0,0" transform="translate(-143.08 -87.609)"/>
      <path id="Trazado_894966" data-name="Trazado 894966" d="M152,157.563h4.077v4.077H152Zm0,0" transform="translate(-113.271 -117.417)"/>
      <path id="Trazado_894967" data-name="Trazado 894967" d="M312,157.563h4.077v4.077H312Zm0,0" transform="translate(-232.504 -117.417)"/>
    </g>
  </g>
</svg>
