<svg xmlns="http://www.w3.org/2000/svg" width="86.321" height="86.321" viewBox="0 0 86.321 86.321">
  <g id="agriculture_5341391" transform="translate(-16 -16)">
    <path id="Trazado_899214" data-name="Trazado 899214" d="M401.355,161.02l-18.7-5.1-.757,2.776,11.62,3.169-1.128,4.511,2.791.7,1.113-4.451,2.947.8-1.1,4.388,2.791.7,1.439-5.755A1.439,1.439,0,0,0,401.355,161.02Z" transform="translate(-300.094 -114.757)" fill="#045f9c"/>
    <path id="Trazado_899215" data-name="Trazado 899215" d="M160,127.084h7.193v8.221H160Z" transform="translate(-118.104 -91.107)" fill="#efd66a"/>
    <path id="Trazado_899216" data-name="Trazado 899216" d="M273.543,52.527H254.586L257.718,40h15.826Z" transform="translate(-195.68 -19.684)" fill="#2993ce"/>
    <path id="Trazado_899217" data-name="Trazado 899217" d="M194.877,34.7H192V17.439A1.439,1.439,0,0,1,193.439,16h4.316v2.877h-2.877Z" transform="translate(-144.349)" fill="#0a4566"/>
    <path id="Trazado_899218" data-name="Trazado 899218" d="M189.406,121.264H152v-4.316l7.193-2.877v-4.316h-5.755v-1.6A4.151,4.151,0,0,1,157.59,104h31.816Z" transform="translate(-111.542 -72.174)" fill="#dd1c4b"/>
    <path id="Trazado_899219" data-name="Trazado 899219" d="M24,240h83.444v44.6H24Z" transform="translate(-6.561 -183.717)" fill="#feac4f"/>
    <circle id="Elipse_11691" data-name="Elipse 11691" cx="4.5" cy="4.5" r="4.5" transform="translate(43.16 47.16)" fill="#0a4566"/>
    <circle id="Elipse_11692" data-name="Elipse 11692" cx="1.5" cy="1.5" r="1.5" transform="translate(46.16 50.16)" fill="#2993ce"/>
    <path id="Trazado_899220" data-name="Trazado 899220" d="M111.826,284.6,117.58,240H107.509L96,284.6Z" transform="translate(-65.613 -183.717)" fill="#d68029"/>
    <path id="Trazado_899221" data-name="Trazado 899221" d="M127.826,284.6,133.58,240H123.509L112,284.6Z" transform="translate(-78.736 -183.717)" fill="#66af8d"/>
    <path id="Trazado_899222" data-name="Trazado 899222" d="M285.58,284.6,274.071,240H264l5.755,44.6Z" transform="translate(-203.401 -183.717)" fill="#d68029"/>
    <path id="Trazado_899223" data-name="Trazado 899223" d="M301.58,284.6,290.071,240H280l5.755,44.6Z" transform="translate(-216.523 -183.717)" fill="#66af8d"/>
    <path id="Trazado_899224" data-name="Trazado 899224" d="M292.28,112A12.28,12.28,0,0,0,280,124.28v3.546h14.387V112Z" transform="translate(-216.523 -78.736)" fill="#89103c"/>
    <path id="Trazado_899225" data-name="Trazado 899225" d="M216,136h2.877v4.316H216Z" transform="translate(-164.033 -98.42)" fill="#af1e4b"/>
    <path id="Trazado_899226" data-name="Trazado 899226" d="M274.877,121.264H272v-3.546A13.719,13.719,0,0,1,285.719,104h9.3v2.877h-9.3a10.841,10.841,0,0,0-10.841,10.841Z" transform="translate(-209.962 -72.174)" fill="#c3e0ed"/>
    <path id="Trazado_899227" data-name="Trazado 899227" d="M248,136h2.877v4.316H248Z" transform="translate(-190.278 -98.42)" fill="#af1e4b"/>
    <path id="Trazado_899228" data-name="Trazado 899228" d="M267.088,56.1l-5.755-5.755L259.3,52.378l1.86,1.86L256.2,59.2l-.2.795h3.473l3.72-3.72,1.86,1.86Z" transform="translate(-196.839 -28.167)" fill="#89103c"/>
    <path id="Trazado_899229" data-name="Trazado 899229" d="M184,48h5.755v5.755H184Z" transform="translate(-137.788 -26.245)" fill="#045f9c"/>
    <path id="Trazado_899230" data-name="Trazado 899230" d="M24,250.071,31.193,240h8.632L24,281.722Z" transform="translate(-6.561 -183.717)" fill="#66af8d"/>
    <path id="Trazado_899231" data-name="Trazado 899231" d="M402.783,254.212,392.632,240H384l16.917,44.6H402.7Z" transform="translate(-301.82 -183.717)" fill="#d68029"/>
    <path id="Trazado_899232" data-name="Trazado 899232" d="M415.826,250.071,408.632,240H400l15.826,41.722Z" transform="translate(-314.943 -183.717)" fill="#66af8d"/>
    <rect id="Rect치ngulo_403248" data-name="Rect치ngulo 403248" width="9" height="14" rx="4.5" transform="translate(17.16 35.16)" fill="#66af8d"/>
    <path id="Trazado_899233" data-name="Trazado 899233" d="M40,176h2.877v11.509H40Z" transform="translate(-19.684 -131.226)" fill="#d68029"/>
    <rect id="Rect치ngulo_403249" data-name="Rect치ngulo 403249" width="9" height="14" rx="4.5" transform="translate(26.16 35.16)" fill="#66af8d"/>
    <path id="Trazado_899234" data-name="Trazado 899234" d="M88,176h2.877v11.509H88Z" transform="translate(-59.052 -131.226)" fill="#d68029"/>
    <g id="Grupo_1106845" data-name="Grupo 1106845" transform="translate(21.755 60.599)">
      <path id="Trazado_899235" data-name="Trazado 899235" d="M236.316,407.193a1.439,1.439,0,0,1-1.365-.984l-.529-1.586A2.55,2.55,0,0,0,232,402.877V400a5.424,5.424,0,0,1,4.316,2.132A5.424,5.424,0,0,1,240.632,400v2.877a2.55,2.55,0,0,0-2.422,1.746l-.529,1.586A1.439,1.439,0,0,1,236.316,407.193Z" transform="translate(-198.91 -375.542)" fill="#2d7a54"/>
      <path id="Trazado_899236" data-name="Trazado 899236" d="M236.316,351.193a1.439,1.439,0,0,1-1.365-.984l-.529-1.586A2.55,2.55,0,0,0,232,346.877V344a5.424,5.424,0,0,1,4.316,2.132A5.424,5.424,0,0,1,240.632,344v2.877a2.55,2.55,0,0,0-2.422,1.746l-.529,1.586A1.439,1.439,0,0,1,236.316,351.193Z" transform="translate(-198.91 -329.613)" fill="#2d7a54"/>
      <path id="Trazado_899237" data-name="Trazado 899237" d="M236.316,463.193a1.439,1.439,0,0,1-1.365-.984l-.529-1.586A2.55,2.55,0,0,0,232,458.877V456a5.424,5.424,0,0,1,4.316,2.132A5.424,5.424,0,0,1,240.632,456v2.877a2.55,2.55,0,0,0-2.422,1.746l-.529,1.586A1.439,1.439,0,0,1,236.316,463.193Z" transform="translate(-198.91 -421.472)" fill="#2d7a54"/>
      <path id="Trazado_899238" data-name="Trazado 899238" d="M52.316,455.193a1.439,1.439,0,0,1-1.365-.984l-.529-1.586A2.55,2.55,0,0,0,48,450.877V448a5.424,5.424,0,0,1,4.316,2.132A5.424,5.424,0,0,1,56.632,448v2.877a2.55,2.55,0,0,0-2.422,1.746l-.529,1.586A1.439,1.439,0,0,1,52.316,455.193Z" transform="translate(-48 -414.91)" fill="#2d7a54"/>
      <path id="Trazado_899239" data-name="Trazado 899239" d="M76.316,391.193a1.439,1.439,0,0,1-1.365-.984l-.529-1.586A2.55,2.55,0,0,0,72,386.877V384a5.424,5.424,0,0,1,4.316,2.132A5.424,5.424,0,0,1,80.632,384v2.877a2.55,2.55,0,0,0-2.422,1.746l-.529,1.586A1.439,1.439,0,0,1,76.316,391.193Z" transform="translate(-67.684 -362.42)" fill="#2d7a54"/>
      <path id="Trazado_899240" data-name="Trazado 899240" d="M420.316,455.193a1.439,1.439,0,0,1-1.365-.984l-.529-1.586A2.55,2.55,0,0,0,416,450.877V448a5.424,5.424,0,0,1,4.316,2.132A5.424,5.424,0,0,1,424.632,448v2.877a2.55,2.55,0,0,0-2.422,1.746l-.529,1.586A1.439,1.439,0,0,1,420.316,455.193Z" transform="translate(-349.82 -414.91)" fill="#2d7a54"/>
      <path id="Trazado_899241" data-name="Trazado 899241" d="M396.316,391.193a1.439,1.439,0,0,1-1.365-.984l-.529-1.586A2.55,2.55,0,0,0,392,386.877V384a5.424,5.424,0,0,1,4.316,2.132A5.424,5.424,0,0,1,400.632,384v2.877a2.55,2.55,0,0,0-2.422,1.746l-.529,1.586A1.439,1.439,0,0,1,396.316,391.193Z" transform="translate(-330.136 -362.42)" fill="#2d7a54"/>
      <path id="Trazado_899242" data-name="Trazado 899242" d="M238.238,303.676a1.434,1.434,0,0,1-1.017-.421l-2.877-2.877,2.035-2.035,1.86,1.86,1.86-1.86,2.035,2.035-2.877,2.877A1.434,1.434,0,0,1,238.238,303.676Z" transform="translate(-200.832 -292.167)" fill="#2d7a54"/>
      <path id="Trazado_899243" data-name="Trazado 899243" d="M94.238,335.676a1.434,1.434,0,0,1-1.017-.421l-2.877-2.877,2.035-2.035,1.86,1.86,1.86-1.86,2.035,2.035-2.877,2.877a1.434,1.434,0,0,1-1.017.421Z" transform="translate(-82.728 -318.412)" fill="#2d7a54"/>
      <path id="Trazado_899244" data-name="Trazado 899244" d="M382.238,335.676a1.434,1.434,0,0,1-1.017-.421l-2.877-2.877,2.035-2.035,1.86,1.86,1.86-1.86,2.035,2.035-2.877,2.877A1.434,1.434,0,0,1,382.238,335.676Z" transform="translate(-318.935 -318.412)" fill="#2d7a54"/>
      <path id="Trazado_899245" data-name="Trazado 899245" d="M128,264h2.877v2.877H128Z" transform="translate(-113.613 -264)" fill="#2d7a54"/>
      <path id="Trazado_899246" data-name="Trazado 899246" d="M112,296h2.877v2.877H112Z" transform="translate(-100.491 -290.245)" fill="#2d7a54"/>
      <path id="Trazado_899247" data-name="Trazado 899247" d="M248,264h2.877v2.877H248Z" transform="translate(-212.033 -264)" fill="#2d7a54"/>
      <path id="Trazado_899248" data-name="Trazado 899248" d="M368,264h2.877v2.877H368Z" transform="translate(-310.453 -264)" fill="#2d7a54"/>
      <path id="Trazado_899249" data-name="Trazado 899249" d="M384,296h2.877v2.877H384Z" transform="translate(-323.575 -290.245)" fill="#2d7a54"/>
    </g>
    <circle id="Elipse_11693" data-name="Elipse 11693" cx="8.5" cy="8.5" r="8.5" transform="translate(69.16 39.16)" fill="#0a4566"/>
    <ellipse id="Elipse_11694" data-name="Elipse 11694" cx="3" cy="2.5" rx="3" ry="2.5" transform="translate(75.16 45.16)" fill="#2993ce"/>
    <path id="Trazado_899250" data-name="Trazado 899250" d="M344.632,172.316a4.316,4.316,0,1,0-4.316,4.316A4.316,4.316,0,0,0,344.632,172.316Zm-5.755,0a1.439,1.439,0,1,1,1.439,1.439A1.439,1.439,0,0,1,338.877,172.316Z" transform="translate(-262.452 -124.665)"/>
    <path id="Trazado_899251" data-name="Trazado 899251" d="M216,136h2.877v4.316H216Z" transform="translate(-164.033 -98.42)"/>
    <path id="Trazado_899252" data-name="Trazado 899252" d="M248,136h2.877v4.316H248Z" transform="translate(-190.278 -98.42)"/>
    <path id="Trazado_899253" data-name="Trazado 899253" d="M101.261,46.263,86.317,42.188a10.071,10.071,0,0,0-12.075-3.936l1.035,2.685a7.2,7.2,0,1,1-2.17,1.318L71.2,40.1a10.079,10.079,0,0,0-3.41,7.555H64.915V45.544A10.841,10.841,0,0,1,75.756,34.7h9.3V31.826H79.3V20.316a1.439,1.439,0,0,0-1.439-1.439H62.038a1.439,1.439,0,0,0-1.4,1.09l-2.6,10.42H50.529V28.948h1.439a1.439,1.439,0,0,0,1.439-1.439V21.755a1.439,1.439,0,0,0-1.439-1.439H50.529V18.877h2.877V16H49.09a1.439,1.439,0,0,0-1.439,1.439v2.877H46.212a1.439,1.439,0,0,0-1.439,1.439V27.51a1.439,1.439,0,0,0,1.439,1.439h1.439v1.439h-1.6a5.6,5.6,0,0,0-5.59,5.59v7.247l-.534.214a1.439,1.439,0,0,0-.9,1.336V49.09a1.439,1.439,0,0,0,1.439,1.439h1.621a5.746,5.746,0,0,0,.592,4.316H31.826v-4.5a5.765,5.765,0,0,0,4.316-5.573V39.019a5.751,5.751,0,0,0-10.071-3.8A5.751,5.751,0,0,0,16,39.019v5.755a5.765,5.765,0,0,0,4.316,5.573v4.5H17.439v2.877h4.4l-5.569,7.8,2.341,1.672,6.763-9.469H31.18L16.094,97.495l2.69,1.02L34.257,57.722h8.66l-11.046,42.8,2.786.719,11.231-43.52h7.319L47.663,100.7l2.854.368L56.11,57.722h6.1L67.8,101.066l2.854-.368L65.113,57.722h7.319l11.231,43.52,2.786-.719L75.4,57.722h8.66L99.537,98.515l2.69-1.02L87.142,57.722h5.807l6.763,9.468,2.341-1.672-5.569-7.8h4.4V54.845H84.9a10.049,10.049,0,0,0,2.81-9.294l5.709,1.557-1.128,4.511,2.791.7L96.2,47.865l2.948.8-1.1,4.388,2.791.7L102.278,48a1.439,1.439,0,0,0-1.017-1.736ZM20.316,44.774v2.488a2.877,2.877,0,0,1-1.439-2.488V39.019a2.877,2.877,0,0,1,5.755,0v5.755a2.877,2.877,0,0,1-1.439,2.488V44.774Zm8.632,10.071H23.193v-4.5a5.761,5.761,0,0,0,2.877-1.772,5.761,5.761,0,0,0,2.877,1.772Zm0-10.071v2.488a2.877,2.877,0,0,1-1.439-2.488V39.019a2.877,2.877,0,0,1,5.755,0v5.755a2.877,2.877,0,0,1-1.439,2.488V44.774ZM63.161,21.755H76.425v8.632H64.073l2.281-2.281,1.86,1.86,2.035-2.035-5.755-5.755-1.917,1.918Zm-.632,2.526,1.79,1.79-2.983,2.983ZM47.651,23.193h2.877v2.877H47.651ZM43.335,39.019h2.877v1.9l-2.877,1.151Zm4.316,15.826a2.877,2.877,0,1,1,2.877-2.877,2.877,2.877,0,0,1-2.877,2.877Zm0-8.632a5.73,5.73,0,0,0-3.8,1.439H41.9v-1.9l6.289-2.516a1.439,1.439,0,0,0,.9-1.336V37.58a1.439,1.439,0,0,0-1.439-1.439H43.335v-.165a2.716,2.716,0,0,1,2.713-2.713H69.634a13.735,13.735,0,0,0-7.6,12.28v2.107H51.451A5.73,5.73,0,0,0,47.651,46.212Zm4.981,8.632a5.746,5.746,0,0,0,.592-4.316h14.99a10.08,10.08,0,0,0,2.611,4.316Z" transform="translate(0 0)"/>
    <path id="Trazado_899254" data-name="Trazado 899254" d="M236.316,402.132A5.424,5.424,0,0,0,232,400v2.877a2.55,2.55,0,0,1,2.422,1.746l.529,1.586a1.439,1.439,0,0,0,2.73,0l.529-1.586a2.55,2.55,0,0,1,2.422-1.746V400A5.424,5.424,0,0,0,236.316,402.132Z" transform="translate(-177.155 -314.943)"/>
    <path id="Trazado_899255" data-name="Trazado 899255" d="M236.316,346.132A5.424,5.424,0,0,0,232,344v2.877a2.55,2.55,0,0,1,2.422,1.746l.529,1.586a1.439,1.439,0,0,0,2.73,0l.529-1.586a2.55,2.55,0,0,1,2.422-1.746V344A5.424,5.424,0,0,0,236.316,346.132Z" transform="translate(-177.155 -269.014)"/>
    <path id="Trazado_899256" data-name="Trazado 899256" d="M236.316,458.132A5.424,5.424,0,0,0,232,456v2.877a2.55,2.55,0,0,1,2.422,1.746l.529,1.586a1.439,1.439,0,0,0,2.73,0l.529-1.586a2.55,2.55,0,0,1,2.422-1.746V456A5.424,5.424,0,0,0,236.316,458.132Z" transform="translate(-177.155 -360.872)"/>
    <path id="Trazado_899257" data-name="Trazado 899257" d="M52.316,450.132A5.424,5.424,0,0,0,48,448v2.877a2.55,2.55,0,0,1,2.422,1.746l.529,1.586a1.439,1.439,0,0,0,2.73,0l.529-1.586a2.55,2.55,0,0,1,2.422-1.746V448A5.424,5.424,0,0,0,52.316,450.132Z" transform="translate(-26.245 -354.311)"/>
    <path id="Trazado_899258" data-name="Trazado 899258" d="M80.632,386.877V384a5.424,5.424,0,0,0-4.316,2.132A5.424,5.424,0,0,0,72,384v2.877a2.55,2.55,0,0,1,2.422,1.746l.529,1.586a1.439,1.439,0,0,0,2.73,0l.529-1.586A2.55,2.55,0,0,1,80.632,386.877Z" transform="translate(-45.929 -301.82)"/>
    <path id="Trazado_899259" data-name="Trazado 899259" d="M420.316,450.132A5.424,5.424,0,0,0,416,448v2.877a2.55,2.55,0,0,1,2.422,1.746l.529,1.586a1.439,1.439,0,0,0,2.73,0l.529-1.586a2.55,2.55,0,0,1,2.422-1.746V448A5.424,5.424,0,0,0,420.316,450.132Z" transform="translate(-328.066 -354.311)"/>
    <path id="Trazado_899260" data-name="Trazado 899260" d="M397.681,390.21l.529-1.586a2.55,2.55,0,0,1,2.422-1.746V384a5.424,5.424,0,0,0-4.316,2.132A5.424,5.424,0,0,0,392,384v2.877a2.55,2.55,0,0,1,2.422,1.746l.529,1.586a1.439,1.439,0,0,0,2.73,0Z" transform="translate(-308.382 -301.82)"/>
    <path id="Trazado_899261" data-name="Trazado 899261" d="M234.343,300.378l2.877,2.877a1.439,1.439,0,0,0,2.035,0l2.877-2.877-2.035-2.035-1.86,1.86-1.86-1.86Z" transform="translate(-179.077 -231.568)"/>
    <path id="Trazado_899262" data-name="Trazado 899262" d="M92.378,330.343l-2.035,2.035,2.877,2.877a1.439,1.439,0,0,0,2.035,0l2.877-2.877L96.1,330.343l-1.86,1.86Z" transform="translate(-60.973 -257.813)"/>
    <path id="Trazado_899263" data-name="Trazado 899263" d="M382.238,335.676a1.434,1.434,0,0,0,1.017-.421l2.877-2.877-2.035-2.035-1.86,1.86-1.86-1.86-2.035,2.035,2.877,2.877a1.434,1.434,0,0,0,1.017.421Z" transform="translate(-297.181 -257.813)"/>
    <path id="Trazado_899264" data-name="Trazado 899264" d="M128,264h2.877v2.877H128Z" transform="translate(-91.858 -203.401)"/>
    <path id="Trazado_899265" data-name="Trazado 899265" d="M112,296h2.877v2.877H112Z" transform="translate(-78.736 -229.646)"/>
    <path id="Trazado_899266" data-name="Trazado 899266" d="M248,264h2.877v2.877H248Z" transform="translate(-190.278 -203.401)"/>
    <path id="Trazado_899267" data-name="Trazado 899267" d="M368,264h2.877v2.877H368Z" transform="translate(-288.698 -203.401)"/>
    <path id="Trazado_899268" data-name="Trazado 899268" d="M384,296h2.877v2.877H384Z" transform="translate(-301.82 -229.646)"/>
  </g>
</svg>
