<svg xmlns="http://www.w3.org/2000/svg" width="112.068" height="112.068" viewBox="0 0 112.068 112.068">
  <g id="Grupo_1105339" data-name="Grupo 1105339" transform="translate(-955.333 -165)">
    <g id="Trazado_874102" data-name="Trazado 874102" transform="translate(955.333 165)" fill="#f3d02c">
      <path d="M 56.03418731689453 109.5683670043945 C 48.8060188293457 109.5683670043945 41.79538726806641 108.1532897949219 35.19703674316406 105.362419128418 C 32.02545547485352 104.0209503173828 28.96627044677734 102.3604507446289 26.10445404052734 100.4270553588867 C 23.26918792724609 98.51158905029297 20.60295486450195 96.31172180175781 18.1798038482666 93.88857269287109 C 15.75665378570557 91.46542358398438 13.55678749084473 88.79917144775391 11.64132022857666 85.96390533447266 C 9.707921028137207 83.10210418701172 8.047420501708984 80.04292297363281 6.705954074859619 76.871337890625 C 3.915087223052979 70.27298736572266 2.500004053115845 63.26235580444336 2.500004053115845 56.03418731689453 C 2.500004053115845 48.8060188293457 3.915087223052979 41.79538726806641 6.705954074859619 35.19703674316406 C 8.047420501708984 32.02545547485352 9.707921028137207 28.96627044677734 11.64132022857666 26.10445404052734 C 13.55678749084473 23.26918792724609 15.75665378570557 20.60295486450195 18.1798038482666 18.1798038482666 C 20.60295486450195 15.75665378570557 23.26918792724609 13.55678749084473 26.10445404052734 11.64132022857666 C 28.96627044677734 9.707921028137207 32.02545547485352 8.047420501708984 35.19703674316406 6.705954074859619 C 41.79538726806641 3.915087223052979 48.8060188293457 2.500004053115845 56.03418731689453 2.500004053115845 C 63.26235580444336 2.500004053115845 70.27298736572266 3.915087223052979 76.871337890625 6.705954074859619 C 80.04292297363281 8.047420501708984 83.10210418701172 9.707921028137207 85.96390533447266 11.64132022857666 C 88.79917144775391 13.55678749084473 91.46542358398438 15.75665378570557 93.88857269287109 18.1798038482666 C 96.31172180175781 20.60295486450195 98.51158905029297 23.26918792724609 100.4270553588867 26.10445404052734 C 102.3604507446289 28.96627044677734 104.0209503173828 32.02545547485352 105.362419128418 35.19703674316406 C 108.1532897949219 41.79538726806641 109.5683670043945 48.8060188293457 109.5683670043945 56.03418731689453 C 109.5683670043945 63.26235580444336 108.1532897949219 70.27298736572266 105.362419128418 76.871337890625 C 104.0209503173828 80.04292297363281 102.3604507446289 83.10210418701172 100.4270553588867 85.96390533447266 C 98.51158905029297 88.79917144775391 96.31172180175781 91.46542358398438 93.88857269287109 93.88857269287109 C 91.46542358398438 96.31172180175781 88.79917144775391 98.51158905029297 85.96390533447266 100.4270553588867 C 83.10210418701172 102.3604507446289 80.04292297363281 104.0209503173828 76.871337890625 105.362419128418 C 70.27298736572266 108.1532897949219 63.26235580444336 109.5683670043945 56.03418731689453 109.5683670043945 Z" stroke="none"/>
      <path d="M 56.03418731689453 5.000007629394531 C 49.14240646362305 5.000007629394531 42.45942687988281 6.348648071289062 36.17090606689453 9.008468627929688 C 30.09439086914062 11.57862854003906 24.63607025146484 15.25906372070312 19.94757080078125 19.94757080078125 C 15.25906372070312 24.63607025146484 11.57862854003906 30.09439086914062 9.008468627929688 36.17090606689453 C 6.348648071289062 42.45942687988281 5.000007629394531 49.14240646362305 5.000007629394531 56.03418731689453 C 5.000007629394531 62.92596817016602 6.348648071289062 69.60893249511719 9.008468627929688 75.89746856689453 C 11.57862854003906 81.97396850585938 15.25906372070312 87.43228912353516 19.94757080078125 92.12080383300781 C 24.63607025146484 96.80931091308594 30.09439086914062 100.48974609375 36.17090606689453 103.0599060058594 C 42.45944976806641 105.7197265625 49.14240646362305 107.0683670043945 56.03418731689453 107.0683670043945 C 62.92596817016602 107.0683670043945 69.60893249511719 105.7197265625 75.89744567871094 103.0599060058594 C 81.97396850585938 100.48974609375 87.43228912353516 96.80931091308594 92.12080383300781 92.12080383300781 C 96.80931091308594 87.43228912353516 100.48974609375 81.97396850585938 103.0599060058594 75.89744567871094 C 105.7197265625 69.60893249511719 107.0683670043945 62.92596817016602 107.0683670043945 56.03418731689453 C 107.0683670043945 49.14240646362305 105.7197265625 42.45944976806641 103.0599060058594 36.17090606689453 C 100.48974609375 30.09439086914062 96.80931091308594 24.63607025146484 92.12080383300781 19.94757080078125 C 87.43228912353516 15.25906372070312 81.97396850585938 11.57862854003906 75.89746856689453 9.008468627929688 C 69.60893249511719 6.348648071289062 62.92596817016602 5.000007629394531 56.03418731689453 5.000007629394531 M 56.03418731689453 7.62939453125e-06 C 86.98100280761719 7.62939453125e-06 112.0683670043945 25.08734893798828 112.0683670043945 56.03418731689453 C 112.0683670043945 86.98100280761719 86.98100280761719 112.0683670043945 56.03418731689453 112.0683670043945 C 25.08734893798828 112.0683670043945 7.62939453125e-06 86.98100280761719 7.62939453125e-06 56.03418731689453 C 7.62939453125e-06 25.08734893798828 25.08734893798828 7.62939453125e-06 56.03418731689453 7.62939453125e-06 Z" stroke="none" fill="#fff"/>
    </g>
    <g id="vegetales" transform="translate(979.776 188.803)">
      <g id="Grupo_1105335" data-name="Grupo 1105335" transform="translate(0.929 12.961)">
        <path id="Trazado_895254" data-name="Trazado 895254" d="M31.4,112.872a7.481,7.481,0,0,0-7.435-4.91,7.48,7.48,0,0,0-13.451,4.9,7.478,7.478,0,0,0-.318,11.711,7.477,7.477,0,0,0,9.922,8.326l9.37-3.41a7.477,7.477,0,0,0,2.248-12.756A7.44,7.44,0,0,0,31.4,112.872Z" transform="translate(-7.519 -104.969)" fill="#a2e62e"/>
        <path id="Trazado_895255" data-name="Trazado 895255" d="M61.42,135.085a7.44,7.44,0,0,0-2.221-3.171,7.477,7.477,0,0,0-7.771-8.767,7.429,7.429,0,0,0-.751-.855A15.614,15.614,0,0,1,38.85,145.279a7.481,7.481,0,0,0,8.73,2.8l9.37-3.41A7.478,7.478,0,0,0,61.42,135.085Z" transform="translate(-34.984 -120.155)" fill="#97d729"/>
      </g>
      <path id="Trazado_895256" data-name="Trazado 895256" d="M343.282,18.728h-3.739V9.38a1.87,1.87,0,0,1,3.739,0v9.348Z" transform="translate(-297.647 -6.575)" fill="#a2e62e"/>
      <path id="Trazado_895257" data-name="Trazado 895257" d="M261.644,65.193a6.511,6.511,0,0,0-13.022,0c-.035,6.1-5.629,4.709-7.234,12.123-1.183,5.467,4.534,10.128,10.128,10.128a10.128,10.128,0,0,0,10.128-10.128C261.644,74.669,261.644,67.356,261.644,65.193Z" transform="translate(-211.465 -51.433)" fill="#bd80e1"/>
      <path id="Trazado_895258" data-name="Trazado 895258" d="M261.646,137.946v-9.005a8.652,8.652,0,0,0-6.571,3.574,14.972,14.972,0,0,0-6.722-4.669c-1.142,3.864-5.565,3.644-6.962,10.1-1.183,5.467,4.534,10.128,10.128,10.128A10.128,10.128,0,0,0,261.646,137.946Z" transform="translate(-211.467 -112.063)" fill="#af66da"/>
      <g id="Grupo_1105336" data-name="Grupo 1105336" transform="translate(20.373 13.649)">
        <ellipse id="Elipse_11655" data-name="Elipse 11655" cx="11.218" cy="9.971" rx="11.218" ry="9.971" transform="translate(0 4.986)" fill="#fe646f"/>
        <path id="Trazado_895259" data-name="Trazado 895259" d="M184.587,175.673c.018.228.027.457.027.689,0,5.507-5.022,9.971-11.218,9.971a11.9,11.9,0,0,1-8.075-3.05c.4,5.185,5.256,9.282,11.191,9.282,6.2,0,11.218-4.464,11.218-9.971A9.394,9.394,0,0,0,184.587,175.673Z" transform="translate(-165.295 -167.637)" fill="#fd4755"/>
        <path id="Trazado_895260" data-name="Trazado 895260" d="M207.014,114.57l.1-2.993a1,1,0,0,0-1-1.03H204.44a1,1,0,0,0-1,1.03l.1,2.993a1.243,1.243,0,0,1-.973,1.257,11.752,11.752,0,0,0-4.433,1.987l4.029.487a1.87,1.87,0,0,1,.978.424l.933.783a1.87,1.87,0,0,0,2.4,0l.933-.783a1.87,1.87,0,0,1,.978-.424l4.029-.487a11.753,11.753,0,0,0-4.433-1.987A1.244,1.244,0,0,1,207.014,114.57Z" transform="translate(-194.061 -110.546)" fill="#a2e62e"/>
      </g>
      <g id="Grupo_1105337" data-name="Grupo 1105337" transform="translate(37.758 12.314)">
        <path id="Trazado_895261" data-name="Trazado 895261" d="M419.07,110.815s5.807,1.293,7.754-2.12a3.553,3.553,0,0,0-.245-3.9,3.552,3.552,0,0,0-6.151-3.509,3.553,3.553,0,0,0-3.478,1.771C415,106.475,419.07,110.815,419.07,110.815Z" transform="translate(-402.798 -99.733)" fill="#a2e62e"/>
        <path id="Trazado_895262" data-name="Trazado 895262" d="M431.876,115.019a3.554,3.554,0,0,0-.358-3.628,8.166,8.166,0,0,1-9.053,6.821,12.594,12.594,0,0,0,1.9,2.823s5.807,1.293,7.754-2.12A3.553,3.553,0,0,0,431.876,115.019Z" transform="translate(-408.096 -109.953)" fill="#97d729"/>
        <path id="Trazado_895263" data-name="Trazado 895263" d="M314.324,169.96l-7.993,19.219a4.236,4.236,0,0,0,7.3,4.166l12.478-16.66a4.937,4.937,0,0,0-1.505-7.248l-3.276-1.869A4.937,4.937,0,0,0,314.324,169.96Z" transform="translate(-306.006 -158.627)" fill="#fe9738"/>
        <path id="Trazado_895264" data-name="Trazado 895264" d="M325.442,183.522l-.941-.537a4.926,4.926,0,0,1-.685,4.653L311.338,204.3a4.236,4.236,0,0,1-4.377,1.58,4.235,4.235,0,0,0,7.509,1.551l12.478-16.66A4.937,4.937,0,0,0,325.442,183.522Z" transform="translate(-306.843 -172.713)" fill="#fe860a"/>
      </g>
      <path id="Trazado_895265" data-name="Trazado 895265" d="M67.594,303.593H8.763a1.246,1.246,0,0,1-1.246-1.246v-8.725a1.246,1.246,0,0,1,1.246-1.246h58.83a1.246,1.246,0,0,1,1.246,1.246v8.725A1.246,1.246,0,0,1,67.594,303.593Z" transform="translate(-6.588 -256.291)" fill="#e8ad8c"/>
      <path id="Trazado_895266" data-name="Trazado 895266" d="M67.594,424.813H8.763a1.246,1.246,0,0,1-1.246-1.246v-8.725A1.246,1.246,0,0,1,8.763,413.6h58.83a1.246,1.246,0,0,1,1.246,1.246v8.725A1.246,1.246,0,0,1,67.594,424.813Z" transform="translate(-6.588 -362.554)" fill="#e8ad8c"/>
      <path id="Trazado_895267" data-name="Trazado 895267" d="M474.934,303.593h-2.742V292.375h2.742a1.247,1.247,0,0,1,1.246,1.246v8.725A1.246,1.246,0,0,1,474.934,303.593Z" transform="translate(-413.928 -256.291)" fill="#e19974"/>
      <path id="Trazado_895268" data-name="Trazado 895268" d="M474.934,424.813h-2.742V413.6h2.742a1.246,1.246,0,0,1,1.246,1.246v8.725A1.247,1.247,0,0,1,474.934,424.813Z" transform="translate(-413.928 -362.554)" fill="#e19974"/>
      <path id="Trazado_895269" data-name="Trazado 895269" d="M23.68,383.29H81.015v3.739H23.68Z" transform="translate(-20.757 -335.988)" fill="#d77f4a"/>
      <g id="Grupo_1105338" data-name="Grupo 1105338" transform="translate(0.002 0.01)">
        <path id="Trazado_895270" data-name="Trazado 895270" d="M61.006,35.159H55.433l3.17-4.232a5.853,5.853,0,0,0,.277-6.623,5.523,5.523,0,0,0,3.709-2.568,4.474,4.474,0,0,0-.012-4.46,4.477,4.477,0,0,0-7.625-4.35,4.476,4.476,0,0,0-3.845,2.259V13.76a7.459,7.459,0,0,0-.2-1.73.925.925,0,1,0-1.8.43,5.613,5.613,0,0,1,.152,1.3v6.087c-.173.042-.345.09-.515.148a5.865,5.865,0,0,0-3.518,3.3l-1.6,3.844a10.631,10.631,0,0,0-4.339-6.962l0,0a12.516,12.516,0,0,0-2.956-1.6,6.638,6.638,0,0,0,1.758-4.806A5.6,5.6,0,0,1,45.3,8.414a.925.925,0,0,0,.109.035,5.553,5.553,0,0,1,1.714.918.925.925,0,1,0,1.144-1.455,7.45,7.45,0,0,0-1.7-1.006V2.8a2.795,2.795,0,1,0-5.59,0V6.836a7.5,7.5,0,0,0-4.741,6.918,4.964,4.964,0,0,1-1.894,4.177.32.32,0,0,1-.086-.228l.1-2.993a1.923,1.923,0,0,0-1.921-1.987H30.752A1.923,1.923,0,0,0,28.83,14.71l.1,2.993a.317.317,0,0,1-.247.322,12.945,12.945,0,0,0-3.54,1.347,8.375,8.375,0,0,0-7.335-4.357A8.486,8.486,0,0,0,13.84,12.4a8.4,8.4,0,0,0-9.495,3.456,8.487,8.487,0,0,0-1.36,4.554A8.493,8.493,0,0,0,.371,24.38a8.4,8.4,0,0,0,2.246,8.538,8.42,8.42,0,0,0,.05,2.241H2.175A2.174,2.174,0,0,0,0,37.331v8.725A2.173,2.173,0,0,0,2,48.218v1.907A2.173,2.173,0,0,0,0,52.288v8.725a2.174,2.174,0,0,0,2.172,2.172H49.223a.925.925,0,1,0,0-1.851H2.175a.321.321,0,0,1-.321-.321V52.288a.321.321,0,0,1,.321-.321H61.006a.321.321,0,0,1,.321.321v8.725a.321.321,0,0,1-.321.321H53.541a.925.925,0,0,0,0,1.851h7.465a2.174,2.174,0,0,0,2.172-2.172V52.288a2.173,2.173,0,0,0-1.994-2.163V48.218a2.173,2.173,0,0,0,1.994-2.163V37.331a2.174,2.174,0,0,0-2.172-2.172ZM42.822,2.8a.944.944,0,0,1,1.888,0V6.4a7.572,7.572,0,0,0-1.043-.073,7.415,7.415,0,0,0-.845.05V2.8Zm9.892,13.3a2.626,2.626,0,0,1,2.572-1.31.924.924,0,0,0,.868-.4,2.626,2.626,0,0,1,4.548,2.6.925.925,0,0,0,.1.951,2.625,2.625,0,0,1,.182,2.881c-.616,1.08-1.832,1.7-3.617,1.857a5.831,5.831,0,0,0-.547-.355l-.834-.476,2.012-3.526a.925.925,0,0,0-1.608-.917l-2.012,3.526-.835-.476a5.853,5.853,0,0,0-.584-.29c-.776-1.614-.857-2.978-.241-4.058ZM46.931,24a4,4,0,0,1,3.327-2.452l.027,0a4.012,4.012,0,0,1,2.337.51l3.277,1.87a4.011,4.011,0,0,1,1.222,5.889l-4,5.342H42.292Zm-5.048,4.6a8.574,8.574,0,0,1-3.2,6.554H24.5a8.32,8.32,0,0,1,.212-13.279l3.654.442a.943.943,0,0,1,.494.214l.933.783a2.791,2.791,0,0,0,3.594,0l.933-.783a.943.943,0,0,1,.494-.214l3.654-.442a8.583,8.583,0,0,1,3.414,6.726Zm-12.8-8.773a2.168,2.168,0,0,0,1.7-2.191l-.1-2.993a.072.072,0,0,1,.072-.074h1.677a.072.072,0,0,1,.072.074l-.1,2.993a2.169,2.169,0,0,0,1.7,2.192,11.192,11.192,0,0,1,1.673.508l-1.181.143a2.79,2.79,0,0,0-1.462.634L32.2,21.9a.942.942,0,0,1-1.214,0l-.933-.784a2.79,2.79,0,0,0-1.462-.634l-1.181-.143a11.14,11.14,0,0,1,1.673-.509ZM59.332,48.227v1.889H3.849V48.227Zm1.994-2.172a.321.321,0,0,1-.321.321H2.175a.321.321,0,0,1-.321-.321V37.331a.321.321,0,0,1,.321-.321H7.917a.925.925,0,0,0,0-1.851H4.546a6.442,6.442,0,0,1-.031-2.437.925.925,0,0,0-.317-.873,6.551,6.551,0,0,1,.278-10.261.925.925,0,0,0,.369-.791,6.555,6.555,0,0,1,11.787-4.29.929.929,0,0,0,.791.369A6.53,6.53,0,0,1,23.6,20.4a10.418,10.418,0,0,0-4.148,8.2,10.187,10.187,0,0,0,2.441,6.554H18.6l-.57-1.412V25.463a.925.925,0,1,0-1.851,0v3.7L14.909,26V19.881a.925.925,0,0,0-1.851,0v1.535L11.6,17.79a.925.925,0,0,0-1.716.692l2.759,6.838L11.09,23.851a.925.925,0,1,0-1.274,1.342l4.491,4.263L15.535,32.5l-3.6-3.406a.925.925,0,1,0-1.271,1.345l4.993,4.719H12.236a.925.925,0,1,0,0,1.851h48.77a.321.321,0,0,1,.321.321Z" transform="translate(-0.002 -0.01)"/>
        <circle id="Elipse_11656" data-name="Elipse 11656" cx="0.925" cy="0.925" r="0.925" transform="translate(57.586 38.888)"/>
        <circle id="Elipse_11657" data-name="Elipse 11657" cx="0.925" cy="0.925" r="0.925" transform="translate(57.586 42.627)"/>
        <circle id="Elipse_11658" data-name="Elipse 11658" cx="0.925" cy="0.925" r="0.925" transform="translate(3.741 38.888)"/>
        <circle id="Elipse_11659" data-name="Elipse 11659" cx="0.925" cy="0.925" r="0.925" transform="translate(3.741 42.627)"/>
        <circle id="Elipse_11660" data-name="Elipse 11660" cx="0.925" cy="0.925" r="0.925" transform="translate(57.586 53.845)"/>
        <circle id="Elipse_11661" data-name="Elipse 11661" cx="0.925" cy="0.925" r="0.925" transform="translate(57.586 57.584)"/>
        <circle id="Elipse_11662" data-name="Elipse 11662" cx="0.925" cy="0.925" r="0.925" transform="translate(3.741 53.845)"/>
        <circle id="Elipse_11663" data-name="Elipse 11663" cx="0.925" cy="0.925" r="0.925" transform="translate(3.741 57.584)"/>
      </g>
    </g>
  </g>
</svg>
