<svg xmlns="http://www.w3.org/2000/svg" width="94.574" height="94.574" viewBox="0 0 94.574 94.574">
  <g id="Grupo_1105332" data-name="Grupo 1105332" transform="translate(7169.638 12625.25)">
    <g id="Grupo_1103758" data-name="Grupo 1103758" transform="translate(-8124.971 -12790.25)">
      <g id="Trazado_874102" data-name="Trazado 874102" transform="translate(955.333 165)" fill="#2a7e11">
        <path d="M 47.287109375 92.07422637939453 C 41.23979568481445 92.07422637939453 35.37467956542969 90.89041137695312 29.85470962524414 88.55564880371094 C 24.52179527282715 86.30002593994141 19.7318229675293 83.07035064697266 15.61783790588379 78.95638275146484 C 11.50386619567871 74.84239196777344 8.274194717407227 70.05242156982422 6.018566608428955 64.71951293945312 C 3.683809280395508 59.19953918457031 2.499994993209839 53.33442306518555 2.499994993209839 47.287109375 C 2.499994993209839 41.23979568481445 3.683809280395508 35.37467956542969 6.018566608428955 29.85470962524414 C 8.274194717407227 24.52179527282715 11.50386619567871 19.7318229675293 15.61783790588379 15.61783790588379 C 19.7318229675293 11.50386619567871 24.52179527282715 8.274194717407227 29.85470962524414 6.018566608428955 C 35.37467956542969 3.683809280395508 41.23979568481445 2.499994993209839 47.287109375 2.499994993209839 C 53.33442306518555 2.499994993209839 59.19953918457031 3.683809280395508 64.71951293945312 6.018566608428955 C 70.05242156982422 8.274194717407227 74.84239196777344 11.50386619567871 78.95638275146484 15.61783790588379 C 83.07035064697266 19.7318229675293 86.30002593994141 24.52179527282715 88.55564880371094 29.85470962524414 C 90.89041137695312 35.37467956542969 92.07422637939453 41.23979568481445 92.07422637939453 47.287109375 C 92.07422637939453 53.33442306518555 90.89041137695312 59.19953918457031 88.55564880371094 64.71951293945312 C 86.30002593994141 70.05242156982422 83.07035064697266 74.84239196777344 78.95638275146484 78.95638275146484 C 74.84239196777344 83.07035064697266 70.05242156982422 86.30002593994141 64.71951293945312 88.55564880371094 C 59.19953918457031 90.89041137695312 53.33442306518555 92.07422637939453 47.287109375 92.07422637939453 Z" stroke="none"/>
        <path d="M 47.287109375 4.999992370605469 C 41.57617568969727 4.999992370605469 36.03874206542969 6.117362976074219 30.82859420776367 8.321075439453125 C 25.79367828369141 10.45066070556641 21.27079010009766 13.50041198730469 17.38561248779297 17.38561248779297 C 13.50041198730469 21.27079010009766 10.45066070556641 25.79367828369141 8.321075439453125 30.82859420776367 C 6.117362976074219 36.03874206542969 4.999992370605469 41.57617568969727 4.999992370605469 47.287109375 C 4.999992370605469 52.99804306030273 6.117362976074219 58.53547668457031 8.321075439453125 63.74562835693359 C 10.45066070556641 68.78054046630859 13.50041198730469 73.30342864990234 17.38561248779297 77.18861389160156 C 21.27079010009766 81.07379150390625 25.79366302490234 84.12354278564453 30.82859420776367 86.25312805175781 C 36.03874206542969 88.45684051513672 41.57617568969727 89.57421112060547 47.287109375 89.57421112060547 C 52.99804306030273 89.57421112060547 58.53547668457031 88.45684051513672 63.74562835693359 86.25312805175781 C 68.78054046630859 84.12354278564453 73.30342864990234 81.07379150390625 77.18861389160156 77.18861389160156 C 81.07379150390625 73.30342864990234 84.12354278564453 68.78054046630859 86.25312805175781 63.74562835693359 C 88.45684051513672 58.53547668457031 89.57421112060547 52.99804306030273 89.57421112060547 47.287109375 C 89.57421112060547 41.57617568969727 88.45684051513672 36.03874206542969 86.25312805175781 30.82859420776367 C 84.12354278564453 25.79366302490234 81.07379150390625 21.27079010009766 77.18861389160156 17.38561248779297 C 73.30342864990234 13.50041198730469 68.78054046630859 10.45066070556641 63.74562835693359 8.321075439453125 C 58.53547668457031 6.117362976074219 52.99804306030273 4.999992370605469 47.287109375 4.999992370605469 M 47.287109375 -7.62939453125e-06 C 73.40306091308594 -7.62939453125e-06 94.57421112060547 21.17115783691406 94.57421112060547 47.287109375 C 94.57421112060547 73.40306091308594 73.40306091308594 94.57421112060547 47.287109375 94.57421112060547 C 21.17115783691406 94.57421112060547 -7.62939453125e-06 73.40306091308594 -7.62939453125e-06 47.287109375 C -7.62939453125e-06 21.17115783691406 21.17115783691406 -7.62939453125e-06 47.287109375 -7.62939453125e-06 Z" stroke="none" fill="#fff"/>
      </g>
    </g>
    <g id="tractor" transform="translate(-7155.52 -12661.181)">
      <rect id="Rectángulo_402133" data-name="Rectángulo 402133" width="30.578" height="3.887" transform="translate(30.448 61.321)" fill="#fc5d44"/>
      <rect id="Rectángulo_402134" data-name="Rectángulo 402134" width="3.887" height="3.887" transform="translate(57.139 61.321)" fill="#d94c36"/>
      <rect id="Rectángulo_402135" data-name="Rectángulo 402135" width="28.532" height="15.548" transform="translate(2.721 80.756)" fill="#fc5d44"/>
      <rect id="Rectángulo_402136" data-name="Rectángulo 402136" width="30.946" height="15.548" transform="translate(31.253 80.756)" fill="#ffd237"/>
      <rect id="Rectángulo_402137" data-name="Rectángulo 402137" width="3.919" height="15.548" transform="translate(58.28 80.756)" fill="#ffb922"/>
      <path id="Trazado_893262" data-name="Trazado 893262" d="M8.042,357h63.31a.641.641,0,0,1,.542.707v2.474a.641.641,0,0,1-.542.707H8.042a.641.641,0,0,1-.542-.707V357.7A.641.641,0,0,1,8.042,357Z" transform="translate(-6.528 -260.693)" fill="#d94c36"/>
      <path id="Trazado_893263" data-name="Trazado 893263" d="M474.2,357h-3.887a.641.641,0,0,1,.542.707v2.474a.641.641,0,0,1-.542.707H474.2a.641.641,0,0,0,.542-.707V357.7A.641.641,0,0,0,474.2,357Z" transform="translate(-409.378 -260.693)" fill="#ba3d2b"/>
      <path id="Trazado_893264" data-name="Trazado 893264" d="M270.366,132.545H241.214L244.283,117h24.512Z" transform="translate(-209.961 -51.789)" fill="#bfe250"/>
      <path id="Trazado_893265" data-name="Trazado 893265" d="M427.969,117h-3.887l1.572,15.548h3.887Z" transform="translate(-369.135 -51.789)" fill="#90d861"/>
      <rect id="Rectángulo_402138" data-name="Rectángulo 402138" width="3.887" height="12.957" transform="translate(14.54 67.799)" fill="#d94c36"/>
      <circle id="Elipse_11642" data-name="Elipse 11642" cx="7.774" cy="7.774" r="7.774" transform="translate(6.608 92.417)" fill="#5e7680"/>
      <path id="Trazado_893266" data-name="Trazado 893266" d="M93.094,371.309a2.744,2.744,0,1,1,2.744-2.744A2.747,2.747,0,0,1,93.094,371.309Z" transform="translate(-78.644 -268.375)" fill="#fc5d44"/>
      <circle id="Elipse_11643" data-name="Elipse 11643" cx="10.365" cy="10.365" r="10.365" transform="translate(41.003 87.234)" fill="#5e7680"/>
      <path id="Trazado_893267" data-name="Trazado 893267" d="M372.59,346.08a3.658,3.658,0,1,1,3.658-3.658A3.663,3.663,0,0,1,372.59,346.08Z" transform="translate(-321.131 -244.822)" fill="#fc5d44"/>
      <rect id="Rectángulo_402139" data-name="Rectángulo 402139" width="3.887" height="17.88" transform="translate(2.721 78.424)" fill="#ffd237"/>
      <path id="Trazado_893268" data-name="Trazado 893268" d="M281.027,246.553l-2.711-2.786,6.393-6.219a1.943,1.943,0,0,1,1.355-.551h19.78v3.887h-18.99Z" transform="translate(-242.256 -156.241)" fill="#fc5d44"/>
      <rect id="Rectángulo_402140" data-name="Rectángulo 402140" width="3.798" height="3.887" transform="translate(59.79 80.756)" fill="#d94c36"/>
      <path id="Trazado_893269" data-name="Trazado 893269" d="M64.823,95.332H63.17V85.614h.418a.972.972,0,0,0,.972-.972V80.756a.972.972,0,0,0-.972-.972h-2.3l-1.375-13.6h1.117A.972.972,0,0,0,62,65.208V61.321a.972.972,0,0,0-.972-.972H30.448a.972.972,0,0,0-.972.972v3.887a.972.972,0,0,0,.972.972H33.14l-.066.333a.972.972,0,0,0,1.907.376l.14-.71H57.955l1.375,13.6h-26.9l1.732-8.775a.972.972,0,0,0-1.907-.376l-1.806,9.152H19.4V67.8a.972.972,0,0,0-.972-.972h-.957V63.685a3.74,3.74,0,0,1,1.093-2.654l1.864-1.875a.972.972,0,1,0-1.378-1.37L17.184,59.66a5.672,5.672,0,0,0-1.658,4.025v3.143H14.54a.972.972,0,0,0-.972.972V79.784H7.58v-1.36a.972.972,0,0,0-.972-.972H2.721a.972.972,0,0,0-.972.972v8.94a.972.972,0,0,0,1.943,0V79.4H5.636V95.332H3.693V91.639a.972.972,0,0,0-1.943,0v3.693H1.515A1.585,1.585,0,0,0,0,97.01v2.475a1.585,1.585,0,0,0,1.515,1.678H5.691a8.72,8.72,0,0,0,2.432,5.129.906.906,0,0,0,.158.158,8.724,8.724,0,0,0,12.2,0,.906.906,0,0,0,.158-.158,8.72,8.72,0,0,0,2.432-5.129H33.191a.972.972,0,1,0,0-1.943H23.072a8.675,8.675,0,0,0-.446-1.943h17.41c0,.108,0,.216,0,.324a11.377,11.377,0,0,0,.116,1.62H37.337a.972.972,0,1,0,0,1.943h3.269a11.355,11.355,0,0,0,2.673,4.371.966.966,0,0,0,.073.082.986.986,0,0,0,.082.073,11.316,11.316,0,0,0,15.868,0,1.019,1.019,0,0,0,.083-.073.956.956,0,0,0,.073-.083,11.355,11.355,0,0,0,2.673-4.371h2.692a1.585,1.585,0,0,0,1.515-1.678V97.01A1.585,1.585,0,0,0,64.823,95.332Zm-33.4-31.1h0V62.292H60.054v1.943H31.42Zm27.239,39.279-.11-.11a.972.972,0,1,0-1.374,1.374l.11.11a9.349,9.349,0,0,1-4.944,2.053v-.161a.972.972,0,1,0-1.943,0v.161a9.35,9.35,0,0,1-4.944-2.053l.11-.11a.972.972,0,0,0-1.374-1.374l-.11.11a9.35,9.35,0,0,1-2.053-4.944h.161a.972.972,0,1,0,0-1.944h-.161a9.35,9.35,0,0,1,2.053-4.944l.11.11a.972.972,0,0,0,1.374-1.374l-.11-.11A9.349,9.349,0,0,1,50.4,88.256v.161a.972.972,0,0,0,1.944,0v-.161a9.348,9.348,0,0,1,4.944,2.053l-.11.11a.972.972,0,0,0,1.374,1.374l.11-.11a9.35,9.35,0,0,1,2.053,4.944h-.161a.972.972,0,0,0,0,1.943h.161A9.353,9.353,0,0,1,58.659,103.515Zm3.958-21.788h0v1.943H44.6a.971.971,0,0,0-.678.275l-5.13,4.991-1.355-1.393L43.131,82a.967.967,0,0,1,.678-.275ZM15.511,68.771h1.943V79.784H15.511ZM13.423,93.457a.971.971,0,0,0,1.917,0,6.767,6.767,0,0,1,3.124,1.3.97.97,0,0,0,1.355,1.355,6.769,6.769,0,0,1,1.3,3.124.971.971,0,0,0,0,1.917,6.769,6.769,0,0,1-1.3,3.124.971.971,0,0,0-1.355,1.355,6.767,6.767,0,0,1-3.124,1.3.971.971,0,0,0-1.917,0,6.767,6.767,0,0,1-3.124-1.3.971.971,0,0,0-1.355-1.355,6.769,6.769,0,0,1-1.3-3.124.971.971,0,0,0,0-1.917,6.769,6.769,0,0,1,1.3-3.124A.971.971,0,0,0,10.3,94.753,6.767,6.767,0,0,1,13.423,93.457ZM1.943,97.275H6.138a8.675,8.675,0,0,0-.446,1.943H1.943Zm18.7-3.185a.907.907,0,0,0-.158-.158,8.725,8.725,0,0,0-12.2,0,.907.907,0,0,0-.158.158q-.286.293-.544.612V81.727h22.7v13.6H21.65A8.793,8.793,0,0,0,20.64,94.09Zm11.584,1.242v-13.6h8.4l-5.244,5.1a.972.972,0,0,0-.019,1.374l2.711,2.786a.972.972,0,0,0,1.374.019l5.544-5.393H61.227v6.391a11.4,11.4,0,0,0-1.768-2.34.979.979,0,0,0-.073-.083.953.953,0,0,0-.083-.073,11.316,11.316,0,0,0-15.868,0,.987.987,0,0,0-.082.073,1.006,1.006,0,0,0-.073.082,11.324,11.324,0,0,0-3.02,5.667Zm32.17,3.887H62.589a11.377,11.377,0,0,0,.116-1.62c0-.108,0-.216,0-.324h1.694Z"/>
      <path id="Trazado_893270" data-name="Trazado 893270" d="M173.507,256.5h-4.535a.972.972,0,0,0,0,1.944h4.535a.972.972,0,1,0,0-1.944Z" transform="translate(-146.233 -173.215)"/>
      <path id="Trazado_893271" data-name="Trazado 893271" d="M173.507,282.5h-4.535a.972.972,0,0,0,0,1.943h4.535a.972.972,0,1,0,0-1.943Z" transform="translate(-146.233 -195.846)"/>
      <path id="Trazado_893272" data-name="Trazado 893272" d="M173.507,308.5h-4.535a.972.972,0,0,0,0,1.943h4.535a.972.972,0,1,0,0-1.943Z" transform="translate(-146.233 -218.478)"/>
      <path id="Trazado_893273" data-name="Trazado 893273" d="M86.565,365.752a3.716,3.716,0,1,0-3.715-3.716A3.72,3.72,0,0,0,86.565,365.752Zm0-5.488a1.772,1.772,0,1,1-1.772,1.772A1.774,1.774,0,0,1,86.565,360.264Z" transform="translate(-72.115 -261.846)"/>
      <path id="Trazado_893274" data-name="Trazado 893274" d="M366.062,331.262a4.63,4.63,0,1,0,4.63,4.63A4.635,4.635,0,0,0,366.062,331.262Zm0,7.317a2.687,2.687,0,1,1,2.687-2.687A2.69,2.69,0,0,1,366.062,338.579Z" transform="translate(-314.602 -238.293)"/>
    </g>
  </g>
</svg>
