<svg xmlns="http://www.w3.org/2000/svg" width="91.215" height="91.215" viewBox="0 0 91.215 91.215">
  <g id="Grupo_1105333" data-name="Grupo 1105333" transform="translate(6815.45 12805.855)">
    <g id="Grupo_1103760" data-name="Grupo 1103760" transform="translate(-6815.45 -12805.855)">
      <g id="Trazado_874102" data-name="Trazado 874102" transform="translate(0 0)" fill="#8ab72c">
        <path d="M 45.60742568969727 88.71485137939453 C 39.7868537902832 88.71485137939453 34.14172744750977 87.57545471191406 28.8288402557373 85.32828521728516 C 23.6959400177002 83.15725708007812 19.0855827331543 80.04869842529297 15.12586879730225 76.08898162841797 C 11.16615390777588 72.12926483154297 8.057597160339355 67.51891326904297 5.886568546295166 62.38601303100586 C 3.639397144317627 57.07312393188477 2.499997138977051 51.42799758911133 2.499997138977051 45.60742568969727 C 2.499997138977051 39.7868537902832 3.639397144317627 34.14172744750977 5.886568546295166 28.8288402557373 C 8.057597160339355 23.6959400177002 11.16615390777588 19.0855827331543 15.12586879730225 15.12586879730225 C 19.0855827331543 11.16615390777588 23.6959400177002 8.057597160339355 28.8288402557373 5.886568546295166 C 34.14172744750977 3.639397144317627 39.7868537902832 2.499997138977051 45.60742568969727 2.499997138977051 C 51.42799758911133 2.499997138977051 57.07312393188477 3.639397144317627 62.38601303100586 5.886568546295166 C 67.51891326904297 8.057597160339355 72.12926483154297 11.16615390777588 76.08898162841797 15.12586879730225 C 80.04869842529297 19.0855827331543 83.15725708007812 23.6959400177002 85.32828521728516 28.8288402557373 C 87.57545471191406 34.14172744750977 88.71485137939453 39.7868537902832 88.71485137939453 45.60742568969727 C 88.71485137939453 51.42799758911133 87.57545471191406 57.07312393188477 85.32828521728516 62.38601303100586 C 83.15725708007812 67.51891326904297 80.04869842529297 72.12926483154297 76.08898162841797 76.08898162841797 C 72.12926483154297 80.04869842529297 67.51891326904297 83.15725708007812 62.38601303100586 85.32828521728516 C 57.07312393188477 87.57545471191406 51.42799758911133 88.71485137939453 45.60742568969727 88.71485137939453 Z" stroke="none"/>
        <path d="M 45.60742568969727 4.999992370605469 C 40.12326049804688 4.999992370605469 34.80579376220703 6.072959899902344 29.80272674560547 8.189079284667969 C 24.96781158447266 10.23407745361328 20.62457275390625 13.16271209716797 16.89363861083984 16.89363861083984 C 13.16271209716797 20.62457275390625 10.23407745361328 24.96781158447266 8.189079284667969 29.80272674560547 C 6.072959899902344 34.80579376220703 4.999992370605469 40.12326049804688 4.999992370605469 45.60742568969727 C 4.999992370605469 51.09159088134766 6.072959899902344 56.4090576171875 8.189079284667969 61.41212463378906 C 10.23406219482422 66.24703979492188 13.16271209716797 70.59027099609375 16.89363861083984 74.32121276855469 C 20.62455749511719 78.05213928222656 24.96781158447266 80.98077392578125 29.80270767211914 83.0257568359375 C 34.8057746887207 85.14187622070312 40.12326049804688 86.21484375 45.60742568969727 86.21484375 C 51.09159088134766 86.21484375 56.4090576171875 85.14187622070312 61.41212463378906 83.0257568359375 C 66.24703979492188 80.98077392578125 70.59027099609375 78.05213928222656 74.32121276855469 74.32121276855469 C 78.05213928222656 70.59027099609375 80.98077392578125 66.24703979492188 83.0257568359375 61.41212463378906 C 85.14187622070312 56.4090576171875 86.21484375 51.09159088134766 86.21484375 45.60742568969727 C 86.21484375 40.12326049804688 85.14187622070312 34.8057746887207 83.0257568359375 29.80270767211914 C 80.98077392578125 24.96781158447266 78.05213928222656 20.62455749511719 74.32121276855469 16.89363861083984 C 70.59027099609375 13.16271209716797 66.24703979492188 10.23406219482422 61.41212463378906 8.189079284667969 C 56.4090576171875 6.072959899902344 51.09159088134766 4.999992370605469 45.60742568969727 4.999992370605469 M 45.60742568969727 -7.62939453125e-06 C 70.79570770263672 -7.62939453125e-06 91.21484375 20.41914367675781 91.21484375 45.60742568969727 C 91.21484375 70.79570770263672 70.79570770263672 91.21484375 45.60742568969727 91.21484375 C 20.41914367675781 91.21484375 -7.62939453125e-06 70.79570770263672 -7.62939453125e-06 45.60742568969727 C -7.62939453125e-06 20.41914367675781 20.41914367675781 -7.62939453125e-06 45.60742568969727 -7.62939453125e-06 Z" stroke="none" fill="#fff"/>
      </g>
    </g>
    <g id="plantando" transform="translate(-6798.28 -12792.085)">
      <path id="Trazado_893234" data-name="Trazado 893234" d="M272.236,18.771c-2.824,1.317-13.153,3.345-14.47.52s6.876-9.431,9.7-10.748a5.643,5.643,0,1,1,4.77,10.228Zm0,0" transform="translate(-229.007 -7.178)" fill="#50e199"/>
      <path id="Trazado_893235" data-name="Trazado 893235" d="M274.389,23.251a5.594,5.594,0,0,1-2.15,1.756c-2.824,1.316-13.153,3.345-14.469.52a1.655,1.655,0,0,1-.138-.817c3.453.817,10.37-.669,12.6-1.708a5.641,5.641,0,0,0,2.729-7.5c-.077-.164-.16-.323-.251-.476a5.644,5.644,0,0,1,1.677,8.223Zm0,0" transform="translate(-229.01 -13.414)" fill="#3ad391"/>
      <path id="Trazado_893236" data-name="Trazado 893236" d="M184.513,187.712c1.066.5,4.966,1.263,5.463.2s-2.6-3.561-3.662-4.058a2.13,2.13,0,1,0-1.8,3.861Zm0,0" transform="translate(-162.923 -163.305)" fill="#50e199"/>
      <path id="Trazado_893237" data-name="Trazado 893237" d="M189.976,198.667c-.5,1.066-4.4.3-5.464-.2a2.128,2.128,0,0,1-1.08-2.717,2.18,2.18,0,0,0,.268.481,2.112,2.112,0,0,0,.812.662c.925.432,3.981,1.064,5.1.529C189.954,197.906,190.124,198.35,189.976,198.667Zm0,0" transform="translate(-162.922 -174.065)" fill="#3ad391"/>
      <path id="Trazado_893238" data-name="Trazado 893238" d="M48.318,382.2a15.926,15.926,0,0,0-3.565.4,19.849,19.849,0,0,0-25.466,3.55,10.487,10.487,0,0,0-11.6,4.9,1.242,1.242,0,0,0,1.076,1.864H61.476a1.243,1.243,0,0,0,1.118-1.786A15.867,15.867,0,0,0,48.318,382.2Zm0,0" transform="translate(-6.68 -337.407)" fill="#c87c5b"/>
      <path id="Trazado_893239" data-name="Trazado 893239" d="M61.477,392.922H61.3a15.872,15.872,0,0,0-16.084-6.443,1.229,1.229,0,0,1-.873-.152,19.848,19.848,0,0,0-24.59,3.293,1.241,1.241,0,0,1-1.119.368A10.487,10.487,0,0,0,9.3,392.922H8.761a1.242,1.242,0,0,1-1.076-1.864,10.485,10.485,0,0,1,11.6-4.9,19.847,19.847,0,0,1,25.466-3.55,15.877,15.877,0,0,1,17.841,8.531,1.243,1.243,0,0,1-1.118,1.786Zm0,0" transform="translate(-6.681 -337.407)" fill="#a46243"/>
      <path id="Trazado_893240" data-name="Trazado 893240" d="M162.2,254.563v-1.354a2.866,2.866,0,0,1,2.866-2.866h6.278v4.219Zm0,0" transform="translate(-144.178 -222.591)" fill="#eea97b"/>
      <path id="Trazado_893241" data-name="Trazado 893241" d="M276.644,254.563v-1.354a2.866,2.866,0,0,0-2.866-2.866H267.5v4.219Zm0,0" transform="translate(-237.785 -222.591)" fill="#f4bb91"/>
      <path id="Trazado_893242" data-name="Trazado 893242" d="M245.51,67.458h-3V30.647a1.5,1.5,0,1,1,3,0Zm0,0" transform="translate(-215.573 -25.966)" fill="#a46243"/>
      <path id="Trazado_893243" data-name="Trazado 893243" d="M52.465,283.883H36.036v9.676H52.421Zm0,0" transform="translate(-32.033 -252.404)" fill="#eea97b"/>
      <path id="Trazado_893244" data-name="Trazado 893244" d="M161.487,280.674a2.183,2.183,0,0,1-.73,4.24h-.005a2.183,2.183,0,0,1-.774,4.225h-.006a2.183,2.183,0,0,1,1.408,2.1,2.213,2.213,0,0,1-2.228,2.121H153.9a5.382,5.382,0,0,1-5.381-5.381V279.51a3.187,3.187,0,0,1,3.187-3.186h9.523a2.183,2.183,0,0,1,.263,4.35Zm0,0" transform="translate(-132.018 -245.685)" fill="#f4bb91"/>
      <path id="Trazado_893245" data-name="Trazado 893245" d="M328.078,283.883h16.429v9.676H328.121Zm0,0" transform="translate(-291.635 -252.404)" fill="#f4bb91"/>
      <path id="Trazado_893246" data-name="Trazado 893246" d="M231.347,280.674a2.183,2.183,0,0,0,.73,4.24h.005a2.183,2.183,0,0,0,.775,4.225h.005a2.183,2.183,0,0,0-1.408,2.1,2.212,2.212,0,0,0,2.228,2.121h5.256a5.381,5.381,0,0,0,5.381-5.381V279.51a3.186,3.186,0,0,0-3.186-3.186h-9.523a2.183,2.183,0,0,0-.262,4.35Zm0,0" transform="translate(-203.941 -245.685)" fill="#fedbbc"/>
      <path id="Trazado_893247" data-name="Trazado 893247" d="M132.465,64.527c2.087.973,9.72,2.472,10.694.384s-5.082-6.97-7.169-7.944a4.17,4.17,0,0,0-3.526,7.559Zm0,0" transform="translate(-115.61 -50.347)" fill="#50e199"/>
      <path id="Trazado_893248" data-name="Trazado 893248" d="M143.158,68.761c-.973,2.087-8.607.588-10.694-.384a4.17,4.17,0,0,1-.179-7.47c-.031.059-.061.118-.089.179a4.171,4.171,0,0,0,2.017,5.542c1.589.741,6.387,1.785,9.02,1.323A1.328,1.328,0,0,1,143.158,68.761Zm0,0" transform="translate(-115.609 -54.196)" fill="#3ad391"/>
      <path id="Trazado_893249" data-name="Trazado 893249" d="M267.882,159.373c-1.067.5-4.966,1.263-5.463.2s2.6-3.561,3.662-4.058a2.131,2.131,0,1,1,1.8,3.862Zm0,0" transform="translate(-233.221 -138.115)" fill="#50e199"/>
      <path id="Trazado_893250" data-name="Trazado 893250" d="M268.693,169.469a2.1,2.1,0,0,1-.811.662c-1.066.5-4.966,1.263-5.464.2-.148-.318.022-.761.363-1.242,1.12.535,4.176-.1,5.1-.528a2.113,2.113,0,0,0,.811-.663,2.155,2.155,0,0,0,.268-.481A2.129,2.129,0,0,1,268.693,169.469Zm0,0" transform="translate(-233.221 -148.873)" fill="#3ad391"/>
      <path id="Trazado_893251" data-name="Trazado 893251" d="M56.662,53.865a16.668,16.668,0,0,0-3.821-5.087.833.833,0,1,0-1.119,1.235,15.016,15.016,0,0,1,3.441,4.581.4.4,0,0,1-.021.4.4.4,0,0,1-.348.193H2.079a.4.4,0,0,1-.356-.207.392.392,0,0,1,0-.405A9.654,9.654,0,0,1,12.4,50.055a.835.835,0,0,0,.824-.254,19.1,19.1,0,0,1,3.723-3.223,6.207,6.207,0,0,0,4.927,2.433h5.256a3.08,3.08,0,0,0,1.3-.291,3.052,3.052,0,0,0,1.3.291H35a6.213,6.213,0,0,0,5.2-2.816c.479-.046.963-.071,1.443-.071a15.05,15.05,0,0,1,7.1,1.783.833.833,0,0,0,.789-1.468,16.729,16.729,0,0,0-7.892-1.981c-.22,0-.439.006-.659.015A6.2,6.2,0,0,0,41.21,42.8v-.309H52.871a.833.833,0,0,0,0-1.666H41.21v-6.5a4,4,0,0,0-.3-1.514H52.871a.833.833,0,0,0,0-1.666H39.69v-.026a3.7,3.7,0,0,0-3.7-3.7H30.769V23.325h.057a9.636,9.636,0,0,0,.975-.054,11.82,11.82,0,0,0,3.212-.758,2.963,2.963,0,0,0-2.5-5.371,9.49,9.49,0,0,0-1.738,1.17V14.681a12.531,12.531,0,0,0,2.287.187,34.268,34.268,0,0,0,8.1-1.188.833.833,0,1,0-.44-1.607c-3.248.889-7.672,1.465-9.949.906V9.314A29.78,29.78,0,0,1,38.811,2.62,4.81,4.81,0,0,1,43.888,10.7a.833.833,0,1,0,1.054,1.291A6.476,6.476,0,0,0,38.107,1.11a30.834,30.834,0,0,0-7.338,5.676v-1.6a2.332,2.332,0,1,0-4.664,0v5.307q-.2-.2-.414-.412a22.629,22.629,0,0,0-4.96-3.711A5,5,0,1,0,16.5,15.434a22.63,22.63,0,0,0,6.031,1.414,17.943,17.943,0,0,0,1.819.1,9.318,9.318,0,0,0,1.752-.147V22a11.453,11.453,0,0,0-2.363-1.707,2.963,2.963,0,1,0-2.5,5.371,12.1,12.1,0,0,0,4.142.813,6.079,6.079,0,0,0,.726-.042v.988H20.882a3.7,3.7,0,0,0-3.7,3.7v.027H4a.833.833,0,0,0,0,1.666H15.961a4,4,0,0,0-.3,1.514v6.5h-3a.833.833,0,1,0,0,1.666h3V42.8a6.173,6.173,0,0,0,.457,2.334,20.737,20.737,0,0,0-3.8,3.2,11.32,11.32,0,0,0-12.035,5.4,2.075,2.075,0,0,0,1.8,3.116H54.8a2.076,2.076,0,0,0,1.867-2.983ZM17.33,42.8V34.326a2.356,2.356,0,0,1,2.354-2.354h5.288a3.008,3.008,0,0,0-.009,2.684H23.146a.833.833,0,1,0,0,1.666H25.38a3,3,0,0,0,.06,2.574H22.23a.833.833,0,1,0,0,1.666h3.926a2.98,2.98,0,0,0,.063,2.558H21.582a.833.833,0,1,0,0,1.666h5.353a3.009,3.009,0,0,0-.255,1.293,2.932,2.932,0,0,0,.327,1.266H21.878A4.553,4.553,0,0,1,17.33,42.8ZM35,47.345H29.74a1.383,1.383,0,0,1-1.4-1.312,1.353,1.353,0,0,1,.749-1.247h6.2a.833.833,0,0,0,0-1.666H28.915a1.349,1.349,0,0,1-.6-2.558h6.329a.833.833,0,0,0,0-1.666H28.135a1.349,1.349,0,0,1-.568-2.574h6.16a.833.833,0,1,0,0-1.666H27.469a1.349,1.349,0,0,1,.2-2.684h9.523a2.356,2.356,0,0,1,2.353,2.353V42.8A4.554,4.554,0,0,1,35,47.345Zm1-18.259a2.035,2.035,0,0,1,1.887,1.28,4.043,4.043,0,0,0-.688-.06H30.769v-1.22Zm-4.76-8.974a10.109,10.109,0,0,1,1.98-1.461A1.3,1.3,0,0,1,34.308,21a10.132,10.132,0,0,1-2.391.578,5,5,0,0,1-1.9-.007,5.013,5.013,0,0,1,1.218-1.461ZM22.7,15.191a20.956,20.956,0,0,1-5.5-1.267,3.337,3.337,0,1,1,2.82-6.048,20.941,20.941,0,0,1,4.5,3.4c1.953,1.894,2.423,3.095,2.262,3.439S25.41,15.469,22.7,15.191Zm5.6.226a3.022,3.022,0,0,0-.532-2.882V5.181a.666.666,0,1,1,1.332,0V19.94c-.748.932-.966,1.712-.66,2.367a1.48,1.48,0,0,0,.66.683v7.317H27.771V16.1a1.973,1.973,0,0,0,.532-.683Zm-6.362,8.734a1.3,1.3,0,1,1,1.1-2.351A10.158,10.158,0,0,1,26.1,24.485v.275a9.841,9.841,0,0,1-4.163-.609Zm-1.06,4.935H26.1v1.22H19.683a4.043,4.043,0,0,0-.688.06,2.035,2.035,0,0,1,1.887-1.28Zm0,0" transform="translate(0.001 -0.5)"/>
      <path id="Trazado_893252" data-name="Trazado 893252" d="M384.12,458.848h-.006a.833.833,0,0,0-.006,1.666h.021a.833.833,0,0,0,.006-1.666Zm0,0" transform="translate(-340.706 -407.934)"/>
      <path id="Trazado_893253" data-name="Trazado 893253" d="M365.561,449.9h-.006a.833.833,0,0,0-.006,1.666h.021a.833.833,0,0,0,.006-1.666Zm0,0" transform="translate(-324.208 -399.982)"/>
      <path id="Trazado_893254" data-name="Trazado 893254" d="M157.288,449.9h-.006a.833.833,0,0,0-.006,1.666h.021a.833.833,0,0,0,.006-1.666Zm0,0" transform="translate(-139.07 -399.982)"/>
      <path id="Trazado_893255" data-name="Trazado 893255" d="M33.92,365.158a.833.833,0,0,0,0-1.666H29.368a.833.833,0,0,0,0,1.666Zm0,0" transform="translate(-25.365 -323.17)"/>
    </g>
  </g>
</svg>
