<svg xmlns="http://www.w3.org/2000/svg" width="16.378" height="14.562" viewBox="0 0 16.378 14.562">
  <path id="leaf-solid" d="M15.586.253a.442.442,0,0,0-.8-.034,4.877,4.877,0,0,1-4.263,2.488H8.243a5.461,5.461,0,0,0-5.46,5.46,5.623,5.623,0,0,0,.043.583,13.605,13.605,0,0,1,8.147-2.4.455.455,0,0,1,0,.91C3.824,7.257.793,11.639.121,13.286a.911.911,0,0,0,1.686.691A7.482,7.482,0,0,1,3.852,11.4a5.448,5.448,0,0,0,4.974,2.2c4.465-.324,7.607-4.328,7.607-9.231A10.341,10.341,0,0,0,15.586.253Z" transform="translate(-0.055 0.024)" fill="#65802c"/>
</svg>
