<svg xmlns="http://www.w3.org/2000/svg" width="190" height="85.881" viewBox="0 0 190 85.881">
  <g id="Grupo_1105996" data-name="Grupo 1105996" transform="translate(-1230.051 -2136)">
    <rect id="Rectángulo_402920" data-name="Rectángulo 402920" width="190" height="62" rx="15" transform="translate(1230.051 2159.881)" fill="#a8d549"/>
    <g id="Icons" transform="translate(1282.051 2136)">
      <g id="Grupo_1105510" data-name="Grupo 1105510" transform="translate(0)">
        <path id="Trazado_895327" data-name="Trazado 895327" d="M159.062,73.022c2.3.76,2.563,1.886,2.958,3.588a.916.916,0,0,0,1.784,0c.656-2.828,1.621-3.147,2.958-3.588a.917.917,0,0,0,0-1.739c-1.284-.423-2.287-.7-2.958-3.588a.917.917,0,0,0-1.784,0c-.657,2.828-1.572,3.13-2.958,3.589A.916.916,0,0,0,159.062,73.022Z" transform="translate(-104.487 -45.056)"/>
        <path id="Trazado_895328" data-name="Trazado 895328" d="M73.736,50.966h4.173V86.115H73.736Z" transform="translate(-48.952 -34.55)" fill="#00bf68"/>
        <path id="Trazado_895329" data-name="Trazado 895329" d="M73.736,50.966h4.173v2.407H73.736Z" transform="translate(-48.952 -34.55)" fill="#139c6e"/>
        <path id="Trazado_895330" data-name="Trazado 895330" d="M73.736,119.588h4.173v2.407H73.736Z" transform="translate(-48.952 -79.544)" fill="#139c6e"/>
        <g id="Grupo_1105509" data-name="Grupo 1105509" transform="translate(0.863 0.861)">
          <path id="Trazado_895331" data-name="Trazado 895331" d="M79.786,18.811v2.534H90.013A13.019,13.019,0,0,0,103.032,8.326,2.533,2.533,0,0,0,100.5,5.792H92.8A13.019,13.019,0,0,0,79.786,18.811Z" transform="translate(-53.781 -5.792)" fill="#00bf68"/>
          <path id="Trazado_895332" data-name="Trazado 895332" d="M35.519,18.811v2.534H25.292A13.019,13.019,0,0,1,12.273,8.326a2.533,2.533,0,0,1,2.534-2.534H22.5A13.019,13.019,0,0,1,35.519,18.811Z" transform="translate(-9.515 -5.792)" fill="#00bf68"/>
          <path id="Trazado_895333" data-name="Trazado 895333" d="M79.786,87.438v2.534H90.013a13.019,13.019,0,0,0,13.019-13.019,2.533,2.533,0,0,0-2.534-2.534H92.8A13.019,13.019,0,0,0,79.786,87.438Z" transform="translate(-53.781 -50.789)" fill="#00bf68"/>
          <path id="Trazado_895334" data-name="Trazado 895334" d="M35.519,87.438v2.534H25.292A13.019,13.019,0,0,1,12.273,76.953a2.533,2.533,0,0,1,2.534-2.534H22.5A13.019,13.019,0,0,1,35.519,87.438Z" transform="translate(-9.515 -50.789)" fill="#00bf68"/>
          <path id="Trazado_895335" data-name="Trazado 895335" d="M4.262,153.049H89.475v9.5H4.262Z" transform="translate(-4.262 -102.345)" fill="#00bf68"/>
        </g>
        <path id="Trazado_895336" data-name="Trazado 895336" d="M183.348,153.049v7.813a18.427,18.427,0,0,1-1.057,1.684H149.715l.331-1.233a19.067,19.067,0,0,1-2.613-8.264Z" transform="translate(-97.273 -101.484)" fill="#139c6e"/>
        <path id="Trazado_895337" data-name="Trazado 895337" d="M4.262,180.629H89.475v24.819H4.262Z" transform="translate(-3.399 -119.567)" fill="#f0c020"/>
        <path id="Trazado_895338" data-name="Trazado 895338" d="M185.288,180.629a19.209,19.209,0,0,1-25.508,5.506l-3.443.919a3.444,3.444,0,0,1-4.215-4.218l.589-2.207Z" transform="translate(-100.269 -119.567)" fill="#e8a61e"/>
        <path id="Trazado_895339" data-name="Trazado 895339" d="M170.163,99.915a16.788,16.788,0,0,0-13.043,26.15l-1.2,4.46a1.033,1.033,0,0,0,1.265,1.265l4.46-1.2a16.786,16.786,0,1,0,8.513-30.68Z" transform="translate(-101.744 -66.63)" fill="#efefef"/>
        <ellipse id="Elipse_11664" data-name="Elipse 11664" cx="1.876" cy="1.876" rx="1.876" ry="1.876" transform="translate(74.448 51.656) rotate(-67.486)" fill="#72c2e9"/>
        <ellipse id="Elipse_11665" data-name="Elipse 11665" cx="2.222" cy="2.222" rx="2.222" ry="2.222" transform="translate(59.185 47.926) rotate(-67.486)" fill="#13bf6d"/>
        <path id="Trazado_895340" data-name="Trazado 895340" d="M206.753,126.232l1.373-1.373a2.241,2.241,0,1,0-3.169-3.169l-1.373,1.373a2.241,2.241,0,0,0,3.169,3.169Z" transform="translate(-133.66 -80.492)" fill="#fc5d3d"/>
        <path id="Trazado_895341" data-name="Trazado 895341" d="M197.383,171.169h1.942a2.241,2.241,0,0,0,0-4.481h-1.942a2.241,2.241,0,0,0,0,4.481Z" transform="translate(-128.556 -110.426)" fill="#fc5d3d"/>
        <path id="Trazado_895342" data-name="Trazado 895342" d="M170.11,78.992a4.525,4.525,0,0,0-1.353,1.525A4.779,4.779,0,0,0,167.321,79a4.531,4.531,0,0,0,1.422-1.6,4.692,4.692,0,0,0,1.367,1.587Z" transform="translate(-110.313 -51.886)" fill="#ffc000"/>
        <path id="Trazado_895343" data-name="Trazado 895343" d="M95.013,23.68H88.272a.861.861,0,0,1,0-1.722h6.742a8.685,8.685,0,0,0,7.371-4.07.861.861,0,1,1,1.454.921A10.4,10.4,0,0,1,95.013,23.68Zm9.207-7.663A.86.86,0,0,1,103.551,15a8.579,8.579,0,0,0,.138-.928.861.861,0,1,1,1.714.161,10.426,10.426,0,0,1-.167,1.114.861.861,0,0,1-1.017.669Z" transform="translate(-57.918 -9.849)" fill="#76ffbb"/>
        <path id="Trazado_895344" data-name="Trazado 895344" d="M95.013,92.307H88.271a.861.861,0,1,1,0-1.722h6.742a8.683,8.683,0,0,0,7.37-4.07.861.861,0,1,1,1.454.921,10.4,10.4,0,0,1-8.824,4.87Zm9.206-7.663a.86.86,0,0,1-.669-1.017,8.577,8.577,0,0,0,.138-.928.861.861,0,1,1,1.714.161,10.426,10.426,0,0,1-.167,1.114.861.861,0,0,1-1.017.669Z" transform="translate(-57.918 -54.846)" fill="#76ffbb"/>
        <path id="Trazado_895345" data-name="Trazado 895345" d="M37.032,92.308H36a.861.861,0,0,1,0-1.722h1.033a.861.861,0,0,1,0,1.722Zm-4.476,0H30.291A10.39,10.39,0,0,1,19.9,82.862a.861.861,0,1,1,1.714-.162,8.782,8.782,0,0,0,8.676,7.886h2.265a.861.861,0,0,1,0,1.722Z" transform="translate(-13.651 -54.846)" fill="#76ffbb"/>
        <path id="Trazado_895346" data-name="Trazado 895346" d="M37.032,23.68H36a.861.861,0,0,1,0-1.722h1.033a.861.861,0,0,1,0,1.722Zm-4.476,0H30.291A10.39,10.39,0,0,1,19.9,14.234a.861.861,0,1,1,1.714-.162,8.782,8.782,0,0,0,8.676,7.887h2.265a.861.861,0,0,1,0,1.722Z" transform="translate(-13.651 -9.849)" fill="#76ffbb"/>
        <path id="Trazado_895347" data-name="Trazado 895347" d="M17.557,33.357a.859.859,0,0,0,.234-1.195l0,0a.881.881,0,0,0-1.191-.227.86.86,0,0,0-.234,1.195l0,0A.86.86,0,0,0,17.557,33.357Z" transform="translate(-11.237 -21.977)"/>
        <path id="Trazado_895348" data-name="Trazado 895348" d="M2.623,152.271h9.366a.861.861,0,1,0,0-1.722H2.623a.861.861,0,1,0,0,1.722Z" transform="translate(-1.76 -99.844)"/>
        <ellipse id="Elipse_11666" data-name="Elipse 11666" cx="0.861" cy="0.861" rx="0.861" ry="0.861" transform="translate(12.811 50.705)"/>
        <path id="Trazado_895349" data-name="Trazado 895349" d="M22.428,235.579h-1.67a.861.861,0,1,0,0,1.722h1.67a.861.861,0,1,0,0-1.722Z" transform="translate(-13.651 -155.596)"/>
        <path id="Trazado_895350" data-name="Trazado 895350" d="M172.086,238.9h-1.671a.861.861,0,1,0,0,1.722h1.671a.861.861,0,1,0,0-1.722Z" transform="translate(-111.778 -157.773)"/>
        <path id="Trazado_895351" data-name="Trazado 895351" d="M201.005,215.92h-1.67a.861.861,0,0,0,0,1.722h1.67a.861.861,0,0,0,0-1.722Z" transform="translate(-130.74 -142.706)"/>
        <path id="Trazado_895352" data-name="Trazado 895352" d="M232.309,227.1h-1.671a.861.861,0,1,0,0,1.722h1.671a.861.861,0,1,0,0-1.722Z" transform="translate(-151.265 -150.04)"/>
        <path id="Trazado_895353" data-name="Trazado 895353" d="M88.673,54.254v0c.014-.293.021-.592.021-.912A17.586,17.586,0,0,0,84.7,42.158a.886.886,0,0,0-1.212-.121.859.859,0,0,0-.121,1.212,15.948,15.948,0,0,1,3.6,10.089c0,.275-.007.554-.021.83,0,0,0,.007,0,.01A15.927,15.927,0,0,1,62.145,66.542a.863.863,0,0,0-.7-.118l-4.46,1.2a.171.171,0,0,1-.211-.21l1.2-4.46a.86.86,0,0,0-.118-.7,15.929,15.929,0,0,1,20.48-23.074.862.862,0,0,0,.788-1.532A17.654,17.654,0,0,0,53.4,53.263c0,.245,0,.489.013.733H31.57V44.2h7.281a13.9,13.9,0,0,0,13.88-13.88,3.4,3.4,0,0,0-3.394-3.394H41.644A13.839,13.839,0,0,0,31.57,31.268v-10.7h7.281a13.9,13.9,0,0,0,13.88-13.88,3.4,3.4,0,0,0-3.394-3.394H41.644A13.9,13.9,0,0,0,28.624,12.36,13.9,13.9,0,0,0,15.605,3.291H7.911A3.4,3.4,0,0,0,4.517,6.682a13.857,13.857,0,0,0,.737,4.48.862.862,0,0,0,1.632-.554,12.1,12.1,0,0,1-.647-3.92h0A1.675,1.675,0,0,1,7.911,5.013h7.694A12.172,12.172,0,0,1,27.763,17.171v1.673H18.406a12.151,12.151,0,0,1-7.971-2.968.883.883,0,0,0-1.212.086.861.861,0,0,0,.086,1.215A13.865,13.865,0,0,0,18.4,20.566h7.282v10.7a13.838,13.838,0,0,0-10.074-4.346H7.911a3.4,3.4,0,0,0-3.394,3.394A13.9,13.9,0,0,0,18.4,44.2h7.282V54H18.872a.861.861,0,0,0,0,1.722H53.564A17.517,17.517,0,0,0,56.2,62.876l-.165.616H2.62a.861.861,0,0,0,0,1.722H27.763v5.049H7.717a5.967,5.967,0,0,0-5.96,5.96.861.861,0,0,0,1.722,0,4.243,4.243,0,0,1,4.238-4.238h6.865a4.276,4.276,0,0,0-.869,2.582v6.65a.861.861,0,1,0,1.722,0v-6.65a2.585,2.585,0,0,1,2.582-2.582h9.746V76.5H25.21a5.985,5.985,0,0,0-4.261,1.765L18.6,80.617a.861.861,0,0,0,1.217,1.217l2.347-2.347a4.275,4.275,0,0,1,3.043-1.261h2.554v5.908a.861.861,0,0,0,1.722,0V82.086h2.554a4.276,4.276,0,0,1,3.043,1.261l2.347,2.347a.861.861,0,1,0,1.217-1.217L36.3,82.13a5.985,5.985,0,0,0-4.261-1.765H29.485v-8.38h9.746a2.585,2.585,0,0,1,2.582,2.582V77.6a.861.861,0,1,0,1.722,0V74.567a4.276,4.276,0,0,0-.869-2.582h6.865a4.243,4.243,0,0,1,4.238,4.238.861.861,0,1,0,1.722,0,5.967,5.967,0,0,0-5.96-5.96H29.485V65.214H55.574l-.469,1.749a1.894,1.894,0,0,0,2.32,2.319l4.086-1.095A17.65,17.65,0,0,0,84.1,65.214h3.732a.861.861,0,1,0,0-1.722H85.485a17.527,17.527,0,0,0,3.186-9.23.082.082,0,0,0,0-.009ZM41.644,28.643h7.694a1.675,1.675,0,0,1,1.673,1.673A12.172,12.172,0,0,1,38.852,42.474H29.485V40.8A12.172,12.172,0,0,1,41.644,28.643Zm0-23.63h7.694A1.675,1.675,0,0,1,51.01,6.685,12.172,12.172,0,0,1,38.852,18.844H29.485V17.171A12.172,12.172,0,0,1,41.644,5.013ZM27.4,20.565h2.448V33.5a13.842,13.842,0,0,0-1.224,2.494A13.867,13.867,0,0,0,27.4,33.5ZM6.239,30.316a1.675,1.675,0,0,1,1.673-1.673h7.694A12.172,12.172,0,0,1,27.764,40.8v1.673H18.4A12.172,12.172,0,0,1,6.239,30.316ZM27.4,44.2h2.448V54H27.4Z" transform="translate(-1.757 -3.291)"/>
        <path id="Trazado_895354" data-name="Trazado 895354" d="M232.662,109.636a.857.857,0,0,0-.127-1.212.883.883,0,0,0-1.209.131.859.859,0,0,0,1.336,1.081Z" transform="translate(-152.154 -72.105)"/>
        <path id="Trazado_895355" data-name="Trazado 895355" d="M177.871,156.891a.514.514,0,0,1-.513.514.861.861,0,0,0,0,1.722,2.238,2.238,0,0,0,2.235-2.236.514.514,0,0,1,.514-.513.861.861,0,0,0,0-1.722A2.238,2.238,0,0,0,177.871,156.891Z" transform="translate(-116.33 -102.537)"/>
        <path id="Trazado_895356" data-name="Trazado 895356" d="M219.792,147.873a2.736,2.736,0,1,0-2.736-2.736A2.739,2.739,0,0,0,219.792,147.873Zm0-3.75a1.014,1.014,0,1,1-1.014,1.014A1.015,1.015,0,0,1,219.792,144.122Z" transform="translate(-142.923 -94.502)"/>
        <path id="Trazado_895357" data-name="Trazado 895357" d="M176.134,130.014a3.083,3.083,0,1,0,3.083,3.083A3.086,3.086,0,0,0,176.134,130.014Zm0,4.444A1.361,1.361,0,1,1,177.5,133.1,1.362,1.362,0,0,1,176.134,134.458Z" transform="translate(-114.071 -86.38)"/>
        <path id="Trazado_895358" data-name="Trazado 895358" d="M207.1,119.446a3.1,3.1,0,0,0-4.386,0l-1.373,1.373a3.1,3.1,0,1,0,4.386,4.386l1.373-1.373A3.1,3.1,0,0,0,207.1,119.446Zm-1.217,3.168-1.373,1.373a1.38,1.38,0,1,1-1.952-1.951l1.373-1.373a1.38,1.38,0,0,1,1.951,1.951Z" transform="translate(-132.024 -78.856)"/>
        <path id="Trazado_895359" data-name="Trazado 895359" d="M195.745,170.391h1.942a3.1,3.1,0,1,0,0-6.2h-1.942a3.1,3.1,0,1,0,0,6.2Zm0-4.481h1.942a1.38,1.38,0,1,1,0,2.759h-1.942a1.38,1.38,0,1,1,0-2.759Z" transform="translate(-126.916 -108.787)"/>
        <path id="Trazado_895360" data-name="Trazado 895360" d="M199.909,145.348v-.9a.861.861,0,0,0-1.722,0v.9a.861.861,0,0,0,1.722,0Z" transform="translate(-130.551 -95.282)"/>
        <path id="Trazado_895361" data-name="Trazado 895361" d="M209.307,153.747v-.9a.861.861,0,0,0-1.722,0v.9a.861.861,0,1,0,1.722,0Z" transform="translate(-136.713 -100.789)"/>
        <path id="Trazado_895362" data-name="Trazado 895362" d="M191.8,123.4v-.9a.861.861,0,1,0-1.722,0v.9a.861.861,0,1,0,1.722,0Z" transform="translate(-125.237 -80.893)"/>
      </g>
    </g>
  </g>
</svg>
