<svg xmlns="http://www.w3.org/2000/svg" xmlns:xlink="http://www.w3.org/1999/xlink" width="94.049" height="94.049" viewBox="0 0 94.049 94.049">
  <defs>
    <filter id="plant-growing-soil-with-sun-shining-it" x="0" y="0" width="94.049" height="94.049" filterUnits="userSpaceOnUse">
      <feOffset dy="3" input="SourceAlpha"/>
      <feGaussianBlur stdDeviation="3" result="blur"/>
      <feFlood flood-opacity="0.161"/>
      <feComposite operator="in" in2="blur"/>
      <feComposite in="SourceGraphic"/>
    </filter>
  </defs>
  <g id="Grupo_1106016" data-name="Grupo 1106016" transform="translate(9 6)">
    <g transform="matrix(1, 0, 0, 1, -9, -6)" filter="url(#plant-growing-soil-with-sun-shining-it)">
      <g id="plant-growing-soil-with-sun-shining-it-2" data-name="plant-growing-soil-with-sun-shining-it" transform="translate(9 6)" fill="#a8d549">
        <path d="M 38.024658203125 73.54931640625 C 33.22776412963867 73.54931640625 28.57567024230957 72.61039733886719 24.19762229919434 70.75864410400391 C 19.96767044067383 68.96952056884766 16.16825866699219 66.40771484375 12.90492916107178 63.14438629150391 C 9.641599655151367 59.88105773925781 7.079799175262451 56.08164596557617 5.290681838989258 51.85169219970703 C 3.438916921615601 47.47364807128906 2.499999284744263 42.82156372070312 2.499999284744263 38.024658203125 C 2.499999284744263 33.22776412963867 3.438916921615601 28.57567024230957 5.290681838989258 24.19762229919434 C 7.079799175262451 19.96767044067383 9.641599655151367 16.16825866699219 12.90492916107178 12.90492916107178 C 16.16825866699219 9.641599655151367 19.96767044067383 7.079799175262451 24.19762229919434 5.290681838989258 C 28.57567024230957 3.438916921615601 33.22776412963867 2.499999284744263 38.024658203125 2.499999284744263 C 42.82155227661133 2.499999284744263 47.4736328125 3.438916921615601 51.85168075561523 5.290681838989258 C 56.08163452148438 7.079799175262451 59.88104629516602 9.641599655151367 63.14437484741211 12.90492916107178 C 66.40770721435547 16.16825866699219 68.96952056884766 19.96767044067383 70.75863647460938 24.19762229919434 C 72.61039733886719 28.57567024230957 73.54931640625 33.22776412963867 73.54931640625 38.024658203125 C 73.54931640625 42.82156372070312 72.61039733886719 47.47364807128906 70.75863647460938 51.85169219970703 C 68.96952056884766 56.08164596557617 66.40770721435547 59.88105773925781 63.14437484741211 63.14438629150391 C 59.88104629516602 66.40771484375 56.08163452148438 68.96952056884766 51.85168075561523 70.75864410400391 C 47.4736328125 72.61039733886719 42.82155227661133 73.54931640625 38.024658203125 73.54931640625 Z" stroke="none"/>
        <path d="M 38.024658203125 5 C 33.56415939331055 5 29.23973083496094 5.872474670410156 25.17150115966797 7.593185424804688 C 21.23954391479492 9.256271362304688 17.70724487304688 11.63816070556641 14.67270278930664 14.67270278930664 C 11.63816070556641 17.70724487304688 9.256271362304688 21.23954391479492 7.593185424804688 25.17150115966797 C 5.872474670410156 29.23973083496094 5 33.56415939331055 5 38.024658203125 C 5 42.48515701293945 5.872474670410156 46.80958557128906 7.593185424804688 50.87781524658203 C 9.256271362304688 54.80977249145508 11.63816070556641 58.34207153320312 14.67270278930664 61.37661743164062 C 17.70724487304688 64.41115570068359 21.23954391479492 66.79304504394531 25.17150115966797 68.45613098144531 C 29.23973083496094 70.17684173583984 33.56415939331055 71.04931640625 38.024658203125 71.04931640625 C 42.48515701293945 71.04931640625 46.80958557128906 70.17684173583984 50.87779998779297 68.45613098144531 C 54.80976104736328 66.79304504394531 58.34207153320312 64.41115570068359 61.37661743164062 61.37661743164062 C 64.41115570068359 58.34207153320312 66.79304504394531 54.80977249145508 68.45613098144531 50.87781524658203 C 70.17684173583984 46.80958557128906 71.04931640625 42.48515701293945 71.04931640625 38.024658203125 C 71.04931640625 33.56415939331055 70.17684173583984 29.23973083496094 68.45613098144531 25.17150115966797 C 66.79304504394531 21.23954391479492 64.41115570068359 17.70724487304688 61.37661743164062 14.67270278930664 C 58.34207153320312 11.63816070556641 54.80976104736328 9.256271362304688 50.87779998779297 7.593185424804688 C 46.80958557128906 5.872474670410156 42.48515701293945 5 38.024658203125 5 M 38.024658203125 0 C 59.02508544921875 0 76.04931640625 17.02421569824219 76.04931640625 38.024658203125 C 76.04931640625 59.02510070800781 59.02508544921875 76.04931640625 38.024658203125 76.04931640625 C 17.02421569824219 76.04931640625 0 59.02510070800781 0 38.024658203125 C 0 17.02421569824219 17.02421569824219 0 38.024658203125 0 Z" stroke="none" fill="#65802c"/>
      </g>
    </g>
    <g id="ahorrar-agua" transform="translate(13.849 14.285)">
      <g id="Grupo_1106011" data-name="Grupo 1106011" transform="translate(0.708 12.084)">
        <g id="Grupo_1106010" data-name="Grupo 1106010" transform="translate(0 0)">
          <g id="Grupo_1106003" data-name="Grupo 1106003" transform="translate(24.745)">
            <g id="Grupo_1106001" data-name="Grupo 1106001" transform="translate(8.724)">
              <g id="Grupo_1106000" data-name="Grupo 1106000">
                <g id="Grupo_1105998" data-name="Grupo 1105998" transform="translate(0 6.054)">
                  <path id="Trazado_896761" data-name="Trazado 896761" d="M363.98,198.476l-.034.01a2.884,2.884,0,0,0-2.015,3.179l1.386,7.508c1.149-.049,2.3-.1,3.446-.167l-1.642-9.8A.89.89,0,0,0,363.98,198.476Z" transform="translate(-361.9 -198.437)" fill="#f69583"/>
                </g>
                <path id="Trazado_896762" data-name="Trazado 896762" d="M392.783,161.784l-.041.012a3.442,3.442,0,0,0-2.4,3.793l.954,6.507,4.276.641-1.424-10.086A1.062,1.062,0,0,0,392.783,161.784Z" transform="translate(-387.618 -159.15)" fill="#fdb0a0"/>
                <g id="Grupo_1105999" data-name="Grupo 1105999" transform="translate(5.376)">
                  <path id="Trazado_896763" data-name="Trazado 896763" d="M421.682,134.38l-.041.012a3.442,3.442,0,0,0-2.4,3.793l.937,6.374-1.347.977c.481,1.738.946,3.48,1.415,5.221l3.682-2.932a1.8,1.8,0,0,0,.66-1.658l-1.542-10.919A1.062,1.062,0,0,0,421.682,134.38Z" transform="translate(-418.826 -134.333)" fill="#f69583"/>
                </g>
              </g>
              <path id="Trazado_896764" data-name="Trazado 896764" d="M409.2,145.4l.537,5.229a1.957,1.957,0,0,1-.868,1.833l-4.082,2.7,2.154,4.819,6.522-4.744a1.8,1.8,0,0,0,.732-1.628l-1.065-10.976a1.062,1.062,0,0,0-1.322-.926l-.041.011A3.441,3.441,0,0,0,409.2,145.4Z" transform="translate(-400.74 -140.982)" fill="#fdb0a0"/>
            </g>
            <path id="Trazado_896765" data-name="Trazado 896765" d="M282.4,268.179l-4.951,2.406-2.576,1.325a10.346,10.346,0,0,0-3.193,2.55,9.221,9.221,0,0,0-1.926,7.98l1.657,7.257h11.023l-3.483-14.052,7.088-3.847a1.8,1.8,0,0,0,.363-.261Z" transform="translate(-269.525 -255.539)" fill="#fdb0a0"/>
            <path id="Trazado_896766" data-name="Trazado 896766" d="M337.193,347.236l3.483,14.052h-3.355l-3.483-14.052Z" transform="translate(-327.764 -327.13)" fill="#f89f8e"/>
            <g id="Grupo_1106002" data-name="Grupo 1106002" transform="translate(5.211 7.679)">
              <path id="Trazado_896767" data-name="Trazado 896767" d="M335.944,215.646a4.508,4.508,0,0,0-4.113,4.344l-.129,3.933a10.067,10.067,0,0,0-2.241.746,8.2,8.2,0,0,0-4.73,6.353A2.667,2.667,0,0,0,327.855,234l1.908-.35a4.788,4.788,0,0,0,2.8-1.632l4.065-4.845a1.769,1.769,0,0,0,.413-1.071l.341-9.088A1.327,1.327,0,0,0,335.944,215.646Z" transform="translate(-324.706 -215.641)" fill="#ffcec0"/>
            </g>
          </g>
          <g id="Grupo_1106009" data-name="Grupo 1106009" transform="translate(0 0.197)">
            <g id="Grupo_1106007" data-name="Grupo 1106007">
              <g id="Grupo_1106006" data-name="Grupo 1106006" transform="translate(2.315)">
                <g id="Grupo_1106004" data-name="Grupo 1106004" transform="translate(6.289 6.054)">
                  <path id="Trazado_896768" data-name="Trazado 896768" d="M101.388,200.566l.034.01a2.884,2.884,0,0,1,2.015,3.179l-1.386,7.508c-1.149-.049-2.3-.1-3.446-.167l1.642-9.8A.89.89,0,0,1,101.388,200.566Z" transform="translate(-98.605 -200.527)" fill="#f69583"/>
                </g>
                <path id="Trazado_896769" data-name="Trazado 896769" d="M68.711,163.874l.041.012a3.442,3.442,0,0,1,2.4,3.793l-.954,6.508-4.276.641,1.424-10.086A1.062,1.062,0,0,1,68.711,163.874Z" transform="translate(-62.723 -161.239)" fill="#fdb0a0"/>
                <g id="Grupo_1106005" data-name="Grupo 1106005">
                  <path id="Trazado_896770" data-name="Trazado 896770" d="M34.931,136.469l.041.012a3.442,3.442,0,0,1,2.4,3.793l-.937,6.374,1.347.977c-.481,1.738-.946,3.48-1.415,5.221l-3.682-2.932a1.8,1.8,0,0,1-.66-1.658l1.542-10.919a1.062,1.062,0,0,1,1.361-.868Z" transform="translate(-32.011 -136.423)" fill="#f69583"/>
                </g>
              </g>
              <path id="Trazado_896771" data-name="Trazado 896771" d="M12.5,147.495l-.537,5.229a1.957,1.957,0,0,0,.868,1.833l4.082,2.7-2.154,4.819-6.522-4.744a1.8,1.8,0,0,1-.732-1.628l1.065-10.976a1.062,1.062,0,0,1,1.322-.926l.041.011a3.442,3.442,0,0,1,2.567,3.685Z" transform="translate(-7.499 -143.072)" fill="#fdb0a0"/>
            </g>
            <path id="Trazado_896772" data-name="Trazado 896772" d="M71.184,277.734,67.7,291.786H78.724l1.657-7.258a9.221,9.221,0,0,0-1.926-7.98A10.346,10.346,0,0,0,75.262,274l-2.576-1.325-4.951-2.406-4,3.358a1.794,1.794,0,0,0,.363.261Z" transform="translate(-58.422 -257.628)" fill="#fdb0a0"/>
            <path id="Trazado_896773" data-name="Trazado 896773" d="M106.14,284.527l-1.656,7.258h-3.589l1.656-7.258a9.22,9.22,0,0,0-1.926-7.98A10.334,10.334,0,0,0,97.432,274l-2.575-1.325-2.679-1.3,1.316-1.1,4.952,2.406L101.021,274a10.334,10.334,0,0,1,3.193,2.55A9.22,9.22,0,0,1,106.14,284.527Z" transform="translate(-84.181 -257.626)" fill="#f89f8e"/>
            <g id="Grupo_1106008" data-name="Grupo 1106008" transform="translate(4.299 7.678)">
              <path id="Trazado_896774" data-name="Trazado 896774" d="M54.459,217.736a4.508,4.508,0,0,1,4.113,4.344l.129,3.933a10.068,10.068,0,0,1,2.241.746,8.2,8.2,0,0,1,4.73,6.353,2.667,2.667,0,0,1-3.123,2.982l-1.908-.35a4.789,4.789,0,0,1-2.8-1.632l-4.065-4.845a1.769,1.769,0,0,1-.413-1.071l-.341-9.088a1.327,1.327,0,0,1,1.441-1.372Z" transform="translate(-53.017 -217.73)" fill="#ffcec0"/>
            </g>
          </g>
        </g>
      </g>
      <g id="Grupo_1106012" data-name="Grupo 1106012" transform="translate(24.06 5.187)">
        <path id="Trazado_896775" data-name="Trazado 896775" d="M267.982,72.513a6.6,6.6,0,1,1-13.208,0c0-3.022,4.456-8.93,6.048-10.944a.709.709,0,0,1,1.113,0C263.526,63.583,267.982,69.491,267.982,72.513Z" transform="translate(-254.774 -61.3)" fill="#68dbf9"/>
        <path id="Trazado_896776" data-name="Trazado 896776" d="M315.13,72.512a6.633,6.633,0,0,1-6.6,6.661,6.541,6.541,0,0,1-1.688-.22,6.652,6.652,0,0,0,4.916-6.441c0-2.464-2.96-6.843-4.916-9.469.444-.6.837-1.1,1.131-1.475a.708.708,0,0,1,1.112,0C310.673,63.581,315.13,69.489,315.13,72.512Z" transform="translate(-301.921 -61.298)" fill="#24d1f8"/>
      </g>
      <g id="Grupo_1106013" data-name="Grupo 1106013" transform="translate(11.47 0.708)">
        <path id="Trazado_896777" data-name="Trazado 896777" d="M130.893,21.883a4.719,4.719,0,1,1-9.438,0c0-2.159,3.184-6.381,4.321-7.82a.507.507,0,0,1,.8,0C127.708,15.5,130.893,19.724,130.893,21.883Z" transform="translate(-121.455 -13.871)" fill="#68dbf9"/>
        <path id="Trazado_896778" data-name="Trazado 896778" d="M160.7,21.887a4.74,4.74,0,0,1-4.719,4.76,4.668,4.668,0,0,1-1.61-.284,4.76,4.76,0,0,0,3.109-4.475c0-1.6-1.741-4.321-3.109-6.214.482-.667.916-1.231,1.213-1.605a.507.507,0,0,1,.8,0C157.513,15.506,160.7,19.727,160.7,21.887Z" transform="translate(-151.26 -13.875)" fill="#24d1f8"/>
      </g>
      <g id="Grupo_1106014" data-name="Grupo 1106014" transform="translate(16.189 11.122)">
        <path id="Trazado_896779" data-name="Trazado 896779" d="M187.4,137.71a7.988,7.988,0,1,1-15.974,0c0-3.655,5.39-10.8,7.314-13.236a.857.857,0,0,1,1.346,0C182.006,126.909,187.4,134.055,187.4,137.71Z" transform="translate(-171.421 -124.148)" fill="#c9f0fd"/>
        <path id="Trazado_896780" data-name="Trazado 896780" d="M246.6,137.709a8.023,8.023,0,0,1-7.988,8.056c-.176,0-.349-.006-.521-.018a8.056,8.056,0,0,0,5.24-7.566c0-3.237-4.228-9.213-6.532-12.229.443-.589.835-1.094,1.14-1.479a.858.858,0,0,1,1.347,0C241.209,126.909,246.6,134.055,246.6,137.709Z" transform="translate(-230.624 -124.147)" fill="#9ce6fb"/>
      </g>
      <g id="Grupo_1106015" data-name="Grupo 1106015" transform="translate(0 0)">
        <path id="Trazado_896781" data-name="Trazado 896781" d="M31.915,78l5.1-2.527L36.971,76.8a12.249,12.249,0,0,0-1.843.667,8.82,8.82,0,0,0-3.883,3.413.708.708,0,1,0,1.205.745,7.408,7.408,0,0,1,3.261-2.867,9.572,9.572,0,0,1,2.066-.693.708.708,0,0,0,.591-.675l.129-3.933a3.8,3.8,0,0,1,3.467-3.661.618.618,0,0,1,.672.639L42.3,79.521a1.066,1.066,0,0,1-.247.642l-4.065,4.845a4.089,4.089,0,0,1-2.389,1.39l-1.908.35a1.95,1.95,0,0,1-1.612-.426.708.708,0,1,0-.911,1.085,3.367,3.367,0,0,0,2.778.734l1.774-.326.247,1a.708.708,0,0,0,1.375-.341l-.263-1.061a5.505,5.505,0,0,0,1.993-1.494l4.065-4.845a2.489,2.489,0,0,0,.578-1.5l.028-.735,3.582-2.6a2.516,2.516,0,0,0,1.02-2.269L47.275,62.99a1.771,1.771,0,0,0-2.2-1.544,4.755,4.755,0,0,0-.758.264,1.767,1.767,0,0,0-2.114-.936,4.248,4.248,0,0,0-2.709,2.519,1.758,1.758,0,0,0-.357.069,4.371,4.371,0,0,0-1.435.748c-.982-3.269-4.343-7.77-5.925-9.771a1.417,1.417,0,0,0-2.224,0,56.251,56.251,0,0,0-4.162,5.976,1.564,1.564,0,0,0-2.443.016c-.88,1.113-2.586,3.342-4.131,5.76a.708.708,0,1,0,1.194.762c1.511-2.366,3.185-4.551,4.048-5.644a.149.149,0,0,1,.235,0c1.68,2.126,7.162,9.33,7.162,12.8A7.279,7.279,0,1,1,16.9,74a11.022,11.022,0,0,1,1.561-4.517.708.708,0,1,0-1.251-.665A11.916,11.916,0,0,0,15.48,74a8.815,8.815,0,0,0,.293,2.259L14.03,75.4l.81-4.39a3.634,3.634,0,0,0-2.54-4c-.044-.014-.089-.023-.134-.033a4.183,4.183,0,0,0-2.95-3.425,1.786,1.786,0,0,0-.343-.068,4.208,4.208,0,0,0-2.725-2.52,1.767,1.767,0,0,0-2.113.937,4.736,4.736,0,0,0-.756-.264,1.771,1.771,0,0,0-2.2,1.544L.012,74.163a2.516,2.516,0,0,0,1.02,2.269l3.575,2.6.034.739a2.489,2.489,0,0,0,.578,1.5l4.065,4.845a5.5,5.5,0,0,0,1.993,1.494L9.3,95.589a.708.708,0,1,0,1.375.341l1.962-7.916,1.774.326a3.4,3.4,0,0,0,.613.056,3.363,3.363,0,0,0,2.165-.79.708.708,0,0,0-.911-1.085,1.951,1.951,0,0,1-1.612.426l-1.908-.35a4.089,4.089,0,0,1-2.389-1.39L6.3,80.361a1.066,1.066,0,0,1-.247-.642L5.716,70.63a.618.618,0,0,1,.672-.639,3.8,3.8,0,0,1,3.467,3.661l.129,3.933a.71.71,0,0,0,.59.675,9.58,9.58,0,0,1,2.068.693A7.41,7.41,0,0,1,15.9,81.82a.708.708,0,1,0,1.2-.745,8.821,8.821,0,0,0-3.883-3.413A12.251,12.251,0,0,0,11.381,77l-.043-1.326,5.246,2.6a8.768,8.768,0,0,0,4.456,3.906,8.478,8.478,0,0,1,.936,6.166L20.32,95.6a.708.708,0,1,0,1.381.315l1.657-7.258a9.886,9.886,0,0,0-.5-5.991,8.659,8.659,0,0,0,2.55.012,9.912,9.912,0,0,0-.415,5.782l1.657,7.257a.708.708,0,0,0,1.381-.315l-1.657-7.257a8.5,8.5,0,0,1,.8-5.915A8.77,8.77,0,0,0,31.915,78ZM2.928,63.015a2.759,2.759,0,0,1,2.08,2.937l-.362,3.519A2.035,2.035,0,0,0,4.3,70.684l.246,6.553-2.681-1.95a1.094,1.094,0,0,1-.444-.986L2.486,63.324a.354.354,0,0,1,.441-.308Zm2.81-.689a2.793,2.793,0,0,1,1.95,3.025L7.2,68.687a5.236,5.236,0,0,0-.686-.107,2.032,2.032,0,0,0-.35,0L6.416,66.1a4.128,4.128,0,0,0-1.154-3.328l.022-.154a.354.354,0,0,1,.454-.289ZM8.554,69.2l.535-3.64a4.272,4.272,0,0,0,.044-.525,2.714,2.714,0,0,1,1.622,2.908L10.336,70.8A5.238,5.238,0,0,0,8.554,69.2Zm2.731,4.867c.005-.022.827-5.615.827-5.615a2.161,2.161,0,0,1,1.333,2.319l-.737,3.991ZM26.33,61.523a52.441,52.441,0,0,1,4.336-6.307c2.85,3.606,5.9,8.259,5.9,10.5a5.914,5.914,0,0,1-4.234,5.713c-1.187-3.271-4.055-7.358-6-9.91Zm6.305,14.514A8.82,8.82,0,0,0,32.871,74a5.78,5.78,0,0,0-.145-1.213,7.233,7.233,0,0,0,1.073-.413l.522,2.827Zm3.009-1.474-.55-2.98a7.355,7.355,0,0,0,1.273-1.248c.051-.064.1-.13.15-.2,0,0,.543,3.689.551,3.716ZM38.016,70.6s-.387-2.63-.388-2.638a7.433,7.433,0,0,0,.345-2.05,2.725,2.725,0,0,1,1.248-1.079,4.082,4.082,0,0,0,.042.526L39.8,69A5.236,5.236,0,0,0,38.016,70.6Zm4.6-8.472a.354.354,0,0,1,.454.29l.022.154A4.129,4.129,0,0,0,41.935,65.9l.255,2.483a2.023,2.023,0,0,0-.35,0,5.248,5.248,0,0,0-.686.107l-.49-3.336a2.793,2.793,0,0,1,1.95-3.025Zm2.811.689a.354.354,0,0,1,.44.309L46.93,74.1a1.093,1.093,0,0,1-.444.986l-2.681,1.95.246-6.553a2.036,2.036,0,0,0-.345-1.212l-.362-3.519a2.761,2.761,0,0,1,2.08-2.937Z" transform="translate(0 -49.32)"/>
        <path id="Trazado_896782" data-name="Trazado 896782" d="M389.925,447.852a.708.708,0,0,0-1.375.341l.965,3.892a.708.708,0,0,0,1.375-.341Z" transform="translate(-351.837 -405.673)"/>
        <path id="Trazado_896783" data-name="Trazado 896783" d="M119.382,20.559a5.454,5.454,0,0,0,5.427-5.468,6.426,6.426,0,0,0-.788-2.674.708.708,0,1,0-1.274.619,5.07,5.07,0,0,1,.646,2.055,4.011,4.011,0,1,1-8.021,0c0-1.512,2.042-4.66,4.01-7.179.436.559,1.141,1.49,1.833,2.524a.708.708,0,0,0,1.177-.788c-.77-1.15-1.544-2.166-2.057-2.815a1.215,1.215,0,0,0-1.907,0c-1.671,2.114-4.474,6-4.474,8.259A5.454,5.454,0,0,0,119.382,20.559Z" transform="translate(-103.193 -6.371)"/>
      </g>
    </g>
  </g>
</svg>
