<svg xmlns="http://www.w3.org/2000/svg" xmlns:xlink="http://www.w3.org/1999/xlink" width="94.049" height="94.049" viewBox="0 0 94.049 94.049">
  <defs>
    <filter id="plant-growing-soil-with-sun-shining-it" x="0" y="0" width="94.049" height="94.049" filterUnits="userSpaceOnUse">
      <feOffset dy="3" input="SourceAlpha"/>
      <feGaussianBlur stdDeviation="3" result="blur"/>
      <feFlood flood-opacity="0.161"/>
      <feComposite operator="in" in2="blur"/>
      <feComposite in="SourceGraphic"/>
    </filter>
  </defs>
  <g id="Grupo_1106036" data-name="Grupo 1106036" transform="translate(9 6)">
    <g transform="matrix(1, 0, 0, 1, -9, -6)" filter="url(#plant-growing-soil-with-sun-shining-it)">
      <g id="plant-growing-soil-with-sun-shining-it-2" data-name="plant-growing-soil-with-sun-shining-it" transform="translate(9 6)" fill="#a8d549">
        <path d="M 38.024658203125 73.54931640625 C 33.22776412963867 73.54931640625 28.57567024230957 72.61039733886719 24.19762229919434 70.75864410400391 C 19.96767044067383 68.96952056884766 16.16825866699219 66.40771484375 12.90492916107178 63.14438629150391 C 9.641599655151367 59.88105773925781 7.079799175262451 56.08164596557617 5.290681838989258 51.85169219970703 C 3.438916921615601 47.47364807128906 2.499999284744263 42.82156372070312 2.499999284744263 38.024658203125 C 2.499999284744263 33.22776412963867 3.438916921615601 28.57567024230957 5.290681838989258 24.19762229919434 C 7.079799175262451 19.96767044067383 9.641599655151367 16.16825866699219 12.90492916107178 12.90492916107178 C 16.16825866699219 9.641599655151367 19.96767044067383 7.079799175262451 24.19762229919434 5.290681838989258 C 28.57567024230957 3.438916921615601 33.22776412963867 2.499999284744263 38.024658203125 2.499999284744263 C 42.82155227661133 2.499999284744263 47.4736328125 3.438916921615601 51.85168075561523 5.290681838989258 C 56.08163452148438 7.079799175262451 59.88104629516602 9.641599655151367 63.14437484741211 12.90492916107178 C 66.40770721435547 16.16825866699219 68.96952056884766 19.96767044067383 70.75863647460938 24.19762229919434 C 72.61039733886719 28.57567024230957 73.54931640625 33.22776412963867 73.54931640625 38.024658203125 C 73.54931640625 42.82156372070312 72.61039733886719 47.47364807128906 70.75863647460938 51.85169219970703 C 68.96952056884766 56.08164596557617 66.40770721435547 59.88105773925781 63.14437484741211 63.14438629150391 C 59.88104629516602 66.40771484375 56.08163452148438 68.96952056884766 51.85168075561523 70.75864410400391 C 47.4736328125 72.61039733886719 42.82155227661133 73.54931640625 38.024658203125 73.54931640625 Z" stroke="none"/>
        <path d="M 38.024658203125 5 C 33.56415939331055 5 29.23973083496094 5.872474670410156 25.17150115966797 7.593185424804688 C 21.23954391479492 9.256271362304688 17.70724487304688 11.63816070556641 14.67270278930664 14.67270278930664 C 11.63816070556641 17.70724487304688 9.256271362304688 21.23954391479492 7.593185424804688 25.17150115966797 C 5.872474670410156 29.23973083496094 5 33.56415939331055 5 38.024658203125 C 5 42.48515701293945 5.872474670410156 46.80958557128906 7.593185424804688 50.87781524658203 C 9.256271362304688 54.80977249145508 11.63816070556641 58.34207153320312 14.67270278930664 61.37661743164062 C 17.70724487304688 64.41115570068359 21.23954391479492 66.79304504394531 25.17150115966797 68.45613098144531 C 29.23973083496094 70.17684173583984 33.56415939331055 71.04931640625 38.024658203125 71.04931640625 C 42.48515701293945 71.04931640625 46.80958557128906 70.17684173583984 50.87779998779297 68.45613098144531 C 54.80976104736328 66.79304504394531 58.34207153320312 64.41115570068359 61.37661743164062 61.37661743164062 C 64.41115570068359 58.34207153320312 66.79304504394531 54.80977249145508 68.45613098144531 50.87781524658203 C 70.17684173583984 46.80958557128906 71.04931640625 42.48515701293945 71.04931640625 38.024658203125 C 71.04931640625 33.56415939331055 70.17684173583984 29.23973083496094 68.45613098144531 25.17150115966797 C 66.79304504394531 21.23954391479492 64.41115570068359 17.70724487304688 61.37661743164062 14.67270278930664 C 58.34207153320312 11.63816070556641 54.80976104736328 9.256271362304688 50.87779998779297 7.593185424804688 C 46.80958557128906 5.872474670410156 42.48515701293945 5 38.024658203125 5 M 38.024658203125 0 C 59.02508544921875 0 76.04931640625 17.02421569824219 76.04931640625 38.024658203125 C 76.04931640625 59.02510070800781 59.02508544921875 76.04931640625 38.024658203125 76.04931640625 C 17.02421569824219 76.04931640625 0 59.02510070800781 0 38.024658203125 C 0 17.02421569824219 17.02421569824219 0 38.024658203125 0 Z" stroke="none" fill="#65802c"/>
      </g>
    </g>
    <g id="hurricane_10936588" transform="translate(18.061 18.061)">
      <g id="Grupo_1106034" data-name="Grupo 1106034" transform="translate(0 0.618)">
        <g id="Grupo_1106033" data-name="Grupo 1106033" transform="translate(0)">
          <g id="Grupo_1106017" data-name="Grupo 1106017" transform="translate(0)">
            <path id="Trazado_896784" data-name="Trazado 896784" d="M24.578,12.626a4.7,4.7,0,0,1-4.7,4.7H0V13.79H15.183V12.626a4.7,4.7,0,0,1,9.394,0Z" transform="translate(0 -7.929)" fill="#e3edf6"/>
          </g>
          <g id="Grupo_1106019" data-name="Grupo 1106019" transform="translate(0 5.861)">
            <g id="Grupo_1106018" data-name="Grupo 1106018">
              <path id="Trazado_896785" data-name="Trazado 896785" d="M20.968,84.779H1.088v-1.7H0v3.534H19.881a4.7,4.7,0,0,0,4.482-3.289A4.682,4.682,0,0,1,20.968,84.779Z" transform="translate(0 -83.082)" fill="#c5d9ec"/>
            </g>
          </g>
          <g id="Grupo_1106020" data-name="Grupo 1106020" transform="translate(0 11.705)">
            <path id="Trazado_896786" data-name="Trazado 896786" d="M15.5,158.022H0v2.329H12v1.171a3.5,3.5,0,1,0,3.5-3.5Z" transform="translate(0 -158.022)" fill="#e3edf6"/>
          </g>
          <g id="Grupo_1106021" data-name="Grupo 1106021" transform="translate(0 11.705)">
            <path id="Trazado_896787" data-name="Trazado 896787" d="M17.29,163.31H15.715a1.925,1.925,0,0,1-1.925-1.925v-2.745H1.43v-.616H0v2.329H12v1.171a3.5,3.5,0,0,0,6.658,1.51A3.489,3.489,0,0,1,17.29,163.31Z" transform="translate(0 -158.023)" fill="#c5d9ec"/>
          </g>
          <g id="Grupo_1106022" data-name="Grupo 1106022" transform="translate(16.678 10.314)">
            <path id="Trazado_896788" data-name="Trazado 896788" d="M221.869,140.193a24,24,0,0,0-5.89,4.382,3.238,3.238,0,0,1-2.019,3.484,6.488,6.488,0,0,0,1.014,4.753,6.349,6.349,0,0,0,11.475-2.448C227.228,146.144,221.869,140.193,221.869,140.193Z" transform="translate(-213.863 -140.193)" fill="#c3f839"/>
          </g>
          <g id="Grupo_1106024" data-name="Grupo 1106024" transform="translate(16.678 17.237)">
            <g id="Grupo_1106023" data-name="Grupo 1106023">
              <path id="Trazado_896789" data-name="Trazado 896789" d="M223.4,235.779a6.355,6.355,0,0,1-7.06-2.482,6.466,6.466,0,0,1-1.075-4.332,3.3,3.3,0,0,1-1.3.943,6.488,6.488,0,0,0,1.014,4.753,6.35,6.35,0,0,0,10.354.153A6.371,6.371,0,0,1,223.4,235.779Z" transform="translate(-213.862 -228.965)" fill="#abe700"/>
            </g>
          </g>
          <g id="Grupo_1106025" data-name="Grupo 1106025" transform="translate(29.94 0.01)">
            <path id="Trazado_896790" data-name="Trazado 896790" d="M392.551,8.053c-1.853.044-6.573.888-7.751,2.808a4.693,4.693,0,1,0,7.653,5.435c1.836-2.585.1-8.243.1-8.243Z" transform="translate(-383.933 -8.053)" fill="#c3f839"/>
          </g>
          <g id="Grupo_1106026" data-name="Grupo 1106026" transform="translate(29.94 1.787)">
            <path id="Trazado_896791" data-name="Trazado 896791" d="M389.169,38.026a4.695,4.695,0,0,1-3.279-7.184,3.393,3.393,0,0,0-1.089,1.03,4.693,4.693,0,1,0,7.653,5.435c.013-.018.025-.037.038-.056a4.71,4.71,0,0,1-3.322.774Z" transform="translate(-383.933 -30.842)" fill="#abe700"/>
          </g>
          <g id="Grupo_1106027" data-name="Grupo 1106027" transform="translate(30.88 19.311)">
            <path id="Trazado_896792" data-name="Trazado 896792" d="M401.129,255.558c-.982.323-4.525,2.066-4.972,3.861a3.584,3.584,0,1,0,6.837,2.151c.727-2.309-1.865-6.012-1.865-6.012Z" transform="translate(-395.991 -255.558)" fill="#c3f839"/>
          </g>
          <g id="Grupo_1106028" data-name="Grupo 1106028" transform="translate(30.881 21.187)">
            <path id="Trazado_896793" data-name="Trazado 896793" d="M401.4,284.995a3.585,3.585,0,0,1-4.024-4.608,2.356,2.356,0,0,1,.367-.765,4.134,4.134,0,0,0-1.586,1.984,3.583,3.583,0,0,0,6.487,2.923A3.6,3.6,0,0,1,401.4,284.995Z" transform="translate(-395.992 -279.621)" fill="#abe700"/>
          </g>
          <g id="Grupo_1106029" data-name="Grupo 1106029" transform="translate(0.585 30.445)">
            <path id="Trazado_896794" data-name="Trazado 896794" d="M42.6,398.34H11.161A3.661,3.661,0,0,0,7.5,402v4.62H46.257V402A3.661,3.661,0,0,0,42.6,398.34Z" transform="translate(-7.5 -398.34)" fill="#eb975d"/>
          </g>
          <g id="Grupo_1106030" data-name="Grupo 1106030" transform="translate(0.585 30.83)">
            <path id="Trazado_896795" data-name="Trazado 896795" d="M9.213,409.374v-4.62a3.645,3.645,0,0,1,.315-1.485A3.66,3.66,0,0,0,7.5,406.545v4.62H46.257v-1.791Z" transform="translate(-7.5 -403.269)" fill="#b25e1e"/>
          </g>
          <g id="Grupo_1106031" data-name="Grupo 1106031" transform="translate(4.172 32.213)">
            <path id="Trazado_896796" data-name="Trazado 896796" d="M53.5,421h1.17v1.17H53.5Z" transform="translate(-53.5 -421.002)" fill="#fff"/>
          </g>
          <g id="Grupo_1106032" data-name="Grupo 1106032" transform="translate(6.48 32.213)">
            <path id="Trazado_896797" data-name="Trazado 896797" d="M83.089,421h1.17v1.17h-1.17Z" transform="translate(-83.089 -421.002)" fill="#fff"/>
          </g>
        </g>
      </g>
      <g id="Grupo_1106035" data-name="Grupo 1106035" transform="translate(0 0)">
        <path id="Trazado_896798" data-name="Trazado 896798" d="M35.682,151.3H33.314l.472-1.5a4.176,4.176,0,0,0,4.655-2.861c.767-2.892-1.9-6.4-2.193-6.879-1.063.346-4.982,1.927-5.765,4.393a4.174,4.174,0,0,0,2.187,5l-.583,1.852H21.675l.669-3.627a6.954,6.954,0,0,0,7.5-5.642c.733-4.806-4.547-10.419-5.012-10.991a23.258,23.258,0,0,0-5.764,4,3.988,3.988,0,0,0-3.667-2.43H0v1.17H15.4a2.827,2.827,0,1,1-2.812,2.842v-1.149h-1.17v1.149a3.977,3.977,0,0,0,4.672,3.921,6.935,6.935,0,0,0,5.107,6.917l-.709,3.839H4.246A4.251,4.251,0,0,0,0,155.541v5.2H32.831v-1.168H1.17v-4.035a3.079,3.079,0,0,1,3.076-3.076H35.682a3.079,3.079,0,0,1,3.076,3.076v4.035H34v1.168h5.927v-5.2a4.25,4.25,0,0,0-4.245-4.246Zm-4.067-6.548c.307-1.233,2.813-2.72,4.174-3.29.754,1.2,2,3.64,1.537,5.124a3,3,0,0,1-3.183,2.081l.905-2.876-1.116-.351-.905,2.877A2.789,2.789,0,0,1,31.614,144.748Zm-13.344-.712a5.721,5.721,0,0,1-.979-3.917,4,4,0,0,0,2.081-3.747,24.352,24.352,0,0,1,5.167-3.893c1.08,1.29,4.767,5.99,4.149,9.334a5.782,5.782,0,0,1-6.132,4.7l.484-2.622,3.8-2.614-.663-.963-2.833,1.95.769-4.167-1.15-.212-.767,4.158-1.912-2.777-.963.663,2.575,3.741-.486,2.632a5.721,5.721,0,0,1-3.136-2.266Z" transform="translate(0 -120.817)"/>
        <path id="Trazado_896799" data-name="Trazado 896799" d="M377.118,13.287l1.817-2.558a5.272,5.272,0,0,0,6.861-1.56c2.049-3.147.208-8.533.053-9.168a15.978,15.978,0,0,0-3.971.523l.278,1.136a18.407,18.407,0,0,1,2.822-.467c.346,1.329,1.235,5.368-.136,7.3a4.1,4.1,0,0,1-3.935,1.688,4.045,4.045,0,0,1-1.289-.413l1-1.414,3.3-.558-.2-1.153-2.143.363,1.6-2.253-.954-.677-1.6,2.247-.355-2.093-1.153.2.55,3.247-1.009,1.42a4.109,4.109,0,0,1-.52-5.358,5.242,5.242,0,0,1,2.9-1.759L380.679.862a6.3,6.3,0,0,0-3.5,2.208,5.277,5.277,0,0,0,.8,6.981l-1.816,2.557Z" transform="translate(-346.83 0)"/>
        <path id="Trazado_896800" data-name="Trazado 896800" d="M85.842,9.691a3.985,3.985,0,1,1,4,3.969H76v1.17H89.842a5.139,5.139,0,1,0-5.17-5.139v1.6h1.17Z" transform="translate(-70.073 -4.197)"/>
        <path id="Trazado_896801" data-name="Trazado 896801" d="M0,121.355H4.757v1.17H0Z" transform="translate(0 -111.891)"/>
        <path id="Trazado_896802" data-name="Trazado 896802" d="M0,76.026H13.451V77.2H0Z" transform="translate(0 -70.097)"/>
        <path id="Trazado_896803" data-name="Trazado 896803" d="M8.946,183.361a1.138,1.138,0,1,1-2.275.02H5.5a2.307,2.307,0,1,0,2.307-2.327H0v1.17H7.808A1.139,1.139,0,0,1,8.946,183.361Z" transform="translate(0 -166.936)"/>
        <path id="Trazado_896804" data-name="Trazado 896804" d="M13.544,273.6a1.138,1.138,0,1,1-2.275.02H10.1a2.307,2.307,0,1,0,2.307-2.327H0v1.17H12.406A1.139,1.139,0,0,1,13.544,273.6Z" transform="translate(0 -250.14)"/>
        <path id="Trazado_896805" data-name="Trazado 896805" d="M0,301.034H8.812v1.17H0Z" transform="translate(0 -277.559)"/>
      </g>
    </g>
  </g>
</svg>
