<svg xmlns="http://www.w3.org/2000/svg" width="39.932" height="50.923" viewBox="0 0 39.932 50.923">
  <g id="gota-de-agua" transform="translate(-55.111)">
    <g id="Grupo_1106052" data-name="Grupo 1106052" transform="translate(55.111 0)">
      <path id="Trazado_896959" data-name="Trazado 896959" d="M107.1,261.757a11.691,11.691,0,0,1-5.933-18.1,1.015,1.015,0,0,0,.09-.148,1,1,0,0,0-1.705-1.023,13.684,13.684,0,0,0,.061,16.29,13.8,13.8,0,0,0,6.9,4.879,1,1,0,1,0,.592-1.9Z" transform="translate(-92.725 -217.934)" fill="#65802c"/>
      <path id="Trazado_896960" data-name="Trazado 896960" d="M95.043,23.3a8.78,8.78,0,0,0-1.711-5.231L87.02,8.7a1,1,0,0,0-1.654,0l-2.66,3.948L74.482.44a1,1,0,0,0-1.654,0L58.711,21.4A18.545,18.545,0,1,0,92.2,32.379a18.72,18.72,0,0,0-.161-2.439A8.831,8.831,0,0,0,95.043,23.3Zm-8.85-12.26,5.485,8.142c.011.017.023.034.035.05a6.856,6.856,0,1,1-11.039,0c.012-.016.023-.032.033-.048l2.824-4.193.016-.023Zm4.012,21.337a16.55,16.55,0,1,1-29.873-9.82c.012-.016.024-.033.035-.051L73.655,2.782,81.5,14.433l-2.45,3.637a8.849,8.849,0,0,0,11.11,13.139q.041.583.042,1.17Z" transform="translate(-55.111 0)" fill="#65802c"/>
      <path id="Trazado_896961" data-name="Trazado 896961" d="M313.555,206.066a3.389,3.389,0,0,1,.293-1.386,1,1,0,0,0-1.822-.81,5.415,5.415,0,0,0,1.94,6.7,1,1,0,0,0,1.109-1.658A3.414,3.414,0,0,1,313.555,206.066Z" transform="translate(-285.989 -183.008)" fill="#65802c"/>
      <path id="Trazado_896962" data-name="Trazado 896962" d="M219.05,447.825a1,1,0,1,0-1.116,1.359A1,1,0,0,0,219.05,447.825Z" transform="translate(-200.978 -402.62)" fill="#65802c"/>
      <path id="Trazado_896963" data-name="Trazado 896963" d="M357.6,268.986a1,1,0,1,0,0-1.658A1,1,0,0,0,357.6,268.986Z" transform="translate(-327.044 -240.52)" fill="#65802c"/>
    </g>
  </g>
</svg>
