<svg xmlns="http://www.w3.org/2000/svg" width="39.193" height="39.193" viewBox="0 0 39.193 39.193">
  <g id="farming_1806745" transform="translate(0 -0.001)">
    <path id="Trazado_896988" data-name="Trazado 896988" d="M108.895,95.4a12.27,12.27,0,1,1-12.27,12.27A12.266,12.266,0,0,1,108.895,95.4Zm0,0" transform="translate(-89.228 -88.095)" fill="#dce1eb"/>
    <path id="Trazado_896989" data-name="Trazado 896989" d="M46.5,22.576v7.362H42.376a15.31,15.31,0,0,1-1.755,4.245l2.914,2.92-5.2,5.2-2.92-2.914a15.307,15.307,0,0,1-4.245,1.755v4.129H23.805V41.147a15.31,15.31,0,0,1-4.245-1.755l-2.92,2.914-5.2-5.2,2.914-2.92A15.316,15.316,0,0,1,12.6,29.938H8.469V22.576H12.6a15.319,15.319,0,0,1,1.755-4.245l-2.914-2.92,5.2-5.2,2.92,2.914a15.321,15.321,0,0,1,4.245-1.755V7.239h7.362v4.129a15.321,15.321,0,0,1,4.245,1.755l2.92-2.914,5.2,5.2-2.914,2.92a15.3,15.3,0,0,1,1.755,4.245Zm-6.749,3.681a12.27,12.27,0,1,0-12.27,12.27A12.266,12.266,0,0,0,39.756,26.257Zm0,0" transform="translate(-7.82 -6.684)" fill="#cdd2e1"/>
    <path id="Trazado_896990" data-name="Trazado 896990" d="M245.811,95.4c-.311,0-.615.024-.92.046a12.257,12.257,0,0,1,0,24.447c.3.022.61.046.92.046a12.27,12.27,0,1,0,0-24.54Zm0,0" transform="translate(-226.144 -88.095)" fill="#afb4c8"/>
    <path id="Trazado_896991" data-name="Trazado 896991" d="M260.6,173.049h-3.681v-2.454s1.227-3.067,5.521-3.067h1.227l2.454,2.454A6.8,6.8,0,0,1,260.6,173.049Zm0,0" transform="translate(-237.247 -154.703)" fill="#c2fa93"/>
    <path id="Trazado_896992" data-name="Trazado 896992" d="M264.974,184.668a6.618,6.618,0,0,1-4.993,2.369h-3.067v1.84H260.6a6.8,6.8,0,0,0,5.521-3.067Zm0,0" transform="translate(-237.247 -170.531)" fill="#8edf78"/>
    <path id="Trazado_896993" data-name="Trazado 896993" d="M145.9,173.049h-3.681a6.8,6.8,0,0,1-5.522-3.067l2.454-2.454h1.227c4.294,0,5.521,3.067,5.521,3.067Zm0,0" transform="translate(-126.231 -154.703)" fill="#c2fa93"/>
    <path id="Trazado_896994" data-name="Trazado 896994" d="M260.6,277.236h-3.681v-2.454s1.227-3.067,5.521-3.067h1.227l2.454,2.454A6.8,6.8,0,0,1,260.6,277.236Zm0,0" transform="translate(-237.247 -250.915)" fill="#c2fa93"/>
    <path id="Trazado_896995" data-name="Trazado 896995" d="M264.974,288.855a6.618,6.618,0,0,1-4.993,2.369h-3.067v1.841H260.6A6.8,6.8,0,0,0,266.116,290Zm0,0" transform="translate(-237.247 -266.743)" fill="#8edf78"/>
    <path id="Trazado_896996" data-name="Trazado 896996" d="M145.9,277.236h-3.681a6.8,6.8,0,0,1-5.522-3.067l2.454-2.454h1.227c4.294,0,5.521,3.067,5.521,3.067Zm0,0" transform="translate(-126.231 -250.915)" fill="#c2fa93"/>
    <path id="Trazado_896997" data-name="Trazado 896997" d="M39.193,23.856V15.338H34.933a15.9,15.9,0,0,0-1.477-3.574L36.463,8.75,30.444,2.731,27.43,5.738a15.878,15.878,0,0,0-3.574-1.477V0H15.338V4.262a15.883,15.883,0,0,0-3.574,1.477L8.75,2.731,2.731,8.75l3.007,3.014a15.884,15.884,0,0,0-1.477,3.574H0v8.518H4.261a15.884,15.884,0,0,0,1.477,3.574L2.731,30.444,8.75,36.463l3.014-3.007a15.878,15.878,0,0,0,3.574,1.477v4.261h8.518V34.933a15.882,15.882,0,0,0,3.574-1.477l3.014,3.007,6.019-6.019-3.007-3.014a15.877,15.877,0,0,0,1.477-3.574Zm-5.268-.717a14.717,14.717,0,0,1-1.688,4.085L32,27.612l2.825,2.831-4.386,4.386L27.611,32l-.387.234a14.715,14.715,0,0,1-4.085,1.688l-.44.109v4H16.494v-4l-.44-.109a14.713,14.713,0,0,1-4.085-1.688L11.582,32,8.751,34.829,4.365,30.443l2.826-2.831-.234-.387A14.73,14.73,0,0,1,5.269,23.14L5.16,22.7h-4V16.494h4l.109-.44a14.72,14.72,0,0,1,1.688-4.085l.234-.387L4.365,8.751,8.751,4.365l2.831,2.825.387-.234a14.72,14.72,0,0,1,4.085-1.688l.44-.109v-4H22.7v4l.44.109a14.713,14.713,0,0,1,4.085,1.688l.387.234,2.831-2.825,4.386,4.386L32,11.582l.234.387a14.717,14.717,0,0,1,1.688,4.085l.109.44h4V22.7h-4Zm0,0" transform="translate(0)"/>
    <path id="Trazado_896998" data-name="Trazado 896998" d="M101.008,149.883a11.693,11.693,0,0,1-7.6-20.578l-.752-.879a12.85,12.85,0,1,0,18.117,18.117l-.879-.752A11.683,11.683,0,0,1,101.008,149.883Zm0,0" transform="translate(-81.412 -118.594)"/>
    <path id="Trazado_896999" data-name="Trazado 896999" d="M170.75,88.16a12.8,12.8,0,0,0-7.067,2.115l.637.965a11.7,11.7,0,0,1,16.2,16.2l.965.637A12.852,12.852,0,0,0,170.75,88.16Zm0,0" transform="translate(-151.154 -81.411)"/>
    <path id="Trazado_897000" data-name="Trazado 897000" d="M129.216,160.289l-2.942,2.942.232.387a7.327,7.327,0,0,0,6.017,3.348h3.1v3.148a6.736,6.736,0,0,0-4.943-1.851h-1.466l-2.943,2.943.232.387a7.328,7.328,0,0,0,6.017,3.348h3.1v2.489h1.156v-2.489h3.1a7.329,7.329,0,0,0,6.017-3.348l.232-.387-2.943-2.943h-1.467a6.736,6.736,0,0,0-4.943,1.851v-3.148h3.1a7.329,7.329,0,0,0,6.017-3.348l.232-.387-2.943-2.942h-1.466a6.515,6.515,0,0,0-5.521,2.518,6.516,6.516,0,0,0-5.522-2.518Zm-1.463,11.074,1.942-1.942h.988c3.469,0,4.71,2.137,4.943,2.614v.484a8.664,8.664,0,0,0-4.943-1.8v1.157a7.921,7.921,0,0,1,4.687,1.911h-2.846A6.081,6.081,0,0,1,127.753,171.363Zm13.972-1.942h.988l1.942,1.942a6.08,6.08,0,0,1-4.77,2.424h-2.846a7.921,7.921,0,0,1,4.687-1.911v-1.157a8.664,8.664,0,0,0-4.943,1.8v-.484c.237-.483,1.479-2.614,4.943-2.614Zm0-7.975h.988l1.942,1.942a6.08,6.08,0,0,1-4.77,2.423h-2.846a7.921,7.921,0,0,1,4.687-1.911v-1.156a8.664,8.664,0,0,0-4.943,1.8v-.484c.237-.483,1.479-2.614,4.943-2.614Zm-6.1,2.614v.484a8.664,8.664,0,0,0-4.943-1.8V163.9a7.921,7.921,0,0,1,4.687,1.911h-2.846a6.081,6.081,0,0,1-4.77-2.423l1.942-1.942h.988C134.151,161.445,135.392,163.582,135.626,164.059Zm0,0" transform="translate(-116.607 -148.018)"/>
    <path id="Trazado_897001" data-name="Trazado 897001" d="M247.984,136.246h1.227V137.4h-1.227Zm0,0" transform="translate(-229.001 -125.816)"/>
    <g id="Grupo_1106058" data-name="Grupo 1106058" transform="translate(16.529 10.43)">
      <path id="Trazado_897002" data-name="Trazado 897002" d="M280.043,136.246h1.227V137.4h-1.227Zm0,0" transform="translate(-275.135 -136.246)" fill="#fff"/>
      <path id="Trazado_897003" data-name="Trazado 897003" d="M215.926,136.246h1.227V137.4h-1.227Zm0,0" transform="translate(-215.926 -136.246)" fill="#fff"/>
    </g>
  </g>
</svg>
