<svg xmlns="http://www.w3.org/2000/svg" width="38.62" height="38.62" viewBox="0 0 38.62 38.62">
  <g id="compost_4745537" transform="translate(0)">
    <g id="Grupo_1106090" data-name="Grupo 1106090" transform="translate(0.602 0.804)">
      <g id="Grupo_1106089" data-name="Grupo 1106089">
        <g id="Grupo_1106083" data-name="Grupo 1106083">
          <g id="Grupo_1106082" data-name="Grupo 1106082">
            <g id="Grupo_1106059" data-name="Grupo 1106059" transform="translate(4.738 0)">
              <path id="Trazado_897004" data-name="Trazado 897004" d="M82.495,10.66l-1.886,1.509L78.723,10.66l-1.886,1.509L74.951,10.66l-1.886,1.509L71.18,10.66l-.393.478,2.364,6.149,3.693.557,3.731-.557L82.9,11.138Z" transform="translate(-70.787 -10.66)" fill="#72869e"/>
            </g>
            <g id="Grupo_1106060" data-name="Grupo 1106060" transform="translate(4.738)">
              <path id="Trazado_897005" data-name="Trazado 897005" d="M74.312,15.518l-1.306-3.4L71.18,10.66l-.393.478,2.364,6.149h7.424l.67-1.77Z" transform="translate(-70.787 -10.66)" fill="#536275"/>
            </g>
            <g id="Grupo_1106061" data-name="Grupo 1106061" transform="translate(5.7 6.628)">
              <path id="Trazado_897006" data-name="Trazado 897006" d="M83.553,98.526H93.741V100.8H83.553Z" transform="translate(-83.553 -98.526)" fill="#f8e868"/>
            </g>
            <g id="Grupo_1106062" data-name="Grupo 1106062" transform="translate(5.7 6.628)">
              <path id="Trazado_897007" data-name="Trazado 897007" d="M83.553,98.526h1.618V100.8H83.553Z" transform="translate(-83.553 -98.526)" fill="#eed60f"/>
            </g>
            <g id="Grupo_1106063" data-name="Grupo 1106063" transform="translate(0.031 8.894)">
              <path id="Trazado_897008" data-name="Trazado 897008" d="M22.548,128.57h-6.8c-5.266,5.828-7.279,13.013-7.363,20.511v5.542h21.4v-7.9C29.34,140.092,27.247,133.789,22.548,128.57Z" transform="translate(-8.388 -128.57)" fill="#72869e"/>
            </g>
            <g id="Grupo_1106064" data-name="Grupo 1106064" transform="translate(0 8.894)">
              <path id="Trazado_897009" data-name="Trazado 897009" d="M9.712,152.851v-3.468c.084-7.5,1.859-14.26,7.531-20.511l-1.87-.3c-5.266,5.828-7.31,13.013-7.394,20.511v5.542h21.43v-1.772Z" transform="translate(-7.979 -128.57)" fill="#536275"/>
            </g>
            <g id="Grupo_1106065" data-name="Grupo 1106065" transform="translate(14.667 23.628)">
              <path id="Trazado_897010" data-name="Trazado 897010" d="M221.226,331.793a4.05,4.05,0,0,0-3.409-4.482,4.048,4.048,0,0,0-7.985-.044,4.048,4.048,0,0,0-3.976,4.571,4.042,4.042,0,0,0-3.43,4v1.683h22.791v-1.683A4.04,4.04,0,0,0,221.226,331.793Z" transform="translate(-202.425 -323.906)" fill="#d09851"/>
            </g>
            <g id="Grupo_1106066" data-name="Grupo 1106066" transform="translate(14.667 23.704)">
              <path id="Trazado_897011" data-name="Trazado 897011" d="M225.214,336.78H204.048a3.812,3.812,0,0,1,3.429-3.7,3.877,3.877,0,0,1,3.976-4.362,4.154,4.154,0,0,1,3.175-3.726,3.982,3.982,0,0,0-4.8,3.284,4.048,4.048,0,0,0-3.976,4.571,4.042,4.042,0,0,0-3.43,4v1.684h22.791v-1.684C225.216,336.82,225.214,336.8,225.214,336.78Z" transform="translate(-202.425 -324.915)" fill="#b28246"/>
            </g>
            <g id="Grupo_1106067" data-name="Grupo 1106067" transform="translate(3.966 16.804)">
              <path id="Trazado_897012" data-name="Trazado 897012" d="M62.834,235.167l.985-.731a6.8,6.8,0,1,1-.985.731Z" transform="translate(-60.563 -233.445)" fill="#e5ecf5"/>
            </g>
            <g id="Grupo_1106068" data-name="Grupo 1106068" transform="translate(3.966 18.32)">
              <path id="Trazado_897013" data-name="Trazado 897013" d="M68.512,264.444a6.788,6.788,0,0,1-5.4-10.9l-.277.206A6.789,6.789,0,1,0,72.7,263,6.76,6.76,0,0,1,68.512,264.444Z" transform="translate(-60.564 -253.543)" fill="#cad8eb"/>
            </g>
            <g id="Grupo_1106069" data-name="Grupo 1106069" transform="translate(9.131 20.789)">
              <path id="Trazado_897014" data-name="Trazado 897014" d="M130.666,286.276l-.8.8a2.841,2.841,0,0,0,0,4.018l.8.8.8-.8a2.841,2.841,0,0,0,0-4.018Z" transform="translate(-129.038 -286.276)" fill="#e2fc85"/>
            </g>
            <g id="Grupo_1106070" data-name="Grupo 1106070" transform="translate(9.132 21.91)">
              <path id="Trazado_897015" data-name="Trazado 897015" d="M131.73,301.136a5.408,5.408,0,0,0-1.067.75,5.409,5.409,0,0,0-1.067-.75,2.844,2.844,0,0,0-.339,2.762c0,.006.953,1.267,1.4,1.726l.008-.008.008.008c.448-.461,1.4-1.719,1.4-1.726A2.844,2.844,0,0,0,131.73,301.136Z" transform="translate(-129.044 -301.136)" fill="#caf62e"/>
            </g>
            <g id="Grupo_1106071" data-name="Grupo 1106071" transform="translate(10.759 23.062)">
              <path id="Trazado_897016" data-name="Trazado 897016" d="M154.577,316.4h-1.124a2.841,2.841,0,0,0-2.841,2.841v1.125h1.124a2.841,2.841,0,0,0,2.841-2.841Z" transform="translate(-150.611 -316.404)" fill="#caf62e"/>
            </g>
            <g id="Grupo_1106072" data-name="Grupo 1106072" transform="translate(10.759 23.274)">
              <path id="Trazado_897017" data-name="Trazado 897017" d="M153.289,321.415h-1.124v-1.124a2.832,2.832,0,0,1,.212-1.077,2.842,2.842,0,0,0-1.764,2.629v1.124h1.124a2.842,2.842,0,0,0,2.629-1.764A2.831,2.831,0,0,1,153.289,321.415Z" transform="translate(-150.612 -319.214)" fill="#bde62b"/>
            </g>
            <g id="Grupo_1106073" data-name="Grupo 1106073" transform="translate(6.793 23.062)">
              <path id="Trazado_897018" data-name="Trazado 897018" d="M98.038,316.4h1.124A2.841,2.841,0,0,1,102,319.245v1.125h-1.124a2.841,2.841,0,0,1-2.841-2.841Z" transform="translate(-98.038 -316.404)" fill="#caf62e"/>
            </g>
            <g id="Grupo_1106074" data-name="Grupo 1106074" transform="translate(6.793 23.062)">
              <path id="Trazado_897019" data-name="Trazado 897019" d="M99.323,316.409c-.053,0-.107,0-.161,0H98.038v1.124a2.841,2.841,0,0,0,2.841,2.841H102v-1.124c0-.054,0-.108,0-.161C100.214,319.084,99.323,318.387,99.323,316.409Z" transform="translate(-98.038 -316.404)" fill="#bde62b"/>
            </g>
            <g id="Grupo_1106078" data-name="Grupo 1106078" transform="translate(6.019 10.627)">
              <g id="Grupo_1106077" data-name="Grupo 1106077">
                <g id="Grupo_1106075" data-name="Grupo 1106075" transform="translate(1.328)">
                  <path id="Trazado_897020" data-name="Trazado 897020" d="M106.272,153.161l-.889-.7c.071-.09.153-.2.238-.31.161-.212.328-.431.47-.6l.863.732c-.123.145-.28.351-.432.552C106.432,152.953,106.346,153.066,106.272,153.161Z" transform="translate(-105.383 -151.552)" fill="#fff"/>
                </g>
                <g id="Grupo_1106076" data-name="Grupo 1106076" transform="translate(0 1.855)">
                  <path id="Trazado_897021" data-name="Trazado 897021" d="M88.756,177.694l-.98-.566c.169-.293.438-.681.635-.964l.013-.019.93.645-.013.019C89.166,177.061,88.9,177.441,88.756,177.694Z" transform="translate(-87.776 -176.145)" fill="#fff"/>
                </g>
              </g>
            </g>
            <g id="Grupo_1106079" data-name="Grupo 1106079" transform="translate(7.368 19.658)">
              <path id="Trazado_897022" data-name="Trazado 897022" d="M105.659,271.276h1.131v1.131h-1.131Z" transform="translate(-105.659 -271.276)" fill="#fff"/>
            </g>
            <g id="Grupo_1106080" data-name="Grupo 1106080" transform="translate(27.522 29.523)">
              <circle id="Elipse_11682" data-name="Elipse 11682" cx="1.102" cy="1.102" r="1.102" transform="translate(0 0)" fill="#db380e"/>
            </g>
            <g id="Grupo_1106081" data-name="Grupo 1106081" transform="translate(7.959 2.666)">
              <path id="Trazado_897023" data-name="Trazado 897023" d="M113.5,46h1.131v1.131H113.5Z" transform="translate(-113.5 -46)" fill="#fff"/>
            </g>
          </g>
        </g>
        <g id="Grupo_1106084" data-name="Grupo 1106084" transform="translate(30.058 19.658)">
          <path id="Trazado_897024" data-name="Trazado 897024" d="M413.853,271.276H411.6a5.118,5.118,0,0,0-5.118,5.118v2.256h2.256a5.118,5.118,0,0,0,5.118-5.118Z" transform="translate(-406.479 -271.276)" fill="#caf62e"/>
        </g>
        <g id="Grupo_1106085" data-name="Grupo 1106085" transform="translate(30.021 20.321)">
          <path id="Trazado_897025" data-name="Trazado 897025" d="M410.35,286.627h-2.256v-2.256a5.093,5.093,0,0,1,.783-2.719,5.114,5.114,0,0,0-2.4,4.336v2.256h2.256a5.114,5.114,0,0,0,4.336-2.4A5.092,5.092,0,0,1,410.35,286.627Z" transform="translate(-406.44 -281.532)" fill="#bde62b"/>
          <path id="Trazado_897026" data-name="Trazado 897026" d="M408.273,286.812h-2.293v-2.293a5.132,5.132,0,0,1,2.417-4.368l.14-.088-.088.14a5.067,5.067,0,0,0-.777,2.7v2.218h2.218a5.066,5.066,0,0,0,2.7-.777l.14-.088-.088.14a5.132,5.132,0,0,1-4.367,2.417Zm-2.218-.075h2.218a5.055,5.055,0,0,0,4.214-2.244,5.141,5.141,0,0,1-2.6.7H407.6V282.9a5.142,5.142,0,0,1,.7-2.6,5.055,5.055,0,0,0-2.244,4.214v2.218Z" transform="translate(-405.979 -280.063)" fill="#bde62b"/>
        </g>
        <g id="Grupo_1106086" data-name="Grupo 1106086" transform="translate(33.709 21.778)">
          <path id="Trazado_897027" data-name="Trazado 897027" d="M0,0H1.13V1.132H0Z" transform="translate(0 0.799) rotate(-45)" fill="#fff"/>
        </g>
        <g id="Grupo_1106087" data-name="Grupo 1106087" transform="translate(20.971 31.58)">
          <path id="Trazado_897028" data-name="Trazado 897028" d="M286,429.338h2.058a3.6,3.6,0,0,1,3.6,3.6V435H289.6a3.6,3.6,0,0,1-3.6-3.6Z" transform="translate(-286 -429.338)" fill="#e2fc85"/>
        </g>
        <g id="Grupo_1106088" data-name="Grupo 1106088" transform="translate(20.971 31.58)">
          <path id="Trazado_897029" data-name="Trazado 897029" d="M289.482,433.377a1.865,1.865,0,0,1-1.865-1.865v-2.175H286v2.058a3.6,3.6,0,0,0,3.6,3.6h2.058v-1.617Z" transform="translate(-286 -429.337)" fill="#caf62e"/>
        </g>
      </g>
    </g>
    <g id="Grupo_1106091" data-name="Grupo 1106091" transform="translate(0 0)">
      <path id="Trazado_897030" data-name="Trazado 897030" d="M435.872,496.99H437v1.132h-1.132Z" transform="translate(-402.995 -459.503)"/>
      <path id="Trazado_897031" data-name="Trazado 897031" d="M34.659,31.806a4.632,4.632,0,0,0-1.544-3.4,5.694,5.694,0,0,0,5.48-5.683V19.9H35.771a5.694,5.694,0,0,0-5.682,5.441,4.677,4.677,0,0,0-7.623,1.143A29.723,29.723,0,0,0,16,10.262h1.035v-3.4h-1.11l2.155-5.7L17.1.005l-1.963,1.57L13.251.066l-1.887,1.51L9.478.066,7.591,1.576,5.621,0,4.664,1.165,6.852,6.857H5.708v3.4H6.729C2.375,15.538.089,22.242,0,30.213v6.115H14.681V38.62H31.745V37.487H27.782V35.994a4.173,4.173,0,0,0-4.168-4.168H20.989v2.625a4.156,4.156,0,0,0,1.317,3.036H15.813V36.369a3.59,3.59,0,0,1,3.5-3.522,3.556,3.556,0,0,1,3.819-4.483c.3-4.507,6.894-4.459,6.946.044a3.216,3.216,0,0,1,2.791,1.423,4.6,4.6,0,0,1,.543,3.054,3.587,3.587,0,0,1,4.07,3.484v1.119H35.142V38.62H38.62V36.369a4.63,4.63,0,0,0-3.96-4.563ZM22.121,34.452V32.959h1.493a3.039,3.039,0,0,1,3.036,3.036v.692L24.343,34.38l-.8.8,2.307,2.307h-.692a3.039,3.039,0,0,1-3.036-3.036ZM6.84,7.989H9.15V6.857H8.065L6.148,1.872,7.591,3.026l1.887-1.51,1.887,1.51,1.887-1.51,1.887,1.51,1.468-1.175L14.714,6.857H10.282V7.989H15.9V9.13H6.84ZM19.214,28.816a4.591,4.591,0,0,0-1.137,3.1,4.609,4.609,0,0,0-3.243,3.274H1.139V30.222c.09-8.072,2.492-14.788,7.082-19.965l6.3.009a28.668,28.668,0,0,1,6.9,17.142A4.616,4.616,0,0,0,19.214,28.816Zm16.557-7.788h1.691v1.691a4.561,4.561,0,0,1-4.556,4.556h-.891l2.269-2.269-.8-.8-2.269,2.269v-.891A4.561,4.561,0,0,1,35.771,21.028Z" transform="translate(0 0)"/>
      <path id="Trazado_897032" data-name="Trazado 897032" d="M90.165,279.961a3.413,3.413,0,0,0,3.409,3.409h2.25a3.413,3.413,0,0,0,3.409-3.409V278.27H97.543a3.4,3.4,0,0,0-.806.1,3.416,3.416,0,0,0-.845-1.4l-1.2-1.2-1.2,1.2a3.416,3.416,0,0,0-.844,1.4,3.405,3.405,0,0,0-.8-.1H90.165ZM98.1,279.4v.559a2.28,2.28,0,0,1-2.277,2.277h-.559v-.559a2.28,2.28,0,0,1,2.277-2.277Zm-3.8-1.635.4-.4.4.4a2.28,2.28,0,0,1,.6,1.053,3.436,3.436,0,0,0-.989.98,3.434,3.434,0,0,0-1-.984A2.281,2.281,0,0,1,94.3,277.767Zm-3,1.635h.559a2.28,2.28,0,0,1,2.277,2.277v.559h-.559a2.28,2.28,0,0,1-2.277-2.277V279.4Z" transform="translate(-83.364 -254.97)"/>
      <path id="Trazado_897033" data-name="Trazado 897033" d="M64.922,227.782l-.754.845a6.209,6.209,0,1,1-.9-.671l.59-.966a7.369,7.369,0,1,0,1.067.792Z" transform="translate(-48.692 -208.874)"/>
      <path id="Trazado_897034" data-name="Trazado 897034" d="M368.324,400.284a1.7,1.7,0,1,0,1.7-1.7A1.7,1.7,0,0,0,368.324,400.284Zm2.264,0a.566.566,0,1,1-.566-.566A.567.567,0,0,1,370.588,400.284Z" transform="translate(-340.542 -368.521)"/>
      <path id="Trazado_897035" data-name="Trazado 897035" d="M323.292,391.081h1.132v1.132h-1.132Z" transform="translate(-298.906 -361.582)"/>
      <path id="Trazado_897036" data-name="Trazado 897036" d="M241.085,466.6h1.132v1.132h-1.132Z" transform="translate(-222.9 -431.403)"/>
      <path id="Trazado_897037" data-name="Trazado 897037" d="M450.744,466.6h1.132v1.132h-1.132Z" transform="translate(-416.745 -431.404)"/>
    </g>
  </g>
</svg>
