<svg xmlns="http://www.w3.org/2000/svg" width="31.72" height="38.131" viewBox="0 0 31.72 38.131">
  <g id="leaf_921825" transform="translate(-43.042)">
    <path id="Trazado_897053" data-name="Trazado 897053" d="M99.535,103.36q-1.363-.341-2.836-.781a8.759,8.759,0,0,1-1.275-1.748A9.885,9.885,0,0,1,95.5,90.813c1.05-1.94,3.025-3.354,5.435-4.59,2.108-1.08,4.549-2.025,7-3.068.792-.336,1.583-.684,2.365-1.049q.692-.323,1.372-.667a22.174,22.174,0,0,0,6.187-4.374,1.139,1.139,0,0,1,1.972.73,36.283,36.283,0,0,0,.708,6.089C121.535,88.463,126.113,110,99.535,103.36Z" transform="translate(-47.262 -70.989)" fill="#60dc4d"/>
    <g id="Grupo_1106093" data-name="Grupo 1106093" transform="translate(48.163 5.712)">
      <path id="Trazado_897054" data-name="Trazado 897054" d="M185.85,166.427c2.108-1.08,4.549-2.025,7-3.068v7.34a.966.966,0,0,1-.966.966h-5.067a.966.966,0,0,1-.966-.966v-4.272Z" transform="translate(-180.335 -156.905)" fill="#26ba02"/>
      <path id="Trazado_897055" data-name="Trazado 897055" d="M129.945,235.7a38.263,38.263,0,0,1-8.582,7.585,23.361,23.361,0,0,0-5.451,4.939q-1.363-.341-2.836-.781A8.758,8.758,0,0,1,111.8,245.7a17.452,17.452,0,0,1,4.723-4.244c5.436-3.329,8.825-5.557,11.154-7.8a1.525,1.525,0,0,1,1.06-.432,1.552,1.552,0,0,1,1.385.872A1.51,1.51,0,0,1,129.945,235.7Z" transform="translate(-111.801 -221.568)" fill="#26ba02"/>
      <path id="Trazado_897056" data-name="Trazado 897056" d="M277.382,104.609c15.656-.48,12.182-16.806,11.332-20.725a36.285,36.285,0,0,1-.708-6.089,1.111,1.111,0,0,0-.409-.832,1.138,1.138,0,0,1,1.862.832,36.285,36.285,0,0,0,.708,6.089C291.042,87.919,294.7,105.115,277.382,104.609Z" transform="translate(-265.05 -76.702)" fill="#26ba02"/>
    </g>
    <path id="Trazado_897057" data-name="Trazado 897057" d="M87.189,268.26a1.341,1.341,0,0,1-.694-1.627,17.14,17.14,0,0,1,7.174-9.188c5.165-3.163,8.838-5.531,11.36-7.954a.326.326,0,0,1,.485.434,36.61,36.61,0,0,1-8.313,7.333c-6,4.087-7.674,7.909-8.117,10.058a1.343,1.343,0,0,1-1.9.945Z" transform="translate(-40.155 -230.822)" fill="#a4e869"/>
    <path id="Trazado_897058" data-name="Trazado 897058" d="M174.516,63.33l-4.63-4.63a.46.46,0,0,0-.651,0l-4.63,4.63a.46.46,0,0,0,.326.786h2.335v8.9a.46.46,0,0,0,.46.46h3.669a.46.46,0,0,0,.46-.46v-8.9h2.335A.46.46,0,0,0,174.516,63.33Z" transform="translate(-112.384 -54.204)" fill="#ff9300"/>
    <path id="Trazado_897059" data-name="Trazado 897059" d="M107.147,60.5a.559.559,0,0,0-1.093.231q.321,1.515.506,2.867a.558.558,0,0,0-.048.05c-2.17,2.623-6.793,4.474-9.595,5.406a25.3,25.3,0,0,0,2.1-2.344.879.879,0,0,0,.184-.651A29.15,29.15,0,0,0,105.237,54.1a40.823,40.823,0,0,0,.378,4.27.559.559,0,0,0,1.105-.161,39.738,39.738,0,0,1-.368-4.161,1.7,1.7,0,0,0-2.936-1.091c-2.561,2.717-6.243,4.482-10.164,6.14V57.732H95.03a1.019,1.019,0,0,0,.721-1.739l-4.63-4.63a1.019,1.019,0,0,0-1.441,0l-1.067,1.067a.559.559,0,0,0,.79.79l1-1,4.393,4.393h-2.1a.558.558,0,0,0-.559.559v2.751c0,.005,0,.01,0,.015V65.97H88.664v-8.8a.559.559,0,0,0-.559-.559h-2.1l1.75-1.75a.559.559,0,1,0-.79-.79l-1.918,1.918a1.019,1.019,0,0,0,.721,1.739h1.777v3.821c-2.533,1.208-5.23,2.784-6.573,5.267a10.85,10.85,0,0,0-1.317,7.14A10.665,10.665,0,0,0,81.4,78.173,18.342,18.342,0,0,0,79.033,82.9a1.9,1.9,0,0,0,.982,2.3h0A1.9,1.9,0,0,0,82.7,83.868a10.909,10.909,0,0,1,1.774-3.924c1.544.41,3.033.742,4.43.984a.559.559,0,1,0,.191-1.1c-1.235-.214-2.545-.5-3.9-.85a22.273,22.273,0,0,1,3.629-3.529,18.507,18.507,0,0,0,4.947.628q.328,0,.671-.011a21.8,21.8,0,0,0,11.969-4.115,10.838,10.838,0,0,1-2.433,4.944c-2.537,2.8-6.771,3.9-12.588,3.26a.559.559,0,0,0-.122,1.11,29.119,29.119,0,0,0,3.175.183c4.6,0,8.073-1.274,10.363-3.8,2-2.209,3.067-5.343,3.172-9.315A34.464,34.464,0,0,0,107.147,60.5Zm-2.986-6.707A28.564,28.564,0,0,1,98.4,65.281a.882.882,0,0,0-.69.247q-.391.376-.822.752a12.232,12.232,0,0,1,2.125-8.652c.008-.01.014-.021.021-.032A21.129,21.129,0,0,0,104.162,53.79Zm-11.928,13.3a1.02,1.02,0,0,0,1.019-1.019V60.305c1.316-.552,2.61-1.113,3.853-1.714a13.236,13.236,0,0,0-1.419,5.451,13.715,13.715,0,0,0,.2,3.075c-1.246,1-2.725,2.034-4.519,3.2a17.025,17.025,0,0,1-.4-3.234h1.27Zm-3.669,0h1.281a17.735,17.735,0,0,0,.524,3.876c-1.178.752-2.479,1.56-3.925,2.445A16.8,16.8,0,0,0,85,74.4c-.5-1.812-1.5-6.69.774-10.484a.556.556,0,0,0,.074-.214c.556-.329,1.129-.631,1.7-.913v3.274A1.02,1.02,0,0,0,88.565,67.087Zm-6.609.263a8.121,8.121,0,0,1,2.079-2.4,13.608,13.608,0,0,0-.786,5.65,19.631,19.631,0,0,0,.81,4.58,16.949,16.949,0,0,0-1.948,2.048A9.279,9.279,0,0,1,81.956,67.351ZM83.8,78.95a.554.554,0,0,0-.039.054c-.031.043-.063.085-.093.128a12.169,12.169,0,0,0-2.066,4.511.787.787,0,0,1-.423.55.775.775,0,0,1-.684,0,.784.784,0,0,1-.4-.949,16.463,16.463,0,0,1,6.935-8.886c1.58-.967,2.991-1.845,4.258-2.659a.545.545,0,0,0,.064-.041c1.7-1.094,3.14-2.075,4.377-3.009q-.616.588-1.3,1.182a.548.548,0,0,0-.067.058,49.718,49.718,0,0,1-4.4,3.344q-.822.56-1.569,1.136a.548.548,0,0,0-.046.036A22.732,22.732,0,0,0,83.8,78.95Zm22.85-8.574a20.834,20.834,0,0,1-12.2,4.571,18.977,18.977,0,0,1-4.473-.368q.294-.21.6-.42a50.976,50.976,0,0,0,4.437-3.365c1.1-.287,8.155-2.237,11.709-5.739a23.874,23.874,0,0,1-.036,5.291Z" transform="translate(-33.223 -47.261)"/>
    <path id="Trazado_897060" data-name="Trazado 897060" d="M46.026,5.967a2.984,2.984,0,1,0-2.984-2.984A2.987,2.987,0,0,0,46.026,5.967Zm0-4.85a1.867,1.867,0,1,1-1.867,1.867A1.869,1.869,0,0,1,46.026,1.117Z" transform="translate(0)"/>
    <path id="Trazado_897061" data-name="Trazado 897061" d="M110.547,67.556a.559.559,0,0,0,1.117,0,.234.234,0,1,1,.468,0c0,.308-.771.981-1.062,1.234-.142.124-.265.231-.36.326a.559.559,0,0,0,.395.954h1.875a.559.559,0,1,0,0-1.117h-.447a2.166,2.166,0,0,0,.716-1.4,1.351,1.351,0,0,0-2.7,0Z" transform="translate(-62.477 -61.274)"/>
    <path id="Trazado_897062" data-name="Trazado 897062" d="M411.572,284.83a.558.558,0,0,0-.559.559v.061a.559.559,0,1,0,1.117,0v-.061A.558.558,0,0,0,411.572,284.83Z" transform="translate(-340.567 -263.617)"/>
    <path id="Trazado_897063" data-name="Trazado 897063" d="M397.393,308.37a.558.558,0,0,0-.559.559v.061a.559.559,0,1,0,1.117,0v-.061A.558.558,0,0,0,397.393,308.37Z" transform="translate(-327.444 -285.404)"/>
    <path id="Trazado_897064" data-name="Trazado 897064" d="M347.285,409.291v-.061a.559.559,0,1,0-1.117,0v.061a.559.559,0,0,0,1.117,0Z" transform="translate(-280.551 -378.235)"/>
    <path id="Trazado_897065" data-name="Trazado 897065" d="M321.039,414.489v-.061a.559.559,0,0,0-1.117,0v.061a.559.559,0,0,0,1.117,0Z" transform="translate(-256.259 -383.046)"/>
    <path id="Trazado_897066" data-name="Trazado 897066" d="M43.6,97.949h2.673a.559.559,0,0,0,0-1.117H43.6a.559.559,0,1,0,0,1.117Z" transform="translate(0 -89.62)"/>
    <path id="Trazado_897067" data-name="Trazado 897067" d="M45.019,125.636H43.6a.559.559,0,1,0,0,1.117h1.419a.559.559,0,0,0,0-1.117Z" transform="translate(0 -116.279)"/>
    <path id="Trazado_897068" data-name="Trazado 897068" d="M45.019,145.636H43.6a.559.559,0,1,0,0,1.117h1.419a.559.559,0,0,0,0-1.117Z" transform="translate(0 -134.79)"/>
  </g>
</svg>
