<svg xmlns="http://www.w3.org/2000/svg" width="41.185" height="41.185" viewBox="0 0 41.185 41.185">
  <g id="water-scarcity_12405808" transform="translate(0 -0.001)">
    <g id="Grupo_1106693" data-name="Grupo 1106693" transform="translate(0.604 0.604)">
      <path id="Trazado_898910" data-name="Trazado 898910" d="M47.479,403.255l-.4.636.4.6V406.3a1.207,1.207,0,0,1-1.207,1.207H35.007l-.5-.245-1.222.245H19.613l-.666-.258-.541.258h-9.7A1.207,1.207,0,0,1,7.5,406.3v-2.412l.214-.652-.214-.591v-2.411a1.207,1.207,0,0,1,1.207-1.207H29.9l.65.211.594-.211H46.273a1.207,1.207,0,0,1,1.207,1.207Z" transform="translate(-7.501 -367.533)" fill="#df8a57"/>
      <path id="Trazado_898911" data-name="Trazado 898911" d="M365.064,16.854l-3.681-.736V13.695l3.681-.736a1.986,1.986,0,1,1,0,3.9Z" transform="translate(-332.913 -12.483)" fill="#7888af"/>
      <path id="Trazado_898912" data-name="Trazado 898912" d="M258.346,16.854l3.681-.736V13.695l-3.681-.736a1.986,1.986,0,1,0,0,3.9Z" transform="translate(-235.981 -12.483)" fill="#5972a5"/>
      <path id="Trazado_898913" data-name="Trazado 898913" d="M331.261,45.151h2.423V52.42h-2.423Z" transform="translate(-305.215 -42.122)" fill="#7888af"/>
      <path id="Trazado_898914" data-name="Trazado 898914" d="M332.473,45.151V50.6s-.595.733-1.212,1.5V45.151Z" transform="translate(-305.215 -42.122)" fill="#5972a5"/>
      <path id="Trazado_898915" data-name="Trazado 898915" d="M325.893,9.924a2.422,2.422,0,0,1-2.423,2.422l-.629-.307-.581-.017a2.429,2.429,0,0,1-.789-.73V8.555a2.423,2.423,0,0,1,4.422,1.369Z" transform="translate(-296.212 -7.501)" fill="#ffbe73"/>
      <path id="Trazado_898916" data-name="Trazado 898916" d="M318.633,12.346a2.423,2.423,0,0,1,0-4.845A4.578,4.578,0,0,0,318.633,12.346Z" transform="translate(-291.375 -7.501)" fill="#ffa93f"/>
      <path id="Trazado_898917" data-name="Trazado 898917" d="M189.85,135.5v7.269H175.3a2.413,2.413,0,0,0-2.413,2.413v3.644h-7.269v-3.672a9.654,9.654,0,0,1,9.654-9.654Z" transform="translate(-152.9 -125.203)" fill="#7888af"/>
      <path id="Trazado_898918" data-name="Trazado 898918" d="M189.85,135.5v3.634H175.289a6.034,6.034,0,0,0-6.034,6.034v3.658h-3.634v-3.672a9.654,9.654,0,0,1,9.654-9.654Z" transform="translate(-152.9 -125.203)" fill="#5972a5"/>
      <path id="Trazado_898919" data-name="Trazado 898919" d="M449.056,99.058v10.913a1.207,1.207,0,0,1-1.207,1.207h-1.225a2.413,2.413,0,0,1-2.413-2.413v-.615l.5-2.238-.5-1.4v-4.249a2.413,2.413,0,0,1,2.413-2.413h1.225a1.207,1.207,0,0,1,1.207,1.207Z" transform="translate(-409.078 -90.582)" fill="#5972a5"/>
      <path id="Trazado_898920" data-name="Trazado 898920" d="M447.547,111.177h-.923a2.413,2.413,0,0,1-2.413-2.413v-8.5a2.413,2.413,0,0,1,2.413-2.413h.776a2.7,2.7,0,0,0-.972,2.312v8.818A2.768,2.768,0,0,0,447.547,111.177Z" transform="translate(-409.078 -90.582)" fill="#3b5a9b"/>
      <path id="Trazado_898921" data-name="Trazado 898921" d="M314.738,114.118v8.49a1.207,1.207,0,0,1-1.207,1.207h-3.644a1.207,1.207,0,0,1-1.207-1.207V122l.927-3.4-.927-3.87v-.611a1.207,1.207,0,0,1,1.207-1.207h.61l.438.176.773-.176h1.822A1.207,1.207,0,0,1,314.738,114.118Z" transform="translate(-284.451 -104.431)" fill="#ffbe73"/>
      <path id="Trazado_898922" data-name="Trazado 898922" d="M311.709,123.814h-1.821a1.207,1.207,0,0,1-1.207-1.207v-8.49a1.207,1.207,0,0,1,1.207-1.207h1.821a1.309,1.309,0,0,0-.745,1.354v8.2S310.914,123.525,311.709,123.814Z" transform="translate(-284.451 -104.431)" fill="#ffa93f"/>
      <path id="Trazado_898923" data-name="Trazado 898923" d="M153.934,280.378a1.816,1.816,0,0,1-1.817,1.817h-7.269a1.817,1.817,0,1,1,0-3.634h7.269A1.817,1.817,0,0,1,153.934,280.378Z" transform="translate(-132.128 -256.754)" fill="#5972a5"/>
      <path id="Trazado_898924" data-name="Trazado 898924" d="M148.482,282.195h-3.634a1.817,1.817,0,1,1,0-3.634h3.634A2.823,2.823,0,0,0,148.482,282.195Z" transform="translate(-132.128 -256.754)" fill="#3b5a9b"/>
      <path id="Trazado_898925" data-name="Trazado 898925" d="M181.626,360.689a3.029,3.029,0,0,1-2.578,3l-1.583-.559-1.684-3.648a9,9,0,0,1,2.1-3.158,1,1,0,0,1,1.438,0c.9.92,2.31,2.644,2.31,4.369Z" transform="translate(-162.243 -327.979)" fill="#c2eafb"/>
      <path id="Trazado_898926" data-name="Trazado 898926" d="M176.63,363.684a3.08,3.08,0,0,1-.451.033,3.028,3.028,0,0,1-3.028-3.028c0-1.725,1.413-3.45,2.31-4.369a1,1,0,0,1,.793-.3c-.439.974-2.438,5.829.376,7.664Z" transform="translate(-159.825 -327.979)" fill="#91d4f2"/>
    </g>
    <g id="Grupo_1106694" data-name="Grupo 1106694" transform="translate(0 0.001)">
      <path id="Trazado_898927" data-name="Trazado 898927" d="M39.375,351.973H32.3a.6.6,0,0,0,0,1.207h7.077a.6.6,0,0,1,.6.6v2.866l-1.221-.305a.6.6,0,0,1-.356-.251l-.953-1.429a.6.6,0,1,0-1,.669l.937,1.406-.862.862a.6.6,0,0,0,.853.853l.974-.974,1.63.413v1.957a.6.6,0,0,1-.6.6H28.713c.975-.975,1.024-1,1.175-1.25l1.679-.42a1.806,1.806,0,0,1,1.011.039,5.939,5.939,0,0,0,1.341.415.6.6,0,0,0,.191-1.176l-1.151-.383a3.013,3.013,0,0,0-1.686-.065l-1.158.29-.457-1.838a.6.6,0,0,0-1.171.293l.44,1.76a.606.606,0,0,1-.159.573l-1.763,1.763H12.716v-1.32a1.8,1.8,0,0,0-.53-1.28l-.936-.936a.6.6,0,0,1-.146-.617l.37-1.11a.6.6,0,1,0-1.145-.382l-.37,1.11a1.8,1.8,0,0,0,.437,1.852l.936.936a.6.6,0,0,1,.177.427v1.32H1.81a.6.6,0,0,1-.6-.6v-2.562l1.189-.3a.6.6,0,0,1,.629.223l.974,1.3a1.818,1.818,0,0,0,1.448.724H6.661a.6.6,0,1,0,0-1.207H5.447a.606.606,0,0,1-.483-.241,10.9,10.9,0,0,0-1.254-1.6l.462-.924a.6.6,0,0,0-1.079-.54l-.519,1.037a5.227,5.227,0,0,0-1.367.277v-2.261a.6.6,0,0,1,.6-.6H13.374a3.635,3.635,0,1,0,7.169,0H23.15l.3,1.188a.6.6,0,0,1-.223.629l-1.3.974a1.819,1.819,0,0,0-.724,1.448v1.214a.6.6,0,1,0,1.207,0V357.42a.606.606,0,0,1,.241-.483,11.768,11.768,0,0,0,1.566-1.221l1.495,1a.6.6,0,1,0,.669-1l-1.708-1.139a2.024,2.024,0,0,0-.083-.622l-.194-.768h5.088a.6.6,0,1,0,0-1.207H20.2A10.045,10.045,0,0,0,18.109,349a1.606,1.606,0,0,0-2.3,0,10.045,10.045,0,0,0-2.086,2.975H1.81A1.812,1.812,0,0,0,0,353.783v6.067a1.812,1.812,0,0,0,1.81,1.81H39.375a1.812,1.812,0,0,0,1.81-1.81v-6.067a1.812,1.812,0,0,0-1.81-1.81Zm-22.7-2.133a.4.4,0,0,1,.573,0c.8.82,2.139,2.423,2.139,3.948a2.425,2.425,0,0,1-4.851,0C14.533,352.263,15.873,350.66,16.672,349.84Z" transform="translate(0 -320.475)"/>
      <path id="Trazado_898928" data-name="Trazado 898928" d="M165.209,11.414a.6.6,0,0,0,.6-.6V9.08A1.812,1.812,0,0,0,164,7.27h-1.225A3.02,3.02,0,0,0,159.76,10.3c-3.639,0-3.64,0-3.64-.007a1.812,1.812,0,0,0-1.817-1.81V5.447a3.054,3.054,0,0,0,.425-.387l2.493.5a2.589,2.589,0,1,0,.041-5.069l-2.534.507a3.022,3.022,0,0,0-4.481,0L147.714.488A2.59,2.59,0,1,0,147.8,5.55l2.45-.489a3.051,3.051,0,0,0,.425.387V8.481a1.812,1.812,0,0,0-1.817,1.817H147.6a10.165,10.165,0,0,0-7.425,3.181.6.6,0,0,0,.874.832,8.97,8.97,0,0,1,6.552-2.807h1.251v6.062h-1.223a3.02,3.02,0,0,0-3.017,3.017v1.223h-6.062V20.556a8.941,8.941,0,0,1,.974-4.087.6.6,0,1,0-1.076-.546,10.136,10.136,0,0,0-1.1,4.634v1.328a2.421,2.421,0,0,0,.6,4.765h7.269a2.421,2.421,0,0,0,.6-4.765v-1.3a1.812,1.812,0,0,1,1.81-1.81h1.223a1.812,1.812,0,0,0,1.81,1.817h3.644a1.812,1.812,0,0,0,1.81-1.817h3.64a3.02,3.02,0,0,0,3.017,3.029H164a1.812,1.812,0,0,0,1.81-1.81V13.626a.6.6,0,1,0-1.207,0v6.367a.6.6,0,0,1-.6.6h-1.225a1.812,1.812,0,0,1-1.81-1.81v-8.5a1.812,1.812,0,0,1,1.81-1.81H164a.6.6,0,0,1,.6.6v1.73a.6.6,0,0,0,.6.6ZM146.433,24.228a1.215,1.215,0,0,1-1.214,1.214h-7.269a1.214,1.214,0,1,1,0-2.428h7.269A1.215,1.215,0,0,1,146.433,24.228ZM157.5,1.671a1.385,1.385,0,1,1-.109,2.69l-2.023-.4a3.018,3.018,0,0,0,0-1.86Zm-5.011-.464a1.82,1.82,0,1,1-1.82,1.82A1.822,1.822,0,0,1,152.488,1.208Zm-6.665,1.82a1.383,1.383,0,0,1,1.654-1.356l2.132.426a3.018,3.018,0,0,0,0,1.86l-1.978.4a1.392,1.392,0,0,1-1.808-1.326Zm6.057,2.965a3.04,3.04,0,0,0,1.216,0V8.481H151.88Zm3.034,12.789a.6.6,0,0,1-.6.6h-3.644a.6.6,0,0,1-.6-.6v-8.49a.6.6,0,0,1,.6-.6h3.644a.6.6,0,0,1,.6.6Zm1.207-1.214V11.505h3.64v6.062Z" transform="translate(-124.627 -0.001)"/>
    </g>
  </g>
</svg>
