<svg xmlns="http://www.w3.org/2000/svg" xmlns:xlink="http://www.w3.org/1999/xlink" width="117.828" height="117.828" viewBox="0 0 117.828 117.828">
  <defs>
    <filter id="Trazado_895688" x="0" y="0" width="117.828" height="117.828" filterUnits="userSpaceOnUse">
      <feOffset dy="3" input="SourceAlpha"/>
      <feGaussianBlur stdDeviation="3" result="blur"/>
      <feFlood flood-opacity="0.161"/>
      <feComposite operator="in" in2="blur"/>
      <feComposite in="SourceGraphic"/>
    </filter>
  </defs>
  <g id="Grupo_1105898" data-name="Grupo 1105898" transform="translate(9 6)">
    <g id="Grupo_1105886" data-name="Grupo 1105886" transform="translate(0 0)">
      <g id="Grupo_1105885" data-name="Grupo 1105885" transform="translate(0 0)">
        <g transform="matrix(1, 0, 0, 1, -9, -6)" filter="url(#Trazado_895688)">
          <g id="Trazado_895688-2" data-name="Trazado 895688" transform="translate(9 6)" fill="#ecdb9f">
            <path d="M 49.91411209106445 97.32756042480469 L 49.91388320922852 97.32756042480469 C 43.51194381713867 97.32756042480469 37.30283737182617 96.07430267333984 31.45902061462402 93.60257720947266 C 25.81331253051758 91.21463775634766 20.7424201965332 87.79559326171875 16.38720512390137 83.44037628173828 C 12.03199005126953 79.08515930175781 8.61292839050293 74.0142822265625 6.224989891052246 68.36857604980469 C 3.753267049789429 62.5247917175293 2.500005483627319 56.31570053100586 2.500005483627319 49.91377639770508 C 2.500005483627319 43.5118522644043 3.753267049789429 37.30276107788086 6.224989891052246 31.45896148681641 C 8.61292839050293 25.81326866149902 12.03199005126953 20.74239158630371 16.38720512390137 16.38717651367188 C 20.7424201965332 12.0319766998291 25.81331253051758 8.6129150390625 31.45902061462402 6.224991798400879 C 37.30283737182617 3.753268718719482 43.51194381713867 2.500007152557373 49.91388320922852 2.500007152557373 C 56.3160514831543 2.500007152557373 62.5251579284668 3.753268718719482 68.36897277832031 6.224991798400879 C 74.01467895507812 8.6129150390625 79.0855712890625 12.0319766998291 83.44077301025391 16.38717651367188 C 87.79598999023438 20.74237632751465 91.21504974365234 25.81326866149902 93.60298919677734 31.45896148681641 C 96.07471466064453 37.30276107788086 97.32797241210938 43.5118522644043 97.32797241210938 49.91377639770508 C 97.32797241210938 56.31570053100586 96.07471466064453 62.5247917175293 93.60298919677734 68.36857604980469 C 91.21504974365234 74.0142822265625 87.79598999023438 79.08515930175781 83.44077301025391 83.44037628173828 C 79.0855712890625 87.79559326171875 74.01467895507812 91.21463775634766 68.36895751953125 93.60257720947266 C 62.5251579284668 96.07430267333984 56.3160514831543 97.32756042480469 49.91411209106445 97.32756042480469 Z" stroke="none"/>
            <path d="M 49.91387939453125 4.999992370605469 C 43.84833526611328 4.999992370605469 37.96689987182617 6.186813354492188 32.43289947509766 8.527488708496094 C 27.08518981933594 10.78937530517578 22.28138732910156 14.02851867675781 18.15496826171875 18.15493774414062 C 14.02853393554688 22.28135681152344 10.78939056396484 27.08513641357422 8.527496337890625 32.43284606933594 C 6.186805725097656 37.96681213378906 4.999992370605469 43.84824752807617 4.999992370605469 49.91377639770508 C 4.999992370605469 55.97928619384766 6.186805725097656 61.86072158813477 8.527496337890625 67.39469909667969 C 10.78939056396484 72.74241638183594 14.02853393554688 77.54617309570312 18.15496826171875 81.67261505126953 C 22.28138732910156 85.79903411865234 27.08518981933594 89.03817749023438 32.43289947509766 91.30006408691406 C 37.96689987182617 93.64073944091797 43.84833526611328 94.82756042480469 49.91411590576172 94.82756042480469 C 55.97964477539062 94.82756042480469 61.86109924316406 93.64073944091797 67.39508056640625 91.30006408691406 C 72.74279022216797 89.03817749023438 77.54659271240234 85.79903411865234 81.67300415039062 81.67261505126953 C 85.79942321777344 77.54619598388672 89.03857421875 72.74241638183594 91.30046081542969 67.39469909667969 C 93.64115142822266 61.86072158813477 94.82797241210938 55.97930526733398 94.82797241210938 49.91377639770508 C 94.82797241210938 43.84824752807617 93.64115142822266 37.96681213378906 91.30046081542969 32.43284606933594 C 89.03857421875 27.08513641357422 85.79942321777344 22.28135681152344 81.67300415039062 18.15493774414062 C 77.54659271240234 14.02851867675781 72.74279022216797 10.78937530517578 67.39508056640625 8.527488708496094 C 61.86109924316406 6.186813354492188 55.97964477539062 4.999992370605469 49.91411590576172 4.999992370605469 L 49.91387939453125 4.999992370605469 M 49.91387939453125 -7.62939453125e-06 L 49.91411590576172 -7.62939453125e-06 C 77.48077392578125 -7.62939453125e-06 99.82797241210938 22.34716033935547 99.82797241210938 49.91377639770508 C 99.82797241210938 77.48037719726562 77.48077392578125 99.82756042480469 49.91411590576172 99.82756042480469 L 49.91387939453125 99.82756042480469 C 22.34720611572266 99.82756042480469 -7.62939453125e-06 77.48037719726562 -7.62939453125e-06 49.91377639770508 C -7.62939453125e-06 22.34716033935547 22.34720611572266 -7.62939453125e-06 49.91387939453125 -7.62939453125e-06 Z" stroke="none" fill="#f3d02c"/>
          </g>
        </g>
      </g>
    </g>
    <g id="Grupo_1105895" data-name="Grupo 1105895" transform="translate(24.679 17.962)">
      <g id="rock_6057150" transform="translate(0 15.332)">
        <g id="Grupo_1105891" data-name="Grupo 1105891" transform="translate(0.739 0.739)">
          <path id="Trazado_896437" data-name="Trazado 896437" d="M55.5,56.877l-48,1.68V71.61L10.145,77,7.5,82.692V95.44l48.006.986Z" transform="translate(-7.5 -55.599)" fill="#d6995c"/>
          <path id="Trazado_896438" data-name="Trazado 896438" d="M56.491,85.312V72.258L54.52,70.765V107.22a.739.739,0,0,1-.739.739H7.5v.493a1.479,1.479,0,0,0,1.479,1.479H55.013a1.479,1.479,0,0,0,1.479-1.479V96.394l-1.226-6.4Z" transform="translate(-7.5 -68.118)" fill="#c48958"/>
          <path id="Trazado_896439" data-name="Trazado 896439" d="M54.519,207.447c-3.047-.263-3.692-1.105-7.827-1.105-4.9,0-4.9,1.183-9.8,1.183s-4.9-1.183-9.8-1.183-4.9,1.183-9.8,1.183-4.9-1.183-9.8-1.183v3.694l1.447,2-1.447,1.7v3.694c4.9,0,4.9,1.183,9.8,1.183s4.9-1.183,9.8-1.183,4.9,1.183,9.8,1.183,4.9-1.183,9.8-1.183c4.135,0,4.78.843,7.827,1.105l1.275-5.579Z" transform="translate(-7.499 -190.33)" fill="#e3a76f"/>
          <path id="Trazado_896440" data-name="Trazado 896440" d="M486.47,221.326v-3.694c-.764,0-1.409-.029-1.972-.077v11.082c.563.049,1.208.077,1.972.077V225.02l-.7-1.962Z" transform="translate(-437.478 -200.438)" fill="#d6995c"/>
          <path id="Trazado_896441" data-name="Trazado 896441" d="M36.894,245c-4.9,0-4.9-1.183-9.8-1.183S22.2,245,17.3,245s-4.9-1.183-9.8-1.183v3.694c4.9,0,4.9,1.183,9.8,1.183s4.9-1.183,9.8-1.183,4.9,1.183,9.8,1.183,4.9-1.183,9.8-1.183c4.135,0,4.78.843,7.827,1.106l.9-1.808-.9-1.886c-3.047-.263-3.692-1.105-7.827-1.105C41.793,243.815,41.793,245,36.894,245Z" transform="translate(-7.5 -224.11)" fill="#f2bb88"/>
          <path id="Trazado_896442" data-name="Trazado 896442" d="M484.5,258.724c.563.049,1.208.077,1.972.077v-3.694c-.764,0-1.409-.029-1.972-.077Z" transform="translate(-437.478 -234.219)" fill="#e3a76f"/>
          <path id="Trazado_896443" data-name="Trazado 896443" d="M7.5,45.39v1.479c4.9,0,4.9,1.183,9.8,1.183s4.9-1.183,9.8-1.183,4.9,1.183,9.8,1.183,4.9-1.183,9.8-1.183c4.135,0,4.78.843,7.827,1.106l.986-1.764-.986-2.3H8.979A1.479,1.479,0,0,0,7.5,45.39Z" transform="translate(-7.5 -43.911)" fill="#ccf49f"/>
          <path id="Trazado_896444" data-name="Trazado 896444" d="M484.991,43.912H484.5v4.063c.563.049,1.208.077,1.972.077V45.391A1.479,1.479,0,0,0,484.991,43.912Z" transform="translate(-437.478 -43.912)" fill="#b3e59f"/>
          <path id="Trazado_896445" data-name="Trazado 896445" d="M409.091,364.847a3.49,3.49,0,0,0-.939-1.528,3.263,3.263,0,0,0-4.172,4.172,2.475,2.475,0,0,0,1.446.887A3.866,3.866,0,0,0,409.091,364.847Z" transform="translate(-364.725 -331.661)" fill="#f2bb88"/>
          <path id="Trazado_896446" data-name="Trazado 896446" d="M409.9,365.062a3.263,3.263,0,0,1-4.172,4.172,3.263,3.263,0,1,0,4.172-4.172Z" transform="translate(-366.469 -333.405)" fill="#e3a76f"/>
          <path id="Trazado_896447" data-name="Trazado 896447" d="M360.958,321.668c0-.149-.315-.423-.493-.655a1.478,1.478,0,0,0-1.844,1.844,1.577,1.577,0,0,0,.789.534A1.766,1.766,0,0,0,360.958,321.668Z" transform="translate(-323.952 -293.64)" fill="#f2bb88"/>
          <path id="Trazado_896448" data-name="Trazado 896448" d="M361.049,321.6a1.478,1.478,0,0,1-1.844,1.844,1.479,1.479,0,1,0,1.844-1.844Z" transform="translate(-324.536 -294.223)" fill="#e3a76f"/>
          <path id="Trazado_896449" data-name="Trazado 896449" d="M276.908,368.227c0-.61-.885-1.4-1.5-2.2a4.056,4.056,0,0,0-5.386,5.386,5.449,5.449,0,0,0,2.4,1.476A5,5,0,0,0,276.908,368.227Z" transform="translate(-243.801 -333.932)" fill="#f2bb88"/>
          <path id="Trazado_896450" data-name="Trazado 896450" d="M278.851,369.47a4.056,4.056,0,0,1-5.386,5.386,4.056,4.056,0,1,0,5.386-5.386Z" transform="translate(-247.248 -337.378)" fill="#e3a76f"/>
          <path id="Trazado_896451" data-name="Trazado 896451" d="M184.989,320.557a3.491,3.491,0,0,0-.939-1.528,3.263,3.263,0,0,0-4.172,4.172,2.475,2.475,0,0,0,1.446.887A3.865,3.865,0,0,0,184.989,320.557Z" transform="translate(-162.714 -291.737)" fill="#f2bb88"/>
          <path id="Trazado_896452" data-name="Trazado 896452" d="M185.793,320.772a3.263,3.263,0,0,1-4.172,4.172,3.263,3.263,0,1,0,4.172-4.172Z" transform="translate(-164.457 -293.481)" fill="#e3a76f"/>
          <path id="Trazado_896453" data-name="Trazado 896453" d="M53.134,375.088c0-.8-.881-1.725-1.611-2.452a4.732,4.732,0,0,0-6.394,6.394c.884.905,2.011,1.833,2.81,1.833C50.552,380.863,53.134,377.7,53.134,375.088Z" transform="translate(-40.926 -339.737)" fill="#f2bb88"/>
          <path id="Trazado_896454" data-name="Trazado 896454" d="M56.54,377.653a4.731,4.731,0,0,1-6.394,6.394,4.732,4.732,0,1,0,6.394-6.394Z" transform="translate(-45.942 -344.755)" fill="#e3a76f"/>
          <path id="Trazado_896455" data-name="Trazado 896455" d="M409.287,145.174c0-.149-.315-.423-.493-.655a1.478,1.478,0,0,0-1.844,1.844,1.577,1.577,0,0,0,.789.533A1.766,1.766,0,0,0,409.287,145.174Z" transform="translate(-367.517 -134.544)" fill="#f2bb88"/>
          <path id="Trazado_896456" data-name="Trazado 896456" d="M409.377,145.1a1.478,1.478,0,0,1-1.844,1.844,1.479,1.479,0,1,0,1.844-1.844Z" transform="translate(-368.1 -135.126)" fill="#e3a76f"/>
          <path id="Trazado_896457" data-name="Trazado 896457" d="M301.6,115.6c0-.149-.315-.423-.493-.655a1.478,1.478,0,0,0-1.844,1.844,1.577,1.577,0,0,0,.789.533A1.766,1.766,0,0,0,301.6,115.6Z" transform="translate(-270.447 -107.886)" fill="#f2bb88"/>
          <path id="Trazado_896458" data-name="Trazado 896458" d="M301.693,115.529a1.478,1.478,0,0,1-1.844,1.844,1.479,1.479,0,1,0,1.844-1.844Z" transform="translate(-271.031 -108.469)" fill="#e3a76f"/>
          <path id="Trazado_896459" data-name="Trazado 896459" d="M200.821,116.007c0-.245-.749-1.01-.749-1.01a2.2,2.2,0,0,0-2.783,2.783s.875.778,1.12.778A2.717,2.717,0,0,0,200.821,116.007Z" transform="translate(-178.477 -107.886)" fill="#f2bb88"/>
          <path id="Trazado_896460" data-name="Trazado 896460" d="M201.126,116.05a2.2,2.2,0,0,1-2.783,2.783,2.2,2.2,0,1,0,2.783-2.783Z" transform="translate(-179.531 -108.939)" fill="#e3a76f"/>
          <path id="Trazado_896461" data-name="Trazado 896461" d="M119.24,160.174c0-.149-.315-.423-.493-.655a1.478,1.478,0,0,0-1.844,1.844,1.577,1.577,0,0,0,.789.533A1.766,1.766,0,0,0,119.24,160.174Z" transform="translate(-106.061 -148.065)" fill="#f2bb88"/>
          <path id="Trazado_896462" data-name="Trazado 896462" d="M119.33,160.1a1.478,1.478,0,0,1-1.844,1.844,1.479,1.479,0,1,0,1.844-1.844Z" transform="translate(-106.644 -148.648)" fill="#e3a76f"/>
          <path id="Trazado_896463" data-name="Trazado 896463" d="M55.989,115.6c0-.149-.315-.423-.493-.655a1.478,1.478,0,0,0-1.844,1.844,1.577,1.577,0,0,0,.789.533,1.766,1.766,0,0,0,1.548-1.722Z" transform="translate(-49.045 -107.886)" fill="#f2bb88"/>
          <path id="Trazado_896464" data-name="Trazado 896464" d="M56.08,115.529a1.478,1.478,0,0,1-1.844,1.844,1.479,1.479,0,1,0,1.844-1.844Z" transform="translate(-49.629 -108.469)" fill="#e3a76f"/>
        </g>
        <g id="Grupo_1105892" data-name="Grupo 1105892" transform="translate(0 0)">
          <path id="Trazado_896465" data-name="Trazado 896465" d="M49.731,44.69a.739.739,0,0,0,.739-.739V38.63a2.22,2.22,0,0,0-2.218-2.218H2.218A2.22,2.22,0,0,0,0,38.63V77.485A2.22,2.22,0,0,0,2.218,79.7H17.389a.739.739,0,1,0,0-1.479H12.861a5.471,5.471,0,1,0-7.469,0H2.218a.74.74,0,0,1-.739-.739V64.994a16.709,16.709,0,0,1,3.986.561,18.638,18.638,0,0,0,5.073.612,18.637,18.637,0,0,0,5.072-.612,18.827,18.827,0,0,1,2.155-.425,4,4,0,1,0,6.6.261c.236.053.465.108.7.164a18.639,18.639,0,0,0,5.073.612,18.377,18.377,0,0,0,4.487-.473,2.217,2.217,0,1,0,4.421.245,2.2,2.2,0,0,0-.206-.932c.335-.014.7-.023,1.1-.023a17.169,17.169,0,0,1,4.726.571,18.193,18.193,0,0,0,4.334.6V77.485a.74.74,0,0,1-.739.739h-27.9a.739.739,0,1,0,0,1.479H48.252a2.22,2.22,0,0,0,2.218-2.218V46.908a.739.739,0,0,0-1.479,0V53.6A16.709,16.709,0,0,1,45,53.036a18.64,18.64,0,0,0-5.073-.612,18.641,18.641,0,0,0-5.073.612,17.167,17.167,0,0,1-4.726.571,17.165,17.165,0,0,1-4.726-.571,18.639,18.639,0,0,0-5.073-.612,18.637,18.637,0,0,0-5.072.612,17.165,17.165,0,0,1-4.725.571,17.165,17.165,0,0,1-4.725-.571,18.186,18.186,0,0,0-4.333-.6V40.858a16.708,16.708,0,0,1,3.986.561,18.638,18.638,0,0,0,5.073.612,18.637,18.637,0,0,0,5.072-.612,17.164,17.164,0,0,1,4.725-.571,17.165,17.165,0,0,1,4.726.571,18.639,18.639,0,0,0,5.073.612,18.641,18.641,0,0,0,5.073-.612,17.166,17.166,0,0,1,4.726-.571,17.168,17.168,0,0,1,4.726.571,18.193,18.193,0,0,0,4.334.6V43.95a.739.739,0,0,0,.739.739ZM5.134,74.232a3.992,3.992,0,1,1,3.992,3.992A4,4,0,0,1,5.134,74.232Zm15.841-4.2A2.523,2.523,0,1,1,23.5,67.514,2.526,2.526,0,0,1,20.975,70.037Zm15.848-3.359a.739.739,0,1,1,.739-.739A.74.74,0,0,1,36.823,66.678ZM5.465,54.473a18.638,18.638,0,0,0,5.073.612,18.637,18.637,0,0,0,5.072-.612,17.164,17.164,0,0,1,4.725-.571,17.165,17.165,0,0,1,4.726.571,18.639,18.639,0,0,0,5.073.612,18.641,18.641,0,0,0,5.073-.612,17.166,17.166,0,0,1,4.726-.571,17.168,17.168,0,0,1,4.726.571,18.192,18.192,0,0,0,4.334.6V57.29A16.7,16.7,0,0,1,45,56.729a18.636,18.636,0,0,0-5.073-.612,18.641,18.641,0,0,0-5.073.612,17.162,17.162,0,0,1-4.726.571,17.165,17.165,0,0,1-4.726-.571,18.635,18.635,0,0,0-5.073-.612,18.639,18.639,0,0,0-5.072.612,17.007,17.007,0,0,1-2.865.5.739.739,0,1,0,.123,1.473,18.474,18.474,0,0,0,3.089-.536,17.164,17.164,0,0,1,4.725-.571,17.165,17.165,0,0,1,4.726.571,18.635,18.635,0,0,0,5.073.612,18.641,18.641,0,0,0,5.073-.612,17.162,17.162,0,0,1,4.726-.571,17.163,17.163,0,0,1,4.726.571,18.189,18.189,0,0,0,4.334.6v2.215A16.7,16.7,0,0,1,45,60.423a18.636,18.636,0,0,0-5.073-.612,18.642,18.642,0,0,0-5.073.612c-.585.141-1.138.275-1.824.379a.739.739,0,1,0,.222,1.462c.749-.114,1.359-.261,1.948-.4a17.167,17.167,0,0,1,4.726-.571,17.164,17.164,0,0,1,4.726.571,18.188,18.188,0,0,0,4.334.6v2.215A16.711,16.711,0,0,1,45,64.118a18.64,18.64,0,0,0-5.073-.612,18.64,18.64,0,0,0-5.073.612,17.167,17.167,0,0,1-4.726.571,17.165,17.165,0,0,1-4.726-.571,18.639,18.639,0,0,0-5.073-.612,18.637,18.637,0,0,0-5.072.612,17.165,17.165,0,0,1-4.725.571,17.165,17.165,0,0,1-4.725-.571,18.186,18.186,0,0,0-4.333-.6V61.3a16.708,16.708,0,0,1,3.986.561,18.634,18.634,0,0,0,5.073.612,18.633,18.633,0,0,0,5.072-.612,17.165,17.165,0,0,1,4.725-.571,17.166,17.166,0,0,1,4.726.571,18.635,18.635,0,0,0,5.073.612.739.739,0,1,0,0-1.479,17.166,17.166,0,0,1-4.726-.571,18.635,18.635,0,0,0-5.073-.612,18.634,18.634,0,0,0-5.072.612,17.165,17.165,0,0,1-4.725.571,17.165,17.165,0,0,1-4.725-.571,18.181,18.181,0,0,0-4.333-.6V57.606a16.708,16.708,0,0,1,3.986.561,18.1,18.1,0,0,0,4,.592h.03a.739.739,0,0,0,.029-1.478,16.612,16.612,0,0,1-3.71-.552,18.186,18.186,0,0,0-4.333-.6V53.912a16.707,16.707,0,0,1,3.986.561ZM45,39.982a18.641,18.641,0,0,0-5.073-.612,18.641,18.641,0,0,0-5.073.612,17.166,17.166,0,0,1-4.726.571,17.165,17.165,0,0,1-4.726-.571,18.639,18.639,0,0,0-5.073-.612,18.637,18.637,0,0,0-5.072.612,17.164,17.164,0,0,1-4.725.571,17.164,17.164,0,0,1-4.725-.571,18.19,18.19,0,0,0-4.333-.6V38.63a.74.74,0,0,1,.739-.739H48.252a.74.74,0,0,1,.739.739v1.912A16.7,16.7,0,0,1,45,39.982Z" transform="translate(0 -36.412)"/>
          <path id="Trazado_896466" data-name="Trazado 896466" d="M46.088,109.6a2.218,2.218,0,1,0,2.218-2.218A2.22,2.22,0,0,0,46.088,109.6Zm2.957,0a.739.739,0,1,1-.739-.739A.74.74,0,0,1,49.045,109.6Z" transform="translate(-41.545 -100.387)"/>
          <path id="Trazado_896467" data-name="Trazado 896467" d="M109.339,154.172a2.218,2.218,0,1,0,2.218-2.218A2.22,2.22,0,0,0,109.339,154.172Zm2.218-.739a.739.739,0,1,1-.739.739A.74.74,0,0,1,111.557,153.433Z" transform="translate(-98.561 -140.565)"/>
          <path id="Trazado_896468" data-name="Trazado 896468" d="M401.6,141.39a2.218,2.218,0,1,0-2.218-2.218A2.22,2.22,0,0,0,401.6,141.39Zm0-2.957a.739.739,0,1,1-.739.739A.74.74,0,0,1,401.6,138.433Z" transform="translate(-360.017 -127.043)"/>
          <path id="Trazado_896469" data-name="Trazado 896469" d="M296.137,109.6a2.218,2.218,0,1,0-2.218,2.218A2.22,2.22,0,0,0,296.137,109.6Zm-2.957,0a.739.739,0,1,1,.739.739A.74.74,0,0,1,293.18,109.6Z" transform="translate(-262.947 -100.387)"/>
          <path id="Trazado_896470" data-name="Trazado 896470" d="M189.674,110.319a2.936,2.936,0,1,0,2.936-2.936A2.939,2.939,0,0,0,189.674,110.319Zm4.394,0a1.458,1.458,0,1,1-1.458-1.457A1.459,1.459,0,0,1,194.068,110.319Z" transform="translate(-170.977 -100.387)"/>
          <path id="Trazado_896471" data-name="Trazado 896471" d="M271.732,362.942a4.795,4.795,0,1,0-4.8,4.8A4.8,4.8,0,0,0,271.732,362.942Zm-8.111,0a3.316,3.316,0,1,1,3.316,3.316A3.32,3.32,0,0,1,263.621,362.942Z" transform="translate(-236.302 -326.432)"/>
          <path id="Trazado_896472" data-name="Trazado 896472" d="M404.293,359.63a4,4,0,1,0-4,4A4.006,4.006,0,0,0,404.293,359.63Zm-6.525,0a2.523,2.523,0,1,1,2.523,2.523A2.526,2.526,0,0,1,397.769,359.63Z" transform="translate(-357.226 -324.162)"/>
          <ellipse id="Elipse_11671" data-name="Elipse 11671" cx="0.739" cy="0.739" rx="0.739" ry="0.739" transform="translate(13.721 30.672)"/>
          <ellipse id="Elipse_11672" data-name="Elipse 11672" cx="0.739" cy="0.739" rx="0.739" ry="0.739" transform="translate(12.257 7.292)"/>
          <ellipse id="Elipse_11673" data-name="Elipse 11673" cx="0.739" cy="0.739" rx="0.739" ry="0.739" transform="translate(28.428 13.693)"/>
          <ellipse id="Elipse_11674" data-name="Elipse 11674" cx="0.739" cy="0.739" rx="0.739" ry="0.739" transform="translate(39.021 6.996)"/>
          <ellipse id="Elipse_11675" data-name="Elipse 11675" cx="0.739" cy="0.739" rx="0.739" ry="0.739" transform="translate(45.492 9.975)"/>
          <ellipse id="Elipse_11676" data-name="Elipse 11676" cx="0.739" cy="0.739" rx="0.739" ry="0.739" transform="translate(37.562 39.47)"/>
        </g>
      </g>
      <g id="soil_5016674" transform="translate(14.393 0)">
        <g id="Grupo_1105894" data-name="Grupo 1105894" transform="translate(0)">
          <path id="Trazado_896476" data-name="Trazado 896476" d="M51.559,17.081C50.733,12.8,54.745,5.649,54.745,5.649c-4.932,1.66-7.223,5.9-8.235,9.029-1.119-5.444,2.3-12.927,2.3-12.927-5.362,2.206-7.272,6.936-7.885,10.894a13.185,13.185,0,0,0-7.863-6.47s4.218,7.143,4.556,10.907Z" transform="translate(-33.061 -1.75)" fill="#00a400"/>
        </g>
      </g>
    </g>
  </g>
</svg>
