<svg xmlns="http://www.w3.org/2000/svg" width="44.092" height="44.092" viewBox="0 0 44.092 44.092">
  <g id="chemicals_3397465" transform="translate(-1 -1)">
    <g id="Grupo_1106756" data-name="Grupo 1106756" transform="translate(1.711 1.711)">
      <g id="Grupo_1106735" data-name="Grupo 1106735" transform="translate(36.383 32.315)">
        <path id="Trazado_898970" data-name="Trazado 898970" d="M55.258,54a6.346,6.346,0,0,0-2.1-1.956,8.7,8.7,0,0,1,4.167-4.608,5.847,5.847,0,0,1,.405,8.641,5.96,5.96,0,0,1-1.316.989l-.256-1.031a6.561,6.561,0,0,0-.9-2.034Z" transform="translate(-53.16 -47.44)" fill="#a0d468"/>
      </g>
      <g id="Grupo_1106736" data-name="Grupo 1106736" transform="translate(28.447 31.675)">
        <path id="Trazado_898971" data-name="Trazado 898971" d="M50.534,57.527a1.2,1.2,0,0,1-.164.007H47.689A5.688,5.688,0,0,1,42,51.845v-.164a5.726,5.726,0,0,1,2.276-4.388l1-.754a2.88,2.88,0,0,0,1.885,4.345l.825.164a6.432,6.432,0,0,1,4.047,2.7,6.561,6.561,0,0,1,.9,2.034l.256,1.031a5.711,5.711,0,0,1-2.66.718Z" transform="translate(-42 -46.54)" fill="#a0d468"/>
      </g>
      <g id="Grupo_1106737" data-name="Grupo 1106737" transform="translate(22.16 32.315)">
        <path id="Trazado_898972" data-name="Trazado 898972" d="M35.258,54a6.346,6.346,0,0,0-2.1-1.956,8.7,8.7,0,0,1,4.167-4.608,5.847,5.847,0,0,1,.405,8.641,5.96,5.96,0,0,1-1.316.989l-.256-1.031a6.561,6.561,0,0,0-.9-2.034Z" transform="translate(-33.16 -47.44)" fill="#a0d468"/>
      </g>
      <g id="Grupo_1106738" data-name="Grupo 1106738" transform="translate(14.223 31.675)">
        <path id="Trazado_898973" data-name="Trazado 898973" d="M30.534,57.527a1.2,1.2,0,0,1-.164.007H27.689A5.688,5.688,0,0,1,22,51.845v-.164a5.726,5.726,0,0,1,2.276-4.388l.569-.427.434-.327a2.88,2.88,0,0,0,1.885,4.345l.825.164a6.432,6.432,0,0,1,4.047,2.7,6.561,6.561,0,0,1,.9,2.034l.256,1.031a5.711,5.711,0,0,1-2.66.718Z" transform="translate(-22 -46.54)" fill="#a0d468"/>
      </g>
      <g id="Grupo_1106739" data-name="Grupo 1106739" transform="translate(7.937 32.315)">
        <path id="Trazado_898974" data-name="Trazado 898974" d="M15.258,54a6.346,6.346,0,0,0-2.1-1.956,8.7,8.7,0,0,1,4.167-4.608,5.847,5.847,0,0,1,.405,8.641,5.96,5.96,0,0,1-1.316.989l-.256-1.031a6.561,6.561,0,0,0-.9-2.034Z" transform="translate(-13.16 -47.44)" fill="#a0d468"/>
      </g>
      <g id="Grupo_1106740" data-name="Grupo 1106740" transform="translate(0 31.675)">
        <path id="Trazado_898975" data-name="Trazado 898975" d="M10.534,57.527a1.2,1.2,0,0,1-.164.007H7.689A5.684,5.684,0,0,1,2.6,49.3a5.745,5.745,0,0,1,1.671-2.005l.8-.6.2-.149a2.88,2.88,0,0,0,1.885,4.345l.825.164a6.432,6.432,0,0,1,4.047,2.7,6.561,6.561,0,0,1,.9,2.034l.256,1.031a5.711,5.711,0,0,1-2.66.718Z" transform="translate(-2 -46.54)" fill="#a0d468"/>
      </g>
      <g id="Grupo_1106741" data-name="Grupo 1106741" transform="translate(31.291 29.869)">
        <path id="Trazado_898976" data-name="Trazado 898976" d="M54.434,45.87a5.528,5.528,0,0,1,.825.576,8.7,8.7,0,0,0-4.167,4.608,6.389,6.389,0,0,0-1.949-.74l-.825-.164a2.88,2.88,0,0,1-1.885-4.345L48.845,44l2.133,2.133L52.4,44.711Z" transform="translate(-46 -44)" fill="#b4dd7f"/>
      </g>
      <g id="Grupo_1106742" data-name="Grupo 1106742" transform="translate(17.068 29.869)">
        <path id="Trazado_898977" data-name="Trazado 898977" d="M34.534,45.934a5.136,5.136,0,0,1,.725.512,8.7,8.7,0,0,0-4.167,4.608,6.389,6.389,0,0,0-1.949-.74l-.825-.164a2.88,2.88,0,0,1-1.885-4.345L28.845,44l2.133,2.133L32.4,44.711l2.034,1.159A.782.782,0,0,1,34.534,45.934Z" transform="translate(-26 -44)" fill="#b4dd7f"/>
      </g>
      <g id="Grupo_1106743" data-name="Grupo 1106743" transform="translate(2.845 29.869)">
        <path id="Trazado_898978" data-name="Trazado 898978" d="M14.434,45.87a5.528,5.528,0,0,1,.825.576,8.7,8.7,0,0,0-4.167,4.608,6.389,6.389,0,0,0-1.949-.74l-.825-.164a2.88,2.88,0,0,1-1.885-4.345L8.845,44l2.133,2.133L12.4,44.711Z" transform="translate(-6 -44)" fill="#b4dd7f"/>
      </g>
      <g id="Grupo_1106744" data-name="Grupo 1106744" transform="translate(2.845 11.379)">
        <path id="Trazado_898979" data-name="Trazado 898979" d="M9.335,18a8.365,8.365,0,0,0,1.216,2.276l.427.569H6V18Z" transform="translate(-6 -18)" fill="#fcd770"/>
      </g>
      <g id="Grupo_1106745" data-name="Grupo 1106745" transform="translate(1.422 27.024)">
        <path id="Trazado_898980" data-name="Trazado 898980" d="M8.267,40v2.845L5.856,44.651l-.2.149A4.263,4.263,0,0,1,4,41.422V40Z" transform="translate(-4 -40)" fill="#fcd770"/>
      </g>
      <g id="Grupo_1106746" data-name="Grupo 1106746" transform="translate(0 14.223)">
        <path id="Trazado_898981" data-name="Trazado 898981" d="M11.75,24.574v.007a6.383,6.383,0,0,0-4.061,5.952V34.8H3.422A1.427,1.427,0,0,1,2,33.379V23.422A1.427,1.427,0,0,1,3.422,22h6.4Z" transform="translate(-2 -22)" fill="#ffeaa7"/>
      </g>
      <g id="Grupo_1106747" data-name="Grupo 1106747" transform="translate(28.447 12.801)">
        <path id="Trazado_898982" data-name="Trazado 898982" d="M46.267,20.711v1.422a.713.713,0,0,1-.711.711H42V20h3.556A.713.713,0,0,1,46.267,20.711Z" transform="translate(-42 -20)" fill="#ccd1d9"/>
      </g>
      <g id="Grupo_1106748" data-name="Grupo 1106748" transform="translate(15.923 4.267)">
        <path id="Trazado_898983" data-name="Trazado 898983" d="M31.879,9.671a1.584,1.584,0,0,1,.768,1.358,1.238,1.238,0,0,1-1.237,1.237,1.275,1.275,0,0,1-.363-.05L29.8,11.84,24.39,10.212a3.2,3.2,0,0,1,2.489-1.9L29.091,8Z" transform="translate(-24.39 -8)" fill="#aab2bd"/>
      </g>
      <g id="Grupo_1106749" data-name="Grupo 1106749" transform="translate(25.602 26.896)">
        <path id="Trazado_898984" data-name="Trazado 898984" d="M38.725,45.239A5.136,5.136,0,0,0,38,44.727V39.948h2.133a1.971,1.971,0,0,0,.711-.128v9.921a5.836,5.836,0,0,0-2.119-4.5Z" transform="translate(-38 -39.82)" fill="#aab2bd"/>
      </g>
      <g id="Grupo_1106750" data-name="Grupo 1106750" transform="translate(25.602 11.379)">
        <path id="Trazado_898985" data-name="Trazado 898985" d="M40.133,29.379H38V19.422A1.427,1.427,0,0,1,39.422,18a1.433,1.433,0,0,1,1.422,1.422V29.507a1.971,1.971,0,0,0-.711-.128Z" transform="translate(-38 -18)" fill="#aab2bd"/>
      </g>
      <g id="Grupo_1106751" data-name="Grupo 1106751" transform="translate(5.689)">
        <path id="Trazado_898986" data-name="Trazado 898986" d="M24.707,5.819l.228.448-2.212.313a3.2,3.2,0,0,0-2.489,1.9,3.154,3.154,0,0,0-.277,1.294,3.193,3.193,0,0,0,.341,1.444l.676,1.344a3.952,3.952,0,0,1,.405,1.728,3.887,3.887,0,0,1-1.543,3.094l-1.3.974H16.4a6.256,6.256,0,0,0-2.34.448V18.8l-1.927-2.574-.427-.569A8.58,8.58,0,0,1,10,10.534,8.523,8.523,0,0,1,18.534,2a6.9,6.9,0,0,1,6.173,3.819Z" transform="translate(-10 -2)" fill="#e6e9ed"/>
      </g>
      <g id="Grupo_1106752" data-name="Grupo 1106752" transform="translate(5.689 16.357)">
        <path id="Trazado_898987" data-name="Trazado 898987" d="M21.236,31.2a6.875,6.875,0,0,0,1.664.2h5.59v4.267H22.659a9.517,9.517,0,0,1-1.28-.085v5.063l-.569.427a5.726,5.726,0,0,0-2.276,4.388,5.836,5.836,0,0,0-2.119-4.5,5.528,5.528,0,0,0-.825-.576l-2.034-1.159-1.422,1.422L10,38.512V31.4a6.383,6.383,0,0,1,4.061-5.952A6.256,6.256,0,0,1,16.4,25h2.133a12.948,12.948,0,0,1,2.7,6.2Z" transform="translate(-10 -25)" fill="#e6e9ed"/>
      </g>
      <g id="Grupo_1106753" data-name="Grupo 1106753" transform="translate(24.18 22.757)">
        <path id="Trazado_898988" data-name="Trazado 898988" d="M37.422,38.267H36V34h3.556a1.971,1.971,0,0,1,.711.128,2.126,2.126,0,0,1,.8,3.513,2.018,2.018,0,0,1-.8.5,1.971,1.971,0,0,1-.711.128Z" transform="translate(-36 -34)" fill="#f0d0b4"/>
      </g>
      <g id="Grupo_1106754" data-name="Grupo 1106754" transform="translate(14.223 6.479)">
        <path id="Trazado_898989" data-name="Trazado 898989" d="M23.3,20.014a3.887,3.887,0,0,0,1.543-3.094,3.952,3.952,0,0,0-.405-1.728l-.676-1.344a3.193,3.193,0,0,1-.341-1.444A3.154,3.154,0,0,1,23.7,11.11l5.412,1.629v.548a4.861,4.861,0,0,0,1.422,3.435l-1.422,1.422v.932A2.622,2.622,0,0,1,26.487,21.7a2.9,2.9,0,0,1-.434-.036L22,20.988Z" transform="translate(-22 -11.11)" fill="#f0d0b4"/>
      </g>
      <g id="Grupo_1106755" data-name="Grupo 1106755" transform="translate(34.136 8.534)">
        <path id="Trazado_898990" data-name="Trazado 898990" d="M58.114,18.687a1.391,1.391,0,0,1,.42,1,1.427,1.427,0,0,1-1.422,1.422H55.27a.711.711,0,0,0-.5,1.216l.476.476a1.509,1.509,0,0,1-2.133,2.133L50,21.823V17.556l3.115-3.115a1.509,1.509,0,0,1,2.133,2.133l-.476.476a.711.711,0,0,0,.5,1.216h1.842A1.391,1.391,0,0,1,58.114,18.687Z" transform="translate(-50 -14)" fill="#69d6f4"/>
      </g>
    </g>
    <g id="Grupo_1106757" data-name="Grupo 1106757" transform="translate(1 1)">
      <path id="Trazado_898991" data-name="Trazado 898991" d="M41.786,32.834l-2.5-1.429-1.3,1.3-2.067-2.067-3.907,2.93a6.342,6.342,0,0,0-1.138,1.109V29.05a2.82,2.82,0,0,0,0-4.9V18.068h2.845a1.424,1.424,0,0,0,1.422-1.422V15.223A1.424,1.424,0,0,0,33.714,13.8H30.738a2.128,2.128,0,0,0-4.136.711v9.245H20.3a6.454,6.454,0,0,1-1.052-.092,13.713,13.713,0,0,0-1.766-4.618l2.385.4a3.3,3.3,0,0,0,.55.046,3.342,3.342,0,0,0,3.338-3.338v-.634L25.474,13.8l-.5-.5a4.115,4.115,0,0,1-1.194-2.518l.312.094A1.951,1.951,0,0,0,26.6,9,2.3,2.3,0,0,0,25.49,7.043L22.878,5.475l-.133-.265A7.572,7.572,0,0,0,15.934,1a9.223,9.223,0,0,0-8.99,11.379H2.422V13.8H3.845v1.422H3.133A2.136,2.136,0,0,0,1,17.357v9.956a2.131,2.131,0,0,0,1.422,2v.842a4.937,4.937,0,0,0,1.272,3.313l-.134.1A6.4,6.4,0,0,0,7.4,45.092h2.684a6.564,6.564,0,0,0,5.82-3.544,6.4,6.4,0,0,0,5.719,3.544h2.684a6.564,6.564,0,0,0,5.82-3.544,6.4,6.4,0,0,0,5.719,3.544h2.684a6.561,6.561,0,0,0,3.255-12.258Zm-3.805,1.885,1.541-1.541,1.421.812a9.35,9.35,0,0,0-3.206,3.69,7.022,7.022,0,0,0-1.455-.479l-.823-.164a2.161,2.161,0,0,1-1.473-3.171l1.794-1.346Zm-8.534-.257a6.539,6.539,0,0,0-1.422-1.322V29.447h1.422ZM22.058,37.2l-.823-.164a2.161,2.161,0,0,1-1.473-3.17l1.794-1.346,2.2,2.2L25.3,33.178l1.421.812a9.35,9.35,0,0,0-3.206,3.69,7,7,0,0,0-1.455-.48Zm-2-7.753H26.6v2.838l-1.541-.88-1.3,1.3-2.067-2.067-2.2,1.65V29.419c.189.01.377.028.568.028Zm9.388-1.422H26.6V25.18h2.845a1.422,1.422,0,0,1,0,2.845Zm4.267-11.379H30.869V15.223h2.845Zm-5.689-2.133a.711.711,0,0,1,1.422,0v9.245H28.024ZM14.771,22.888A7.771,7.771,0,0,0,20.3,25.18H25.18v2.845H20.058a9.182,9.182,0,0,1-6.537-2.708L11.46,23.254,10.454,24.26l2.062,2.062a10.583,10.583,0,0,0,5.553,2.936v4.1l-.284.213a6.384,6.384,0,0,0-1.8,2.12,6.556,6.556,0,0,0-2.643-2.857l-2.5-1.429-1.3,1.3L8.112,31.286V24.468A5.7,5.7,0,0,1,13.8,18.779h1.778A12.284,12.284,0,0,1,17.694,23.2a6.391,6.391,0,0,1-1.917-1.316L14.3,20.41,13.3,21.415ZM7.835,37.2l-.823-.164a2.161,2.161,0,0,1-1.473-3.17l1.794-1.346,2.2,2.2,1.541-1.541,1.421.812A9.35,9.35,0,0,0,9.29,37.68,7,7,0,0,0,7.835,37.2ZM23.494,13.77l-1.159,1.159v1.223a1.934,1.934,0,0,1-2.231,1.89l-2.417-.4a4.573,4.573,0,0,0,1.32-5.684l-.674-1.348a2.525,2.525,0,0,1-.265-1.124,2.462,2.462,0,0,1,.038-.405l4.229,1.269v.02A5.529,5.529,0,0,0,23.494,13.77ZM22.186,6.718l2.574,1.544A.873.873,0,0,1,25.18,9a.538.538,0,0,1-.681.506L18.744,7.785A2.5,2.5,0,0,1,20.224,7Zm-6.251-4.3a6.156,6.156,0,0,1,5.3,2.994l-1.215.174a3.934,3.934,0,0,0-2.962,5.654l.674,1.348a3.154,3.154,0,0,1-.929,3.933l-1.109.831H13.8a7.092,7.092,0,0,0-2.078.311L9.676,14.939A7.823,7.823,0,0,1,15.934,2.422ZM5.267,13.8H7.406a9.249,9.249,0,0,0,.741,1.422H5.267ZM2.422,17.357a.712.712,0,0,1,.711-.711H9.178l1.2,1.594a7.116,7.116,0,0,0-3.685,6.228v3.556H3.133a.712.712,0,0,1-.711-.711Zm1.422,12.8v-.711H6.689v1.778l-1.853,1.39A3.526,3.526,0,0,1,3.845,30.158ZM2.422,38.692a5,5,0,0,1,1.447-3.5,3.594,3.594,0,0,0,2.863,3.237l.823.164a5.714,5.714,0,0,1,4.4,4.2l.119.473a5.067,5.067,0,0,1-1.262.344l-.008-.038a5,5,0,0,0-4.063-3.934l-1.362-.227-.234,1.4,1.362.227a3.569,3.569,0,0,1,2.85,2.627H7.4a4.981,4.981,0,0,1-4.978-4.977Zm10.929,3.8-.011-.046a7.052,7.052,0,0,0-.8-1.922A7.847,7.847,0,0,1,14.3,37.773L13.3,36.767a9.267,9.267,0,0,0-1.759,2.478,7.132,7.132,0,0,0-1-.873,7.941,7.941,0,0,1,3.18-3.472,5.133,5.133,0,0,1-.367,7.6Zm3.294-3.8a5,5,0,0,1,1.447-3.5,3.594,3.594,0,0,0,2.863,3.237l.823.164a5.714,5.714,0,0,1,4.4,4.2l.119.473a5.067,5.067,0,0,1-1.262.344l-.008-.038a5,5,0,0,0-4.063-3.934l-1.362-.227-.234,1.4,1.362.227a3.569,3.569,0,0,1,2.85,2.627H21.624a4.981,4.981,0,0,1-4.978-4.977Zm10.929,3.8-.011-.046a7.052,7.052,0,0,0-.8-1.922,7.847,7.847,0,0,1,1.767-2.754l-1.006-1.006a9.267,9.267,0,0,0-1.759,2.478,7.131,7.131,0,0,0-1-.873,7.941,7.941,0,0,1,3.18-3.472,5.133,5.133,0,0,1-.367,7.6Zm3.294-3.8a5,5,0,0,1,1.447-3.5,3.594,3.594,0,0,0,2.863,3.237l.823.164a5.714,5.714,0,0,1,4.4,4.2l.119.473a5.067,5.067,0,0,1-1.262.344l-.008-.038a5,5,0,0,0-4.063-3.934l-1.362-.227-.234,1.4,1.362.227a3.569,3.569,0,0,1,2.85,2.627H35.847a4.981,4.981,0,0,1-4.978-4.977Zm10.929,3.8-.011-.046a7.052,7.052,0,0,0-.8-1.922,7.847,7.847,0,0,1,1.767-2.754l-1.006-1.006a9.267,9.267,0,0,0-1.759,2.478,7.132,7.132,0,0,0-1-.873,7.941,7.941,0,0,1,3.18-3.472,5.133,5.133,0,0,1-.367,7.6Z" transform="translate(-1 -1)"/>
      <path id="Trazado_898992" data-name="Trazado 898992" d="M53.977,24.379a.794.794,0,0,1-.564-.233L50.3,21.031l-1.006,1.006,3.114,3.114a2.22,2.22,0,0,0,3.139-3.139l-.478-.478h1.839a2.133,2.133,0,0,0,0-4.267H55.068l.478-.478a2.22,2.22,0,0,0-3.139-3.139l-3.114,3.114L50.3,17.77l3.114-3.114a.8.8,0,0,1,1.128,1.128l-.478.478a1.422,1.422,0,0,0,1.006,2.428h1.839a.711.711,0,1,1,0,1.422H55.068a1.422,1.422,0,0,0-1.006,2.428l.478.478a.8.8,0,0,1-.564,1.361Z" transform="translate(-14.949 -4.466)"/>
    </g>
  </g>
</svg>
