<svg xmlns="http://www.w3.org/2000/svg" width="79.216" height="78.203" viewBox="0 0 79.216 78.203">
  <g id="wind_2451249" transform="translate(-1 -1)">
    <g id="Grupo_1106831" data-name="Grupo 1106831" transform="translate(2.261 2.261)">
      <g id="Grupo_1106825" data-name="Grupo 1106825" transform="translate(45.988 37.84)">
        <path id="Trazado_899156" data-name="Trazado 899156" d="M62.135,40.022a8.833,8.833,0,0,1-2.813,17.2H44.186a3.767,3.767,0,0,1-2.939-1.4,12.336,12.336,0,0,0-.4-13.067L38.46,39.177a6.284,6.284,0,0,1,3.2-.87,6.2,6.2,0,0,1,1.463.177h.013a4.9,4.9,0,0,1-.214-1.438A5.044,5.044,0,0,1,47.97,32H58.061a5.046,5.046,0,0,1,4.074,8.022Z" transform="translate(-38.46 -32)" fill="#b4dd7f"/>
      </g>
      <g id="Grupo_1106826" data-name="Grupo 1106826" transform="translate(27.358 32.795)">
        <path id="Trazado_899157" data-name="Trazado 899157" d="M44.7,43.8,42.32,40.222l-2.712-4.074L34.172,28,24.9,41.912A8.834,8.834,0,0,1,23.69,57.6,12.333,12.333,0,0,0,31.5,62.788l2.674.53,2.674-.53A12.406,12.406,0,0,0,43.985,58.5a11.284,11.284,0,0,0,1.123-1.627A12.336,12.336,0,0,0,44.7,43.8Z" transform="translate(-23.69 -28)" fill="#a0d468"/>
      </g>
      <g id="Grupo_1106827" data-name="Grupo 1106827" transform="translate(0 37.84)">
        <path id="Trazado_899158" data-name="Trazado 899158" d="M28.778,40.022a8.316,8.316,0,0,1,1.791.845,8.834,8.834,0,0,1-1.211,15.691,8.893,8.893,0,0,1-3.393.669H10.829a3.779,3.779,0,0,1-3.784-3.784,3.74,3.74,0,0,1,.971-2.523L8,50.907a6.3,6.3,0,0,1,.3-12.6,6.2,6.2,0,0,1,1.463.177h.013a4.9,4.9,0,0,1-.214-1.438A5.044,5.044,0,0,1,14.613,32H24.7a5.046,5.046,0,0,1,4.074,8.022Z" transform="translate(-2 -32)" fill="#b4dd7f"/>
      </g>
      <g id="Grupo_1106828" data-name="Grupo 1106828" transform="translate(58.021 2.523)">
        <path id="Trazado_899159" data-name="Trazado 899159" d="M48,9.045l.555-1.1A7.109,7.109,0,0,1,54.937,4a10.372,10.372,0,0,1,5.777,1.753l4.944,3.292-4.944,3.292a10.372,10.372,0,0,1-5.777,1.753,7.079,7.079,0,0,1-6.382-3.948Z" transform="translate(-48 -4)" fill="#a0d468"/>
      </g>
      <g id="Grupo_1106829" data-name="Grupo 1106829" transform="translate(5.045 0)">
        <path id="Trazado_899160" data-name="Trazado 899160" d="M16.091,4.523,11.865,6.642a3.96,3.96,0,0,1-1.741.4A3.867,3.867,0,0,1,7.387,5.91L6,4.523,7.387,3.135A3.867,3.867,0,0,1,10.125,2a3.96,3.96,0,0,1,1.741.4Z" transform="translate(-6 -2)" fill="#a0d468"/>
      </g>
      <g id="Grupo_1106830" data-name="Grupo 1106830" transform="translate(17.659 25.227)">
        <path id="Trazado_899161" data-name="Trazado 899161" d="M28.613,25.784l-3.494,2.624a5.819,5.819,0,0,1-8.325-1.425L16,25.784l.795-1.2a5.819,5.819,0,0,1,8.325-1.425Z" transform="translate(-16 -22)" fill="#a0d468"/>
      </g>
    </g>
    <g id="Grupo_1106832" data-name="Grupo 1106832" transform="translate(1 1)">
      <path id="Trazado_899162" data-name="Trazado 899162" d="M69.112,60a10.084,10.084,0,0,0,4.566-19.078,6.246,6.246,0,0,0,.479-2.365,6.314,6.314,0,0,0-6.307-6.307H57.76a6.314,6.314,0,0,0-6.307,6.307c0,.009,0,.018,0,.028A7.687,7.687,0,0,0,48.7,39.1L40.1,26.2,31.194,39.558a6.313,6.313,0,0,0-6.228-7.3H14.875a6.314,6.314,0,0,0-6.307,6.307A7.565,7.565,0,0,0,6.332,53.355a4.983,4.983,0,0,0-.286,1.6A5.05,5.05,0,0,0,11.091,60h7.568V70.1H1v2.523H79.2V70.1H64.067V60ZM52,41.136a6.318,6.318,0,0,0,1.584,2.156L55.257,41.4a3.784,3.784,0,0,1,2.5-6.622H67.851a3.789,3.789,0,0,1,3.784,3.784,3.736,3.736,0,0,1-.325,1.51,10.01,10.01,0,0,0-2.2-.248v2.523a7.568,7.568,0,1,1,0,15.136H64.067v-.841l1.139-1.517a11.462,11.462,0,0,1,5.568-4.014l-.8-2.391a13.956,13.956,0,0,0-5.908,3.843V46.428a13.281,13.281,0,0,0-1.394-5.907L60.416,41.65a10.74,10.74,0,0,1,1.129,4.778V48.84l-1.223-1.529a6.483,6.483,0,0,0-5.084-2.443v2.523a3.97,3.97,0,0,1,3.114,1.5l3.192,3.991v4.6H53.976a2.5,2.5,0,0,1-1.374-.424,13.555,13.555,0,0,0-.913-13.48l-1.531-2.3A5.155,5.155,0,0,1,52,41.136Zm-2.415,3.841a11.1,11.1,0,0,1-7.057,17.039l-1.169.233V54.22l1.42-1.42a16.107,16.107,0,0,1,4.189-3.02l-1.129-2.257a18.6,18.6,0,0,0-4.482,3.157V46.893a13.711,13.711,0,0,1,2.311-7.632l-2.1-1.4a16.213,16.213,0,0,0-2.365,5.593l-2-2-1.784,1.784,3.423,3.423c0,.078-.008.155-.008.232V62.25l-1.169-.233a11.017,11.017,0,0,1-6.131-3.539,10.065,10.065,0,0,0,1.015-16.412L40.1,30.745Zm-38.5,12.5a2.523,2.523,0,0,1,0-5.045V49.914A5,5,0,0,0,7.876,51.1a5.032,5.032,0,0,1,.692-10.019,5.18,5.18,0,0,1,.556.064A6.319,6.319,0,0,0,10.7,43.292L12.372,41.4a3.784,3.784,0,0,1,2.5-6.622H24.965a3.789,3.789,0,0,1,3.784,3.784,3.736,3.736,0,0,1-.325,1.51,10.01,10.01,0,0,0-2.2-.248v2.523a7.568,7.568,0,1,1,0,15.136H21.181v-.841l1.139-1.517a11.462,11.462,0,0,1,5.568-4.014l-.8-2.391a13.956,13.956,0,0,0-5.908,3.843V46.428a13.281,13.281,0,0,0-1.394-5.907L17.531,41.65a10.74,10.74,0,0,1,1.129,4.778V48.84l-1.223-1.529a6.483,6.483,0,0,0-5.084-2.443v2.523a3.97,3.97,0,0,1,3.114,1.5l3.192,3.991v4.6ZM21.181,60h5.045a10.061,10.061,0,0,0,2.939-.439,13.519,13.519,0,0,0,8.011,4.924l1.664.333V70.1H21.181ZM61.544,70.1H41.363V64.823l1.664-.333A13.6,13.6,0,0,0,51.3,59.2a5.014,5.014,0,0,0,2.675.8h7.568Z" transform="translate(-1 5.585)"/>
      <path id="Trazado_899163" data-name="Trazado 899163" d="M1,15H13.613v2.523H1Z" transform="translate(-1 2.659)"/>
      <path id="Trazado_899164" data-name="Trazado 899164" d="M15,15h5.045v2.523H15Z" transform="translate(2.659 2.659)"/>
      <path id="Trazado_899165" data-name="Trazado 899165" d="M58.317,25.091H57.056v2.523h1.261a3.784,3.784,0,0,0,0-7.568,6.307,6.307,0,1,0,0,12.613h1.261a8.829,8.829,0,0,0,0-17.659H23v2.523H59.579a6.307,6.307,0,0,1,0,12.613H58.317a3.784,3.784,0,1,1,0-7.568,1.261,1.261,0,0,1,0,2.523Z" transform="translate(4.749 2.659)"/>
      <path id="Trazado_899166" data-name="Trazado 899166" d="M45.147,8.568A7.576,7.576,0,0,0,37.579,1H36.317a6.314,6.314,0,0,0-6.307,6.307,3.784,3.784,0,1,0,7.568,0V6.045H35.056V7.307a1.261,1.261,0,1,1-2.523,0,3.789,3.789,0,0,1,3.784-3.784h1.261a5.045,5.045,0,1,1,0,10.091H1v2.523H37.579A7.576,7.576,0,0,0,45.147,8.568Z" transform="translate(-1 -1)"/>
      <path id="Trazado_899167" data-name="Trazado 899167" d="M11,27.307h5.632l.424.636A7.07,7.07,0,0,0,27.18,29.677l4.842-3.631-4.841-3.631a7.072,7.072,0,0,0-10.126,1.734l-.424.636H11Zm8.155-1.76a4.548,4.548,0,0,1,6.512-1.115l2.151,1.613-2.152,1.613a4.547,4.547,0,0,1-6.511-1.115l-.332-.5Z" transform="translate(1.613 4.227)"/>
      <path id="Trazado_899168" data-name="Trazado 899168" d="M48.99,10.97A8.351,8.351,0,0,0,56.5,15.613a11.644,11.644,0,0,0,6.483-1.964L69.5,9.307,62.985,4.964A11.644,11.644,0,0,0,56.5,3a8.354,8.354,0,0,0-7.512,4.643l-.2.4H42v2.523h6.788Zm2.257-2.2A5.841,5.841,0,0,1,56.5,5.523a9.135,9.135,0,0,1,5.084,1.54l3.366,2.244-3.366,2.244a9.135,9.135,0,0,1-5.084,1.54,5.843,5.843,0,0,1-5.256-3.248l-.267-.536Z" transform="translate(9.715 -0.477)"/>
      <path id="Trazado_899169" data-name="Trazado 899169" d="M7.8,7.058a5.144,5.144,0,0,0,5.935.962l6.481-3.242L13.733,1.536A5.271,5.271,0,0,0,7.8,2.5L6.784,3.518H1V6.04H6.784ZM9.585,4.283a2.693,2.693,0,0,1,3.022-.491l1.971.986-1.969.984a2.687,2.687,0,0,1-3.025-.488l-.494-.5Z" transform="translate(-1 -0.995)"/>
    </g>
  </g>
</svg>
