<svg xmlns="http://www.w3.org/2000/svg" width="60.485" height="60.458" viewBox="0 0 60.485 60.458">
  <g id="growing-growing_15382482" transform="translate(-1 -0.99)">
    <path id="Trazado_897230" data-name="Trazado 897230" d="M8.8,23.421c4.377,0,7.8-2.145,7.8-4.874,0-2.086-1.989-3.821-4.874-4.533V7.775A4.97,4.97,0,0,0,14.95,6.166a5.02,5.02,0,0,0,1.228-4.357.973.973,0,0,0-.868-.79,5.025,5.025,0,0,0-3.587,1.053V1.965a.975.975,0,1,0-1.95,0V6.41A5.84,5.84,0,0,0,5.289,4.919a.983.983,0,0,0-.868.79,5.827,5.827,0,0,0,1.423,5.059,5.77,5.77,0,0,0,3.929,1.9V13.7c-.322-.019-.643-.039-.975-.039-4.377,0-7.8,2.145-7.8,4.874s3.422,4.874,7.8,4.874ZM12.532,3.963a3.1,3.1,0,0,1,1.774-.975,3.112,3.112,0,0,1-2.574,2.837A3.089,3.089,0,0,1,12.532,3.963Zm2.115,14.583a1.7,1.7,0,0,1-.478,1.092,5.578,5.578,0,0,1-3.49-3.851C13.088,16.217,14.647,17.435,14.647,18.546ZM7.288,9.461A3.914,3.914,0,0,1,6.264,6.868a3.941,3.941,0,0,1,3.509,3.86A3.875,3.875,0,0,1,7.288,9.461Zm1.374,6.161a7.414,7.414,0,0,0,3.6,5.245,9.576,9.576,0,0,1-3.47.6c-3.451,0-5.849-1.54-5.849-2.924s2.34-2.885,5.722-2.924Z" fill="#65802c"/>
    <path id="Trazado_897231" data-name="Trazado 897231" d="M9.773,59.7c4.923,0,8.773-2.574,8.773-5.849S14.7,48,9.773,48,1,50.574,1,53.849,4.851,59.7,9.773,59.7ZM16.6,53.849a2.544,2.544,0,0,1-.643,1.618,7.041,7.041,0,0,1-4.24-5.352C14.5,50.6,16.6,52.114,16.6,53.849Zm-6.872-3.9a8.9,8.9,0,0,0,4.455,6.843,10.2,10.2,0,0,1-4.406.955c-3.695,0-6.824-1.784-6.824-3.9S6.05,49.969,9.725,49.95Z" transform="translate(0 -1.184)" fill="#65802c"/>
    <path id="Trazado_897232" data-name="Trazado 897232" d="M50.079,14.647h2.729v6.824h-1.95a.975.975,0,1,0,0,1.95h5.849a.975.975,0,1,0,0-1.95h-1.95V14.647h2.729a4.668,4.668,0,0,0,1.55-9.076,5.294,5.294,0,0,0-10.489,0,4.666,4.666,0,0,0,1.54,9.076ZM49.621,7.3a1.027,1.027,0,0,0,.809-1.014,3.349,3.349,0,0,1,6.7-.049v.107a.974.974,0,0,0,.819.965,2.719,2.719,0,0,1-.458,5.4H54.759V10.924l1.53-.8a.977.977,0,0,0-.9-1.735l-.634.331V7.833a.975.975,0,0,0-1.95,0v.887l-.634-.331a.977.977,0,0,0-.9,1.735l1.53.8v1.784H50.079a2.719,2.719,0,0,1-.458-5.4Z" transform="translate(-1.118 0)" fill="#65802c"/>
    <path id="Trazado_897233" data-name="Trazado 897233" d="M56.717,36.748a.983.983,0,0,0,1.1-.858q.117-1.272.117-2.544a27.6,27.6,0,0,0-.575-5.6.973.973,0,0,0-1.9.419,25.552,25.552,0,0,1,.526,5.176c0,.78-.039,1.56-.107,2.34a.978.978,0,0,0,.838,1.072Z" transform="translate(-1.371 -0.655)" fill="#65802c"/>
    <path id="Trazado_897234" data-name="Trazado 897234" d="M21.246,57.92a.976.976,0,0,0-.673,1.833A27.363,27.363,0,0,0,45.11,56.6a.975.975,0,0,0,.224-1.374A.962.962,0,0,0,44,55.015,25.388,25.388,0,0,1,21.256,57.93Z" transform="translate(-0.477 -1.356)" fill="#65802c"/>
    <path id="Trazado_897235" data-name="Trazado 897235" d="M4.028,26.009a.975.975,0,0,0-1.219.682A27.406,27.406,0,0,0,2,33.31,27,27,0,0,0,4.184,44.024a.975.975,0,1,0,1.784-.79A25.192,25.192,0,0,1,3.95,33.31a25.729,25.729,0,0,1,.741-6.122.969.969,0,0,0-.663-1.18Z" transform="translate(-0.025 -0.629)" fill="#65802c"/>
    <path id="Trazado_897236" data-name="Trazado 897236" d="M15.006,10.93a.966.966,0,0,0,1.326.273A25.4,25.4,0,0,1,40.01,9.672a.975.975,0,1,0,.829-1.764,27.346,27.346,0,0,0-25.55,1.647.981.981,0,0,0-.283,1.374Z" transform="translate(-0.348 -0.114)" fill="#65802c"/>
    <path id="Trazado_897237" data-name="Trazado 897237" d="M59.557,49.807l.907-.643a.971.971,0,0,0-1.131-1.579l-4.494,3.207v-5.3l2.486-1.248a.974.974,0,0,0-.868-1.745l-1.618.809v-2.32a.975.975,0,0,0-1.95,0v6.434l-2.535-3.324a.974.974,0,0,0-1.55,1.18l4.084,5.362v3.6l-1.55-1.55a.972.972,0,0,0-1.374,1.374l2.924,2.924v3.5H50.94a.975.975,0,1,0,0,1.95h5.849a.975.975,0,1,0,0-1.95h-1.95v-7.3l2.69-1.92,3.909,1.111a.978.978,0,0,0,.536-1.881L59.567,49.8Z" transform="translate(-1.199 -0.983)" fill="#65802c"/>
    <path id="Trazado_897238" data-name="Trazado 897238" d="M20.624,31.549a.962.962,0,0,0-.517.731,9.628,9.628,0,0,0,0,2.866.962.962,0,0,0,.517.731l.985.507a10,10,0,0,0,.77,1.862l-.341,1.063a.968.968,0,0,0,.156.887,10.614,10.614,0,0,0,2.037,2.037.968.968,0,0,0,.887.156l1.053-.341a9.377,9.377,0,0,0,1.862.77l.507.985a.962.962,0,0,0,.741.517,11.305,11.305,0,0,0,1.433.107,9.749,9.749,0,0,0,1.433-.107.978.978,0,0,0,.741-.517l.507-.985a9.376,9.376,0,0,0,1.862-.77l1.053.341a.968.968,0,0,0,.887-.156A10.614,10.614,0,0,0,39.233,40.2a.968.968,0,0,0,.156-.887l-.341-1.063a9.376,9.376,0,0,0,.77-1.862l.985-.507a.962.962,0,0,0,.517-.731,9.629,9.629,0,0,0,0-2.866.962.962,0,0,0-.517-.731l-.985-.507a9.995,9.995,0,0,0-.77-1.862l.341-1.063a.968.968,0,0,0-.156-.887A10.614,10.614,0,0,0,37.2,25.193a1,1,0,0,0-.887-.156l-1.053.341a9.376,9.376,0,0,0-1.862-.77l-.507-.985a.962.962,0,0,0-.741-.517,9.481,9.481,0,0,0-2.876,0,.978.978,0,0,0-.741.517l-.507.985a9.376,9.376,0,0,0-1.862.77l-1.053-.341a.968.968,0,0,0-.887.156,10.614,10.614,0,0,0-2.037,2.037.968.968,0,0,0-.156.887l.341,1.063a9.376,9.376,0,0,0-.77,1.862l-.985.507Zm1.355,1.491.907-.468a.933.933,0,0,0,.5-.634,7.792,7.792,0,0,1,.887-2.145.983.983,0,0,0,.1-.809l-.312-.965a8.2,8.2,0,0,1,.965-.965l.965.312a.983.983,0,0,0,.809-.1,7.391,7.391,0,0,1,2.145-.887.99.99,0,0,0,.634-.5l.468-.907a7.862,7.862,0,0,1,1.355,0l.468.907a.933.933,0,0,0,.634.5,7.62,7.62,0,0,1,2.145.887.983.983,0,0,0,.809.1l.965-.312a7.522,7.522,0,0,1,.965.965l-.312.965a.983.983,0,0,0,.1.809,7.391,7.391,0,0,1,.887,2.145.99.99,0,0,0,.5.634l.907.468c.019.244.029.468.029.682s-.01.439-.029.682l-.907.468a.933.933,0,0,0-.5.634,7.792,7.792,0,0,1-.887,2.145.983.983,0,0,0-.1.809l.312.965a8.2,8.2,0,0,1-.965.965l-.965-.312a.983.983,0,0,0-.809.1,7.391,7.391,0,0,1-2.145.887.99.99,0,0,0-.634.5l-.468.907a7.862,7.862,0,0,1-1.355,0l-.468-.907a.933.933,0,0,0-.634-.5,7.62,7.62,0,0,1-2.145-.887.983.983,0,0,0-.809-.1l-.965.312a7.522,7.522,0,0,1-.965-.965l.312-.965a.983.983,0,0,0-.1-.809,7.391,7.391,0,0,1-.887-2.145.99.99,0,0,0-.5-.634l-.907-.468c-.019-.244-.029-.468-.029-.682S21.959,33.284,21.979,33.041Z" transform="translate(-0.478 -0.554)" fill="#65802c"/>
    <path id="Trazado_897239" data-name="Trazado 897239" d="M30.874,38.748A4.874,4.874,0,1,0,26,33.874,4.876,4.876,0,0,0,30.874,38.748Zm0-7.8a2.924,2.924,0,1,1-2.924,2.924A2.933,2.933,0,0,1,30.874,30.95Z" transform="translate(-0.63 -0.705)" fill="#65802c"/>
  </g>
</svg>
