<svg xmlns="http://www.w3.org/2000/svg" width="65.214" height="51.722" viewBox="0 0 65.214 51.722">
  <path id="farm_14005330" d="M65.651,7H5.564A2.562,2.562,0,0,0,3,9.564V44.914a2.562,2.562,0,0,0,2.564,2.564H39.036a12.363,12.363,0,0,0,24.624,0h1.99a2.562,2.562,0,0,0,2.564-2.564V9.564A2.562,2.562,0,0,0,65.651,7ZM39.036,45.229H32.583L30.03,41.44l10.614-2.609.765.191A12.209,12.209,0,0,0,39.036,45.229Zm-23.488,0-2.372-4.351,7.533-2.316,6.724,3.07,2.429,3.609H15.537Zm50.417-16.3-6.758,1.316L51.54,28.757a.915.915,0,0,0-.427,0l-7.657,1.484L35.8,28.757a.914.914,0,0,0-.427,0l-7.646,1.484-5.183-1.012h0l-2.462-.483a.914.914,0,0,0-.427,0L12,30.23,5.249,28.914V15.984H65.965v12.93ZM39.846,36.717,28.31,39.551l-6.229-2.833,1.091-5.071,4.34.843a.914.914,0,0,0,.427,0l7.646-1.484,6.263,1.214-2.013,4.5Zm-34.6-5.5,6.533,1.271a.914.914,0,0,0,.427,0l7.657-1.484,1.1.214-1.136,5.273-8.287,2.552-6.3-2.035V31.23ZM43.14,37.133l-.911-.225,2.024-4.531,7.084-1.372,6.454,1.248-.877,3.081a12.283,12.283,0,0,0-13.774,1.8Zm16-1.417.956-3.362,5.869-1.136v8.647L59.14,35.728ZM5.564,9.249H65.651a.307.307,0,0,1,.315.315v4.183H5.249V9.564a.307.307,0,0,1,.315-.315ZM5.249,44.914V39.36l5.509,1.777,2.226,4.093H5.564a.307.307,0,0,1-.315-.315Zm46.1,11.559A10.119,10.119,0,1,1,61.468,46.353,10.135,10.135,0,0,1,51.348,56.473Zm14.3-11.244H63.66a12.266,12.266,0,0,0-1.675-5.161l3.98,2.417v2.429A.307.307,0,0,1,65.651,45.229ZM12,20.493a1.128,1.128,0,0,1,1.124-1.124h4.5a1.124,1.124,0,1,1,0,2.249h-4.5A1.128,1.128,0,0,1,12,20.493Zm10.119,3.373a1.128,1.128,0,0,1,1.124-1.124h4.5a1.124,1.124,0,1,1,0,2.249h-4.5A1.128,1.128,0,0,1,22.115,23.866Zm10.119-4.5a1.128,1.128,0,0,1,1.124-1.124h4.5a1.124,1.124,0,0,1,0,2.249h-4.5A1.128,1.128,0,0,1,32.234,19.368Zm10.119,4.5a1.128,1.128,0,0,1,1.124-1.124h4.5a1.124,1.124,0,0,1,0,2.249h-4.5A1.128,1.128,0,0,1,42.353,23.866Zm10.119-3.373A1.128,1.128,0,0,1,53.6,19.368h4.5a1.124,1.124,0,1,1,0,2.249H53.6A1.128,1.128,0,0,1,52.473,20.493ZM57.06,42.328a1.12,1.12,0,0,1,0,1.585L50.6,50.379a1.1,1.1,0,0,1-.8.326,1.152,1.152,0,0,1-.8-.326l-3.373-3.373a1.12,1.12,0,0,1,0-1.585,1.107,1.107,0,0,1,1.405-.124,1.088,1.088,0,0,1,.72.663L49.8,48.006l5.667-5.667a1.12,1.12,0,0,1,1.585,0Z" transform="translate(-3 -7)" fill="#65802c"/>
</svg>
