<svg id="chemical_5863526" xmlns="http://www.w3.org/2000/svg" width="77.779" height="77.779" viewBox="0 0 77.779 77.779">
  <g id="Grupo_1106865" data-name="Grupo 1106865" transform="translate(1.255 1.255)">
    <g id="Grupo_1106846" data-name="Grupo 1106846" transform="translate(37.635 62.725)">
      <path id="Trazado_899269" data-name="Trazado 899269" d="M43.545,51v3.764a8.775,8.775,0,0,1-8.782,8.782H31V59.782A8.775,8.775,0,0,1,39.782,51Z" transform="translate(-31 -51)" fill="#b4dd7f"/>
    </g>
    <g id="Grupo_1106847" data-name="Grupo 1106847" transform="translate(12.545 62.725)">
      <path id="Trazado_899270" data-name="Trazado 899270" d="M23.545,51v3.764a8.775,8.775,0,0,1-8.782,8.782H11V59.782A8.775,8.775,0,0,1,19.782,51Z" transform="translate(-11 -51)" fill="#b4dd7f"/>
    </g>
    <g id="Grupo_1106848" data-name="Grupo 1106848" transform="translate(62.725 62.725)">
      <path id="Trazado_899271" data-name="Trazado 899271" d="M51,59.782A8.775,8.775,0,0,1,59.782,51h3.764v3.764a8.775,8.775,0,0,1-8.782,8.782H51Z" transform="translate(-51 -51)" fill="#b4dd7f"/>
    </g>
    <g id="Grupo_1106849" data-name="Grupo 1106849" transform="translate(50.18 62.725)">
      <path id="Trazado_899272" data-name="Trazado 899272" d="M53.545,59.782v3.764H49.782A8.775,8.775,0,0,1,41,54.764V51h3.764A8.775,8.775,0,0,1,53.545,59.782Z" transform="translate(-41 -51)" fill="#b4dd7f"/>
    </g>
    <g id="Grupo_1106850" data-name="Grupo 1106850" transform="translate(0 62.725)">
      <path id="Trazado_899273" data-name="Trazado 899273" d="M13.545,59.782v3.764H9.782A8.775,8.775,0,0,1,1,54.764V51H4.764A8.775,8.775,0,0,1,13.545,59.782Z" transform="translate(-1 -51)" fill="#b4dd7f"/>
    </g>
    <g id="Grupo_1106851" data-name="Grupo 1106851" transform="translate(25.09 62.725)">
      <path id="Trazado_899274" data-name="Trazado 899274" d="M33.545,63.545H29.782A8.775,8.775,0,0,1,21,54.764V51h3.764a8.775,8.775,0,0,1,8.782,8.782Z" transform="translate(-21 -51)" fill="#b4dd7f"/>
    </g>
    <g id="Grupo_1106852" data-name="Grupo 1106852" transform="translate(53.944 57.707)">
      <path id="Trazado_899275" data-name="Trazado 899275" d="M60.886,49.3l.677,2.722A8.775,8.775,0,0,0,52.782,60.8,8.775,8.775,0,0,0,44,52.018l.677-2.722a2.945,2.945,0,0,1,.577-1.154A3,3,0,0,1,47.613,47h.151a3.019,3.019,0,0,1,2.145.891l.364.364.364-.364a3.029,3.029,0,0,1,4.29,0l.364.364.364-.364A3.019,3.019,0,0,1,57.8,47h.151a3.03,3.03,0,0,1,2.936,2.3Z" transform="translate(-44 -47)" fill="#a0d468"/>
    </g>
    <g id="Grupo_1106853" data-name="Grupo 1106853" transform="translate(28.854 57.707)">
      <path id="Trazado_899276" data-name="Trazado 899276" d="M40.886,49.3l.677,2.722A8.775,8.775,0,0,0,32.782,60.8,8.775,8.775,0,0,0,24,52.018l.677-2.722A3.03,3.03,0,0,1,27.613,47h.151a3.019,3.019,0,0,1,2.145.891l.364.364.364-.364a3.029,3.029,0,0,1,4.29,0l.364.364.364-.364A3.019,3.019,0,0,1,37.8,47h.151a3,3,0,0,1,2.358,1.142,2.945,2.945,0,0,1,.577,1.154Z" transform="translate(-24 -47)" fill="#a0d468"/>
    </g>
    <g id="Grupo_1106854" data-name="Grupo 1106854" transform="translate(3.764 57.707)">
      <path id="Trazado_899277" data-name="Trazado 899277" d="M20.886,49.3l.677,2.722A8.775,8.775,0,0,0,12.782,60.8,8.775,8.775,0,0,0,4,52.018L4.677,49.3A3.03,3.03,0,0,1,7.613,47h.151a3.019,3.019,0,0,1,2.145.891l.364.364.364-.364a3.029,3.029,0,0,1,4.29,0l.364.364.364-.364A3.019,3.019,0,0,1,17.8,47h.151A3.03,3.03,0,0,1,20.886,49.3Z" transform="translate(-4 -47)" fill="#a0d468"/>
    </g>
    <g id="Grupo_1106855" data-name="Grupo 1106855" transform="translate(31.363)">
      <path id="Trazado_899278" data-name="Trazado 899278" d="M40.151,3.1l.9,5.432H26L26.9,3.1A2.516,2.516,0,0,1,29.375,1h8.3A2.516,2.516,0,0,1,40.151,3.1Z" transform="translate(-26 -1)" fill="#cf9e76"/>
    </g>
    <g id="Grupo_1106856" data-name="Grupo 1106856" transform="translate(27.599 7.527)">
      <path id="Trazado_899279" data-name="Trazado 899279" d="M45.581,8.255v2.509a1.258,1.258,0,0,1-1.255,1.255H24.255A1.258,1.258,0,0,1,23,10.764V8.255A1.258,1.258,0,0,1,24.255,7H44.327A1.258,1.258,0,0,1,45.581,8.255Z" transform="translate(-23 -7)" fill="#d3a06c"/>
    </g>
    <g id="Grupo_1106857" data-name="Grupo 1106857" transform="translate(37.635 39.743)">
      <path id="Trazado_899280" data-name="Trazado 899280" d="M38.527,51.786a3,3,0,0,0-2.358-1.142h-.151a3.019,3.019,0,0,0-2.145.891l-.364.364-.364-.364A3.019,3.019,0,0,0,31,50.645V47.471a23.678,23.678,0,0,1,2.509-10.626l14.05-3.513.276-.652.2.8a2.777,2.777,0,0,0,2.7,2.108,1.221,1.221,0,0,0,.3-.025v.025a21.1,21.1,0,0,1-2.208,8.255l-.263.527v7.414a2.945,2.945,0,0,0-.577,1.154l-.677,2.722H39.782L39.1,52.94a2.945,2.945,0,0,0-.577-1.154Z" transform="translate(-31 -32.68)" fill="#d3a06c"/>
    </g>
    <g id="Grupo_1106858" data-name="Grupo 1106858" transform="translate(30.108 23.334)">
      <path id="Trazado_899281" data-name="Trazado 899281" d="M34.02,36.109a8.428,8.428,0,0,1-2.246.3H25V28.883h5.018l5.018-5.018,1.957-1.957a7.673,7.673,0,0,1,1.2-.991,8.048,8.048,0,0,1,4.2-1.3.95.95,0,0,1,.188-.013,8.012,8.012,0,0,1,2.3.339l.5.151,3.977,15.92-.276.652-14.05,3.513L34.02,36.122Z" transform="translate(-25 -19.6)" fill="#fcd770"/>
    </g>
    <g id="Grupo_1106859" data-name="Grupo 1106859" transform="translate(22.581 32.617)">
      <path id="Trazado_899282" data-name="Trazado 899282" d="M26.527,27v7.527H22.764A3.761,3.761,0,0,1,20.1,28.1a3.652,3.652,0,0,1,.339-.3,3.743,3.743,0,0,1,2.321-.8Z" transform="translate(-19 -27)" fill="#f0d0b4"/>
    </g>
    <g id="Grupo_1106860" data-name="Grupo 1106860" transform="translate(32.617 12.545)">
      <path id="Trazado_899283" data-name="Trazado 899283" d="M41.5,21.111l.389.677V21.8a8.048,8.048,0,0,0-4.2,1.3,7.673,7.673,0,0,0-1.2.991l-1.957,1.957-1.1-5.495a4.356,4.356,0,0,1-1.982.477A4.433,4.433,0,0,1,27,16.6v-.577h2.509a2.516,2.516,0,0,0,2.509-2.509V11h7.527v.665A23.726,23.726,0,0,0,41.5,21.111Z" transform="translate(-27 -11)" fill="#f0d0b4"/>
    </g>
    <g id="Grupo_1106861" data-name="Grupo 1106861" transform="translate(32.617 12.545)">
      <path id="Trazado_899284" data-name="Trazado 899284" d="M32.018,11v2.509a2.516,2.516,0,0,1-2.509,2.509H27V11Z" transform="translate(-27 -11)" fill="#69d6f4"/>
    </g>
    <g id="Grupo_1106862" data-name="Grupo 1106862" transform="translate(52.689 13.8)">
      <path id="Trazado_899285" data-name="Trazado 899285" d="M49.774,14.02l.452,1.819v.013H50.2L43,17.645V15.174a2.656,2.656,0,0,1,1.819-2.522l1.53-.514A2.807,2.807,0,0,1,47.19,12,2.646,2.646,0,0,1,49.774,14.02Z" transform="translate(-43 -12)" fill="#aab2bd"/>
    </g>
    <g id="Grupo_1106863" data-name="Grupo 1106863" transform="translate(50.18 17.563)">
      <path id="Trazado_899286" data-name="Trazado 899286" d="M58.475,34.746l-1.1-4.428-3.3-13.21A2.777,2.777,0,0,0,51.375,15a2.189,2.189,0,0,0-.64.088H50.71l-7.2,1.794-.4.1A2.777,2.777,0,0,0,41,19.679a2.361,2.361,0,0,0,.088.665l.226.916L45.29,37.18l.2.8a2.777,2.777,0,0,0,2.7,2.108,1.221,1.221,0,0,0,.3-.025A1.166,1.166,0,0,0,48.853,40l7.6-1.894a2.777,2.777,0,0,0,2.108-2.7,2.361,2.361,0,0,0-.088-.665Z" transform="translate(-41 -15)" fill="#ccd1d9"/>
    </g>
    <g id="Grupo_1106864" data-name="Grupo 1106864" transform="translate(53.944 32.617)">
      <path id="Trazado_899287" data-name="Trazado 899287" d="M48.955,28.97a2.493,2.493,0,0,1-2.446,3.048,2.588,2.588,0,0,1-.991-.2,2.51,2.51,0,1,1,3.437-2.848Z" transform="translate(-44 -27)" fill="#aab2bd"/>
    </g>
  </g>
  <g id="Grupo_1106866" data-name="Grupo 1106866" transform="translate(0 0)">
    <path id="Trazado_899288" data-name="Trazado 899288" d="M73.74,62.725,73.3,60.951a4.272,4.272,0,0,0-4.154-3.244H69a4.26,4.26,0,0,0-2.509.81,4.378,4.378,0,0,0-5.018,0,4.257,4.257,0,0,0-2.509-.81h-.144a4.24,4.24,0,0,0-1.11.161V52.985l.132-.265a22.337,22.337,0,0,0,2.234-7.8L67.2,43.141a4.024,4.024,0,0,0,3.053-3.91,3.958,3.958,0,0,0-.122-.977l-4.41-17.638a4.012,4.012,0,0,0-3.578-3.025l-.206-.824A3.915,3.915,0,0,0,56.9,14l-1.536.512a3.908,3.908,0,0,0-2.677,3.713V19.77a4.011,4.011,0,0,0-2.5,3.656c-.228-.031-.457-.063-.686-.077a22.359,22.359,0,0,1-1.8-8.295H50.18a2.512,2.512,0,0,0,2.509-2.509V10.036A2.512,2.512,0,0,0,50.18,7.527H48.734L48,3.145A3.752,3.752,0,0,0,44.292,0H36a3.75,3.75,0,0,0-3.712,3.145l-.731,4.382H30.108A2.512,2.512,0,0,0,27.6,10.036v2.509a2.512,2.512,0,0,0,2.509,2.509h2.509V19.4a5.661,5.661,0,0,0,6.729,5.589l.691,3.452-4.176,4.176H27.6a4.961,4.961,0,0,0-1.568.276L25.6,31.541a3.846,3.846,0,0,0-5.386-2.282l-1.962.981,1.123,2.244,1.962-.981a1.365,1.365,0,0,1,1.869.792l.642,2.034A4.979,4.979,0,0,0,26.435,42.5l.749,2.374a14.7,14.7,0,0,0,10.481,9.879c-.014.345-.03.69-.03,1.035v2.121a4.092,4.092,0,0,0-1.255.607,4.25,4.25,0,0,0-2.509-.812h-.144a4.276,4.276,0,0,0-4.155,3.244l-.443,1.774H23.56l-.444-1.774a4.272,4.272,0,0,0-4.154-3.244h-.144a4.26,4.26,0,0,0-2.509.81,4.378,4.378,0,0,0-5.018,0,4.257,4.257,0,0,0-2.509-.81H8.637a4.276,4.276,0,0,0-4.155,3.244l-.443,1.774H0v5.018A10.048,10.048,0,0,0,10.036,77.779h7.527a10.041,10.041,0,0,0,8.782-5.189,10.041,10.041,0,0,0,8.782,5.189h7.527a10.041,10.041,0,0,0,8.782-5.189,10.041,10.041,0,0,0,8.782,5.189h7.527A10.048,10.048,0,0,0,77.779,67.743V62.725ZM58.817,60.216h.144a1.764,1.764,0,0,1,1.255.519l1.255,1.255,1.255-1.255a1.815,1.815,0,0,1,2.509,0l1.255,1.255,1.255-1.255A1.764,1.764,0,0,1,69,60.216h.144a1.771,1.771,0,0,1,1.721,1.344l.325,1.3a10.051,10.051,0,0,0-7.208,5.053,10.053,10.053,0,0,0-7.21-5.052l.325-1.3a1.773,1.773,0,0,1,1.722-1.345ZM48.65,62.725l-.444-1.774a4.3,4.3,0,0,0-.536-1.243V53.737a14.751,14.751,0,0,0,7.173-7.491L55.8,44a4,4,0,0,0,1.739,1,19.887,19.887,0,0,1-1.95,6.6l-.4.794v7.315a4.28,4.28,0,0,0-.536,1.242l-.443,1.775H48.65ZM44.468,46.548l-1.123,2.244a3.268,3.268,0,0,1,1.817,2.938v.3a12.2,12.2,0,0,1-3.894.655c-.3,0-.6-.015-.892-.035a22.679,22.679,0,0,1,1.908-6.419L53.3,43.481l-.761,1.778A12.221,12.221,0,0,1,47.612,50.9,5.764,5.764,0,0,0,44.468,46.548Zm3.437-14.66-3.646,5.1a7.547,7.547,0,0,1-6.127,3.151H32.617V35.126h3.244L38,37.268l1.774-1.774-1.622-1.622,6.086-6.086a6.763,6.763,0,0,1,1.015-.833,6.613,6.613,0,0,1,5.451-.871l3.637,14.551L42.312,43.64l-.433-1.727A10.031,10.031,0,0,0,46.3,38.451l3.646-5.1Zm8.547,4.492a1.255,1.255,0,1,1,1.255,1.255A1.256,1.256,0,0,1,56.453,36.381Zm10.139,4.327-7.6,1.9A1.549,1.549,0,0,1,57.143,41.5l-.1-.391.424-.989c.082,0,.157.023.238.023a3.756,3.756,0,0,0,3.717-3.3l5.465-1.214.809,3.238a1.585,1.585,0,0,1,.045.368,1.521,1.521,0,0,1-1.152,1.477ZM56.16,16.892,57.7,16.38a1.433,1.433,0,0,1,1.806.994l.151.6L55.2,19.092v-.867a1.4,1.4,0,0,1,.962-1.334Zm-2.32,5.126,7.6-1.9a1.523,1.523,0,0,1,1.845,1.106L66.279,33.19l-5.392,1.2a3.728,3.728,0,0,0-5.714-.772l-2.439-9.755a1.585,1.585,0,0,1-.045-.368,1.521,1.521,0,0,1,1.152-1.477ZM34.76,3.557A1.249,1.249,0,0,1,36,2.509H44.29a1.249,1.249,0,0,1,1.237,1.049l.664,3.969H34.1Zm-4.652,6.48H50.18v2.509H30.108Zm7.527,5.018v1.255a1.256,1.256,0,0,1-1.255,1.255H35.126V15.054ZM41.7,23.945a5.677,5.677,0,0,0,.634-.521l1.211-1.209L41.766,20.44,40.556,21.65A3.179,3.179,0,0,1,35.2,20.072h1.18a3.768,3.768,0,0,0,3.764-3.764V15.054h5.048a24.807,24.807,0,0,0,1.717,8.512,9.17,9.17,0,0,0-3.048,1.3,9.276,9.276,0,0,0-1.394,1.144l-.3.3ZM25.09,37.635A2.512,2.512,0,0,1,27.6,35.126h2.509v5.018H27.6A2.512,2.512,0,0,1,25.09,37.635Zm4.485,6.485-.463-1.467h9.022a10.043,10.043,0,0,0,1.321-.094l.62,2.478a25.12,25.12,0,0,0-2.169,7.178A12.2,12.2,0,0,1,29.575,44.12ZM41.268,55.2a14.768,14.768,0,0,0,3.894-.529v3.2a4.24,4.24,0,0,0-1.11-.161h-.144a4.26,4.26,0,0,0-2.509.81,4.093,4.093,0,0,0-1.255-.607V55.79c0-.212.013-.424.019-.636C40.528,55.181,40.9,55.2,41.268,55.2Zm-7.541,5.018h.144a1.764,1.764,0,0,1,1.255.519l1.255,1.255,1.255-1.255a1.815,1.815,0,0,1,2.509,0L41.4,61.99l1.255-1.255a1.764,1.764,0,0,1,1.255-.519h.144a1.771,1.771,0,0,1,1.721,1.344l.325,1.3a10.051,10.051,0,0,0-7.208,5.053,10.053,10.053,0,0,0-7.21-5.052l.325-1.3A1.773,1.773,0,0,1,33.727,60.216Zm-25.09,0h.144a1.764,1.764,0,0,1,1.255.519l1.255,1.255,1.255-1.255a1.815,1.815,0,0,1,2.509,0l1.255,1.255,1.255-1.255a1.764,1.764,0,0,1,1.255-.519h.144a1.771,1.771,0,0,1,1.721,1.344l.325,1.3A10.051,10.051,0,0,0,13.8,67.914a10.053,10.053,0,0,0-7.21-5.052l.325-1.3a1.773,1.773,0,0,1,1.722-1.345ZM2.509,67.743V65.234H5.018a7.535,7.535,0,0,1,7.527,7.527V73.5L7.159,68.111,5.386,69.885l5.386,5.386h-.735A7.535,7.535,0,0,1,2.509,67.743ZM17.563,75.27h-.735l5.386-5.386L20.44,68.111,15.054,73.5v-.735a7.535,7.535,0,0,1,7.527-7.527H25.09v2.509A7.535,7.535,0,0,1,17.563,75.27ZM27.6,67.743V65.234h2.509a7.535,7.535,0,0,1,7.527,7.527V73.5L32.25,68.111l-1.774,1.774,5.386,5.386h-.735A7.535,7.535,0,0,1,27.6,67.743ZM42.653,75.27h-.735L47.3,69.885,45.53,68.111,40.144,73.5v-.735a7.535,7.535,0,0,1,7.527-7.527H50.18v2.509A7.535,7.535,0,0,1,42.653,75.27Zm10.036-7.527V65.234H55.2a7.535,7.535,0,0,1,7.527,7.527V73.5L57.34,68.111l-1.774,1.774,5.386,5.386h-.735A7.535,7.535,0,0,1,52.689,67.743Zm22.581,0a7.535,7.535,0,0,1-7.527,7.527h-.735l5.386-5.386L70.62,68.111,65.234,73.5v-.735a7.535,7.535,0,0,1,7.527-7.527H75.27Z" transform="translate(0 0)"/>
    <path id="Trazado_899289" data-name="Trazado 899289" d="M0,0H10.718V2.51H0Z" transform="translate(4.563 35.203) rotate(-20.556)"/>
    <path id="Trazado_899290" data-name="Trazado 899290" d="M0,0H12.916V2.509H0Z" transform="translate(10.192 45.812) rotate(-60.923)"/>
    <path id="Trazado_899291" data-name="Trazado 899291" d="M0,0H2.509V12.793H0Z" transform="matrix(0.196, -0.981, 0.981, 0.196, 3.525, 27.568)"/>
  </g>
</svg>
